<?xml version="1.0" encoding="utf-8"?>
<!-- Generator: Adobe Illustrator 15.1.0, SVG Export Plug-In . SVG Version: 6.00 Build 0)  -->
<!DOCTYPE svg PUBLIC "-//W3C//DTD SVG 1.1//EN" "http://www.w3.org/Graphics/SVG/1.1/DTD/svg11.dtd">
<svg version="1.1" id="Layer_1" xmlns="http://www.w3.org/2000/svg" xmlns:xlink="http://www.w3.org/1999/xlink" x="0px" y="0px"
	 width="92px" height="90px" viewBox="0 0 92 90" enable-background="new 0 0 92 90" xml:space="preserve">
<g>
	<path fill="#FC6E03" d="M85.87,47.707c-1.252,0-2.512-0.42-3.551-1.283L46.093,16.316L10.296,46.404
		c-2.352,1.975-5.857,1.67-7.832-0.68c-1.977-2.351-1.672-5.855,0.678-7.832L42.497,4.816c2.059-1.729,5.06-1.737,7.128-0.019
		l39.799,33.076c2.361,1.962,2.686,5.466,0.723,7.828C89.047,47.025,87.465,47.707,85.87,47.707z"/>
	<path fill="#FC6E03" d="M47.313,25.102c-1.017-0.566-1.017-0.566-2.007-0.017c-1.506,0.834-31.25,25.317-31.25,27.037v28.249
		c0,1.721,1.395,3.113,3.113,3.113h16.404c0,0,1.172,0,2.184-1.051c0.58-0.605,0.785-2.3,0.785-2.3V60.738
		c0-1.883,1.525-3.409,3.408-3.409h12.691c1.883,0,3.41,1.526,3.41,3.409v19.633c0,0-0.018,1.496,1.059,2.352
		c1,0.795,2.037,0.764,2.037,0.764h16.275c1.719,0,3.113-1.395,3.113-3.114v-28.25C78.536,50.402,48.813,25.939,47.313,25.102z"/>
	<path fill="#F75800" d="M85.87,50.707c-1.252,0-2.512-0.42-3.551-1.283L46.093,19.316L10.296,49.404
		c-2.352,1.975-5.857,1.67-7.832-0.68c-1.977-2.351-1.672-5.855,0.678-7.832L42.497,7.816c2.059-1.729,5.06-1.737,7.128-0.019
		l39.799,33.076c2.361,1.962,2.686,5.466,0.723,7.828C89.047,50.025,87.465,50.707,85.87,50.707z"/>
	<path fill="#FF861D" d="M85.87,47.707c-1.252,0-2.512-0.42-3.551-1.283L46.093,16.316L10.296,46.404
		c-2.352,1.975-5.857,1.67-7.832-0.68c-1.977-2.351-1.672-5.855,0.678-7.832L42.497,4.816c2.059-1.729,5.06-1.737,7.128-0.019
		l39.799,33.076c2.361,1.962,2.686,5.466,0.723,7.828C89.047,47.025,87.465,47.707,85.87,47.707z"/>
	<path fill="#FFB03E" d="M3.142,40.895L42.497,7.816c2.059-1.729,5.06-1.737,7.128-0.019l39.799,33.076
		c0.9,0.748,1.498,1.719,1.793,2.765c0.568-2.043-0.055-4.32-1.793-5.765L49.625,4.798c-2.068-1.719-5.07-1.711-7.128,0.019
		L3.142,37.895c-1.717,1.443-2.328,3.703-1.768,5.732C1.667,42.596,2.259,41.636,3.142,40.895z"/>
	<path fill="#F75800" d="M47.313,28.102c-1.017-0.566-1.017-0.566-2.007-0.017c-1.506,0.834-31.25,25.317-31.25,27.037v28.249
		c0,1.721,1.395,3.113,3.113,3.113h16.404c0,0,1.172,0,2.184-1.051c0.58-0.605,0.785-2.3,0.785-2.3V63.738
		c0-1.883,1.525-3.409,3.408-3.409h12.691c1.883,0,3.41,1.526,3.41,3.409v19.633c0,0-0.018,1.496,1.059,2.352
		c1,0.795,2.037,0.764,2.037,0.764h16.275c1.719,0,3.113-1.395,3.113-3.114v-28.25C78.536,53.402,48.813,28.939,47.313,28.102z"/>
	<path fill="#FF861D" d="M47.313,25.102c-1.017-0.566-1.017-0.566-2.007-0.017c-1.506,0.834-31.25,25.317-31.25,27.037v28.249
		c0,1.721,1.395,3.113,3.113,3.113h16.404c0,0,1.172,0,2.184-1.051c0.58-0.605,0.785-2.3,0.785-2.3V60.738
		c0-1.883,1.525-3.409,3.408-3.409h12.691c1.883,0,3.41,1.526,3.41,3.409v19.633c0,0-0.018,1.496,1.059,2.352
		c1,0.795,2.037,0.764,2.037,0.764h16.275c1.719,0,3.113-1.395,3.113-3.114v-28.25C78.536,50.402,48.813,25.939,47.313,25.102z"/>
	<path fill="#FFB03E" d="M47.313,25.102c-1.017-0.566-1.017-0.566-2.007-0.017c-1.506,0.834-31.25,25.317-31.25,27.037v4
		c0-1.72,29.744-26.203,31.25-27.037c0.99-0.552,0.99-0.552,2.007,0.017c1.5,0.838,31.223,25.301,31.223,27.021v-4
		C78.536,50.402,48.813,25.939,47.313,25.102z"/>
</g>
</svg>
