<?xml version="1.0" encoding="utf-8"?>
<!-- Generator: Adobe Illustrator 15.1.0, SVG Export Plug-In . SVG Version: 6.00 Build 0)  -->
<!DOCTYPE svg PUBLIC "-//W3C//DTD SVG 1.1//EN" "http://www.w3.org/Graphics/SVG/1.1/DTD/svg11.dtd">
<svg version="1.1" id="Layer_1" xmlns="http://www.w3.org/2000/svg" xmlns:xlink="http://www.w3.org/1999/xlink" x="0px" y="0px"
	 width="90px" height="90px" viewBox="0 0 90 90" enable-background="new 0 0 90 90" xml:space="preserve">
<g>
	<g>
		<g>
			<g>
				<path fill="#6DAE00" d="M11.834,57.447c-4.971,0-9-4.029-9-9V46.57c0-4.971,4.029-9,9-9h64.953c4.971,0,9,4.029,9,9v1.877
					c0,4.971-4.029,9-9,9H11.834z"/>
			</g>
		</g>
	</g>
	<path fill="#F75800" d="M53.75,79.486c0,4.971-4.029,9-9,9h-1.877c-4.971,0-9-4.029-9-9V14.533c0-4.971,4.029-9,9-9h1.877
		c4.971,0,9,4.029,9,9V79.486z"/>
	<path fill="#6DAE00" d="M53.75,79.486c0,4.971-4.029,9-9,9h-1.877c-4.971,0-9-4.029-9-9V14.533c0-4.971,4.029-9,9-9h1.877
		c4.971,0,9,4.029,9,9V79.486z"/>
	<path fill="#97CB07" d="M53.75,76.486c0,4.971-4.029,9-9,9h-1.877c-4.971,0-9-4.029-9-9V11.533c0-4.971,4.029-9,9-9h1.877
		c4.971,0,9,4.029,9,9V76.486z"/>
	<path fill="#B0F131" d="M44.75,2.533h-1.877c-4.971,0-9,4.029-9,9v4c0-4.971,4.029-9,9-9h1.877c4.971,0,9,4.029,9,9v-4
		C53.75,6.563,49.72,2.533,44.75,2.533z"/>
	<path fill="#97CB07" d="M11.834,54.447c-4.971,0-9-4.029-9-9V43.57c0-4.971,4.029-9,9-9h64.953c4.971,0,9,4.029,9,9v1.877
		c0,4.971-4.029,9-9,9H11.834z"/>
	<g>
		<path fill="#B0F131" d="M33.873,34.57H11.834c-4.971,0-9,4.029-9,9v1.877c0,0.189,0.017,0.375,0.028,0.563
			c0.291-4.709,4.19-8.439,8.972-8.439h22.038V34.57z"/>
		<path fill="#B0F131" d="M76.788,34.57H53.75v3h23.038c4.781,0,8.681,3.73,8.972,8.439c0.012-0.188,0.028-0.373,0.028-0.563V43.57
			C85.788,38.6,81.758,34.57,76.788,34.57z"/>
	</g>
</g>
</svg>
