<?xml version="1.0" encoding="utf-8"?>
<!-- Generator: Adobe Illustrator 15.1.0, SVG Export Plug-In . SVG Version: 6.00 Build 0)  -->
<!DOCTYPE svg PUBLIC "-//W3C//DTD SVG 1.1//EN" "http://www.w3.org/Graphics/SVG/1.1/DTD/svg11.dtd">
<svg version="1.1" id="Layer_1" xmlns="http://www.w3.org/2000/svg" xmlns:xlink="http://www.w3.org/1999/xlink" x="0px" y="0px"
	 width="95px" height="100px" viewBox="0 0 95 100" enable-background="new 0 0 95 100" xml:space="preserve">
<g>
	<g>
		<circle fill="#6DAE00" cx="47.5" cy="55.184" r="44.13"/>
		<circle fill="#B0F131" cx="47.5" cy="45.184" r="43.368"/>
		<circle fill="#97CB07" cx="47.5" cy="51.184" r="43.368"/>
		<path fill="#AAE223" d="M47.501,92.254c-23.566,0-42.73-18.801-43.34-42.22c-0.012,0.383-0.029,0.764-0.029,1.149
			c0,23.952,19.416,43.369,43.369,43.369c23.951,0,43.367-19.417,43.367-43.369c0-0.386-0.02-0.767-0.029-1.149
			C90.228,73.453,71.065,92.254,47.501,92.254z"/>
	</g>
	<g>
		<path fill="#4E6002" d="M66.979,51.505c0-5.06-23.516-20.626-28.695-16.31c-5.166,4.305-5.941,29.677-0.646,33.649
			C44.593,74.06,66.979,58.591,66.979,51.505z"/>
		<path fill="#5E8100" d="M66.979,51.505c0-5.06-23.516-22.626-28.695-18.31c-5.166,4.305-5.941,29.677-0.646,33.649
			C44.593,72.06,66.979,55.476,66.979,51.505z"/>
		<path fill="#789E04" d="M38.284,35.184c-2.646,2.205-4.137,9.94-4.254,17.495c-0.139-8.138,1.375-17.084,4.254-19.483
			c5.18-4.316,28.695,13.25,28.695,18.31c0,0.253-0.092,0.558-0.264,0.904C64.118,46.327,43.142,31.137,38.284,35.184z"/>
	</g>
</g>
</svg>
