<?xml version="1.0" encoding="utf-8"?>
<!-- Generator: Adobe Illustrator 15.1.0, SVG Export Plug-In . SVG Version: 6.00 Build 0)  -->
<!DOCTYPE svg PUBLIC "-//W3C//DTD SVG 1.1//EN" "http://www.w3.org/Graphics/SVG/1.1/DTD/svg11.dtd">
<svg version="1.1" id="Layer_1" xmlns="http://www.w3.org/2000/svg" xmlns:xlink="http://www.w3.org/1999/xlink" x="0px" y="0px"
	 width="130px" height="130px" viewBox="-17.5 -15 130 130" enable-background="new -17.5 -15 130 130" xml:space="preserve">
<g>
	<g>
		<circle fill="#F75800" cx="47.279" cy="53.708" r="57.707"/>
		<circle fill="#FF861D" cx="47.279" cy="45.708" r="57.707"/>
		<circle fill="#FF861D" cx="47.279" cy="45.708" r="57.707"/>
		<path fill="#FF941F" d="M47.279,99.416c-31.199,0-56.601-24.765-57.657-55.708c-0.022,0.665-0.05,1.329-0.05,2
			c0,31.871,25.836,57.708,57.707,57.708c31.871,0,57.707-25.837,57.707-57.708c0-0.671-0.027-1.335-0.049-2
			C103.881,74.651,78.479,99.416,47.279,99.416z"/>
		<path fill="#FFA619" d="M47.279-3.683c30.525,0,55.498,23.705,57.555,53.708c0.09-1.323,0.152-2.654,0.152-4
			c0-31.871-25.836-57.708-57.707-57.708c-31.871,0-57.707,25.837-57.707,57.708c0,1.346,0.063,2.677,0.153,4
			C-8.218,20.022,16.755-3.683,47.279-3.683z"/>
		<g>
			<path fill="#C60905" d="M65.633,66.305c0.084-0.429,0.084-2.194,0-2.623v-25.05V25.105v-1.751c0,0-0.061-0.571-0.299-0.744
				c-0.246-0.18-0.861-0.056-0.861-0.056l-31.131,9.938c0,0-0.502,0.161-0.676,0.335c-0.238,0.238-0.262,0.732-0.262,0.732v15.688
				v13.748c-1.102-0.343-2.291-0.538-3.537-0.538c-5.524,0-10.004,3.681-10.004,8.224s4.479,8.224,10.004,8.224
				c4.958,0,9.062-2.966,9.855-6.856l0,0l0,0c0.09-0.446,0.09-2.289,0-2.734V48.376c0,0-0.012-0.57,0.217-0.964
				c0.186-0.318,0.621-0.451,0.621-0.451l18.846-6.021c0,0,0.764-0.146,1.051,0.064c0.264,0.191,0.309,0.8,0.309,0.8v15.652
				c-1.227-0.44-2.576-0.688-3.998-0.688c-5.525,0-10.004,3.681-10.004,8.224s4.479,8.224,10.004,8.224
				C60.748,73.217,64.867,70.223,65.633,66.305L65.633,66.305L65.633,66.305z"/>
			<path fill="#E21005" d="M65.633,64.305c0.084-0.429,0.084-2.194,0-2.623v-25.05V23.105v-1.751c0,0-0.061-0.571-0.299-0.744
				c-0.246-0.18-0.861-0.056-0.861-0.056l-31.131,9.938c0,0-0.502,0.161-0.676,0.335c-0.238,0.238-0.262,0.732-0.262,0.732v15.688
				v13.748c-1.102-0.343-2.291-0.538-3.537-0.538c-5.524,0-10.004,3.681-10.004,8.224s4.479,8.224,10.004,8.224
				c4.958,0,9.062-2.966,9.855-6.856l0,0l0,0c0.09-0.446,0.09-2.289,0-2.734V46.376c0,0-0.012-0.57,0.217-0.964
				c0.186-0.318,0.621-0.451,0.621-0.451l18.846-6.021c0,0,0.764-0.146,1.051,0.064c0.264,0.191,0.309,0.8,0.309,0.8v15.652
				c-1.227-0.44-2.576-0.688-3.998-0.688c-5.525,0-10.004,3.681-10.004,8.224s4.479,8.224,10.004,8.224
				C60.748,71.217,64.867,68.223,65.633,64.305L65.633,64.305L65.633,64.305z"/>
			<path fill="#FC1C17" d="M55.768,57.77c1.422,0,2.771,0.247,3.998,0.688v-3c-1.227-0.44-2.576-0.688-3.998-0.688
				c-5.525,0-10.004,3.681-10.004,8.224c0,0.513,0.064,1.013,0.174,1.5C46.795,60.668,50.865,57.77,55.768,57.77z"/>
			<path fill="#FC1C17" d="M65.633,61.682v2.623C65.717,63.876,65.717,62.11,65.633,61.682z"/>
			<path fill="#FC1C17" d="M33.342,33.492l31.131-9.938c0,0,0.615-0.124,0.861,0.056c0.238,0.173,0.299,0.744,0.299,0.744v-1.249
				v-1.751c0,0-0.061-0.571-0.299-0.744c-0.246-0.18-0.861-0.056-0.861-0.056l-31.131,9.938c0,0-0.502,0.161-0.676,0.335
				c-0.238,0.238-0.262,0.732-0.262,0.732v3c0,0,0.023-0.494,0.262-0.732C32.84,33.653,33.342,33.492,33.342,33.492z"/>
			<path fill="#FC1C17" d="M28.868,63.457c1.246,0,2.435,0.195,3.537,0.538v-3c-1.102-0.343-2.291-0.538-3.537-0.538
				c-5.524,0-10.004,3.681-10.004,8.224c0,0.513,0.064,1.013,0.174,1.5C19.897,66.355,23.967,63.457,28.868,63.457z"/>
			<path fill="#FC1C17" d="M38.723,70.048c0.09-0.446,0.09-2.289,0-2.734V70.048z"/>
		</g>
	</g>
</g>
</svg>
