<?xml version="1.0" encoding="utf-8"?>
<!-- Generator: Adobe Illustrator 15.1.0, SVG Export Plug-In . SVG Version: 6.00 Build 0)  -->
<!DOCTYPE svg PUBLIC "-//W3C//DTD SVG 1.1//EN" "http://www.w3.org/Graphics/SVG/1.1/DTD/svg11.dtd">
<svg version="1.1" id="Layer_1" xmlns="http://www.w3.org/2000/svg" xmlns:xlink="http://www.w3.org/1999/xlink" x="0px" y="0px"
	 width="90px" height="90px" viewBox="0 0 90 90" enable-background="new 0 0 90 90" xml:space="preserve">
<g>
	<path fill="#F75800" d="M80.672,36.665L70.23,36.529c-0.957-2.284-2.223-4.444-3.777-6.42l5.299-9.153
		c0.889-1.531,0.363-3.494-1.17-4.38L58.293,9.462c-1.531-0.886-3.492-0.363-4.381,1.17l-5.297,9.152
		c-2.199-0.32-4.414-0.371-6.597-0.165l-5.049-9.168c-0.855-1.551-2.805-2.116-4.355-1.263L20.176,16.04
		c-1.553,0.854-2.117,2.805-1.264,4.355l4.748,8.617c-1.154,1.324-2.203,2.774-3.117,4.354c-0.475,0.816-0.898,1.648-1.279,2.491
		l-9.551-0.126c-1.77-0.023-3.225,1.395-3.248,3.164L6.278,53.093c-0.021,1.771,1.395,3.227,3.164,3.25l8.926,0.117
		c1.002,2.87,2.475,5.582,4.383,8.014l-4.385,7.578c-0.889,1.533-0.365,3.494,1.168,4.381l12.289,7.113
		c1.531,0.887,3.494,0.363,4.381-1.17l4.387-7.578c2.764,0.401,5.546,0.383,8.263-0.039l4.293,7.797
		c0.854,1.553,2.805,2.117,4.355,1.264l12.439-6.852c1.551-0.854,2.115-2.805,1.262-4.354l-4.596-8.344
		c0.738-0.961,1.432-1.976,2.055-3.056c0.768-1.321,1.406-2.684,1.934-4.068l9.807,0.131c1.771,0.023,3.227-1.395,3.25-3.164
		l0.186-14.199C83.861,38.145,82.443,36.689,80.672,36.665z M38.379,57.044c-5.688-3.291-7.631-10.57-4.34-16.258
		c3.293-5.688,10.572-7.63,16.261-4.339c5.688,3.292,7.629,10.571,4.338,16.26C51.346,58.395,44.067,60.337,38.379,57.044z"/>
	<path fill="#FF861D" d="M80.672,33.665L70.23,33.529c-0.957-2.284-2.223-4.444-3.777-6.42l5.299-9.153
		c0.889-1.531,0.363-3.494-1.17-4.38L58.293,6.462c-1.531-0.886-3.492-0.363-4.381,1.17l-5.297,9.152
		c-2.199-0.32-4.414-0.371-6.597-0.165l-5.049-9.168c-0.855-1.551-2.805-2.116-4.355-1.263L20.176,13.04
		c-1.553,0.854-2.117,2.805-1.264,4.355l4.748,8.617c-1.154,1.324-2.203,2.774-3.117,4.354c-0.475,0.816-0.898,1.648-1.279,2.491
		l-9.551-0.126c-1.77-0.023-3.225,1.395-3.248,3.164L6.278,50.093c-0.021,1.771,1.395,3.227,3.164,3.25l8.926,0.117
		c1.002,2.87,2.475,5.582,4.383,8.014l-4.385,7.578c-0.889,1.533-0.365,3.494,1.168,4.381l12.289,7.113
		c1.531,0.887,3.494,0.363,4.381-1.17l4.387-7.578c2.764,0.401,5.546,0.383,8.263-0.039l4.293,7.797
		c0.854,1.553,2.805,2.117,4.355,1.264l12.439-6.852c1.551-0.854,2.115-2.805,1.262-4.354l-4.596-8.344
		c0.738-0.961,1.432-1.976,2.055-3.056c0.768-1.321,1.406-2.684,1.934-4.068l9.807,0.131c1.771,0.023,3.227-1.395,3.25-3.164
		l0.186-14.199C83.861,35.145,82.443,33.689,80.672,33.665z M38.379,55.044c-5.688-3.291-7.631-10.57-4.34-16.258
		c3.293-5.688,10.572-7.63,16.261-4.339c5.688,3.292,7.629,10.571,4.338,16.26C51.346,56.395,44.067,58.337,38.379,55.044z"/>
	<g>
		<g>
			<path fill="#FFB03E" d="M38.379,58.044c5.688,3.293,12.966,1.351,16.259-4.337c1.35-2.332,1.807-4.928,1.499-7.41
				c-0.198,1.511-0.688,3.009-1.499,4.41c-3.293,5.688-10.572,7.63-16.259,4.337c-3.357-1.942-5.396-5.276-5.838-8.85
				C31.936,50.817,34.093,55.563,38.379,58.044z"/>
			<path fill="#FFB03E" d="M67.424,28.433l-0.971,1.677c1.555,1.976,2.82,4.136,3.777,6.42l10.441,0.136
				c1.639,0.022,2.959,1.273,3.133,2.859l0.033-2.611c0.023-1.769-1.395-3.224-3.166-3.248L70.23,33.529
				C69.482,31.744,68.54,30.038,67.424,28.433z"/>
			<path fill="#FFB03E" d="M20.176,16.04l12.438-6.852c1.551-0.854,3.5-0.288,4.355,1.263l5.049,9.168
				c2.184-0.206,4.398-0.155,6.597,0.165l5.297-9.152c0.889-1.533,2.85-2.056,4.381-1.17l12.289,7.114
				c0.54,0.312,0.946,0.761,1.219,1.273c0.807-1.515,0.28-3.408-1.219-4.273L58.293,6.462c-1.531-0.886-3.492-0.363-4.381,1.17
				l-5.297,9.152c-2.199-0.32-4.414-0.371-6.597-0.165l-5.049-9.168c-0.855-1.551-2.805-2.116-4.355-1.263L20.176,13.04
				c-1.538,0.846-2.101,2.765-1.284,4.308C19.175,16.815,19.607,16.353,20.176,16.04z"/>
			<path fill="#FFB03E" d="M6.465,38.896c0.023-1.77,1.479-3.188,3.248-3.164l9.551,0.126c0.381-0.843,0.805-1.675,1.279-2.491
				c0.914-1.579,1.963-3.029,3.117-4.354l-0.975-1.77c-0.767,0.985-1.498,2.011-2.142,3.123c-0.475,0.816-0.898,1.648-1.279,2.491
				l-9.551-0.126c-1.77-0.023-3.225,1.395-3.248,3.164L6.278,50.093c-0.001,0.134,0.02,0.261,0.035,0.39L6.465,38.896z"/>
		</g>
	</g>
	<g>
		<g>
			<g>
				<path fill="#FFA619" d="M69.941,72.968l-12.439,6.852c-1.551,0.854-3.502,0.289-4.355-1.264l-4.293-7.797
					c-2.717,0.422-5.5,0.44-8.263,0.039l-4.387,7.578c-0.887,1.533-2.85,2.057-4.381,1.17l-12.289-7.113
					c-0.875-0.506-1.407-1.364-1.549-2.291c-0.209,1.276,0.363,2.604,1.549,3.291l12.289,7.113c1.531,0.887,3.494,0.363,4.381-1.17
					l4.387-7.578c2.764,0.401,5.546,0.383,8.263-0.039l4.293,7.797c0.854,1.553,2.805,2.117,4.355,1.264l12.439-6.852
					c1.218-0.67,1.814-2.016,1.607-3.313C71.4,71.6,70.845,72.471,69.941,72.968z"/>
			</g>
		</g>
	</g>
	<g display="none">
		<path display="inline" fill="#FFCB63" d="M22.75,63.978c0.072-1.286,0.264-2.133,0-2.504l-4.387,7.578
			c-0.525,0.906-0.553,1.961-0.174,2.856c0.051-0.119,0.105-0.237,0.174-0.353L22.75,63.978z"/>
		<path display="inline" fill="#FFCB63" d="M38.379,57.548c5.688,3.293,12.966,1.352,16.259-4.338
			c1.311-2.267,1.789-4.785,1.531-7.205c-0.17,1.609-0.67,3.211-1.531,4.703c-3.293,5.688-10.572,7.629-16.259,4.336
			c-3.422-1.979-5.484-5.4-5.873-9.052C32.03,50.521,34.184,55.12,38.379,57.548z"/>
		<path display="inline" fill="#FFCB63" d="M66.453,27.109l0.021,1.95c1.555,1.975,2.801,4.691,3.756,6.974l10.443,0.138
			c1.623,0.021,2.945,1.246,3.139,2.813l0.023-2.07c0.025-1.77-1.393-3.225-3.162-3.249L70.23,33.529
			C69.447,31.661,67.639,28.78,66.453,27.109z"/>
		<path display="inline" fill="#FFCB63" d="M20.174,15.544l12.438-6.851c1.553-0.854,3.502-0.289,4.355,1.262l5.051,9.168
			c2.182-0.206,4.396-0.155,6.595,0.165l5.297-9.152c0.889-1.533,2.852-2.057,4.383-1.17l12.289,7.114
			c0.627,0.362,1.082,0.904,1.342,1.524c0.627-1.471,0.076-3.208-1.342-4.028L58.293,6.462c-1.531-0.886-3.494-0.363-4.383,1.17
			l-5.297,9.152c-2.199-0.32-4.414-0.371-6.595-0.165l-5.051-9.168c-0.854-1.551-2.805-2.116-4.355-1.263L20.174,13.04
			c-1.453,0.801-2.041,2.567-1.402,4.064C19.042,16.464,19.518,15.905,20.174,15.544z"/>
		<path display="inline" fill="#FFCB63" d="M6.463,38.4c0.023-1.771,1.48-3.188,3.248-3.163l9.551,0.126
			c0.381-0.843,0.807-1.675,1.279-2.493c0.914-1.578,1.553-3.338,2.707-4.665l0.41-2.192c-0.83,1.045-2.428,3.162-3.117,4.354
			c-0.473,0.817-0.898,1.648-1.279,2.491l-9.551-0.126c-1.77-0.023-3.225,1.395-3.248,3.164V38.4z"/>
		<path display="inline" fill="#FFCB63" d="M66.607,61.271c-0.256,0.365-0.072,1.269,0,2.503l4.596,8.345
			c0.053,0.096,0.1,0.193,0.143,0.292c0.367-0.874,0.352-1.901-0.143-2.796L66.607,61.271z"/>
	</g>
</g>
</svg>
