<?xml version="1.0" encoding="utf-8"?>
<!-- Generator: Adobe Illustrator 15.1.0, SVG Export Plug-In . SVG Version: 6.00 Build 0)  -->
<!DOCTYPE svg PUBLIC "-//W3C//DTD SVG 1.1//EN" "http://www.w3.org/Graphics/SVG/1.1/DTD/svg11.dtd">
<svg version="1.1" id="Layer_1" xmlns="http://www.w3.org/2000/svg" xmlns:xlink="http://www.w3.org/1999/xlink" x="0px" y="0px"
	 width="95px" height="100px" viewBox="0 0 95 100" enable-background="new 0 0 95 100" xml:space="preserve">
<g>
	<g>
		<circle fill="#6DAE00" cx="47.332" cy="52.582" r="44.13"/>
		<circle display="none" fill="#B0F131" cx="47.332" cy="41.582" r="43.368"/>
		<circle fill="#97CB07" cx="47.332" cy="47.582" r="43.368"/>
		<circle fill="#97CB07" cx="47.332" cy="47.582" r="43.368"/>
		<path fill="#B0F131" d="M47.333,9.214c23.112,0,41.995,18.08,43.292,40.868c0.047-0.828,0.076-1.66,0.076-2.5
			c0-23.952-19.416-43.368-43.368-43.368C23.38,4.214,3.963,23.63,3.963,47.582c0,0.84,0.03,1.672,0.077,2.5
			C5.336,27.294,24.22,9.214,47.333,9.214z"/>
		<path fill="#AAE223" d="M47.333,88.652c-23.566,0-42.729-18.801-43.34-42.22c-0.01,0.383-0.029,0.764-0.029,1.149
			c0,23.952,19.417,43.369,43.369,43.369c23.952,0,43.368-19.417,43.368-43.369c0-0.386-0.019-0.767-0.029-1.149
			C90.061,69.852,70.897,88.652,47.333,88.652z"/>
	</g>
	<g>
		<path fill="#4E6002" d="M27.852,49.903c0-5.06,23.516-20.626,28.696-16.31c5.166,4.305,5.941,29.677,0.646,33.649
			C50.239,72.458,27.852,56.989,27.852,49.903z"/>
		<path fill="#5E8100" d="M27.852,49.903c0-5.06,23.516-22.626,28.696-18.31c5.166,4.305,5.941,29.677,0.646,33.649
			C50.239,70.458,27.852,53.874,27.852,49.903z"/>
		<path fill="#789E04" d="M56.548,33.582c2.646,2.205,4.137,9.94,4.253,17.495c0.14-8.138-1.374-17.084-4.253-19.483
			c-5.18-4.316-28.696,13.25-28.696,18.31c0,0.253,0.093,0.558,0.265,0.904C30.714,44.726,51.69,29.535,56.548,33.582z"/>
	</g>
</g>
</svg>
