<?xml version="1.0" encoding="utf-8"?>
<!-- Generator: Adobe Illustrator 15.1.0, SVG Export Plug-In . SVG Version: 6.00 Build 0)  -->
<!DOCTYPE svg PUBLIC "-//W3C//DTD SVG 1.1//EN" "http://www.w3.org/Graphics/SVG/1.1/DTD/svg11.dtd">
<svg version="1.1" id="Layer_1" xmlns="http://www.w3.org/2000/svg" xmlns:xlink="http://www.w3.org/1999/xlink" x="0px" y="0px"
	 width="512px" height="512px" viewBox="0 0 512 512" enable-background="new 0 0 512 512" xml:space="preserve">
<g>
	<g>
		<path fill="#154403" d="M172,73.046c0.752,0.813,1.488,2.336,1.488,5.09c0,3.818-0.471,11.201-0.848,16.101
			c-0.637,8.263-0.848,13.982-2.268,19.276c-1.535,5.724-7.459,5.188-12.16,4.756c-3.463-0.145-5.889-0.725-9.262-0.089
			c-2.805,0.527-3.852,3.174-4.486,5.927c-0.592,2.563-0.92,5.214-1.059,7.84c-0.174,3.264-0.191,8.441,4.154,9.381
			c2.693,0.582,6.891-0.063,9.615-0.271c2.754-0.213,5.721,0.032,8.262,1.907c3.492,2.572,2.543,8.05,1.695,12.921
			c-0.451,2.598-2.738,5.592-5.508,6.568c-2.318,0.815-5.859,0.405-8.264,0.212c-2.385-0.191-7.367-0.312-9.32,3.813
			c-1.576,3.325-1.328,6.981-1.412,10.608c-0.076,3.268,0.809,8.194-2.445,10.222c-4.852,3.022-33.662,3.022-39.23,0.071
			c-8.65-4.587-7.145-97.466-6.508-110.812c0.299-6.291,9.189-4.704,13.023-4.689c6.352,0.022,12.705,0,19.057,0.004
			c12.764,0.011,25.523,0.007,38.285,0.004C168.053,71.884,170.684,71.625,172,73.046z"/>
		<path fill="#306730" d="M106.053,76.426c6.465,0.023,12.928,0,19.393,0.003c12.984,0.012,25.969,0.009,38.955,0.005
			c3.299-0.003,5.977-0.265,7.316,1.182c0.764,0.827,1.771,2.891,1.771,0.521c0-2.754-0.736-4.276-1.488-5.09
			c-1.316-1.421-3.947-1.162-7.189-1.16c-12.762,0.003-25.521,0.007-38.285-0.004c-6.352-0.004-12.705,0.019-19.057-0.004
			c-3.834-0.015-12.725-1.602-13.023,4.689c-0.018,0.354-0.033,0.769-0.053,1.232C97.225,75.491,103.108,76.414,106.053,76.426z"/>
		<path fill="#154403" d="M140.184,183.176c-4.852,3.023-27.811,3.843-33.982,2.58c-7.531-1.537-8.396-5.655-8.396-5.655
			s1.244,6.416,3.148,7.278c6.785,3.073,34.379,2.951,39.23-0.071c2.912-1.813,2.51-5.947,2.447-9.14
			C142.475,180.2,141.915,182.099,140.184,183.176z"/>
		<path fill="#154403" d="M170.374,109.381c-1.535,5.725-7.459,5.188-12.16,4.757c-3.463-0.145-5.889-0.725-9.262-0.09
			c-2.805,0.528-3.852,3.174-4.486,5.928c-0.592,2.563-0.92,5.212-1.059,7.84c-0.059,1.075-0.096,2.356,0.031,3.627
			c0.15-2.46,0.473-4.937,1.027-7.336c0.635-2.753,1.682-5.399,4.486-5.927c3.373-0.636,5.799-0.056,9.262,0.089
			c4.701,0.432,10.625,0.968,12.16-4.756c1.42-5.294,1.631-11.014,2.268-19.276C173.018,89.337,171.793,104.088,170.374,109.381z"/>
		<path fill="#154403" d="M167.133,151.754c-0.451,2.597-2.738,5.592-5.508,6.566c-2.318,0.816-5.859,0.406-8.264,0.213
			c-2.385-0.191-7.367-0.313-9.32,3.813c-1.576,3.325-1.328,6.981-1.412,10.608c-0.016,0.636,0.006,1.334,0.025,2.062
			c0.031-2.936,0.109-5.846,1.387-8.538c1.953-4.125,6.936-4.005,9.32-3.813c2.404,0.193,5.945,0.604,8.264-0.212
			c2.77-0.977,5.057-3.971,5.508-6.568c0.504-2.892,1.041-5.997,0.666-8.583C167.649,148.776,167.387,150.292,167.133,151.754z"/>
		<circle fill="#306730" cx="113.206" cy="87.709" r="5.371"/>
		<circle fill="#306730" cx="155.758" cy="86.057" r="3.305"/>
		<circle fill="#306730" cx="123.534" cy="136.047" r="5.99"/>
		<circle fill="#306730" cx="150.8" cy="152.158" r="2.272"/>
		<circle fill="#306730" cx="108.249" cy="162.486" r="4.338"/>
		<circle fill="#306730" cx="131.177" cy="176.327" r="3.511"/>
		<circle fill="#306730" cx="111.346" cy="106.92" r="3.512"/>
		<circle fill="#306730" cx="137.581" cy="107.127" r="5.785"/>
	</g>
	<g>
		<path fill="#3A7222" d="M339.796,390.089c-3.075,2.954-3.476,8.323,2.497,5.426c5.296-2.569,8.137-8.315,11.905-12.53
			c3.519-3.933,7.197-7.731,10.864-11.524c8.376-8.668,16.91-17.196,25.664-25.479c3.487-3.3,6.987-6.604,10.683-9.667
			c1.476-1.226,14.471-9.783,13.748-13.128c-0.78-3.62-8.528-3.993-10.535-4.272c-7.45-1.036-15.06-0.808-22.466,0.445
			c-14.258,2.411-27.771,8.304-39.839,16.18c-9.751,6.362-22.347,16.037-26.949,27.26c-1.487,3.63-2.626,15.082,3.295,15.314
			c5.774,0.228,14.213-5.405,19.489-8.273c9.059-4.924,24.558-16.031,33.96-19.888c-9.091,9.089-15.663,20.574-19.451,26.056
			C348.92,381.419,344.485,385.58,339.796,390.089z"/>
		<path fill="#43852D" d="M268.312,424.598c5.067,0.319,10.108,0.821,15.213,0.312c1.645-0.166,6.44-0.266,7.052-2.307
			c1.254-4.181-11.611-2.536-13.873-2.579c-6.371-0.119-12.783-0.494-18.997-1.998c-7.063-1.711-21.879-9.381-19.818,4.944
			C247.477,425.794,258.447,423.978,268.312,424.598z"/>
		<path fill="#43852D" d="M273.581,398.218c36.155,0,65.464-26.12,65.464-58.343c0-8.229-1.951-16.355-5.635-23.693
			c-6.633-13.223-18.329-23.5-31.983-28.987c-6.755-2.715-14.576-5.921-21.992-5.311c-7.477,0.613-11.893,5.163-17.58,9.31
			c-10.498,7.654-20.696,13.814-32.711,18.431c-14.428,5.546-21.028,15.211-21.028,30.251
			C208.115,372.098,237.425,398.218,273.581,398.218z"/>
		<linearGradient id="SVGID_1_" gradientUnits="userSpaceOnUse" x1="256.4248" y1="399.9971" x2="300.1944" y2="296.1636">
			<stop  offset="0.012" style="stop-color:#8BC53F"/>
			<stop  offset="0.305" style="stop-color:#88C33E"/>
			<stop  offset="0.479" style="stop-color:#80BB3B"/>
			<stop  offset="0.6219" style="stop-color:#72AF35"/>
			<stop  offset="0.748" style="stop-color:#5E9D2D"/>
			<stop  offset="0.863" style="stop-color:#448622"/>
			<stop  offset="0.9685" style="stop-color:#246B15"/>
			<stop  offset="1" style="stop-color:#196111"/>
		</linearGradient>
		<path fill="url(#SVGID_1_)" d="M234.211,360.056c-9.862,3.287-21.712-2.376-21.712-2.376s-2.74,7.669,13.826,22.474
			c12.891,11.521,30.121,18.064,47.256,18.064c36.155,0,65.464-26.12,65.464-58.341c0-6.742-2.243-12.33-6.542-17.459
			c-4.93-5.886-12.524-6.637-19.669-8.749c-10.081-2.978-19.225-3.854-29.759-3.073c-7.082,0.524-18.155,0.285-23.792,5.418
			c-5.942,5.41-2.909,14.26-4.254,21.187C253.219,346.528,242.3,357.359,234.211,360.056z"/>
		<g opacity="0.29">
			<path fill="#43852D" d="M273.581,398.218c33.992,0,61.933-23.092,65.152-52.634c-6.987,25.521-32.808,44.466-63.597,44.466
				c-17.136,0-34.363-6.546-47.256-18.064c-5.679-5.075-9.089-9.313-11.118-12.69c-2.6-0.82-4.264-1.615-4.264-1.615
				s-2.74,7.669,13.826,22.474C239.216,391.674,256.446,398.218,273.581,398.218z"/>
		</g>
		<ellipse fill="#43852D" cx="325.486" cy="197.736" rx="24.385" ry="23.326"/>
		<g>
			<circle fill="#154403" cx="325.194" cy="197.47" r="19.789"/>
			<circle fill="#F0FFEB" cx="325.195" cy="197.47" r="18.394"/>
			<circle fill="#8BC53F" cx="321.59" cy="193.539" r="11.133"/>
			<circle fill="#154403" cx="320.745" cy="192.551" r="7.938"/>
		</g>
		<path fill="#43852D" d="M326.509,423.064c4.533,0.51,9.01,0.008,13.51-0.31c8.762-0.622,18.506,1.196,27.021-1.628
			c1.833-14.327-11.328-6.657-17.601-4.946c-5.519,1.506-11.214,1.881-16.873,2c-2.009,0.041-13.436-1.604-12.322,2.578
			C320.786,422.802,325.047,422.9,326.509,423.064z"/>
		<linearGradient id="SVGID_2_" gradientUnits="userSpaceOnUse" x1="302.8838" y1="383.4258" x2="377.9229" y2="383.4258">
			<stop  offset="0.012" style="stop-color:#43852D"/>
			<stop  offset="0.398" style="stop-color:#499530"/>
			<stop  offset="1" style="stop-color:#55B537"/>
		</linearGradient>
		<path fill="url(#SVGID_2_)" d="M334.358,365.813c2.526-3.42,9.963-17.324,11.581-21.081c1.943-4.513,4.363-6.764,3.984-12.192
			c-0.257-3.707-1.213-4.605-4.586-4.515c-6.548,0.174-8.483,11.067-10.721,17.702c-3.522,10.442-6.763,21.328-10.905,31.313
			c-4.007,9.654-8.961,18.854-13.832,28.089c-2.948,5.588-11.92,16.02-3.444,20.502c5.568,2.945,12.56,2.041,18.619,2.841
			c6.971,0.919,15.112,2.277,21.534,5.345c3.984,1.901,9.008,5.471,13.646,4.971c8.895-0.962,2.813-8.083-2.856-9.166
			c-6.082-1.162-12.217-3.14-18.453-2.889c9.604-0.952,18.769-0.62,28.246,1.071c3.72,0.664,5.568,0.721,8.478-2.069
			c3.581-3.435,2.98-7.129-2.152-8.407c-4.612-1.149-9.356,2.007-13.954,2.388c-5.205,0.431-10.644-0.262-15.724-0.557
			c-5.037-0.296-9.736-0.666-14.661-0.999c-3.277-0.22-11.378-0.153-13.895-2.538c-3.278-3.108,0.004-8.874,1.483-12.031
			C322.493,391.336,326.813,376.023,334.358,365.813z"/>
		<linearGradient id="SVGID_3_" gradientUnits="userSpaceOnUse" x1="217.9214" y1="276.7012" x2="401.7773" y2="276.7012">
			<stop  offset="0.012" style="stop-color:#43852D"/>
			<stop  offset="0.398" style="stop-color:#499530"/>
			<stop  offset="1" style="stop-color:#55B537"/>
		</linearGradient>
		<path fill="url(#SVGID_3_)" d="M384.431,254.777c6.26-4.726,15.069-11.957,17.025-19.9c3.677-14.996-25.199-26.063-36.15-28.635
			c-16.178-3.798-31.537-2.814-46.807-0.102c-11.521,2.047-22.962,5.201-34.722,7.787c-15.948,3.509-19.236,13.918-36.766,13.371
			c-35.76-1.118-33.266,40.574-20.464,66.596c11.806,23.998,39.708,40.153,64.353,49.306c28.425,10.558,67.396,8.863,87.472-10.155
			c6.781-6.424,6.706-16.565,3.461-24.788c-3.069-7.774-9.539-12.19-14.821-18.256c-5.06-5.814-12.194-15.049-9.81-23.179
			C365.744,265.566,377.589,259.942,384.431,254.777z"/>
		<linearGradient id="SVGID_4_" gradientUnits="userSpaceOnUse" x1="217.9238" y1="239.0205" x2="401.7715" y2="239.0205">
			<stop  offset="0.012" style="stop-color:#409425"/>
			<stop  offset="0.4526" style="stop-color:#42A424"/>
			<stop  offset="1" style="stop-color:#46BD22"/>
		</linearGradient>
		<path fill="url(#SVGID_4_)" d="M248.107,233.324c17.53,0.548,20.818-9.86,36.766-13.37c11.759-2.586,23.2-5.741,34.721-7.788
			c15.271-2.713,30.63-3.694,46.807,0.103c10.607,2.49,22.507,7.228,30.51,14.804c2.075,1.966,3.604,4.257,4.746,6.754
			c2.12-14.461-25.656-25.073-36.351-27.584c-16.178-3.798-31.537-2.814-46.807-0.102c-11.521,2.047-22.962,5.201-34.722,7.787
			c-15.948,3.509-19.236,13.918-36.766,13.371c-27.59-0.862-32.405,23.758-27.289,47.004
			C216.7,253.026,222.896,232.537,248.107,233.324z"/>
		<linearGradient id="SVGID_5_" gradientUnits="userSpaceOnUse" x1="236.6211" y1="286.624" x2="401.7549" y2="286.624">
			<stop  offset="0.012" style="stop-color:#409425"/>
			<stop  offset="0.2774" style="stop-color:#509E2A"/>
			<stop  offset="0.7916" style="stop-color:#79B939"/>
			<stop  offset="1" style="stop-color:#8BC53F"/>
		</linearGradient>
		<path fill="url(#SVGID_5_)" d="M371.809,265.487c5.224-4.501,11.036-8.183,15.956-13.064c3.479-3.45,16.564-14.039,13.541-21.846
			c-2.919-7.54-8.912,3.071-26.444,11.836c-13.468,6.734-21.393,12.194-46.592,17.125c-13.31,2.604-79.835,5.037-87.879-15.786
			c-8.998,12.875,0.221,34.02,5.797,46.777c4.703,10.757,10.16,25.523,20.227,32.544c5.416,3.778,10.391,2.803,16.098,5.066
			c6.9,2.737,11.377,10.526,18.611,11.932c24.973,4.854,55.511,12.5,76.492-11.028c6.149-6.898-1.717-13.658-3.76-22.409
			c-1.626-6.954-15.72-25.399-16.623-29.97C356.413,272.52,368.97,267.934,371.809,265.487z"/>
		<linearGradient id="SVGID_6_" gradientUnits="userSpaceOnUse" x1="321.1436" y1="258.458" x2="353.5567" y2="320.6904">
			<stop  offset="0" style="stop-color:#196111"/>
			<stop  offset="0.1484" style="stop-color:#296F1C"/>
			<stop  offset="0.3566" style="stop-color:#387B25"/>
			<stop  offset="0.604" style="stop-color:#40832B"/>
			<stop  offset="0.988" style="stop-color:#43852D"/>
		</linearGradient>
		<path fill="url(#SVGID_6_)" d="M371.809,267.043c5.224-4.501,11.036-8.182,15.956-13.065c3.479-3.449,15.612-14.543,13.731-20.653
			c-2.377-7.727-9.312,3.286-26.843,12.052c-13.469,6.733-23.009,12.6-48.208,17.531c-13.312,2.604-85.117,1.72-86.055-19.155
			c-8.998,12.875,0.221,35.576,5.797,48.332c4.703,10.758,10.16,25.524,20.227,32.545c5.416,3.778,10.391,2.803,16.098,5.066
			c6.9,2.736,11.377,10.525,18.611,11.933c24.973,4.855,55.511,12.5,76.492-11.03c6.149-6.897,7.133-14.896,5.088-23.647
			c-1.624-6.954-17.208-26.997-18.112-31.567C363.771,271.24,368.97,269.49,371.809,267.043z"/>
		<linearGradient id="SVGID_7_" gradientUnits="userSpaceOnUse" x1="286" y1="256.9043" x2="301.3389" y2="298.5383">
			<stop  offset="0.012" style="stop-color:#154403"/>
			<stop  offset="0.5143" style="stop-color:#19540C"/>
			<stop  offset="1" style="stop-color:#1F6717"/>
		</linearGradient>
		<path fill="url(#SVGID_7_)" d="M292.627,272.161c-5.288-2.268-10.117-1.775-15.102-1.302c-3.418,0.326-8.032,2.052-10.611,4.384
			c-3.043,2.751-5.316,7.42-4.55,11.604c2.604,14.173,25.673,17.088,36.925,16.662c12.298-0.465,34.313-4.411,30.637-21.646
			c-1.16-5.43-5.195-9.091-10.736-10.052c-2.75-0.476-5.935-0.76-8.672-0.762c-2.132-0.002-8.587,0.242-10.192,1.217
			c7.149,4.869-4.299,12.431-8.642,6.155C290.589,276.841,290.559,273.273,292.627,272.161z"/>
		<linearGradient id="SVGID_8_" gradientUnits="userSpaceOnUse" x1="320.9219" y1="338.0996" x2="306.9195" y2="278.9781">
			<stop  offset="0.012" style="stop-color:#F25D33"/>
			<stop  offset="0.4438" style="stop-color:#F26943"/>
			<stop  offset="1" style="stop-color:#F37E5D"/>
		</linearGradient>
		<path fill="url(#SVGID_8_)" d="M259.329,305.908c4.088,7.108,11.043,12.551,17.919,16.771c7.459,4.58,15.416,8.224,23.273,12.05
			c18.374,8.946,48.574,14.712,64.762-1.651c12.405-12.542,3.326-33.818-8.773-43.937c-13.696-11.454-22.059-8.006-37.967-5.085
			c-4.881,0.895-9.857,0.937-14.804,0.833c-9.356-0.195-18.768-1.211-28.109-0.162c-4.456,0.5-8.744,1.485-12.842,3.333
			c-3.669,1.652-8.079,3.481-7.524,8.16c0.145,1.198,0.567,2.328,1.041,3.43C257.212,301.76,258.184,303.918,259.329,305.908z"/>
		<linearGradient id="SVGID_9_" gradientUnits="userSpaceOnUse" x1="320.9531" y1="338.2764" x2="307.1961" y2="280.1911">
			<stop  offset="0.012" style="stop-color:#F25D33"/>
			<stop  offset="0.4438" style="stop-color:#F26943"/>
			<stop  offset="1" style="stop-color:#F37E5D"/>
		</linearGradient>
		<path opacity="0.25" fill="url(#SVGID_9_)" d="M259.329,305.908c4.088,7.108,11.043,12.551,17.919,16.771
			c7.459,4.58,15.416,8.224,23.273,12.05c18.374,8.946,48.574,14.712,64.762-1.651c5.614-5.678,6.827-13.142,5.353-20.551
			c-0.933,1.92-2.194,3.735-3.838,5.396c-16.188,16.365-46.386,10.6-64.76,1.652c-7.857-3.824-15.816-7.469-23.273-12.049
			c-6.878-4.222-13.833-9.664-17.921-16.772c-0.267-0.466-0.524-0.941-0.773-1.422c-2.798,1.437-5.226,3.345-4.807,6.889
			c0.145,1.198,0.567,2.328,1.041,3.43C257.212,301.76,258.184,303.918,259.329,305.908z"/>
		<linearGradient id="SVGID_10_" gradientUnits="userSpaceOnUse" x1="324.541" y1="340.9863" x2="315.4951" y2="302.7923">
			<stop  offset="0.012" style="stop-color:#F25D33"/>
			<stop  offset="0.4438" style="stop-color:#F26943"/>
			<stop  offset="1" style="stop-color:#F37E5D"/>
		</linearGradient>
		<path fill="url(#SVGID_10_)" d="M295.729,331.605c-7.812-4.033-15.724-7.871-23.132-12.713c-2.525-1.647-5.056-3.476-7.451-5.505
			c3.606,3.628,7.868,6.693,12.102,9.292c7.459,4.58,15.416,8.224,23.273,12.05c18.374,8.946,48.574,14.712,64.762-1.651
			c11.221-11.345,4.865-29.832-5.406-40.749c7.076,11.551,9.84,26.934,0.447,37.093
			C344.074,346.997,313.996,341.039,295.729,331.605z"/>
		<path opacity="0.18" fill="#F37E5D" d="M334.966,284.055c8.354-0.811,16.792,3.474,23.974,7.562
			c0.804-1.128-6.608-6.146-8.169-7.005c-3.082-1.697-6.629-2.78-10.118-3.221c-7.382-0.933-14.911,1.345-22.109,2.666
			c-4.883,0.895-9.857,0.937-14.804,0.833c-9.356-0.195-18.768-1.211-28.109-0.162c-4.456,0.5-8.744,1.485-12.842,3.333
			c-3.669,1.652-8.079,3.481-7.524,8.16c0.145,1.198,0.567,2.328,1.041,3.43c0.907,2.109,1.879,4.268,3.024,6.258
			c0.055,0.099,0.114,0.197,0.171,0.294l0.004-0.268c-0.851-0.239-1.681-6.033-1.775-6.965c-0.181-1.783-0.011-3.6,0.966-5.145
			c3.619-5.729,15.002-7.374,20.923-7.197c7.218,0.217,13.717,0.721,20.433,3.379c7.725,3.058,15.272,11.74,22.977,18.765
			c-0.934-2.675-3.348-5.571-4.313-7.823c-1.184-2.766-2.075-4.954-1.478-8.113C318.363,286.875,330.218,284.514,334.966,284.055z"
			/>
		<path opacity="0.33" fill="#F37E5D" d="M264.8,288.588c4.7-1.877,9.779-2.373,14.797-2.535c2.782-0.09,5.565-0.057,8.35-0.057
			c3.98,0.001,7.927,0.559,11.875,0.992c3.596,0.396,7.801,0.953,11.646,0.662c4.025-0.306,7.651-1.979,11.511-3.023
			c4.128-1.118,8.335-2.134,12.638-2.106c2.768,0.018,5.267,0.521,7.955,1.084c2.528,0.531,4.958,1.064,7.402,1.796
			c-2.588-2.858-8.587-3.79-10.32-4.01c-7.382-0.933-14.911,1.345-22.109,2.666c-4.883,0.895-9.857,0.937-14.804,0.833
			c-9.356-0.195-18.768-1.211-28.109-0.162c-4.456,0.5-8.744,1.485-12.842,3.333c-1.768,0.796-3.641,1.559-5.161,2.788
			c-1.288,1.044-2.743,3.492-2.679,5.173c-0.055-1.469,2.873-3.055,3.837-3.815C260.647,290.729,262.581,289.473,264.8,288.588z"/>
		<path fill="#8BC53F" d="M245.811,313.424c10.224,14.995,27.766,30.308,44.514,36.057c41.346,14.194,107.468-1.28,93.366-38.764
			c-8.206,8.526-20.549,20.251-47.499,20.021c-21.281-0.183-37.501-5.533-53.03-14.309c-12.592-7.116-20.17-14.484-28.765-25.76
			c-9.4-12.332-15.434-44.415-14.007-46.917C227.081,259.208,235.882,298.86,245.811,313.424z"/>
		<path opacity="0.29" fill="#43852D" d="M290.325,349.48c36.691,12.597,92.893,1.826,95.225-26.953
			c-2.264,5.567-5.997,10.532-11.996,14.665c-14.313,9.855-35.062,12.378-52.016,12.021c-10.563-0.224-21.683-1.938-31.727-5.313
			c-17.194-5.774-35.201-21.157-45.697-36.22c-2.235-3.211-4.082-6.689-5.612-10.338c2.091,6.521,4.661,12.195,7.309,16.082
			C256.035,328.419,273.577,343.731,290.325,349.48z"/>
		<path fill="#ACD856" d="M237.929,247.321c0.45,8.673,6.329,35.46,14.855,46.683c8.996,11.844,16.932,19.584,30.115,27.06
			c16.257,9.218,33.239,14.839,55.519,15.031c25.425,0.219,38.429-9.76,47.04-18.289c-0.266-2.268-0.841-4.631-1.766-7.089
			c-8.206,8.526-20.549,20.251-47.499,20.021c-21.281-0.183-37.501-5.533-53.03-14.309c-12.592-7.116-20.17-14.484-28.765-25.76
			c-9.4-12.332-15.434-44.415-14.007-46.917C239.463,244.828,238.647,246.026,237.929,247.321z"/>
		<ellipse fill="#43852D" cx="275.669" cy="210.708" rx="31.049" ry="29.7"/>
		<circle fill="#154403" cx="274.626" cy="210.555" r="26.238"/>
		<circle fill="#F0FFEB" cx="274.626" cy="210.555" r="24.387"/>
		<circle fill="#8BC53F" cx="269.848" cy="205.346" r="14.762"/>
		<circle fill="#154403" cx="268.726" cy="204.033" r="10.524"/>
		<circle fill="#FFFFFF" cx="272.364" cy="200.698" r="4.09"/>
		<circle fill="#FFFFFF" cx="269.979" cy="211.604" r="2.726"/>
		<circle fill="#FFFFFF" cx="321.367" cy="190.028" r="2.534"/>
		<circle fill="#FFFFFF" cx="319.889" cy="196.787" r="1.689"/>
		<path fill="#43852D" d="M111.589,335.358c11.773,2.789,23.802,2.991,35.646,4.785c11.766,1.786,22.563,5.319,33.416,9.379
			c2.972,1.111,5.948,2.264,8.949,3.429c8.267,3.21,22.278,7.687,31.158,7.254c8.87-0.432,15.451-9.944,9.537-20.29
			c-3.562-6.236-12.27-8.979-18.518-11.502c-33.941-13.713-70.331-21.322-106.812-13.497c-5.193,1.114-21.021,4.184-13.578,12.438
			C95.851,332.306,105.379,333.888,111.589,335.358z"/>
		<path opacity="0.2" fill="#43852D" d="M224.596,354.648c-9.413,0.434-24.264-4.043-33.026-7.253
			c-3.181-1.165-6.337-2.317-9.488-3.429c-11.502-4.06-22.948-7.593-35.421-9.379c-12.553-1.794-25.303-1.996-37.783-4.785
			c-5.774-1.291-3.499,4.085,2.711,5.556c11.773,2.789,23.802,2.991,35.646,4.785c11.766,1.786,22.563,5.319,33.416,9.379
			c2.972,1.111,5.948,2.264,8.949,3.429c8.267,3.21,22.278,7.687,31.158,7.254c5.003-0.244,9.277-3.376,10.992-7.917
			C229.723,353.677,227.257,354.527,224.596,354.648z"/>
		<linearGradient id="SVGID_11_" gradientUnits="userSpaceOnUse" x1="217.0186" y1="386.2402" x2="301.5742" y2="386.2402">
			<stop  offset="0" style="stop-color:#55B537"/>
			<stop  offset="0.602" style="stop-color:#499530"/>
			<stop  offset="0.988" style="stop-color:#43852D"/>
		</linearGradient>
		<path fill="url(#SVGID_11_)" d="M284.387,417.062c-4.515,3.814-13.177,3.66-18.697,3.839c-8.947,0.289-20.32,0.455-28.828-2.005
			c-4.416-1.277-8.063-3.496-12.928-2.389c-7.785,1.771-10.089,10.091-1.168,11.287c5.679,0.764,11.348-0.532,17.011-0.688
			c9.267-0.257,18.465-0.747,27.763-0.634c-6.719,0.217-13.709,0.403-20.174,2.43c-4.062,1.273-12.304,5.398-6.453,9.962
			c4.928,3.841,10.521-0.896,14.521-3.424c7.207-4.56,16.213-5.782,24.522-6.693c6.182-0.679,17.678,0.8,21.156-5.838
			c1.936-3.696-2.71-7.133-4.902-10.021c-8.089-10.66-16.357-21.441-23.138-32.994c-5.708-9.721-10.166-20.318-15.016-30.484
			c-3.081-6.46-5.744-17.065-14.759-17.235c-4.643-0.087-6.592,2.203-6.949,5.813c-0.519,5.283,2.134,7.203,6.121,10.454
			c18.605,15.171,32.277,45.372,40.188,57.3C285.114,409.442,288.497,413.589,284.387,417.062z"/>
		
			<ellipse transform="matrix(0.2805 0.9599 -0.9599 0.2805 394.3029 -56.887)" fill="#306730" cx="235.096" cy="234.564" rx="3.53" ry="4.521"/>
		
			<ellipse transform="matrix(0.4255 0.905 -0.905 0.4255 348.364 -64.8276)" opacity="0.68" fill="#306730" cx="225.239" cy="241.951" rx="2.739" ry="3.413"/>
		
			<ellipse transform="matrix(0.1603 0.9871 -0.9871 0.1603 444.5986 -41.1805)" opacity="0.68" fill="#306730" cx="246.502" cy="240.715" rx="3.013" ry="3.835"/>
		
			<ellipse transform="matrix(0.1877 0.9822 -0.9822 0.1877 428.2247 -52.6197)" fill="#306730" cx="245.925" cy="232.585" rx="2.465" ry="3.013"/>
		
			<ellipse transform="matrix(0.3249 0.9458 -0.9458 0.3249 388.5271 -57.7419)" fill="#306730" cx="234.708" cy="243.271" rx="2.465" ry="3.024"/>
		
			<ellipse transform="matrix(0.3248 0.9458 -0.9458 0.3248 389.4028 -43.4114)" fill="#306730" cx="225.106" cy="251.029" rx="1.446" ry="1.772"/>
		
			<ellipse transform="matrix(0.1486 0.9889 -0.9889 0.1486 458.5232 -52.3109)" fill="#306730" cx="259.64" cy="240.119" rx="1.446" ry="1.773"/>
		<path fill="#43852D" d="M108.317,336.106c10.972,5.455,22.541,10.338,32.559,16.698c13.725,8.714,24.47,17.154,35.608,27.428
			c1.515,1.396,12.942,15.195,16.22,12.575c5.052-4.041-12.104-18.069-14.126-19.94c-12.717-11.771-26.015-23.213-39.099-34.776
			c-7.475-6.604-21.158-14.507-33.022-16.278c-5.606-0.838-17.028,0.257-13.926,5.701C94.499,330.968,104,333.961,108.317,336.106z"
			/>
		<linearGradient id="SVGID_12_" gradientUnits="userSpaceOnUse" x1="97.4048" y1="392.8145" x2="193.6719" y2="392.8145">
			<stop  offset="0" style="stop-color:#55B537"/>
			<stop  offset="0.602" style="stop-color:#499530"/>
			<stop  offset="0.988" style="stop-color:#43852D"/>
		</linearGradient>
		<path fill="url(#SVGID_12_)" d="M97.724,397.349c2.142,5.076,11.591-1.521,15.345-2.083c5.382-0.808,9.729-2.78,14.645-2.138
			c-7.686,0.346-18.171,3.314-18.615,7.163c-1.039,9.01,15.047,0.021,19.149-1.071c15.13-4.019,29.888-2.843,45.316-1.909
			c5.379,0.324,20.783,2.138,20.084-6.754c-0.785-9.98-20.03-5.02-26.065-5.018c-11.024,0-22.18-1.97-32.921-3.207
			c-5.291-0.609-30.743-3.254-29.408,4.086c0.869,4.786,15.879-0.302,20.749,1.257C123.373,387.622,94.043,388.639,97.724,397.349z"
			/>
		<ellipse fill="#306730" cx="113.053" cy="319.122" rx="3.047" ry="2.11"/>
		<ellipse fill="#306730" cx="126.516" cy="317.653" rx="4.04" ry="2.636"/>
		
			<ellipse transform="matrix(0.9682 0.2502 -0.2502 0.9682 86.5018 -34.1568)" fill="#306730" cx="177.618" cy="323.205" rx="3.047" ry="2.11"/>
		
			<ellipse transform="matrix(0.9885 0.1514 -0.1514 0.9885 51.5356 -21.3418)" fill="#306730" cx="165.964" cy="327.87" rx="4.213" ry="2.917"/>
		
			<ellipse transform="matrix(0.9812 0.1931 -0.1931 0.9812 64.4655 -23.7101)" fill="#306730" cx="153.893" cy="318.927" rx="6.935" ry="3.648"/>
		
			<ellipse transform="matrix(0.995 0.1001 -0.1001 0.995 33.1538 -12.1733)" fill="#306730" cx="137.848" cy="324.192" rx="4.213" ry="2.917"/>
		<linearGradient id="SVGID_13_" gradientUnits="userSpaceOnUse" x1="293.5508" y1="276.3799" x2="302.1455" y2="276.3799">
			<stop  offset="0.012" style="stop-color:#409425"/>
			<stop  offset="0.2774" style="stop-color:#509E2A"/>
			<stop  offset="0.7916" style="stop-color:#79B939"/>
			<stop  offset="1" style="stop-color:#8BC53F"/>
		</linearGradient>
		<path opacity="0.22" fill="url(#SVGID_13_)" d="M296.305,279.231c-0.867,0.249-1.853,0.404-2.754,0.36
			c2.275,2.519,9.868-0.312,8.41-5.146c-0.149-0.498-0.427-0.93-0.785-1.302c-0.292-0.304-0.905-0.561-1.105-0.914
			c0.221,0.44,0.223,1.558,0.23,2.065c0.013,0.749-0.225,1.478-0.581,2.128C299.009,277.728,297.739,278.818,296.305,279.231z"/>
		<linearGradient id="SVGID_14_" gradientUnits="userSpaceOnUse" x1="359.375" y1="321.8848" x2="362.9541" y2="321.8848">
			<stop  offset="0.012" style="stop-color:#F25D33"/>
			<stop  offset="0.4438" style="stop-color:#F26943"/>
			<stop  offset="1" style="stop-color:#F37E5D"/>
		</linearGradient>
		<circle fill="url(#SVGID_14_)" cx="361.165" cy="321.885" r="1.79"/>
		<linearGradient id="SVGID_15_" gradientUnits="userSpaceOnUse" x1="362.4102" y1="316.0479" x2="364.1211" y2="316.0479">
			<stop  offset="0.012" style="stop-color:#F25D33"/>
			<stop  offset="0.4438" style="stop-color:#F26943"/>
			<stop  offset="1" style="stop-color:#F37E5D"/>
		</linearGradient>
		<circle fill="url(#SVGID_15_)" cx="363.266" cy="316.048" r="0.855"/>
		<linearGradient id="SVGID_16_" gradientUnits="userSpaceOnUse" x1="362.5898" y1="318.9336" x2="364.3008" y2="318.9336">
			<stop  offset="0.012" style="stop-color:#F25D33"/>
			<stop  offset="0.4438" style="stop-color:#F26943"/>
			<stop  offset="1" style="stop-color:#F37E5D"/>
		</linearGradient>
		<circle fill="url(#SVGID_16_)" cx="363.445" cy="318.934" r="0.855"/>
		<linearGradient id="SVGID_17_" gradientUnits="userSpaceOnUse" x1="363.8154" y1="313.1367" x2="364.7324" y2="313.1367">
			<stop  offset="0.012" style="stop-color:#F25D33"/>
			<stop  offset="0.4438" style="stop-color:#F26943"/>
			<stop  offset="1" style="stop-color:#F37E5D"/>
		</linearGradient>
		<circle fill="url(#SVGID_17_)" cx="364.274" cy="313.137" r="0.458"/>
		<linearGradient id="SVGID_18_" gradientUnits="userSpaceOnUse" x1="360.4863" y1="317.8223" x2="361.4053" y2="317.8223">
			<stop  offset="0.012" style="stop-color:#F25D33"/>
			<stop  offset="0.4438" style="stop-color:#F26943"/>
			<stop  offset="1" style="stop-color:#F37E5D"/>
		</linearGradient>
		<circle fill="url(#SVGID_18_)" cx="360.946" cy="317.823" r="0.459"/>
		<linearGradient id="SVGID_19_" gradientUnits="userSpaceOnUse" x1="360.0596" y1="325.5723" x2="360.9785" y2="325.5723">
			<stop  offset="0.012" style="stop-color:#F25D33"/>
			<stop  offset="0.4438" style="stop-color:#F26943"/>
			<stop  offset="1" style="stop-color:#F37E5D"/>
		</linearGradient>
		<circle fill="url(#SVGID_19_)" cx="360.519" cy="325.572" r="0.459"/>
		<ellipse fill="#306730" cx="229.213" cy="316.981" rx="3.536" ry="3.031"/>
		<circle fill="#306730" cx="220.374" cy="320.77" r="2.273"/>
		<path opacity="0.4" fill="#43852D" d="M332.651,239.763c2.526-0.369,1.532-3.764-0.275-4.416c-2.29-0.824-5.062,0.823-5.062,3.535
			c0,1.019,0.431,2.013,1.14,2.698c0.403,0.389,2.096,1.531,2.624,1.002c-0.679-0.463-1.217-1.493-0.53-2.224
			C331.054,239.819,331.995,239.86,332.651,239.763z"/>
		<path fill="#43852D" d="M333.429,240.265c2.526-0.348,1.532-3.539-0.275-4.152c-2.29-0.775-5.062,0.773-5.062,3.323
			c0,0.959,0.431,1.894,1.14,2.537c0.403,0.365,2.096,1.44,2.624,0.942c-0.679-0.436-1.215-1.405-0.53-2.092
			C331.831,240.317,332.772,240.354,333.429,240.265z"/>
		<linearGradient id="SVGID_20_" gradientUnits="userSpaceOnUse" x1="337.1943" y1="397.0918" x2="422.5693" y2="397.0918">
			<stop  offset="0.012" style="stop-color:#3A7222"/>
			<stop  offset="0.3038" style="stop-color:#408227"/>
			<stop  offset="0.8692" style="stop-color:#51AB34"/>
			<stop  offset="1" style="stop-color:#55B537"/>
		</linearGradient>
		<path fill="url(#SVGID_20_)" d="M415.608,391.131c1.183-6.841-21.389-4.377-26.08-3.808c-9.526,1.153-19.419,2.988-29.197,2.988
			c-5.352,0-22.42-4.625-23.116,4.677c-0.619,8.289,13.041,6.599,17.813,6.295c13.683-0.869,26.77-1.966,40.188,1.781
			c3.639,1.015,17.904,9.393,16.982,0.998c-0.395-3.589-9.691-6.355-16.509-6.677c4.361-0.598,8.214,1.239,12.986,1.992
			c3.331,0.524,11.709,6.673,13.61,1.941c3.264-8.119-22.748-9.066-25.08-9.016C401.524,390.85,414.839,395.592,415.608,391.131z"/>
	</g>
</g>
</svg>
