<?xml version="1.0" encoding="utf-8"?>
<!-- Generator: Adobe Illustrator 15.1.0, SVG Export Plug-In . SVG Version: 6.00 Build 0)  -->
<!DOCTYPE svg PUBLIC "-//W3C//DTD SVG 1.1//EN" "http://www.w3.org/Graphics/SVG/1.1/DTD/svg11.dtd">
<svg version="1.1" id="Layer_1" xmlns="http://www.w3.org/2000/svg" xmlns:xlink="http://www.w3.org/1999/xlink" x="0px" y="0px"
	 width="512px" height="512px" viewBox="0 0 512 512" enable-background="new 0 0 512 512" xml:space="preserve">
<g>
	<g>
		<path fill="#AF3124" d="M191.734,383.217c6.365,1.785,9.027,7.771,4.64,12.869c-1.09,1.262-3.724,1.602-4.521,2.994
			c-1.186,2.074-0.735,5.902-0.914,8.311c-0.492,6.609-2.612,13.117-6.971,18.916c-6.836,9.099-20.646,11.898-30.723,11.898
			c-20.007,0-30.98-5.203-43.494-14.316c-14.773-10.859-22.154-27.016-22.154-48.471c0-20.549,6.467-36.598,19.402-48.152
			c12.149-10.854,28.043-16.188,47.896-16.188c4.281,0,9.806,0.373,14.076,0.709c4.445,0.354,10.322,1.006,11.729,7.414
			c0.858,3.896,1.913,12.406,2.288,17.189c0.289,3.729,0.72,16.975-1.963,20.164c-3.688,4.389-10.666,4.006-15.547,4.479
			c-6.889,0.67-15.213,2.164-20.729,6.428c-5.826,4.504-8.562,12.259-9.045,19.826c-0.652,10.185,7.227,22.969,19.842,20.778
			c3.863-0.67,7.076-5.323,6.422-9.36c-0.65-4.035-6.318-3.793-5.982-9.199c0.437-6.995,11.068-7.133,15.99-7.1
			C176.307,382.441,189.393,382.559,191.734,383.217z"/>
		<path fill="#D85555" d="M106.105,335.074c12.933-11.557,29.854-17.232,50.988-17.232c4.557,0,10.439,0.396,14.982,0.758
			c2.899,0.229,6.375,0.58,8.977,2.392c-0.119-0.666-0.236-1.269-0.352-1.789c-1.406-6.408-7.283-7.062-11.729-7.414
			c-4.271-0.336-9.795-0.709-14.076-0.709c-19.854,0-35.746,5.332-47.896,16.188c-10.363,9.252-16.57,21.395-18.631,36.422
			C91.6,352.285,97.51,342.746,106.105,335.074z"/>
		<path fill="#AF3124" d="M162.332,391.385c-0.447-2.766-3.119-3.631-4.853-5.455c-0.854,0.928-1.401,2.098-1.494,3.578
			c-0.274,4.439,3.498,5.07,5.216,7.391C162.158,395.203,162.627,393.232,162.332,391.385z"/>
		<path fill="#AF3124" d="M193.918,391.779c-0.89,1.555-0.908,4.039-0.912,6.262c1.115-0.646,2.611-1.08,3.367-1.955
			c2.012-2.34,2.539-4.865,1.907-7.086C196.98,390.031,194.67,390.461,193.918,391.779z"/>
		<path fill="#93150F" d="M135.705,387.289c0.483-7.568,3.219-15.322,9.045-19.826c5.518-4.264,13.842-5.758,20.729-6.428
			c4.881-0.475,11.857-0.092,15.547-4.48c1.449-1.723,1.988-6.375,2.136-10.879c-0.207,0.459-0.433,0.854-0.688,1.156
			c-3.899,4.639-11.274,4.234-16.434,4.732c-7.281,0.709-16.08,2.291-21.914,6.799c-6.154,4.758-9.045,12.953-9.558,20.953
			c-0.174,2.697,0.22,5.567,1.117,8.317C135.693,387.52,135.697,387.404,135.705,387.289z"/>
		<path fill="#93150F" d="M185.584,420.557c-7.226,9.613-21.824,12.576-32.476,12.576c-21.146,0-32.741-5.5-45.975-15.133
			c-6.102-4.482-11.004-9.83-14.719-16.021c3.674,8.812,9.453,16.115,17.336,21.91c12.514,9.113,23.487,14.316,43.494,14.316
			c10.078,0,23.887-2.801,30.723-11.898c3.277-4.358,5.287-9.119,6.291-14.02C189.104,415.146,187.563,417.92,185.584,420.557z"/>
		<ellipse fill="#D85555" cx="138.535" cy="336.205" rx="8.235" ry="8.332"/>
		<ellipse fill="#D85555" cx="111.676" cy="394.521" rx="8.236" ry="8.332"/>
		<ellipse fill="#D85555" cx="112.751" cy="362.285" rx="5.372" ry="5.432"/>
		<path fill="#D85555" d="M185.449,395.971c0,3-2.404,5.434-5.369,5.434c-2.972,0-5.373-2.434-5.373-5.434
			c0-3.002,2.401-5.432,5.373-5.432C183.045,390.539,185.449,392.969,185.449,395.971z"/>
		<ellipse fill="#D85555" cx="168.26" cy="338.74" rx="4.297" ry="4.348"/>
		<ellipse fill="#D85555" cx="132.807" cy="410.098" rx="3.939" ry="3.984"/>
		<ellipse fill="#D85555" cx="161.813" cy="419.516" rx="6.089" ry="6.158"/>
	</g>
	<g>
		<path fill="#FCCD06" d="M272.9,101.924c-12.261-7.363-25.81-7.729-30.914,0.242c-5.104,7.978,0.46,20.794,12.43,28.633
			c11.97,7.837,40.597-2.639,40.597-2.639S288.216,111.119,272.9,101.924z"/>
		<path opacity="0.51" fill="#F9E975" enable-background="new    " d="M262.328,118.481c-3.054-2.218-5.766-6.476-8.832-7.271
			c-4.299-1.124-4.016,4.354-2.402,6.804c2.212,3.35,6.363,5.295,9.903,6.756c4.902,2.028,9.567,2,14.787,1.555
			c-1.972-0.542-3.663-1.683-5.393-2.728C267.645,121.933,264.896,120.341,262.328,118.481z"/>
		<path fill="#F99608" d="M262.922,120.164c-3.121-1.91-6.092-5.714-9.095-6.317c-4.214-0.844-3.458,4.194-1.696,6.378
			c2.415,2.995,6.555,4.604,10.071,5.8c4.869,1.646,9.332,1.416,14.284,0.777c-1.929-0.418-3.647-1.392-5.397-2.279
			C268.31,123.108,265.541,121.764,262.922,120.164z"/>
		<path fill="#F96D06" d="M260.555,118.463c-1.402-1.157-2.715-2.438-4.218-3.458c-0.726-0.489-1.509-0.929-2.365-1.125
			l-0.009,0.102c1.262,1.172,2.818,2.015,4.126,3.147c1.381,1.196,2.685,2.529,4.191,3.575c1.181,0.818,2.488,1.422,3.603,2.339
			c0.617,0.506,2.727,1.396,2.865,2.232c0.193,1.113-2.513,1.346-3.345,1.539c1.292,0.279,2.885,0.414,3.772,0.456
			c2.437,0.116,4.87-0.146,7.282-0.469c-3.836-1.271-7.54-3.342-11.064-5.26C263.689,120.617,262.053,119.697,260.555,118.463z"/>
		
			<linearGradient id="SVGID_1_" gradientUnits="userSpaceOnUse" x1="286.387" y1="220.2813" x2="336.8479" y2="220.2813" gradientTransform="matrix(1 0 0 -1 -41.6001 348.0098)">
			<stop  offset="0" style="stop-color:#FFB529;stop-opacity:0"/>
			<stop  offset="0.2913" style="stop-color:#FFA11D;stop-opacity:0.2913"/>
			<stop  offset="0.7318" style="stop-color:#FF880E;stop-opacity:0.7318"/>
			<stop  offset="1" style="stop-color:#FF7F08"/>
		</linearGradient>
		<path fill="url(#SVGID_1_)" d="M283.248,126.133c-4.517,0.489-9.557,1.71-14.071,1.138c-12.036-1.525-18.898-2.872-24.39-5.557
			c2.38,3.663,6.028,6.73,9.628,9.085c4.956,3.244,11.604,3.194,17.266,2.688c5.909-0.531,11.802-1.782,17.501-3.445
			c1.408-0.409,5.594-1.021,6.066-2.721C291.262,126.445,287.252,125.699,283.248,126.133z"/>
		<path opacity="0.4" fill="#F9E975" enable-background="new    " d="M292.068,122.314c-1.282-2.264-2.723-4.448-4.278-6.532
			c-4.089-5.473-9.037-10.342-14.89-13.858c-12.261-7.363-25.81-7.729-30.914,0.242c-1.978,3.091-2.625,7.786-1.214,11.183
			c0.944-4.079,2.729-7.417,7.144-8.183c18.351-3.198,32.017,16.902,46.974,24.059C292.953,127.766,293.281,124.463,292.068,122.314
			z"/>
		<path fill="#FCCD06" d="M373.719,182.601c-11.976-9.714-31.878-12.446-31.878-12.446s-4.394,33.381,7.575,43.091
			c11.973,9.711,27.12,10.725,33.829,2.261C389.959,207.04,385.691,192.309,373.719,182.601z"/>
		<path opacity="0.4" fill="#F9E975" enable-background="new    " d="M373.719,182.601c-11.976-9.714-31.878-12.446-31.878-12.446
			s-0.103,0.771-0.228,2.097c5.652,1.702,20.921,6.912,30.692,16.148c7.979,7.533,12.395,16.879,12.451,24.67
			C389.102,204.426,384.616,191.437,373.719,182.601z"/>
		
			<radialGradient id="SVGID_2_" cx="229.6917" cy="-16.1201" r="23.7924" gradientTransform="matrix(0.973 0 0 -0.9841 55.2927 357.6512)" gradientUnits="userSpaceOnUse">
			<stop  offset="0" style="stop-color:#FFB529"/>
			<stop  offset="0.3774" style="stop-color:#FFB726"/>
			<stop  offset="0.6684" style="stop-color:#FEBE1C"/>
			<stop  offset="0.9298" style="stop-color:#FCC90C"/>
			<stop  offset="1" style="stop-color:#FCCD06"/>
		</radialGradient>
		<path fill="url(#SVGID_2_)" d="M289.779,348.93c-9.845-4.228-22.964,4.603-29.311,19.723c-5.938,14.137-0.027,24.92,8.678,28.66
			c9.842,4.226,20.621,1.76,26.965-13.357C302.456,368.836,299.622,353.156,289.779,348.93z"/>
		<path opacity="0.4" fill="#F9E975" enable-background="new    " d="M283.299,348.023c-2.783,0.465-6.109,1.359-8.541,2.887
			c-6.549,4.113-11.307,10.634-14.289,17.74c-0.83,1.976-1.491,4.379-1.996,6.469c-0.418,1.732-0.533,4.154-0.584,4.99
			c0.047-0.787,0.925-3.984,1.305-4.775c4.873-10.12,8.646-12.814,11.063-14.83c2.477-2.072,5.405-3.49,8.205-5.053
			c2.271-1.272,4.837-2.04,6.894-3.706c0.777-0.627,2.078-1.707,1.882-2.892C286.92,346.898,284.646,347.801,283.299,348.023z"/>
		
			<linearGradient id="SVGID_3_" gradientUnits="userSpaceOnUse" x1="340.5315" y1="-28.2759" x2="329.1821" y2="-27.6789" gradientTransform="matrix(1 0 0 -1 -41.6001 348.0098)">
			<stop  offset="0" style="stop-color:#FF8C08"/>
			<stop  offset="0.3501" style="stop-color:#FF9710"/>
			<stop  offset="0.9551" style="stop-color:#FFB327"/>
			<stop  offset="1" style="stop-color:#FFB529"/>
		</linearGradient>
		<path fill="url(#SVGID_3_)" d="M283.486,354.27c-3.878,1.475,0.403,5.735,1.687,7.896c1.586,2.661,2.75,5.677,3.705,8.631
			c1.481,4.599,0.554,9.161,0.071,13.828c-0.498,4.742-1.81,8.612-4.038,12.883c5.305-1.754,9.651-7.807,11.793-12.911
			c1.745-4.162,2.295-9.225,2.661-13.734c0.405-4.94-0.377-10.195-3.844-14.119C293.027,353.93,286.773,353.02,283.486,354.27z"/>
		
			<linearGradient id="SVGID_4_" gradientUnits="userSpaceOnUse" x1="339.5149" y1="-29.5283" x2="332.4939" y2="-29.1591" gradientTransform="matrix(1 0 0 -1 -41.6001 348.0098)">
			<stop  offset="0" style="stop-color:#FF8C08"/>
			<stop  offset="0.5494" style="stop-color:#FF8F08;stop-opacity:0.7857"/>
			<stop  offset="0.9535" style="stop-color:#FF9808;stop-opacity:0.6281"/>
			<stop  offset="1" style="stop-color:#FF9A08;stop-opacity:0.61"/>
		</linearGradient>
		<path fill="url(#SVGID_4_)" d="M295.287,365.67c-1.854,1.563-2.81,4.311-3.265,6.616c-0.901,4.595-1.172,10.702-0.164,16.353
			c0.361,2.024,1.636,2.055,2.992-0.065c0.793-1.231,1.287-2.63,1.848-3.979c1.75-4.162,2.199-9.269,2.472-13.813
			C299.336,368.025,299.322,362.275,295.287,365.67z"/>
		
			<linearGradient id="SVGID_5_" gradientUnits="userSpaceOnUse" x1="313.0999" y1="-49.8428" x2="318.8939" y2="-29.8725" gradientTransform="matrix(1 0 0 -1 -41.6001 348.0098)">
			<stop  offset="0" style="stop-color:#F99608"/>
			<stop  offset="0.3924" style="stop-color:#FA990B"/>
			<stop  offset="0.6853" style="stop-color:#FBA215"/>
			<stop  offset="0.9452" style="stop-color:#FEB125"/>
			<stop  offset="1" style="stop-color:#FFB529"/>
		</linearGradient>
		<path fill="url(#SVGID_5_)" d="M276.064,380.031c-2.709-0.85-5.934-1.993-8.222-3.971c-2.229-1.925-3.365-8.207-7.273-5.365
			c-2.784,2.031-2.807,8.812-2.579,11.806c0.542,7.086,5.061,12.332,11.397,15.052c8.647,3.715,21.438,0.696,24.669-9.191
			c0.488-1.502,0.576-2.709,0.344-3.683C293.036,378.893,280.542,381.43,276.064,380.031z"/>
		
			<radialGradient id="SVGID_6_" cx="293.3381" cy="167.4092" r="56.3489" gradientTransform="matrix(0.9542 0.1924 0.3411 -1.7302 -27.3106 505.1392)" gradientUnits="userSpaceOnUse">
			<stop  offset="0" style="stop-color:#FFB529"/>
			<stop  offset="0.3274" style="stop-color:#FEB923"/>
			<stop  offset="0.7647" style="stop-color:#FDC512"/>
			<stop  offset="1" style="stop-color:#FCCD06"/>
		</radialGradient>
		<path fill="url(#SVGID_6_)" d="M323.21,286.053c-0.914-0.085-1.831-0.152-2.743-0.203c-0.543-1.683-1.572-3.447-1.873-6.604
			c-1.433-15.169,5.829-29.986,10.772-43.795c2.957-8.257,7.895-14.538,12.428-21.822c2.852-4.576,9.477-13.266,9.881-18.717
			c0.319-4.287-2.547-7.896-6.445-9.293c-13.358-4.782-23.829,12.854-28.61,23.087c-8.09,17.317-19.16,32.688-29.229,48.709
			c-2.254,3.589-4.422,7.233-6.443,10.989c-7.272,13.557-15.741,28.892-18.896,46.457c-0.354,1.957-0.396,3.494-0.182,4.709
			c-0.205,1.037-0.375,2.086-0.474,3.156c-2.129,23.25,22.098,44.527,54.105,47.526c32.011,3,59.686-13.42,61.813-36.67
			S355.225,289.055,323.21,286.053z"/>
		
			<linearGradient id="SVGID_7_" gradientUnits="userSpaceOnUse" x1="302.386" y1="65.332" x2="325.1804" y2="62.3766" gradientTransform="matrix(1 0 0 -1 -41.6001 348.0098)">
			<stop  offset="0" style="stop-color:#F9ED95"/>
			<stop  offset="0.1607" style="stop-color:#F9EA8F"/>
			<stop  offset="0.3702" style="stop-color:#FAE27F"/>
			<stop  offset="0.6066" style="stop-color:#FCD464"/>
			<stop  offset="0.861" style="stop-color:#FEC03F"/>
			<stop  offset="0.9902" style="stop-color:#FFB529"/>
		</linearGradient>
		<path opacity="0.5" fill="url(#SVGID_7_)" enable-background="new    " d="M315.497,211.05
			c-7.971,16.366-18.495,31.066-28.106,46.365c-2.254,3.589-4.422,7.233-6.443,10.989c-7.272,13.557-15.741,28.892-18.896,46.457
			c-0.354,1.957-0.396,3.494-0.182,4.709c-0.205,1.037-0.375,2.086-0.474,3.156c-0.955,10.424,3.609,20.307,10.554,27.793
			c5.922,6.385,17.437,16.898,26.753,16.698c-4.76-7.595-11.126-13.772-15.438-21.718c-4.82-8.878-6.204-18.188-5.758-28.258
			c0.494-11.126,6.113-21.273,10.203-31.396c6.219-15.387,13.707-29.953,20.689-44.962c3.723-8.001,14.929-22.487,7.729-30.801
			L315.497,211.05z"/>
		
			<linearGradient id="SVGID_8_" gradientUnits="userSpaceOnUse" x1="381.9553" y1="156.7979" x2="414.1378" y2="126.2518" gradientTransform="matrix(1 0 0 -1 -41.6001 348.0098)">
			<stop  offset="0" style="stop-color:#FF7F08"/>
			<stop  offset="0.2682" style="stop-color:#FF880E;stop-opacity:0.7318"/>
			<stop  offset="0.7087" style="stop-color:#FFA11D;stop-opacity:0.2913"/>
			<stop  offset="1" style="stop-color:#FFB529;stop-opacity:0"/>
		</linearGradient>
		<path opacity="0.32" fill="url(#SVGID_8_)" enable-background="new    " d="M355.305,208.683
			c-3.067-3.907-4.524-7.855-5.44-12.634c-0.424-2.172-0.504-4.391-0.444-6.109c0.036-1.079-3.209-6.669-3.209-6.669
			s-0.984,3.813-1.179,4.359c-0.385,1.086-0.631,2.629-0.844,3.191c-1.662,4.358-1.742,9.141-0.48,13.655
			c0.947,3.393,2.972,6.549,5.71,8.769c3.946,3.201,8.521,5.711,13.431,7.009c2.053,0.543,4.086,0.903,6.205,0.866
			c2.397-0.045,5.188,0.557,7.324-0.852c-1.888-0.236-3.855-0.285-5.634-0.936C364.758,217.148,359.325,213.794,355.305,208.683z"/>
		
			<linearGradient id="SVGID_9_" gradientUnits="userSpaceOnUse" x1="353.6409" y1="127.8291" x2="367.1608" y2="112.6932" gradientTransform="matrix(1 0 0 -1 -41.6001 348.0098)">
			<stop  offset="0" style="stop-color:#FF9700;stop-opacity:0.95"/>
			<stop  offset="0.3038" style="stop-color:#FF9A04;stop-opacity:0.9652"/>
			<stop  offset="0.6332" style="stop-color:#FFA411;stop-opacity:0.9817"/>
			<stop  offset="0.9735" style="stop-color:#FFB427;stop-opacity:0.9987"/>
			<stop  offset="1" style="stop-color:#FFB529"/>
		</linearGradient>
		<path fill="url(#SVGID_9_)" d="M324.285,195.485c-2.993,4.044-5.535,8.657-7.667,13.221c-3.299,7.058-8.534,13.325-12.875,19.729
			c-4.724,6.972-9.194,14.112-12.911,21.687c-1.058,2.152-4.656,7.196-2.574,9.082c2.84,2.565,7.557,1.829,12.045,0.11
			c13.219-5.06,20.614-15.432,28.221-26.945c3.503-5.304,6.676-10.874,9.521-16.567c3.432-6.85,5.336-17.388,4.188-25.423
			C340.601,178.948,327.602,191.008,324.285,195.485z"/>
		
			<radialGradient id="SVGID_10_" cx="313.9709" cy="-13.916" r="23.5965" gradientTransform="matrix(0.973 0 0 -0.9841 55.2927 357.6512)" gradientUnits="userSpaceOnUse">
			<stop  offset="0" style="stop-color:#FFB529"/>
			<stop  offset="0.3774" style="stop-color:#FFB726"/>
			<stop  offset="0.6684" style="stop-color:#FEBE1C"/>
			<stop  offset="0.9298" style="stop-color:#FCC90C"/>
			<stop  offset="1" style="stop-color:#FCCD06"/>
		</radialGradient>
		<path fill="url(#SVGID_10_)" d="M359.598,345.009c-10.686,0.437-18.813,14.095-18.157,30.509
			c0.658,16.409,9.275,22.592,19.962,22.154c10.683-0.441,19.392-7.329,18.73-23.738
			C379.475,357.521,370.282,344.574,359.598,345.009z"/>
		
			<linearGradient id="SVGID_11_" gradientUnits="userSpaceOnUse" x1="402.7961" y1="-50.2285" x2="402.9111" y2="-28.8881" gradientTransform="matrix(1 0 0 -1 -41.6001 348.0098)">
			<stop  offset="0" style="stop-color:#F99608"/>
			<stop  offset="0.3924" style="stop-color:#FA990B"/>
			<stop  offset="0.6853" style="stop-color:#FBA215"/>
			<stop  offset="0.9452" style="stop-color:#FEB125"/>
			<stop  offset="1" style="stop-color:#FFB529"/>
		</linearGradient>
		<path fill="url(#SVGID_11_)" d="M376.752,373.07c-4.746-0.195-8.621,4.463-13.314,4.896c-3.996,0.369-8.07,0.629-12.063,0.124
			c-1.904-0.245-5.621-2.073-7.429-1.187c-3.938,1.939-0.516,10.074,1.279,12.922c3.568,5.66,9.696,8.109,16.177,7.845
			c4.131-0.173,8.701-1.521,11.938-4.177c3.309-2.713,5.133-6.648,6.059-10.788c0.611-2.728,1.877-6.506,0.342-8.424
			C379.172,373.582,378.236,373.131,376.752,373.07z"/>
		<path fill="#FCCD06" d="M376.012,130.179c-8.998-1.5-19.521,9.155-28.337,10.043c-7.896,0.795-22.34-9.175-23.313-19.533
			c-0.896-9.571,4.494-17.275,5.792-25.504c0.852-5.42-3.481-8.967-8.144-5.32c-3.369,2.638-3.496,5.756-7.014,11.232
			c-3.065,4.78-8.292,10.437-14.074,13.723c-3.146,1.784-9.635,4.509-22.602,8.084c-4.829,1.326,27.037,8.014,30.361,10.151
			c16.186,10.435,31.49,29.046,27.868,50.024c0.449-2.601,24.194,2.131,26.653,3.396c-9.675-4.983-8.963-20.003-5.194-29.952
			c2.924-7.726,10.58-12.533,16.825-17.211C380.195,135.312,385.197,131.708,376.012,130.179z"/>
		<path fill="#FCCD06" d="M376.758,292.785c-3.396,2.791-7.008,5.318-10.974,7.203c-2.383,1.131-6.709,1.681-8.563,3.652
			c-4.95,5.248,9.961,11.411,13.065,16.164c-0.842-1.287,0.613-10.791,1.177-12.406c1.711-4.92,5.811-7.572,8.76-11.465
			c3.125-4.131,5.305-9.246,7.916-13.65C384.913,286.172,380.665,289.58,376.758,292.785z"/>
		
			<linearGradient id="SVGID_12_" gradientUnits="userSpaceOnUse" x1="418.0237" y1="61.8584" x2="411.4335" y2="49.8062" gradientTransform="matrix(1 0 0 -1 -41.6001 348.0098)">
			<stop  offset="0" style="stop-color:#F9E975"/>
			<stop  offset="0.1579" style="stop-color:#F9E76F"/>
			<stop  offset="0.3691" style="stop-color:#FAE35E"/>
			<stop  offset="0.6106" style="stop-color:#FADC42"/>
			<stop  offset="0.8727" style="stop-color:#FBD21B"/>
			<stop  offset="1" style="stop-color:#FCCD06"/>
		</linearGradient>
		<path opacity="0.61" fill="url(#SVGID_12_)" enable-background="new    " d="M379.377,290.633
			c-0.869,0.723-1.744,1.438-2.619,2.152c-3.396,2.791-7.008,5.318-10.974,7.203c-1.6,0.761-3.366,1.109-5.026,1.693
			c-1.062,0.368-4.127,1.361-3.625,2.982c0.071,0.22,0.42,0.674,0.61,0.791c1.222,0.768,2.617,0.152,3.877-0.135
			c1.982-0.459,4.017-1.396,5.712-2.533c1.071-0.717,2.049-1.572,3.092-2.334c1.145-0.828,2.332-1.608,3.354-2.59
			c2.386-2.293,4.91-4.424,7.248-6.762c1.467-1.466,2.943-2.947,4.271-4.543c0.575-0.697,1.075-1.431,1.541-2.211
			c0.252-0.422,0.573-0.799,0.809-1.23c0.131-0.243,0.213-0.494,0.396-0.705C385.279,285.33,382.473,288.064,379.377,290.633z"/>
		
			<radialGradient id="SVGID_13_" cx="398.1165" cy="153.584" r="28.2328" gradientTransform="matrix(0.9387 0.2591 0.3927 -1.4555 -32.7221 395.0203)" gradientUnits="userSpaceOnUse">
			<stop  offset="0" style="stop-color:#661B01"/>
			<stop  offset="0.2039" style="stop-color:#6C1D01"/>
			<stop  offset="0.4769" style="stop-color:#7D2101"/>
			<stop  offset="0.7875" style="stop-color:#992802"/>
			<stop  offset="1" style="stop-color:#B02E02"/>
		</radialGradient>
		<path fill="url(#SVGID_13_)" d="M383.938,250.698c-10.721,6.911-11.486,28.049-1.24,36.274
			c10.246,8.229,24.148,7.367,33.451-1.386c18.787-17.679-0.373-52.182-0.373-52.182
			C404.67,248.503,394.861,243.653,383.938,250.698z"/>
		
			<linearGradient id="SVGID_14_" gradientUnits="userSpaceOnUse" x1="427.2932" y1="102.5996" x2="443.8034" y2="83.79" gradientTransform="matrix(1 0 0 -1 -41.6001 348.0098)">
			<stop  offset="0" style="stop-color:#E51F05"/>
			<stop  offset="1" style="stop-color:#E51F05;stop-opacity:0"/>
		</linearGradient>
		<path opacity="0.47" fill="url(#SVGID_14_)" enable-background="new    " d="M415.418,233.848
			c-2.248,2.383-4.146,4.998-6.798,7.003c-3.598,2.724-7.987,4.083-12.295,5.164c-4.321,1.082-8.584,2.233-12.389,4.684
			c-2.477,1.599-4.4,3.953-5.734,6.572c-5.289,10.4-3.368,25.52,7.14,31.849c-4.355-2.625-4.072-11.761-3.607-15.501
			c1.68-13.596,13.146-16.221,16.867-18.466c2.744-1.658,5.709-2.879,8.506-4.437c2.709-1.514,4.937-3.491,7.389-5.33
			c1.41,2.016,2.193,5.696,2.199,8.245c0.006,1.059-0.076,1.922-0.305,2.936c-0.369,1.645-0.92,3.382-1.805,4.844
			c5.01-2.188,5.635-6.487,6-11.533c0.409-5.639-1.769-11.335-4.984-15.844L415.418,233.848z"/>
		
			<linearGradient id="SVGID_15_" gradientUnits="userSpaceOnUse" x1="434.1926" y1="103.0806" x2="436.2774" y2="96.8262" gradientTransform="matrix(1 0 0 -1 -41.6001 348.0098)">
			<stop  offset="0" style="stop-color:#E51F05"/>
			<stop  offset="0.9742" style="stop-color:#E51F05;stop-opacity:0.0258"/>
			<stop  offset="1" style="stop-color:#E51F05;stop-opacity:0"/>
		</linearGradient>
		<path opacity="0.47" fill="url(#SVGID_15_)" enable-background="new    " d="M412.85,237.014
			c-1.266,1.406-2.715,2.696-4.229,3.837c-3.598,2.724-7.987,4.083-12.295,5.164c-4.321,1.082-8.584,2.233-12.389,4.684
			c-2.477,1.599-4.4,3.953-5.734,6.572c-5.289,10.4-3.368,25.52,7.14,31.849c-1.734-1.048-3.533-3.556-4.513-5.329
			c-1.262-2.289-2.073-4.896-2.45-7.486c-0.754-5.248,0.227-10.813,2.596-15.531c5.043-10.062,16.146-12.375,25.479-16.663
			c2.902-1.332,10.019-6.597,9.252-10.571C415.18,234.362,413.529,236.257,412.85,237.014z"/>
		
			<linearGradient id="SVGID_16_" gradientUnits="userSpaceOnUse" x1="435.3069" y1="101.5171" x2="436.5292" y2="101.0953" gradientTransform="matrix(1 0 0 -1 -41.6001 348.0098)">
			<stop  offset="0" style="stop-color:#E51F05"/>
			<stop  offset="1" style="stop-color:#E51F05;stop-opacity:0"/>
		</linearGradient>
		<path opacity="0.47" fill="url(#SVGID_16_)" enable-background="new    " d="M393.497,246.877
			c0.447-0.128,0.854-0.274,1.244-0.485C394.368,246.536,393.948,246.696,393.497,246.877z"/>
		
			<linearGradient id="SVGID_17_" gradientUnits="userSpaceOnUse" x1="418.7961" y1="84.3965" x2="441.7889" y2="76.463" gradientTransform="matrix(1 0 0 -1 -41.6001 348.0098)">
			<stop  offset="0" style="stop-color:#E51F05"/>
			<stop  offset="1" style="stop-color:#E51F05;stop-opacity:0"/>
		</linearGradient>
		<path opacity="0.47" fill="url(#SVGID_17_)" enable-background="new    " d="M383.952,263.491
			c-1.229,1.243-2.418,2.344-4.891,7.124c1.182-7.495,8.229-12.85,12.623-16.788c-2.377,1.235-5.103,3.2-7.336,4.922
			c-2.527,1.944-3.734,4.162-5.517,6.642c-0.157-4.257,3.466-7.722,6.063-10.682c-1.492,0.622-5.629,5.398-6.906,6.348
			c0.59-7.595,10.324-12.112,15.508-14.18c-0.926,0.269-2.006,0.45-3.409,0.917c-2.148,0.72-4.24,1.673-6.15,2.904
			c-2.477,1.599-4.4,3.953-5.734,6.571c-5.289,10.401-3.43,25.166,7.078,31.494c-4.354-2.621-4.012-11.406-3.547-15.146
			c0.693-5.624,3.457-10.475,8.033-13.746c2.834-2.023,6.113-3.685,9.42-5.41c-0.805,0.228-5.498,1.449-9.604,3.876
			C387.195,259.753,385.934,261.492,383.952,263.491z"/>
		
			<linearGradient id="SVGID_18_" gradientUnits="userSpaceOnUse" x1="440.8059" y1="93.5815" x2="440.9307" y2="93.5384" gradientTransform="matrix(1 0 0 -1 -41.6001 348.0098)">
			<stop  offset="0" style="stop-color:#E51F05"/>
			<stop  offset="1" style="stop-color:#E51F05;stop-opacity:0"/>
		</linearGradient>
		<path opacity="0.47" fill="url(#SVGID_18_)" enable-background="new    " d="M399.252,254.43
			c-0.023,0.011-0.041,0.021-0.064,0.032C399.318,254.426,399.352,254.415,399.252,254.43z"/>
		
			<radialGradient id="SVGID_19_" cx="319.4631" cy="244.9487" r="58.649" gradientTransform="matrix(0.7469 0.6307 0.823 -0.9971 -168.7594 248.3682)" gradientUnits="userSpaceOnUse">
			<stop  offset="0" style="stop-color:#FFB529"/>
			<stop  offset="0.3774" style="stop-color:#FFB726"/>
			<stop  offset="0.6684" style="stop-color:#FEBE1C"/>
			<stop  offset="0.9298" style="stop-color:#FCC90C"/>
			<stop  offset="1" style="stop-color:#FCCD06"/>
		</radialGradient>
		<path fill="url(#SVGID_19_)" d="M282.773,124.611c-16.035,4.544-34.484,15.936-49.307,30.271
			c-33.502,32.403-35.058,73.019-9.962,93.944c31.576,26.332,62.14,17.343,95.638-15.063c33.5-32.401,36.188-73.564,13.712-97.338
			C320.322,123.176,302.971,118.887,282.773,124.611z"/>
		
			<radialGradient id="SVGID_20_" cx="264.0569" cy="-20.5498" r="23.6246" gradientTransform="matrix(0.973 0 0 -0.9841 55.2927 357.6512)" gradientUnits="userSpaceOnUse">
			<stop  offset="0" style="stop-color:#FFB529"/>
			<stop  offset="0.3774" style="stop-color:#FFB726"/>
			<stop  offset="0.6684" style="stop-color:#FEBE1C"/>
			<stop  offset="0.9298" style="stop-color:#FCC90C"/>
			<stop  offset="1" style="stop-color:#FCCD06"/>
		</radialGradient>
		<path fill="url(#SVGID_20_)" d="M315.764,351.695c-10.617-1.311-20.812,10.85-22.773,27.15
			c-1.961,16.307,5.562,23.809,16.179,25.116c10.614,1.306,20.301-4.079,22.264-20.384
			C333.393,367.275,326.379,353.003,315.764,351.695z"/>
		
			<radialGradient id="SVGID_21_" cx="264.0569" cy="-20.5498" r="23.6246" gradientTransform="matrix(0.973 0 0 -0.9841 55.2927 357.6512)" gradientUnits="userSpaceOnUse">
			<stop  offset="0" style="stop-color:#FFB529"/>
			<stop  offset="0.3774" style="stop-color:#FFB726"/>
			<stop  offset="0.6684" style="stop-color:#FEBE1C"/>
			<stop  offset="0.9298" style="stop-color:#FCC90C"/>
			<stop  offset="1" style="stop-color:#FCCD06"/>
		</radialGradient>
		<path fill="url(#SVGID_21_)" d="M315.764,351.695c-10.617-1.311-20.812,10.85-22.773,27.15
			c-1.961,16.307,5.562,23.809,16.179,25.116c10.614,1.306,20.301-4.079,22.264-20.384
			C333.393,367.275,326.379,353.003,315.764,351.695z"/>
		<path opacity="0.4" fill="#F9E975" enable-background="new    " d="M320.385,352.872c-1.243-0.822-3.181-1.001-4.621-1.177
			c-10.617-1.311-20.812,10.85-22.773,27.15c-0.308,2.533-0.413,5.102-0.204,7.647c0.168,1.97,0.209,4.719,1.354,6.426
			c0.044-6.181,0.521-10.262,0.979-12.235c0.896-3.896,2.21-8.141,3.896-11.766C307.105,351.54,322.613,354.354,320.385,352.872z"/>
		
			<linearGradient id="SVGID_22_" gradientUnits="userSpaceOnUse" x1="352.3196" y1="-55.8745" x2="353.5535" y2="-35.6424" gradientTransform="matrix(1 0 0 -1 -41.6001 348.0098)">
			<stop  offset="0" style="stop-color:#F99608"/>
			<stop  offset="0.3924" style="stop-color:#FA990B"/>
			<stop  offset="0.6853" style="stop-color:#FBA215"/>
			<stop  offset="0.9452" style="stop-color:#FEB125"/>
			<stop  offset="1" style="stop-color:#FFB529"/>
		</linearGradient>
		<path fill="url(#SVGID_22_)" d="M309.717,384.781c-5.387-0.445-17.22-7.623-16.98,1.785c0.236,9.298,6.162,16.052,15.761,17.373
			c6.323,0.873,11.899-0.834,16.284-4.648c2.867-2.495,6.757-9.846,5.936-13.7C329.553,380.107,313.965,385.135,309.717,384.781z"/>
		
			<radialGradient id="SVGID_23_" cx="300.803" cy="136.96" r="56.4157" gradientTransform="matrix(0.7536 0.6225 0.3679 -0.4557 -22.6911 93.4044)" gradientUnits="userSpaceOnUse">
			<stop  offset="0" style="stop-color:#FCCD06"/>
			<stop  offset="0.3135" style="stop-color:#FCCE08"/>
			<stop  offset="0.4897" style="stop-color:#FCD011"/>
			<stop  offset="0.6318" style="stop-color:#FBD31E"/>
			<stop  offset="0.7558" style="stop-color:#FBD832"/>
			<stop  offset="0.8679" style="stop-color:#FADF4C"/>
			<stop  offset="0.9701" style="stop-color:#F9E66A"/>
			<stop  offset="1" style="stop-color:#F9E975"/>
		</radialGradient>
		<path opacity="0.24" fill="url(#SVGID_23_)" enable-background="new    " d="M299.983,231.395
			c-1.372-7.433-4.799-13.887-9.048-19.922c-7.841-11.143-20.016-20.53-31.439-27.492c-12.283-7.487-24.306-10.937-36.07-8.467
			c-13.006,2.731-15.009,18.72-16.111,29.542c-1.691,16.716,3.384,32.39,16.196,42.953c6.444,5.305,13.982,10.132,22.046,12.605
			c12.668,3.883,27.008,2.563,39.239-3.488c4.73-2.34,11.607-4.02,14.071-9.004c2.349-4.766,2.062-11.112,1.24-16.047
			C300.07,231.848,300.03,231.619,299.983,231.395z"/>
		
			<radialGradient id="SVGID_24_" cx="41.406" cy="197.7178" r="45.8443" gradientTransform="matrix(0.5441 -0.8159 -1.0495 -0.7159 433.5117 405.6999)" gradientUnits="userSpaceOnUse">
			<stop  offset="0" style="stop-color:#FF7F08"/>
			<stop  offset="0.3999" style="stop-color:#FF8109"/>
			<stop  offset="0.616" style="stop-color:#FF890E"/>
			<stop  offset="0.7881" style="stop-color:#FF9717"/>
			<stop  offset="0.9362" style="stop-color:#FFAA22"/>
			<stop  offset="1" style="stop-color:#FFB529"/>
		</radialGradient>
		<path fill="url(#SVGID_24_)" d="M297.904,234.429c-1.514-7.299-5.007-13.687-9.292-19.688
			c-7.905-11.079-20.001-20.542-31.306-27.622c-12.153-7.612-23.958-11.27-35.38-9.137c-12.618,2.36-14.502,18.243-15.322,28.796
			c-1.262,16.298,3.949,31.322,17.104,42.064c6.453,5.272,13.869,10.236,21.794,12.85c12.439,4.098,26.396,3.15,38.187-2.473
			c4.56-2.174,11.229-3.655,13.515-8.467c2.182-4.602,1.748-10.813,0.834-15.652C298,234.873,297.952,234.648,297.904,234.429z"/>
		<path opacity="0.1" fill="#F9E975" enable-background="new    " d="M288.41,213.919c-7.908-11.08-20-20.546-31.307-27.626
			c-12.158-7.611-23.958-11.27-35.38-9.133c-12.618,2.357-14.201,17.938-15.02,28.489c-0.01,0.078-0.016,0.157-0.021,0.239
			l0.569-0.257c2.147-15.112,13.044-26.557,28.795-21.09c12.604,4.379,24.136,10.377,34.001,19.473
			c7.799,7.193,16.174,13.857,22.221,22.737c1.34,1.97,5.726,6.86,5.178,9.355c0.855-3.854-1.149-8.017-2.683-11.409
			C293.045,220.882,290.832,217.312,288.41,213.919z"/>
		
			<linearGradient id="SVGID_25_" gradientUnits="userSpaceOnUse" x1="274.7249" y1="152.5366" x2="272.0337" y2="129.1444" gradientTransform="matrix(1 0 0 -1 -41.6001 348.0098)">
			<stop  offset="0" style="stop-color:#F9ED95"/>
			<stop  offset="0.3833" style="stop-color:#F9EB87;stop-opacity:0.6167"/>
			<stop  offset="1" style="stop-color:#F9E975;stop-opacity:0"/>
		</linearGradient>
		<path opacity="0.5" fill="url(#SVGID_25_)" enable-background="new    " d="M232.859,195.327
			c-6.506-0.608-12.266,4.233-12.872,10.815c-0.599,6.579,4.188,12.411,10.692,13.018c6.508,0.614,12.272-4.228,12.874-10.812
			C244.156,201.769,239.37,195.939,232.859,195.327z"/>
		
			<linearGradient id="SVGID_26_" gradientUnits="userSpaceOnUse" x1="311.6956" y1="123.3867" x2="307.7631" y2="101.861" gradientTransform="matrix(1 0 0 -1 -41.6001 348.0098)">
			<stop  offset="0" style="stop-color:#F9ED95"/>
			<stop  offset="1" style="stop-color:#F9E975;stop-opacity:0"/>
		</linearGradient>
		<path opacity="0.5" fill="url(#SVGID_26_)" enable-background="new    " d="M269.195,223.601
			c-6.506-0.61-12.266,4.23-12.875,10.811c-0.599,6.582,4.187,12.413,10.694,13.022s12.27-4.23,12.876-10.816
			C280.49,230.042,275.707,224.21,269.195,223.601z"/>
		
			<radialGradient id="SVGID_27_" cx="182.572" cy="154.1812" r="10.348" gradientTransform="matrix(0.973 0 0 -1.0141 55.2927 367.1371)" gradientUnits="userSpaceOnUse">
			<stop  offset="0" style="stop-color:#661B01"/>
			<stop  offset="0.2039" style="stop-color:#6C1D01"/>
			<stop  offset="0.4769" style="stop-color:#7D2101"/>
			<stop  offset="0.7875" style="stop-color:#992802"/>
			<stop  offset="1" style="stop-color:#B02E02"/>
		</radialGradient>
		<path fill="url(#SVGID_27_)" d="M232.574,198.473c-4.789-0.449-9.034,3.115-9.478,7.961c-0.445,4.846,3.077,9.141,7.87,9.587
			c4.792,0.448,9.034-3.115,9.479-7.963C240.891,203.214,237.364,198.921,232.574,198.473z"/>
		
			<radialGradient id="SVGID_28_" cx="213.7922" cy="124.6396" r="11.9905" gradientTransform="matrix(0.973 0 0 -0.9841 55.2927 357.6512)" gradientUnits="userSpaceOnUse">
			<stop  offset="0" style="stop-color:#661B01"/>
			<stop  offset="0.2039" style="stop-color:#6C1D01"/>
			<stop  offset="0.4769" style="stop-color:#7D2101"/>
			<stop  offset="0.7875" style="stop-color:#992802"/>
			<stop  offset="1" style="stop-color:#B02E02"/>
		</radialGradient>
		<path fill="url(#SVGID_28_)" d="M268.78,227.006c-4.787-0.451-9.035,3.114-9.477,7.961c-0.446,4.844,3.079,9.138,7.868,9.586
			c4.793,0.449,9.035-3.118,9.477-7.961C277.094,231.744,273.571,227.452,268.78,227.006z"/>
		
			<radialGradient id="SVGID_29_" cx="227.1292" cy="205.1782" r="16.8235" gradientTransform="matrix(0.973 0 0 -0.9841 55.2927 357.6512)" gradientUnits="userSpaceOnUse">
			<stop  offset="0" style="stop-color:#FF7F08"/>
			<stop  offset="0.4811" style="stop-color:#FF8109"/>
			<stop  offset="0.6729" style="stop-color:#FF880D"/>
			<stop  offset="0.8131" style="stop-color:#FF9415"/>
			<stop  offset="0.9274" style="stop-color:#FFA51F"/>
			<stop  offset="1" style="stop-color:#FFB529"/>
		</radialGradient>
		<path opacity="0.6" fill="url(#SVGID_29_)" enable-background="new    " d="M286.186,141.148
			c-7.621-5.353-19.012-2.096-25.431,7.271c-6.43,9.364,0.521,12.67,8.139,18.016c7.625,5.353,13.033,10.717,19.456,1.352
			C294.777,158.421,293.808,146.495,286.186,141.148z"/>
		<path fill="#E5E5E5" d="M282.487,146.332c-5.314-3.729-13.253-1.46-17.731,5.066c-4.483,6.534,0.362,8.839,5.681,12.566
			c5.313,3.731,9.081,7.47,13.564,0.94C288.479,158.378,287.805,150.061,282.487,146.332z"/>
		
			<radialGradient id="SVGID_30_" cx="226.011" cy="202.4033" r="10.1211" gradientTransform="matrix(0.973 0 0 -0.9841 55.2927 357.6512)" gradientUnits="userSpaceOnUse">
			<stop  offset="0" style="stop-color:#1A0A01;stop-opacity:0.95"/>
			<stop  offset="0.2942" style="stop-color:#1D0B01;stop-opacity:0.9647"/>
			<stop  offset="0.4996" style="stop-color:#260F01;stop-opacity:0.975"/>
			<stop  offset="0.678" style="stop-color:#351502;stop-opacity:0.9839"/>
			<stop  offset="0.8399" style="stop-color:#4B1F03;stop-opacity:0.992"/>
			<stop  offset="0.991" style="stop-color:#672A04;stop-opacity:0.9995"/>
			<stop  offset="1" style="stop-color:#692B04"/>
		</radialGradient>
		<path fill="url(#SVGID_30_)" d="M281.414,150.054c-4.396-3.083-10.963-1.206-14.662,4.191c-3.711,5.402,0.301,7.306,4.693,10.39
			c4.396,3.084,7.511,6.179,11.215,0.778C286.366,160.013,285.808,153.138,281.414,150.054z"/>
		
			<linearGradient id="SVGID_31_" gradientUnits="userSpaceOnUse" x1="318.5344" y1="199.4058" x2="316.7643" y2="189.5149" gradientTransform="matrix(1 0 0 -1 -41.6001 348.0098)">
			<stop  offset="0" style="stop-color:#F9E975"/>
			<stop  offset="1" style="stop-color:#F9E975;stop-opacity:0"/>
		</linearGradient>
		<path opacity="0.61" fill="url(#SVGID_31_)" enable-background="new    " d="M281.414,150.054
			c-4.396-3.083-10.963-1.206-14.662,4.191c-0.816,1.188-1.242,2.196-1.389,3.095c0.14-0.229,0.272-0.459,0.438-0.704
			c3.702-5.399,10.27-7.272,14.662-4.188c3.342,2.338,4.454,6.867,3.186,11.274C286.201,158.651,285.362,152.821,281.414,150.054z"
			/>
		
			<radialGradient id="SVGID_32_" cx="354.551" cy="223.4355" r="16.9012" gradientTransform="matrix(0.7966 0.5651 0.5397 -0.7781 -88.7008 161.0274)" gradientUnits="userSpaceOnUse">
			<stop  offset="0" style="stop-color:#FF7F08"/>
			<stop  offset="0.4811" style="stop-color:#FF8109"/>
			<stop  offset="0.6729" style="stop-color:#FF880D"/>
			<stop  offset="0.8131" style="stop-color:#FF9415"/>
			<stop  offset="0.9274" style="stop-color:#FFA51F"/>
			<stop  offset="1" style="stop-color:#FFB529"/>
		</radialGradient>
		<path opacity="0.6" fill="url(#SVGID_32_)" enable-background="new    " d="M299.794,177.121
			c-8.445,7.863-2.269,12.713,4.134,19.738c6.399,7.025,10.588,13.574,19.028,5.713c8.445-7.861,10.104-19.93,3.701-26.956
			C320.266,168.589,308.234,169.267,299.794,177.121z"/>
		<path fill="#E5E5E5" d="M303.764,180.721c-5.781,5.387-1.551,8.705,2.828,13.519c4.386,4.813,7.256,9.297,13.038,3.915
			c5.778-5.386,6.915-13.651,2.533-18.464C317.781,174.877,309.55,175.34,303.764,180.721z"/>
		
			<radialGradient id="SVGID_33_" cx="263.5696" cy="170.8193" r="10.1658" gradientTransform="matrix(0.973 0 0 -0.9841 55.2927 357.6512)" gradientUnits="userSpaceOnUse">
			<stop  offset="0" style="stop-color:#1A0A01;stop-opacity:0.95"/>
			<stop  offset="0.2942" style="stop-color:#1D0B01;stop-opacity:0.9647"/>
			<stop  offset="0.4996" style="stop-color:#260F01;stop-opacity:0.975"/>
			<stop  offset="0.678" style="stop-color:#351502;stop-opacity:0.9839"/>
			<stop  offset="0.8399" style="stop-color:#4B1F03;stop-opacity:0.992"/>
			<stop  offset="0.991" style="stop-color:#672A04;stop-opacity:0.9995"/>
			<stop  offset="1" style="stop-color:#692B04"/>
		</radialGradient>
		<path fill="url(#SVGID_33_)" d="M304.182,183.162c-4.766,4.469-1.255,7.203,2.381,11.168c3.633,3.967,6.02,7.667,10.785,3.199
			c4.768-4.468,5.686-11.304,2.045-15.272C315.76,178.291,308.948,178.694,304.182,183.162z"/>
		
			<linearGradient id="SVGID_34_" gradientUnits="userSpaceOnUse" x1="354.8127" y1="169.1128" x2="353.0424" y2="159.2215" gradientTransform="matrix(1 0 0 -1 -41.6001 348.0098)">
			<stop  offset="0" style="stop-color:#F9E975"/>
			<stop  offset="1" style="stop-color:#F9E975;stop-opacity:0"/>
		</linearGradient>
		<path opacity="0.61" fill="url(#SVGID_34_)" enable-background="new    " d="M317.688,180.35
			c-4.395-3.086-10.96-1.211-14.659,4.19c-0.815,1.185-1.245,2.195-1.388,3.096c0.138-0.231,0.271-0.46,0.438-0.705
			c3.7-5.398,10.271-7.274,14.664-4.192c3.338,2.342,4.454,6.869,3.187,11.278C322.477,188.945,321.64,183.117,317.688,180.35z"/>
		<path opacity="0.51" fill="#F9E975" enable-background="new    " d="M358.211,199.281c-2.707-2.379-6.977-7.416-8.563-11.353
			c-0.475,6.454,0.676,11.064,3.863,16.14c1.88,3.001,14.079,11.324,17.068,6.51C373.393,206.07,361.506,202.17,358.211,199.281z"/>
		<path fill="#F99608" d="M357.4,199.924c-2.672-2.313-6.267-6.328-7.98-9.984c-0.066,5.81,0.598,9.255,3.87,14.036
			c1.936,2.823,13.815,11.076,16.331,6.902C371.982,206.967,360.645,202.736,357.4,199.924z"/>
		<path fill="#F96D06" d="M366.012,205.244c-2.767-1.875-6.072-3.118-8.611-5.32c-2.672-2.313-6.267-6.328-7.98-9.984
			c0.067,2.03,0.153,5.551,0.791,7.81c0.631,2.225,1.887,5.438,3.843,6.926c-0.909-2.038-1.563-4.257-1.776-6.306
			c0.154,1.468,6.688,4.59,7.989,5.3c0.596,0.321,1.213,0.653,1.824,1.007c2.676,1.543,6.059,3.896,5.989,7.339
			c0.011-0.343,2.433-0.416,1.716-2.888C369.361,207.642,367.227,206.067,366.012,205.244z"/>
		
			<radialGradient id="SVGID_35_" cx="225.7932" cy="210.5498" r="4.8098" gradientTransform="matrix(0.973 0 0 -0.9841 55.2927 357.6512)" gradientUnits="userSpaceOnUse">
			<stop  offset="0" style="stop-color:#FFFFFF"/>
			<stop  offset="0.8559" style="stop-color:#FFFFFF;stop-opacity:0.1441"/>
			<stop  offset="1" style="stop-color:#FFFFFF;stop-opacity:0"/>
		</radialGradient>
		<path fill="url(#SVGID_35_)" d="M277.748,146.625c-2.088-1.541-5.018-1.076-6.538,1.036c-1.524,2.111-1.067,5.071,1.019,6.609
			c2.09,1.543,5.02,1.079,6.54-1.029C280.293,151.127,279.836,148.167,277.748,146.625z"/>
		
			<radialGradient id="SVGID_36_" cx="264.4866" cy="177.7397" r="4.8083" gradientTransform="matrix(0.973 0 0 -0.9841 55.2927 357.6512)" gradientUnits="userSpaceOnUse">
			<stop  offset="0" style="stop-color:#FFFFFF"/>
			<stop  offset="0.8559" style="stop-color:#FFFFFF;stop-opacity:0.1441"/>
			<stop  offset="1" style="stop-color:#FFFFFF;stop-opacity:0"/>
		</radialGradient>
		<path fill="url(#SVGID_36_)" d="M315.396,178.914c-2.091-1.539-5.017-1.076-6.54,1.032c-1.52,2.111-1.062,5.072,1.027,6.613
			c2.084,1.541,5.012,1.078,6.535-1.036C317.939,183.414,317.484,180.454,315.396,178.914z"/>
		
			<radialGradient id="SVGID_37_" cx="229.0686" cy="196.8384" r="1.8826" gradientTransform="matrix(0.973 0 0 -0.9841 55.2927 357.6512)" gradientUnits="userSpaceOnUse">
			<stop  offset="0" style="stop-color:#FFFFFF"/>
			<stop  offset="0.8559" style="stop-color:#FFFFFF;stop-opacity:0.1441"/>
			<stop  offset="1" style="stop-color:#FFFFFF;stop-opacity:0"/>
		</radialGradient>
		<path fill="url(#SVGID_37_)" d="M279.257,162.445c-0.816-0.603-1.965-0.419-2.559,0.408c-0.599,0.825-0.42,1.982,0.398,2.586
			c0.818,0.603,1.963,0.42,2.56-0.404C280.252,164.209,280.072,163.049,279.257,162.445z"/>
		
			<radialGradient id="SVGID_38_" cx="266.0686" cy="163.1182" r="1.8821" gradientTransform="matrix(0.973 0 0 -0.9841 55.2927 357.6512)" gradientUnits="userSpaceOnUse">
			<stop  offset="0" style="stop-color:#FFFFFF"/>
			<stop  offset="0.8559" style="stop-color:#FFFFFF;stop-opacity:0.1441"/>
			<stop  offset="1" style="stop-color:#FFFFFF;stop-opacity:0"/>
		</radialGradient>
		<path fill="url(#SVGID_38_)" d="M315.257,195.631c-0.818-0.604-1.963-0.423-2.561,0.404c-0.597,0.824-0.416,1.985,0.402,2.586
			c0.815,0.604,1.963,0.424,2.556-0.404C316.252,197.393,316.073,196.233,315.257,195.631z"/>
		
			<linearGradient id="SVGID_39_" gradientUnits="userSpaceOnUse" x1="345.3538" y1="116.0898" x2="350.1979" y2="105.4726" gradientTransform="matrix(1 0 0 -1 -41.6001 348.0098)">
			<stop  offset="0" style="stop-color:#F9E975"/>
			<stop  offset="0.1579" style="stop-color:#F9E76F"/>
			<stop  offset="0.3691" style="stop-color:#FAE35E"/>
			<stop  offset="0.6106" style="stop-color:#FADC42"/>
			<stop  offset="0.8727" style="stop-color:#FBD21B"/>
			<stop  offset="1" style="stop-color:#FCCD06"/>
		</linearGradient>
		<path opacity="0.61" fill="url(#SVGID_39_)" enable-background="new    " d="M310.559,227.418
			c-0.523,3.562-1.529,13.784-9.682,19.945c0.722,1.741,10.338-4.816,12.329-8.197C315.164,235.834,313.818,229.687,310.559,227.418
			z"/>
		<path fill="#BD3100" d="M301.972,247.56c3.523-0.699,7.996-4.073,9.983-7.32c1.956-3.197,1.001-7.574-0.748-10.099
			C310.456,233.423,309.461,241.251,301.972,247.56z"/>
		<path opacity="0.4" fill="#F9E975" enable-background="new    " d="M358.766,135.93c-3.627,1.981-6.927,3.873-11.091,4.292
			c-7.896,0.795-22.34-9.175-23.313-19.533c-0.863-9.234,4.121-16.729,5.637-24.633l-0.481-0.041
			c-3.801,3.273-7.869,6.609-9.502,11.563c-1.511,4.577-3.549,12.241-3.158,17.047c1.114,13.779,14.545,23.716,26.401,22.886
			c7.811-0.546,14.165-5.414,17.89-7.748c2.541-1.588,8.041-3.78,7.957-7.434C365.814,131.39,361.6,134.376,358.766,135.93z"/>
		
			<radialGradient id="SVGID_40_" cx="278.217" cy="272.4434" r="16" gradientTransform="matrix(0.973 0 0 -0.9841 55.2927 357.6512)" gradientUnits="userSpaceOnUse">
			<stop  offset="0" style="stop-color:#FF9A08"/>
			<stop  offset="0.4619" style="stop-color:#FF9C0A"/>
			<stop  offset="0.7114" style="stop-color:#FFA212"/>
			<stop  offset="0.9096" style="stop-color:#FFAE20"/>
			<stop  offset="1" style="stop-color:#FFB529"/>
		</radialGradient>
		<path fill="url(#SVGID_40_)" d="M327.434,73.862c-8.562-0.802-16.144,5.567-16.937,14.226c-0.795,8.656,5.5,16.327,14.065,17.128
			c8.561,0.805,16.143-5.565,16.936-14.225C342.294,82.333,335.993,74.662,327.434,73.862z"/>
		
			<radialGradient id="SVGID_41_" cx="332.0139" cy="230.896" r="16.0022" gradientTransform="matrix(0.973 0 0 -0.9841 55.2927 357.6512)" gradientUnits="userSpaceOnUse">
			<stop  offset="0" style="stop-color:#FF9A08"/>
			<stop  offset="0.4619" style="stop-color:#FF9C0A"/>
			<stop  offset="0.7114" style="stop-color:#FFA212"/>
			<stop  offset="0.9096" style="stop-color:#FFAE20"/>
			<stop  offset="1" style="stop-color:#FFB529"/>
		</radialGradient>
		<path fill="url(#SVGID_41_)" d="M379.777,114.747c-8.563-0.8-16.146,5.569-16.938,14.23c-0.793,8.656,5.506,16.328,14.067,17.128
			c8.562,0.803,16.146-5.565,16.938-14.228C394.637,123.218,388.34,115.552,379.777,114.747z"/>
		<path opacity="0.51" fill="#F9E975" enable-background="new    " d="M290.125,128.956c-2.09-0.92-4.521-1.754-6.855-1.264
			c-7.715,1.622-0.721,7.894,2.54,10.247c1.809,1.302,7.325,3.654,11.979,4.311c4.438,0.621,8.097-0.302,7.021-5.157
			C303.346,130.515,295.035,131.125,290.125,128.956z"/>
		<path fill="#F49408" d="M290.852,130.754c-1.65-0.728-3.573-1.392-5.421-1.002c-6.105,1.281-0.571,6.244,2.012,8.103
			c1.433,1.032,5.79,2.894,9.469,3.409c3.515,0.495,6.403-0.234,5.552-4.076C301.307,131.981,294.736,132.469,290.852,130.754z"/>
		<path fill="#F9B406" d="M290.852,130.754c-1.287-0.567-2.709-1.05-4.125-1.074c-1.013-0.017-3.789,0.357-3.813,1.717
			c2.872-0.667,6.996,0.676,8.343,1.005c2.859,0.694,6.607,2.099,8.478,4.527c0.896,1.165,0.986,3.073,0.664,4.189
			c2.523-0.456,2.262-3.07,2.065-3.931C301.307,131.981,294.736,132.469,290.852,130.754z"/>
		<path opacity="0.51" fill="#F9E975" enable-background="new    " d="M332.625,158.059c-5.388-1.179-6.61,2.417-6.136,6.816
			c0.496,4.613,2.855,10.117,4.227,11.936c2.472,3.285,9.146,10.337,11.356,2.755c0.666-2.297-0.146-4.72-1.076-6.808
			C338.822,167.854,339.929,159.66,332.625,158.059z"/>
		<path fill="#F49408" d="M332.95,160.41c-4.361-0.957-5.354,1.954-4.972,5.52c0.407,3.735,2.316,8.193,3.425,9.667
			c2.001,2.656,7.407,8.373,9.2,2.229c0.541-1.86-0.115-3.823-0.865-5.511C337.972,168.345,338.868,161.703,332.95,160.41z"/>
		<path fill="#F9B406" d="M339.037,170.13c-1.021-3.916-1.375-8.689-6.087-9.72c-0.821-0.182-1.715-0.246-2.543-0.044
			c-0.969,0.237-1.184,0.698-1.709,1.477c0.699,0.126,1.275-0.094,1.997,0.159c0.654,0.231,1.271,0.53,1.858,0.888
			c1.507,0.907,3.052,2.396,3.605,4.119c0.449,1.414,0.417,2.865,0.954,4.292c0.155,0.421,0.286,0.844,0.389,1.272
			c0.426,1.735,0.461,3.541,0.563,5.348c0.037,0.643-0.355,2.735,0.512,2.692c0.871-0.045,1.64-1.722,1.914-2.399
			c0.504-1.247,0.119-2.517,0.004-3.79C340.356,172.901,339.416,171.587,339.037,170.13z"/>
		
			<radialGradient id="SVGID_42_" cx="268.5842" cy="112.6802" r="10.4056" gradientTransform="matrix(0.973 0 0 -1.1455 55.2927 399.0141)" gradientUnits="userSpaceOnUse">
			<stop  offset="0" style="stop-color:#FF8C08"/>
			<stop  offset="0.4869" style="stop-color:#FF8E0A"/>
			<stop  offset="0.7" style="stop-color:#FF9510"/>
			<stop  offset="0.8591" style="stop-color:#FFA21A"/>
			<stop  offset="0.9915" style="stop-color:#FFB428"/>
			<stop  offset="1" style="stop-color:#FFB529"/>
		</radialGradient>
		<path fill="url(#SVGID_42_)" d="M312.486,258.021c-2.719,1.19-6.967,6.629-7.07,9.625c-0.108,2.996,2.207,9.393,4.703,11.013
			c1.773,1.146,5.642,2.054,8.675,1.987c-0.077-0.438-0.15-0.896-0.199-1.399c-0.676-7.181,0.604-14.278,2.653-21.233
			C318.305,257.236,314.392,257.189,312.486,258.021z"/>
		
			<radialGradient id="SVGID_43_" cx="219.8875" cy="44.0283" r="12.1302" gradientTransform="matrix(0.973 0 0 -0.9841 55.2927 357.6512)" gradientUnits="userSpaceOnUse">
			<stop  offset="0" style="stop-color:#FF8C08"/>
			<stop  offset="0.4869" style="stop-color:#FF8E0A"/>
			<stop  offset="0.7" style="stop-color:#FF9510"/>
			<stop  offset="0.8591" style="stop-color:#FFA21A"/>
			<stop  offset="0.9915" style="stop-color:#FFB428"/>
			<stop  offset="1" style="stop-color:#FFB529"/>
		</radialGradient>
		<path fill="url(#SVGID_43_)" d="M277.162,303.129c-2.121-1.875-7.923-2.638-11.511-2.023c-1.5,4.431-2.75,9.01-3.602,13.758
			c-0.354,1.957-0.557,6.794-0.654,7.863c-0.063,0.674-0.098,1.344-0.112,2.017c2.801,1.815,10.266,3.099,13.219,1.554
			c2.956-1.552,7.564-7.461,7.94-10.809C282.822,312.143,279.668,305.346,277.162,303.129z"/>
		
			<radialGradient id="SVGID_44_" cx="294.6897" cy="59.6792" r="14.6852" gradientTransform="matrix(0.973 0 0 -0.9841 55.2927 357.6512)" gradientUnits="userSpaceOnUse">
			<stop  offset="0" style="stop-color:#FF8C08"/>
			<stop  offset="0.4869" style="stop-color:#FF8E0A"/>
			<stop  offset="0.7" style="stop-color:#FF9510"/>
			<stop  offset="0.8591" style="stop-color:#FFA21A"/>
			<stop  offset="0.9915" style="stop-color:#FFB428"/>
			<stop  offset="1" style="stop-color:#FFB529"/>
		</radialGradient>
		<path fill="url(#SVGID_44_)" d="M332.227,287.419c-2.896,2.836-5.73,7.214-5.826,9.981c-0.143,3.879,2.857,12.146,6.084,14.242
			c3.228,2.092,11.831,3.573,15.235,1.789c3.399-1.787,8.71-8.597,9.148-12.451c0.113-1.024-0.063-2.338-0.438-3.756
			C349.558,292.749,341.328,289.328,332.227,287.419z"/>
		
			<linearGradient id="SVGID_45_" gradientUnits="userSpaceOnUse" x1="248.28" y1="167.5483" x2="343.3733" y2="167.5483" gradientTransform="matrix(1 0 0 -1 -41.6001 348.0098)">
			<stop  offset="0" style="stop-color:#F9E975;stop-opacity:0"/>
			<stop  offset="0.2071" style="stop-color:#F9EA7F;stop-opacity:0.2071"/>
			<stop  offset="0.6553" style="stop-color:#F9EC8F;stop-opacity:0.6553"/>
			<stop  offset="1" style="stop-color:#F9ED95"/>
		</linearGradient>
		<path opacity="0.5" fill="url(#SVGID_45_)" enable-background="new    " d="M245.185,144.474
			c-3.896,2.953-7.205,5.967-10.724,9.374c-0.728,0.703-2.062,1.956-2.738,2.709c-2.798,3.112-5.309,5.69-7.923,8.962
			c-2.463,3.074-4.522,6.065-6.585,9.43c-1.916,3.119-3.742,6.334-5.131,9.725c-1.31,3.195-2.877,6.658-3.672,10.021
			c-0.762,3.222-1.149,6.843-1.456,10.139c-0.296,3.152-0.353,6.211-0.178,9.371c0.168,3.01,0.66,6.039,1.398,8.959
			c0.724,2.845,1.423,5.995,2.743,8.608c1.338,2.653,3.294,6.167,5.069,8.545c0.908,1.217,4.313,5.424,5.361,5.873
			c-0.343-0.878-3.329-6.858-3.885-8.164c-1.758-4.125-3.139-8.426-4.162-12.797c-0.654-2.8-1.185-5.709-1.212-8.598
			c-0.168-17.938,9.008-36.574,19.932-50.109c6.455-8.003,14.042-15.06,22.325-21.089c4.122-2.999,8.418-5.748,12.868-8.222
			c4.387-2.437,8.711-5.659,12.994-8.354c5.709-3.597,16.959-9.607,21.563-14.124c-16.083,6.932-14.977,6.639-30.711,14.534
			C261.563,134.038,253.665,138.051,245.185,144.474z"/>
		<path opacity="0.55" fill="#F9E975" enable-background="new    " d="M326.777,208.749c-2.016,0-3.651,1.654-3.651,3.695
			c0,2.044,1.637,3.697,3.651,3.697c2.022,0,3.657-1.653,3.657-3.697C330.435,210.403,328.8,208.749,326.777,208.749z"/>
		<ellipse opacity="0.55" fill="#F9E975" enable-background="new    " cx="307.896" cy="307.533" rx="3.652" ry="3.696"/>
		<ellipse opacity="0.55" fill="#F9E975" enable-background="new    " cx="338.41" cy="344.981" rx="3.657" ry="3.697"/>
		<path opacity="0.55" fill="#F9E975" enable-background="new    " d="M352.244,315.771c-2.02,0-3.659,1.652-3.659,3.696
			c0,2.042,1.641,3.697,3.659,3.697c2.014,0,3.651-1.655,3.651-3.697C355.896,317.424,354.258,315.771,352.244,315.771z"/>
		<ellipse opacity="0.55" fill="#F9E975" enable-background="new    " cx="279.416" cy="331.403" rx="3.655" ry="3.696"/>
		<path opacity="0.55" fill="#F9E975" enable-background="new    " d="M252.252,144.881c-2.021,0-3.657,1.657-3.657,3.699
			s1.637,3.695,3.657,3.695c2.016,0,3.651-1.653,3.651-3.695S254.268,144.881,252.252,144.881z"/>
		<ellipse opacity="0.55" fill="#F9E975" enable-background="new    " cx="333.068" cy="199.062" rx="2.572" ry="2.602"/>
		<path opacity="0.55" fill="#F9E975" enable-background="new    " d="M264.371,136.477c-1.419,0-2.576,1.165-2.576,2.601
			c0,1.439,1.157,2.603,2.576,2.603c1.422,0,2.571-1.163,2.571-2.603C266.943,137.642,265.793,136.477,264.371,136.477z"/>
		<path opacity="0.4" fill="#F9E975" enable-background="new    " d="M359.598,345.009c-10.686,0.437-18.813,14.095-18.157,30.507
			c0.148,3.748,0.723,7.535,2.117,11.025c0.733,1.835,2.715,6.421,4.779,6.977c-2.599-4.154-3.134-8.084-3.304-11.978
			c-0.313-7.167-0.02-15.058,2.463-21.862c2.438-6.701,8.784-12.619,17.682-13.322C363.366,345.258,361.732,344.924,359.598,345.009
			z"/>
		
			<linearGradient id="SVGID_46_" gradientUnits="userSpaceOnUse" x1="390.344" y1="-31.1045" x2="421.7678" y2="-31.1045" gradientTransform="matrix(1 0 0 -1 -41.6001 348.0098)">
			<stop  offset="0" style="stop-color:#FF8C08"/>
			<stop  offset="0.3633" style="stop-color:#FF8F0A"/>
			<stop  offset="0.6309" style="stop-color:#FF9812"/>
			<stop  offset="0.867" style="stop-color:#FFA81F"/>
			<stop  offset="1" style="stop-color:#FFB529"/>
		</linearGradient>
		<path fill="url(#SVGID_46_)" d="M377.555,360.536c0.043,3.42,3.594,21.089-7.629,28.946c-10.127,7.09-20.096,4.938-21.182,4.291
			c1.961,1.17,3.435,2.441,5.715,3.113c2.245,0.663,4.606,0.879,6.942,0.784c10.683-0.44,19.392-7.329,18.73-23.737
			C379.945,369.295,378.907,364.941,377.555,360.536z"/>
		
			<radialGradient id="SVGID_47_" cx="278.217" cy="272.4434" r="16" gradientTransform="matrix(0.973 0 0 -0.9841 55.2927 357.6512)" gradientUnits="userSpaceOnUse">
			<stop  offset="0" style="stop-color:#FF9A08"/>
			<stop  offset="0.4619" style="stop-color:#FF9C0A"/>
			<stop  offset="0.7114" style="stop-color:#FFA212"/>
			<stop  offset="0.9096" style="stop-color:#FFAE20"/>
			<stop  offset="1" style="stop-color:#FFB529"/>
		</radialGradient>
		<path fill="url(#SVGID_47_)" d="M327.434,73.862c-8.562-0.802-16.144,5.567-16.937,14.226c-0.795,8.656,5.5,16.327,14.065,17.128
			c8.561,0.805,16.143-5.565,16.936-14.225C342.294,82.333,335.993,74.662,327.434,73.862z"/>
		
			<radialGradient id="SVGID_48_" cx="278.4973" cy="271.9609" r="16.4702" gradientTransform="matrix(0.973 0 0 -0.9841 55.2927 357.6512)" gradientUnits="userSpaceOnUse">
			<stop  offset="0" style="stop-color:#FFB529"/>
			<stop  offset="0.4752" style="stop-color:#FFB62B"/>
			<stop  offset="0.6464" style="stop-color:#FEBB32"/>
			<stop  offset="0.7685" style="stop-color:#FDC33D"/>
			<stop  offset="0.8671" style="stop-color:#FCCF4E"/>
			<stop  offset="0.9506" style="stop-color:#FADD64"/>
			<stop  offset="1" style="stop-color:#F9E975"/>
		</radialGradient>
		<path opacity="0.51" fill="url(#SVGID_48_)" enable-background="new    " d="M327.434,73.862
			c-8.562-0.802-16.144,5.567-16.937,14.226c-0.452,4.948,1.415,9.57,4.695,12.773c-0.863-2.219-1.256-4.664-1.022-7.198
			c0.795-8.661,8.379-15.028,16.938-14.226c3.668,0.344,6.915,1.951,9.368,4.353C338.396,78.435,333.488,74.43,327.434,73.862z"/>
		
			<radialGradient id="SVGID_49_" cx="332.2708" cy="230.3262" r="16.473" gradientTransform="matrix(0.973 0 0 -0.9841 55.2927 357.6512)" gradientUnits="userSpaceOnUse">
			<stop  offset="0" style="stop-color:#FFB529"/>
			<stop  offset="0.4752" style="stop-color:#FFB62B"/>
			<stop  offset="0.6464" style="stop-color:#FEBB32"/>
			<stop  offset="0.7685" style="stop-color:#FDC33D"/>
			<stop  offset="0.8671" style="stop-color:#FCCF4E"/>
			<stop  offset="0.9506" style="stop-color:#FADD64"/>
			<stop  offset="1" style="stop-color:#F9E975"/>
		</radialGradient>
		<path opacity="0.51" fill="url(#SVGID_49_)" enable-background="new    " d="M379.752,114.831
			c-8.56-0.8-16.142,5.565-16.937,14.226c-0.453,4.948,1.418,9.57,4.699,12.779c-0.867-2.225-1.258-4.667-1.025-7.203
			c0.797-8.66,8.381-15.027,16.939-14.227c3.668,0.344,6.916,1.951,9.369,4.356C390.719,119.402,385.811,115.398,379.752,114.831z"
			/>
		
			<linearGradient id="SVGID_50_" gradientUnits="userSpaceOnUse" x1="427.4231" y1="57.0781" x2="447.0331" y2="73.0116" gradientTransform="matrix(1 0 0 -1 -41.6001 348.0098)">
			<stop  offset="0" style="stop-color:#E51F05"/>
			<stop  offset="1" style="stop-color:#E51F05;stop-opacity:0"/>
		</linearGradient>
		<path opacity="0.38" fill="url(#SVGID_50_)" enable-background="new    " d="M400.188,283.721
			c-3.83,1.36-7.482,2.278-11.564,1.922c1.425,0.125,4.908-5.982,5.738-7.125c2.035-2.801,2.646-5.67,4.211-10.006
			c-0.719,1.309-1.6,2.551-2.215,3.92c-1.305,2.895-3.326,5.383-5.447,7.701c-0.672,0.729-1.356,1.44-2.065,2.139
			c-1.09,1.078-5.183,3.694-4.935,5.422c0.091,0.584,1.41,1.123,1.875,1.375c1.826,0.986,3.91,1.313,5.89,1.836
			c3.067,0.818,6.785,0.714,9.713-0.559c-1.191-0.459-3.207-0.131-4.053-1.086c5.682-2.244,11.436-8.109,14.161-13.453
			c-1.471,1.02-2.711,2.639-4.245,3.744C405.012,281.166,402.809,282.784,400.188,283.721z"/>
		
			<radialGradient id="SVGID_51_" cx="260.2864" cy="22.8105" r="13.4083" gradientTransform="matrix(0.973 0 0 -0.9841 55.2927 357.6512)" gradientUnits="userSpaceOnUse">
			<stop  offset="0" style="stop-color:#FF8C08"/>
			<stop  offset="0.4869" style="stop-color:#FF8E0A"/>
			<stop  offset="0.7" style="stop-color:#FF9510"/>
			<stop  offset="0.8591" style="stop-color:#FFA21A"/>
			<stop  offset="0.9915" style="stop-color:#FFB428"/>
			<stop  offset="1" style="stop-color:#FFB529"/>
		</radialGradient>
		<path fill="url(#SVGID_51_)" d="M305.486,322.119c-3.232,0.775-8.717,6.01-9.667,9.229c-0.954,3.219,0.778,10.637,3.059,13.086
			c2.284,2.441,9.505,4.629,12.739,3.853c3.234-0.775,8.716-6.011,9.668-9.228c0.951-3.217-0.784-10.637-3.065-13.08
			C315.941,323.529,308.721,321.346,305.486,322.119z"/>
		
			<radialGradient id="SVGID_52_" cx="316.7522" cy="26.4346" r="8.9842" gradientTransform="matrix(0.973 0 0 -0.9841 55.2927 357.6512)" gradientUnits="userSpaceOnUse">
			<stop  offset="0" style="stop-color:#FF8C08"/>
			<stop  offset="0.4869" style="stop-color:#FF8E0A"/>
			<stop  offset="0.7" style="stop-color:#FF9510"/>
			<stop  offset="0.8591" style="stop-color:#FFA21A"/>
			<stop  offset="0.9915" style="stop-color:#FFB428"/>
			<stop  offset="1" style="stop-color:#FFB529"/>
		</radialGradient>
		<path fill="url(#SVGID_52_)" d="M361.436,322.871c-2.164,0.521-5.836,4.025-6.477,6.184c-0.64,2.155,0.524,7.129,2.053,8.764
			c1.524,1.64,6.365,3.104,8.533,2.584c2.168-0.519,5.842-4.021,6.479-6.18c0.639-2.16-0.527-7.125-2.055-8.767
			C368.445,323.814,363.604,322.35,361.436,322.871z"/>
		
			<radialGradient id="SVGID_53_" cx="212.8772" cy="-15.9316" r="1.8889" gradientTransform="matrix(0.973 0 0 -0.9841 55.2927 357.6512)" gradientUnits="userSpaceOnUse">
			<stop  offset="0" style="stop-color:#FF8C08"/>
			<stop  offset="0.6309" style="stop-color:#FF8E08;stop-opacity:0.754"/>
			<stop  offset="0.9066" style="stop-color:#FF9508;stop-opacity:0.6464"/>
			<stop  offset="1" style="stop-color:#FF9A08;stop-opacity:0.61"/>
		</radialGradient>
		<ellipse fill="url(#SVGID_53_)" cx="262.422" cy="373.329" rx="1.838" ry="1.858"/>
		
			<radialGradient id="SVGID_54_" cx="217.6555" cy="-19.1543" r="1.8892" gradientTransform="matrix(0.973 0 0 -0.9841 55.2927 357.6512)" gradientUnits="userSpaceOnUse">
			<stop  offset="0" style="stop-color:#FF8C08"/>
			<stop  offset="0.6309" style="stop-color:#FF8E08;stop-opacity:0.754"/>
			<stop  offset="0.9066" style="stop-color:#FF9508;stop-opacity:0.6464"/>
			<stop  offset="1" style="stop-color:#FF9A08;stop-opacity:0.61"/>
		</radialGradient>
		<path fill="url(#SVGID_54_)" d="M267.071,374.643c-1.017,0-1.839,0.83-1.839,1.854c0,1.026,0.822,1.862,1.839,1.862
			c1.018,0,1.84-0.836,1.84-1.862C268.91,375.473,268.088,374.643,267.071,374.643z"/>
		
			<radialGradient id="SVGID_55_" cx="223.2131" cy="-21.5977" r="1.8906" gradientTransform="matrix(0.973 0 0 -0.9841 55.2927 357.6512)" gradientUnits="userSpaceOnUse">
			<stop  offset="0" style="stop-color:#FF8C08"/>
			<stop  offset="0.6309" style="stop-color:#FF8E08;stop-opacity:0.754"/>
			<stop  offset="0.9066" style="stop-color:#FF9508;stop-opacity:0.6464"/>
			<stop  offset="1" style="stop-color:#FF9A08;stop-opacity:0.61"/>
		</radialGradient>
		<ellipse fill="url(#SVGID_55_)" cx="272.479" cy="378.905" rx="1.84" ry="1.86"/>
		
			<radialGradient id="SVGID_56_" cx="228.7698" cy="-23.1543" r="1.8899" gradientTransform="matrix(0.973 0 0 -0.9841 55.2927 357.6512)" gradientUnits="userSpaceOnUse">
			<stop  offset="0" style="stop-color:#FF8C08"/>
			<stop  offset="0.6309" style="stop-color:#FF8E08;stop-opacity:0.754"/>
			<stop  offset="0.9066" style="stop-color:#FF9508;stop-opacity:0.6464"/>
			<stop  offset="1" style="stop-color:#FF9A08;stop-opacity:0.61"/>
		</radialGradient>
		<path fill="url(#SVGID_56_)" d="M277.887,378.577c-1.015,0-1.84,0.834-1.84,1.862c0,1.024,0.825,1.857,1.84,1.857
			c1.014,0,1.837-0.833,1.837-1.857C279.724,379.411,278.9,378.577,277.887,378.577z"/>
		
			<radialGradient id="SVGID_57_" cx="234.554" cy="-24.4883" r="1.8872" gradientTransform="matrix(0.973 0 0 -0.9841 55.2927 357.6512)" gradientUnits="userSpaceOnUse">
			<stop  offset="0" style="stop-color:#FF8C08"/>
			<stop  offset="0.6309" style="stop-color:#FF8E08;stop-opacity:0.754"/>
			<stop  offset="0.9066" style="stop-color:#FF9508;stop-opacity:0.6464"/>
			<stop  offset="1" style="stop-color:#FF9A08;stop-opacity:0.61"/>
		</radialGradient>
		<ellipse fill="url(#SVGID_57_)" cx="283.513" cy="381.75" rx="1.841" ry="1.861"/>
		
			<radialGradient id="SVGID_58_" cx="240.3284" cy="-25.1553" r="1.8887" gradientTransform="matrix(0.973 0 0 -0.9841 55.2927 357.6512)" gradientUnits="userSpaceOnUse">
			<stop  offset="0" style="stop-color:#FF8C08"/>
			<stop  offset="0.6309" style="stop-color:#FF8E08;stop-opacity:0.754"/>
			<stop  offset="0.9066" style="stop-color:#FF9508;stop-opacity:0.6464"/>
			<stop  offset="1" style="stop-color:#FF9A08;stop-opacity:0.61"/>
		</radialGradient>
		<path fill="url(#SVGID_58_)" d="M289.135,380.547c-1.018,0-1.84,0.833-1.84,1.86c0,1.024,0.822,1.858,1.84,1.858
			c1.014,0,1.834-0.834,1.834-1.858C290.969,381.38,290.148,380.547,289.135,380.547z"/>
		
			<linearGradient id="SVGID_59_" gradientUnits="userSpaceOnUse" x1="384.7454" y1="57.7319" x2="383.3334" y2="52.3446" gradientTransform="matrix(1 0 0 -1 -41.6001 348.0098)">
			<stop  offset="0" style="stop-color:#F9E975"/>
			<stop  offset="0.1579" style="stop-color:#F9E76F"/>
			<stop  offset="0.3691" style="stop-color:#FAE35E"/>
			<stop  offset="0.6106" style="stop-color:#FADC42"/>
			<stop  offset="0.8727" style="stop-color:#FBD21B"/>
			<stop  offset="1" style="stop-color:#FCCD06"/>
		</linearGradient>
		<path opacity="0.61" fill="url(#SVGID_59_)" enable-background="new    " d="M356.756,297.424
			c-9.942-6.605-21.744-10.263-33.546-11.371c-0.286-0.025-2.147-0.115-2.616-0.232c0.293,1.593,1.14,4.232,2.971,4.938
			c1.184,0.454,7.543-0.157,19.663,3.587c4.518,1.396,20.021,8.443,20.22,8.969C362.477,300.771,358.877,298.828,356.756,297.424z"
			/>
		
			<radialGradient id="SVGID_60_" cx="246.9299" cy="-26.501" r="1.8909" gradientTransform="matrix(0.973 0 0 -0.9841 55.2927 357.6512)" gradientUnits="userSpaceOnUse">
			<stop  offset="0" style="stop-color:#FF8C08"/>
			<stop  offset="0.6309" style="stop-color:#FF8E08;stop-opacity:0.754"/>
			<stop  offset="0.9066" style="stop-color:#FF9508;stop-opacity:0.6464"/>
			<stop  offset="1" style="stop-color:#FF9A08;stop-opacity:0.61"/>
		</radialGradient>
		<path fill="url(#SVGID_60_)" d="M295.199,381.904c-0.99,0.199-1.644,1.174-1.451,2.182c0.197,1.008,1.164,1.667,2.157,1.471
			c1-0.197,1.648-1.177,1.456-2.185C297.164,382.366,296.199,381.708,295.199,381.904z"/>
		
			<radialGradient id="SVGID_61_" cx="252.239" cy="-28.7471" r="1.8892" gradientTransform="matrix(0.973 0 0 -0.9841 55.2927 357.6512)" gradientUnits="userSpaceOnUse">
			<stop  offset="0" style="stop-color:#FF8C08"/>
			<stop  offset="0.6309" style="stop-color:#FF8E08;stop-opacity:0.754"/>
			<stop  offset="0.9066" style="stop-color:#FF9508;stop-opacity:0.6464"/>
			<stop  offset="1" style="stop-color:#FF9A08;stop-opacity:0.61"/>
		</radialGradient>
		<path fill="url(#SVGID_61_)" d="M300.372,384.116c-1.001,0.196-1.65,1.174-1.454,2.182c0.19,1.007,1.158,1.663,2.153,1.468
			c0.998-0.197,1.65-1.176,1.451-2.182C302.331,384.578,301.366,383.918,300.372,384.116z"/>
		
			<radialGradient id="SVGID_62_" cx="258.1633" cy="-30.0811" r="1.8901" gradientTransform="matrix(0.973 0 0 -0.9841 55.2927 357.6512)" gradientUnits="userSpaceOnUse">
			<stop  offset="0" style="stop-color:#FF8C08"/>
			<stop  offset="0.6309" style="stop-color:#FF8E08;stop-opacity:0.754"/>
			<stop  offset="0.9066" style="stop-color:#FF9508;stop-opacity:0.6464"/>
			<stop  offset="1" style="stop-color:#FF9A08;stop-opacity:0.61"/>
		</radialGradient>
		<path fill="url(#SVGID_62_)" d="M306.132,385.43c-0.997,0.197-1.647,1.174-1.452,2.182c0.195,1.007,1.16,1.664,2.157,1.467
			c0.999-0.194,1.646-1.172,1.454-2.184C308.092,385.887,307.129,385.23,306.132,385.43z"/>
		
			<radialGradient id="SVGID_63_" cx="263.9163" cy="-30.543" r="1.8901" gradientTransform="matrix(0.973 0 0 -0.9841 55.2927 357.6512)" gradientUnits="userSpaceOnUse">
			<stop  offset="0" style="stop-color:#FF8C08"/>
			<stop  offset="0.6309" style="stop-color:#FF8E08;stop-opacity:0.754"/>
			<stop  offset="0.9066" style="stop-color:#FF9508;stop-opacity:0.6464"/>
			<stop  offset="1" style="stop-color:#FF9A08;stop-opacity:0.61"/>
		</radialGradient>
		<path fill="url(#SVGID_63_)" d="M311.729,385.881c-0.996,0.198-1.646,1.174-1.449,2.182c0.191,1.012,1.156,1.67,2.152,1.472
			c0.994-0.198,1.647-1.175,1.455-2.183C313.69,386.343,312.725,385.686,311.729,385.881z"/>
		
			<radialGradient id="SVGID_64_" cx="269.842" cy="-30.7441" r="1.8909" gradientTransform="matrix(0.973 0 0 -0.9841 55.2927 357.6512)" gradientUnits="userSpaceOnUse">
			<stop  offset="0" style="stop-color:#FF8C08"/>
			<stop  offset="0.6309" style="stop-color:#FF8E08;stop-opacity:0.754"/>
			<stop  offset="0.9066" style="stop-color:#FF9508;stop-opacity:0.6464"/>
			<stop  offset="1" style="stop-color:#FF9A08;stop-opacity:0.61"/>
		</radialGradient>
		<path fill="url(#SVGID_64_)" d="M317.495,386.079c-0.991,0.2-1.647,1.176-1.452,2.185c0.195,1.006,1.161,1.666,2.155,1.471
			c0.998-0.198,1.65-1.176,1.454-2.186C319.461,386.541,318.493,385.881,317.495,386.079z"/>
		
			<radialGradient id="SVGID_65_" cx="275.6428" cy="-30.2896" r="1.8916" gradientTransform="matrix(0.973 0 0 -0.9841 55.2927 357.6512)" gradientUnits="userSpaceOnUse">
			<stop  offset="0" style="stop-color:#FF8C08"/>
			<stop  offset="0.6309" style="stop-color:#FF8E08;stop-opacity:0.754"/>
			<stop  offset="0.9066" style="stop-color:#FF9508;stop-opacity:0.6464"/>
			<stop  offset="1" style="stop-color:#FF9A08;stop-opacity:0.61"/>
		</radialGradient>
		<path fill="url(#SVGID_65_)" d="M323.14,385.631c-0.997,0.198-1.647,1.178-1.451,2.186c0.194,1.011,1.163,1.666,2.157,1.469
			c0.996-0.198,1.647-1.172,1.453-2.184C325.103,386.096,324.137,385.438,323.14,385.631z"/>
		
			<radialGradient id="SVGID_66_" cx="281.3098" cy="-29.0645" r="1.8914" gradientTransform="matrix(0.973 0 0 -0.9841 55.2927 357.6512)" gradientUnits="userSpaceOnUse">
			<stop  offset="0" style="stop-color:#FF8C08"/>
			<stop  offset="0.6309" style="stop-color:#FF8E08;stop-opacity:0.754"/>
			<stop  offset="0.9066" style="stop-color:#FF9508;stop-opacity:0.6464"/>
			<stop  offset="1" style="stop-color:#FF9A08;stop-opacity:0.61"/>
		</radialGradient>
		<path fill="url(#SVGID_66_)" d="M328.656,384.427c-0.999,0.198-1.648,1.177-1.456,2.185c0.194,1.009,1.164,1.666,2.159,1.468
			s1.646-1.175,1.453-2.181C330.615,384.891,329.65,384.23,328.656,384.427z"/>
		
			<linearGradient id="SVGID_67_" gradientUnits="userSpaceOnUse" x1="340.6819" y1="-39.0825" x2="373.3098" y2="-39.0825" gradientTransform="matrix(1 0 0 -1 -41.6001 348.0098)">
			<stop  offset="0" style="stop-color:#FF8C08"/>
			<stop  offset="0.3633" style="stop-color:#FF8F0A"/>
			<stop  offset="0.6309" style="stop-color:#FF9812"/>
			<stop  offset="0.867" style="stop-color:#FFA81F"/>
			<stop  offset="1" style="stop-color:#FFB529"/>
		</linearGradient>
		<path fill="url(#SVGID_67_)" d="M325.575,392.402c-3.33,4.326-5.606,6.431-12.266,8.187c-1.911,0.507-3.863,0.915-5.845,0.97
			c-1.76,0.043-3.473-0.197-5.174-0.646c-0.526-0.139-2.713-0.705-3.209-0.938c1.106,0.825,2.271,1.571,3.518,2.159
			c1.306,0.618,2.685,1.072,4.094,1.396c0.813,0.19,1.645,0.331,2.475,0.433c10.614,1.307,20.301-4.079,22.264-20.384
			c0.274-2.289,0.618-10.745-0.467-13.545C330.716,376.486,331.704,384.438,325.575,392.402z"/>
		
			<radialGradient id="SVGID_68_" cx="297.3088" cy="-24.2178" r="1.8896" gradientTransform="matrix(0.973 0 0 -0.9841 55.2927 357.6512)" gradientUnits="userSpaceOnUse">
			<stop  offset="0" style="stop-color:#FF8C08"/>
			<stop  offset="0.6309" style="stop-color:#FF8E08;stop-opacity:0.754"/>
			<stop  offset="0.9066" style="stop-color:#FF9508;stop-opacity:0.6464"/>
			<stop  offset="1" style="stop-color:#FF9A08;stop-opacity:0.61"/>
		</radialGradient>
		<path fill="url(#SVGID_68_)" d="M343.905,379.752c-0.947,0.375-1.412,1.455-1.043,2.41c0.371,0.959,1.439,1.428,2.385,1.055
			c0.943-0.373,1.408-1.453,1.037-2.412C345.919,379.85,344.849,379.377,343.905,379.752z"/>
		
			<radialGradient id="SVGID_69_" cx="302.9446" cy="-24.7002" r="1.8899" gradientTransform="matrix(0.973 0 0 -0.9841 55.2927 357.6512)" gradientUnits="userSpaceOnUse">
			<stop  offset="0" style="stop-color:#FF8C08"/>
			<stop  offset="0.6309" style="stop-color:#FF8E08;stop-opacity:0.754"/>
			<stop  offset="0.9066" style="stop-color:#FF9508;stop-opacity:0.6464"/>
			<stop  offset="1" style="stop-color:#FF9A08;stop-opacity:0.61"/>
		</radialGradient>
		<path fill="url(#SVGID_69_)" d="M349.388,380.227c-0.947,0.375-1.412,1.459-1.041,2.41c0.369,0.955,1.434,1.428,2.381,1.053
			c0.945-0.367,1.414-1.45,1.039-2.406C351.401,380.325,350.335,379.852,349.388,380.227z"/>
		
			<radialGradient id="SVGID_70_" cx="308.9172" cy="-24.749" r="1.8896" gradientTransform="matrix(0.973 0 0 -0.9841 55.2927 357.6512)" gradientUnits="userSpaceOnUse">
			<stop  offset="0" style="stop-color:#FF8C08"/>
			<stop  offset="0.6309" style="stop-color:#FF8E08;stop-opacity:0.754"/>
			<stop  offset="0.9066" style="stop-color:#FF9508;stop-opacity:0.6464"/>
			<stop  offset="1" style="stop-color:#FF9A08;stop-opacity:0.61"/>
		</radialGradient>
		<path fill="url(#SVGID_70_)" d="M355.198,380.275c-0.944,0.373-1.412,1.453-1.041,2.41c0.369,0.957,1.437,1.424,2.379,1.054
			c0.945-0.375,1.414-1.456,1.046-2.413C357.213,380.372,356.145,379.9,355.198,380.275z"/>
		
			<radialGradient id="SVGID_71_" cx="314.8596" cy="-24.2554" r="1.8911" gradientTransform="matrix(0.973 0 0 -0.9841 55.2927 357.6512)" gradientUnits="userSpaceOnUse">
			<stop  offset="0" style="stop-color:#FF8C08"/>
			<stop  offset="0.6309" style="stop-color:#FF8E08;stop-opacity:0.754"/>
			<stop  offset="0.9066" style="stop-color:#FF9508;stop-opacity:0.6464"/>
			<stop  offset="1" style="stop-color:#FF9A08;stop-opacity:0.61"/>
		</radialGradient>
		<path fill="url(#SVGID_71_)" d="M360.979,379.786c-0.945,0.377-1.412,1.453-1.041,2.412c0.367,0.959,1.439,1.43,2.383,1.055
			c0.945-0.373,1.41-1.455,1.045-2.41C362.995,379.884,361.922,379.415,360.979,379.786z"/>
		
			<radialGradient id="SVGID_72_" cx="320.4299" cy="-23.5986" r="1.8904" gradientTransform="matrix(0.973 0 0 -0.9841 55.2927 357.6512)" gradientUnits="userSpaceOnUse">
			<stop  offset="0" style="stop-color:#FF8C08"/>
			<stop  offset="0.6309" style="stop-color:#FF8E08;stop-opacity:0.754"/>
			<stop  offset="0.9066" style="stop-color:#FF9508;stop-opacity:0.6464"/>
			<stop  offset="1" style="stop-color:#FF9A08;stop-opacity:0.61"/>
		</radialGradient>
		<path fill="url(#SVGID_72_)" d="M366.404,379.141c-0.949,0.377-1.416,1.453-1.043,2.414c0.373,0.954,1.435,1.428,2.383,1.053
			c0.943-0.375,1.41-1.45,1.037-2.409C368.411,379.24,367.348,378.768,366.404,379.141z"/>
		
			<radialGradient id="SVGID_73_" cx="326.1448" cy="-22.2129" r="1.8911" gradientTransform="matrix(0.973 0 0 -0.9841 55.2927 357.6512)" gradientUnits="userSpaceOnUse">
			<stop  offset="0" style="stop-color:#FF8C08"/>
			<stop  offset="0.6309" style="stop-color:#FF8E08;stop-opacity:0.754"/>
			<stop  offset="0.9066" style="stop-color:#FF9508;stop-opacity:0.6464"/>
			<stop  offset="1" style="stop-color:#FF9A08;stop-opacity:0.61"/>
		</radialGradient>
		<path fill="url(#SVGID_73_)" d="M371.956,377.777c-0.944,0.375-1.409,1.455-1.036,2.414c0.362,0.957,1.438,1.425,2.379,1.052
			c0.948-0.375,1.414-1.455,1.047-2.408C373.971,377.878,372.906,377.404,371.956,377.777z"/>
		
			<radialGradient id="SVGID_74_" cx="331.5901" cy="-20.5762" r="1.8906" gradientTransform="matrix(0.973 0 0 -0.9841 55.2927 357.6512)" gradientUnits="userSpaceOnUse">
			<stop  offset="0" style="stop-color:#FF8C08"/>
			<stop  offset="0.6309" style="stop-color:#FF8E08;stop-opacity:0.754"/>
			<stop  offset="0.9066" style="stop-color:#FF9508;stop-opacity:0.6464"/>
			<stop  offset="1" style="stop-color:#FF9A08;stop-opacity:0.61"/>
		</radialGradient>
		<path fill="url(#SVGID_74_)" d="M377.262,376.167c-0.951,0.377-1.416,1.453-1.043,2.412c0.371,0.957,1.438,1.429,2.383,1.053
			c0.943-0.375,1.41-1.452,1.041-2.409C379.273,376.266,378.202,375.794,377.262,376.167z"/>
	</g>
</g>
</svg>
