<?xml version="1.0" encoding="utf-8"?>
<!-- Generator: Adobe Illustrator 15.1.0, SVG Export Plug-In . SVG Version: 6.00 Build 0)  -->
<!DOCTYPE svg PUBLIC "-//W3C//DTD SVG 1.1//EN" "http://www.w3.org/Graphics/SVG/1.1/DTD/svg11.dtd">
<svg version="1.1" id="Layer_1" xmlns="http://www.w3.org/2000/svg" xmlns:xlink="http://www.w3.org/1999/xlink" x="0px" y="0px"
	 width="512px" height="512px" viewBox="0 0 512 512" enable-background="new 0 0 512 512" xml:space="preserve">
<g>
	<g>
		<path fill="#9C1B50" d="M139.909,173.207c-6.575,2.245-12.918,2.116-19.043-0.369c0,6.796,0,10.071-0.731,17.212
			c-0.548,5.341-4.577,7.875-12.085,7.875c-6.848,0-22.443-0.077-24.816-0.8c-4.071-1.241-4.251-7.646-4.488-10.855
			c-0.684-9.255-1.861-32.302-2.173-42.552c-0.456-15.048-1.05-49.731-0.952-51.17c0.378-5.449,11.743-5.632,24.738-6.133
			c14.282-0.55,21.223,1.53,23.255,4.577c1.466,2.197,1.14,12.765,0.917,16.479c-0.569,9.506-2.016,31.605-2.016,33.875
			c0,5.677,6.143,5.552,8.239,5.677c1.899,0.113,5.175-0.783,6.41-2.564c1.047-1.512,1.478-5.292,1.35-7.046
			c-0.879-11.89-2.885-42.4-2.632-45.139c0.566-6.152,19.235-6.03,23.438-6.042c7.155-0.024,21.081,2.352,22.14,6.103
			c0.781,2.769-1.327,47.718-1.631,53.772c-0.111,3.682-1.249,26.756-1.648,34.973c-0.196,4.036-0.491,8.847-2.229,12.572
			c-1.402,3.003-7.84,5.372-16.447,5.007c-6.955-0.298-14.404-0.996-16.297-2.381c-2.366-1.731-3.189-5.496-3.297-8.057
			C139.707,183.391,139.904,178.042,139.909,173.207z"/>
		<path opacity="0.49" fill="#FF99CB" d="M159.319,93.311c7.155-0.023,21.081,2.354,22.14,6.105c0.058,0.2,0.099,0.622,0.124,1.227
			c0.085-4.479,0.067-7.637-0.124-8.309c-1.059-3.751-14.984-6.127-22.14-6.103c-4.202,0.012-22.871-0.11-23.438,6.042
			c-0.063,0.67,0.012,3.007,0.172,6.326C138.02,93.213,155.297,93.325,159.319,93.311z"/>
		<path opacity="0.49" fill="#FF99CB" d="M100.358,93.494c14.282-0.549,21.223,1.531,23.255,4.577
			c0.636,0.956,0.936,3.489,1.05,6.354c0.149-4.68,0.112-11.691-1.05-13.435c-2.032-3.047-8.973-5.127-23.255-4.577
			c-12.995,0.501-24.36,0.684-24.738,6.133c-0.025,0.367-0.004,2.914,0.046,6.744C76.488,94.174,87.639,93.982,100.358,93.494z"/>
		<path opacity="0.6" fill="#9C1B50" d="M139.909,166.478c-6.575,2.247-12.918,2.118-19.043-0.367c0,6.796,0,10.071-0.731,17.212
			c-0.548,5.342-4.577,7.875-12.085,7.875c-6.848,0-22.443-0.078-24.816-0.801c-4.071-1.241-4.251-7.646-4.488-10.855
			c-0.684-9.258-1.861-32.302-2.173-42.552c-0.344-11.31-0.765-33.702-0.909-44.749c-0.016,0.101-0.034,0.2-0.043,0.305
			c-0.098,1.439,0.496,36.122,0.952,51.17c0.312,10.25,1.489,33.297,2.173,42.552c0.237,3.209,0.417,9.614,4.488,10.855
			c2.373,0.724,17.969,0.8,24.816,0.8c7.508,0,11.537-2.533,12.085-7.875c0.731-7.141,0.731-10.416,0.731-17.212
			c6.104,2.475,12.423,2.61,18.975,0.389C139.866,170.937,139.906,168.655,139.909,166.478z"/>
		<path opacity="0.6" fill="#9C1B50" d="M179.828,139.377c-0.111,3.684-1.249,26.758-1.648,34.975
			c-0.196,4.034-0.491,8.847-2.229,12.57c-1.402,3.006-7.84,5.374-16.447,5.008c-6.955-0.296-14.404-0.998-16.297-2.381
			c-2.366-1.73-3.189-5.496-3.297-8.056c-0.028-0.696-0.047-1.406-0.063-2.12c-0.035,2.99-0.056,6.007,0.063,8.847
			c0.107,2.561,0.931,6.325,3.297,8.057c1.893,1.385,9.342,2.083,16.297,2.381c8.607,0.365,15.045-2.003,16.447-5.007
			c1.738-3.725,2.033-8.536,2.229-12.572c0.399-8.217,1.537-31.292,1.648-34.973c0.28-5.595,2.103-44.403,1.762-52.445
			C181.337,107.568,180.059,134.763,179.828,139.377z"/>
		<circle opacity="0.49" fill="#FF99CB" cx="90.138" cy="102.803" r="5.666"/>
		<circle opacity="0.49" fill="#FF99CB" cx="102.531" cy="119.444" r="4.603"/>
		<circle opacity="0.49" fill="#FF99CB" cx="94.387" cy="145.999" r="6.373"/>
		<path opacity="0.49" fill="#FF99CB" d="M123.774,158.745c0,1.761-1.427,3.187-3.185,3.187c-1.763,0-3.188-1.426-3.188-3.187
			c0-1.759,1.425-3.186,3.188-3.186C122.348,155.559,123.774,156.985,123.774,158.745z"/>
		<path opacity="0.49" fill="#FF99CB" d="M98.635,178.217c0,3.325-2.693,6.021-6.017,6.021c-3.325,0-6.021-2.696-6.021-6.021
			c0-3.322,2.695-6.019,6.021-6.019C95.941,172.198,98.635,174.895,98.635,178.217z"/>
		<circle opacity="0.49" fill="#FF99CB" cx="150.33" cy="158.745" r="5.311"/>
		<circle opacity="0.49" fill="#FF99CB" cx="148.559" cy="107.405" r="6.019"/>
		<circle opacity="0.49" fill="#FF99CB" cx="170.511" cy="101.739" r="3.895"/>
		<circle opacity="0.49" fill="#FF99CB" cx="166.262" cy="137.854" r="6.018"/>
		<circle opacity="0.49" fill="#FF99CB" cx="160.951" cy="182.114" r="5.666"/>
	</g>
	<g>
		<ellipse fill="#FF99CB" cx="299.659" cy="334.889" rx="107.163" ry="80.22"/>
		<ellipse fill="#FF99CB" cx="358.123" cy="199.829" rx="11.88" ry="9.131"/>
		<path fill="#CC0055" d="M286.226,172.954c-1.608-0.132-4.306-2.04-7.883-10.071c-0.202-0.455-0.736-0.661-1.193-0.457
			c-0.456,0.203-0.661,0.737-0.458,1.193c3.115,6.996,6.102,10.633,9.115,11.105c0.082,0.012,0.158,0.022,0.24,0.03
			c0.497,0.05,0.941-0.313,0.989-0.809C287.086,173.447,286.715,173,286.226,172.954z"/>
		<path fill="#CC0055" d="M300.554,117.067c-9.164-2.05-18.692,5.09-21.837,13.041c-2.042,5.16-1.433,12.959,1.855,23.844
			c1.617,5.345,4.646,10.277,7.58,15.047c0.811,1.324,1.618,2.634,2.386,3.942c0.169,0.289,0.472,0.447,0.781,0.447
			c0.158,0,0.314-0.039,0.457-0.124c0.432-0.253,0.574-0.806,0.322-1.239c-0.773-1.318-1.587-2.642-2.407-3.974
			c-2.869-4.673-5.838-9.505-7.387-14.622c-3.122-10.335-3.762-17.958-1.904-22.657c2.813-7.107,11.614-13.757,19.76-11.939
			c4.043,0.902,7.185,3.136,9.085,6.461c2.031,3.553,2.387,8.104,0.975,12.486c-1.029,3.186-3.768,6.967-8.106,7.15
			c-2.157,0.097-4.661-1.062-6.069-2.807c-0.687-0.855-1.413-2.242-0.955-3.986c0.291-1.116,2.214-2.219,3.718-2.232
			c1.204,0.007,1.374,0.694,1.429,0.92c0.117,0.487,0.617,0.781,1.098,0.662c0.482-0.123,0.778-0.612,0.657-1.096
			c-0.352-1.427-1.538-2.284-3.173-2.296c0,0-0.017,0-0.028,0c-2.141,0-4.896,1.466-5.453,3.583c-0.505,1.931-0.044,3.913,1.3,5.58
			c1.746,2.164,4.861,3.6,7.552,3.48c4.339-0.183,8.165-3.48,9.753-8.403c1.569-4.864,1.16-9.945-1.123-13.94
			C308.687,120.673,305.043,118.069,300.554,117.067z"/>
		<ellipse fill="#FF99CB" cx="357.793" cy="199.961" rx="11.04" ry="8.601"/>
		
			<ellipse transform="matrix(-0.3089 -0.9511 0.9511 -0.3089 272.9421 605.8421)" opacity="0.5" fill="#FEBDDF" cx="356.582" cy="203.758" rx="7.529" ry="7.755"/>
		<linearGradient id="SVGID_1_" gradientUnits="userSpaceOnUse" x1="358.4258" y1="191.2466" x2="357.7555" y2="196.6153">
			<stop  offset="0" style="stop-color:#FFFFFF"/>
			<stop  offset="1" style="stop-color:#FFFFFF;stop-opacity:0"/>
		</linearGradient>
		<path opacity="0.35" fill="url(#SVGID_1_)" d="M357.793,191.36c-2.656,0-5.401,0.738-7.563,2.327
			c-2.063,1.516-2.065,3.817-3.742,5.355c3.147-2.546,6.818-3.191,10.778-3.196c4.233-0.004,8.49,0.238,11.055,3.975
			C368.701,194.267,362.506,191.36,357.793,191.36z"/>
		<path fill="#FF99CB" d="M299.659,255.877c-58.294,0-105.553,35.374-105.553,79.012c0,43.64,47.259,79.014,105.553,79.014
			c58.3,0,105.552-35.374,105.552-79.014C405.211,291.251,357.959,255.877,299.659,255.877z"/>
		<linearGradient id="SVGID_2_" gradientUnits="userSpaceOnUse" x1="266.1543" y1="388.5791" x2="263.5069" y2="408.172">
			<stop  offset="0" style="stop-color:#E04183;stop-opacity:0"/>
			<stop  offset="1" style="stop-color:#E04183"/>
		</linearGradient>
		<path opacity="0.35" fill="url(#SVGID_2_)" d="M320.121,397.729c-12.263-6.08-30.559-1.978-43.873-4.381
			c-16.357-2.955-33.043-7.069-47.463-15.61c-3.048-1.807-31.024-19.632-20.943-2.753c6.918,11.587,23.912,22.05,35.574,27.774
			c17.8,8.738,35.874,11.914,55.751,11.914c6.146,0,20.021,1.187,24.772-3.178c4.086-3.755,3.482-7.637,0.595-10.646
			C323.375,399.649,321.852,398.586,320.121,397.729z"/>
		<linearGradient id="SVGID_3_" gradientUnits="userSpaceOnUse" x1="226.7603" y1="283.4766" x2="258.1245" y2="320.8723">
			<stop  offset="0" style="stop-color:#FFFFFF"/>
			<stop  offset="1" style="stop-color:#FFFFFF;stop-opacity:0"/>
		</linearGradient>
		<path opacity="0.35" fill="url(#SVGID_3_)" d="M229.336,275.986c-14.507,9.739-28.015,24.823-33.174,41.803
			c-4.213,13.861-2.65,38.467,8.862,48.646c-8.363-7.688-4.096-30.53-1.36-40.167c10.831-38.163,57.979-58.801,94.187-60.741
			l2.41,3.619C306.523,240.168,238.129,270.081,229.336,275.986z"/>
		<path fill="#FF99CB" d="M295.043,171.298c-38.634,3.934-67.957,35.959-63.615,78.571c4.341,42.613,39.174,73.967,77.807,70.032
			c38.631-3.937,66.429-41.669,62.092-84.283C366.983,193.006,333.674,167.364,295.043,171.298z"/>
		<path fill="#FF99CB" d="M295.193,172.981c-37.759,3.845-66.418,35.146-62.176,76.792c4.24,41.649,38.288,72.292,76.047,68.447
			c37.759-3.847,64.926-40.725,60.683-82.374C365.507,194.197,332.947,169.136,295.193,172.981z"/>
		<linearGradient id="SVGID_4_" gradientUnits="userSpaceOnUse" x1="255.748" y1="192.4785" x2="281.7844" y2="221.6144">
			<stop  offset="0" style="stop-color:#FFFFFF"/>
			<stop  offset="1" style="stop-color:#FFFFFF;stop-opacity:0"/>
		</linearGradient>
		<path opacity="0.35" fill="url(#SVGID_4_)" d="M295.193,172.981c-37.759,3.845-66.418,35.146-62.176,76.792
			c4.24,41.649,38.288,72.292,76.047,68.447c37.759-3.847,64.926-40.725,60.683-82.374
			C365.507,194.197,332.947,169.136,295.193,172.981z"/>
		<path fill="#FF99CB" d="M233.245,204.763c-8.449,2.432-13.888,9.31-12.145,15.36c1.741,6.049,9.85,6.28,18.297,3.845
			c8.451-2.434,14.045-6.604,12.302-12.655C249.957,205.265,241.695,202.328,233.245,204.763z"/>
		<path fill="#FF99CB" d="M234.542,205.207c-8.448,2.433-14.021,8.846-12.444,14.322c1.577,5.479,9.618,5.479,18.066,3.047
			c8.45-2.434,14.112-6.38,12.533-11.856C251.122,205.243,242.991,202.775,234.542,205.207z"/>
		<linearGradient id="SVGID_5_" gradientUnits="userSpaceOnUse" x1="232.0923" y1="206.3389" x2="240.9377" y2="220.9332">
			<stop  offset="0" style="stop-color:#FFFFFF"/>
			<stop  offset="1" style="stop-color:#FFFFFF;stop-opacity:0"/>
		</linearGradient>
		<path opacity="0.35" fill="url(#SVGID_5_)" d="M234.542,205.207c-8.448,2.433-14.021,8.846-12.444,14.322
			c1.577,5.479,9.618,5.479,18.066,3.047c8.45-2.434,14.112-6.38,12.533-11.856C251.122,205.243,242.991,202.775,234.542,205.207z"
			/>
		<linearGradient id="SVGID_6_" gradientUnits="userSpaceOnUse" x1="231.3506" y1="206.4092" x2="235.1815" y2="212.7298">
			<stop  offset="0" style="stop-color:#FFFFFF"/>
			<stop  offset="1" style="stop-color:#FFFFFF;stop-opacity:0"/>
		</linearGradient>
		<path opacity="0.35" fill="url(#SVGID_6_)" d="M234.542,205.207c-4.063,1.17-8.156,3.424-10.688,6.896
			c-0.984,1.352-1.757,2.912-1.966,4.584c-0.165,1.334-0.351,3.142,1.184,3.725c-0.386-0.146,0.869-3.952,1.106-4.504
			c0.757-1.764,2.4-3.174,3.955-4.224c2.83-1.91,6.391-3.293,9.661-4.23c2.637-0.757,7.815-2.358,10.514-1.508
			C243.534,204.44,239.582,203.756,234.542,205.207z"/>
		<path fill="#E04183" d="M221.434,360.498c-14.509,0-20.842,15.903-20.842,33.406s14.171,21.905,28.657,22.699
			c15.634,0.857,23.885-5.196,23.885-22.699S235.945,360.498,221.434,360.498z"/>
		<path fill="#FF99CB" d="M221.869,359.292c-14.313,0-20.559,15.903-20.559,33.405c0,17.504,13.978,21.905,28.268,22.7
			c15.417,0.856,23.556-5.196,23.556-22.7C253.134,375.195,236.18,359.292,221.869,359.292z"/>
		<linearGradient id="SVGID_7_" gradientUnits="userSpaceOnUse" x1="197.0957" y1="393.002" x2="213.9492" y2="389.7165">
			<stop  offset="0" style="stop-color:#FFFFFF"/>
			<stop  offset="1" style="stop-color:#FFFFFF;stop-opacity:0"/>
		</linearGradient>
		<path opacity="0.35" fill="url(#SVGID_7_)" d="M219.4,402.485c-1.117-2.009-2.443-3.903-3.501-5.948
			c-1.293-2.503-1.999-5.204-2.818-7.888c-0.802-2.613-1.901-5.149-2.315-7.866c-0.415-2.714-0.217-5.479-0.134-8.21
			c0.054-1.756,0.331-3.551,0.029-5.301c-0.36-2.11-1.475-2.139-2.774-0.567c-1.768,2.132-2.876,4.963-3.772,7.551
			c-2.048,5.918-2.804,12.202-2.804,18.441c0,3.567,0.592,7.467,2.301,10.63c1.983,3.668,5.133,6.163,8.766,8.085
			c1.62,0.856,3.339,1.849,5.174,2.15c1.449,0.24,4.358-0.123,5.511-1.192c1.209-1.124,0.183-3.438-0.434-4.665
			C221.711,405.875,220.338,404.179,219.4,402.485z"/>
		<path fill="#E04183" d="M242.112,408.574c-0.855-0.563-1.879-0.918-2.833-1.068c-1.567-0.243-3.683-0.022-5.22,0.349
			c-1.557,0.379-2.382,1.476-3.731,2.018c-0.06-2.788-2.507-4.995-5.108-5.6c-2.83-0.658-4.828,0.487-6.882,2.245
			c-0.538-3.036-4.101-5.396-6.922-5.499c-1.761-0.064-5.14,0.55-6.186,2.137c-1.647,2.509,1.548,5.398,3.322,6.666
			c6.036,4.307,14.806,5.627,22.064,6.031c2.546,0.141,15.818-0.203,13.078-5.578C243.343,409.579,242.779,409.013,242.112,408.574z
			"/>
		<path fill="#E04183" d="M354.532,392.652c-4.223-0.564-8.182-0.623-12.396-0.501c-7.465,0.217-14.808,2.092-22.036,3.807
			c-6.654,1.575-7.44,4.68-5.955,11.458c3.742,17.099,18.334,18.412,32.463,16.132c8.107-1.306,16.249-4.69,18.53-13.292
			c0.979-3.685,1.677-9.371,0.784-14.124C364.976,391.08,358.354,393.168,354.532,392.652z"/>
		<path fill="#FF99CB" d="M354.532,391.446c-4.223-0.567-8.182-0.626-12.396-0.501c-7.465,0.215-14.808,2.092-22.036,3.805
			c-6.654,1.577-7.44,4.679-5.955,11.459c3.742,17.1,18.334,18.413,32.463,16.136c8.107-1.309,16.249-4.694,18.53-13.297
			c0.979-3.684,1.677-9.369,0.784-14.123C364.976,389.871,358.354,391.961,354.532,391.446z"/>
		<path fill="#E04183" d="M336.401,416.387c-0.007-0.013-0.017-0.023-0.025-0.04c0,0.017-0.002,0.027,0,0.04
			C336.383,416.586,336.394,416.586,336.401,416.387z"/>
		<path fill="#E04183" d="M361.505,410.968c-3.241-1.219-9.274,0.563-9.309,3.963c-2.237-2.236-5.21-3.121-8.336-2.785
			c-1.628,0.176-7.529,1.813-7.484,4.201c0.009,0.017,0.019,0.027,0.025,0.04c-0.008,0.199-0.019,0.199-0.025,0
			c-0.002-0.013,0-0.023,0-0.04c-1.571-2.595-5.588-2.988-8.213-2.063c-2.269,0.801-5.702,4.382-3.865,6.888
			c1.025,1.393,4.193,2.007,5.756,2.225c5.708,0.776,11.645,0.831,17.298-0.257c3.599-0.689,7.482-1.491,10.598-3.522
			c1.745-1.137,6.742-5.427,5.043-7.617C362.639,411.539,362.124,411.197,361.505,410.968z"/>
		<path fill="#E04183" d="M313.024,397.208c-4.042-1.455-7.931-2.358-12.11-3.137c-7.408-1.387-15.054-1.122-22.551-0.992
			c-6.9,0.116-8.347,2.979-8.347,9.919c0,17.505,14.108,21.906,28.532,22.7c8.275,0.454,17.031-1.111,21.138-9.023
			c1.759-3.395,3.672-8.798,3.819-13.634C323.665,397.902,316.684,398.53,313.024,397.208z"/>
		<path fill="#FF99CB" d="M313.393,394.608c-4.006-1.456-7.859-2.359-12.001-3.136c-7.338-1.387-14.915-1.124-22.343-0.997
			c-6.837,0.12-8.271,2.981-8.271,9.924c0,17.502,13.979,21.903,28.27,22.7c8.198,0.454,16.876-1.114,20.939-9.026
			c1.747-3.395,3.644-8.795,3.789-13.631C323.933,395.302,317.014,395.931,313.393,394.608z"/>
		<path fill="#E04183" d="M316.513,414.345c-0.982-0.532-2.326-0.574-3.324-0.544c-2.295,0.064-6.565,0.063-7.709,2.607
			c-2.591-2.509-4.651-4.471-8.479-4.543c-2.526-0.047-6.673,0.312-7.546,3.289c-0.504-2.287-3.214-4.054-5.297-4.534
			c-3.91-0.91-12.164,1.131-7.351,5.966c5.177,5.2,15.435,6.825,22.359,7.211c4.241,0.231,8.967-0.313,12.947-1.914
			c1.986-0.794,7.379-4.388,5.106-6.985C317.019,414.671,316.779,414.488,316.513,414.345z"/>
		<ellipse fill="#F63F92" cx="294.766" cy="215.809" rx="20.558" ry="23.555"/>
		<path fill="#F63F92" d="M336.206,190.565c-9.509,0-17.217,9.412-17.217,21.019c0,11.608,7.708,21.016,17.217,21.016
			c9.513,0,17.223-9.407,17.223-21.016C353.429,199.977,345.719,190.565,336.206,190.565z"/>
		<path fill="#E04183" d="M293.939,180.985c-3.181-1.218-7.721,0.127-10.938,0.754c-4.766,0.927-13.38,5.592-11.637,11.746
			c3.597-0.884,6.391-2.848,9.718-4.184c3.743-1.505,8.165-1.887,12.069-2.941C296.793,185.378,298.061,182.559,293.939,180.985z"/>
		<path fill="#E04183" d="M344.1,182.151c-1.982-1.602-4.996-3.103-7.498-3.538c-3.316-0.58-13.358-1.296-12.119,4.134
			c0.9,3.949,5.365,2.785,8.522,2.593c4.947-0.298,9.021,0.436,13.794,1.106C348.203,186.643,344.388,182.385,344.1,182.151z"/>
		<path fill="#9C1B50" d="M227.149,219.589c1.115,0.073,2.186,0.009,3.231-0.135c2.997-0.413,6.869-1.001,9.55-2.271
			C237.191,213.368,228.472,215.108,227.149,219.589z"/>
		<g>
			<ellipse fill="#E6ECEF" cx="295.835" cy="215.38" rx="18.2" ry="20.129"/>
		</g>
		<linearGradient id="SVGID_8_" gradientUnits="userSpaceOnUse" x1="286.2002" y1="215.8213" x2="314.0146" y2="215.8213">
			<stop  offset="0" style="stop-color:#42DBFF"/>
			<stop  offset="1" style="stop-color:#0086D4"/>
		</linearGradient>
		
			<ellipse fill="url(#SVGID_8_)" stroke="#13007C" stroke-width="1.2063" stroke-miterlimit="10" cx="300.108" cy="215.822" rx="13.908" ry="15.833"/>
		<radialGradient id="SVGID_9_" cx="302.1563" cy="216.2959" r="12.4888" gradientUnits="userSpaceOnUse">
			<stop  offset="0" style="stop-color:#000000"/>
			<stop  offset="1" style="stop-color:#13007C"/>
		</radialGradient>
		<path fill="url(#SVGID_9_)" d="M302.155,203.232c-6.562,0-11.886,5.848-11.886,13.065c0,7.215,5.324,13.063,11.886,13.063
			s11.887-5.848,11.887-13.063C314.042,209.08,308.717,203.232,302.155,203.232z"/>
		<path fill="#FFFFFF" d="M335.879,193.109c-8.513,0-15.415,8.629-15.415,19.274c0,10.644,6.902,19.271,15.415,19.271
			c8.517,0,15.417-8.627,15.417-19.271C351.296,201.738,344.396,193.109,335.879,193.109z"/>
		<linearGradient id="SVGID_10_" gradientUnits="userSpaceOnUse" x1="320.6914" y1="212.9873" x2="347.2734" y2="212.9873">
			<stop  offset="0" style="stop-color:#42DBFF"/>
			<stop  offset="1" style="stop-color:#0086D4"/>
		</linearGradient>
		
			<ellipse fill="url(#SVGID_10_)" stroke="#13007C" stroke-width="1.2063" stroke-miterlimit="10" cx="333.983" cy="212.987" rx="13.292" ry="15.119"/>
		<linearGradient id="SVGID_11_" gradientUnits="userSpaceOnUse" x1="320.6914" y1="212.9873" x2="347.2734" y2="212.9873">
			<stop  offset="0" style="stop-color:#42DBFF"/>
			<stop  offset="1" style="stop-color:#0086D4"/>
		</linearGradient>
		
			<ellipse fill="url(#SVGID_11_)" stroke="#13007C" stroke-width="1.2063" stroke-miterlimit="10" cx="333.983" cy="212.987" rx="13.292" ry="15.119"/>
		<radialGradient id="SVGID_12_" cx="330.1875" cy="214.5562" r="12.3953" gradientUnits="userSpaceOnUse">
			<stop  offset="0" style="stop-color:#000000"/>
			<stop  offset="1" style="stop-color:#13007C"/>
		</radialGradient>
		<ellipse fill="url(#SVGID_12_)" cx="332.69" cy="214.942" rx="11.571" ry="13.165"/>
		<path opacity="0.5" fill="#FEBDDF" d="M319.623,227.336c-57.095,2.452-106.955,39.048-106.955,88.712
			c0,49.667,50.456,80.556,107.387,85.405c53.202,4.535,105.788-38.269,105.788-87.933
			C425.843,263.855,404.491,223.691,319.623,227.336z"/>
		<path fill="#FF99CB" d="M327.361,219.382c-60.161,2.473-112.703,39.364-112.703,89.429c0,50.065,52.49,88.203,112.703,88.203
			c60.215,0,109.029-40.589,109.029-90.65C436.391,256.295,416.789,215.708,327.361,219.382z"/>
		<path fill="#FF99CB" d="M327.333,220.74c-59.242,2.434-110.98,38.759-110.98,88.058c0,49.304,51.688,86.854,110.98,86.854
			c59.296,0,107.364-39.963,107.364-89.266C434.697,257.087,415.396,217.12,327.333,220.74z"/>
		<linearGradient id="SVGID_13_" gradientUnits="userSpaceOnUse" x1="351.8936" y1="329.79" x2="353.3239" y2="363.4141">
			<stop  offset="0" style="stop-color:#FFA1D0;stop-opacity:0.7832"/>
			<stop  offset="0.3273" style="stop-color:#FFA3D1;stop-opacity:0.7212"/>
			<stop  offset="1" style="stop-color:#FEBDDF;stop-opacity:0"/>
		</linearGradient>
		<path fill="url(#SVGID_13_)" d="M424.194,333.204c-1.634,2.401-4.734,3.984-6.901,5.873c-1.348,1.177-2.157,2.58-3.714,3.543
			c-2.081,1.286-4.468,2.023-6.704,2.987c-4.153,1.793-8.337,3.155-12.94,3.073c-2.853-0.052-5.623-0.306-8.521-0.313
			c-6.17-0.013-10.835-0.338-16.676-2.331c-4.764-1.625-10.261-6.111-15.127-3.581c-5.334,2.772-10.811,3.749-16.59,4.699
			c-8.333,1.368-21.472,4.112-23.92-7.041c-0.692-3.157-1.966-6.302-4.202-8.687c-1.926-2.049-4.745-3.766-7.607-3.93
			c-2.153-0.128-4.045,0.878-6.118,1.22c-4.147,0.682-7.53-2.145-10.23-4.915c-2.631-2.7-5.208-5.41-7.516-8.363
			c-0.681-0.871-1.55-1.885-1.809-2.965c0.066,6.605,3.988,10.938,6.336,16.707c1.32,3.247-0.449,5.334-1.727,8.384
			c-1.286,3.066-1.214,5.659-1.199,8.999c0.023,5.177,5.731,11.215,10.312,12.952c4.811,1.827,10.063,3.019,15.223,2.32
			c4.987-0.682,6.517-4.605,9.333-8.137c0.261,1.723,11.667,4.737,14.547,4.745c2.985,0.008,11.51-0.776,17.924-2.917
			c5.698-1.9,7.795-4.722,14.126-2.378c3.089,1.14,6.443,1.365,9.627,1.875c6.312,0.999,14.339,0.932,20.513-0.285
			c3.215-0.635,6.132-1.404,9.423-1.653c3.378-0.259,6.797-0.504,10.013-1.651c3.173-1.127,6.368-2.901,9.018-4.991
			c2.391-1.892,3.867-4.658,4.963-7.463c1.313-3.367,3.118-6.976,3.333-10.632C425.336,329.065,425.256,331.642,424.194,333.204z"/>
		<path fill="#F784C1" d="M405.513,329.561c-8.208-0.53-15.404,7.457-16.075,17.847c-0.667,10.383,6.068,14.774,14.276,15.304
			c8.209,0.527,14.786-3.005,15.457-13.389C419.842,338.936,413.729,330.085,405.513,329.561z"/>
		<linearGradient id="SVGID_14_" gradientUnits="userSpaceOnUse" x1="284.3945" y1="334.1904" x2="310.8545" y2="348.2739">
			<stop  offset="0.0118" style="stop-color:#EDEDED"/>
			<stop  offset="0.0182" style="stop-color:#EDEDED"/>
			<stop  offset="0.4455" style="stop-color:#E4E3E9"/>
			<stop  offset="1" style="stop-color:#E1E0E8"/>
		</linearGradient>
		<path fill="url(#SVGID_14_)" d="M302.01,325.048c-8.521-2.481-17.787,3.611-20.697,13.604
			c-2.908,9.994,3.243,15.895,11.765,18.374c8.521,2.477,16.187,0.598,19.095-9.394C315.081,337.639,310.53,327.528,302.01,325.048z
			"/>
		<linearGradient id="SVGID_15_" gradientUnits="userSpaceOnUse" x1="282.8438" y1="336.9502" x2="290.0347" y2="338.9685">
			<stop  offset="0.0178" style="stop-color:#FFFFFF"/>
			<stop  offset="1" style="stop-color:#FFFFFF;stop-opacity:0"/>
		</linearGradient>
		<path opacity="0.95" fill="url(#SVGID_15_)" d="M297.641,324.528c-7.956,0.363-14.179,6.74-16.328,14.123
			c-2.908,9.994,3.243,15.895,11.765,18.374c0.08,0.022,0.166,0.047,0.248,0.071l-0.199-0.695c-1.334-0.505-2.17-2.597-2.67-3.849
			c-0.707-1.776-1.287-3.807-1.481-5.708c-0.655-6.424,2.796-12.567,7.984-16.218c1.546-1.087,3.518-1.976,4.227-3.88
			C302.127,324.227,299.251,324.455,297.641,324.528z"/>
		<linearGradient id="SVGID_16_" gradientUnits="userSpaceOnUse" x1="391.6064" y1="345.5449" x2="420.3359" y2="345.5449">
			<stop  offset="0.0118" style="stop-color:#EDEDED"/>
			<stop  offset="0.0182" style="stop-color:#EDEDED"/>
			<stop  offset="0.4455" style="stop-color:#E4E3E9"/>
			<stop  offset="1" style="stop-color:#E1E0E8"/>
		</linearGradient>
		<path fill="url(#SVGID_16_)" d="M407.18,328.958c-7.906-0.51-14.854,7.494-15.526,17.883
			c-0.666,10.386,5.808,14.759,13.714,15.268c7.904,0.51,14.245-3.04,14.917-13.423C420.951,338.301,415.085,329.466,407.18,328.958
			z"/>
		<linearGradient id="SVGID_17_" gradientUnits="userSpaceOnUse" x1="392.2852" y1="345.6211" x2="397.8513" y2="345.6211">
			<stop  offset="0" style="stop-color:#FFFFFF"/>
			<stop  offset="1" style="stop-color:#FFFFFF;stop-opacity:0"/>
		</linearGradient>
		<path fill="url(#SVGID_17_)" d="M398.118,353.834c-2.333-5.635-0.276-12.083,2.4-17.178c1.045-1.99,3.724-4.146,3.939-6.474
			c0.248-2.649-4.327,0.537-5.191,1.208c-3.08,2.395-5.054,5.538-6.343,9.189c-0.714,2.015-1.129,4.125-1.271,6.261
			c-0.661,10.308,5.709,14.694,13.536,15.256l-0.382-0.507C402.155,359.211,399.521,357.231,398.118,353.834z"/>
		<path fill="#E04183" d="M433.066,290.907c0.3-10.701-3.743-21.899-8.862-31.151c-9.805-17.703-27.541-28.206-46.903-32.737
			c-16.361-3.829-33.231-4.555-49.968-3.867c-10.769,0.443-21.643,1.114-32.135,3.743c-5.158,1.292-9.834,2.899-14.481,5.567
			c-7.626,4.375-9.731,14.148-12.277,21.897c-3.729,11.345-1.705,22.681,1.186,33.965c2.579,10.072,2.362,19.817,7.313,29.258
			c10.629,20.264,36.437,38.196,59.924,33.932c3.307-0.602,6.726-1.461,9.79-2.829c2.646-1.182,6.313-4.162,9.157-4.565
			c3.387-0.479,8.146,2.989,11.416,4.271c8.924,3.495,20.162,3.061,29.545,1.368c16.563-2.989,29.722-13.635,34.672-29.948
			C434.348,310.239,432.794,300.692,433.066,290.907z"/>
		<path fill="#FF99CB" d="M433.066,288.494c0.3-10.699-3.743-21.899-8.862-31.15c-9.805-17.703-27.541-28.206-46.903-32.738
			c-16.361-3.828-33.231-4.554-49.968-3.866c-10.769,0.441-21.643,1.113-32.135,3.742c-5.158,1.292-9.834,2.899-14.481,5.565
			c-7.626,4.376-9.731,14.15-12.277,21.898c-2.62,7.97-1.816,16.292-2.134,24.528c-0.283,7.254-1.003,16.017,2.353,22.681
			c12.958,25.742,34.563,56.055,68.204,49.945c3.307-0.603,6.726-1.459,9.79-2.83c2.646-1.183,6.313-4.161,9.157-4.563
			c3.387-0.48,8.146,2.986,11.416,4.27c8.924,3.496,20.162,3.062,29.545,1.368c16.563-2.989,29.722-13.635,34.672-29.949
			C434.348,307.826,432.794,298.282,433.066,288.494z"/>
		<linearGradient id="SVGID_18_" gradientUnits="userSpaceOnUse" x1="297.7402" y1="203.791" x2="335.4972" y2="338.3917">
			<stop  offset="0" style="stop-color:#FFFFFF"/>
			<stop  offset="1" style="stop-color:#FFFFFF;stop-opacity:0"/>
		</linearGradient>
		<path opacity="0.35" fill="url(#SVGID_18_)" d="M434.697,306.386c0,49.303-48.068,89.266-107.364,89.266
			c-59.292,0-110.98-37.55-110.98-86.854c0-49.299,51.738-85.625,110.98-88.058C415.396,217.12,434.697,257.087,434.697,306.386z"/>
		<linearGradient id="SVGID_19_" gradientUnits="userSpaceOnUse" x1="391.3359" y1="223.3564" x2="381.6811" y2="331.9735">
			<stop  offset="0" style="stop-color:#FFFFFF"/>
			<stop  offset="1" style="stop-color:#FFFFFF;stop-opacity:0"/>
		</linearGradient>
		<path opacity="0.35" fill="url(#SVGID_19_)" d="M380.82,225.656c-9.556-2.577-28.964-6.596-40.226-4.345
			c27.57,12.774,57.284,31.275,70.971,59.53c10.703,22.102,0.988,51.264-17.114,66.201c49.484-9.777,51.494-69.513,21.065-101.817
			C406.337,235.479,393.587,229.099,380.82,225.656z"/>
		<linearGradient id="SVGID_20_" gradientUnits="userSpaceOnUse" x1="350.6289" y1="267.749" x2="309.6159" y2="301.5245">
			<stop  offset="0" style="stop-color:#FFFFFF"/>
			<stop  offset="1" style="stop-color:#FFFFFF;stop-opacity:0"/>
		</linearGradient>
		<path opacity="0.35" fill="url(#SVGID_20_)" d="M316.058,222.345c17.571-1.314,28.833,26.135,32.122,39.288
			c6.492,25.947-5.185,76.346-36.603,82.269c10.872,6.497,34.616,2.43,43.883-6.313c9.184-8.664,11.131-33.15,11.141-44.943
			c0.004-3.908-0.19-8.021-0.622-12.221C363.093,252.063,349.674,219.828,316.058,222.345z"/>
		<linearGradient id="SVGID_21_" gradientUnits="userSpaceOnUse" x1="264.1025" y1="221.0073" x2="286.659" y2="301.4194">
			<stop  offset="0" style="stop-color:#FFFFFF"/>
			<stop  offset="1" style="stop-color:#FFFFFF;stop-opacity:0"/>
		</linearGradient>
		<path opacity="0.35" fill="url(#SVGID_21_)" d="M216.353,308.798c0,13.798,5.697,34.582,15.527,43.796
			c-2.939-10.158-6.638-21.894-6.138-33.084c2.583-57.642,61.768-95.79,115.383-91.313
			C304.264,205.057,216.353,249.423,216.353,308.798z"/>
		<ellipse fill="#E04183" cx="392.693" cy="238.014" rx="18.073" ry="18.368"/>
		<ellipse fill="#E04183" cx="303.545" cy="244.244" rx="21.63" ry="20.82"/>
		<ellipse fill="#FF99CB" cx="305.354" cy="245.986" rx="19.82" ry="19.079"/>
		<linearGradient id="SVGID_22_" gradientUnits="userSpaceOnUse" x1="290.8818" y1="234.0073" x2="297.9639" y2="239.9338">
			<stop  offset="0" style="stop-color:#FFFFFF"/>
			<stop  offset="1" style="stop-color:#FFFFFF;stop-opacity:0"/>
		</linearGradient>
		<path opacity="0.35" fill="url(#SVGID_22_)" d="M285.534,245.985c0,4.538,1.56,10.74,6.422,12.295
			c-1.112-2.275-2.32-4.675-2.55-7.232c-0.497-5.66,2.482-10.94,6.291-14.924c4.717-4.935,11.718-6.904,18.383-6.761
			c-2.903-1.557-5.335-2.456-8.726-2.456C294.408,226.907,285.534,235.449,285.534,245.985z"/>
		<ellipse fill="#FF99CB" cx="391.605" cy="240.556" rx="18.007" ry="18.475"/>
		<linearGradient id="SVGID_23_" gradientUnits="userSpaceOnUse" x1="381.792" y1="221.8379" x2="387.7991" y2="234.1603">
			<stop  offset="0" style="stop-color:#FFFFFF"/>
			<stop  offset="1" style="stop-color:#FFFFFF;stop-opacity:0"/>
		</linearGradient>
		<path opacity="0.54" fill="url(#SVGID_23_)" d="M399.217,223.813c-2.37-1.139-4.983-1.731-7.611-1.731
			c-9.946,0-18.007,8.272-18.007,18.477c0,2.011-0.032,5.625,1.684,7.018c0.646-2.538,1.093-4.732,2.529-7.021
			c1.367-2.186,3.117-4.135,4.988-5.902c3.693-3.486,9.665-6.553,14.726-7.436c2.022-0.35,4.071,0.074,6.079-0.174
			C403.791,226.115,400.113,224.242,399.217,223.813z"/>
		<ellipse fill="#FEBDDF" cx="306.69" cy="250.56" rx="7.89" ry="8.43"/>
		<path fill="#9C1B50" d="M307.209,243.233c-4.075,0-7.374,3.527-7.374,7.877c0,4.354,3.299,7.879,7.374,7.879
			c4.069,0,7.372-3.525,7.372-7.879C314.581,246.761,311.278,243.233,307.209,243.233z"/>
		<ellipse fill="#FEBDDF" cx="393.576" cy="246.548" rx="7.239" ry="7.751"/>
		<ellipse fill="#9C1B50" cx="393.063" cy="246.826" rx="6.727" ry="7.2"/>
		<path fill="#F63F92" d="M309.635,401.588c2.48,1.185,6.753,3.875,14.977,3.396c7.87-0.459,12.034-4.186,12.753-4.598
			c-3.92,2.255-8.869,3.187-13.556,3.52C318.026,404.316,312.159,402.533,309.635,401.588z"/>
		<linearGradient id="SVGID_24_" gradientUnits="userSpaceOnUse" x1="350.9668" y1="353.251" x2="333.4019" y2="389.3388">
			<stop  offset="0.0242" style="stop-color:#FEBADE;stop-opacity:0.0727"/>
			<stop  offset="0.0644" style="stop-color:#FEADD7;stop-opacity:0.158"/>
			<stop  offset="0.1271" style="stop-color:#FFA2D0;stop-opacity:0.2913"/>
			<stop  offset="0.2154" style="stop-color:#FF9BCC;stop-opacity:0.4789"/>
			<stop  offset="0.4606" style="stop-color:#FF99CB"/>
			<stop  offset="0.7585" style="stop-color:#FF9BCC;stop-opacity:0.4478"/>
			<stop  offset="0.8657" style="stop-color:#FFA2D0;stop-opacity:0.2489"/>
			<stop  offset="0.9419" style="stop-color:#FEADD6;stop-opacity:0.1076"/>
			<stop  offset="1" style="stop-color:#FEBDDF;stop-opacity:0"/>
		</linearGradient>
		<path fill="url(#SVGID_24_)" d="M350.958,351.007c-0.326-0.059-0.637,0.185-0.68,0.516c-0.907,6.788-3.099,16.12-6.539,21.967
			c-4.354,7.403-10.178,13.02-14.019,15.299c-0.286,0.168-0.379,0.54-0.208,0.824c0.11,0.193,0.313,0.296,0.517,0.296
			c0.104,0,0.211-0.025,0.308-0.084c3.684-2.184,9.677-7.616,14.442-15.725c4.44-7.553,6.248-19.066,6.693-22.416
			C351.518,351.354,351.284,351.048,350.958,351.007z"/>
		<linearGradient id="SVGID_25_" gradientUnits="userSpaceOnUse" x1="342.2725" y1="220.3306" x2="366.5318" y2="336.2362">
			<stop  offset="0.0242" style="stop-color:#FEBADE;stop-opacity:0.0727"/>
			<stop  offset="0.0599" style="stop-color:#FEADD7;stop-opacity:0.158"/>
			<stop  offset="0.1157" style="stop-color:#FFA2D0;stop-opacity:0.2913"/>
			<stop  offset="0.1942" style="stop-color:#FF9BCC;stop-opacity:0.4789"/>
			<stop  offset="0.4121" style="stop-color:#FF99CB"/>
			<stop  offset="0.7367" style="stop-color:#FF9BCC;stop-opacity:0.4478"/>
			<stop  offset="0.8537" style="stop-color:#FFA2D0;stop-opacity:0.2489"/>
			<stop  offset="0.9367" style="stop-color:#FEADD6;stop-opacity:0.1076"/>
			<stop  offset="1" style="stop-color:#FEBDDF;stop-opacity:0"/>
		</linearGradient>
		<path fill="url(#SVGID_25_)" d="M362.315,254.373c-2.439-7.862-7.029-14.652-11.616-20.742
			c-4.109-5.453-10.979-10.767-21.465-12.186c-0.325-0.043-0.229-0.121-0.284,0.208c-0.047,0.33,0.04,0.861,0.355,0.966
			c10.344,3.431,13.391,4.423,19.196,10.94c4.916,5.515,9.921,13.745,12.401,21.323c2.702,8.269,5.21,17.86,6.224,28.496
			c0.925,9.607,0.137,20.675-2.344,32.882c-1.908,9.399-5.265,17.077-10.554,24.165c-0.196,0.266-0.144,0.644,0.125,0.843
			c0.107,0.081,0.233,0.121,0.359,0.121c0.184,0,0.363-0.086,0.483-0.243c5.399-7.233,8.821-15.066,10.769-24.646
			c2.505-12.325,3.299-23.511,2.364-33.237C367.303,272.521,364.91,262.74,362.315,254.373z"/>
		<linearGradient id="SVGID_26_" gradientUnits="userSpaceOnUse" x1="286.9932" y1="305.335" x2="299.0566" y2="305.335">
			<stop  offset="0" style="stop-color:#FFFFFF"/>
			<stop  offset="1" style="stop-color:#FFFFFF;stop-opacity:0.2545"/>
		</linearGradient>
		<circle opacity="0.35" fill="url(#SVGID_26_)" cx="293.024" cy="305.335" r="6.032"/>
		<linearGradient id="SVGID_27_" gradientUnits="userSpaceOnUse" x1="416.0664" y1="284.8271" x2="428.1318" y2="284.8271">
			<stop  offset="0" style="stop-color:#FFFFFF"/>
			<stop  offset="1" style="stop-color:#FFFFFF;stop-opacity:0.2909"/>
		</linearGradient>
		<path opacity="0.35" fill="url(#SVGID_27_)" d="M422.098,278.795c-3.331,0-6.031,2.702-6.031,6.031c0,3.33,2.7,6.033,6.031,6.033
			c3.334,0,6.034-2.703,6.034-6.033C428.132,281.497,425.432,278.795,422.098,278.795z"/>
		<linearGradient id="SVGID_28_" gradientUnits="userSpaceOnUse" x1="391.9424" y1="311.3652" x2="404.0059" y2="311.3652">
			<stop  offset="0" style="stop-color:#FFFFFF"/>
			<stop  offset="1" style="stop-color:#FFFFFF;stop-opacity:0.3758"/>
		</linearGradient>
		<circle opacity="0.35" fill="url(#SVGID_28_)" cx="397.973" cy="311.366" r="6.032"/>
		<linearGradient id="SVGID_29_" gradientUnits="userSpaceOnUse" x1="297.8506" y1="327.6523" x2="306.2939" y2="327.6523">
			<stop  offset="0" style="stop-color:#FFFFFF"/>
			<stop  offset="0.697" style="stop-color:#FFFFFF;stop-opacity:0.303"/>
		</linearGradient>
		<circle opacity="0.35" fill="url(#SVGID_29_)" cx="302.074" cy="327.652" r="4.222"/>
		<linearGradient id="SVGID_30_" gradientUnits="userSpaceOnUse" x1="262.8682" y1="276.3828" x2="274.9307" y2="276.3828">
			<stop  offset="0" style="stop-color:#FFFFFF"/>
			<stop  offset="1" style="stop-color:#FFFFFF;stop-opacity:0.4545"/>
		</linearGradient>
		<path opacity="0.35" fill="url(#SVGID_30_)" d="M268.898,270.352c-3.331,0-6.03,2.7-6.03,6.031c0,3.335,2.699,6.032,6.03,6.032
			c3.329,0,6.032-2.697,6.032-6.032C274.931,273.052,272.228,270.352,268.898,270.352z"/>
		<path opacity="0.41" fill="#F63F92" d="M269.248,298.104c-5.025,2.071-8.234,8.56-5.379,13.64
			c0.468-4.861,2.055-7.628,6.548-10.035c3.129-1.678,8.646-3.36,12.003-1.34C278.003,297.716,274.525,295.931,269.248,298.104z"/>
		<radialGradient id="SVGID_31_" cx="293.6465" cy="211.2031" r="4.5569" gradientUnits="userSpaceOnUse">
			<stop  offset="0" style="stop-color:#FFFFFF"/>
			<stop  offset="0.8587" style="stop-color:#FFFFFF;stop-opacity:0.1413"/>
			<stop  offset="1" style="stop-color:#FFFFFF;stop-opacity:0"/>
		</radialGradient>
		<ellipse fill="url(#SVGID_31_)" cx="293.647" cy="211.203" rx="4.77" ry="4.336"/>
		<radialGradient id="SVGID_32_" cx="326.8672" cy="207.3066" r="4.0549" gradientUnits="userSpaceOnUse">
			<stop  offset="0" style="stop-color:#FFFFFF"/>
			<stop  offset="0.8587" style="stop-color:#FFFFFF;stop-opacity:0.1413"/>
			<stop  offset="1" style="stop-color:#FFFFFF;stop-opacity:0"/>
		</radialGradient>
		<ellipse fill="url(#SVGID_32_)" cx="326.867" cy="207.307" rx="4.242" ry="3.857"/>
	</g>
</g>
</svg>
