<?xml version="1.0" encoding="utf-8"?>
<!-- Generator: Adobe Illustrator 15.1.0, SVG Export Plug-In . SVG Version: 6.00 Build 0)  -->
<!DOCTYPE svg PUBLIC "-//W3C//DTD SVG 1.1//EN" "http://www.w3.org/Graphics/SVG/1.1/DTD/svg11.dtd">
<svg version="1.1" id="Layer_1" xmlns="http://www.w3.org/2000/svg" xmlns:xlink="http://www.w3.org/1999/xlink" x="0px" y="0px"
	 width="512px" height="512px" viewBox="0 0 512 512" enable-background="new 0 0 512 512" xml:space="preserve">
<g>
	<g>
		<path fill="#2179AA" d="M108.683,173.574c1.418,0.151,2.793,0.54,4.217,0.702c1.397,0.158,5.33-46.112,5.761-44.552
			c0.277,1-0.016,50.422-0.209,54.47c-0.208,4.383-2.22,8.592-6.302,8.592c-9.821,0-18.474,0.147-28.293,0.141
			c-5.883-0.004-7.821-3.637-8.397-8.524c-0.416-3.547-0.979-54.102-0.416-55.93c0.55-1.793,4.199,47.755,5.601,47.325
			c2.307-0.703,4.655-1.147,7.046-1.443c4.129-0.508,8.176-0.558,12.315-0.718c2.546-0.101,5.09-0.143,7.64-0.124
			C107.994,173.514,108.34,173.536,108.683,173.574z"/>
		<path fill="#99E9FF" d="M72.612,83.878c0.674-0.653,1.602-1.788,3.097-1.788l42.836-0.08c1.277,0,2.091,1.815,2.542,2.7
			c0.475-3.231,0.966-9.586-2.825-9.586l-41.872,0.077c-3.021,0-4.238,1.215-4.238,4.085C72.15,80.569,72.209,82.607,72.612,83.878z
			"/>
		<path fill="#60B1E8" d="M118.104,79.369c4.089,0,2.859,6.055,2.727,9.106c-0.432,9.765-0.938,19.526-1.401,29.288
			c-0.307,6.43-0.657,12.858-0.922,19.289c-0.14,3.33-0.275,6.659-0.402,9.991c-0.273,7.226-0.56,14.456-0.794,21.683
			c-0.141,4.221-0.295,8.442-0.418,12.663c-0.091,3.165-0.754,6.291-4.887,6.291c-9.946,0-18.708,0.146-28.655,0.141
			c-5.959-0.004-6.369-2.569-6.521-7.486c-0.082-2.564-0.279-5.188-0.441-7.76c-0.511-8.087-0.775-16.215-1.096-24.314
			c-0.688-17.607-1.473-35.22-2.317-52.824c-0.19-3.983-0.355-7.973-0.532-11.958c-0.114-2.623,1.035-4.034,4.039-4.034
			L118.104,79.369z"/>
		<circle fill="#99E9FF" cx="87.217" cy="94.387" r="8.103"/>
		<circle fill="#99E9FF" cx="105.758" cy="142.781" r="6.174"/>
		<circle fill="#99E9FF" cx="87.874" cy="173.399" r="7.332"/>
		<circle fill="#99E9FF" cx="85.85" cy="129.5" r="3.666"/>
		<circle fill="#99E9FF" cx="108.421" cy="166.381" r="3.665"/>
		<path fill="#99E9FF" d="M112.297,107.697c0,2.027-1.642,3.668-3.665,3.668c-2.024,0-3.664-1.641-3.664-3.668
			c0-2.022,1.64-3.664,3.664-3.664C110.656,104.033,112.297,105.675,112.297,107.697z"/>
	</g>
	<g>
		
			<radialGradient id="SVGID_1_" cx="84.2024" cy="131.9023" r="191.9846" gradientTransform="matrix(0.6429 0.6405 0.2853 -0.2836 232.6031 264.943)" gradientUnits="userSpaceOnUse">
			<stop  offset="0" style="stop-color:#C45B3B"/>
			<stop  offset="0.1804" style="stop-color:#C7603C"/>
			<stop  offset="0.3991" style="stop-color:#CE6F40"/>
			<stop  offset="0.6377" style="stop-color:#DA8746"/>
			<stop  offset="0.8889" style="stop-color:#EBA94E"/>
			<stop  offset="1" style="stop-color:#F4BB52"/>
		</radialGradient>
		<path fill="url(#SVGID_1_)" d="M246.988,188.233c-1.576-4.224-3.946-8.177-6.896-11.625c-3.197-3.739-7.146-6.957-11.609-9.088
			c-1.625-0.775-12.646-3.207-12.755-3.719c-1.137-5.369,15.629-4.632,18.813-4.291c7.275,0.779,14.679,3.035,20.801,7.099
			c10.346,6.867,16.927,16.652,21.404,27.662c5.274,12.981,6.903,11.34,9.351,7.769c1.909-2.78,6.115-7.713,9.521-11.695
			c3.692-4.316,9.226-7.771,14.241-10.34c1.184-0.604,18.081-5.646,18.568-2.749c0.777,4.619-9.051,8.787-13.591,12.619
			c-14.292,12.062-21.39,26.459-14.203,30.117c4.334,2.203,14.781-11.221,17.163-13.756c3.654-3.888,7.057-7.986,10.533-11.877
			c4.235-4.733,9.396-7.721,15.269-10.109c4.229-1.721,12.704-3.552,16.508-0.78c0.192,0.672,0.104,1.304-0.26,1.9
			c-0.796,1.308-8.101,3.647-9.82,4.909c-5.852,4.306-11.081,9.89-16.191,15.024c-4.629,4.655-12.597,24.598-9.35,26.269
			c4.545,2.3,12.491-11.668,14.701-14.285c5.131-6.089,11.997-10.623,19.618-12.979c5.052-1.557,12.03-2.218,17.254-2.066
			c-2.945,6.774-17.154,9.599-22.669,14.402c-3.898,3.396-14.379,16.471-10.295,23.613c2.746,4.785,17.313-7.692,19.577-9.378
			c9.146-6.804,25.911-13.506,37.394-9.825c-4.541,4.978-12.271,6.675-18.126,9.77c-5.774,3.051-25.214,14.728-27.795,21.585
			c-2.609,6.916,16.139-2.282,18.77-3.185c10.482-3.605,39.392-7.237,38.797,0.105c-0.237,2.948-5.854,2.926-8.007,3.282
			c-6.543,1.085-12.674,4.12-18.848,6.45c-4.33,1.631-15.38,8.334-15.011,13.607c6.293,4.048,20.581-2.377,27.354-3.445
			c4.687-0.742,9.61-1.318,14.345-0.744c3.173,0.385,8.871,2.201,6.357,5.168c-1.617,1.91-8.93,2.201-11.321,2.963
			c-1.719,0.551-8.749,1.135-14.674,5.559c-3.585,2.676-8.347,4.887-7.533,7.843c1.758,6.394,15.055,2.239,17.513,2.2
			c3.351-0.053,7.884-0.189,11,1.3c6.188,2.956-3.13,5.464-2.962,5.438c-2.837,0.456-11.75,4.341-13.904,6.142
			c12.456-1.523,29.578,3.658,20.518,4.719c-7.612,0.891-12.972,4.238-10.904,6.219c1.41,1.354,6.712,0.332,8.551,0.509
			c2.563,0.249,14.228,1.854,12.479,5.821c-1.814,0.843-3.805,0.83-5.664,1.293c-1.979,0.49-4.088,1.433-6.243,1.926
			c-0.236,0.624-0.238,1.59,0,2.215c2.507,0.375,18.728,0.255,16.761,5.407c-0.582,1.524-7.659,0.442-8.76,2.653
			c-1.599,3.207,8.271,4.721,9.898,5.844c9.689,6.662-1.14,2.771-4.395,6.214c3.429,2.323,13.921,5.239,11.12,11.237
			c0.141-0.305-6.7-5.151-8.728-1.267c-1.876,3.601,7.438,4.979,2.771,8.724c-4.837-3.674-6.27,5.886-9.18,7.664
			c-4.767,2.906-9.104-1.834-12.664-4.674c-5.525-4.404-11.679-7.611-17.541-11.503c-11.251-7.47-22.104-16.964-29.218-28.493
			c-10.894-17.654-19.933-36.496-30.509-54.361c-5.912-9.984-12.576-19.467-22.121-26.34c-9.179-6.604-19.886-10.296-30.586-13.644
			c-5.903-1.85-11.693-4.03-17.563-5.992c-5.294-1.771-10.77-4.102-16.337-4.846c-2.758-0.369-5.309-0.95-7.863-1.602
			c-3.032-0.773-3.676-0.744-4.854-3.795c-0.794-2.065-1.289-4.243-2.475-6.202c-2.122-3.517-5.648-6.71-9.281-8.15
			c-4.636-1.844-9.649-0.35-14.343-1.673c0.309-7.34,16.022-7.209,20.688-6.575c8.438,1.145,12.247,4.409,19.114,8.597
			C249.688,199.304,248.969,193.552,246.988,188.233z"/>
		
			<radialGradient id="SVGID_2_" cx="84.3025" cy="114.6836" r="168.8057" gradientTransform="matrix(0.6429 0.6405 0.2771 -0.2755 238.4988 268.8475)" gradientUnits="userSpaceOnUse">
			<stop  offset="0" style="stop-color:#C45B3B"/>
			<stop  offset="0.1804" style="stop-color:#C7603C"/>
			<stop  offset="0.3991" style="stop-color:#CE6F40"/>
			<stop  offset="0.6377" style="stop-color:#DA8746"/>
			<stop  offset="0.8889" style="stop-color:#EBA94E"/>
			<stop  offset="1" style="stop-color:#F4BB52"/>
		</radialGradient>
		<path fill="url(#SVGID_2_)" d="M254.187,187.793c-0.122-1.97-0.214-3.946-0.178-5.936c8.211,2.154,10.5,10.839,13.385,17.544
			c1.994,4.632,6.689,17.084,13.323,13.284c1.896-1.085,5.667-7.738,7.995-6.523c2.031,1.059-0.105,8.477,0.021,10.473
			c0.439,6.971,7.338,12.904,14.324,9.217c3.468-1.831,6.904-4.584,9.806-7.19c2.681-2.399,5.424-5.277,9.018-6.137
			c-0.129,3.358-1.545,5.372-2.905,8.291c-1.27,2.71-1.688,5.861-2.036,8.808c-0.309,2.609-0.863,6.705,1.05,8.878
			c2.006,2.28,6.142,1.387,8.507,0.104c2.747-1.488,3.562-4.979,6.234-6.448c3.676-2.02,3.586,1.956,2.479,4.384
			c-1.465,3.221-7.794,14.289-0.424,14.132c3.202-0.066,6.386-3.151,9.11-4.64c3.229-1.766,5.567-3.676,9.394-3.984
			c-0.149,3.982-4.571,6.447-6.619,9.632c-1.727,2.676-3.902,9.198-0.13,10.927c4.087,1.875,9.975-2.385,13.805-3.521
			c4.211-1.247,8.284-2.495,12.719-2.555c0.009,5.681-9.107,7.938-11.474,12.979c-0.92,1.967-1.861,5.871-1.271,7.965
			c1.015,3.565,5.118,2.847,8.068,2.709c2.896-0.137,5.63-1.105,8.435-1.813c2.116-0.531,6.985-2.027,5.043,2.053
			c-0.957,2.014-3.843,3.609-5.295,5.391c-1.711,2.1-2.188,4.578-1.729,7.38c1.111,6.756,13.132,4.424,17.997,3.86
			c0.722,4.472-7.271,5.67-5.112,10.842c1.768,4.232,9.324,0.338,12.674,0.734c1.076,3.211-2.958,2.939-3.921,5.186
			c-1.086,2.539,1.428,4.252,3.613,4.636c2.181,0.384,13.516-2.17,13.119,0.996c-2.453,0.209-10.155,2.644-5.582,5.72
			c3.212,2.158,7.753,0.387,11.01,2.863c2.75,2.094,0.342,0.998-1.184,2.723c-1.363,1.543-0.667,3.313,0.829,4.545
			c2.72,2.237,7.709,2.797,9.479,6.131c-1.752,0.273-3.943,0.771-5.655,0.795c-0.217,0-0.528,1.785-0.54,2.015
			c-0.029,0.565,0.122,1.092,0.448,1.554c0.683,0.963,1.821,1.654,2.741,2.368c0.965,0.754,5.097,2.854,6.121,3.278
			c0.568,0.234,1.112,0.535,1.552,0.974c-2.292,0.431-5.644-0.708-7.554,0.974c-2.938,2.578,0.392,4.572,0.734,7.162
			c2.024,0.477,2.778,2.397,4.334,3.603c-3.108,0.015-5.555-0.607-6.227,2.827c-0.514,2.634,1.844,4.887-0.759,6.479
			c-1.956,1.196-5.457,0.939-7.516,0.13c-0.551-0.219-0.705-0.942-1.239-1.145c-0.85-0.333-1.796-0.119-2.678-0.349
			c-1.313-0.345-2.422-0.93-3.281-1.979c-1.651-2.029-1.926-4.099-4.2-5.771c-3.147-2.312-6.747-4.091-10.009-6.254
			c-11.251-7.47-22.104-16.964-29.218-28.492c-10.894-17.654-19.933-36.498-30.509-54.361c-5.912-9.985-12.576-19.468-22.121-26.341
			c-9.179-6.604-19.886-10.296-30.586-13.644c-5.903-1.85-11.693-4.03-17.563-5.992c-5.294-1.771-10.77-4.102-16.337-4.846
			c-2.758-0.369-5.309-0.95-7.863-1.602c-3.032-0.773-3.676-0.744-4.854-3.795c-1.23-3.194-3.253-5.196-3.714-8.886
			c-0.471-3.735,1.838-4.11,5.161-3.188c3.448,0.955,11.688,8.311,14.938,6.282c2.933-1.835,3.063-11.34,3.2-14.579
			C254.736,194.996,254.411,191.402,254.187,187.793z"/>
		<path fill="#4BB7E8" d="M154.826,316.961c-3.417-2.218-6.688-4.669-10.18-6.486c-3.438-1.793-5.728-4.664-9.772-2.324
			c-3.029,1.754-3.578,5.476-3.639,8.682c-0.028,1.57-0.045,4.998,1.584,6.008c2.144,1.325,3.313-2.186,4.097,1.676
			c0.45,2.226-0.524,4.998,0.217,7.078c1.105,3.1,3.187,1.529,4.252-0.205c1.553-2.537,2.568-0.604,2.316,1.715
			c-0.242,2.181-1.157,4.228-0.779,6.467c0.236,1.408,1.412,3.883,3.153,2.505c1.138-0.901,2.331-5.399,3.714-2.339
			c0.886,1.951-0.658,5.871,0,7.929c0.466,1.453,2.442,3.698,3.426,1.224c0.632-1.599-0.094-2.762,1.563-3.847
			c0.339-0.219,1.359,4.293,1.415,4.628c0.293,1.84,0.529,3.764,1.559,5.373c1.58,2.475,2.31,1.445,3.578-0.43
			c2.171-3.209,2.341,0.031,2.921,2.291c0.523,2.05,1.075,4.037,1.728,6.078c0.375,1.17,1.707,4.229,3.299,3.759
			c1.957-0.58,0.058-4.919,2.09-5.289c1.581-0.286,1.797,2.696,1.884,3.647c0.231,2.447,0.726,4.514,1.169,6.967
			c0.201,1.103,0.965,2.734,1.773,2.718c2.078-0.041,1.982-3.882,2.199-4.765c1.252-5.123,3.159,5.664,3.487,6.838
			c0.201,0.717,1.208,2.524,2.045,2.502c1.632-0.045,1.825-3.094,2.217-4.185c0.286-0.813,1.296-2.226,2.327-1.981
			c1.471,0.346,0.857,2.523,1.011,3.533c0.267,1.713,1.842,7.944,4.321,7.104c2.028-0.691,0.759-4.135,2.219-5.367
			c1.579-1.338,2.606-0.074,3.113,1.346c0.66,1.856,0.535,3.887,1.25,5.737c0.768,1.981,2.586,3.138,3.584,0.767
			c0.728-1.729,1.456-5.063,4.159-4.217c2.347,0.732,2.822,5.057,4.047,6.891c2.167,3.236,3.073,0.106,4.096-1.909
			c1.488-2.943,4.283-1.845,5.086,1.474c0.438,1.816,1.644,4.637,4.474,3.08c2.309-1.27,1.844-4.738,5.868-1.988
			c1.881,1.283,3.506,4.125,6.37,2.805c1.04-0.483,1.507-2.348,2.519-2.926c1.272-0.73,2.438,0.188,3.743,0.502
			c1.367,0.332,2.367,0.808,3.576-0.398c0.466-0.462,1.205-1.419,1.845-1.596c0.669-0.188,1.735,0.15,2.452,0.138
			c1.639-0.024,3.346-0.446,4.465-1.72c2.695-3.068-3.08-3.86-5-4.098c-1.189-0.146-2.575-0.445-3.54-1.203
			c-0.738-0.578-1.124-1.414-1.945-1.924c-2.279-1.416-4.973-2.244-7.457-3.227c-1.335-0.525-2.669-1.064-3.938-1.732
			c-6.963-3.656-13.605-7.883-20.05-12.369c-13.149-9.154-25.45-19.436-38.112-29.226
			C169.538,327.189,162.341,321.842,154.826,316.961z"/>
		
			<linearGradient id="SVGID_3_" gradientUnits="userSpaceOnUse" x1="167.0608" y1="37.5186" x2="457.3323" y2="37.5186" gradientTransform="matrix(1 0 0 -1 -41.6001 348.0098)">
			<stop  offset="0" style="stop-color:#36C976"/>
			<stop  offset="0.0057" style="stop-color:#37C975"/>
			<stop  offset="0.1725" style="stop-color:#55C862"/>
			<stop  offset="0.347" style="stop-color:#6DC652"/>
			<stop  offset="0.5333" style="stop-color:#7EC648"/>
			<stop  offset="0.7372" style="stop-color:#88C541"/>
			<stop  offset="0.9923" style="stop-color:#8BC53F"/>
		</linearGradient>
		<path fill="url(#SVGID_3_)" d="M324.906,406.254c9.962,0.896,20.008,1.085,29.957-0.068c11.753-1.359,23.435-5.761,33.309-12.154
			c13.231-8.568,30.299-21.557,27.189-39.182c-2.994-16.988-13.626-31.822-31.484-38.594c-12.559-4.763-22.728-17.063-31.706-26.291
			c-1.493-1.529-2.992-3.063-4.426-4.66c-6.874-7.67-12.707-15.857-19.376-23.647c-16.218-18.947-35.24-37.788-60.605-42.998
			c-8.893-1.831-17.877-3.425-26.931-4.217c-11.249-0.983-22.523-0.348-33.601,1.883c-12.303,2.486-26.609,9.654-37.245,16.144
			c-8.917,5.446-17.33,11.638-25.093,18.618c-7.444,6.695-14.278,14.171-17.035,23.927c-1.698,6.008-2.552,12.047-2.375,18.297
			c0.319,11.373,5.224,20.471,12.009,29.422c3.539,4.672,7.444,9.069,11.639,13.17c1.212,1.188,2.532,2.395,3.54,3.767
			c1.176,1.604,2.188,3.149,3.673,4.467c3.283,2.905,6.077,6.31,9.301,9.228c6.577,5.945,13.379,11.627,20.723,16.613
			c8.696,5.904,18.891,8.68,28.427,13.244c5.995,2.872,12.496,5.543,19.179,5.784c6.554,0.235,13.287-0.241,19.271-2.204
			c5.657-1.855,10.746,3.641,15.729,6.137c2.884,1.439,6.498,2.85,9.693,3.614c7.005,1.679,13.035,5.113,20.182,6.234
			C307.504,404.145,316.177,405.466,324.906,406.254z"/>
		
			<radialGradient id="SVGID_4_" cx="-39.9207" cy="199.5845" r="2.2219" gradientTransform="matrix(0.9097 0 0 -0.9054 352.6605 433.3957)" gradientUnits="userSpaceOnUse">
			<stop  offset="0" style="stop-color:#4BB7E8"/>
			<stop  offset="0.4336" style="stop-color:#4CB4E5"/>
			<stop  offset="0.7313" style="stop-color:#4FACDC"/>
			<stop  offset="0.988" style="stop-color:#549DCD"/>
			<stop  offset="1" style="stop-color:#549CCC"/>
		</radialGradient>
		<ellipse fill="url(#SVGID_4_)" cx="316.345" cy="252.692" rx="2.021" ry="2.012"/>
		<path fill="#8BC53F" d="M125.621,295.678c0.306-4.24,2.824-15.047,7.776-21.898c20.448-28.302,50.146-45.698,74.572-52.646
			c6.28-1.785,19.762-5.25,26.101-7.083c-8.995-0.269-17.981,0.492-26.839,2.275c-12.303,2.486-26.609,9.654-37.245,16.144
			c-8.917,5.446-17.331,11.638-25.093,18.618c-7.444,6.695-14.279,14.171-17.035,23.927c-1.698,6.008-2.552,12.047-2.375,18.297
			C125.507,294.109,125.554,294.898,125.621,295.678z"/>
		
			<linearGradient id="SVGID_5_" gradientUnits="userSpaceOnUse" x1="360.6184" y1="-65.5098" x2="370.4603" y2="-5.3014" gradientTransform="matrix(1 0 0 -1 -41.6001 348.0098)">
			<stop  offset="0" style="stop-color:#36C976"/>
			<stop  offset="0.0057" style="stop-color:#37C975"/>
			<stop  offset="0.1725" style="stop-color:#55C862"/>
			<stop  offset="0.347" style="stop-color:#6DC652"/>
			<stop  offset="0.5333" style="stop-color:#7EC648"/>
			<stop  offset="0.7372" style="stop-color:#88C541"/>
			<stop  offset="0.9923" style="stop-color:#8BC53F"/>
		</linearGradient>
		<path fill="url(#SVGID_5_)" d="M278.647,389.143c-0.659-1.896-1.228-3.666-2.534-5.246c-1.03-1.248-2.835-2.263-3.044-3.985
			c-0.204-1.677,1.092-3.604,1.746-5.067c0.737-1.646,1.363-3.343,2.159-4.96c1.57-3.194,3.62-6.329,5.87-9.089
			c4.604-5.65,10.551-10.093,17.39-12.699c17.739-6.758,37.268-0.664,53.532,7.313c7.696,3.777,15.813,8.816,19.795,16.699
			c2.082,4.127,2.412,9.007,1.593,13.469c-0.712,3.889-1.438,8.354-3.774,11.654c-0.549,0.773-1.187,1.483-1.934,2.108
			c-6.013,5.023-14.572,7.841-22.12,9.478c-8.765,1.9-17.971,3.399-26.609,0.572c-4.106-1.343-8.675-1.092-12.938-1.771
			c-4.827-0.771-9.574-1.988-14.194-3.573c-4.811-1.646-10.61-4.173-13.921-8.161C277.926,393.789,279.48,391.552,278.647,389.143z"
			/>
		<path fill="#A52507" d="M256.095,273.195c0.255,21.464-18.681,39.086-42.286,39.356c-23.604,0.277-42.946-16.896-43.201-38.358
			c-0.252-21.461,18.682-39.082,42.284-39.359C236.5,234.562,255.841,251.732,256.095,273.195z"/>
		<path fill="#C45B3B" d="M253.788,272.63c0.442,37.179-37.162,37.825-39.993,37.804c-22.528-0.179-40.632-16.244-40.873-36.859
			c-0.243-20.618,17.663-37.541,39.992-37.803C235.248,235.51,253.547,252.013,253.788,272.63z"/>
		
			<radialGradient id="SVGID_6_" cx="-152.8816" cy="155.8438" r="37.2651" gradientTransform="matrix(0.9097 0 0 -0.8108 352.6605 399.455)" gradientUnits="userSpaceOnUse">
			<stop  offset="0" style="stop-color:#F4E59A"/>
			<stop  offset="0.4804" style="stop-color:#F4E498"/>
			<stop  offset="0.6535" style="stop-color:#F4E091"/>
			<stop  offset="0.7768" style="stop-color:#F4D986"/>
			<stop  offset="0.8765" style="stop-color:#F4CF75"/>
			<stop  offset="0.961" style="stop-color:#F4C35F"/>
			<stop  offset="1" style="stop-color:#F4BB52"/>
		</radialGradient>
		<path fill="url(#SVGID_6_)" d="M249.899,272.674c0.203,17.199-15.893,31.332-35.949,31.564
			c-20.056,0.232-36.481-13.521-36.681-30.717c-0.205-17.198,15.892-31.331,35.945-31.565
			C233.272,241.723,249.697,255.477,249.899,272.674z"/>
		<path fill="#009345" d="M281.324,333.4c0.137,11.291-8.914,20.55-20.206,20.681c-11.298,0.132-20.559-8.914-20.69-20.203
			c-0.136-11.29,8.914-20.547,20.208-20.68C271.931,313.066,281.195,322.111,281.324,333.4z"/>
		
			<radialGradient id="SVGID_7_" cx="-100.8938" cy="110.6699" r="19.916" gradientTransform="matrix(0.9097 0 0 -0.9054 352.6605 433.3957)" gradientUnits="userSpaceOnUse">
			<stop  offset="0" style="stop-color:#4BB7E8"/>
			<stop  offset="0.4336" style="stop-color:#4CB4E5"/>
			<stop  offset="0.7313" style="stop-color:#4FACDC"/>
			<stop  offset="0.988" style="stop-color:#549DCD"/>
			<stop  offset="1" style="stop-color:#549CCC"/>
		</radialGradient>
		<path fill="url(#SVGID_7_)" d="M278.953,333.427c0.114,9.981-7.879,18.165-17.864,18.282c-9.981,0.115-18.173-7.88-18.288-17.859
			c-0.117-9.977,7.878-18.162,17.864-18.279C270.647,315.453,278.836,323.449,278.953,333.427z"/>
		<path fill="#009345" d="M237.971,337.666c0.051,4.615-3.663,8.402-8.303,8.455c-4.639,0.055-8.443-3.645-8.496-8.262
			c-0.056-4.617,3.66-8.404,8.3-8.455C234.111,329.348,237.917,333.046,237.971,337.666z"/>
		
			<radialGradient id="SVGID_8_" cx="-135.3074" cy="105.6255" r="7.9856" gradientTransform="matrix(0.9097 0 0 -0.9054 352.6605 433.3957)" gradientUnits="userSpaceOnUse">
			<stop  offset="0" style="stop-color:#4BB7E8"/>
			<stop  offset="0.4336" style="stop-color:#4CB4E5"/>
			<stop  offset="0.7313" style="stop-color:#4FACDC"/>
			<stop  offset="0.988" style="stop-color:#549DCD"/>
			<stop  offset="1" style="stop-color:#549CCC"/>
		</radialGradient>
		<path fill="url(#SVGID_8_)" d="M236.835,337.677c0.047,3.993-3.165,7.271-7.181,7.315c-4.012,0.048-7.299-3.152-7.348-7.146
			c-0.047-3.992,3.169-7.267,7.178-7.313C233.498,330.484,236.788,333.686,236.835,337.677z"/>
		<path fill="#231F20" d="M242.718,270.532c0.141,11.977-8.081,21.782-18.373,21.903c-10.288,0.121-18.742-9.494-18.883-21.47
			c-0.144-11.981,8.081-21.786,18.373-21.906C234.123,248.939,242.577,258.551,242.718,270.532z"/>
		<path fill="#83688E" d="M171.842,349.223c-5.403-5.601-36.669-34.347-29.836-30.943c7.165,3.566,22.535,17.928,25.518,20.267
			c3.493,2.747,6.854,5.539,10.581,8.006c17.452,11.54,35.813,23.486,57.214,25.487c10.771,1.01,26.222,2.082,36.147-3.021
			c0.306-0.156,0.192,8.109-0.979,9.453c-1.748,2.002-6.143,2.774-8.643,3.209C231.119,387.003,192.858,371.002,171.842,349.223z"/>
		<path fill="#A68BAF" d="M171.394,350.114c-5.402-5.601-36.667-34.347-29.836-30.943c7.164,3.565,22.538,17.927,25.52,20.267
			c3.493,2.748,6.853,5.541,10.58,8.004c17.454,11.541,35.809,23.488,57.212,25.492c10.771,1.004,26.225,2.078,36.15-3.023
			c0.307-0.159,0.189,8.109-0.98,9.449c-1.748,2.004-6.143,2.777-8.643,3.209C230.67,387.896,192.408,371.893,171.394,350.114z"/>
		<path fill="#A68BAF" d="M171.394,350.114c-5.402-5.601-36.667-34.347-29.836-30.943c7.164,3.565,22.538,17.927,25.52,20.267
			c3.493,2.748,6.853,5.541,10.58,8.004c17.454,11.541,35.809,23.488,57.212,25.492c10.771,1.004,26.225,2.078,36.15-3.023
			c0.307-0.159,0.189,8.109-0.98,9.449c-1.748,2.004-6.143,2.777-8.643,3.209C230.67,387.896,192.408,371.893,171.394,350.114z"/>
		<path fill="#009345" d="M235.67,399.996c1.223,0.268,2.513,0.273,3.758,0.273c0.578,0.002,1.16-0.009,1.738-0.02
			c0.491-0.014,0.69-0.031,1.168,0.004c-0.574,0.395-0.935,0.639-1.526,0.973c-0.788,0.442-1.67,0.803-2.474,1.192
			c-0.818,0.396-1.787,0.685-2.54,1.163c-0.389,0.244-0.716,0.475-1.171,0.646c-0.899,0.332-4.272,1.209-2.972,2.75
			c0.559,0.662,1.573,0.898,2.385,1.098c3.039,0.738,6.706-0.62,9.528-1.674c1.888-0.701,3.762-1.439,5.68-2.066
			c0.945-0.307,4.222-0.676,4.222-0.676s-3.074,3.369-5.189,5.383c-0.98,0.928-2.232,1.631-3.128,2.627
			c-1.248,1.387-0.088,2.096,1.323,2.341c1.568,0.271,3.137,0.056,4.594-0.569c2.61-1.119,4.576-3.26,6.717-5.053
			c1.072-0.902,2.175-1.824,3.421-2.488c0.59-0.313,1.239-0.621,1.879-0.818c0.323-0.098,0.764-0.21,1.094-0.07
			c0.229,0.096,0.482,0.452,0.369,0.723c-0.185,0.436-0.522,0.826-0.765,1.229c-0.377,0.636-0.698,1.308-0.915,2.017
			c-0.405,1.322-0.601,5.265,1.878,4.517c1.341-0.404,2.394-1.86,3.109-2.974c0.545-0.836,1.058-1.692,1.599-2.533
			c0.944-1.469,1.995-2.942,3.397-4.021c0.345-0.266,3.483-2.833,4.267-3.478c2.813-2.306,4.74-1.603,8.303-1.731
			c4.997-0.179,5.003-7.129,6.683-10.628c2.948-6.144,4.061-10.67,3.648-16.032c-0.479-6.24-4.506-15.105-12.619-13.591
			c-8.294,1.554-14.86,6.995-15.19,15.218c-0.505,12.524,8.249,13.908,4.848,17.226c-1.899,1.851-6.813,0.772-9.241,0.873
			c-5.578,0.22-11.035,1.46-16.489,2.555c-2.479,0.495-4.898,1.035-7.41,1.009c-2.443-0.024-4.923-0.142-7.341,0.295
			c-0.747,0.133-1.368,0.414-1.524,1.234c-0.193,1.018,0.771,1.654,1.567,2.053C233.402,399.491,234.524,399.746,235.67,399.996z"/>
		<path opacity="0.4" fill="#009345" enable-background="new    " d="M250.571,404.073c0.541-0.104,1.084-0.187,1.627-0.257
			c0.23-0.03,0.46-0.088,0.695-0.096c0.207-0.01,0.439,0.037,0.645-0.014c0.361-0.09,0.624-0.398,0.894-0.63
			c0.277-0.231,0.531-0.479,0.821-0.699c0.257-0.192,0.629-0.364,0.57-0.724c-0.5-0.059-0.9,0.105-1.375,0.25
			c-0.617,0.191-1.244,0.402-1.84,0.642c-0.59,0.233-1.171,0.485-1.754,0.735c-0.214,0.095-1.273,0.445-1.268,0.754
			C249.59,404.316,250.419,404.104,250.571,404.073z"/>
		<path opacity="0.2" fill="#D6DE23" enable-background="new    " d="M271.177,383.164c-0.896-2.788-1.471-5.339-1.354-8.313
			c0.335-8.222,6.896-13.662,15.194-15.213c1.939-0.365,3.648-0.128,5.127,0.521c-1.856-1.442-4.188-2.18-7.016-1.652
			c-8.294,1.555-14.86,6.995-15.19,15.217c-0.266,6.541,1.997,10.041,3.733,12.365C271.688,385.082,271.45,384.02,271.177,383.164z"
			/>
		<path opacity="0.4" fill="#009345" enable-background="new    " d="M295.748,372.1c-0.254-3.316-1.51-7.377-3.853-10.223
			c1.38,2.516,2.147,5.451,2.343,7.966c0.411,5.365-0.699,9.894-3.649,16.032c-1.685,3.502-1.687,10.452-6.684,10.631
			c-4.48,0.16-7.918,0.223-10.936,4.15c-1.007,1.31-1.601,2.922-2.536,4.29c-1.409,2.065-2.643,4.079-3.244,6.538l-0.002,0.004
			c0.245-0.326,0.468-0.659,0.664-0.965c0.545-0.838,1.058-1.693,1.598-2.534c0.945-1.47,1.996-2.942,3.398-4.021
			c0.345-0.267,3.483-2.834,4.267-3.479c2.813-2.307,4.74-1.604,8.303-1.73c4.997-0.18,5.003-7.13,6.683-10.629
			C295.048,381.989,296.159,377.462,295.748,372.1z"/>
		<path fill="#8BC53F" d="M426.014,354.398c2.941,5.963,4.489,12.582,3.935,19.961c-3.703,49.025-61.294,66.435-102.673,61.795
			c-17.999-2.021-38.236-3.781-53.437-14.476c22.762,8.528,58.979,2.593,81.862-3.718c21.676-5.979,42.246-29.615,32.777-53.537
			c-4.381-11.072-18.617-16.355-15.685-30.31c3.901-18.546,16.492-17.192,27.031-9.13
			C408.247,331.436,421.508,345.256,426.014,354.398z"/>
		<path opacity="0.26" fill="#4BB7E8" enable-background="new    " d="M428.988,363.544c-4.506-9.142-3.489,6.369-4.652,12.735
			c-8.434,46.15-61.5,61.04-102.875,56.4c-15.617-1.751-32.914-3.315-47.144-10.677c15.143,10.4,35.146,12.152,52.958,14.15
			c41.379,4.64,98.97-12.77,102.673-61.794C430.503,366.98,431.928,369.507,428.988,363.544z"/>
		<ellipse opacity="0.8" fill="#F1F1F2" enable-background="new    " cx="209.33" cy="258.545" rx="7.894" ry="7.585"/>
		<ellipse opacity="0.8" fill="#F1F1F2" enable-background="new    " cx="235.549" cy="273.493" rx="3.629" ry="3.61"/>
		<path fill="#72F782" d="M248.659,284.23c-1.315,8.373-16.455,20.549-36.694,20.549c-20.238,0-32.681-14.146-34.261-22.781
			c-0.726-3.977,6.313,3.628,34.438,5.458C242.895,289.459,249.316,280.042,248.659,284.23z"/>
		<path fill="#009345" d="M248.257,285.723c-1.337,8.902-15.138,21.48-35.718,21.48c-20.577,0-33.224-15.361-34.824-24.541
			c-0.74-4.227,6.411,4.175,35.002,6.12C243.988,290.911,248.926,281.266,248.257,285.723z"/>
		<path fill="#37B34A" d="M247.612,285.725c-1.313,8.373-15.407,19.946-35.646,19.946c-20.238,0-32.676-14.444-34.25-23.077
			c-0.728-3.976,6.304,3.924,34.427,5.754C242.895,290.35,248.269,281.533,247.612,285.725z"/>
		<path fill="#009345" d="M250.364,236.675c-0.488-2.07-1.16-4.271-2.273-6.118c-1.422-2.354-3.473-4.037-4.941-5.037
			c-2.761-1.876-5.313-3.049-7.796-3.585c-2.002-0.435-3.704-0.645-5.207-0.645c-1.354,0-2.563,0.174-3.596,0.521
			c-1.459,0.492-2.856,1.97-3.175,3.366c-0.251,1.109-0.093,2.072,0.474,2.854c1.334,1.845,4.635,2.186,7.045,2.428
			c0.642,0.067,1.248,0.13,1.696,0.208c4.021,0.716,7.729,2.994,11.005,5.003c1.539,0.942,5.151,4.238,5.615,4.854
			c0.476,0.604,0.771,0.722,1.035,0.722c0,0,0.01,0,0.014,0C250.63,241.243,250.634,237.822,250.364,236.675z"/>
		<path fill="#009345" d="M246.617,230.011c1.02,1.688,1.658,3.489,2.305,5.359c0.438,1.272,0.63,3.059,0.429,4.314
			c-0.061-0.344-4.646-4.461-6.3-5.476c-3.489-2.143-7.165-4.367-11.242-5.089c-2.703-0.48-9.684-0.229-8.672-4.686
			c0.273-1.207,1.559-2.486,2.732-2.881c2.59-0.871,5.872-0.415,8.444,0.141c2.702,0.585,5.256,1.921,7.559,3.484
			C243.715,226.434,245.458,228.095,246.617,230.011z"/>
		<path opacity="0.4" fill="#009345" enable-background="new    " d="M223.608,226.141c0.279-1.205,1.562-2.486,2.737-2.879
			c2.591-0.873,5.868-0.417,8.442,0.139c2.701,0.586,5.256,1.921,7.559,3.485c1.844,1.255,3.589,2.913,4.745,4.831
			c0.88,1.453,1.473,2.992,2.036,4.59c-0.044-0.328-0.105-0.645-0.206-0.937c-0.646-1.87-1.285-3.671-2.305-5.359
			c-1.159-1.916-2.902-3.577-4.745-4.832c-2.303-1.563-4.855-2.899-7.559-3.484c-2.572-0.556-5.854-1.012-8.444-0.141
			c-1.175,0.395-2.459,1.674-2.732,2.881c-0.227,0.995-0.049,1.757,0.385,2.344C223.535,226.575,223.56,226.366,223.608,226.141z"/>
		
			<radialGradient id="SVGID_9_" cx="-75.2957" cy="202.4766" r="13.96" gradientTransform="matrix(0.9097 0 0 -0.9054 352.6605 433.3957)" gradientUnits="userSpaceOnUse">
			<stop  offset="0" style="stop-color:#D6DE23"/>
			<stop  offset="0.9923" style="stop-color:#8BC53F"/>
		</radialGradient>
		<ellipse fill="url(#SVGID_9_)" cx="284.164" cy="250.074" rx="12.699" ry="12.639"/>
		
			<radialGradient id="SVGID_10_" cx="-75.9343" cy="170.5049" r="8.4431" gradientTransform="matrix(0.9097 0 0 -0.9054 352.6605 433.3957)" gradientUnits="userSpaceOnUse">
			<stop  offset="0" style="stop-color:#D6DE23"/>
			<stop  offset="0.9923" style="stop-color:#8BC53F"/>
		</radialGradient>
		<ellipse fill="url(#SVGID_10_)" cx="283.583" cy="279.021" rx="7.682" ry="7.643"/>
		
			<radialGradient id="SVGID_11_" cx="-88.0818" cy="144.9316" r="6.5271" gradientTransform="matrix(0.9097 0 0 -0.9054 352.6605 433.3957)" gradientUnits="userSpaceOnUse">
			<stop  offset="0" style="stop-color:#D6DE23"/>
			<stop  offset="0.9923" style="stop-color:#8BC53F"/>
		</radialGradient>
		<path fill="url(#SVGID_11_)" d="M278.47,302.176c0,3.262-2.66,5.909-5.937,5.909c-3.28,0-5.939-2.647-5.939-5.909
			c0-3.266,2.659-5.91,5.939-5.91C275.81,296.266,278.47,298.91,278.47,302.176z"/>
		
			<radialGradient id="SVGID_12_" cx="-97.0334" cy="223.5742" r="8.2056" gradientTransform="matrix(0.9097 0 0 -0.9054 352.6605 433.3957)" gradientUnits="userSpaceOnUse">
			<stop  offset="0" style="stop-color:#D6DE23"/>
			<stop  offset="0.9923" style="stop-color:#8BC53F"/>
		</radialGradient>
		<ellipse fill="url(#SVGID_12_)" cx="264.389" cy="230.972" rx="7.466" ry="7.428"/>
		<path fill="#8BC53F" d="M143.629,279.99c0,2.83-1.799,5.128-4.021,5.128c-2.216,0-4.015-2.298-4.015-5.128
			c0-2.829,1.799-5.124,4.015-5.124C141.83,274.866,143.629,277.161,143.629,279.99z"/>
		<ellipse fill="#03632C" cx="138.677" cy="279.908" rx="2.263" ry="3.752"/>
		<path opacity="0.48" fill="#03632C" enable-background="new    " d="M139.986,276.852c0.174,0.531,0.272,1.14,0.272,1.787
			c0,2.073-1.013,3.752-2.263,3.752c-0.486,0-0.939-0.26-1.309-0.697c0.381,1.173,1.129,1.968,1.988,1.968
			c1.25,0,2.263-1.681,2.263-3.752C140.939,278.646,140.563,277.532,139.986,276.852z"/>
		<path opacity="0.22" fill="#009345" enable-background="new    " d="M390.019,378.018c-9.306-22-42.456-30.684-69.396-36.939
			c-7.79-1.813-15.796-2.803-23.18-6.081c-3.388-1.504-4.508-4.229-7.124-6.56c0.282,0.256-2.745,12.388-2.952,13.218
			c-2.234,9.016-14.776,20.423-15.151,26.811c-0.188,3.177,1.144,4.827,1.984,6.89c1.304,3.189,0.271,7.684,0.662,11.057
			c0.383,3.281,2.614,2.85,3.018,6.104c0.251,2.039,3.031,4.668,4.516,6.065c11.732,10.998,18.082-18.082,16.416-30.427
			c-0.924-6.826-7.26-16.301-8.162-16.086c22.938-5.485,43.571-0.426,64.322,9.674c7.285,3.544,12.753,7.254,15.782,15.053
			c1.729,4.461,2.574,10.273,1.442,14.982c-1.004,4.183-4.553,6.066-7.021,9.279c7.464,1.127,14.343-1.627,20.368-5.727
			C391.067,391.575,392.521,383.922,390.019,378.018z"/>
		<path opacity="0.22" fill="#009345" enable-background="new    " d="M379.192,380.354c-0.445-2.595-1.063-0.422-2.021-2.117
			c-3.36-5.928,2.576-7.159-3.022-10.899c-11.968-7.991-37.058-18.257-51.346-19.54c-7.128-0.639-19.02-1.133-26.05,0.378
			c-6.939,1.49-10.994,3.468-16.608,7.89c-3.978,3.131-11.756,12.799-9.06,18.789c1.437,3.203,1.076-0.926,2.48-3.008
			c1.507-2.229,3.289-4.226,4.351-6.729c2.61-6.166,7.374-11.402,13.956-13.306c10.145-2.938,21.923-2.518,32.21-0.656
			c10.785,1.951,21.066,5.81,30.89,10.588c7.285,3.544,12.753,7.254,15.782,15.053c1.183,3.045,2.129,6.896,1.852,10.182
			c-0.187,2.285-1.205,4.185-2.015,6.277c-0.484,1.243-1.03,2.393,0.61,2.563C378.533,396.564,380.063,385.432,379.192,380.354z"/>
		<path opacity="0.22" fill="#009345" enable-background="new    " d="M338.465,274.24c-2.315-2.954-4.655-5.764-7.072-8.588
			c-2.923-3.416-6.211-6.487-9.33-9.796c0.397,7.447,1.707,16.697-1.163,22.955c-3.696,8.072-11.405,13.451-16.766,20.361
			c-5.213,6.729-8.744,12.43-10.847,20.637c-0.979,3.816-2.137,8.039-2.13,11.973c0.009,3.218,0.171,8.009,2.971,10.375
			c-0.76-10.367,2.989-21.122,10.772-28.631c4.295-4.142,8.576-6.146,13.348-9.703c5.37-4.014,10.087-7.568,13.884-11.146
			C336.907,288.175,338.959,280.432,338.465,274.24z"/>
		<path fill="#CE8F51" d="M337.688,273.182c-2.318-2.951-5.006-6.465-7.424-9.289c-2.926-3.418-6.215-6.229-9.334-9.54
			c0.396,7.447,1.705,16.698-1.163,22.959c-3.694,8.068-11.406,13.447-16.766,20.359c-5.216,6.727-8.746,12.428-10.849,20.635
			c-0.978,3.816-2.133,8.035-2.127,11.971c0.011,3.22,0.167,8.007,2.971,10.378c-0.764-10.371,2.988-21.122,10.772-28.632
			c4.292-4.144,8.575-6.146,13.345-9.705c5.374-4.014,10.188-7.465,13.883-11.144C335.061,287.129,337.242,279.657,337.688,273.182z
			"/>
		<path fill="#C45B3B" d="M335.261,269.979c-2.316-2.953-4.647-5.879-7.063-8.705c-2.926-3.418-5.938-6.817-9.059-10.126
			c0.396,7.447,1.708,16.699-1.163,22.958c-3.696,8.066-11.406,13.445-16.766,20.356c-5.213,6.728-8.748,12.431-10.85,20.636
			c-0.978,3.818-2.135,8.041-2.127,11.975c0.01,3.218,0.167,8.008,2.972,10.376c-0.763-10.37,2.986-21.122,10.773-28.632
			c4.292-4.144,8.575-6.146,13.342-9.705c5.377-4.014,10.188-7.465,13.885-11.146C333.269,283.921,334.819,276.454,335.261,269.979z
			"/>
		<path opacity="0.22" fill="#009345" enable-background="new    " d="M360.886,305.757c0.749-0.723,1.981-1.473,2.795-2.348
			c-3.089-3.257-6.395-6.747-9.398-9.822c-1.263,1.509-7.333,10.063-14.896,16.431c-10.352,8.719-20.483,19.129-16.521,34.229
			c0.63,2.386,1.42,4.915,2.225,7.261c-0.729-2.133,1.047-5.516,1.316-7.728c2.242-18.45,22.194-25.973,33.987-37.545
			C360.552,306.079,360.719,305.92,360.886,305.757z"/>
		<path fill="#C45B3B" d="M359.756,303.127c0.746-0.723,1.977-1.475,2.789-2.347c-3.088-3.257-6.393-6.748-9.396-9.823
			c-1.265,1.51-7.331,10.064-14.894,16.432c-10.352,8.717-20.482,19.125-16.521,34.228c0.624,2.385,1.419,4.913,2.221,7.259
			c-0.728-2.131,1.049-5.516,1.316-7.725c2.244-18.451,22.196-25.975,33.987-37.549C359.423,303.45,359.581,303.289,359.756,303.127
			z"/>
		<path opacity="0.22" fill="#009345" enable-background="new    " d="M393.332,320.91c-3.579-2.039-7.996-5.018-11.767-5.857
			c-0.688-0.152-1.537,1.188-2.198,0.979c-3.725,4.701-10.161,6.341-15.342,8.928c-3.296,1.645-6.206,4.641-8.287,7.645
			c-2.497,3.613-4.258,7.688-5.326,11.936c-0.91,3.629-1.821,9.626,0.939,12.691c0.439-3.731,1.263-7.062,2.684-10.158
			c1.167-2.551,2.739-4.938,4.828-7.266c4.844-5.383,11.624-7.902,18.207-10.479c3.02-1.185,6.038-2.345,9.059-3.988
			C389.315,323.6,392.565,321.248,393.332,320.91z"/>
		<path fill="#C45B3B" d="M390.854,319.631c-3.322-2.113-6.94-4.594-10.712-5.431c-0.691-0.158-1.363-0.345-2.029-0.552
			c-3.722,4.703-10.159,6.34-15.338,8.926c-3.3,1.646-6.208,4.638-8.287,7.646c-2.496,3.61-4.261,7.684-5.327,11.932
			c-0.909,3.63-1.822,9.628,0.938,12.693c0.439-3.731,1.267-7.062,2.683-10.16c1.171-2.549,2.742-4.938,4.833-7.262
			c4.841-5.384,11.62-7.906,18.204-10.482c3.021-1.182,6.042-2.344,9.061-3.99C388.066,321.218,390.55,319.434,390.854,319.631z"/>
		<path opacity="0.53" fill="#C45B3B" enable-background="new    " d="M256.27,218.233c11.372,2.336,22.794,6.663,32.105,13.477
			c12.175,8.91,22.866,19.893,32.569,31.263c6.585,7.707,12.272,16.352,19.194,23.734c14.897,15.882,28.322,27.771,48.273,37.05
			c33.281,15.476,53.511,41.683,10.471,82.783c28.523-19.774,32.979-37.771,27.993-52.228c-2.052-5.942-5.719-10.774-10.188-15.522
			c-12.486-13.274-30.926-22.17-35.463-24.163c-11.568-5.075-19.131-14.781-27.313-23.613c-1.456-1.564-4.601-3.955-6.028-5.55
			c-6.876-7.67-12.709-15.858-19.38-23.649c-16.216-18.945-35.239-37.789-60.604-43.001c-8.893-1.825-17.874-3.422-26.929-4.214
			c-3.429-0.298-6.858-0.447-10.284-0.447C239.282,214.979,247.817,216.498,256.27,218.233z"/>
		<path opacity="0.22" fill="#009345" enable-background="new    " d="M402.153,325.938c-3.271,4.057-10.315,8.352-11.986,9.508
			c-4.825,3.33-9.721,6.92-12.992,11.871c-3.177,4.813-5.912,10.488-10.447,14.416c5.802,1.104,10.033-1.738,12.604-5.633
			c4.3-6.522,9.995-10.924,17.042-14.166c2.303-1.059,12.653-3.151,17.163-6.317c-0.371-0.427-0.699-0.785-1.159-1.247
			C409.236,331.202,404.415,327.148,402.153,325.938z"/>
		<path fill="#C45B3B" d="M401.021,325.186c-3.271,4.053-10.314,8.354-11.987,9.506c-4.827,3.334-9.72,6.918-12.993,11.875
			c-3.18,4.811-4.261,10.703-8.796,14.627c4.545-0.422,8.383-1.951,10.952-5.85c4.3-6.517,9.996-10.922,17.044-14.162
			c2.301-1.059,12.569-3.705,17.08-6.873C409.429,330.991,403.615,326.576,401.021,325.186z"/>
		<path opacity="0.22" fill="#009345" enable-background="new    " d="M425.989,356.128c-0.396-3.174-2.455-6.733-4.86-10.271
			c-4.278,0.426-8.874,3.008-12.77,6.007c-1.707,1.313-3.226,2.696-4.417,3.983c-3.119,3.377-3.562,7.815-5.503,11.781
			c-1.688,3.448-6.396,5.87-7.079,9.76c2.334-0.969,4.805-2.078,6.826-3.547c6.14-4.453,8.975-11.919,15.996-15.685
			C418.278,355.963,425.989,356.134,425.989,356.128z"/>
		<path fill="#C45B3B" d="M426.339,354.156c-0.397-3.176-2.806-6.641-5.211-10.178c-4.278,0.426-8.874,3.008-12.77,6.006
			c-1.707,1.314-3.226,2.697-4.417,3.986c-3.119,3.373-3.562,7.813-5.503,11.779c-1.688,3.447-5.595,6.43-6.577,10.041
			c2.337-0.967,4.303-2.361,6.324-3.828c6.14-4.455,8.975-11.921,15.996-15.682C418.278,354.084,426.339,354.161,426.339,354.156z"
			/>
		
			<radialGradient id="SVGID_13_" cx="-189.7219" cy="137.978" r="4.6567" gradientTransform="matrix(0.9097 0 0 -0.9054 352.6605 433.3957)" gradientUnits="userSpaceOnUse">
			<stop  offset="0" style="stop-color:#4BB7E8"/>
			<stop  offset="0.4336" style="stop-color:#4CB4E5"/>
			<stop  offset="0.7313" style="stop-color:#4FACDC"/>
			<stop  offset="0.988" style="stop-color:#549DCD"/>
			<stop  offset="1" style="stop-color:#549CCC"/>
		</radialGradient>
		<ellipse fill="url(#SVGID_13_)" cx="180.07" cy="308.471" rx="4.236" ry="4.217"/>
		
			<radialGradient id="SVGID_14_" cx="-96.9011" cy="171.4565" r="4.6565" gradientTransform="matrix(0.9097 0 0 -0.9054 352.6605 433.3957)" gradientUnits="userSpaceOnUse">
			<stop  offset="0" style="stop-color:#4BB7E8"/>
			<stop  offset="0.4336" style="stop-color:#4CB4E5"/>
			<stop  offset="0.7313" style="stop-color:#4FACDC"/>
			<stop  offset="0.988" style="stop-color:#549DCD"/>
			<stop  offset="1" style="stop-color:#549CCC"/>
		</radialGradient>
		<ellipse fill="url(#SVGID_14_)" cx="264.509" cy="278.159" rx="4.236" ry="4.216"/>
		
			<radialGradient id="SVGID_15_" cx="-102.3157" cy="153.7324" r="4.6572" gradientTransform="matrix(0.9097 0 0 -0.9054 352.6605 433.3957)" gradientUnits="userSpaceOnUse">
			<stop  offset="0" style="stop-color:#4BB7E8"/>
			<stop  offset="0.4336" style="stop-color:#4CB4E5"/>
			<stop  offset="0.7313" style="stop-color:#4FACDC"/>
			<stop  offset="0.988" style="stop-color:#549DCD"/>
			<stop  offset="1" style="stop-color:#549CCC"/>
		</radialGradient>
		<path fill="url(#SVGID_15_)" d="M263.82,294.208c0,2.327-1.895,4.216-4.235,4.216s-4.236-1.889-4.236-4.216
			c0-2.332,1.896-4.219,4.236-4.219C261.926,289.989,263.82,291.876,263.82,294.208z"/>
		
			<radialGradient id="SVGID_16_" cx="-114.6921" cy="139.1104" r="4.6577" gradientTransform="matrix(0.9097 0 0 -0.9054 352.6605 433.3957)" gradientUnits="userSpaceOnUse">
			<stop  offset="0" style="stop-color:#4BB7E8"/>
			<stop  offset="0.4336" style="stop-color:#4CB4E5"/>
			<stop  offset="0.7313" style="stop-color:#4FACDC"/>
			<stop  offset="0.988" style="stop-color:#549DCD"/>
			<stop  offset="1" style="stop-color:#549CCC"/>
		</radialGradient>
		<ellipse fill="url(#SVGID_16_)" cx="248.325" cy="307.446" rx="4.236" ry="4.217"/>
		
			<radialGradient id="SVGID_17_" cx="-132.3083" cy="129.3027" r="4.6577" gradientTransform="matrix(0.9097 0 0 -0.9054 352.6605 433.3957)" gradientUnits="userSpaceOnUse">
			<stop  offset="0" style="stop-color:#4BB7E8"/>
			<stop  offset="0.4336" style="stop-color:#4CB4E5"/>
			<stop  offset="0.7313" style="stop-color:#4FACDC"/>
			<stop  offset="0.988" style="stop-color:#549DCD"/>
			<stop  offset="1" style="stop-color:#549CCC"/>
		</radialGradient>
		<ellipse fill="url(#SVGID_17_)" cx="232.299" cy="316.325" rx="4.236" ry="4.218"/>
		
			<radialGradient id="SVGID_18_" cx="-172.719" cy="129.4204" r="4.6584" gradientTransform="matrix(0.9097 0 0 -0.9054 352.6605 433.3957)" gradientUnits="userSpaceOnUse">
			<stop  offset="0" style="stop-color:#4BB7E8"/>
			<stop  offset="0.4336" style="stop-color:#4CB4E5"/>
			<stop  offset="0.7313" style="stop-color:#4FACDC"/>
			<stop  offset="0.988" style="stop-color:#549DCD"/>
			<stop  offset="1" style="stop-color:#549CCC"/>
		</radialGradient>
		<path fill="url(#SVGID_18_)" d="M199.775,316.215c0,2.331-1.896,4.223-4.232,4.223c-2.345,0-4.241-1.892-4.241-4.223
			c0-2.326,1.896-4.215,4.241-4.215C197.878,312,199.775,313.889,199.775,316.215z"/>
		
			<radialGradient id="SVGID_19_" cx="-152.7981" cy="125.6699" r="4.6565" gradientTransform="matrix(0.9097 0 0 -0.9054 352.6605 433.3957)" gradientUnits="userSpaceOnUse">
			<stop  offset="0" style="stop-color:#4BB7E8"/>
			<stop  offset="0.4336" style="stop-color:#4CB4E5"/>
			<stop  offset="0.7313" style="stop-color:#4FACDC"/>
			<stop  offset="0.988" style="stop-color:#549DCD"/>
			<stop  offset="1" style="stop-color:#549CCC"/>
		</radialGradient>
		<ellipse fill="url(#SVGID_19_)" cx="213.66" cy="319.615" rx="4.235" ry="4.216"/>
		<path fill="#009345" d="M347.379,364.773c-2.86,0.75-5.557,1.89-7.933,3.457c-12.799,8.442-8.79,21.24-1.222,31.945
			c-3.651,0.227-7.504-1.217-11.334-1.229c-7.125-0.033-12.471,0.695-19.075,3.218c-2.05,0.78-4.111,1.206-5.979,2.312
			c-1.625,0.959-3.189,1.983-4.664,3.164c-0.813,0.649-3.67,3.151-2.636,4.402c0.963,1.175,2.972-0.129,3.86-0.695
			c1.037-0.662,2.228-1.672,3.544-1.6c-0.326,0.586-1.039,1.139-1.489,1.629c-1.006,1.096-3.692,3.086-2.006,4.778
			c1.076,1.079,3.256,0.256,4.391-0.31c2.815-1.402,5.395-3.301,8.138-4.841c1.395-0.78,3.232-1.411,4.849-1.375
			c-0.022,1.009-1.962,1.873-2.691,2.443c-0.666,0.519-1.346,1.099-1.777,1.827c-0.399,0.674-0.67,1.418-1.04,2.102
			c-0.335,0.613-0.526,1.438,0.042,1.997c0.632,0.623,1.923,0.354,2.674,0.127c1.91-0.555,3.366-1.733,5.082-2.657
			c3.472-1.871,7.171-2.811,10.907-3.962c3.31-1.016,6.645-0.964,10.072-0.972c3.369-0.005,6.739,0.12,10.095,0.428
			c1.598,0.145,3.194,0.344,4.772,0.629c12.796,2.317-0.497-5.813,0.809-15.363c-0.496,3.854,5.717,7.272,8.836,8.09
			c6.044,1.59,14.079-1.2,18.087-5.936c1.46-1.727,3.149-4.512,3.894-6.738c0.846-2.519,0.839-4.5,0.756-6.931
			c-0.3-8.487-9.237-15.715-16.452-18.569C363.178,363.495,354.744,362.839,347.379,364.773z"/>
		<g opacity="0.3">
			<path fill="#009345" d="M382.179,397.048c-4.007,4.733-12.046,7.524-18.089,5.935c-3.12-0.816-9.077-4.422-9.327-6.379
				c0.031,3.99,6.504,7.104,8.84,7.715c6.044,1.591,14.079-1.199,18.087-5.935c0.265-0.312,0.521-0.669,0.772-1.058
				C383.579,395.577,383.641,395.322,382.179,397.048z"/>
			<path fill="#009345" d="M354.447,410.256c-1.58-0.285-3.176-0.482-4.771-0.63c-3.355-0.308-6.729-0.431-10.099-0.428
				c-3.425,0.01-6.76-0.044-10.067,0.973c-3.738,1.149-7.44,2.091-10.908,3.959c-1.979,1.068-4.337,3.204-6.736,2.779
				c-0.603-0.104-1.224-0.089-1.852-0.027c-0.052,0.399,0.02,0.802,0.343,1.118c0.632,0.623,1.923,0.354,2.674,0.127
				c1.91-0.555,3.366-1.732,5.082-2.658c3.472-1.869,7.171-2.81,10.907-3.961c3.31-1.016,6.645-0.964,10.072-0.972
				c3.369-0.005,6.739,0.12,10.095,0.428c1.598,0.146,3.194,0.343,4.772,0.63c4.688,0.848,5.87,0.295,5.558-1.22
				C358.783,410.77,357.235,410.761,354.447,410.256z"/>
		</g>
		<path opacity="0.3" fill="#009345" enable-background="new    " d="M321.562,406.818c-0.379-0.014-0.694-0.182-1.09-0.139
			c-0.418,0.047-0.843,0.217-1.247,0.34c-0.825,0.246-1.672,0.467-2.479,0.771c-1.329,0.501-2.604,1.126-3.933,1.629
			c-2.662,1.011-5.118,2.192-7.366,3.914c-1.089,0.837-2.158,1.688-3.117,2.692c0.871-0.912,2.617-1.32,3.708-1.989
			c1.647-1.009,3.254-2.085,4.938-3.031c0.946-0.528,1.977-0.942,3.037-1.181c0.323-0.074,1.176-0.336,1.49-0.19
			c0.354,0.166,0.293,0.808-0.007,1.04c0.184-0.311,1.106-0.814,1.474-1.049c0.526-0.337,1.126-0.658,1.681-0.971
			C319.132,408.385,321.821,407.473,321.562,406.818z"/>
		<path opacity="0.3" fill="#009345" enable-background="new    " d="M312.565,403.63c0.018,0.011,0.036,0.028,0.051,0.043
			c-0.222,0.244-0.867,0.4-1.202,0.571c-2.198,1.105-4.564,2.015-6.663,3.357c-0.6,0.383-1.171,0.813-1.711,1.271
			c-0.109,0.091-0.957,0.91-1.042,0.868c0,0-0.43-0.201-1.79,0.479c-0.24,0.116-2.865,1.752-3.202,1.905
			c-0.082-0.97,3.439-3.491,4.139-3.951c1.617-1.067,3.214-2.198,5.03-2.922c1.396-0.556,2.777-1.21,4.227-1.606
			C311.044,403.471,311.983,403.13,312.565,403.63z"/>
		<path opacity="0.2" fill="#D6DE23" enable-background="new    " d="M334.832,393.005c-0.955-2.371-2.106-6.495-2.025-9.044
			c0.178-5.77,3.833-10.188,8.559-13.305c2.374-1.566,7.287-3.313,10.21-3.74c9.767-1.418,15.005-0.018,21.556,2.993
			c3.905,1.794,8.063,4.928,11.267,8.248c-3.075-5.522-9.249-9.933-14.511-12.013c-6.708-2.649-15.142-3.307-22.507-1.371
			c-2.86,0.75-5.557,1.89-7.933,3.457c-12.772,8.427-8.807,21.187-1.267,31.879C336.936,397.264,335.736,395.246,334.832,393.005z"
			/>
		
			<radialGradient id="SVGID_20_" cx="-55.4539" cy="167.1064" r="3.3259" gradientTransform="matrix(0.9097 0 0 -0.9054 352.6605 433.3957)" gradientUnits="userSpaceOnUse">
			<stop  offset="0" style="stop-color:#4BB7E8"/>
			<stop  offset="0.4336" style="stop-color:#4CB4E5"/>
			<stop  offset="0.7313" style="stop-color:#4FACDC"/>
			<stop  offset="0.988" style="stop-color:#549DCD"/>
			<stop  offset="1" style="stop-color:#549CCC"/>
		</radialGradient>
		<ellipse fill="url(#SVGID_20_)" cx="302.214" cy="282.098" rx="3.025" ry="3.011"/>
		
			<radialGradient id="SVGID_21_" cx="-47.7346" cy="177.8872" r="3.3252" gradientTransform="matrix(0.9097 0 0 -0.9054 352.6605 433.3957)" gradientUnits="userSpaceOnUse">
			<stop  offset="0" style="stop-color:#4BB7E8"/>
			<stop  offset="0.4336" style="stop-color:#4CB4E5"/>
			<stop  offset="0.7313" style="stop-color:#4FACDC"/>
			<stop  offset="0.988" style="stop-color:#549DCD"/>
			<stop  offset="1" style="stop-color:#549CCC"/>
		</radialGradient>
		<ellipse fill="url(#SVGID_21_)" cx="309.236" cy="272.337" rx="3.025" ry="3.011"/>
		
			<radialGradient id="SVGID_22_" cx="-63.9216" cy="156.6421" r="2.9932" gradientTransform="matrix(0.9097 0 0 -0.9054 352.6605 433.3957)" gradientUnits="userSpaceOnUse">
			<stop  offset="0" style="stop-color:#4BB7E8"/>
			<stop  offset="0.4336" style="stop-color:#4CB4E5"/>
			<stop  offset="0.7313" style="stop-color:#4FACDC"/>
			<stop  offset="0.988" style="stop-color:#549DCD"/>
			<stop  offset="1" style="stop-color:#549CCC"/>
		</radialGradient>
		<ellipse fill="url(#SVGID_22_)" cx="294.511" cy="291.572" rx="2.724" ry="2.709"/>
		
			<radialGradient id="SVGID_23_" cx="-70.908" cy="146.0957" r="2.6204" gradientTransform="matrix(0.9097 0 0 -0.9054 352.6605 433.3957)" gradientUnits="userSpaceOnUse">
			<stop  offset="0" style="stop-color:#4BB7E8"/>
			<stop  offset="0.4336" style="stop-color:#4CB4E5"/>
			<stop  offset="0.7313" style="stop-color:#4FACDC"/>
			<stop  offset="0.988" style="stop-color:#549DCD"/>
			<stop  offset="1" style="stop-color:#549CCC"/>
		</radialGradient>
		<ellipse fill="url(#SVGID_23_)" cx="288.155" cy="301.121" rx="2.383" ry="2.374"/>
		
			<radialGradient id="SVGID_24_" cx="-74.9558" cy="134.7822" r="2.3281" gradientTransform="matrix(0.9097 0 0 -0.9054 352.6605 433.3957)" gradientUnits="userSpaceOnUse">
			<stop  offset="0" style="stop-color:#4BB7E8"/>
			<stop  offset="0.4336" style="stop-color:#4CB4E5"/>
			<stop  offset="0.7313" style="stop-color:#4FACDC"/>
			<stop  offset="0.988" style="stop-color:#549DCD"/>
			<stop  offset="1" style="stop-color:#549CCC"/>
		</radialGradient>
		<ellipse fill="url(#SVGID_24_)" cx="284.473" cy="311.364" rx="2.119" ry="2.106"/>
		
			<radialGradient id="SVGID_25_" cx="-75.2644" cy="115.8345" r="1.5996" gradientTransform="matrix(0.9097 0 0 -0.9054 352.6605 433.3957)" gradientUnits="userSpaceOnUse">
			<stop  offset="0" style="stop-color:#4BB7E8"/>
			<stop  offset="0.4336" style="stop-color:#4CB4E5"/>
			<stop  offset="0.7313" style="stop-color:#4FACDC"/>
			<stop  offset="0.988" style="stop-color:#549DCD"/>
			<stop  offset="1" style="stop-color:#549CCC"/>
		</radialGradient>
		<path fill="url(#SVGID_25_)" d="M285.647,328.521c0,0.799-0.648,1.447-1.452,1.447c-0.807,0-1.456-0.648-1.456-1.447
			c0-0.801,0.649-1.451,1.456-1.451C284.998,327.07,285.647,327.721,285.647,328.521z"/>
		
			<radialGradient id="SVGID_26_" cx="-75.9939" cy="125.0088" r="2.0371" gradientTransform="matrix(0.9097 0 0 -0.9054 352.6605 433.3957)" gradientUnits="userSpaceOnUse">
			<stop  offset="0" style="stop-color:#4BB7E8"/>
			<stop  offset="0.4336" style="stop-color:#4CB4E5"/>
			<stop  offset="0.7313" style="stop-color:#4FACDC"/>
			<stop  offset="0.988" style="stop-color:#549DCD"/>
			<stop  offset="1" style="stop-color:#549CCC"/>
		</radialGradient>
		<path fill="url(#SVGID_26_)" d="M285.382,320.21c0,1.021-0.828,1.847-1.851,1.847c-1.023,0-1.856-0.824-1.856-1.847
			c0-1.017,0.833-1.841,1.856-1.841C284.554,318.369,285.382,319.193,285.382,320.21z"/>
		
			<radialGradient id="SVGID_27_" cx="-72.6433" cy="106.8037" r="1.3083" gradientTransform="matrix(0.9097 0 0 -0.9054 352.6605 433.3957)" gradientUnits="userSpaceOnUse">
			<stop  offset="0" style="stop-color:#4BB7E8"/>
			<stop  offset="0.4336" style="stop-color:#4CB4E5"/>
			<stop  offset="0.7313" style="stop-color:#4FACDC"/>
			<stop  offset="0.988" style="stop-color:#549DCD"/>
			<stop  offset="1" style="stop-color:#549CCC"/>
		</radialGradient>
		<circle fill="url(#SVGID_27_)" cx="286.577" cy="336.696" r="1.19"/>
		
			<radialGradient id="SVGID_28_" cx="-42.1384" cy="190.0352" r="3.3259" gradientTransform="matrix(0.9097 0 0 -0.9054 352.6605 433.3957)" gradientUnits="userSpaceOnUse">
			<stop  offset="0" style="stop-color:#4BB7E8"/>
			<stop  offset="0.4336" style="stop-color:#4CB4E5"/>
			<stop  offset="0.7313" style="stop-color:#4FACDC"/>
			<stop  offset="0.988" style="stop-color:#549DCD"/>
			<stop  offset="1" style="stop-color:#549CCC"/>
		</radialGradient>
		<path fill="url(#SVGID_28_)" d="M317.353,261.338c0,1.666-1.354,3.012-3.027,3.012c-1.668,0-3.024-1.346-3.024-3.012
			c0-1.66,1.356-3.011,3.024-3.011C315.997,258.327,317.353,259.678,317.353,261.338z"/>
		<path opacity="0.22" fill="#009345" enable-background="new    " d="M419.405,387.364c0.568,0.606,5.391-9.278,4.863-11.099
			c-1.885,0.104-3.727,0.39-5.939,0.678c-3.622,0.474-5.932,1.096-7.967,1.937c-6.4,2.657-14.322,6.92-18.542,12.31
			c2.949-0.92,11.844-4.418,14.136-4.883C411.382,385.208,415.886,383.605,419.405,387.364z"/>
		<path fill="#C45B3B" d="M420.661,385.945c0.568,0.607,5.391-9.279,4.859-11.098c-1.88,0.102-3.722,0.389-5.936,0.676
			c-3.624,0.471-5.933,1.097-7.971,1.939c-6.397,2.655-14.321,6.918-18.538,12.307c2.946-0.918,11.844-4.42,14.136-4.883
			C412.636,383.791,417.142,382.186,420.661,385.945z"/>
		<path opacity="0.22" fill="#009345" enable-background="new    " d="M399.198,405.445c0.407,0.203,0.825-0.377,1.202-0.529
			c1.142-0.452,2.087-0.982,3.104-1.652c0.972-0.644,1.984-1.146,2.785-1.986c0.218-0.223,0.809-0.512,0.823-0.856
			c0.018-0.384-0.386-0.341-0.65-0.333c-0.396,0.02-0.626-0.002-1.027-0.12c-0.943-0.286-1.917-0.487-2.901-0.587
			c-2.631-0.261-6.213-0.176-8.805,0.264c-4.89,0.832-8.455,1.242-12.988,2.351c-0.243,0.296,3.671,0.942,7.403,1.456
			C391.815,403.953,396.702,404.203,399.198,405.445z"/>
		<path fill="#C45B3B" d="M402.723,403.865c0.98,0.246-0.139,0.722,0.836,0.482c1.809-0.445,4.038-1.798,4.962-3.464
			c0.429-0.772,0.396-1.663-0.19-2.349c-0.611-0.721-1.47-0.83-2.339-1.026c-1.109-0.25-2.269-0.396-3.412-0.396
			c-2.643-0.004-6.196,0.433-8.731,1.125c-4.785,1.307-8.297,2.063-12.694,3.609c-0.215,0.321,4.722,0.836,7.51,0.723
			C398.398,402.18,400.062,403.195,402.723,403.865z"/>
		<path opacity="0.22" fill="#009345" enable-background="new    " d="M373.382,412.404c2.038,0.602,4.379,2.818,6.279,3.393
			c2.366,0.717,3.873-1.354,6.357-1.063c-0.338-4.842-10.563-7.536-10.563-7.536s-4.326,3.565-5.569,4.239
			C371.323,411.521,372.47,412.137,373.382,412.404z"/>
		<path fill="#C45B3B" d="M374.661,411.607c2.037,0.598,4.376,2.816,6.277,3.391c2.368,0.717,3.873-1.354,6.359-1.063
			c-0.343-4.842-11.051-7.451-11.051-7.451c-5.096,4.146-4.963,3.959-5.159,4.113C372.529,410.686,373.745,411.338,374.661,411.607z
			"/>
		<path opacity="0.22" fill="#009345" enable-background="new    " d="M364.529,421.047c0.071,0.181,0.104,0.356,0.063,0.497
			c-0.09,0.298-0.527,0.407-0.788,0.485c-1.95,0.591-4.24,1.433-6.283,0.765c-0.867-0.284-1.506-1.43-2.003-2.124
			c-0.587-0.826-1.232-1.635-2.188-2.059c0.553-0.144,1.771-0.484,2.201-0.596c1.146-0.3,2.146-0.649,3.248-1.055
			c0.277-0.1,0.396-0.139,0.66,0.002c1.564,0.825,3.626,1.676,4.622,3.243C364.182,420.396,364.407,420.729,364.529,421.047z"/>
		<path opacity="0.22" fill="#009345" enable-background="new    " d="M361.495,435.025c4.012-3.494,5.313-7.7,3.794-12.762
			c0.385,1.279-7.214,0.769-7.828,0.873c-0.526,0.087,0.467,3.198,0.273,4.394c-0.229,1.441-0.926,2.605-1.77,3.782
			c-1.343,1.872-2.996,3.569-4.726,5.103C354.643,436.108,358.086,435.606,361.495,435.025z"/>
		<path fill="#C45B3B" d="M364.986,420.902c0.072,0.182,0.104,0.357,0.063,0.497c-0.093,0.302-0.526,0.406-0.785,0.488
			c-1.953,0.592-4.242,1.429-6.287,0.766c-0.867-0.285-1.504-1.434-1.999-2.128c-0.588-0.827-1.22-1.617-2.175-2.041
			c0.551-0.146,1.754-0.5,2.185-0.612c1.145-0.298,2.146-0.649,3.246-1.054c0.279-0.103,0.396-0.137,0.663,0.003
			c1.563,0.823,3.626,1.675,4.619,3.241C364.638,420.257,364.864,420.587,364.986,420.902z"/>
		<path opacity="0.22" fill="#009345" enable-background="new    " d="M410.276,404.82c-3.134-6.069-4.72-2.508-7.374-1.348
			c-2.563,1.125,1.104,1.771,2.13,8.672c0.248,1.67,0.095,3.72-0.564,5.272c-0.221,0.515-0.506,1.065-0.839,1.603
			c2.769-2.033,5.369-4.242,7.774-6.631C411.645,409.691,411.198,406.604,410.276,404.82z"/>
		<path fill="#C45B3B" d="M411.786,403.695c-3.136-6.071-4.718-2.51-7.371-1.35c-2.567,1.121,1.104,1.771,2.124,8.672
			c0.249,1.672,0.098,3.717-0.563,5.27c-0.219,0.521-0.506,1.07-0.838,1.605c2.768-2.033,5.373-4.244,7.776-6.629
			C413.155,408.564,412.706,405.479,411.786,403.695z"/>
		<g opacity="0.22">
			<path fill="#009345" d="M386.658,414.113c-0.915,0.314-4.643,2.055-6.186,2.445c0.692,3.461,0.85,6.703-0.819,9.957
				c-0.956,1.859-2.262,3.442-3.603,4.952c-0.09,0.103-0.335,0.388-0.44,0.491c3.011-0.868,5.984-2.061,8.834-3.195
				C385.447,428.364,388.693,418.92,386.658,414.113z"/>
		</g>
		<path fill="#C45B3B" d="M387.805,413.902c-0.915,0.313-4.643,2.055-6.188,2.445c0.693,3.465,0.853,6.705-0.822,9.96
			c-0.95,1.859-2.31,3.472-3.647,4.982c-0.092,0.101-0.191,0.205-0.297,0.312c2.969-0.896,5.888-1.911,8.738-3.046
			C386.593,428.157,389.838,418.712,387.805,413.902z"/>
		<path fill="#C45B3B" d="M362.251,435.025c4.01-3.494,5.312-7.7,3.794-12.762c0.382,1.279-7.211,0.769-7.833,0.873
			c-0.524,0.087,0.472,3.198,0.276,4.394c-0.228,1.441-0.924,2.605-1.768,3.782c-1.343,1.872-2.973,3.511-4.702,5.039
			C355.421,436.046,358.843,435.606,362.251,435.025z"/>
		<g>
			<path opacity="0.22" fill="#009345" enable-background="new    " d="M326.557,432.962c-1.229,0.946-2.57,1.836-3.912,2.672
				c1.304,0.142,2.593,0.27,3.877,0.41c1.568,0.173,3.163,0.312,4.774,0.424c0.437,0.027,1.821-1.475,2.167-1.777
				c0.751-0.652,1.477-1.334,2.113-2.097c1.196-1.431,2.245-3.369,1.543-5.247c-0.729-1.95-3.348-3.917-5.578-3.812
				c-1.366,0.066-2.529,0.199-3.717,0.406c-0.747,0.129-2.039,0.253-3.281,0.377c0.719,0.146,3.125,1.638,3.465,1.881
				C330.762,428.202,328.514,431.451,326.557,432.962z"/>
			<path fill="#C45B3B" d="M327.309,433.033c-1.222,0.956-2.566,1.84-3.907,2.688c1.302,0.146,2.594,0.289,3.874,0.433
				c1.568,0.173,3.163,0.315,4.776,0.428c0.438,0.029,1.819-1.492,2.169-1.798c0.748-0.661,1.476-1.355,2.11-2.125
				c1.196-1.452,2.245-3.413,1.542-5.316c-0.729-1.976-3.459-4.265-5.692-4.153c-1.28,0.061-2.339,0.298-3.604,0.521
				c-0.745,0.13-2.146,0.352-3.281,0.521c0.717,0.146,3.127,1.7,3.465,1.951C331.517,428.208,329.271,431.502,327.309,433.033z"/>
		</g>
		<path opacity="0.22" fill="#009345" enable-background="new    " d="M424.247,377.041c-1.797,0.697-3.468,8.234-4.917,9.533
			c2.203,2.023,2.699,2.709,3.807,5.763c0.38,1.039,0.744,2.136,1.063,3.249c0.972-2.184,1.974-4.457,2.672-6.818
			C425.092,385.386,424.107,377.096,424.247,377.041z"/>
		<path fill="#C45B3B" d="M424.247,375.27c-1.797,0.696-3.832,6.223-5.278,7.522c1.029,2.757,2.988,2.179,5.13,7.627
			c0.406,1.029,0.745,2.134,1.066,3.247c0.974-2.182,1.813-4.455,2.513-6.814C426.957,380.246,424.107,375.326,424.247,375.27z"/>
		<path opacity="0.3" fill="#C45B3B" enable-background="new    " d="M283.467,424.727c-0.573-0.196-1.145-0.404-1.716-0.617
			c-1.212-0.448-6.488-1.861-7.735-2.368c1.476,0.753,3.609,1.788,4.84,2.445c0.863,0.463,2.378,1.069,3.797,1.769
			c1.318,0.65,2.947,1.203,4.365,1.806c0.696,0.295,6.9,2.041,8.376,2.332c1.156,0.232,7.388,0.775,8.901,0.942
			c1.701,0.187,3.146,0.257,4.649,0.3c0.182,0.006,14.216,0.789,18.63,0.49c7.77-0.529,23.595-3.419,25.79-3.871
			c9.283-1.908,18.528-4.383,27.283-8.036c8.283-3.462,24.078-10.964,28.193-19.382c-2.917,0.223-4.694,1.663-6.496,3.565
			c-1.998,2.103-4.852,2.053-7.121,3.738c-2.499,1.854-3.256,4.873-6.343,5.646c-3.371,0.843-6.202,1.119-9.261,2.938
			c-2.479,1.477-4.541,4.239-7.47,3.999c-1.813-0.146-3.941-0.312-5.708,0.213c-1.491,0.444-3.183,0.844-4.408,1.842
			c-0.806,0.658-0.82,1.241-1.893,1.016c-0.785-0.167-1.538-0.304-2.348-0.292c-1.583,0.021-3.389,0.392-4.854,0.998
			c-0.79,0.326-1.536,0.694-2.214,1.214c-0.575,0.435-0.912,0.975-1.645,0.82c-0.703-0.145-1.109-0.403-1.899-0.403
			c-0.641-0.002-1.443,0.043-2.065,0.195c-1.294,0.318-2.524,0.859-3.436,1.772c-0.896,0.897-2.214-0.309-3.328-0.578
			c-1.337-0.32-2.805-0.211-4.024,0.441c-0.554,0.296-0.851,0.838-1.536,0.741c-0.556-0.08-1.22-0.546-1.772-0.724
			c-1.584-0.498-2.835-0.38-4.445-0.056c-0.883,0.179-1.717,0.415-2.508,0.857c-0.567,0.314-0.941,0.77-1.594,0.525
			c-0.217-0.083-0.474-0.411-0.721-0.529c-0.259-0.125-0.606-0.189-0.878-0.291c-0.736-0.272-1.336-0.447-2.132-0.419
			c-1.158,0.042-3.155,0.321-4.113,1.011c-0.804,0.571-0.532,1.015-1.614,0.635c-0.572-0.2-1.132-0.428-1.705-0.646
			c-1.278-0.483-2.887-0.375-4.215-0.099c-0.705,0.148-0.951-0.049-1.52,0.313c-0.767,0.49-1.085-0.111-1.834-0.526
			c-1.995-1.118-4.486-1.168-6.799-0.238c-1.093,0.438-2.041-0.302-3.079-0.532C290.31,426.904,286.882,425.918,283.467,424.727z"/>
		
			<linearGradient id="SVGID_29_" gradientUnits="userSpaceOnUse" x1="331.3381" y1="-83.3716" x2="503.3685" y2="-10.7498" gradientTransform="matrix(1 0 0 -1 -41.6001 348.0098)">
			<stop  offset="0" style="stop-color:#B84221"/>
			<stop  offset="0.2411" style="stop-color:#B94522"/>
			<stop  offset="0.4174" style="stop-color:#BE4E26"/>
			<stop  offset="0.5732" style="stop-color:#C65E2C"/>
			<stop  offset="0.7169" style="stop-color:#D17536"/>
			<stop  offset="0.8525" style="stop-color:#E09241"/>
			<stop  offset="0.9803" style="stop-color:#F1B550"/>
			<stop  offset="1" style="stop-color:#F4BB52"/>
		</linearGradient>
		<path fill="url(#SVGID_29_)" d="M288.064,426.949c6.846,2.149,14.156,2.67,21.294,2.888c4.412,0.133,13.803,0.404,18.217,0.106
			c7.771-0.526,23.614-3.42,25.792-3.868c5.122-1.058,13.489-3.113,17.489-4.397c2.789-0.896,5.536-1.92,8.249-3.021
			c4.57-1.858,9.094-3.903,13.396-6.317c1.372-0.771,2.938-1.558,4.11-2.622c0.711-0.641,1.082-1.556,1.703-2.271
			c0.854-0.985,2.143-1.844,3.438-2.115c0.88-0.186,1.787-0.168,2.445-0.857c0.794-0.828,0.913-1.709,2.21-1.832
			c1.502-0.146,3.377,0.732,4.671-0.274c1.319-1.023,1.864-2.646,2.243-4.188c0.196-0.804,0.527-1.563,0.679-2.379
			c0.13-0.695,0.144-1.873,1.154-1.82c0.856,0.041,0.737,0.981,1.327,1.319c0.628,0.358,1.437-0.194,1.837-0.646
			c0.964-1.082,1.513-2.895,1.727-4.287c0.125-0.848,0.905-4.399,2.158-3.979c0.723,0.243,0.614,1.486,1.592,1.43
			c0.909-0.051,1.063-1.201,1.203-1.879c0.286-1.375,0.323-2.789,0.278-4.188c-0.022-0.805-0.616-2.266,0.331-2.732
			c0.783-0.396,1.511,0.653,2.218,0.416c1.331-0.449-0.279-3.445-0.335-4.316c-0.109-1.705,0.857-2.504,2.43-2.807
			c1.208-0.229,3.563,0.272,2.967-1.684c-0.227-0.736-1.955-3.061-0.633-3.654c0.533-0.236,1.366,0.448,1.896,0.531
			c0.762,0.118,1.457-0.191,1.952-0.775c2.01-2.399-1.666-5.799-3.374-7.213c-1.053-0.873-1.89-1.961-2.955-2.82
			c-1.105-0.898-3.93-6.551-5.152-7.271c1.188,2.546,1.604,6.638,1.698,9.239c0.192,5.396-0.488,10.839-2.431,15.932
			c-2.083,5.447-3.568,8.402-7.1,14.028c-1.475,2.342-4.417,5.979-7.424,8.967c-1.982,1.979-2.955,2.935-5.221,4.656
			c-2.551,1.942-6.204,1.698-8.921,3.714c-2.499,1.857-3.256,4.876-6.343,5.648c-3.371,0.845-6.202,1.121-9.261,2.938
			c-2.479,1.478-4.541,4.236-7.47,4.002c-1.813-0.149-3.942-0.315-5.708,0.21c-1.491,0.444-3.183,0.844-4.408,1.842
			c-0.806,0.658-0.82,1.241-1.893,1.014c-0.785-0.167-1.538-0.301-2.348-0.29c-1.583,0.02-3.389,0.391-4.854,0.999
			c-0.79,0.324-1.536,0.694-2.214,1.213c-0.575,0.435-0.912,0.975-1.646,0.822c-0.702-0.148-1.108-0.403-1.898-0.407
			c-0.641,0-1.443,0.045-2.065,0.196c-1.294,0.319-2.524,0.86-3.436,1.772c-0.896,0.897-2.214-0.308-3.328-0.578
			c-1.337-0.32-2.805-0.211-4.024,0.442c-0.554,0.295-0.851,0.839-1.536,0.741c-0.556-0.078-1.22-0.55-1.772-0.723
			c-1.584-0.496-2.835-0.38-4.445-0.057c-0.883,0.176-1.717,0.419-2.508,0.859c-0.567,0.313-0.941,0.768-1.594,0.523
			c-0.217-0.084-0.474-0.411-0.721-0.527c-0.259-0.125-0.606-0.19-0.878-0.293c-0.736-0.271-1.337-0.445-2.132-0.417
			c-1.158,0.043-3.155,0.319-4.113,1.008c-0.804,0.574-0.532,1.016-1.614,0.639c-0.572-0.203-1.132-0.434-1.705-0.648
			c-1.278-0.479-2.887-0.374-4.215-0.097c-0.705,0.146-1.054,0.419-1.619,0.781c-0.769,0.487-1.135,0.271-1.881-0.146
			c-1.995-1.118-4.34-2.015-6.651-1.089c-0.589,0.237-0.914,0.685-1.525,0.416c-0.488-0.212-0.825-0.717-1.434-0.892
			c-1.379-0.399-2.612-0.111-3.829,0.543c-0.721-0.843-1.57-1.541-2.588-1.932c-0.574-0.218-1.253-0.469-1.866-0.507
			c-0.732-0.044-1.192,0.497-1.908,0.497c-0.104-0.611-1.065-1.309-1.62-1.47c-0.394-0.112-0.896-0.134-1.326-0.088
			c-0.369,0.041-0.729,0.305-1.081,0.338c-0.934,0.09-1.23-0.804-2.008-1.043c-1.153-0.354-2.609-0.294-3.898-0.521
			C281.01,424.45,278.545,423.962,288.064,426.949z"/>
		<path fill="#8BC53F" d="M164.09,290.116c-0.002-0.896-0.728-1.015-1.271-0.441c-0.387,0.401-0.63,0.888-1.093,1.22
			c-0.467,0.332-0.984,0.584-1.449,0.926c-1.931,1.41-3.98,2.272-6.33,2.703c-2.852,0.521-5.657,0.527-8.549,0.547
			c-3.311,0.02-6.453-0.756-9.732-1.049c-1.753-0.158-3.514-0.187-5.271-0.357c-1.366-0.137-2.667-0.047-3.966,0.396
			c-0.726,0.246-0.901,0.364-0.835,1.114c0.047,0.531,0.073,1.062,0.159,1.591c0.086,0.564,0.329,2.486,0.329,2.486
			s0.967-0.292,1.501-0.398c0.813-0.16,1.678-0.104,2.506-0.09c1.95,0.032,3.895,0.184,5.821,0.498
			c2.309,0.372,4.57,1.057,6.908,1.262c5.334,0.465,11.107-0.174,15.694-3.119c0.776-0.498,1.502-1.07,2.167-1.707
			c1.141-1.096,2.117-2.409,2.847-3.811C163.791,291.382,164.096,290.697,164.09,290.116z"/>
		<path fill="#8E2107" d="M139.163,293.502c6.363,0.773,13.128,1.828,19.107-1.15c1.576-0.789,3.033-1.789,4.557-2.675
			c-1.385,1.722-1.821,2.513-4.785,4.457c-3.226,2.124-6.726,2.785-10.772,2.962c-3.838,0.166-8.299-0.168-12.023-1.207
			c-8.231-2.3-9.693,0.178-9.729-0.808c-0.089-2.456-0.495-3.246,0.969-3.595C130.888,290.438,136.249,293.146,139.163,293.502z"/>
		<g opacity="0.3">
			<path fill="#A68BAF" d="M225.438,378.684c0.397-2.442,1.057-4.642,1.918-6.877c-5.518-1.123-10.834-2.867-15.993-5.031
				c-0.863,2.254-1.825,4.639-3.059,6.597c-0.228,0.368-0.462,0.718-0.693,1.053c5.674,2.441,11.548,4.468,17.479,5.992
				C225.227,379.77,225.356,379.173,225.438,378.684z"/>
			<path fill="#A68BAF" d="M193.916,366.629c1.563-2.083,3.063-4.138,4.695-6.12c-4.136-2.302-8.182-4.78-12.168-7.327
				c-1.612,1.813-3.497,3.782-5.539,5.489c3.886,3.065,8.102,5.94,12.555,8.571C193.617,367.027,193.774,366.82,193.916,366.629z"/>
			<path fill="#A68BAF" d="M167.277,346.07c0.647-0.646,1.313-1.275,2.009-1.872c0.543-0.462,1.206-0.958,1.936-1.479
				c-1.383-1.085-2.754-2.185-4.145-3.281c-0.686-0.533-2.026-1.709-3.764-3.234c-1.301,0.852-2.658,1.615-3.861,2.369
				C162.339,341.337,165.081,343.954,167.277,346.07z"/>
			<path fill="#A68BAF" d="M151.519,330.904c0.88-0.864,1.743-1.74,2.604-2.625c-4.604-3.83-9.391-7.531-12.563-9.108
				C138.197,317.497,144.056,323.602,151.519,330.904z"/>
			<path fill="#A68BAF" d="M256.532,373.514c-4.021,0.332-8.171,0.309-12.13,0.125c-0.302,1.575-0.336,3.248-0.41,4.61
				c-0.104,1.926-0.354,3.658-0.813,5.146c5.271,0.361,10.471,0.244,15.49-0.412C257.155,380.119,257.267,376.708,256.532,373.514z"
				/>
		</g>
		<g>
			<ellipse opacity="0.2" fill="#D6DE23" enable-background="new    " cx="340.714" cy="374.929" rx="1.664" ry="1.655"/>
			<circle opacity="0.2" fill="#D6DE23" enable-background="new    " cx="344.533" cy="370.88" r="1.046"/>
			<path opacity="0.2" fill="#D6DE23" enable-background="new    " d="M347.183,374.193c0,0.572-0.468,1.043-1.047,1.043
				s-1.046-0.471-1.046-1.043c0-0.577,0.467-1.045,1.046-1.045S347.183,373.616,347.183,374.193z"/>
			<circle opacity="0.2" fill="#D6DE23" enable-background="new    " cx="353.591" cy="369.472" r="1.049"/>
			<ellipse opacity="0.2" fill="#D6DE23" enable-background="new    " cx="349.155" cy="369.963" rx="1.048" ry="1.042"/>
			<circle opacity="0.2" fill="#D6DE23" enable-background="new    " cx="336.831" cy="378.669" r="1.047"/>
		</g>
		<path opacity="0.4" fill="#009345" enable-background="new    " d="M241.977,399.635c-0.351,0.066-0.721,0.133-1.071,0.232
			c-0.242,0.068-0.728,0.169-0.881,0.396c0.07,0.012,0.148-0.003,0.224-0.012c0.072-0.007,0.151,0,0.226,0c0.297,0,0.591,0,0.886,0
			c0.236,0,0.477-0.018,0.715-0.025c0.09,0,0.198,0.049,0.28,0.02c0.17-0.063,0.297-0.227,0.467-0.307
			c0.189-0.084,0.394-0.141,0.59-0.211c1.063-0.394,2.123-0.793,3.222-1.084c0.896-0.235,1.8-0.467,2.697-0.707
			c0.668-0.176,1.429-0.445,2.103-0.471c-0.184-0.158-0.815-0.008-1.065,0.036c-0.392,0.063-0.795,0.136-1.184,0.218
			c-0.883,0.194-1.802,0.291-2.672,0.545c-1.438,0.424-2.835,0.976-4.296,1.318C242.138,399.604,242.055,399.621,241.977,399.635z"
			/>
		<g>
			<path opacity="0.4" fill="#009345" enable-background="new    " d="M380.827,396.402c0,0.856-0.695,1.552-1.556,1.552
				s-1.559-0.694-1.559-1.552c0-0.854,0.697-1.553,1.559-1.553C380.132,394.852,380.827,395.549,380.827,396.402z"/>
			<path opacity="0.4" fill="#009345" enable-background="new    " d="M373.001,400.535c0,0.64-0.521,1.158-1.158,1.158
				c-0.639,0-1.16-0.52-1.16-1.158c0-0.635,0.521-1.151,1.16-1.151C372.481,399.384,373.001,399.9,373.001,400.535z"/>
			<path opacity="0.4" fill="#009345" enable-background="new    " d="M368.488,401.212c0,0.854-0.699,1.554-1.563,1.554
				c-0.859,0-1.554-0.697-1.554-1.554c0-0.854,0.693-1.548,1.554-1.548C367.788,399.664,368.488,400.357,368.488,401.212z"/>
			<path opacity="0.4" fill="#009345" enable-background="new    " d="M371.043,397.677c0,0.351-0.284,0.636-0.642,0.636
				c-0.352,0-0.635-0.285-0.635-0.636c0-0.354,0.283-0.636,0.635-0.636C370.759,397.041,371.043,397.32,371.043,397.677z"/>
			<circle opacity="0.4" fill="#009345" enable-background="new    " cx="376.796" cy="399.425" r="0.639"/>
			<circle opacity="0.4" fill="#009345" enable-background="new    " cx="374.719" cy="397.197" r="1.079"/>
			<ellipse opacity="0.4" fill="#009345" enable-background="new    " cx="362.735" cy="400.3" rx="1.079" ry="1.073"/>
			<circle opacity="0.4" fill="#009345" enable-background="new    " cx="382.388" cy="393.222" r="0.879"/>
		</g>
		<g>
			<circle opacity="0.4" fill="#009345" enable-background="new    " cx="288.995" cy="385.886" r="0.922"/>
			<path opacity="0.4" fill="#009345" enable-background="new    " d="M290.897,383.156c0,0.367-0.295,0.66-0.661,0.66
				c-0.365,0-0.661-0.293-0.661-0.66c0-0.36,0.296-0.655,0.661-0.655C290.602,382.501,290.897,382.796,290.897,383.156z"/>
			<path opacity="0.4" fill="#009345" enable-background="new    " d="M281.233,394.374c0,0.581-0.472,1.047-1.055,1.047
				c-0.579,0-1.051-0.466-1.051-1.047c0-0.578,0.472-1.047,1.051-1.047C280.762,393.327,281.233,393.796,281.233,394.374z"/>
			<path opacity="0.4" fill="#009345" enable-background="new    " d="M288.606,389.113c0,0.578-0.468,1.047-1.051,1.047
				c-0.58,0-1.055-0.469-1.055-1.047c0-0.58,0.475-1.051,1.055-1.051C288.139,388.063,288.606,388.533,288.606,389.113z"/>
			<circle opacity="0.4" fill="#009345" enable-background="new    " cx="282.006" cy="390.932" r="0.661"/>
			<path opacity="0.4" fill="#009345" enable-background="new    " d="M285.54,388.271c0,0.541-0.442,0.98-0.988,0.98
				c-0.545,0-0.988-0.439-0.988-0.98c0-0.545,0.443-0.984,0.988-0.984C285.098,387.286,285.54,387.727,285.54,388.271z"/>
			<path opacity="0.4" fill="#009345" enable-background="new    " d="M286.781,392.49c0,0.83-0.676,1.505-1.511,1.505
				c-0.836,0-1.511-0.675-1.511-1.505c0-0.828,0.675-1.502,1.511-1.502C286.105,390.988,286.781,391.662,286.781,392.49z"/>
		</g>
		<g>
			<path opacity="0.2" fill="#D6DE23" enable-background="new    " d="M278.097,365.039c0,0.363-0.294,0.656-0.66,0.656
				c-0.368,0-0.663-0.293-0.663-0.656c0-0.365,0.295-0.661,0.663-0.661C277.803,364.378,278.097,364.674,278.097,365.039z"/>
			<circle opacity="0.2" fill="#D6DE23" enable-background="new    " cx="280.895" cy="363.607" r="0.662"/>
			<path opacity="0.2" fill="#D6DE23" enable-background="new    " d="M273.269,372.896c0,0.363-0.296,0.655-0.659,0.655
				c-0.367,0-0.665-0.292-0.665-0.655c0-0.365,0.298-0.66,0.665-0.66C272.973,372.236,273.269,372.531,273.269,372.896z"/>
			<circle opacity="0.2" fill="#D6DE23" enable-background="new    " cx="278.353" cy="368.199" r="1.053"/>
			<path opacity="0.2" fill="#D6DE23" enable-background="new    " d="M275.618,368.607c0,0.58-0.473,1.051-1.056,1.051
				c-0.582,0-1.053-0.471-1.053-1.051c0-0.578,0.471-1.045,1.053-1.045C275.146,367.563,275.618,368.029,275.618,368.607z"/>
		</g>
	</g>
</g>
</svg>
