<?xml version="1.0" encoding="utf-8"?>
<!-- Generator: Adobe Illustrator 15.1.0, SVG Export Plug-In . SVG Version: 6.00 Build 0)  -->
<!DOCTYPE svg PUBLIC "-//W3C//DTD SVG 1.1//EN" "http://www.w3.org/Graphics/SVG/1.1/DTD/svg11.dtd">
<svg version="1.1" id="Layer_1" xmlns="http://www.w3.org/2000/svg" xmlns:xlink="http://www.w3.org/1999/xlink" x="0px" y="0px"
	 width="512px" height="512px" viewBox="0 0 512 512" enable-background="new 0 0 512 512" xml:space="preserve">
<g>
	<g>
		<path fill="#004873" d="M394.908,375.17c2.73,0.883,4.732-7.267,6.279-4.618c0.902,1.54,0.418,11.088,0.305,12.827
			c-0.576,9.051-0.551,22.249-7.633,29.012c-6.211,5.937-14.287,5.358-22.297,5.196c-5.826-0.122-14.66-0.31-20.461-3.973
			c-7.232-4.566-9.434-22.887-2.748-27.18c2.344-1.511,6.674,0.521,9.291,1.805c0.273,0.133,0.105,0.512,0.477,0.65
			c0.359,0.135,1.043,0.014,1.418-0.024c0.826-0.085,1.65-0.301,2.432-0.582c1.648-0.59,3.162-1.516,4.689-2.366
			c4.609-2.565,7.527-7.117,12.02-9.737c4.215-2.454,9.078-2.639,13.789-1.65C393.305,374.704,394.123,374.912,394.908,375.17z"/>
		<path fill="#69C8FF" d="M381.234,377.184c0.801,0.383,1.566,0.851,2.449,1.284c3.379,1.66,6.555,3.267,9.75,5.348
			c2.73,1.773,5.379,3.698,5.891,7.178c0.238,1.636-0.816,3.039-1.533,4.443c-0.896,1.75-1.785,3.546-3.063,5.062
			c-3.006,3.561-7.607,4.899-12.064,5.416c-3.889,0.447-7.805,0.453-11.713,0.371c-5.826-0.118-15.748-0.483-20.777-3.519
			c-6.873-4.151-6.811-15.404-2.74-21.22c1.215-1.734,3.824-3.067,5.891-3.502c3.477-0.736,6.787,0.485,10.207,0.779
			c3.344,0.291,6.498-0.917,9.676-1.743c1.764-0.46,3.646-0.834,5.48-0.647C379.66,376.536,380.467,376.821,381.234,377.184z"/>
		<path fill="#69C8FF" d="M403.775,296.125c1.85,1.956,1.908,11.186,1.08,13.629c-0.9,2.664-3.533-0.21-6.004,0.646
			c-5.439,1.887-11.586,2.81-17.324,2.737c-4.477-0.056-8.992-0.412-13.289-1.722c-2.119-0.645-4.182-1.51-6.057-2.697
			c-1.484-0.934-3.471,2.705-3.859,0.889c-0.916-4.277-0.777-10.166,0.025-12.549c0.746-2.215,4.361-2.4,7.061-2.4h29.994
			c0,0,4.129,0,4.225,0C401.604,294.658,402.914,295.213,403.775,296.125z"/>
		<path fill="#0086D4" d="M403.59,301.762c1.959,2.094,1.545,6.06,1.373,9.437c-0.475,9.061-1.041,21.315-1.707,36.761
			c-0.656,19.266-0.324,34.751-3.525,49.032c-4.924,13.05-9.203,15.802-28.779,15.399c-5.826-0.116-15.748-0.479-20.777-3.517
			c-7.32-4.423-7.893-21.506-1.213-25.801c8.553-5.498,15.271,6.719,14.848-7.839c-0.145-4.913-3.938-50.586-5.576-65.017
			c-0.27-2.368-0.41-5.144,0.381-7.521c0.74-2.215,4.32-2.401,6.992-2.401h29.697c0,0,4.088,0,4.182,0
			C401.441,300.296,402.742,300.854,403.59,301.762z"/>
		<circle fill="#69C8FF" cx="371.716" cy="319.087" r="7.483"/>
		<path fill="#69C8FF" d="M389.584,341.384c0,2.105-1.711,3.818-3.818,3.818c-2.109,0-3.818-1.713-3.818-3.818
			c0-2.108,1.709-3.818,3.818-3.818C387.873,337.565,389.584,339.275,389.584,341.384z"/>
		<path fill="#69C8FF" d="M390.498,368.568c0,4.131-3.348,7.479-7.484,7.479c-4.131,0-7.48-3.349-7.48-7.479
			c0-4.137,3.35-7.483,7.48-7.483C387.15,361.085,390.498,364.432,390.498,368.568z"/>
		<path fill="#69C8FF" d="M361.176,395.594c0,2.531-2.047,4.582-4.578,4.582s-4.584-2.051-4.584-4.582
			c0-2.527,2.053-4.579,4.584-4.579S361.176,393.066,361.176,395.594z"/>
		<circle fill="#69C8FF" cx="383.169" cy="400.788" r="5.649"/>
		<circle fill="#69C8FF" cx="395.081" cy="314.657" r="3.358"/>
	</g>
	<g>
		<linearGradient id="SVGID_1_" gradientUnits="userSpaceOnUse" x1="196.4795" y1="241.3838" x2="198.6533" y2="356.6207">
			<stop  offset="0" style="stop-color:#C8D3F4"/>
			<stop  offset="0.239" style="stop-color:#5CBAFC;stop-opacity:0.9706"/>
			<stop  offset="0.3515" style="stop-color:#2EB0FF;stop-opacity:0.9568"/>
			<stop  offset="1" style="stop-color:#99DAFF"/>
		</linearGradient>
		<path fill="url(#SVGID_1_)" d="M179.03,347.052c-2.155,4.205-16.916,15.888-4.736,18.259c14.711,2.862,26.237-9.929,33.707-19.947
			c3.54-4.736,6.134-9.515,8.369-14.944c4.194-10.181,4.388-23.83,2.943-34.662c-0.999-7.506-1.615-15.952,0.561-23.32
			c1.477-5.005,5.873-7.688,6.124-13.14c0.549-12.107-12.833-18.441-23.386-19.868c-5.107-0.686-12.136-0.024-16.381,3.248
			c-8.496,6.549-13.604,15.586-14.559,26.13c-0.478,5.229-0.025,10.669,0.574,15.861c0.677,5.837,3.83,11.159,5.953,16.651
			c0.074,0.199,0.15,0.403,0.226,0.604c3.563,9.607,8.768,19.821,6.26,30.262C183.49,337.184,181.381,342.461,179.03,347.052z"/>
		<path opacity="0.4" fill="#F3DCF9" d="M179.83,357.211c-2.876,1.083-8.939,6.183-3.294,7.682
			c3.534,0.938,8.616-1.355,11.767-2.755c8.237-3.66,14.474-10.972,19.698-17.897c3.54-4.68,6.134-9.408,8.369-14.769
			c4.194-10.064,4.388-23.556,2.943-34.261c-0.999-7.418-1.615-15.766,0.561-23.047c1.76-5.899,10.015-13.385,5.257-20.114
			c-3.868-5.475-12.156-2.535-14.368,2.935c-1.664,4.108-0.497,7.323,2.653,10.381c-7.749,2.501-8.781,15.676-0.063,17.479
			c-4.747,0.337-6.701,7.191-6.398,10.908c0.351,4.288,5.381,6.559,8.998,8.48c-9.239-0.054-8.064,12.028-2.888,16.358
			c-2.006,0.433-6.3,2.369-6.798,6.12c-0.525,3.988,1.028,5.924,3.829,8.579c-4-0.099-5.659-0.397-8.007,2.844
			c-2.044,2.818-3.073,4.87-1.361,8.217c-3.774,0.23-6.831-0.125-9.326,3.252c-1.586,2.148-2.913,6.332-1.01,8.554
			C186.721,356.605,183.59,355.798,179.83,357.211z"/>
		<linearGradient id="SVGID_2_" gradientUnits="userSpaceOnUse" x1="253.2861" y1="241.1045" x2="255.423" y2="354.3813">
			<stop  offset="0.0182" style="stop-color:#B7C7F4"/>
			<stop  offset="0.0596" style="stop-color:#9FC3F6;stop-opacity:0.9957"/>
			<stop  offset="0.1412" style="stop-color:#76BCF9;stop-opacity:0.9871"/>
			<stop  offset="0.2209" style="stop-color:#55B6FC;stop-opacity:0.9787"/>
			<stop  offset="0.2972" style="stop-color:#3EB2FE;stop-opacity:0.9707"/>
			<stop  offset="0.3687" style="stop-color:#30B0FF;stop-opacity:0.9633"/>
			<stop  offset="0.4303" style="stop-color:#2BAFFF;stop-opacity:0.9568"/>
			<stop  offset="1" style="stop-color:#94D8FF"/>
		</linearGradient>
		<path fill="url(#SVGID_2_)" d="M273.385,305.37c2.568-15.435,5.689-30.277,1.895-45.761c-2.006-8.176-7.736-15.096-15.311-19.033
			c-7.208-3.743-18.187-0.213-24.585,4.068c-5.856,3.915-5.3,12.592-4.317,18.741c0.912,5.744,2.848,11.802,4.782,17.291
			c0.404,1.151,0.889,2.252,1.41,3.335c1.889,3.904,4.313,7.508,5.507,11.88c1.506,5.504,1.229,11.537,0.725,17.071
			c-0.28,3.058-0.618,6.35-1.053,9.297c-1.221,8.315-0.664,17.346,3.521,24.849c4.175,7.491,14.196,14.36,22.894,15.487
			c7.455,0.966,4.381-6.849,2.584-10.944c-3.203-7.318-5.273-15.419-3.879-23.521C268.861,320.488,272.09,313.12,273.385,305.37z"/>
		<path opacity="0.34" fill="#FFFFFF" d="M249.856,325.643c-0.118-1.681-0.606-3.74-1.537-5.207
			c-0.788-1.246-3.333-4.262-4.581-3.062c-0.888,0.851-0.574,3.235-0.735,4.354c-1.224,8.319-0.668,17.35,3.515,24.853
			c2.922,5.231,7.919,9.382,13.203,12.231c2.381,1.287,5.557,2.822,8.305,3.061c2.27,0.195,4.873-1.261,2.252-3.195
			c-1.814-1.337-4.197-1.155-6.268-0.99c-1.596-4.438-5.293-9.442-10.94-8.068c2.104-2,2.441-6.302,1.593-8.919
			c-1.095-3.382-4.45-5.334-7.964-5.276C249.236,332.612,250.118,329.357,249.856,325.643z"/>
		<linearGradient id="SVGID_3_" gradientUnits="userSpaceOnUse" x1="223.2075" y1="248.8877" x2="225.3822" y2="364.1701">
			<stop  offset="0.0182" style="stop-color:#B5C5F4"/>
			<stop  offset="0.0625" style="stop-color:#A4C4F6;stop-opacity:0.9954"/>
			<stop  offset="0.1635" style="stop-color:#84C3FA;stop-opacity:0.9848"/>
			<stop  offset="0.2607" style="stop-color:#6DC2FD;stop-opacity:0.9746"/>
			<stop  offset="0.3517" style="stop-color:#5FC1FE;stop-opacity:0.965"/>
			<stop  offset="0.4303" style="stop-color:#5AC1FF;stop-opacity:0.9568"/>
			<stop  offset="1" style="stop-color:#59C3FF"/>
		</linearGradient>
		<path fill="url(#SVGID_3_)" d="M234.15,352.134c5.193-9.802,10.287-20.046,13.203-30.742c2.496-9.16,4.526-19.021,3.672-28.533
			c-0.89-9.915-6.302-18.775-11.965-26.889c-2.063-2.959-3.586-6.266-4.434-9.749c-0.637-2.606-0.327-5.504-2.605-7.335
			c-5.448-4.372-15.985-1.027-21.846,0.297c-5.735,1.303-11.444,5.53-13.268,11.157c-1.523,4.711,0.742,11.376,1.098,16.29
			c0.75,10.49,4.064,18.006,12.021,25.223c7.147,6.489,9.358,13.544,5.858,22.568c-3.655,9.416-8.013,18.258-4.158,28.405
			c1.645,4.333,3.988,8.576,6.788,12.297c1.897,2.526,10.301,10.898,13.106,6.386c1.114-1.793-0.796-5.95-0.798-7.943
			c-0.008-3.855,1.455-7.897,3.25-11.288C234.098,352.229,234.123,352.182,234.15,352.134z"/>
		<path opacity="0.35" fill="#FFFFFF" d="M203.501,240.77c-9.723-6.056-5.685,14.651-5.432,18.547
			c0.361,5.639,0.585,11.534,0.992,17.313c0.727,10.49,3.934,18.006,11.631,25.223c6.92,6.489,9.063,13.544,5.671,22.568
			c-3.535,9.416-7.751,18.258-4.019,28.405c1.589,4.333,3.857,8.576,6.565,12.299c1.813,2.49,6.083,8.218,9.613,7.968
			c7.117-0.501-4.771-7.979-5.578-7.183c1.266-1.248,1.836-3.965,1.111-5.792c-0.113-0.283-0.259-0.55-0.441-0.782
			c-1.42-1.852-4.353-1.325-6.341-1.456c1.475-0.739,4.005-2.228,3.895-4.742c-0.22-5.122-1.267-5.882-3.557-7.934
			c2.832-2.261,4.244-3.492,4.88-6.982c0.979-5.387,0.439-7.566-4.233-10.314c6.878,2.748,13.639-12.9,3.149-17.556
			c1.966-1.731,3.454-2.501,4.169-5.963c0.818-3.977-0.191-10.186-4.157-12.141c-3.273-1.607-4.328,0.374-5.204-3.311
			c-0.789-3.326,0.603-6.219-1.458-9.602c-1.846-3.033-4.9-4.869-8.474-4.601c3.29-0.249,3.272-8.521,3.405-10.911
			c0.253-4.702-1.298-8.902-5.9-10.772C206.803,249.845,207.486,243.259,203.501,240.77z"/>
		<linearGradient id="SVGID_4_" gradientUnits="userSpaceOnUse" x1="219.1738" y1="101.0757" x2="223.2404" y2="275.9412">
			<stop  offset="0" style="stop-color:#E896F4"/>
			<stop  offset="0.1308" style="stop-color:#E298F4"/>
			<stop  offset="0.3014" style="stop-color:#D29CF6"/>
			<stop  offset="0.494" style="stop-color:#B7A3F8"/>
			<stop  offset="0.7027" style="stop-color:#91ADFA"/>
			<stop  offset="0.9221" style="stop-color:#62BAFE"/>
			<stop  offset="1" style="stop-color:#4FBFFF"/>
		</linearGradient>
		<path opacity="0.74" fill="url(#SVGID_4_)" d="M183.318,275.991c6.581,10.051,27.854,15.358,42.696,14.997
			c28.896-0.707,36.841-15.188,36.841-15.188c8.666,7.064,10.947,8.189,21.506,5.748c7.275-1.677,22.443-14.49,26.523-20.479
			c17.684-25.94,24.104-44.061,25.129-69.173c0.93-22.752-9.912-100.931-118.672-96.916
			c-108.996,4.023-117.063,94.188-107.939,127.861C114.782,242.714,158.698,308.204,183.318,275.991z"/>
		<linearGradient id="SVGID_5_" gradientUnits="userSpaceOnUse" x1="220.4204" y1="278.5029" x2="220.7243" y2="291.5703">
			<stop  offset="0" style="stop-color:#1D97DE"/>
			<stop  offset="1" style="stop-color:#FFFFFF"/>
		</linearGradient>
		<path opacity="0.2" fill="url(#SVGID_5_)" d="M183.318,275.991c6.581,10.051,27.854,15.358,42.696,14.997
			c28.896-0.707,36.841-15.188,36.841-15.188c8.666,7.064,10.947,8.189,21.506,5.748c7.275-1.677,22.443-14.49,26.523-20.479
			c5.006-7.342,9.832-14.823,13.877-22.722c2.148-4.199,3.807-7.602,3.977-12.222c-7.93,13.882-24.049,29.587-38.779,36.6
			c-8.592,4.09-17.242,3.557-26.465,4.201c-11.267,0.79-14.086,11.256-36.581,11.256c-14.04,0-24.582-1.068-36.555-8.798
			c-7.028-4.536-10.296-7.445-18.019-5.084c-8.003,2.446-15.595,0.943-22.954-2.749c-8.884-4.451-16.534-10.831-23.294-17.946
			c-5.572-5.869-10.084-15.539-16.487-20.184c2.271,6.361,5.124,12.361,8.629,18.163
			C128.321,258.271,161.616,304.387,183.318,275.991z"/>
		<linearGradient id="SVGID_6_" gradientUnits="userSpaceOnUse" x1="225.7222" y1="280.4268" x2="225.9767" y2="291.373">
			<stop  offset="0" style="stop-color:#1D97DE"/>
			<stop  offset="1" style="stop-color:#FFFFFF"/>
		</linearGradient>
		<path opacity="0.4" fill="url(#SVGID_6_)" d="M326.584,233.313c-4.148,7.896-9.104,15.379-14.236,22.72
			c-4.193,5.987-19.758,18.803-27.223,20.479c-10.838,2.441-13.178,1.313-22.074-5.753c0,0-8.153,14.484-37.806,15.19
			c-15.233,0.362-37.066-4.946-43.82-14.994c-18.743,23.892-45.912-4.977-60.221-24.67c12.561,19.122,42.211,55.748,62.114,29.705
			c6.581,10.051,27.854,15.358,42.696,14.997c28.896-0.707,36.841-15.188,36.841-15.188c8.666,7.064,10.947,8.189,21.506,5.748
			c7.275-1.677,22.443-14.49,26.523-20.479c5.006-7.342,9.832-14.823,13.877-22.722c1.551-3.029,2.842-5.646,3.506-8.604
			C327.779,230.917,327.217,232.106,326.584,233.313z"/>
		<path opacity="0.1" fill="#FFFFFF" d="M284.361,281.548c7.275-1.679,22.443-14.49,26.523-20.479
			c5.006-7.342,9.832-14.823,13.877-22.722c2.246-4.392,4.039-8.829,5.613-13.475c1.137-3.34,1.5-6.425,1.953-9.726
			c-0.584,1.615-1.641,3.237-2.244,4.676c-1.283,3.048-2.285,6.465-4.023,9.311c-3.533,5.787-8.379,11.186-12.273,16.803
			c-4.217,6.086-10.066,10.704-15.502,15.702c-4.52,4.153-10.373,7.221-15.777,10.182c-6.164,3.373-11.885,3.619-18.646,1.947
			c0.113,1.618,1.234,2.902,2.18,4.173C269.895,283.089,278.773,282.842,284.361,281.548z"/>
		<linearGradient id="SVGID_7_" gradientUnits="userSpaceOnUse" x1="333.4268" y1="215.002" x2="332.6375" y2="214.0153">
			<stop  offset="0" style="stop-color:#FFFFFF;stop-opacity:0.6727"/>
			<stop  offset="1" style="stop-color:#FFFFFF;stop-opacity:0"/>
		</linearGradient>
		<path fill="url(#SVGID_7_)" d="M332.703,212.579c-0.141,0.877-0.262,1.729-0.375,2.568
			C332.641,214.279,332.816,213.414,332.703,212.579z"/>
		<path opacity="0.1" fill="#FFFFFF" d="M153.177,280.208c5.318,3.432,12.102,5.472,18.503,4.068
			c2.906-0.635,5.994-1.856,7.926-4.193c1.479-1.787,3.91-4.534,3.479-6.947c-12.631,1.06-24.763-0.382-36.003-6.595
			c-11.518-6.368-21.352-17.353-28.896-27.86c-3.893-5.422-6.384-11.416-9.124-17.142c1.012,3.703,2.386,7.143,3.918,10.316
			c1.862,3.846,4.014,7.617,6.266,11.251C128.117,257.438,138.743,270.896,153.177,280.208z"/>
		<linearGradient id="SVGID_8_" gradientUnits="userSpaceOnUse" x1="222.4365" y1="137.1094" x2="224.4432" y2="243.4825">
			<stop  offset="0" style="stop-color:#7394F4;stop-opacity:0"/>
			<stop  offset="1" style="stop-color:#59C3FF"/>
		</linearGradient>
		<path fill="url(#SVGID_8_)" d="M311.738,193.326c0-32.145-39.506-58.206-88.239-58.206c-48.737,0-88.244,26.062-88.244,58.206
			c0,32.143,39.507,58.2,88.244,58.2C272.232,251.526,311.738,225.469,311.738,193.326z"/>
		<linearGradient id="SVGID_9_" gradientUnits="userSpaceOnUse" x1="223.0122" y1="96.0156" x2="223.7938" y2="129.6247">
			<stop  offset="0" style="stop-color:#7394F4"/>
			<stop  offset="1" style="stop-color:#70CBFF"/>
		</linearGradient>
		<path fill="url(#SVGID_9_)" d="M224.638,132.486c10.032-0.692,17.649-8.398,17.014-17.214c-0.638-8.816-7.857-20.252-17.91-20.447
			c-10.902-0.208-19.053,14.135-18.416,22.952C205.959,126.593,214.607,133.181,224.638,132.486z"/>
		<linearGradient id="SVGID_10_" gradientUnits="userSpaceOnUse" x1="193.2588" y1="96.519" x2="193.8507" y2="121.9726">
			<stop  offset="0" style="stop-color:#7394F4"/>
			<stop  offset="1" style="stop-color:#70CBFF"/>
		</linearGradient>
		<path fill="url(#SVGID_10_)" d="M203.979,118.56c5.688-5.439,10.869-15.635,10.356-23.428c-15.977,0.85-29.718,3.645-41.495,7.912
			c-1.288,5.737,0.166,11.795,4.479,16.107C184.345,126.184,196.284,125.92,203.979,118.56z"/>
		<linearGradient id="SVGID_11_" gradientUnits="userSpaceOnUse" x1="251.0991" y1="95.1963" x2="251.6959" y2="120.8579">
			<stop  offset="0" style="stop-color:#7394F4"/>
			<stop  offset="1" style="stop-color:#70CBFF"/>
		</linearGradient>
		<path fill="url(#SVGID_11_)" d="M271.154,115.595c2.795-3.95,3.607-8.688,2.697-13.202c-11.715-4.425-29.043-7.255-45.624-7.567
			c3.419,7.524,9.58,19.838,16.54,24.555C253.612,125.369,265.43,123.677,271.154,115.595z"/>
		<linearGradient id="SVGID_12_" gradientUnits="userSpaceOnUse" x1="223.2275" y1="96.4609" x2="223.7634" y2="119.5024">
			<stop  offset="0" style="stop-color:#7394F4"/>
			<stop  offset="1" style="stop-color:#4FBFFF"/>
		</linearGradient>
		<path fill="url(#SVGID_12_)" d="M224.351,121.464c6.99-0.484,12.296-5.853,11.854-11.995c-0.444-6.141-6.121-14.291-13.105-13.808
			c-6.992,0.484-12.646,9.414-12.205,15.553C211.34,117.354,217.362,121.946,224.351,121.464z"/>
		<linearGradient id="SVGID_13_" gradientUnits="userSpaceOnUse" x1="203.1982" y1="95.6802" x2="203.5947" y2="112.7284">
			<stop  offset="0" style="stop-color:#7394F4"/>
			<stop  offset="1" style="stop-color:#4FBFFF"/>
		</linearGradient>
		<path fill="url(#SVGID_13_)" d="M209.046,111.038c4.256-3.474,9.695-10.772,9.778-16.213c-11.141-0.27-22.111,1.432-30.529,3.761
			c-1.219,3.914-0.548,8.198,2.204,11.428C194.984,115.276,203.29,115.733,209.046,111.038z"/>
		<linearGradient id="SVGID_14_" gradientUnits="userSpaceOnUse" x1="245.5327" y1="95.0503" x2="245.942" y2="112.6513">
			<stop  offset="0" style="stop-color:#7394F4"/>
			<stop  offset="1" style="stop-color:#4FBFFF"/>
		</linearGradient>
		<path fill="url(#SVGID_14_)" d="M260.604,108.347c1.783-2.854,2.158-6.183,1.336-9.287c-8.329-2.615-21.526-4.669-33.07-4.234
			c1.494,5.227,8.508,14.189,13.541,17.192C248.807,115.838,256.955,114.194,260.604,108.347z"/>
		<linearGradient id="SVGID_15_" gradientUnits="userSpaceOnUse" x1="224.2471" y1="94.6729" x2="224.5276" y2="106.7342">
			<stop  offset="0" style="stop-color:#D5A3F4"/>
			<stop  offset="0.142" style="stop-color:#CFA4F4"/>
			<stop  offset="0.3272" style="stop-color:#BFA8F6"/>
			<stop  offset="0.5362" style="stop-color:#A4ADF8"/>
			<stop  offset="0.7628" style="stop-color:#7EB5FB"/>
			<stop  offset="1" style="stop-color:#4FBFFF"/>
		</linearGradient>
		<path opacity="0.74" fill="url(#SVGID_15_)" d="M246.19,95.748c-11.781-1.354-21.226-1.603-28.653-1.331
			c-5.209,0.191-10.405,0.759-15.167,1.331c0,0,0,0.557,0,0.649c0,6.285,9.756,11.533,21.795,11.385
			C243.146,107.55,246.202,95.891,246.19,95.748z"/>
		<linearGradient id="SVGID_16_" gradientUnits="userSpaceOnUse" x1="255.9604" y1="216.7588" x2="256.4905" y2="239.5513">
			<stop  offset="0" style="stop-color:#D5A3F4"/>
			<stop  offset="0.142" style="stop-color:#CFA4F4"/>
			<stop  offset="0.3272" style="stop-color:#BFA8F6"/>
			<stop  offset="0.5362" style="stop-color:#A4ADF8"/>
			<stop  offset="0.7628" style="stop-color:#7EB5FB"/>
			<stop  offset="1" style="stop-color:#4FBFFF"/>
		</linearGradient>
		<path opacity="0.54" fill="url(#SVGID_16_)" d="M271.953,228.739c0-7.06-7.033-12.785-15.716-12.785
			c-8.677,0-15.712,5.726-15.712,12.785s7.035,12.782,15.712,12.782C264.92,241.521,271.953,235.799,271.953,228.739z"/>
		<linearGradient id="SVGID_17_" gradientUnits="userSpaceOnUse" x1="197.0288" y1="218.353" x2="197.5588" y2="241.1447">
			<stop  offset="0" style="stop-color:#D5A3F4"/>
			<stop  offset="0.142" style="stop-color:#CFA4F4"/>
			<stop  offset="0.3272" style="stop-color:#BFA8F6"/>
			<stop  offset="0.5362" style="stop-color:#A4ADF8"/>
			<stop  offset="0.7628" style="stop-color:#7EB5FB"/>
			<stop  offset="1" style="stop-color:#4FBFFF"/>
		</linearGradient>
		<path opacity="0.54" fill="url(#SVGID_17_)" d="M197.305,243.115c8.68,0,15.718-5.721,15.718-12.783
			c0-7.062-7.038-12.783-15.718-12.783c-8.676,0-15.712,5.722-15.712,12.783C181.593,237.395,188.629,243.115,197.305,243.115z"/>
		<path fill="#6157C4" d="M227.129,237.4c0.354,0,0.711-0.01,1.068-0.03c6.15-0.336,10.884-3.473,12.667-8.392
			c0.139-0.38-0.064-0.798-0.452-0.934c-0.395-0.141-0.819,0.063-0.958,0.445c-1.575,4.34-5.817,7.114-11.34,7.417
			c-5.144,0.27-11.516-1.811-14.161-7.118c-0.184-0.366-0.629-0.515-1.004-0.338c-0.371,0.176-0.525,0.613-0.344,0.979
			C215.023,234.283,220.771,237.4,227.129,237.4z"/>
		<path fill="#6157C4" d="M242.639,229.473c0.071,0,0.143-0.002,0.216-0.007c0.411-0.021,0.725-0.365,0.701-0.771
			c-0.02-0.404-0.37-0.742-0.786-0.691c-1.407,0.042-2.717-1.213-3.559-2.304c-0.247-0.32-0.716-0.384-1.048-0.146
			c-0.333,0.245-0.395,0.704-0.147,1.027C239.492,228.503,241.048,229.473,242.639,229.473z"/>
		<path fill="#6157C4" d="M210.336,230.546c0.12,0,0.241-0.027,0.356-0.089c0.245-0.132,0.511-0.232,0.782-0.335
			c0.554-0.215,1.177-0.452,1.766-0.931c0.371-0.305,0.666-0.723,0.927-1.088c0.139-0.197,0.34-0.483,0.457-0.584
			c0.353-0.044,0.632-0.334,0.655-0.691c0.021-0.406-0.299-0.746-0.711-0.77c-0.764-0.074-1.202,0.597-1.633,1.213
			c-0.215,0.305-0.438,0.619-0.65,0.793c-0.404,0.325-0.87,0.506-1.359,0.692c-0.332,0.13-0.651,0.256-0.952,0.416
			c-0.363,0.192-0.496,0.638-0.298,0.994C209.81,230.41,210.068,230.546,210.336,230.546z"/>
		<path fill="#6157C4" d="M268.953,171.475c0.537,0.104,1.129,0.219,1.781,0.219c0.174,0,0.354-0.006,0.537-0.027
			c3.303-0.347,6.49-1.574,9.742-3.763c0.514-0.345,0.641-1.027,0.289-1.526c-0.35-0.501-1.047-0.625-1.563-0.284
			c-2.936,1.975-5.785,3.084-8.711,3.39c-0.523,0.057-1.037-0.048-1.637-0.163c-0.58-0.117-1.244-0.243-1.953-0.22
			c-0.619,0.023-1.102,0.531-1.082,1.137c0.023,0.61,0.564,1.067,1.166,1.063C267.984,171.28,268.449,171.374,268.953,171.475z"/>
		<path fill="#6157C4" d="M286.6,176.352c0.473-0.396,0.531-1.085,0.127-1.551c-0.402-0.46-1.109-0.516-1.586-0.122
			c-2.779,2.317-12.131-0.229-14.893-2.84c-0.443-0.42-1.154-0.413-1.588,0.026c-0.436,0.435-0.418,1.132,0.025,1.553
			c2.199,2.083,8.131,4.357,12.875,4.357C283.582,177.775,285.389,177.362,286.6,176.352z"/>
		<path fill="#6157C4" d="M282.072,184.515c1.387,0.389,3.039,0.678,4.58,0.678c1.279,0,2.479-0.199,3.383-0.705
			c0.539-0.296,0.73-0.969,0.42-1.496c-0.305-0.526-0.994-0.711-1.531-0.408c-1.105,0.614-3.67,0.544-6.229-0.177
			c-2.461-0.693-4.432-1.841-5.021-2.92c-0.291-0.533-0.971-0.736-1.52-0.447c-0.547,0.283-0.754,0.952-0.459,1.486
			C276.979,182.866,280.58,184.098,282.072,184.515z"/>
		<path fill="#6157C4" d="M291.541,190.773c0.461-0.404,0.504-1.096,0.092-1.551c-0.414-0.454-1.123-0.495-1.59-0.091
			c-1.93,1.683-8.943,0.123-10.982-1.612c-0.465-0.4-1.174-0.352-1.584,0.107c-0.406,0.456-0.355,1.148,0.113,1.549
			c1.66,1.416,5.939,2.848,9.52,2.848C288.895,192.023,290.51,191.669,291.541,190.773z"/>
		<path fill="#6157C4" d="M274.576,206.437c1.904-0.33,4.693,2.086,5.299,4.045c0.145,0.477,0.592,0.783,1.074,0.783
			c0.107,0,0.217-0.013,0.326-0.046c0.594-0.174,0.932-0.786,0.75-1.37c-0.811-2.637-4.445-6.15-7.826-5.579
			c-0.611,0.101-1.023,0.668-0.918,1.268C273.389,206.135,273.957,206.543,274.576,206.437z"/>
		<path fill="#6157C4" d="M274.838,215.738c0.07,0.011,0.139,0.018,0.209,0.018c0.529,0,1.004-0.369,1.102-0.896
			c0.41-2.139-1.398-4.608-3.396-5.945c-1.799-1.2-3.568-1.434-4.865-0.643c-0.523,0.316-0.686,0.997-0.357,1.513
			c0.328,0.517,1.021,0.671,1.547,0.352c0.48-0.296,1.428-0.062,2.406,0.595c1.523,1.017,2.648,2.725,2.455,3.725
			C273.824,215.054,274.229,215.625,274.838,215.738z"/>
		<path fill="#6157C4" d="M253.605,209.512c7.963,0.161,16.553,0.625,21.629-4.243c2.18-2.088,3.824-5.775,4.514-9.461
			c1.418-7.584,0.908-15.429-2.639-22.505c-2.912-5.819-12.27-7.547-18.156-4.85c-6.153,2.823-10.663,7.266-13.816,12.929
			c-3.583,6.432-4.514,14.995-3.462,22.17C242.426,208.695,249.003,209.422,253.605,209.512z"/>
		<path fill="#F0F1F2" d="M253.294,212.447c7.765,0.159,15.884-0.933,20.825-5.803c2.129-2.088,3.666-4.877,4.338-8.564
			c1.383-7.583,1.205-14.772-2.25-21.844c-2.84-5.825-11.961-7.553-17.699-4.854c-6.001,2.82-10.396,7.268-13.47,12.93
			c-3.492,6.432-3.722,14.515-2.697,21.686C243.077,211.146,248.807,212.354,253.294,212.447z"/>
		<path fill="#14017C" d="M258.646,212.409c11.871-0.488,16.494-8.655,16.494-19.338c0-10.679-7.385-19.336-16.494-19.336
			c-9.106,0-14.641,8.816-16.49,19.336c-1.187,6.733-0.762,12.806,1.334,15.7C246.688,213.199,253.148,212.636,258.646,212.409z"/>
		
			<radialGradient id="SVGID_18_" cx="494.9365" cy="280.4053" r="16.7634" gradientTransform="matrix(1.0716 0 0 1.048 -272.8738 -100.1485)" gradientUnits="userSpaceOnUse">
			<stop  offset="0" style="stop-color:#0086D4"/>
			<stop  offset="0.2523" style="stop-color:#038AD6"/>
			<stop  offset="0.4801" style="stop-color:#0B95DB"/>
			<stop  offset="0.6986" style="stop-color:#1AA7E4"/>
			<stop  offset="0.9099" style="stop-color:#2EC1F1"/>
			<stop  offset="1" style="stop-color:#38CEF8"/>
		</radialGradient>
		<path fill="url(#SVGID_18_)" d="M257.82,212.414c11.186-0.433,16.238-8.404,16.238-18.771c0-10.366-7.268-18.769-16.238-18.769
			c-8.97,0-14.414,8.555-16.238,18.769c-1.169,6.536-0.749,12.428,1.313,15.243C246.045,213.181,252.403,212.624,257.82,212.414z"/>
		
			<radialGradient id="SVGID_19_" cx="489.0322" cy="283.957" r="14.0877" gradientTransform="matrix(1.0716 0 0 1.048 -272.8738 -100.1485)" gradientUnits="userSpaceOnUse">
			<stop  offset="0" style="stop-color:#000000"/>
			<stop  offset="1" style="stop-color:#13007C"/>
		</radialGradient>
		<path fill="url(#SVGID_19_)" d="M249.36,212.318c6.63,0.506,12.626-1.136,16.118-7.126c1.725-2.958,2.734-7.202,2.178-10.505
			c-0.611-3.641-2.092-7.136-4.307-9.483c-3.25-3.438-8.793-6.135-13.621-4.897c-5.787,1.476-7.259,8.357-8.146,13.336
			c-0.79,4.419-1.479,10.203,0.771,14.359C243.588,210.302,246.763,212.121,249.36,212.318z"/>
		
			<radialGradient id="SVGID_20_" cx="493.0957" cy="273.5586" r="4.9389" gradientTransform="matrix(1.0716 0 0 1.0282 -272.8738 -94.7206)" gradientUnits="userSpaceOnUse">
			<stop  offset="0" style="stop-color:#FFFFFF"/>
			<stop  offset="0.3962" style="stop-color:#FDFDFE"/>
			<stop  offset="0.5389" style="stop-color:#F7F6F9"/>
			<stop  offset="0.6406" style="stop-color:#EBEBF0"/>
			<stop  offset="0.7229" style="stop-color:#DBDAE4"/>
			<stop  offset="0.7934" style="stop-color:#C6C4D5"/>
			<stop  offset="0.8558" style="stop-color:#ACA8C1"/>
			<stop  offset="0.9122" style="stop-color:#8D88AA"/>
			<stop  offset="0.9624" style="stop-color:#6A6490"/>
			<stop  offset="1" style="stop-color:#4B4379"/>
		</radialGradient>
		<ellipse fill="url(#SVGID_20_)" cx="255.527" cy="186.621" rx="5.432" ry="5.311"/>
		
			<radialGradient id="SVGID_21_" cx="498.5029" cy="287.5273" r="3.8191" gradientTransform="matrix(1.0716 0 0 1.0282 -272.8738 -94.4435)" gradientUnits="userSpaceOnUse">
			<stop  offset="0" style="stop-color:#FFFFFF"/>
			<stop  offset="0.3962" style="stop-color:#FDFDFE"/>
			<stop  offset="0.5389" style="stop-color:#F7F6F9"/>
			<stop  offset="0.6406" style="stop-color:#EBEBF0"/>
			<stop  offset="0.7229" style="stop-color:#DBDAE4"/>
			<stop  offset="0.7934" style="stop-color:#C6C4D5"/>
			<stop  offset="0.8558" style="stop-color:#ACA8C1"/>
			<stop  offset="0.9122" style="stop-color:#8D88AA"/>
			<stop  offset="0.9624" style="stop-color:#6A6490"/>
			<stop  offset="1" style="stop-color:#4B4379"/>
		</radialGradient>
		<path fill="url(#SVGID_21_)" d="M265.521,201.244c0-2.27-1.881-4.11-4.203-4.11c-2.318,0-4.197,1.841-4.197,4.11
			c0,2.266,1.879,4.107,4.197,4.107C263.641,205.352,265.521,203.51,265.521,201.244z"/>
		<path fill="#6157C4" d="M271.641,147.54c0.234,0,0.475-0.053,0.697-0.171l0.16-0.082c0.15-0.077,0.367-0.193,0.539-0.269
			c0.459,0.531,1.25,0.684,1.891,0.327c0.717-0.403,0.967-1.299,0.555-1.997c-0.879-1.502-2.359-1.717-4.402-0.643l-0.145,0.075
			c-0.73,0.378-1.008,1.266-0.619,1.98C270.586,147.257,271.1,147.54,271.641,147.54z"/>
		<path fill="#6157C4" d="M177.733,148.117c0.238,0,0.479-0.055,0.701-0.17l0.158-0.08c0.15-0.082,0.366-0.192,0.539-0.271
			c0.458,0.53,1.252,0.685,1.894,0.327c0.716-0.403,0.964-1.297,0.553-1.999c-0.878-1.5-2.356-1.713-4.401-0.642l-0.145,0.076
			c-0.731,0.378-1.008,1.266-0.621,1.98C176.682,147.834,177.2,148.117,177.733,148.117z"/>
		<linearGradient id="SVGID_22_" gradientUnits="userSpaceOnUse" x1="161.4609" y1="92.1631" x2="206.6465" y2="170.1562">
			<stop  offset="0" style="stop-color:#FFFFFF;stop-opacity:0.6727"/>
			<stop  offset="0.5939" style="stop-color:#FFFFFF;stop-opacity:0"/>
		</linearGradient>
		<path fill="url(#SVGID_22_)" d="M175.441,133.698c27.805-14.481,53.449-16.448,84.188-16.907
			c12.314-0.187,26.51-0.438,44.676,2.488c-22.225-20.272-59.371-25.317-86.963-24.299
			c-106.955,3.949-116.724,90.838-108.436,125.91l1.004-2.037c-0.63-16.613,14.78-37.364,23.688-50.786
			C143.092,153.765,160.371,141.548,175.441,133.698z"/>
		<path fill="#6157C4" d="M181.666,172.654c0.185,0.019,0.364,0.027,0.54,0.027c0.649,0,1.243-0.116,1.782-0.222
			c0.503-0.1,0.974-0.199,1.431-0.177c0.593,0.006,1.138-0.453,1.163-1.057c0.021-0.607-0.463-1.118-1.083-1.142
			c-0.716-0.021-1.374,0.107-1.954,0.22c-0.596,0.118-1.113,0.22-1.635,0.163c-2.925-0.306-5.775-1.415-8.713-3.387
			c-0.509-0.34-1.21-0.216-1.561,0.284c-0.354,0.501-0.225,1.183,0.286,1.525C175.176,171.075,178.366,172.307,181.666,172.654z"/>
		<path fill="#6157C4" d="M184.253,174.406c0.445-0.423,0.458-1.118,0.026-1.556s-1.142-0.446-1.588-0.026
			c-2.762,2.615-12.112,5.156-14.893,2.843c-0.473-0.396-1.181-0.337-1.587,0.124c-0.4,0.461-0.344,1.153,0.127,1.547
			c1.215,1.011,3.021,1.423,5.039,1.423C176.124,178.761,182.055,176.489,184.253,174.406z"/>
		<path fill="#6157C4" d="M166.289,186.182c1.539,0,3.188-0.292,4.577-0.678c1.492-0.42,5.095-1.651,6.381-3.99
			c0.293-0.538,0.085-1.203-0.463-1.489c-0.546-0.286-1.227-0.086-1.519,0.45c-0.593,1.078-2.563,2.223-5.021,2.919
			c-2.559,0.72-5.121,0.789-6.229,0.176c-0.537-0.302-1.227-0.116-1.531,0.408c-0.31,0.527-0.122,1.197,0.418,1.498
			C163.81,185.982,165.007,186.182,166.289,186.182z"/>
		<path fill="#6157C4" d="M175.353,190.163c0.466-0.396,0.517-1.09,0.109-1.551c-0.411-0.456-1.119-0.503-1.587-0.104
			c-2.036,1.735-9.05,3.295-10.981,1.614c-0.464-0.406-1.177-0.361-1.587,0.086c-0.411,0.458-0.369,1.148,0.095,1.552
			c1.028,0.896,2.642,1.252,4.431,1.252C169.412,193.012,173.691,191.578,175.353,190.163z"/>
		<path fill="#6157C4" d="M171.989,212.252c0.481,0,0.93-0.307,1.077-0.78c0.603-1.966,3.375-4.388,5.296-4.049
			c0.614,0.112,1.192-0.299,1.297-0.897c0.104-0.6-0.31-1.167-0.92-1.268c-3.38-0.572-7.017,2.942-7.829,5.58
			c-0.173,0.58,0.161,1.194,0.756,1.369C171.774,212.238,171.882,212.252,171.989,212.252z"/>
		<path fill="#6157C4" d="M181.456,211.717c0.98-0.653,1.929-0.884,2.406-0.596c0.526,0.325,1.22,0.167,1.547-0.351
			c0.327-0.514,0.168-1.193-0.359-1.512c-1.296-0.792-3.067-0.557-4.862,0.646c-1.998,1.332-3.807,3.801-3.398,5.941
			c0.103,0.528,0.572,0.896,1.104,0.896c0.071,0,0.141-0.008,0.21-0.017c0.609-0.113,1.011-0.686,0.897-1.282
			C178.806,214.439,179.933,212.736,181.456,211.717z"/>
		<path fill="#6157C4" d="M199.334,210.502c4.604-0.092,11.177-0.816,11.933-5.966c1.051-7.169,0.12-15.736-3.464-22.167
			c-3.152-5.661-7.661-10.108-13.817-12.931c-5.888-2.695-14.582-0.607-18.16,4.854c-4.337,6.621-4.496,15.679-3.079,23.262
			c0.689,3.689,2.568,7.688,4.751,9.784C182.569,212.203,191.369,210.661,199.334,210.502z"/>
		<path fill="#F0F1F2" d="M199.648,213.433c4.484-0.091,10.434-1.262,11.167-6.408c1.024-7.171,0.579-15.295-2.913-21.726
			c-3.075-5.659-7.472-10.105-13.471-12.926c-5.736-2.7-14.86-0.974-17.7,4.849c-3.452,7.072-3.633,14.262-2.248,21.845
			c0.669,3.689,2.208,6.48,4.337,8.568C183.764,212.503,191.883,213.595,199.648,213.433z"/>
		<path fill="#14017C" d="M208.965,209.743c2.063-2.913,2.482-9.009,1.313-15.777c-1.822-10.568-7.27-19.43-16.237-19.43
			c-8.97,0-16.354,8.706-16.354,19.438c0,10.729,2.217,18.94,16.354,19.421C199.458,213.577,205.816,214.188,208.965,209.743z"/>
		
			<radialGradient id="SVGID_23_" cx="439.2041" cy="282.2129" r="16.7618" gradientTransform="matrix(1.0716 0 0 1.1995 -272.8738 -142.9094)" gradientUnits="userSpaceOnUse">
			<stop  offset="0" style="stop-color:#0086D4"/>
			<stop  offset="0.2523" style="stop-color:#038AD6"/>
			<stop  offset="0.4801" style="stop-color:#0B95DB"/>
			<stop  offset="0.6986" style="stop-color:#1AA7E4"/>
			<stop  offset="0.9099" style="stop-color:#2EC1F1"/>
			<stop  offset="1" style="stop-color:#38CEF8"/>
		</radialGradient>
		<path fill="url(#SVGID_23_)" d="M210.045,209.869c2.063-2.811,2.479-8.702,1.313-15.241c-1.824-10.212-7.27-18.769-16.24-18.769
			c-8.969,0-16.238,8.402-16.238,18.769c0,10.369,3.119,18.332,16.238,18.773C200.539,213.584,206.896,214.168,210.045,209.869z"/>
		
			<radialGradient id="SVGID_24_" cx="439.959" cy="284.5117" r="14.3539" gradientTransform="matrix(1.0716 0 0 1.048 -272.8738 -100.1485)" gradientUnits="userSpaceOnUse">
			<stop  offset="0" style="stop-color:#000000"/>
			<stop  offset="1" style="stop-color:#13007C"/>
		</radialGradient>
		<path fill="url(#SVGID_24_)" d="M200.747,213.452c1.408-0.108,3.938-0.071,6.039-0.986c1.787-0.777,3.233-2.418,3.805-3.477
			c2.241-4.156,1.559-9.94,0.767-14.361c-0.888-4.975-3.555-12.259-10.357-13.458c-7.771-1.363-10.694,1.108-13.828,5.324
			c-1.923,2.579-4.988,10.952-0.785,19.147C189.552,211.809,194.119,213.957,200.747,213.452z"/>
		
			<radialGradient id="SVGID_25_" cx="438.8115" cy="273.7998" r="4.9384" gradientTransform="matrix(1.0716 0 0 1.0282 -272.8738 -94.7159)" gradientUnits="userSpaceOnUse">
			<stop  offset="0" style="stop-color:#FFFFFF"/>
			<stop  offset="0.3962" style="stop-color:#FDFDFE"/>
			<stop  offset="0.5389" style="stop-color:#F7F6F9"/>
			<stop  offset="0.6406" style="stop-color:#EBEBF0"/>
			<stop  offset="0.7229" style="stop-color:#DBDAE4"/>
			<stop  offset="0.7934" style="stop-color:#C6C4D5"/>
			<stop  offset="0.8558" style="stop-color:#ACA8C1"/>
			<stop  offset="0.9122" style="stop-color:#8D88AA"/>
			<stop  offset="0.9624" style="stop-color:#6A6490"/>
			<stop  offset="1" style="stop-color:#4B4379"/>
		</radialGradient>
		<ellipse fill="url(#SVGID_25_)" cx="197.356" cy="186.875" rx="5.432" ry="5.312"/>
		
			<radialGradient id="SVGID_26_" cx="447.2168" cy="288.4375" r="3.8196" gradientTransform="matrix(1.0716 0 0 1.0282 -272.8738 -94.4254)" gradientUnits="userSpaceOnUse">
			<stop  offset="0" style="stop-color:#FFFFFF"/>
			<stop  offset="0.3962" style="stop-color:#FDFDFE"/>
			<stop  offset="0.5389" style="stop-color:#F7F6F9"/>
			<stop  offset="0.6406" style="stop-color:#EBEBF0"/>
			<stop  offset="0.7229" style="stop-color:#DBDAE4"/>
			<stop  offset="0.7934" style="stop-color:#C6C4D5"/>
			<stop  offset="0.8558" style="stop-color:#ACA8C1"/>
			<stop  offset="0.9122" style="stop-color:#8D88AA"/>
			<stop  offset="0.9624" style="stop-color:#6A6490"/>
			<stop  offset="1" style="stop-color:#4B4379"/>
		</radialGradient>
		<path fill="url(#SVGID_26_)" d="M210.563,202.201c0-2.271-1.882-4.112-4.197-4.112c-2.319,0-4.203,1.841-4.203,4.112
			c0,2.264,1.884,4.105,4.203,4.105C208.682,206.307,210.563,204.465,210.563,202.201z"/>
		<linearGradient id="SVGID_27_" gradientUnits="userSpaceOnUse" x1="226.5732" y1="362.3691" x2="230.1299" y2="362.3691">
			<stop  offset="0" style="stop-color:#FFFFFF"/>
			<stop  offset="1" style="stop-color:#00A0C6"/>
		</linearGradient>
		<path opacity="0.3" fill="url(#SVGID_27_)" d="M230.13,362.37c0-0.964-0.798-1.741-1.776-1.741c-0.982,0-1.78,0.777-1.78,1.741
			c0,0.957,0.798,1.738,1.78,1.738C229.332,364.108,230.13,363.327,230.13,362.37z"/>
		<linearGradient id="SVGID_28_" gradientUnits="userSpaceOnUse" x1="265.9551" y1="351.3535" x2="269.5117" y2="351.3535">
			<stop  offset="0" style="stop-color:#FFFFFF"/>
			<stop  offset="1" style="stop-color:#00A0C6"/>
		</linearGradient>
		<path opacity="0.3" fill="url(#SVGID_28_)" d="M269.512,351.356c0-0.962-0.797-1.741-1.777-1.741s-1.779,0.779-1.779,1.741
			c0,0.957,0.799,1.736,1.779,1.736S269.512,352.313,269.512,351.356z"/>
		<linearGradient id="SVGID_29_" gradientUnits="userSpaceOnUse" x1="227.8467" y1="350.4229" x2="232.6748" y2="350.4229">
			<stop  offset="0" style="stop-color:#FFFFFF"/>
			<stop  offset="1" style="stop-color:#00A0C6"/>
		</linearGradient>
		<path opacity="0.3" fill="url(#SVGID_29_)" d="M232.675,350.421c0-1.301-1.077-2.357-2.413-2.357
			c-1.333,0-2.415,1.057-2.415,2.357c0,1.307,1.082,2.361,2.415,2.361C231.598,352.782,232.675,351.728,232.675,350.421z"/>
		<linearGradient id="SVGID_30_" gradientUnits="userSpaceOnUse" x1="261.7617" y1="341.0762" x2="266.5879" y2="341.0762">
			<stop  offset="0" style="stop-color:#FFFFFF"/>
			<stop  offset="1" style="stop-color:#00A0C6"/>
		</linearGradient>
		<path opacity="0.3" fill="url(#SVGID_30_)" d="M266.588,341.071c0-1.301-1.08-2.356-2.416-2.356c-1.332,0-2.41,1.056-2.41,2.356
			c0,1.307,1.078,2.365,2.41,2.365C265.508,343.437,266.588,342.378,266.588,341.071z"/>
		<linearGradient id="SVGID_31_" gradientUnits="userSpaceOnUse" x1="232.6191" y1="338.7305" x2="238.0791" y2="338.7305">
			<stop  offset="0" style="stop-color:#FFFFFF"/>
			<stop  offset="1" style="stop-color:#00A0C6"/>
		</linearGradient>
		<path opacity="0.3" fill="url(#SVGID_31_)" d="M238.079,338.729c0-1.473-1.221-2.668-2.728-2.668
			c-1.514,0-2.732,1.195-2.732,2.668c0,1.48,1.219,2.672,2.732,2.672C236.858,341.4,238.079,340.209,238.079,338.729z"/>
		<linearGradient id="SVGID_32_" gradientUnits="userSpaceOnUse" x1="236.4336" y1="326.0068" x2="242.8545" y2="326.0068">
			<stop  offset="0" style="stop-color:#FFFFFF"/>
			<stop  offset="1" style="stop-color:#00A0C6"/>
		</linearGradient>
		<path opacity="0.3" fill="url(#SVGID_32_)" d="M242.854,326.004c0-1.732-1.437-3.137-3.213-3.137
			c-1.774,0-3.208,1.404-3.208,3.137c0,1.731,1.434,3.143,3.208,3.143C241.418,329.146,242.854,327.735,242.854,326.004z"/>
		<linearGradient id="SVGID_33_" gradientUnits="userSpaceOnUse" x1="260.3301" y1="326.0068" x2="266.748" y2="326.0068">
			<stop  offset="0" style="stop-color:#FFFFFF"/>
			<stop  offset="1" style="stop-color:#00A0C6"/>
		</linearGradient>
		<ellipse opacity="0.3" fill="url(#SVGID_33_)" cx="263.539" cy="326.004" rx="3.209" ry="3.137"/>
		<linearGradient id="SVGID_34_" gradientUnits="userSpaceOnUse" x1="238.6289" y1="309.5596" x2="247.5908" y2="309.5596">
			<stop  offset="0" style="stop-color:#FFFFFF"/>
			<stop  offset="1" style="stop-color:#00A0C6"/>
		</linearGradient>
		<path opacity="0.3" fill="url(#SVGID_34_)" d="M247.591,309.56c0-2.422-2.007-4.383-4.484-4.383c-2.473,0-4.478,1.961-4.478,4.383
			c0,2.418,2.005,4.383,4.478,4.383C245.584,313.942,247.591,311.978,247.591,309.56z"/>
		<linearGradient id="SVGID_35_" gradientUnits="userSpaceOnUse" x1="262.5703" y1="307.9521" x2="271.5313" y2="307.9521">
			<stop  offset="0" style="stop-color:#FFFFFF"/>
			<stop  offset="1" style="stop-color:#00A0C6"/>
		</linearGradient>
		<path opacity="0.3" fill="url(#SVGID_35_)" d="M271.531,307.947c0-2.421-2.006-4.378-4.482-4.378
			c-2.471,0-4.479,1.957-4.479,4.378c0,2.422,2.008,4.388,4.479,4.388C269.525,312.335,271.531,310.369,271.531,307.947z"/>
		<linearGradient id="SVGID_36_" gradientUnits="userSpaceOnUse" x1="239.2959" y1="293.0371" x2="245.7158" y2="293.0371">
			<stop  offset="0" style="stop-color:#FFFFFF"/>
			<stop  offset="1" style="stop-color:#00A0C6"/>
		</linearGradient>
		<path opacity="0.3" fill="url(#SVGID_36_)" d="M245.716,293.038c0-1.733-1.438-3.139-3.209-3.139
			c-1.776,0-3.211,1.405-3.211,3.139c0,1.732,1.435,3.137,3.211,3.137C244.278,296.175,245.716,294.771,245.716,293.038z"/>
		<linearGradient id="SVGID_37_" gradientUnits="userSpaceOnUse" x1="267.252" y1="290.1445" x2="273.6738" y2="290.1445">
			<stop  offset="0" style="stop-color:#FFFFFF"/>
			<stop  offset="1" style="stop-color:#00A0C6"/>
		</linearGradient>
		<path opacity="0.3" fill="url(#SVGID_37_)" d="M273.674,290.146c0-1.734-1.436-3.139-3.207-3.139
			c-1.775,0-3.215,1.404-3.215,3.139c0,1.729,1.439,3.137,3.215,3.137C272.238,293.282,273.674,291.875,273.674,290.146z"/>
		<linearGradient id="SVGID_38_" gradientUnits="userSpaceOnUse" x1="266.3457" y1="274.1152" x2="271.3984" y2="274.1152">
			<stop  offset="0" style="stop-color:#FFFFFF"/>
			<stop  offset="1" style="stop-color:#00A0C6"/>
		</linearGradient>
		<path opacity="0.3" fill="url(#SVGID_38_)" d="M271.398,274.117c0-1.365-1.131-2.473-2.523-2.473
			c-1.398,0-2.529,1.107-2.529,2.473c0,1.363,1.131,2.47,2.529,2.47C270.268,276.587,271.398,275.48,271.398,274.117z"/>
		<linearGradient id="SVGID_39_" gradientUnits="userSpaceOnUse" x1="234.5244" y1="277.8242" x2="239.9883" y2="277.8242">
			<stop  offset="0" style="stop-color:#FFFFFF"/>
			<stop  offset="1" style="stop-color:#00A0C6"/>
		</linearGradient>
		<ellipse opacity="0.2" fill="url(#SVGID_39_)" cx="237.256" cy="277.825" rx="2.732" ry="2.674"/>
		<linearGradient id="SVGID_40_" gradientUnits="userSpaceOnUse" x1="227.0947" y1="266.9219" x2="232.5566" y2="266.9219">
			<stop  offset="0" style="stop-color:#FFFFFF"/>
			<stop  offset="1" style="stop-color:#00A0C6"/>
		</linearGradient>
		<path opacity="0.15" fill="url(#SVGID_40_)" d="M232.557,266.921c0-1.473-1.22-2.673-2.73-2.673c-1.507,0-2.731,1.2-2.731,2.673
			c0,1.477,1.225,2.676,2.731,2.676C231.337,269.597,232.557,268.397,232.557,266.921z"/>
		<linearGradient id="SVGID_41_" gradientUnits="userSpaceOnUse" x1="263.0059" y1="262.0713" x2="268.4668" y2="262.0713">
			<stop  offset="0" style="stop-color:#FFFFFF"/>
			<stop  offset="1" style="stop-color:#00A0C6"/>
		</linearGradient>
		<ellipse opacity="0.15" fill="url(#SVGID_41_)" cx="265.736" cy="262.071" rx="2.73" ry="2.674"/>
		<linearGradient id="SVGID_42_" gradientUnits="userSpaceOnUse" x1="223.3779" y1="255.7637" x2="228.8428" y2="255.7637">
			<stop  offset="0" style="stop-color:#FFFFFF"/>
			<stop  offset="1" style="stop-color:#00A0C6"/>
		</linearGradient>
		<ellipse opacity="0.1" fill="url(#SVGID_42_)" cx="226.11" cy="255.762" rx="2.732" ry="2.672"/>
		<linearGradient id="SVGID_43_" gradientUnits="userSpaceOnUse" x1="255.335" y1="252.1299" x2="260.7949" y2="252.1299">
			<stop  offset="0" style="stop-color:#FFFFFF"/>
			<stop  offset="1" style="stop-color:#00A0C6"/>
		</linearGradient>
		<path opacity="0.1" fill="url(#SVGID_43_)" d="M260.795,252.13c0-1.474-1.221-2.672-2.729-2.672c-1.512,0-2.731,1.198-2.731,2.672
			c0,1.477,1.22,2.672,2.731,2.672C259.574,254.802,260.795,253.606,260.795,252.13z"/>
		<linearGradient id="SVGID_44_" gradientUnits="userSpaceOnUse" x1="182.7441" y1="249.7178" x2="188.209" y2="249.7178">
			<stop  offset="0" style="stop-color:#FFFFFF"/>
			<stop  offset="1" style="stop-color:#00A0C6"/>
		</linearGradient>
		<path opacity="0.1" fill="url(#SVGID_44_)" d="M188.209,249.714c0-1.476-1.223-2.669-2.731-2.669c-1.51,0-2.733,1.193-2.733,2.669
			c0,1.478,1.224,2.677,2.733,2.677C186.986,252.391,188.209,251.191,188.209,249.714z"/>
		<path opacity="0.4" fill="#FFFFFF" d="M154.12,184.46c0-1.072-0.891-1.947-1.992-1.947c-1.099,0-1.993,0.875-1.993,1.947
			c0,1.074,0.895,1.949,1.993,1.949C153.229,186.409,154.12,185.534,154.12,184.46z"/>
		<path opacity="0.4" fill="#FFFFFF" d="M154.577,196.907c0-1.682-1.39-3.044-3.106-3.044c-1.716,0-3.106,1.362-3.106,3.044
			c0,1.675,1.391,3.038,3.106,3.038C153.188,199.945,154.577,198.582,154.577,196.907z"/>
		<ellipse opacity="0.4" fill="#FFFFFF" cx="156.7" cy="207.492" rx="1.992" ry="1.945"/>
		<path opacity="0.4" fill="#FFFFFF" d="M301.168,183.772c0-1.075-0.895-1.947-1.994-1.947c-1.098,0-1.992,0.872-1.992,1.947
			c0,1.077,0.895,1.947,1.992,1.947C300.273,185.72,301.168,184.85,301.168,183.772z"/>
		<path opacity="0.6" fill="#FFFFFF" d="M230.578,179.531c0-2.063-1.714-3.74-3.825-3.74c-2.117,0-3.829,1.678-3.829,3.74
			c0,2.072,1.712,3.747,3.829,3.747C228.864,183.278,230.578,181.604,230.578,179.531z"/>
		<path opacity="0.4" fill="#FFFFFF" d="M238.373,164.841c0-1.369-1.136-2.476-2.533-2.476c-1.395,0-2.53,1.106-2.53,2.476
			c0,1.368,1.136,2.477,2.53,2.477C237.237,167.317,238.373,166.209,238.373,164.841z"/>
		<ellipse opacity="0.4" fill="#FFFFFF" cx="247.326" cy="154.756" rx="1.992" ry="1.948"/>
		<ellipse opacity="0.4" fill="#FFFFFF" cx="216.202" cy="164.865" rx="2.639" ry="2.579"/>
		<ellipse opacity="0.4" fill="#FFFFFF" cx="204.593" cy="155.051" rx="1.992" ry="1.948"/>
		<ellipse opacity="0.4" fill="#FFFFFF" cx="299.843" cy="195.207" rx="2.733" ry="2.675"/>
		<path opacity="0.4" fill="#FFFFFF" d="M296.598,206.807c0-1.078-0.896-1.95-1.994-1.95c-1.1,0-1.996,0.872-1.996,1.95
			c0,1.074,0.896,1.946,1.996,1.946C295.701,208.753,296.598,207.881,296.598,206.807z"/>
		<path opacity="0.15" fill="#F5F5F5" d="M181.09,258.192c0-1.155-0.962-2.098-2.148-2.098c-1.186,0-2.148,0.942-2.148,2.098
			c0,1.162,0.963,2.102,2.148,2.102C180.128,260.294,181.09,259.354,181.09,258.192z"/>
		<linearGradient id="SVGID_45_" gradientUnits="userSpaceOnUse" x1="174.1055" y1="270.9688" x2="179.2559" y2="270.9688">
			<stop  offset="0" style="stop-color:#F3DCF9"/>
			<stop  offset="0.0952" style="stop-color:#E5D9F6"/>
			<stop  offset="0.2747" style="stop-color:#C1D0EE"/>
			<stop  offset="0.5192" style="stop-color:#86C1E2"/>
			<stop  offset="0.8162" style="stop-color:#35ADD1"/>
			<stop  offset="1" style="stop-color:#00A0C6"/>
		</linearGradient>
		<path opacity="0.3" fill="url(#SVGID_45_)" d="M179.256,270.968c0-1.392-1.15-2.519-2.574-2.519s-2.576,1.127-2.576,2.519
			c0,1.395,1.152,2.52,2.576,2.52S179.256,272.362,179.256,270.968z"/>
		<linearGradient id="SVGID_46_" gradientUnits="userSpaceOnUse" x1="173.8486" y1="284.7217" x2="179.2881" y2="284.7217">
			<stop  offset="0" style="stop-color:#F3DCF9"/>
			<stop  offset="0.0952" style="stop-color:#E5D9F6"/>
			<stop  offset="0.2747" style="stop-color:#C1D0EE"/>
			<stop  offset="0.5192" style="stop-color:#86C1E2"/>
			<stop  offset="0.8162" style="stop-color:#35ADD1"/>
			<stop  offset="1" style="stop-color:#00A0C6"/>
		</linearGradient>
		<ellipse opacity="0.3" fill="url(#SVGID_46_)" cx="176.568" cy="284.721" rx="2.72" ry="2.658"/>
		<linearGradient id="SVGID_47_" gradientUnits="userSpaceOnUse" x1="177.2822" y1="294.6582" x2="184.1514" y2="294.6582">
			<stop  offset="0" style="stop-color:#F3DCF9"/>
			<stop  offset="0.0952" style="stop-color:#E5D9F6"/>
			<stop  offset="0.2747" style="stop-color:#C1D0EE"/>
			<stop  offset="0.5192" style="stop-color:#86C1E2"/>
			<stop  offset="0.8162" style="stop-color:#35ADD1"/>
			<stop  offset="1" style="stop-color:#00A0C6"/>
		</linearGradient>
		<ellipse opacity="0.3" fill="url(#SVGID_47_)" cx="180.717" cy="294.66" rx="3.435" ry="3.359"/>
		<linearGradient id="SVGID_48_" gradientUnits="userSpaceOnUse" x1="182.7207" y1="308.2607" x2="191.0234" y2="308.2607">
			<stop  offset="0" style="stop-color:#F3DCF9"/>
			<stop  offset="0.0952" style="stop-color:#E5D9F6"/>
			<stop  offset="0.2747" style="stop-color:#C1D0EE"/>
			<stop  offset="0.5192" style="stop-color:#86C1E2"/>
			<stop  offset="0.8162" style="stop-color:#35ADD1"/>
			<stop  offset="1" style="stop-color:#00A0C6"/>
		</linearGradient>
		<path opacity="0.3" fill="url(#SVGID_48_)" d="M191.023,308.263c0-2.244-1.862-4.062-4.153-4.062
			c-2.292,0-4.149,1.817-4.149,4.062c0,2.242,1.857,4.058,4.149,4.058C189.161,312.32,191.023,310.505,191.023,308.263z"/>
		<linearGradient id="SVGID_49_" gradientUnits="userSpaceOnUse" x1="187.0166" y1="323.9102" x2="193.5947" y2="323.9102">
			<stop  offset="0" style="stop-color:#F3DCF9"/>
			<stop  offset="0.0952" style="stop-color:#E5D9F6"/>
			<stop  offset="0.2747" style="stop-color:#C1D0EE"/>
			<stop  offset="0.5192" style="stop-color:#86C1E2"/>
			<stop  offset="0.8162" style="stop-color:#35ADD1"/>
			<stop  offset="1" style="stop-color:#00A0C6"/>
		</linearGradient>
		<ellipse opacity="0.3" fill="url(#SVGID_49_)" cx="190.306" cy="323.912" rx="3.289" ry="3.222"/>
		
			<linearGradient id="SVGID_50_" gradientUnits="userSpaceOnUse" x1="225.2891" y1="208.2773" x2="230.3853" y2="208.2773" gradientTransform="matrix(0.985 0.1728 -0.1728 0.985 -0.7001 93.665)">
			<stop  offset="0" style="stop-color:#F3DCF9"/>
			<stop  offset="0.0952" style="stop-color:#E5D9F6"/>
			<stop  offset="0.2747" style="stop-color:#C1D0EE"/>
			<stop  offset="0.5192" style="stop-color:#86C1E2"/>
			<stop  offset="0.8162" style="stop-color:#35ADD1"/>
			<stop  offset="1" style="stop-color:#00A0C6"/>
		</linearGradient>
		<path opacity="0.3" fill="url(#SVGID_50_)" d="M190.241,338.617c0.243-1.357-0.682-2.647-2.072-2.884
			c-1.388-0.238-2.708,0.668-2.95,2.02c-0.244,1.359,0.683,2.652,2.071,2.891C188.676,340.88,189.996,339.975,190.241,338.617z"/>
		
			<linearGradient id="SVGID_51_" gradientUnits="userSpaceOnUse" x1="221.9932" y1="179.6953" x2="226.2822" y2="179.6953" gradientTransform="matrix(0.9753 0.221 -0.221 0.9753 2.1996 125.0143)">
			<stop  offset="0" style="stop-color:#F3DCF9"/>
			<stop  offset="0.0952" style="stop-color:#E5D9F6"/>
			<stop  offset="0.2747" style="stop-color:#C1D0EE"/>
			<stop  offset="0.5192" style="stop-color:#86C1E2"/>
			<stop  offset="0.8162" style="stop-color:#35ADD1"/>
			<stop  offset="1" style="stop-color:#00A0C6"/>
		</linearGradient>
		<path opacity="0.3" fill="url(#SVGID_51_)" d="M183.184,350.266c0.262-1.125-0.463-2.25-1.621-2.509
			c-1.154-0.255-2.304,0.454-2.567,1.584c-0.262,1.133,0.464,2.256,1.619,2.514C181.77,352.109,182.921,351.398,183.184,350.266z"/>
		<path opacity="0.3" fill="#FFFFFF" d="M224.744,109.739c18.644-0.947,36.795-0.933,57.184,1.933
			c-20.271-12.258-43.324-13.843-66.888-12.979c-34.285,1.257-71.998,17.926-89.458,48.21
			c-11.598,20.117-22.382,66.626-5.591,87.948C109.299,166.72,155.191,113.267,224.744,109.739z"/>
	</g>
</g>
</svg>
