<?xml version="1.0" encoding="utf-8"?>
<!-- Generator: Adobe Illustrator 15.1.0, SVG Export Plug-In . SVG Version: 6.00 Build 0)  -->
<!DOCTYPE svg PUBLIC "-//W3C//DTD SVG 1.1//EN" "http://www.w3.org/Graphics/SVG/1.1/DTD/svg11.dtd">
<svg version="1.1" id="Layer_1" xmlns="http://www.w3.org/2000/svg" xmlns:xlink="http://www.w3.org/1999/xlink" x="0px" y="0px"
	 width="512px" height="512px" viewBox="0 0 512 512" enable-background="new 0 0 512 512" xml:space="preserve">
<g>
	<g>
		<g>
			<ellipse fill="#9BB6D3" cx="202.376" cy="170.195" rx="45.304" ry="46.001"/>
			<path fill="#B8CDE2" d="M205.166,145.8c19.249,0,35.683,12.195,42.243,29.39c0.176-1.643,0.271-3.308,0.271-4.993
				c0-25.405-20.282-46.003-45.305-46.003c-25.021,0-45.306,20.598-45.306,46.003c0,5.86,1.091,11.458,3.061,16.613
				C162.581,163.753,181.805,145.8,205.166,145.8z"/>
			<circle fill="#E7F4FD" cx="209.346" cy="178.558" r="27.183"/>
			
				<radialGradient id="SVGID_1_" cx="292.5461" cy="507.5391" r="23" gradientTransform="matrix(1 0 0 1 -83.2002 -328.9805)" gradientUnits="userSpaceOnUse">
				<stop  offset="0" style="stop-color:#E0CDE2"/>
				<stop  offset="0.3867" style="stop-color:#E2D9EA"/>
				<stop  offset="1" style="stop-color:#E7F4FD"/>
			</radialGradient>
			<circle fill="url(#SVGID_1_)" cx="209.346" cy="178.559" r="23"/>
		</g>
		<path fill="#B8CDE2" d="M263.185,363.189c6.908,1.42,13.984,1.066,20.952,1.924c4.741,0.592,9.542,1.049,14.299,0.402
			c4.253-0.574,7.456-0.416,11.703-0.398c8.109,0.031,17.587-1.158,23.881-6.756c5.124-4.549,1.477-6.936,4.686-13.561
			c6.319-13.068,8.194-28.488,4.562-43.07c-2.729-10.926-8.28-20.627-15.901-28.578c-3.96-4.129-8.811-7.801-13.889-10.42
			c-10.607-5.469-20.343-7.287-30.568-0.525c-8.252,5.449-15.762,11.758-20.55,20.578c-3.249,5.986-4.53,12.857-4.801,19.611
			c-0.113,2.896,0.915,6.85,0.256,9.598c-0.644,2.674-3.017,3.092-4.929,4.67c-1.76,1.447-2.984,3.117-4.174,5.068
			c-2.38,3.91-3.424,7.043-4.52,11.463c-0.975,3.959-0.938,8.604-0.428,12.785C244.877,355.01,254.793,361.469,263.185,363.189z"/>
		<path fill="#B8CDE2" d="M290.508,285.73c-10.115,8.756-16.09,21.777-16.025,35.152c0.015,3.295,0.12,6.641,0.828,9.869
			c0.638,2.912,2.567,5.535,3.042,8.383c0.518,3.127-1.022,6.939-2.081,9.799c-1.233,3.346-1.16,6.732,0.59,9.924
			c3.063,5.594,10.392,7.859,16.212,8.857c13.107,2.254,25.884-1.598,38.931-1.4c9.396,0.143,20.507-6.025,26.563-13.102
			c9.297-10.865,12.707-26.063,9.911-39.963c-1.636-8.125-5.459-15.764-10.891-22.041
			C340.22,271.146,310.187,268.695,290.508,285.73z"/>
		<path opacity="0.5" fill="#93B9DE" enable-background="new    " d="M368.478,313.25c-0.819-4.07-2.189-8.02-4.035-11.736
			c0.818,2.23,1.477,4.521,1.942,6.855c2.8,13.9-0.614,29.098-9.909,39.963c-6.056,7.076-17.167,13.244-26.564,13.102
			c-13.045-0.195-25.819,3.654-38.93,1.404c-5.354-0.922-11.978-2.92-15.39-7.588c0.208,1.221,0.623,2.424,1.27,3.607
			c3.063,5.592,10.392,7.857,16.212,8.855c13.107,2.254,25.884-1.6,38.929-1.398c9.398,0.141,20.509-6.027,26.564-13.104
			C367.863,342.348,371.273,327.15,368.478,313.25z"/>
		<path fill="#9BB6D3" d="M266.209,284.957c-0.642,2.758-1.101,5.572-1.281,8.588c-0.393,6.365-0.816,12.885-0.078,19.236
			c1.005,8.641,3.132,18.215,8.18,25.461c0.979,1.408,3.549,5.76,5.604,5.77c2.741,0.018,3.1-5.361,3.262-7.33
			c0.271-3.35,1.703-6.268,3.02-9.313c1.764-4.082,3.207-7.879,6.596-10.895c9.503-8.469,18.523-15.867,20.518-29.359
			c1.017-6.838-0.396-13.785-4.246-19.563c-2.891-4.342-8.855-11.211-14.187-12.324c-6.009-1.264-12.571,2.979-16.96,6.479
			c-4.566,3.639-5.72,8.205-7.553,13.6C267.958,278.609,266.958,281.746,266.209,284.957z"/>
		<path fill="#E7F4FD" d="M269.694,284.26c-0.642,2.762-1.099,5.574-1.281,8.586c-0.393,6.371-0.815,12.885-0.075,19.24
			c1.002,8.641,3.133,18.215,8.179,25.461c0.978,1.404,3.547,5.756,5.604,5.77c2.734,0.016,3.1-5.363,3.259-7.33
			c0.271-3.35,1.701-6.268,3.018-9.314c1.767-4.08,3.211-7.873,6.601-10.893c9.503-8.469,18.522-15.867,20.52-29.357
			c1.009-6.842-0.4-13.787-4.247-19.563c-2.895-4.34-8.858-11.209-14.188-12.326c-6.01-1.26-12.57,2.98-16.964,6.48
			c-4.564,3.639-5.72,8.201-7.551,13.596C271.441,277.91,270.443,281.051,269.694,284.26z"/>
		<g>
			<path fill="#B8CDE2" d="M338.515,316.666c12.722-17.924,12.971-41.271,0.618-50.039c-12.351-8.764-6.524,35.883-27.634,29.758
				c-31.555-9.154-37.534,28.914-16.516,39.73C308.452,343.049,325.792,334.586,338.515,316.666z"/>
			<path fill="#9CBFD8" d="M311.031,307.658c20.642,7.047,18.16-41.246,30.406-32.557c2.542,1.805,4.908,3.969,6.363,6.73
				c1.911,10.078-0.945,26.814-8.999,38.162c-12.72,17.922-30.45,23.475-43.816,16.611c-3.544-1.82-7.189-6.049-8.337-9.154
				C280.281,309.164,295.514,302.361,311.031,307.658z"/>
			<path fill="#B8CDE2" d="M310.541,304.184c20.779,7.146,18.741-37.545,31.09-28.781c2.561,1.818,4.043-1.088,5.841,5.615
				c1.961,10.115-0.904,24.303-8.957,35.648c-12.722,17.92-31.927,23.508-45.392,16.576c-3.573-1.838-6.313-5.953-7.313-9.625
				C282.335,305.07,294.918,298.811,310.541,304.184z"/>
		</g>
		<g>
			<ellipse fill="#9BB6D3" cx="386.34" cy="174.53" rx="45.305" ry="46.004"/>
			<path fill="#B8CDE2" d="M383.553,150.135c-19.253,0-35.687,12.198-42.249,29.391c-0.172-1.642-0.271-3.307-0.271-4.994
				c0-25.406,20.282-46.001,45.305-46.001c25.021,0,45.308,20.595,45.308,46.001c0,5.863-1.089,11.459-3.058,16.612
				C426.134,168.087,406.91,150.135,383.553,150.135z"/>
			<path fill="#E7F4FD" d="M352.187,182.897c0,15.01,12.172,27.183,27.183,27.183c15.016,0,27.187-12.173,27.187-27.183
				c0-15.018-12.171-27.185-27.187-27.185C364.358,155.713,352.187,167.88,352.187,182.897z"/>
			
				<radialGradient id="SVGID_2_" cx="461.9192" cy="513.1162" r="23.001" gradientTransform="matrix(1 0 0 1 -83.2002 -328.9805)" gradientUnits="userSpaceOnUse">
				<stop  offset="0" style="stop-color:#E0CDE2"/>
				<stop  offset="0.3867" style="stop-color:#E2D9EA"/>
				<stop  offset="1" style="stop-color:#E7F4FD"/>
			</radialGradient>
			<circle fill="url(#SVGID_2_)" cx="378.719" cy="184.136" r="23.001"/>
		</g>
		<path fill="#B8CDE2" d="M380.406,189.429c-5.988-9.672-11.577-21.225-17.021-32.478c-20.927-43.253-77.056-54.321-116.4-27.88
			c-17.361,11.668-27.522,29.157-34.149,48.092c-3.901,11.144-11.173,16.383-16.438,30.844
			c-19.593,53.813,37.347,75.104,102.864,75.104c69.698,0,101.764-26.484,98.974-57.853
			C396.566,206.5,383.576,194.552,380.406,189.429z"/>
		<path opacity="0.5" fill="#93B9DE" enable-background="new    " d="M398.233,225.259c-1.667-18.759-14.655-30.707-17.826-35.83
			c-5.988-9.672-11.577-21.225-17.021-32.478c-8.677-17.936-23.41-30.33-40.485-36.816c11.037,7.027,25.918,19.811,32.121,32.635
			c5.441,11.252,7.955,19.602,13.938,29.275c3.176,5.124,20.64,23.758,22.307,42.517c2.789,31.368-26.484,53.671-105.945,51.581
			c-26.353-0.691-51.33-3.451-70.487-11.078c19.941,12.523,51.068,18.047,84.43,18.047
			C368.958,283.111,401.023,256.625,398.233,225.259z"/>
		<path fill="#9BB6D3" d="M262.625,333.088c1.539-7.154-4.547-8.471-7.072-9.18c-2.836-0.791-7.261,0.693-9.905,1.842
			c-6.314,2.736-11.604,8.404-11.044,15.906c0.406,5.398,3.645,12.16,6.444,16.621c2.299,3.668,6.531,7.809,11.466,8.082
			c4.256,0.234,8.196-0.855,10.883-4.469c2.811-3.781,1.915-8.566,0.479-12.725c-1.037-3-3.815-5.771-4.039-9.039
			c-0.08-1.211,0.224-2.309,0.643-3.383C261.008,335.385,262.3,334.594,262.625,333.088z"/>
		<path fill="#7D9EB7" d="M260.148,337.648c0.28-0.828,0.729-1.689,1.234-2.395c-1.21,1.191-2.718,1.264-3.922,0.121
			c0.053,1.256-1.359,2.08-1.74,2.334c-0.837,0.561-2.026,0.578-3.016,0.492c-0.221-0.021-2.5-0.377-2.24-0.764
			c-0.143,0.207-0.23,0.604-0.316,0.852c-0.604,1.803-2.586,2.551-4.331,2.662c-0.813,0.049-1.603,0.066-2.38-0.201
			c-0.395-0.135-1.63-0.855-1.951-0.18c-1.021,2.195-0.438,4.76,0.329,6.93c0.722,2.025,1.688,4.049,2.831,5.908
			c0.785,1.271,2.418,4.631,4.096,4.785c1.324,0.127,0.08-1.385,2.568-4.154c1.866-2.076,5.514-2.885,7.552-3.014
			c3.259-0.199,5.77,1.063,5.77,1.063s-0.395-2.205-0.8-3.23c-0.973-2.449-2.734-4.51-3.632-6.998
			C259.674,340.395,259.697,338.977,260.148,337.648z"/>
		<path fill="#9BB6D3" d="M267.868,331.182c-2.06,0.625-3.927,1.637-5.342,3.146c-5.745,6.105,1.524,11.465,4.156,16.84
			c2.909,5.947,2.951,16.314,9.62,19.262c4.658,2.057,8.514,1.354,12.515-1.459c4.556-3.199-0.82-8.201-1.904-11.826
			c-1.879-6.279,0.606-10.893,1.214-17.066c0.473-4.813-3.811-7.771-8.217-8.924C276.357,330.225,271.769,330,267.868,331.182z"/>
		<ellipse fill="#E7F4FD" cx="293.732" cy="250.844" rx="32.271" ry="21.05"/>
		<path fill="#417BA3" d="M294.499,262.871c-6.667,0.139-7.538-11.434-13.286-15.026c-1.267-0.793-6.443-3.237-7.456-5.364
			c2.869,2.834,9.348,6.832,21.061,7.102c6.802,0.16,16.082-2.884,19.07-6.617c-0.728,2.664-9.898,6.305-9.898,6.305
			S299.086,262.775,294.499,262.871z"/>
		
			<radialGradient id="SVGID_3_" cx="313.137" cy="557.0137" r="32.7934" gradientTransform="matrix(1 0 0 1 -83.2002 -328.9805)" gradientUnits="userSpaceOnUse">
			<stop  offset="0" style="stop-color:#E0CDE2"/>
			<stop  offset="0.3124" style="stop-color:#DCCDE2"/>
			<stop  offset="0.6359" style="stop-color:#CFCDE2"/>
			<stop  offset="0.9636" style="stop-color:#BBCDE2"/>
			<stop  offset="1" style="stop-color:#B8CDE2"/>
		</radialGradient>
		<path fill="url(#SVGID_3_)" d="M262.675,240.103c-5.835,15.823-25.222,23.243-43.3,16.575
			c-18.08-6.666-28.011-24.896-22.179-40.716c5.835-15.819,25.222-23.242,43.301-16.573
			C258.579,206.052,268.51,224.284,262.675,240.103z"/>
		
			<radialGradient id="SVGID_4_" cx="197.1272" cy="452.9102" r="32.7939" gradientTransform="matrix(0.8582 -0.5133 0.5133 0.8582 -44.5417 -57.0151)" gradientUnits="userSpaceOnUse">
			<stop  offset="0" style="stop-color:#E0CDE2"/>
			<stop  offset="0.3124" style="stop-color:#DCCDE2"/>
			<stop  offset="0.6359" style="stop-color:#CFCDE2"/>
			<stop  offset="0.9636" style="stop-color:#BBCDE2"/>
			<stop  offset="1" style="stop-color:#B8CDE2"/>
		</radialGradient>
		<path fill="url(#SVGID_4_)" d="M391.403,224.04c3.114,16.573-9.713,32.894-28.647,36.452c-18.942,3.561-36.821-6.988-39.936-23.56
			c-3.116-16.572,9.715-32.893,28.65-36.453C370.409,196.921,388.289,207.468,391.403,224.04z"/>
		<g>
			<path fill="#5B0000" d="M273.128,225.897c-2.814-11.493,9.436-17.983,21.065-18.007c11.633-0.023,23.718,7.082,21.141,18.608
				c-2.83,12.644-11.59,20.513-21.07,20.542C285.057,247.071,276.045,237.786,273.128,225.897z"/>
			<path fill="#5B0000" d="M285.193,237.592c1.636,1.708,2.188,3.538,1.233,4.091c-0.959,0.548-3.054-0.389-4.688-2.098
				c-1.636-1.705-2.186-3.535-1.229-4.086C281.462,234.948,283.562,235.887,285.193,237.592z"/>
			<path fill="#5B0000" d="M307.345,239.544c-1.568,1.742-3.631,2.729-4.605,2.201c-0.974-0.53-0.493-2.371,1.076-4.114
				c1.568-1.744,3.628-2.729,4.601-2.2C309.392,235.957,308.909,237.801,307.345,239.544z"/>
			<path opacity="0.4" fill="#5B0000" enable-background="new    " d="M311.323,226.314c-2.688,7.622-7.697,14.319-16.646,14.405
				c-8.12,0.08-14.18-6.683-16.649-14.405c-2.549-7.961,7.453-14.404,16.649-14.404C303.869,211.91,314.434,217.507,311.323,226.314
				z"/>
			<path opacity="0.4" fill="#5B0000" enable-background="new    " d="M280.566,229.348c-2.548-7.962,7.454-14.406,16.652-14.406
				c4.973,0,10.344,1.643,13.735,4.541c-2.513-4.808-9.739-7.644-16.279-7.644c-9.196,0-19.198,6.445-16.649,14.404
				c1.161,3.625,3.114,7.042,5.7,9.637C282.377,233.896,281.31,231.664,280.566,229.348z"/>
		</g>
		<g>
			<path fill="#73A1C6" d="M245.588,163.572c3.096-0.218,3.123-5.243,0-4.878c-17.312,2.012-19.868,12.382-19.007,13.248
				C227.441,172.808,231.592,164.563,245.588,163.572z"/>
		</g>
		<g>
			<path fill="#73A1C6" d="M337.749,163.253c-3.184-0.6-2.62-5.589,0.57-4.846c17.709,4.119,19.146,14.729,18.149,15.484
				C355.475,174.646,352.145,165.949,337.749,163.253z"/>
		</g>
		<g>
			<circle fill="#E7F4FD" cx="246.635" cy="208.181" r="23.351"/>
			<path fill="#9BB6D3" d="M266.5,210.274c0,9.429-7.646,17.074-17.076,17.074s-17.077-7.646-17.077-17.074
				c0-9.434,7.646-17.08,17.077-17.08C258.856,193.194,266.5,200.842,266.5,210.274z"/>
			<circle fill="#F1F1F2" cx="249.773" cy="209.925" r="14.638"/>
			<circle fill="#5B0000" cx="251.247" cy="208.181" r="12.894"/>
			<path fill="#231F20" d="M263.338,207.113c0,6.307-5.113,11.42-11.422,11.42c-6.311,0-11.422-5.113-11.422-11.42
				c0-6.312,5.111-11.427,11.422-11.427C258.225,195.687,263.338,200.803,263.338,207.113z"/>
			<circle fill="#FFFFFF" cx="245.73" cy="205.602" r="4.147"/>
			<path fill="#FFFFFF" d="M255.096,215.968c0,1.147-0.93,2.074-2.074,2.074c-1.146,0-2.074-0.927-2.074-2.074
				c0-1.143,0.931-2.069,2.074-2.069C254.166,213.897,255.096,214.825,255.096,215.968z"/>
		</g>
		<g>
			<circle fill="#E7F4FD" cx="341.706" cy="209.253" r="23.35"/>
			<path fill="#9BB6D3" d="M355.238,209.804c0,9.433-7.645,17.076-17.074,17.076c-9.434,0-17.08-7.645-17.08-17.076
				c0-9.431,7.646-17.079,17.08-17.079C347.594,192.725,355.238,200.373,355.238,209.804z"/>
			<circle fill="#F1F1F2" cx="338.512" cy="209.454" r="14.639"/>
			<path fill="#5B0000" d="M350.034,207.934c0,7.119-5.771,12.894-12.892,12.894c-7.124,0-12.896-5.772-12.896-12.894
				c0-7.125,5.771-12.896,12.896-12.896C344.265,195.036,350.034,200.809,350.034,207.934z"/>
			<path fill="#231F20" d="M349.233,206.86c0,6.309-5.113,11.424-11.424,11.424c-6.305,0-11.42-5.115-11.42-11.424
				c0-6.31,5.115-11.424,11.42-11.424C344.118,195.438,349.233,200.552,349.233,206.86z"/>
			<circle fill="#FFFFFF" cx="331.624" cy="205.35" r="4.147"/>
			<path fill="#FFFFFF" d="M340.99,215.72c0,1.146-0.93,2.073-2.07,2.073c-1.147,0-2.076-0.929-2.076-2.073
				c0-1.146,0.929-2.074,2.076-2.074C340.062,213.646,340.99,214.573,340.99,215.72z"/>
		</g>
		<path fill="#B8CDE2" d="M299.428,257.6c-0.961,2.633-2.957,4.959-5.941,4.521c-2.88-0.426-4.883-2.934-5.407-5.766
			c-0.39-2.09,0.415-3.838,2.634-4.148c2.918-0.406,3.352,1.471,3.591,2.123c0.267-1.51,1.151-2.17,2.553-2.123
			C300.917,252.352,299.728,256.775,299.428,257.6z"/>
		<path fill="#B8CDE2" d="M278.426,291.393c0.015,0.586,0,1.209-0.029,1.887c-0.3,6.252-2.938,11.582-8.209,16.705
			c-1.489,1.447-7.754,5.707-13.9,6.441c-5.269,0.625-9.707-0.725-12.078-4.418c-4.864-7.592-7.538-17.266-4.161-25.77
			c3.366-8.477,10.345-15.891,18.676-20.092c3.295-1.664,10.364-4.502,14.158-3.262c4.183,1.365-0.476,7.979-0.935,10.854
			c-0.512,3.207,0.778,6.549,2.886,9.031C277.406,285.807,278.353,287.879,278.426,291.393z"/>
		<g>
			<path fill="#9CBFD8" d="M280.517,291.393c-0.075-3.514-1.02-5.586-3.595-8.619c-2.105-2.482-4.612-4.123-4.101-7.33
				c0.458-2.879,5.413-10.533,0.438-12.73c-4.785-2.107-16.828,0.586-27.95,14.346c-0.031,0.033,9.95-8.637,15.512-10.395
				c4.828-1.898,7.604-3.012,9.951-2.047c5.709,2.34-1.157,8.342-1.617,11.217c-0.509,3.209,0.778,6.551,2.889,9.035
				c2.571,3.031,3.519,5.104,3.592,8.611c0.018,0.588,0,1.213-0.029,1.895c-0.296,6.252-3.224,13.295-9.515,16.219
				c-10.338,4.811-16.758,4.063-16.537,4.395c7.611,2.342,20.188-4.375,21.857-5.697c4.969-3.941,8.777-10.756,9.071-17.008
				C280.519,292.602,280.531,291.979,280.517,291.393z"/>
		</g>
		<path fill="#9BB6D3" d="M281.125,100.51c0.23,0.133,0.465,0.271,0.691,0.415c1.218,0.758,5.365,3.33,5.33,4.973
			c0.035-1.658,1.168-3.483,1.956-4.912c1.729-3.104,3.813-6.03,6.529-8.347c3.202-2.73,6.86-3.752,10.647-5.34
			c-1.877,0.786-3.605,3.001-4.644,4.678c-2.422,3.92-3.856,10.745-2.939,15.365c-0.429-2.192,5.815-5.434,7.206-6.189
			c4.041-2.215,8.928-4.639,13.678-4.364c0.812,0.046,1.563,0.356,2.389,0.353c-4.624,1.79-7.89,4.002-11.168,6.329
			c-3.263,2.316-6.23,5.614-6.365,9.811c2.032-0.334,3.883-0.884,5.938-0.315c2.461,0.679,3.781,2.16,5.159,4.202
			c1.993,2.955,2.628,8.165-0.073,10.968c0.546-1.389,0.804-3.466,0.08-4.827c-0.68-1.284-2.122-2.118-3.434-2.62
			c-3.034-1.171-6.956-0.572-9.83,0.824c-2.479,1.208-8.001,5.506-7.984,8.521c-1.862-1.403-2.932-3.95-4.748-5.536
			c-2.069-1.807-4.518-3.315-6.197-5.533c-1.844-2.418-1.824-5.506-3.286-8.091c-3.092-5.465-7.487-10.035-13.651-11.899
			c-1.72-0.521-3.488-0.822-5.245-1.19c2.361-1.148,5.901-0.924,8.447-0.729C273.612,97.355,277.635,98.498,281.125,100.51z"/>
		<path fill="#B8CDE2" d="M282.813,131.265c-1.69-1.081-5.026-3.445-5.284-5.589c-0.229-1.977,1.981-4.097,2.688-5.819
			c1.696-4.155,1.791-8.428,1.587-12.845c1.491,1.31,4.499,4.711,5.082,6.498c0.914-2.419,1.559-4.899,3.014-7.099
			c1.485-2.235,2.072-4.86,4.549-6.351c-1.315,3.657-2.005,7.45-1.338,11.495c1.559,0.067,4.079-2.773,5.444-3.723
			c2.049-1.423,4.313-3.344,6.718-3.905c-2.597,2.574-9.09,7.278-7.284,11.812c3.759-0.616,7.511-0.66,11.521,0.104
			c-4.905-0.046-8.443,1.688-11.042,5.461c-2.169,3.15-1.979,9.851,0.031,13.221C293.903,134.844,286.853,133.833,282.813,131.265z"
			/>
		<path fill="#B8CDE2" d="M205.93,120.814c0.382,0.816,0.845,1.77,1.261,2.575c-3.386-0.504-7.305-3.75-10.711-4.797
			c-3.949-1.215-8.355-1.273-12.328-2.489c1.814,2.429,5.512,4.428,7.72,5.839c-5.607,0.904-10.813,0.471-15.229,4.185
			c3.095,0.605,7.826-1.087,9.632,2.094c-4.171,0.741-10.851,5.672-12.888,9.302c4.472-4.377,16.319-2.299,21.672-1.143
			c1.61,0.351,3.292,1.593,4.918,1.748c1.214,0.111,3.509-1.081,4.849-1.413c2.737-0.681,5.761-0.715,8.313-2.021
			c0.306-0.159,0.587-0.369,0.896-0.521c0.36-0.18,0.755-0.213,1.146-0.31c0.457-0.112,0.91-0.291,1.342-0.472
			c0.229-0.102,0.621-0.266,0.778-0.465c0.234-0.307,0.075-1.045-0.027-1.366c-0.181-0.561-0.484-1.074-0.74-1.604
			c-0.526-1.097-1.087-2.116-1.804-3.104c-1.397-1.938-3.104-3.678-5.216-4.829C208.392,121.41,207.198,120.97,205.93,120.814z"/>
		<path fill="#9BB6D3" d="M300.545,304.727c0,2.344-2.338,4.248-5.23,4.248c-2.89,0-5.23-1.904-5.23-4.248
			c0-2.352,2.343-4.252,5.23-4.252C298.207,300.475,300.545,302.375,300.545,304.727z"/>
		<path fill="#A3CD6B" d="M299.274,303.307c0.434,1.492-0.89,3.188-2.951,3.781l-0.618,0.18c-2.064,0.592-4.082-0.139-4.516-1.633
			l-4.809-16.697c-0.435-1.492,0.887-3.188,2.95-3.777l0.621-0.182c2.063-0.594,4.085,0.135,4.516,1.629L299.274,303.307z"/>
		<path opacity="0.2" fill="#85C25E" enable-background="new    " d="M299.274,303.307c-0.292-1.014-0.581-2.033-0.87-3.047
			c-0.61-2.141-1.181-4.301-1.858-6.418c-0.195-0.615-0.321-1.24-0.499-1.859c-0.185-0.625-0.529-0.889-0.978-1.316
			c-0.146-0.145-0.258-0.336-0.39-0.494c-0.409-0.5-0.82-0.979-1.231-1.479c-0.489-0.604-0.919-1.738-1.745-1.936
			c0.47,2.564,1.365,5.064,2.076,7.568c0.703,2.48,1.429,4.955,2.14,7.43c0.146,0.52,0.298,1.033,0.446,1.553
			c0.449,1.563-0.992,3.354-3.228,3.998l-0.023,0.004c0.768,0.211,1.668,0.223,2.591-0.041l0.618-0.182
			C298.385,306.494,299.706,304.799,299.274,303.307z"/>
		<path fill="#B8CDE2" d="M382.381,127.836c-1.745,2.075-2.266,5.251-4.6,6.836c-2.313,1.569-5.872,1.692-8.467,2.742
			c-1.927,0.776-5.132,3.063-7.221,2.721c-1.143-9.783,4.449-14.374,10.766-20.906c-2.152,3.505-3.14,6.14-2.366,10.468
			c2.089-1.781,5.155-3.812,7.809-4.826c1.983-0.76,8.252-1.786,9.928,0.057C385.694,124.429,383.903,126.027,382.381,127.836z"/>
		<path fill="#7D9EB7" d="M266.668,332.947c-0.227-0.049-0.45-0.08-0.684-0.104c-0.505-0.043-1.019-0.037-1.521,0.061
			c-0.679,0.135-1.146,0.596-1.625,1.068c-0.159,0.156-0.212,0.254-0.495,0.535c0.466-0.213,1.109-0.455,1.412-0.535
			c0.514-0.139,1.04-0.219,1.569-0.23c0.288-0.004,0.573,0.008,0.858,0.033c1.104,0.107,2.615,0.604,3.649,1.117
			C269.277,333.971,267.48,333.129,266.668,332.947z"/>
		<path fill="#85C25E" d="M291.754,286.807c1.336,0.479,3.813-0.438,4.938-0.539c2.389-0.217,4.512-0.293,6.844,0.24
			c4.938,1.131,9.39,3.764,14.271,5.064c2.043,0.543,4.678,1.057,6.98,0.625c2.451-0.457,4.521-1.295,6.47-2.982
			c0.782,3.863-2.469,7.82-5.647,9.328c-3.465,1.648-7.348,1.963-11.129,2.033c-5.039,0.094-10.717-0.736-15.134-3.268
			C293.481,293.949,292.463,289.402,291.754,286.807z"/>
		<path opacity="0.4" fill="#85C25E" enable-background="new    " d="M325.69,297.137c-3.515,1.645-7.451,1.959-11.283,2.029
			c-5.105,0.096-10.86-0.736-15.342-3.271c-4.979-2.811-6.514-6.451-7.305-9.086h-0.006c0.709,2.594,1.728,7.143,7.596,10.5
			c4.417,2.531,10.095,3.361,15.134,3.27c3.781-0.07,7.664-0.387,11.129-2.033c2.854-1.354,5.759-4.682,5.755-8.143
			C330.719,293.328,328.188,295.965,325.69,297.137z"/>
		
			<radialGradient id="SVGID_5_" cx="301.4631" cy="568.7617" r="4.1142" gradientTransform="matrix(1.7344 -0.4814 0.3434 1.2371 -460.827 -200.8501)" gradientUnits="userSpaceOnUse">
			<stop  offset="0" style="stop-color:#CCC5DB"/>
			<stop  offset="1" style="stop-color:#9BB6D3"/>
		</radialGradient>
		<path opacity="0.57" fill="url(#SVGID_5_)" enable-background="new    " d="M264.581,355.633c0.771,2.771-1.849,5.916-5.845,7.023
			c-3.993,1.109-7.856-0.236-8.628-3.004c-0.77-2.773,1.85-5.918,5.845-7.027C259.948,351.516,263.812,352.863,264.581,355.633z"/>
		<g>
			<path fill="#7D9EB7" d="M257.266,336.344c-0.213,0.637,0.613,1.137,0.9,0.529c1.957-4.162,0.543-10.627-4.733-10.84
				C252.757,326.006,260.475,326.6,257.266,336.344z"/>
		</g>
		<g>
			<path fill="#7D9EB7" d="M250.054,338.635c-0.212,0.635,0.614,1.137,0.899,0.529c1.959-4.164,0.545-10.625-4.733-10.842
				C245.547,328.295,253.26,328.889,250.054,338.635z"/>
		</g>
		<path fill="#85C25E" d="M291.729,285.912c0.172,0.584-0.705,1.369-1.97,1.75c-1.263,0.385-2.435,0.223-2.608-0.357
			c-0.177-0.584,0.704-1.367,1.971-1.75C290.38,285.17,291.55,285.328,291.729,285.912z"/>
	</g>
	<g>
		<path fill="#60963E" d="M97.975,349.893c1.557-1.018,2.889-1.861,4.842-1.434c0.764,0.166,1.506,0.512,2.186,0.867
			c1.109,0.58,2.396,1.246,3.367,2.021c4.035,3.229,8.625,5.885,13.799,6.701c8.803,1.387,18.986-0.164,25.758-6.252
			c3.219-2.895,6.303-6.504,7.695-10.668c1.244-3.736,0.715-7.693,1.078-11.553c0.541-5.73,3.375-10.268,5.871-15.271
			c0.771-1.551,1.195-3.252,2.113-4.74c3.496-5.652,13.988-8.406,18.994-7.357c2.418,0.51,2.879,2.879,3.262,5.947
			c0.346,2.736-1.699,10.518-2.994,13.973c-1.646,4.396-4.105,10.373-8.857,19.883c-4.25,8.498-13.186,25.932-23.559,30.686
			c0.654,1.027,4.158-2.168,11.625,4.896c3.01,2.85,24.557,16.881,15.664,27.959c-2.459,3.063-7.803,4.264-11.297,5.822
			c-3.094,1.387-13.586,6.02-16.102,5.24c-2.795-0.861-4.176-3.877-5.754-6.072c-1.779-2.477-3.238-5.182-4.916-7.725
			c-2.506-3.795-4.891-7.676-7.061-11.672c-2.088-3.84-2.688-4.291-2.377-1.854c0.26,2.037,2.109,16.496-0.918,20.582
			c-1.479,1.992-4.035,2.129-6.223,2.125c-8.063-0.006-16.145-0.148-24.201,0.016c-6.748,0.139-10.252-4.367-10.793-10.797
			c-0.699-8.287-0.881-16.766,0.428-25.006c0.939-5.945,2.475-11.75,4.41-17.443c0.514-1.521,1.193-2.951,1.57-4.521
			C95.961,352.701,96.539,350.828,97.975,349.893z"/>
		<path fill="#85C25E" d="M186.043,303.398c1.129,2.516-0.805,7.494-2.1,10.951c-1.646,4.396-4.105,10.369-8.857,19.879
			c-4.25,8.502-13.186,25.934-23.559,30.686c0.654,1.025,7.465,7.158,14.932,14.225c3.01,2.848,17.654,14.602,12.357,18.633
			c-3.125,2.379-7.803,4.264-11.297,5.824c-3.094,1.383-13.586,6.016-16.102,5.242c-2.795-0.863-4.176-3.877-5.754-6.076
			c-1.779-2.477-3.238-5.18-4.916-7.721c-2.506-3.799-4.891-7.678-7.061-11.672c-2.088-3.84-2.133-1.018-1.82,1.42
			c0.26,2.039,0.023,14.482-1.475,17.305c-1.162,2.195-4.035,2.131-6.223,2.129c-8.063-0.006-16.145-0.15-24.201,0.016
			c-6.748,0.137-10.232-4.371-10.793-10.797c-2.82-32.348-2.445-59.238-2.82-88.578c-0.055-4.141,1.32-8.34,7.521-8.646
			c10.857-0.545,19.371-0.754,31.783-0.188c4.379,0.201,9.74,0.475,9.398,6.395c-0.264,4.588-0.377,32.91-1.223,38.541
			c4.23-7.324,5.268-10.971,6.68-15.975c2.055-7.289,3.74-14.123,6.098-21.322c0.715-2.174,1.324-4.447,2.225-6.561
			c1.836-4.33,7.977-1.68,11.27-0.955c3.162,0.693,6.354,1.395,9.5,2.086c4.074,0.887,8.154,1.727,12.236,2.586
			C184.26,301.326,185.523,302.24,186.043,303.398z"/>
		<g opacity="0.5">
			<path fill="#C1E588" d="M92.871,298.74c7.768-0.389,15.547-0.633,23.322-0.473c4.059,0.084,8.857-0.367,12.781,0.73
				c2.602,0.727,3.963,2.859,6.047,4.391c0.018-0.391,0.029-0.719,0.041-0.971c0.342-5.92-5.021-6.191-9.398-6.396
				c-12.412-0.563-20.926-0.354-31.783,0.189c-4.66,0.23-6.594,2.66-7.246,5.609C87.729,300.113,89.645,298.9,92.871,298.74z"/>
			<path fill="#C1E588" d="M159.102,298.676c3.16,0.695,6.352,1.395,9.5,2.086c4.072,0.885,8.154,1.725,12.234,2.584
				c1.936,0.406,3.209,1.385,4.002,2.695c0.502,0.828,0.811,1.791,0.975,2.82c0.568-2.117,0.828-4.135,0.23-5.463
				c-0.521-1.158-1.783-2.072-4.195-2.578c-4.082-0.859-8.162-1.699-12.236-2.586c-3.146-0.691-6.338-1.393-9.5-2.086
				c-3.293-0.725-9.434-3.375-11.27,0.955c-0.287,0.678-0.543,1.371-0.785,2.07C150.121,295.498,155.93,297.979,159.102,298.676z"/>
		</g>
		<circle fill="#A2E279" cx="104.943" cy="312.881" r="8.17"/>
		<circle fill="#A2E279" cx="110.195" cy="390.496" r="6.029"/>
		<circle fill="#A2E279" cx="99.108" cy="367.349" r="3.501"/>
		<circle fill="#A2E279" cx="118.367" cy="355.871" r="8.754"/>
		<circle fill="#A2E279" cx="161.744" cy="392.635" r="6.613"/>
		<path fill="#A2E279" d="M167.58,311.52c0,3.332-2.701,6.029-6.027,6.029c-3.332,0-6.033-2.697-6.033-6.029
			s2.701-6.027,6.033-6.027C164.879,305.49,167.58,308.188,167.58,311.52z"/>
		<circle fill="#A2E279" cx="151.046" cy="346.921" r="7.585"/>
		<path fill="#A2E279" d="M119.729,332.334c0,2.148-1.744,3.891-3.891,3.891c-2.148,0-3.895-1.742-3.895-3.891
			s1.744-3.891,3.895-3.891C117.984,328.443,119.729,330.186,119.729,332.334z"/>
		<path fill="#A2E279" d="M147.932,380.965c0,2.254-1.826,4.084-4.084,4.084c-2.256,0-4.082-1.83-4.082-4.084
			c0-2.258,1.826-4.088,4.082-4.088C146.106,376.877,147.932,378.707,147.932,380.965z"/>
		<circle fill="#A2E279" cx="165.245" cy="328.832" r="3.891"/>
	</g>
</g>
</svg>
