<?xml version="1.0" encoding="utf-8"?>
<!-- Generator: Adobe Illustrator 15.1.0, SVG Export Plug-In . SVG Version: 6.00 Build 0)  -->
<!DOCTYPE svg PUBLIC "-//W3C//DTD SVG 1.1//EN" "http://www.w3.org/Graphics/SVG/1.1/DTD/svg11.dtd">
<svg version="1.1" id="Layer_1" xmlns="http://www.w3.org/2000/svg" xmlns:xlink="http://www.w3.org/1999/xlink" x="0px" y="0px"
	 width="512px" height="512px" viewBox="0 0 512 512" enable-background="new 0 0 512 512" xml:space="preserve">
<g>
	<g>
		<path fill="#40A629" d="M244.981,374.576c-5.508,1.841-10.682,2.871-13.718,2.881c-6.761,0.021-25.182,0.002-27.21-9.082
			c-3.867-17.331,53.627-14.107,63.594-13.914C269.299,363.436,256.41,370.754,244.981,374.576z"/>
		<path fill="#80C41C" d="M259.736,215.405c19.703,21.272,23.654,48.646,18.803,70.421c-0.164,0.733-1.361,23.927,21.467,27.353
			c26.693,4.007,62.488-9.002,89.459-51.129c3.768-5.885,39.814-91.849-20.959-138.839c-73.732-57.01-127.973-15.888-141.421-4.232
			c-2.445,2.116-1.289-0.2-0.322-1.571c45.881-65.105,132.754-32.716,174.249,17.186c36.785,44.24,36.572,93.392,37.721,108.362
			c1.578,20.57,3.465,124.306-94.357,148.295c-14.605,3.582-63.025,6.785-97.262-23.411c-28.559-25.184-24.704-45.594-31.522-48.627
			c-13.807-6.148-27.095-17.988-35.898-35.815c-3.861-7.82-1.135-17.643-3.323-20.033c-21.535-23.521-25.76-60.744-8.258-75.256
			C176.393,181.241,228.854,182.063,259.736,215.405z"/>
		<path fill="#80C41C" d="M259.736,215.405c19.703,21.272,23.654,48.646,18.803,70.421c-0.164,0.733-1.361,23.927,21.467,27.353
			c26.693,4.007,62.488-9.002,89.459-51.129c3.768-5.885,39.814-91.849-20.959-138.839c-73.732-57.01-127.973-15.888-141.421-4.232
			c-2.445,2.116-1.289-0.2-0.322-1.571c45.881-65.105,132.754-32.716,174.249,17.186c36.785,44.24,36.572,93.392,37.721,108.362
			c1.578,20.57,3.465,124.306-94.357,148.295c-14.605,3.582-63.025,6.785-97.262-23.411c-28.559-25.184-24.704-45.594-31.522-48.627
			c-13.807-6.148-27.095-17.988-35.898-35.815c-3.861-7.82-1.135-17.643-3.323-20.033c-21.535-23.521-25.76-60.744-8.258-75.256
			C176.393,181.241,228.854,182.063,259.736,215.405z"/>
		<path opacity="0.51" fill="#40A629" d="M357.498,111.696c-63.895-39.561-104.011-14.871-123.568,1.83
			c20.353-14.895,69.984-40.257,134.576,9.685c21.594,16.694,30.953,38.306,33.893,59.502
			C400.668,156.922,386.611,129.72,357.498,111.696z"/>
		<path opacity="0.4" fill="#CCE70B" d="M298.895,86.394c37.699,3.406,73.594,24.531,97.58,53.381
			c36.787,44.246,36.572,93.393,37.723,108.363c1.1,14.396,2.352,69.506-30.514,109.523c37.51-40.277,36.203-99.678,35.049-114.706
			c-1.148-14.971-0.936-64.122-37.721-108.362c-40.563-48.782-124.492-80.815-171.1-21.395
			C250.109,97.908,269.393,83.729,298.895,86.394z"/>
		<g opacity="0.5">
			<path opacity="0.5" fill="#CCE70B" d="M300.672,323.383c28.551,4.318,70.586-7.205,93.555-55.467
				c8.273-17.371,12.332-74.81,7.09-44.316c-3.549,20.646-10.33,36.074-11.852,38.45c-26.971,42.127-62.766,55.136-89.459,51.129
				c-17.564-2.634-20.902-16.966-21.434-23.771c-0.18-2.166-0.098-3.23-0.098-3.23s-0.814,5.502-0.793,7.918
				C277.686,294.896,276.25,319.692,300.672,323.383z"/>
			<path fill="#CCE70B" d="M257.484,218.738c17.125,18.492,23.152,41.267,22.059,61.64c3.09-20.762-1.713-45.438-19.807-64.973
				c-26.996-29.146-70.479-33.442-86.526-29.474C194.14,184.591,232.421,191.683,257.484,218.738z"/>
		</g>
		<path fill="#40A629" d="M437.893,238.772c-0.734-9.705-2.959-38.801-12.08-62.347c2.164,13.553,2.434,23.827,2.869,29.557
			c1.557,20.571,4.578,125.539-92.363,149.571c-12.838,3.18-26.484,4.849-39.6,2.754c-21.223-3.386-40.643-16.224-51.405-35.07
			c-9.31-16.314-11.033-38.301-16.191-55.972c-4.248-14.553-10.137-23.998-19.876-35.601c-1.372-1.631-2.808-3.19-4.287-4.702
			c-5.731-5.858-11.636-11.02-17.49-16.757c-7.396-7.256-13.058-10.849-22.77-18.484c-9.137,9.814-5.847,46.563,13.205,67.562
			c2.168,2.393-0.539,12.218,3.287,20.038c8.717,17.82,21.875,29.654,35.561,35.796c6.75,3.033,2.923,23.441,31.209,48.613
			c33.913,30.181,81.895,26.958,96.37,23.372C441.273,363.074,439.449,259.343,437.893,238.772z"/>
		<path fill="#CCE70B" d="M440.131,245.124c-0.094-10.829-1.889-41.101-12.377-63.742c2.191,13.551,2.434,24.289,2.873,30.02
			c1.58,20.57,3.467,124.303-94.355,148.294c-12.953,3.176-26.725,4.842-39.963,2.74c-21.416-3.396-41.02-16.24-51.886-35.092
			c-9.404-16.32-11.044-34.295-16.255-51.968c-4.292-14.553-10.346-28.017-20.182-39.622c-1.383-1.633-2.832-3.189-4.327-4.703
			c-5.785-5.861-8.311-9.739-15.438-16.612c-10.15-9.786-18.288-13.269-24.962-20.937c-11.534,16.921-6.123,48.852,13.112,69.861
			c2.188,2.391-0.538,12.213,3.323,20.033c8.803,17.827,22.091,29.667,35.898,35.815c6.818,3.033,2.963,23.443,31.522,48.627
			c34.237,30.196,82.657,26.993,97.262,23.411C442.197,367.261,440.307,265.754,440.131,245.124z"/>
		
			<linearGradient id="SVGID_1_" gradientUnits="userSpaceOnUse" x1="133.5415" y1="245.564" x2="199.5295" y2="201.9103" gradientTransform="matrix(0.999 0.044 -0.044 0.999 1.1531 15.0425)">
			<stop  offset="0" style="stop-color:#80C41C"/>
			<stop  offset="1" style="stop-color:#CCE70B"/>
		</linearGradient>
		<path fill="url(#SVGID_1_)" d="M212.113,259.209c1.347-2.782,1.821-5.993,1.07-9.407c-1.595-7.271-6.227-12.874-10.19-18.923
			c-4.244-6.475-11.355-11.351-16.452-17.292c-6.604-7.706-13.755-12.589-23.285-20.085c-0.233-0.188-5.414,13.969-5.623,15.361
			c-0.973,6.575-0.273,13.422,1.06,19.893c2.131,10.317,6.151,19.813,12.541,28.183c5.274,6.909,17.583,10.527,26.198,11.184
			c2.149,0.165,2.738,0.417,4.88-0.373C206.636,266.154,210.226,263.102,212.113,259.209z"/>
		
			<linearGradient id="SVGID_2_" gradientUnits="userSpaceOnUse" x1="375.5156" y1="375.3018" x2="368.0616" y2="330.5776" gradientTransform="matrix(0.999 0.044 -0.044 0.999 1.1531 15.0425)">
			<stop  offset="0" style="stop-color:#237D26;stop-opacity:0.6654"/>
			<stop  offset="1" style="stop-color:#CCE70B;stop-opacity:0"/>
		</linearGradient>
		<path fill="url(#SVGID_2_)" d="M344.375,391.25c97.822-23.989,97.492-122.701,95.914-143.271
			c-0.744-9.703-2.318-44.252-12.535-66.597c2.191,13.551,2.434,24.289,2.873,30.02c1.58,20.57,3.467,124.303-94.355,148.294
			c-12.953,3.176-26.725,4.842-39.963,2.74c-4.457-0.706-8.443-1.477-12.691-3.071c-5.518-2.068-9.35-4.749-15.557-4.242
			c-3.512,0.289-7.551,1.348-9.736,4.298c-2.85,3.847-0.867,9.16-3.316,12.843c4.309,2.635,8.734,4.896,12.965,7.685
			c4.301,2.837,8.701,5.658,13.631,7.279C301.041,393.616,324.256,396.183,344.375,391.25z"/>
		<path fill="#F2F91C" d="M182.711,212.058c2.912,2.414,3.885,6.043,2.171,8.108c-1.707,2.064-5.454,1.783-8.365-0.631
			c-2.915-2.409-3.886-6.039-2.174-8.104C176.048,209.368,179.797,209.649,182.711,212.058z"/>
		<path fill="#40A629" d="M182.333,213.765c2.692,2.229,3.711,5.438,2.278,7.166c-1.43,1.73-4.773,1.323-7.46-0.902
			c-2.695-2.229-3.709-5.435-2.278-7.166C176.302,211.135,179.645,211.539,182.333,213.765z"/>
		<path fill="#067006" d="M181.539,213.494c2.305,1.906,3.167,4.668,1.927,6.163c-1.238,1.499-4.111,1.162-6.418-0.746
			c-2.302-1.906-3.167-4.668-1.926-6.162C176.359,211.251,179.235,211.584,181.539,213.494z"/>
		<path opacity="0.29" fill="#40A629" d="M283.516,339.861c-6.813-1.652-14.061-3.258-20.93-2.564
			c-8.585,0.861-3.299,10.526-2.252,16.063c0.996,5.269-0.271,10.056-3.076,14.797c0.148-0.122-1.439,6.69-1.301,6.569
			c-1.295,1.147,17.168,9.37,17.168,9.37s2.777-0.407,4.232-0.737c13.848-3.158,28.152-14.589,23.848-29.988
			c-2.004-7.192-6.68-10.858-13.813-12.565C286.119,340.501,284.822,340.178,283.516,339.861z"/>
		<g opacity="0.2">
			<path fill="#CCE70B" d="M238.627,313.718c-0.25-0.758-0.495-1.517-0.733-2.273c-0.435-0.079-0.896,0.081-1.166,0.603
				c-3.213,6.202-11.663,9.417-18.328,9.59c-0.183,0.006-0.345,0.047-0.486,0.109c0.565,0.596,1.053,1.38,1.507,2.32
				C226.572,323.597,235.024,320.126,238.627,313.718z"/>
			<path fill="#CCE70B" d="M249.153,334.759c-0.494-0.681-0.979-1.375-1.448-2.075c-0.029,0.028-0.06,0.053-0.087,0.084
				c-4.938,5.611-12.464,10.23-20.129,10.068c-0.23-0.008-0.423,0.044-0.587,0.13c0.393,0.766,0.802,1.547,1.243,2.341
				C236.104,345.225,243.934,340.579,249.153,334.759z"/>
			<path fill="#CCE70B" d="M262.605,348.297c-0.67-0.532-1.33-1.09-1.979-1.654c-3.004,7.592-9.763,14.034-17.33,16.982
				c-0.189,0.077-0.347,0.185-0.471,0.308c0.593,0.596,1.193,1.198,1.816,1.797C252.461,362.471,259.201,356.094,262.605,348.297z"
				/>
			<path fill="#CCE70B" d="M306.42,363.212c-0.83-0.043-1.66-0.109-2.49-0.177c-1.744,9.432-7.758,20.173-15.648,25.322
				c-0.324,0.207-0.496,0.495-0.559,0.8c0.908,0.269,1.811,0.526,2.711,0.773C298.553,384.14,304.744,373.067,306.42,363.212z"/>
			<path fill="#CCE70B" d="M329.434,361.181c-0.816,0.146-1.629,0.289-2.441,0.423c0.016,0.115,0.047,0.232,0.1,0.351
				c4.059,9.48,0.402,24.196-6.654,31.563c1.119,0.025,2.217,0.041,3.293,0.037C330.459,385.14,333.35,371.011,329.434,361.181z"/>
			<path fill="#CCE70B" d="M354.791,368.923c-0.389-2.683-0.91-5.421-1.959-7.935c-0.586-1.407-1.232-4.02-2.402-5.421
				c-0.844,0.291-1.695,0.572-2.557,0.848c0.088,0.238,0.256,0.458,0.533,0.622c0.723,0.421,1.965,4.396,2.42,5.574
				c0.844,2.209,1.199,4.651,1.57,6.976c1.01,6.289,1.602,13.7-0.834,19.728l0,0c0.992-0.278,1.969-0.566,2.936-0.866
				C356.455,382.271,355.703,375.177,354.791,368.923z"/>
			<path fill="#CCE70B" d="M370.266,346.193c-0.725,0.409-1.465,0.804-2.209,1.204c0.063,0.141,0.158,0.276,0.305,0.405
				c7.906,7.239,13.133,17.956,10.689,28.79c-0.07,0.314-0.025,0.588,0.086,0.816c0.857-0.48,1.717-0.971,2.555-1.471
				C383.645,364.766,378.447,353.753,370.266,346.193z"/>
			<path fill="#CCE70B" d="M421.035,283.075c-0.264,0.711-0.535,1.423-0.814,2.137c0.186,0.158,0.426,0.265,0.73,0.284
				c5.395,0.369,11.195,3.073,14.201,7.663c0.148,0.229,0.338,0.378,0.547,0.464c0.227-0.988,0.443-1.974,0.645-2.952
				C432.711,286.12,426.797,283.484,421.035,283.075z"/>
			<path fill="#CCE70B" d="M427.582,259.091c-0.16,0.81-0.324,1.626-0.492,2.442c0.188,0.066,0.404,0.091,0.643,0.038
				c3.639-0.778,8.021,0.98,10.375,3.899c0.373,0.454,0.838,0.5,1.227,0.31c0.061-0.821,0.113-1.631,0.162-2.424
				C436.633,260.104,431.768,258.396,427.582,259.091z"/>
			<path fill="#CCE70B" d="M430.615,234.164c-0.027,0-0.051,0.01-0.08,0.012c-0.049,0.805-0.109,1.621-0.174,2.452
				c0.08,0.015,0.162,0.026,0.254,0.023c2.832-0.04,5.627-0.533,8.279,0.767c0.332,0.164,0.652,0.169,0.938,0.079
				c-0.035-0.767-0.08-1.578-0.133-2.414C436.73,233.793,433.816,234.123,430.615,234.164z"/>
			<path fill="#CCE70B" d="M436.238,208.88c-0.162-0.904-0.332-1.813-0.512-2.723c-1.777-0.412-3.561-0.348-5.434-0.288
				c0.043,0.888,0.092,1.711,0.141,2.466C432.414,208.237,434.359,208.126,436.238,208.88z"/>
		</g>
		<g opacity="0.5">
			<path fill="#CCE70B" d="M237.747,312.223c-0.254-0.757-0.497-1.514-0.734-2.272c-0.438-0.077-0.9,0.083-1.168,0.604
				c-3.216,6.2-11.667,9.415-18.325,9.586c-0.183,0.008-0.345,0.048-0.491,0.109c0.565,0.598,1.058,1.382,1.507,2.324
				C225.688,322.103,234.143,318.629,237.747,312.223z"/>
			<path fill="#CCE70B" d="M248.272,333.264c-0.493-0.683-0.977-1.373-1.451-2.075c-0.028,0.031-0.062,0.055-0.09,0.086
				c-4.938,5.609-12.46,10.229-20.127,10.064c-0.229-0.004-0.418,0.048-0.583,0.132c0.388,0.766,0.802,1.549,1.238,2.341
				C235.223,343.731,243.05,339.085,248.272,333.264z"/>
			<path fill="#CCE70B" d="M261.283,346.912c-0.674-0.535-1.328-1.09-1.98-1.655c-3.002,7.592-9.761,14.031-17.326,16.983
				c-0.194,0.076-0.351,0.186-0.472,0.308c0.589,0.597,1.191,1.197,1.816,1.803C251.138,361.087,257.873,354.711,261.283,346.912z"
				/>
			<path fill="#CCE70B" d="M304.107,363.25c-0.832-0.046-1.656-0.105-2.488-0.174c-1.746,9.165-7.764,19.597-15.646,24.601
				c-0.326,0.204-0.496,0.483-0.555,0.778c0.904,0.265,1.805,0.512,2.707,0.751C296.244,383.579,302.439,372.82,304.107,363.25z"/>
			<path fill="#CCE70B" d="M327.559,361.552c-0.807,0.146-1.619,0.287-2.434,0.418c0.014,0.113,0.041,0.229,0.092,0.347
				c4.063,9.35,0.408,23.867-6.65,31.136c1.117,0.023,2.213,0.038,3.287,0.036C328.59,385.187,331.479,371.249,327.559,361.552z"/>
			<path fill="#CCE70B" d="M353.027,369.405c-0.385-2.685-0.906-5.425-1.955-7.934c-0.584-1.407-1.232-4.023-2.406-5.422
				c-0.842,0.289-1.695,0.574-2.551,0.849c0.084,0.237,0.248,0.457,0.531,0.619c0.715,0.421,1.965,4.397,2.418,5.577
				c0.844,2.21,1.197,4.648,1.568,6.971c1.012,6.292,1.6,13.699-0.834,19.729v0.002c0.988-0.277,1.975-0.568,2.941-0.866
				C354.693,382.754,353.939,375.656,353.027,369.405z"/>
			<path fill="#CCE70B" d="M368.945,347.007c-0.729,0.407-1.471,0.803-2.213,1.198c0.063,0.145,0.162,0.283,0.301,0.414
				c7.916,7.232,13.145,17.951,10.695,28.784c-0.068,0.315-0.025,0.587,0.088,0.82c0.857-0.486,1.715-0.975,2.553-1.474
				C382.322,365.58,377.121,354.563,368.945,347.007z"/>
			<path fill="#CCE70B" d="M420.496,284.872c-0.273,0.729-0.545,1.457-0.828,2.184c0.189,0.161,0.432,0.273,0.738,0.292
				c5.473,0.374,11.348,3.133,14.393,7.82c0.156,0.233,0.348,0.386,0.555,0.479c0.232-1.012,0.449-2.021,0.658-3.019
				C432.33,287.983,426.334,285.294,420.496,284.872z"/>
			<path fill="#CCE70B" d="M427.375,260.45c-0.162,0.812-0.334,1.626-0.51,2.444c0.195,0.064,0.418,0.088,0.666,0.036
				c3.764-0.775,8.305,0.982,10.742,3.899c0.387,0.457,0.865,0.5,1.266,0.31c0.064-0.821,0.119-1.631,0.168-2.424
				C436.744,261.464,431.707,259.758,427.375,260.45z"/>
			<path fill="#CCE70B" d="M430.721,235.417c-0.029,0-0.053,0.007-0.08,0.007c-0.051,0.806-0.109,1.626-0.174,2.456
				c0.08,0.012,0.162,0.021,0.254,0.021c2.83-0.041,5.627-0.533,8.275,0.767c0.336,0.164,0.658,0.169,0.941,0.078
				c-0.039-0.769-0.084-1.578-0.137-2.411C436.832,235.045,433.92,235.371,430.721,235.417z"/>
			<path fill="#CCE70B" d="M436.67,210.787c-0.166-0.902-0.35-1.81-0.537-2.722c-1.877-0.411-3.76-0.345-5.742-0.288
				c0.055,0.887,0.104,1.712,0.154,2.467C432.633,210.146,434.693,210.034,436.67,210.787z"/>
		</g>
		<path fill="#80C41C" d="M281.977,330.909c-3.018-0.942-6.443-1.126-9.637-0.887c-5.223,0.388-13.449-2.296-16.924,3.663
			c-2.639,4.521,0.713,13.308,1.605,18.021c0.996,5.266-0.275,10.052-3.078,14.795c0.152-0.122,0.3-0.31,0.436-0.432
			c-1.295,1.15-2.257,3.525-3.375,4.923c-1.317,1.651-2.906,3.19-3.959,5.026c-2.171,3.774-0.159,6.031,3.661,6.874
			c7.159,1.575,16.073,0.462,23.338-1.191c12.375-2.82,20.943-10.3,26.066-22.055C305.686,346.861,293.219,334.416,281.977,330.909z
			"/>
		<path opacity="0.2" fill="#40A629" d="M412.779,300.334c-0.371-0.01-0.73-0.01-1.084,0c-14.125,0.505-34.441,12.687-33.996,28.46
			c0.182,6.433,4.283,11.286,9.535,14.562c3.967,2.477,10.031,1.702,11.729,6.543c1.58,4.509-20.811,16.434-17.777,21.119
			c2.309,3.562,26.557-4.835,29.9-6.116c5.537-2.121,12.199-6.913,14.73-12.438c4.109-8.977,7.629-20.443,2.686-29.727
			c-2.734-5.119-1.869-11.008-3.902-16.118C422.912,302.391,417.131,300.484,412.779,300.334z"/>
		<path fill="#80C41C" d="M416.219,291.689c-7.029-3.401-15.133-4.001-22.771-1.413c0.279-0.22-15.895,3.749-18.447,19.858
			c-0.723,4.554-0.873,9.292-0.227,13.943c1.381,9.977,10.293,16.462,19.201,19.482c2.881,0.98,5.781,1.652,8.822,1.804
			c1.748,0.089,5.223-0.089,5.215,2.467c-0.006,2.192-3.816,4.014-5.283,5.166c-5.313,4.163-10.523,7.193-15.971,11.082
			c-5.047,3.602-13.938,7.695-10.93,14.825c3.576,3.486,6.971,2.726,10.205,2.189c3.701-0.609,5.338-1.732,10.555-3.826
			c-2.281,4.396-4.879,10.807,1.096,13.439c11.518,5.072,22.053-9.751,26.881-18.032c3.09-5.302,5.287-11.034,7.387-16.782
			c2.918-7.997,6.453-14.949,8.84-23.316c2.555-8.941,3.697-11.72-0.635-15.271c-2.891-2.369-7.49,3.526-9.557-0.096
			c-1.166-2.052-1.17-10.339-1.963-12.527c-1.246-3.463-3.402-6.712-6.209-9.018C420.496,294.078,418.412,292.75,416.219,291.689z"
			/>
		<path opacity="0.3" fill="#40A629" d="M402.729,352.997c-2.697,2.111-5.525,4.04-8.371,5.934c-1.412,0.94-2.832,1.874-4.234,2.816
			c-0.984,0.667-2.004,1.819-3.156,2.144c2.688-1.734,5.463-3.375,8.285-4.87c2.516-1.342,5.029-2.655,7.496-4.084
			c2.775-1.607,7.223-4.232,9.85-6.277c2.672-2.075,5.285-4.273,4.301-5.335c-1.793-1.939-11.711-0.031-14.135-0.154
			c-3.168-0.164-6.35-0.049-9.525-0.11c3.111,1.248,6.143,2.134,9.559,2.305c1.748,0.089,5.223-0.089,5.215,2.467
			C408.006,350.023,404.195,351.845,402.729,352.997z"/>
		<path opacity="0.21" fill="#40A629" d="M396.588,377.268c-1.523,2.932-3.639,7.212-2.102,10.489
			c0.428-2.801,0.354-5.289,1.842-7.879c1.318-2.297,4.629-6.516,6.27-8.604c-2.209,0.722-5.371,2.867-8.596,4.476
			c-2.861,1.433-7.037,4.411-9.971,5.638c2.074-0.115,5.232-1.024,6.416-1.531C391.572,379.374,395.725,377.618,396.588,377.268z"/>
		<g opacity="0.3">
			<path fill="#40A629" d="M440.156,317.306c-0.939-0.771,3.098,1.899-1.578,14.318c-3.064,8.149-14.883,34.009-17.975,39.31
				c-4.297,7.371-11.666,17.322-20.686,18.957c-0.961,0.176-1.965,0.318-2.996,0.432c0.24,0.136,0.488,0.265,0.762,0.385
				c11.518,5.072,22.053-9.751,26.881-18.032c3.09-5.302,5.287-11.034,7.387-16.782c2.918-7.997,6.453-14.949,8.84-23.316
				C443.346,323.635,444.488,320.856,440.156,317.306z"/>
		</g>
		<path fill="#80C41C" d="M254.091,399.11c-4.196,1.184-9.454,1.908-14.035,1.929c-6.766,0.024-25.184,0.002-27.213-9.082
			c-1.123-5.034,4.821-8.162,7.923-10.72c-2.587-2.971-8.353-6.833-5.451-11.229c3.423-5.19,15.447-1.852,20.658-1.193
			c7.844,0.99,15.199,3.366,21.8,7.791C267.637,383.224,265.227,395.964,254.091,399.11z"/>
		<path opacity="0.3" fill="#40A629" d="M258.055,396.829c-4.162,1.21-9.36,1.979-13.88,2.038
			c-6.675,0.096-24.862,0.262-26.767-8.62c-1.06-4.925,4.842-8.05,7.929-10.591c-2.52-2.881-8.174-6.605-5.263-10.946
			c0.411-0.62,0.954-1.116,1.588-1.514c-2.755,0.182-5.111,0.94-6.347,2.813c-2.901,4.396,2.864,8.258,5.451,11.229
			c-3.102,2.558-9.046,5.686-7.923,10.72c2.029,9.084,20.447,9.106,27.213,9.082c4.581-0.021,9.839-0.745,14.035-1.929
			c2.155-0.612,3.981-1.582,5.454-2.797C259.063,396.504,258.572,396.682,258.055,396.829z"/>
		<path fill="#40A629" d="M224.768,255.591c1.489,4.759-0.136,11.246,4.226,14.205c5.84,3.959,15.288-1.023,18.466-6.044
			c5.777-9.113,6.915-21.759,3.436-31.818c-3.27-9.441-11.88-15.093-21.73-16.348c-6.501-0.823-18.154,1.46-21.885,8.418
			c-4.208,7.832,5.29,12.447,5.186,12.215C219.376,242.68,224.016,253.17,224.768,255.591z"/>
		<path fill="#CCCCCC" d="M220.78,255.865c1.424,4.401,2.775,9.715,6.947,12.46c5.573,3.669,13.168-1.588,16.195-6.221
			c5.499-8.425,6.525-17.939,3.192-27.245c-3.128-8.734-11.36-13.972-20.761-15.146c-6.204-0.771-15.338,1.464-19.208,6.562
			c-5.022,6.613,3.397,12.712,3.3,12.493C216.483,247.429,220.057,253.625,220.78,255.865z"/>
		<path fill="#2E58A6" d="M248.65,240.896c-0.312-2.015-0.819-4.03-1.535-6.037c-3.128-8.734-11.36-13.972-20.761-15.146
			c-6.204-0.771-15.338,1.464-19.208,6.562c-5.022,6.613,4.3,14.297,4.202,14.08c4.866,6.131,6.993,9.937,8.583,13.603
			C231.248,254.21,243.876,248.671,248.65,240.896z"/>
		<path opacity="0.3" fill="#40A629" d="M179.294,261.579c4.959,2.956,18.993,4.206,28.188,0.875
			c-0.157,6.237-16.566,23.068-21.111,21.875C179.411,282.499,184.513,270.034,179.294,261.579z"/>
		<path fill="#F2F91C" d="M180.842,264.133c4.957,2.959,16.692,4.213,25.887,0.883c0.002,5.973-9.894,24.797-19.638,21.832
			C180.204,284.753,184.501,272.119,180.842,264.133z"/>
		<path fill="#40A629" d="M180.047,263.271c4.958,2.954,17.38,5.169,26.578,1.838c0.177,3.643-10.583,23.84-20.328,20.873
			C179.414,283.889,183.708,271.255,180.047,263.271z"/>
		<path fill="#237D26" d="M206.664,265.012c0.176,3.645-10.62,23.937-20.366,20.97c-2.243-0.684-6.887-7.306,2.597-12.31
			c3.826-2.021,4.949-6.979,4.949-6.979S201.47,267.275,206.664,265.012z"/>
		<path fill="#40A629" d="M260.717,245.374c-1.459-1.678-1.352-9.07-1.488-10.225c-0.689-5.93-2.934-10.887-4.487-16.535
			c-0.856-3.128-0.381-6.418,3.583-6.006c6.338,0.661,6.744,9.467,7.582,14.157c0.697,3.899,0.465,8.877-0.91,12.626
			c-0.662,1.783-1.137,4.05-2.402,5.522C261.779,245.864,261.174,245.897,260.717,245.374z"/>
		<path fill="#237D26" d="M261.154,236.73c-0.666-6.557-2.889-12.021-4.418-18.259c-0.564-2.302-0.525-4.681,0.729-5.888
			c-3.165,0.134-3.513,3.149-2.723,6.03c1.553,5.648,3.797,10.605,4.487,16.535c0.137,1.154,0.029,8.547,1.488,10.225
			c0.287,0.329,0.637,0.438,1.057,0.235C261.203,242.47,261.256,237.678,261.154,236.73z"/>
		<path fill="#110B79" d="M243.996,229.15c-4.066-5.318-10.516-8.546-17.642-9.437c-6.204-0.771-15.338,1.464-19.208,6.562
			c-5.022,6.613,3.835,14.278,3.738,14.059c3.542,4.356,7.323,4.2,9.096,4.035C231.76,243.279,240.091,238.478,243.996,229.15z"/>
		<path fill="#F2F2F2" d="M243.28,234.283c-0.118,2.664-2.427,4.726-5.16,4.604c-2.732-0.118-4.847-2.375-4.731-5.039
			c0.117-2.664,2.424-4.726,5.159-4.604C241.277,229.362,243.395,231.622,243.28,234.283z"/>
		<path fill="#F2F2F2" d="M231.705,243.308c-0.064,1.495-1.359,2.652-2.893,2.583c-1.534-0.064-2.721-1.331-2.651-2.828
			c0.064-1.492,1.359-2.649,2.89-2.583C230.584,240.549,231.774,241.817,231.705,243.308z"/>
	</g>
	<g>
		<path fill="#237D26" d="M145.159,393.718c1.749,1.458,2.045,30.986-4.266,35.27c-4.445,3.016-25.786,3.016-40.014,2.834
			c-4.292-0.054-15.826-0.358-18.984-1.618c-1.622-0.646-1.846-4.614-2.104-5.991c-0.82-4.327-1.196-8.659-1.708-13.031
			c-0.204-1.746-0.154-3.529-0.358-5.285c-0.715-6.088-1.524-11.46,4.585-14.504c10.249-5.109,22.975-3.346,33.228,0.807
			c3.1,1.258,5.827,3.495,9.072,4.384c4.667,1.269,9.942-0.006,14.66-0.52C140.893,395.885,143.725,392.522,145.159,393.718z"/>
		<path fill="#80C41C" d="M144.094,388.66c2.313,3.07,1.987,26.04-3.201,29.402c-2.5,1.616-7.298,1.536-10.199,1.527
			c-10.226-0.03-20.457-0.076-30.684-0.016c-4.292,0.026-16.54,0.393-18.116-0.297c-3.378-1.478-4.126-38.057-4.666-52.824
			c-0.549-11.804-4.083-25.04-2.49-43.885c0.352-4.153,2.121-8.068,5.326-8.688c6.121-1.191,25.043-1.569,33.085-0.701
			c5.447,0.587,8.602,2.836,8.714,8.488c0.079,3.859-9.819,49.49-7.468,62.479c0.826,4.573,8.505,2.383,11.817,2.181
			c4.36-0.26,5.897-0.389,10.235-0.915C140.893,384.869,142.56,386.625,144.094,388.66z"/>
		<path fill="#40A629" d="M144.848,391.062c1.747,1.455,1.233,28.911-3.955,32.275c-2.5,1.617-6.923,2.835-9.96,3.07
			c-14.048,1.08-22.381,1.314-29.696,0.899c-6.402-0.363-14.873-0.105-18.85-2.528c-4.445-2.705-7.301-38.521-7.838-53.29
			c-0.549-11.804-1.197-29.021,0.396-47.867c0.354-4.154,1.915-3.848,5.12-4.468c6.121-1.189,21.692-1.535,29.739-0.668
			c5.447,0.588,11.619-0.129,11.73,5.524c0.076,3.858-4.201,51.825-1.852,64.816c0.83,4.569,3.219,2.977,6.531,2.779
			c4.36-0.262,8.714-0.72,13.056-1.197C140.893,390.233,143.414,389.862,144.848,391.062z"/>
		<path fill="#80C41C" d="M91.811,330.965c0,2.845-2.268,5.149-5.068,5.149c-2.8,0-5.063-2.305-5.063-5.149
			c0-2.839,2.264-5.144,5.063-5.144C89.543,325.821,91.811,328.126,91.811,330.965z"/>
		<path fill="#80C41C" d="M111.55,352.456c0,4.141-3.304,7.492-7.379,7.492c-4.076,0-7.38-3.352-7.38-7.492
			c0-4.14,3.304-7.494,7.38-7.494C108.246,344.962,111.55,348.316,111.55,352.456z"/>
		<ellipse fill="#80C41C" cx="83.898" cy="380.446" rx="4.179" ry="4.243"/>
		<path fill="#80C41C" d="M109.618,387.498c0,3.34-2.666,6.051-5.954,6.051c-3.293,0-5.959-2.711-5.959-6.051
			c0-3.341,2.666-6.05,5.959-6.05C106.952,381.448,109.618,384.157,109.618,387.498z"/>
		<path fill="#80C41C" d="M96.791,409.88c0,3.042-2.43,5.508-5.42,5.508c-2.997,0-5.429-2.466-5.429-5.508
			c0-3.039,2.432-5.507,5.429-5.507C94.361,404.373,96.791,406.841,96.791,409.88z"/>
		<path fill="#80C41C" d="M136.624,412.319c0,4.088-3.263,7.401-7.289,7.401c-4.029,0-7.291-3.313-7.291-7.401
			c0-4.09,3.262-7.406,7.291-7.406C133.36,404.913,136.624,408.229,136.624,412.319z"/>
	</g>
</g>
</svg>
