<?xml version="1.0" encoding="utf-8"?>
<!-- Generator: Adobe Illustrator 15.1.0, SVG Export Plug-In . SVG Version: 6.00 Build 0)  -->
<!DOCTYPE svg PUBLIC "-//W3C//DTD SVG 1.1//EN" "http://www.w3.org/Graphics/SVG/1.1/DTD/svg11.dtd">
<svg version="1.1" id="Layer_1" xmlns="http://www.w3.org/2000/svg" xmlns:xlink="http://www.w3.org/1999/xlink" x="0px" y="0px"
	 width="512px" height="512px" viewBox="0 0 512 512" enable-background="new 0 0 512 512" xml:space="preserve">
<g>
	<g>
		<path fill="#0069B1" d="M188.943,362.768c1.348,1.346,2.02,5.834,2.125,6.938c1.633,17.41,1.055,70.268-1.054,79.402
			c-1.277,5.52-2.107,9.486-6.672,12.199c-3.521,2.098-8.204,1.348-12.459,1.17c-4.076-0.17-7.638-2.307-9.742-5.693
			c-1.05-1.691-1.01-5.941-1.01-8.193c0-4.662-0.559-9.945-7.07,3.635c-5.066,10.557-21.292,9.992-27.646,5.488
			c-2.028-1.439-5.631-5.539-6.884-7.68c-8.093-13.818-4.154,2.871-5.563,6.09c-1.344,3.076-1.965,3.908-6.644,5.994
			c-3.507,1.564-6.809,1.342-10.579,1.34c-4.38-0.004-10.627-3.725-11.832-8.73c-5.163-21.457-6.461-55.295-4.215-84.316
			c0.3-3.902,1.283-8.547,6.438-8.547c2.697,0,5.402,0.086,8.104,0.086c7.948-0.012,16.044-1.178,23.134,3.096
			c1.977,1.188,4.232,2.332,5.536,4.322c1.626,2.482,2.582,5.701,3.791,8.41c1.663,3.703,3.607,7.959,5.994,11.242
			c1.896,2.6,6.389,2.326,8.35,0.051c2.754-3.191,4.537-8.07,6.528-11.766c1.96-3.629,2.992-7.791,6.233-10.494
			c3.637-3.029,7.388-4.715,12.125-4.873c5.578-0.191,11.42-0.371,16.997-0.371C184.755,361.568,187.614,361.439,188.943,362.768z"
			/>
		<path fill="#82D5F9" d="M188.943,350.117c1.348,1.348,2.02,5.84,2.125,6.943c1.633,17.406,1.055,70.264-1.054,79.398
			c-1.277,5.518-2.107,9.486-6.672,12.203c-3.521,2.092-8.473,1.063-12.459,1.168c-4.078,0.104-7.638-2.311-9.742-5.695
			c-1.05-1.689-1.248-4.887-1.568-6.75c-0.782-4.598,0-11.387-6.512,2.193c-5.066,10.555-21.292,9.988-27.646,5.486
			c-2.028-1.438-5.746-5.473-6.884-7.68c-6.437-12.479-4.529,3.648-5.563,6.092c-1.309,3.092-3.564,4.639-6.644,5.99
			c-3.52,1.547-6.809,1.344-10.579,1.344c-4.38-0.008-10.627-3.723-11.832-8.73c-5.163-21.459-6.461-55.297-4.215-84.318
			c0.3-3.898,1.283-8.551,6.438-8.545c2.697,0,5.402,0.082,8.102,0.08c8.838-0.004,22.946-1.32,28.672,7.422
			c1.626,2.482,2.582,5.701,3.791,8.408c1.663,3.705,3.607,7.965,5.994,11.246c1.896,2.598,6.389,2.326,8.35,0.049
			c2.754-3.189,4.537-8.07,6.528-11.764c1.96-3.633,2.992-7.793,6.233-10.496c3.637-3.027,7.388-4.715,12.125-4.873
			c5.578-0.189,11.42-0.371,16.997-0.367C184.755,348.922,187.614,348.793,188.943,350.117z"/>
		<path fill="#3BAAF9" d="M188.943,357.146c1.348,1.344,2.02,5.836,2.125,6.939c1.633,17.406,1.055,70.266-1.054,79.4
			c-1.277,5.52-2.107,9.484-6.672,12.199c-3.521,2.096-8.473,1.068-12.459,1.168c-4.078,0.105-7.638-2.307-9.742-5.691
			c-1.05-1.693-1.248-4.889-1.568-6.748c-0.782-4.602,0-11.387-6.512,2.189c-5.066,10.555-21.292,9.988-27.646,5.486
			c-2.028-1.434-5.746-5.475-6.884-7.676c-6.437-12.48-4.529,3.648-5.563,6.088c-1.309,3.09-3.564,4.641-6.644,5.994
			c-3.52,1.545-6.809,1.342-10.579,1.338c-4.38-0.006-10.627-3.721-11.832-8.727c-5.163-21.459-6.461-55.297-4.215-84.318
			c0.3-3.902,1.283-8.549,6.438-8.547c2.697,0,5.402,0.084,8.104,0.084c7.948-0.012,16.044-1.178,23.134,3.096
			c1.977,1.189,4.232,2.334,5.536,4.324c1.626,2.48,2.582,5.699,3.791,8.406c1.663,3.709,3.607,7.965,5.994,11.246
			c1.896,2.602,6.389,2.33,8.35,0.053c2.754-3.193,4.537-8.074,6.528-11.768c1.96-3.633,2.992-7.793,6.233-10.494
			c3.637-3.029,7.388-4.717,12.125-4.877c5.578-0.188,11.42-0.365,16.997-0.365C184.755,355.951,187.614,355.818,188.943,357.146z"
			/>
		<path fill="#82D5F9" d="M107.284,369.357c0,3.025-2.449,5.475-5.472,5.475c-3.026,0-5.477-2.449-5.477-5.475
			c0-3.023,2.45-5.477,5.477-5.477C104.835,363.881,107.284,366.334,107.284,369.357z"/>
		<path fill="#82D5F9" d="M158.387,414.004c0,3.02-2.449,5.477-5.479,5.477c-3.021,0-5.47-2.457-5.47-5.477
			c0-3.023,2.449-5.477,5.47-5.477C155.938,408.527,158.387,410.98,158.387,414.004z"/>
		<circle fill="#82D5F9" cx="162.494" cy="368.832" r="5.476"/>
		<path fill="#82D5F9" d="M182.571,399.855c0,3.025-2.452,5.479-5.475,5.479c-3.023,0-5.475-2.453-5.475-5.479
			c0-3.021,2.451-5.473,5.475-5.473C180.119,394.383,182.571,396.834,182.571,399.855z"/>
		<path fill="#82D5F9" d="M99.99,407.227c0,3.527-2.865,6.391-6.391,6.391c-3.528,0-6.389-2.863-6.389-6.391s2.86-6.385,6.389-6.385
			C97.125,400.842,99.99,403.699,99.99,407.227z"/>
		<path fill="#82D5F9" d="M137.399,433.164c0,3.529-2.858,6.387-6.387,6.387s-6.385-2.857-6.385-6.387
			c0-3.523,2.856-6.389,6.385-6.389S137.399,429.641,137.399,433.164z"/>
		<path fill="#82D5F9" d="M184.852,371.568c0,2.018-1.633,3.652-3.646,3.652c-2.019,0-3.652-1.635-3.652-3.652
			c0-2.016,1.634-3.646,3.652-3.646C183.219,367.922,184.852,369.553,184.852,371.568z"/>
		<circle fill="#82D5F9" cx="102.269" cy="438.252" r="3.65"/>
		<circle fill="#82D5F9" cx="178.009" cy="444.572" r="3.65"/>
		<circle fill="#82D5F9" cx="127.363" cy="398.559" r="3.649"/>
	</g>
	<g>
		<path fill="#FCB77E" d="M383.245,326.211c0.92-0.621,1.912-1.094,3.022-1.367c2.616-0.643,5.605,2.205,6.683,4.406
			c0.935,1.906,1.243,4.139,1.629,6.182c0.161,0.855,0.589,1.561,0.559,2.449c-0.149,3.938-3.068,6.869-5.977,9.076
			c-2.771,2.105-5.616,4.053-8.642,5.783c-6.55,3.748-13.51,6.811-20.604,9.381c-3.415,1.234-6.879,2.355-10.396,3.285
			c-9.259,2.436-23.605,4.195-33.627-0.135c-8.597-3.709-6.159-13.717,2.156-16.494c7.238-2.422,38.039-4.578,45.169-7.834
			c3.278-1.494,6.642-2.758,9.78-4.547c1.959-1.111,3.849-2.367,5.502-3.906c0.732-0.684,1.349-1.443,1.899-2.287
			c0.836-1.299,0.714-2.316,1.982-3.348C382.667,326.625,382.953,326.41,383.245,326.211z"/>
		<linearGradient id="SVGID_1_" gradientUnits="userSpaceOnUse" x1="363.9189" y1="382.2471" x2="344.3928" y2="303.6144">
			<stop  offset="0" style="stop-color:#F96E32"/>
			<stop  offset="0.5735" style="stop-color:#F76B2F"/>
			<stop  offset="0.7939" style="stop-color:#F5672C"/>
			<stop  offset="0.8943" style="stop-color:#E9531A"/>
			<stop  offset="0.9879" style="stop-color:#DB3C05"/>
		</linearGradient>
		<path fill="url(#SVGID_1_)" d="M393.177,316.396c6.779,7.529,7.264,16.482,2.103,24.639
			c-7.095,11.203-31.788,21.607-46.287,25.426c-9.26,2.436-23.603,4.193-33.622-0.129c-8.6-3.715-6.162-13.723,2.151-16.5
			c7.238-2.422,38.043-4.578,45.17-7.834c3.1-1.414,18.702-6.979,18.239-14.383c-0.338-5.408-16.556-11.494-29.397-13.967
			c-12.237-2.354-24.774-3.598-37.14-5.5c-13.638-2.098,7.032-7.143,19.326-6.912C358.715,301.697,385.755,308.16,393.177,316.396z"
			/>
		<path opacity="0.51" fill="#DB3C05" d="M346.937,363.221c-8.792,2.09-18.604,3.668-27.611,2.648
			c-1.758-0.199-3.348-0.467-5.772-1.373c0.767,0.703,1.711,1.328,2.864,1.836c9.895,4.322,24.047,2.564,33.184,0.129
			c14.283-3.813,38.586-14.182,45.637-25.365C384.973,350.996,361.381,359.781,346.937,363.221z"/>
		
			<radialGradient id="SVGID_2_" cx="317.3213" cy="352.2197" r="68.0984" fx="316.4706" fy="352.2654" gradientUnits="userSpaceOnUse">
			<stop  offset="0" style="stop-color:#FFFFFF"/>
			<stop  offset="1" style="stop-color:#F96E32"/>
		</radialGradient>
		<path opacity="0.25" fill="url(#SVGID_2_)" d="M378.329,340.865c2.163-3.42,3.091-6.816,3.041-10.234
			c-3.372,5.637-14.698,9.725-17.289,10.908c-7.129,3.252-37.935,5.41-45.174,7.828c-8.312,2.779-12.543,11.932-3.941,15.646
			c2.268,0.982,11.828,0.961,18.754-0.373C348.445,361.807,371.239,352.068,378.329,340.865z"/>
		<path opacity="0.51" fill="#DB3C05" d="M314.394,308.148c12.365,1.902,24.902,3.146,37.14,5.5
			c9.989,1.922,22.022,6.033,27.035,10.313c-0.665-2.898-8.211-9.225-13.439-11.645c-21.421-9.916-19.657-7.059-42.218-8.441
			C312.387,305.264,304.04,306.557,314.394,308.148z"/>
		<path fill="#F96E32" d="M142.041,204.113c18.4,22.39,50.957,25.409,72.718,6.748c21.758-18.664,30.609-59.269,6.081-74.331
			c-21.078-12.945-49.422-20.123-71.182-1.459C127.9,153.732,123.646,181.723,142.041,204.113z"/>
		<linearGradient id="SVGID_3_" gradientUnits="userSpaceOnUse" x1="171.5249" y1="116.7886" x2="192.7517" y2="214.1819">
			<stop  offset="0" style="stop-color:#FEEFE9"/>
			<stop  offset="0.0178" style="stop-color:#FEE7DD"/>
			<stop  offset="0.0855" style="stop-color:#FDCAB5"/>
			<stop  offset="0.1597" style="stop-color:#FCB192"/>
			<stop  offset="0.2399" style="stop-color:#FB9C74"/>
			<stop  offset="0.3279" style="stop-color:#FA8B5C"/>
			<stop  offset="0.4271" style="stop-color:#FA7E49"/>
			<stop  offset="0.5436" style="stop-color:#F9753C"/>
			<stop  offset="0.6941" style="stop-color:#F97034"/>
			<stop  offset="1" style="stop-color:#F96E32"/>
		</linearGradient>
		<path opacity="0.51" fill="url(#SVGID_3_)" d="M142.041,204.113c18.4,22.39,50.957,25.409,72.718,6.748
			c21.758-18.664,30.609-59.269,6.081-74.331c-21.078-12.945-49.422-20.123-71.182-1.459
			C127.9,153.732,123.646,181.723,142.041,204.113z"/>
		<path opacity="0.3" fill="#DB3C05" d="M220.84,136.53c-1.304-0.805-2.642-1.584-3.998-2.339
			c20.228,16.603,11.212,54.177-9.476,71.918c-16.351,14.025-38.802,15.805-56.756,6.32c18.808,14.492,45.458,14.459,64.148-1.568
			C236.517,192.197,245.368,151.593,220.84,136.53z"/>
		<path opacity="0.6" fill="#FCAA95" d="M219.694,140.313c-19.908-12.227-46.668-19.002-67.217-1.38
			c-18.855,16.17-23.789,39.758-11.054,59.868c-15.188-20.715-10.732-45.837,9.049-62.802c20.547-17.626,47.312-10.845,67.216,1.379
			c4.08,2.503,7.178,5.76,9.408,9.512C225.121,144.365,222.667,142.141,219.694,140.313z"/>
		<path fill="#DB3C05" d="M141.079,173.947c0,23.355,18.538,42.289,41.4,42.289c22.86,0,41.395-18.934,41.395-42.289
			c0-23.357-18.534-42.289-41.395-42.289C159.617,131.658,141.079,150.59,141.079,173.947z"/>
		<path fill="#DB3C05" d="M284.365,88.035c0.011-6.669,0.38-13.334-0.222-19.988c-0.559-6.154-2.02-12.622-5.898-17.59
			c-4.148-5.313-10.617-9.051-17.319-9.798c-6.866-0.766-13.623,1.96-18.788,6.363c-4.763,4.056-8.244,9.453-7.986,15.882
			c0.207,5.147,2.929,10.054,7.152,12.975c4.681,3.235,10.555,2.905,15.441,0.334c4.26-2.243,7.467-6.896,5.122-11.662
			c-0.894-1.807-2.742-3.318-4.79-3.519c-2.666-0.267-4.726,1.485-6.109,3.6c-0.258,0.395,0.375,0.758,0.63,0.367
			c1.411-2.153,3.59-3.831,6.265-3.061c2.133,0.612,3.546,2.69,3.985,4.767c1.421,6.708-7.358,10.771-12.76,10.843
			c-5.966,0.081-10.987-4.217-13.115-9.564c-1.097-2.761-1.361-5.809-0.86-8.728c0.583-3.416,2.379-6.213,4.598-8.789
			c4.7-5.447,11.457-9.043,18.709-9.195c7.167-0.144,14.271,3.68,18.83,9.101c4.287,5.102,5.691,12.032,6.238,18.494
			c0.532,6.374,0.157,12.781,0.15,19.169C283.636,88.504,284.365,88.504,284.365,88.035L284.365,88.035z"/>
		<path fill="#DB3C05" d="M286.55,87.453c0.232-5.545-0.063-11.095,0.357-16.635c0.432-5.749,1.506-12.187,5.584-16.562
			c2.264-2.433,5.524-3.86,8.854-3.646c3.811,0.24,6.91,3.063,8.626,6.287c1.729,3.256,1.965,7.211,0.293,10.528
			c-1.628,3.243-5.493,4.993-8.874,3.379c-2.521-1.199-4.461-4.268-3.554-7.049c0.79-2.407,6.889-5.19,7.046-1.146
			c0.021,0.47,0.748,0.47,0.73,0c-0.1-2.498-2.14-3.062-4.287-2.535c-2.327,0.567-4.203,2.354-4.458,4.774
			c-0.257,2.421,1.44,4.722,3.285,6.068c2.205,1.607,5.067,1.557,7.427,0.345c5.632-2.883,5.316-10.736,2.622-15.455
			c-3.194-5.589-9.887-7.51-15.456-4.282c-5.535,3.204-7.464,10.104-8.227,16.021c-0.855,6.616-0.417,13.265-0.698,19.908
			C285.798,87.923,286.529,87.923,286.55,87.453L286.55,87.453z"/>
		<path fill="#FFCB9B" d="M145.327,173.947c0,20.958,16.63,37.949,37.152,37.949c20.519,0,37.153-16.991,37.153-37.949
			c0-20.964-16.635-37.951-37.153-37.951C161.957,135.996,145.327,152.983,145.327,173.947z"/>
		
			<radialGradient id="SVGID_4_" cx="182.0981" cy="173.9453" r="33.4498" gradientTransform="matrix(1 0 0 1.1011 0 -17.5894)" gradientUnits="userSpaceOnUse">
			<stop  offset="0" style="stop-color:#FFC49C"/>
			<stop  offset="0.5728" style="stop-color:#FFC39A"/>
			<stop  offset="0.7791" style="stop-color:#FEC093"/>
			<stop  offset="0.9257" style="stop-color:#FDBB88"/>
			<stop  offset="1" style="stop-color:#FCB77E"/>
		</radialGradient>
		<path fill="url(#SVGID_4_)" d="M181.285,139.607c3.841,0,7.527,0.667,10.963,1.88c-0.535-0.026-1.073-0.043-1.615-0.043
			c-18.563,0-33.613,14.963-33.613,33.42c0,16.868,12.572,30.807,28.904,33.085c-1.519,0.216-3.064,0.334-4.639,0.334
			c-18.563,0-33.61-15.375-33.61-34.336C147.675,154.979,162.723,139.607,181.285,139.607z"/>
		
			<radialGradient id="SVGID_5_" cx="536.8682" cy="232.7788" r="30.4802" gradientTransform="matrix(-0.8844 -0.4531 -0.4211 0.99 762.9908 188.944)" gradientUnits="userSpaceOnUse">
			<stop  offset="0" style="stop-color:#FFF3EB"/>
			<stop  offset="1" style="stop-color:#FFC49C"/>
		</radialGradient>
		<path opacity="0.5" fill="url(#SVGID_5_)" d="M158.731,173.197c-1.5,17.136,11.298,32.302,28.586,33.886
			c17.289,1.577,32.739-10.71,34.245-27.841c1.5-17.132-11.521-32.623-28.813-34.205
			C175.464,143.457,160.233,156.063,158.731,173.197z"/>
		<path fill="#F96E32" d="M427.53,206.875c-18.798,22.387-52.053,25.407-74.283,6.745c-22.229-18.664-31.273-59.269-6.214-74.329
			c21.531-12.946,50.487-20.122,72.716-1.462C441.979,156.493,446.323,184.484,427.53,206.875z"/>
		<linearGradient id="SVGID_6_" gradientUnits="userSpaceOnUse" x1="393.2734" y1="118.5317" x2="379.5319" y2="215.557">
			<stop  offset="0" style="stop-color:#FEEFE9"/>
			<stop  offset="0.0178" style="stop-color:#FEE7DD"/>
			<stop  offset="0.0855" style="stop-color:#FDCAB5"/>
			<stop  offset="0.1597" style="stop-color:#FCB192"/>
			<stop  offset="0.2399" style="stop-color:#FB9C74"/>
			<stop  offset="0.3279" style="stop-color:#FA8B5C"/>
			<stop  offset="0.4271" style="stop-color:#FA7E49"/>
			<stop  offset="0.5436" style="stop-color:#F9753C"/>
			<stop  offset="0.6941" style="stop-color:#F97034"/>
			<stop  offset="1" style="stop-color:#F96E32"/>
		</linearGradient>
		<path opacity="0.51" fill="url(#SVGID_6_)" d="M427.53,206.875c-18.798,22.387-52.053,25.407-74.283,6.745
			c-22.229-18.664-31.273-59.269-6.214-74.329c21.531-12.946,50.487-20.122,72.716-1.462
			C441.979,156.493,446.323,184.484,427.53,206.875z"/>
		<path opacity="0.3" fill="#DB3C05" d="M362.747,207.817c-21.109-17.722-30.318-55.216-9.758-71.852
			c-2.037,1.055-4.027,2.168-5.956,3.325c-25.06,15.061-16.015,55.665,6.214,74.329c19.203,16.118,46.632,16.062,65.861,1.315
			C401.051,223.503,378.961,221.432,362.747,207.817z"/>
		<path opacity="0.6" fill="#FCAA95" d="M347.88,142.771c20.336-12.227,47.677-19.004,68.667-1.382
			c19.262,16.17,24.3,39.757,11.291,59.866c15.519-20.711,10.963-45.836-9.243-62.803c-20.991-17.62-48.335-10.842-68.667,1.38
			c-4.167,2.507-7.331,5.764-9.606,9.517C342.338,146.822,344.842,144.596,347.88,142.771z"/>
		<circle fill="#DB3C05" cx="386.224" cy="176.708" r="42.29"/>
		<path fill="#FFCB9B" d="M424.177,176.708c0,20.96-16.992,37.95-37.955,37.95c-20.961,0-37.951-16.99-37.951-37.95
			c0-20.965,16.99-37.954,37.951-37.954C407.185,138.754,424.177,155.743,424.177,176.708z"/>
		
			<radialGradient id="SVGID_7_" cx="390.5645" cy="177.7612" r="29.1342" gradientTransform="matrix(1 0 0 1.3047 0 -54.1638)" gradientUnits="userSpaceOnUse">
			<stop  offset="0" style="stop-color:#FFC49C"/>
			<stop  offset="0.5728" style="stop-color:#FFC39A"/>
			<stop  offset="0.7791" style="stop-color:#FEC093"/>
			<stop  offset="0.9257" style="stop-color:#FDBB88"/>
			<stop  offset="1" style="stop-color:#FCB77E"/>
		</radialGradient>
		<path fill="url(#SVGID_7_)" d="M387.44,142.366c-3.926,0-7.688,0.668-11.201,1.879c0.547-0.023,1.099-0.038,1.653-0.038
			c18.966,0,34.336,14.962,34.336,33.418c0,16.869-12.843,30.811-29.528,33.087c1.549,0.214,3.131,0.333,4.74,0.333
			c18.965,0,34.337-15.375,34.337-34.337C421.777,157.743,406.405,142.366,387.44,142.366z"/>
		
			<radialGradient id="SVGID_8_" cx="372.3516" cy="160.2725" r="30.4792" gradientTransform="matrix(0.9035 -0.4531 0.4302 0.99 -26.9953 188.944)" gradientUnits="userSpaceOnUse">
			<stop  offset="0" style="stop-color:#FFF3EB"/>
			<stop  offset="1" style="stop-color:#FFC49C"/>
		</radialGradient>
		<path opacity="0.5" fill="url(#SVGID_8_)" d="M410.482,175.958c1.531,17.135-11.545,32.308-29.203,33.883
			c-17.663,1.582-33.449-10.704-34.979-27.838c-1.537-17.131,11.767-32.627,29.428-34.202
			C393.389,146.218,408.945,158.826,410.482,175.958z"/>
		<path opacity="0.11" fill="#DB3C05" d="M233.206,167.548c-5.709,44.954-24.566,42.891-32.896,12.076
			c-5.395-19.959,1.665-42.891,1.665-42.891l5.415-6.246C207.39,130.487,236.535,141.312,233.206,167.548z"/>
		<path opacity="0.11" fill="#DB3C05" d="M341.659,168.131c4.967,44.952,22.632,41.773,29.912,10.969
			c5.927-25.076-2.487-41.172-2.487-41.172l-4.974-6.861C364.11,131.066,338.766,141.896,341.659,168.131z"/>
		<path fill="#F96E32" d="M367.828,177.97c-11.046,49.369-36.74,91.601-82.054,91.601c-45.314,0-73.006-41.826-82.051-91.601
			c-10.104-55.632,24.104-90.81,82.051-91.6C344.51,85.575,377.793,133.418,367.828,177.97z"/>
		<linearGradient id="SVGID_9_" gradientUnits="userSpaceOnUse" x1="284.9824" y1="57.4858" x2="285.9377" y2="265.6779">
			<stop  offset="0" style="stop-color:#FEEFE9"/>
			<stop  offset="0.0178" style="stop-color:#FEE7DD"/>
			<stop  offset="0.0855" style="stop-color:#FDCAB5"/>
			<stop  offset="0.1597" style="stop-color:#FCB192"/>
			<stop  offset="0.2399" style="stop-color:#FB9C74"/>
			<stop  offset="0.3279" style="stop-color:#FA8B5C"/>
			<stop  offset="0.4271" style="stop-color:#FA7E49"/>
			<stop  offset="0.5436" style="stop-color:#F9753C"/>
			<stop  offset="0.6941" style="stop-color:#F97034"/>
			<stop  offset="1" style="stop-color:#F96E32"/>
		</linearGradient>
		<path opacity="0.51" fill="url(#SVGID_9_)" d="M364.685,178.221c-10.664,47.672-35.467,88.441-79.221,88.441
			c-43.751,0-70.489-40.38-79.217-88.441c-9.763-53.71,23.271-87.675,79.217-88.432C342.174,89.018,374.308,135.21,364.685,178.221z
			"/>
		<path fill="#FF8257" d="M354.14,194.314c-18.727,48.036-16.213,35.219-58.962,35.219c-42.747,0-59.98,16.024-78.433-33.109
			c-12.883-34.302-4.327-63.923,19.169-73.715c33.062-13.773,52.197,9.581,52.197,9.581s15.896-18.985,44.284-11.234
			C361.708,129.065,365.455,165.282,354.14,194.314z"/>
		<path fill="#DB3C05" d="M352.989,196.746c-18.414,48.037-15.943,35.219-57.976,35.219c-42.029,0-58.983,16.027-77.122-33.108
			c-12.666-34.304-4.251-63.925,18.848-73.714c32.51-13.775,51.329,9.584,51.329,9.584s15.63-18.99,43.541-11.235
			C360.43,131.494,364.119,167.715,352.989,196.746z"/>
		<radialGradient id="SVGID_10_" cx="288.0518" cy="294.3125" r="40.2743" gradientUnits="userSpaceOnUse">
			<stop  offset="0" style="stop-color:#F96E32"/>
			<stop  offset="0.5169" style="stop-color:#F86C30"/>
			<stop  offset="0.7031" style="stop-color:#F4652A"/>
			<stop  offset="0.8359" style="stop-color:#ED5A20"/>
			<stop  offset="0.9424" style="stop-color:#E34911"/>
			<stop  offset="1" style="stop-color:#DB3C05"/>
		</radialGradient>
		<path fill="url(#SVGID_10_)" d="M333.959,294.314c0,18.615-20.558,33.711-45.906,33.711c-25.354,0-45.908-15.096-45.908-33.711
			c0-18.619,20.554-33.715,45.908-33.715C313.401,260.6,333.959,275.695,333.959,294.314z"/>
		<path opacity="0.3" fill="#DB3C05" d="M334.994,284c-3.468-4.186-9.621-10.705-14.867-13.02
			c-7.333-3.238-3.216,7.408-1.538,10.656c2.088,4.037,2.785,8.393,4.631,12.506c3.275,7.287,10.646,21.711,21.163,14.885
			C353.581,303.057,339.639,289.609,334.994,284z"/>
		<linearGradient id="SVGID_11_" gradientUnits="userSpaceOnUse" x1="327.1836" y1="286.9131" x2="349.3594" y2="283.5702">
			<stop  offset="0.0121" style="stop-color:#DB3C05"/>
			<stop  offset="0.3729" style="stop-color:#EA551B"/>
			<stop  offset="0.7403" style="stop-color:#F5672C"/>
			<stop  offset="1" style="stop-color:#F96E32"/>
		</linearGradient>
		<path fill="url(#SVGID_11_)" d="M340.939,275.807c-5.132-1.797-13.762-4.215-19.452-3.494c-7.952,1.002,1.064,8.006,4.177,9.922
			c3.866,2.383,6.714,5.76,10.413,8.33c6.563,4.559,20.413,13.508,25.902,2.238C366.782,282.947,347.808,278.217,340.939,275.807z"
			/>
		<linearGradient id="SVGID_12_" gradientUnits="userSpaceOnUse" x1="201.4644" y1="294.9521" x2="228.4293" y2="308.4346">
			<stop  offset="0" style="stop-color:#F96E32"/>
			<stop  offset="0.2597" style="stop-color:#F5672C"/>
			<stop  offset="0.6271" style="stop-color:#EA551B"/>
			<stop  offset="0.9879" style="stop-color:#DB3C05"/>
		</linearGradient>
		<path fill="url(#SVGID_12_)" d="M246.175,293.482c4.095-5.398,8.135-14.938,9.631-21.785c-3.277-1.064-11.636-2.656-30.672,22.045
			c-4.579,5.941-22.018,6.947-33.627,12.551c-7.195,3.475-30.16,1.295-29.915,6.041c0.136,2.568,9.847,3.725,15.187,2.732
			c-1.084,0.092-17.052,1.07-16.383,5.996c0.534,3.723,14.77,0.645,18.978-0.502c-7.668,1.916-12.931,5.805-11.926,7.566
			c3.991,4.744,23.95-6.807,30.902-5.449c3.263,0.639,26.469,8.107,24.068,1.16c-1.099-3.182-10.075-3.398-12.243-7.709
			c-2.078-4.119,23.385-4.318,25.377-7.594C238.745,303.293,242.501,298.328,246.175,293.482z"/>
		<path opacity="0.79" fill="#F98B5C" d="M183.545,318.559c-2.03,0.914-5.348,2.523-6.465,3.086
			c-2.129,1.068-4.495,1.764-6.536,2.936c-1.355,0.775-2.939,1.854-3.052,3.469c0.045-0.613,2.629-2.342,3.153-2.604
			c1.486-0.746,3.229-1.578,4.767-2.232C178.48,321.912,183.525,318.557,183.545,318.559z"/>
		<path opacity="0.79" fill="#F98B5C" d="M169.08,317.787c0.183-0.029,0.365-0.066,0.55-0.098c1.941-0.379,3.853-0.951,5.744-1.531
			c1.102-0.336,2.201-0.688,3.3-1.027c1.325-0.418,3.152-0.543,4.274-1.41c-2.854,0.162-14.886,2.738-17.655,3.74
			c-0.759,0.275-1.539,0.51-2.274,0.848c-1.001,0.463-3.021,1.586-2.064,2.867c0.325-1.156,1.934-1.785,2.956-2.188
			C165.566,318.34,167.336,318.105,169.08,317.787z"/>
		<path opacity="0.79" fill="#F98B5C" d="M166.41,310.838c1.684-0.1,3.332-0.254,4.947-0.354c3.404-0.207,6.58-0.498,9.886-1.066
			c1.888-0.328,4.784-0.094,6.31-1.268c-2.336-0.205-4.823,0.42-7.15,0.615c-4.068,0.344-8.161,0.5-12.212,1.027
			c-1.676,0.221-3.622,0.18-5.096,1.088c-0.484,0.297-0.847,0.576-1.107,1.07C163.266,311.029,164.858,310.928,166.41,310.838z"/>
		<linearGradient id="SVGID_13_" gradientUnits="userSpaceOnUse" x1="189.2754" y1="292.3828" x2="242.6943" y2="292.3828">
			<stop  offset="0" style="stop-color:#F98655"/>
			<stop  offset="0.2937" style="stop-color:#F88352"/>
			<stop  offset="0.4979" style="stop-color:#F57B49"/>
			<stop  offset="0.6751" style="stop-color:#EF6D3A"/>
			<stop  offset="0.8367" style="stop-color:#E75924"/>
			<stop  offset="0.9866" style="stop-color:#DC3F08"/>
			<stop  offset="1" style="stop-color:#DB3C05"/>
		</linearGradient>
		<path opacity="0.79" fill="url(#SVGID_13_)" d="M234.223,286.791c2.421-3.631,8.472-10.689,8.472-10.689
			s-7.26,6.051-10.689,10.287c-2.051,2.529-4.232,5.457-6.221,8.035c-4.578,5.939-22.017,6.947-33.624,12.549
			c-1.017,0.492-2.007,0.951-2.885,1.691c4.213-0.9,8.645-2.297,12.283-3.322c7.86-2.219,15.239-2.473,21.151-4.875
			C228.576,298.084,230.641,292.162,234.223,286.791z"/>
		<path opacity="0.3" fill="#DB3C05" d="M177.641,314.129c-0.172-0.756-3.397-0.152-8.338-0.461
			c-3.946-0.244-6.068-1.225-7.411-1.699c-0.401,3.158,7.925,3.145,9.969,3.236C173.583,315.279,177.66,314.225,177.641,314.129z"/>
		<path opacity="0.3" fill="#DB3C05" d="M178.848,320.543c0.53-0.195,1.165-0.549,1.227-0.58c0.725-0.395,2.38-1.234,3.078-1.82
			c-1.261,0.262-4.895,1.285-6.215,1.539c-2.438,0.475-5.015,1.094-7.48,1.252c-1.517,0.098-7.887,1.615-8.774,0.168
			c1.726,2.369,6.395,1.691,9.303,1.338c1.997-0.246,3.922-0.482,5.851-1.074C176.755,321.082,177.945,320.877,178.848,320.543z"/>
		<path opacity="0.3" fill="#DB3C05" d="M172.29,328.264c-2.149,0.299-4.399,0.088-4.663-0.074c0.942,1.137,3.202,1.162,4.736,0.965
			c2.209-0.287,4.354-0.857,6.474-1.527c2.452-0.777,4.89-1.602,7.328-2.432c2.271-0.777,4.563-1.506,6.906-2.064
			c1.687-0.402,3.544-0.793,5.278-0.453c6.099,1.191,11.929,3.459,18.171,3.996c1.855,0.16,3.861,0.398,5.265-1.098
			c-1.591,1.307-4.277,0.43-6.054,0.125c-2.36-0.404-4.726-0.887-6.97-1.75c-3.512-1.35-6.397-2.986-10.271-3.059
			c-3.63-0.066-6.807,0.91-10.156,2.195c-2.614,1.002-5.178,2.127-7.807,3.088C177.863,327.146,175.106,327.881,172.29,328.264z"/>
		<path opacity="0.3" fill="#DB3C05" d="M214.344,313.305c4.16-1.008,8.439-1.459,12.658-2.16c1.877-0.311,3.767-0.613,5.601-1.129
			c0.923-0.258,2.406-0.586,2.949-1.48c1.45-2.377,2.833-5.398,4.836-7.357c-1.426,1.752-4.117,3.018-6.008,4.244
			c-4.122,2.672-8.33,3.576-13.143,4.482c-3.329,0.627-7.396,1.029-10.101,3.258c-0.663,0.547-1.389,1.418-1.224,2.355
			C210.671,313.813,212.744,313.691,214.344,313.305z"/>
		<path opacity="0.3" fill="#B72802" d="M246.175,294.293c4.095-5.596,8.135-15.48,9.631-22.576c0.231-1.094-6.806,0.213-7.162,0.35
			c-1.446,0.553-2.686,1.189-3.867,2.193c2.077,1.586,3.412,2.033,3.196,5.016c-0.351,4.75-3.048,9.154-5.204,13.289
			c-1.701,3.262-3.922,6.215-5.675,9.441c-0.685,1.268-1.019,2.563-1.637,3.838c-0.755,1.549-1.884,2.91-1.618,4.762
			c0.156,1.102,2.824-2.563,2.848-2.592c0.975-1.584,1.994-3.133,3.035-4.67C241.798,300.275,243.985,297.281,246.175,294.293z"/>
		<path opacity="0.3" fill="#DB3C05" d="M288.053,323.275c-24.269,0-44.134-13.826-45.792-31.334
			c-0.072,0.781-0.116,1.572-0.116,2.373c0,18.615,20.554,33.711,45.908,33.711c25.349,0,45.906-15.096,45.906-33.711
			c0-0.801-0.043-1.592-0.117-2.373C332.181,309.449,312.317,323.275,288.053,323.275z"/>
		<path opacity="0.6" fill="#DB3C05" d="M316.349,302.121c0,15.154-11.621,21.354-27.253,21.354s-29.349-6.199-29.349-21.354
			c0-15.152,15.897-27.389,28.306-27.436C301.666,274.633,316.349,286.969,316.349,302.121z"/>
		<path fill="#FFCB9B" d="M313.712,301.836c0,13.742-10.541,19.365-24.714,19.365c-14.172,0-26.612-5.623-26.612-19.365
			c0-13.738,14.414-24.832,25.667-24.875C300.395,276.912,313.712,288.098,313.712,301.836z"/>
		<path fill="#FFCB9B" d="M313.712,301.836c0,13.742-10.541,19.365-24.714,19.365c-14.172,0-26.612-5.623-26.612-19.365
			c0-13.738,14.414-24.832,25.667-24.875C300.395,276.912,313.712,288.098,313.712,301.836z"/>
		<path fill="#DB3C05" d="M384.653,223.661c0,31.185-38.924,51.188-96.045,51.188c-57.126,0-100.068-21.597-100.796-52.774
			c-0.528-22.69,12.152-56.936,97.632-55.412C374.1,168.248,384.653,200.438,384.653,223.661z"/>
		<path fill="#FFC49C" d="M349.376,189.961c-16.625,43.377-17.709,35.425-55.662,35.425s-59.444,8.211-73.737-36.87
			c-9.398-29.638,0.257-50.745,21.123-59.588c29.349-12.434,46.343,11.035,46.343,11.035s14.112-19.524,39.313-12.524
			C352.78,134.667,359.425,163.749,349.376,189.961z"/>
		<path opacity="0.3" fill="#FFFFFF" d="M241.1,134.208c29.349-12.441,46.343,11.032,46.343,11.032s14.112-19.524,39.313-12.524
			c17.472,4.854,26.212,19.563,27.021,36.638c0.876-19.259-7.771-36.568-27.021-41.915c-25.201-7-39.313,12.524-39.313,12.524
			s-16.994-23.469-46.343-11.035c-16.178,6.857-25.604,21.086-24.654,40.938C217.273,152.764,226.396,140.436,241.1,134.208z"/>
		<radialGradient id="SVGID_14_" cx="287.9805" cy="306.5342" r="21.6781" gradientUnits="userSpaceOnUse">
			<stop  offset="0" style="stop-color:#FFFFFF"/>
			<stop  offset="1" style="stop-color:#FFC49C"/>
		</radialGradient>
		<path opacity="0.5" fill="url(#SVGID_14_)" d="M310.262,300.203c0,11.631-9.976,21.057-22.281,21.057s-22.28-9.426-22.28-21.057
			c0-11.633,9.975-21.059,22.28-21.059S310.262,288.57,310.262,300.203z"/>
		<path opacity="0.24" fill="#F96E32" d="M282.444,311.77c-3.79-11.961-10.346-15.867-17.822-18.975
			c-2.073,3.391-2.236,4.971-2.236,9.041c0,11.799,9.171,17.611,20.735,19.018C284.228,320.988,283.126,313.914,282.444,311.77z"/>
		<path opacity="0.24" fill="#F96E32" d="M294.191,312.221c3.762-11.959,10.259-15.867,17.672-18.973
			c2.057,3.389,2.22,4.965,2.22,9.041c0,11.799-9.096,17.607-20.562,19.016C292.421,321.438,293.515,314.367,294.191,312.221z"/>
		<path opacity="0.24" fill="#F96E32" d="M288.965,318.344c-20.309-0.379-23.962-7.34-25.429-18.68
			c-0.11,0.818-0.167,1.652-0.167,2.494c0,13.215,11.962,18.623,25.596,18.623c13.628,0,23.769-5.408,23.769-18.623
			c0-0.826-0.052-1.641-0.148-2.451C311.313,311.016,306.521,318.67,288.965,318.344z"/>
		<path opacity="0.3" fill="#DB3C05" d="M293.673,279.182c-34.557,0-42.326-8.689-37.37-12.76
			c8.036-6.587,22.161-8.878,32.403-8.878c8.535,0,17.575,0.475,25.469,3.881c3.02,1.308,9.421,4.427,8.734,8.452
			C322.597,271.715,319.457,279.182,293.673,279.182z"/>
		<ellipse fill="#FFC49C" cx="239.265" cy="219.173" rx="46.643" ry="41.427"/>
		<linearGradient id="SVGID_15_" gradientUnits="userSpaceOnUse" x1="235.0972" y1="182.7456" x2="200.5334" y2="211.8958">
			<stop  offset="0" style="stop-color:#FFC49C"/>
			<stop  offset="0.1727" style="stop-color:#FFCAA6"/>
			<stop  offset="0.4618" style="stop-color:#FFD9BF"/>
			<stop  offset="0.8296" style="stop-color:#FFF2E9"/>
			<stop  offset="1" style="stop-color:#FFFFFF"/>
		</linearGradient>
		<path opacity="0.3" fill="url(#SVGID_15_)" d="M240.138,184.423c19.711,0,20.919-6.067-0.264-6.067
			c-22.327,0-40.99,13.938-45.565,32.552C204.781,196.298,219.203,184.423,240.138,184.423z"/>
		<path fill="#FFC49C" d="M380.896,221.284c0,22.879-20.877,41.425-46.638,41.425c-25.76,0-46.642-18.546-46.642-41.425
			c0-22.882,20.882-41.427,46.642-41.427C360.019,179.857,380.896,198.402,380.896,221.284z"/>
		
			<linearGradient id="SVGID_16_" gradientUnits="userSpaceOnUse" x1="335.9209" y1="158.4409" x2="386.7224" y2="193.0026" gradientTransform="matrix(0.9762 -0.217 0.217 0.9762 -43.2149 101.1156)">
			<stop  offset="0" style="stop-color:#FFC49C"/>
			<stop  offset="0.1727" style="stop-color:#FFCAA6"/>
			<stop  offset="0.4618" style="stop-color:#FFD9BF"/>
			<stop  offset="0.8296" style="stop-color:#FFF2E9"/>
			<stop  offset="1" style="stop-color:#FFFFFF"/>
		</linearGradient>
		<path opacity="0.3" fill="url(#SVGID_16_)" d="M325.118,190.07c23.52-5.229,46.418,5.765,54.367,25.006
			c-0.102-0.597-0.216-1.19-0.35-1.783c-4.965-22.337-29.373-35.911-54.518-30.325C302.211,187.956,305.223,194.491,325.118,190.07z
			"/>
		<path fill="#FFC49C" d="M357.299,257.411c0,0-30.492,14.304-68.683,14.108c-42.032-0.223-70.999-15.607-70.999-15.607
			s29.11-38.587,67.295-38.587C323.102,217.325,357.299,257.411,357.299,257.411z"/>
		<path opacity="0.24" fill="#F96E32" d="M288.616,267.295c-42.032-0.219-70.999-11.383-70.999-11.383s28.967,15.385,70.999,15.607
			c38.19,0.195,68.683-14.108,68.683-14.108S326.807,267.492,288.616,267.295z"/>
		<radialGradient id="SVGID_17_" cx="253.9165" cy="166.4653" r="33.1743" gradientUnits="userSpaceOnUse">
			<stop  offset="0" style="stop-color:#FFEBDD"/>
			<stop  offset="1" style="stop-color:#FFC49C"/>
		</radialGradient>
		<path opacity="0.5" fill="url(#SVGID_17_)" d="M287.058,166.468c0,18.337-14.02,33.205-32.613,33.205
			c-18.596,0-33.669-14.868-33.669-33.205c0-18.344,15.073-33.21,33.669-33.21C273.038,133.258,287.058,148.124,287.058,166.468z"/>
		<radialGradient id="SVGID_18_" cx="319.3604" cy="166.8647" r="32.5835" gradientUnits="userSpaceOnUse">
			<stop  offset="0" style="stop-color:#FFEBDD"/>
			<stop  offset="1" style="stop-color:#FFC49C"/>
		</radialGradient>
		<path opacity="0.5" fill="url(#SVGID_18_)" d="M351.308,166.865c0,18.338-15.076,33.207-33.67,33.207
			c-18.593,0-30.225-15.66-30.225-34.001c0-18.337,11.632-32.414,30.225-32.414C336.231,133.657,351.308,148.525,351.308,166.865z"
			/>
		<linearGradient id="SVGID_19_" gradientUnits="userSpaceOnUse" x1="294.0635" y1="207.0093" x2="302.5865" y2="201.8721">
			<stop  offset="0" style="stop-color:#FF8A3B"/>
			<stop  offset="0.2251" style="stop-color:#F97E33"/>
			<stop  offset="0.6304" style="stop-color:#EB5E1D"/>
			<stop  offset="1" style="stop-color:#DB3C05"/>
		</linearGradient>
		<path fill="url(#SVGID_19_)" d="M292.333,205.827c0.229,1.641,1.758,2.396,5.238,1.761c1.32-0.243,2.774-1.183,3.756-1.947
			c1.598-1.249,3.682-1.36,3.691-1.612c0.076-1.667-3.264-2.569-6.764-2.073C294.75,202.451,292.096,204.187,292.333,205.827z"/>
		<linearGradient id="SVGID_20_" gradientUnits="userSpaceOnUse" x1="274.6504" y1="206.1147" x2="273.9232" y2="203.0448">
			<stop  offset="0" style="stop-color:#FF8A3B"/>
			<stop  offset="1" style="stop-color:#DB3C05"/>
		</linearGradient>
		<path fill="url(#SVGID_20_)" d="M281.116,205.862c-0.228,1.641-1.851,2.384-5.58,1.732c-1.419-0.252-2.984-1.201-4.042-1.979
			c-1.728-1.254-3.955-1.38-3.968-1.634c-0.106-1.669,3.453-2.553,7.202-2.034C278.482,202.466,281.342,204.219,281.116,205.862z"/>
		<path opacity="0.3" fill="#DB3C05" d="M250.643,297.301c4.807-6.768,6.435-18.186,7.066-23.938
			c0.108-0.986-0.13-1.213-0.896-1.895c-1.786-1.582-6.12,2.939-6.905,4.605c-1.313,2.789-7.307,9.598-7.684,12.68
			c-0.153,1.258-0.759,7.904,0.5,8.533C244.098,297.977,248.659,300.09,250.643,297.301z"/>
		<radialGradient id="SVGID_21_" cx="230.0752" cy="220.0391" r="32.002" gradientUnits="userSpaceOnUse">
			<stop  offset="0" style="stop-color:#F97D85"/>
			<stop  offset="0.284" style="stop-color:#FA8D8A"/>
			<stop  offset="0.8362" style="stop-color:#FEB698"/>
			<stop  offset="1" style="stop-color:#FFC49C"/>
		</radialGradient>
		<path opacity="0.5" fill="url(#SVGID_21_)" d="M262.967,220.037c0,17.171-14.729,31.089-32.895,31.089
			c-18.162,0-32.889-13.918-32.889-31.089c0-17.165,14.727-31.085,32.889-31.085C248.237,188.952,262.967,202.872,262.967,220.037z"
			/>
		<radialGradient id="SVGID_22_" cx="344.252" cy="222.0693" r="32.0005" gradientUnits="userSpaceOnUse">
			<stop  offset="0" style="stop-color:#F97D85"/>
			<stop  offset="0.284" style="stop-color:#FA8D8A"/>
			<stop  offset="0.8362" style="stop-color:#FEB698"/>
			<stop  offset="1" style="stop-color:#FFC49C"/>
		</radialGradient>
		<path opacity="0.5" fill="url(#SVGID_22_)" d="M377.143,222.069c0,17.168-14.721,31.085-32.89,31.085
			c-18.166,0-32.892-13.917-32.892-31.085c0-17.171,14.726-31.085,32.892-31.085C362.422,190.984,377.143,204.898,377.143,222.069z"
			/>
		
			<radialGradient id="SVGID_23_" cx="286.9248" cy="195.9336" r="31.9999" gradientTransform="matrix(1 0 0 0.4919 0 156.2899)" gradientUnits="userSpaceOnUse">
			<stop  offset="0" style="stop-color:#FFFFFF"/>
			<stop  offset="1" style="stop-color:#FFC49C"/>
		</radialGradient>
		<path opacity="0.5" fill="url(#SVGID_23_)" d="M319.817,252.671c0,8.444-14.728,15.288-32.893,15.288
			c-18.168,0-32.893-6.844-32.893-15.288c0-8.446,14.725-15.29,32.893-15.29C305.09,237.381,319.817,244.225,319.817,252.671z"/>
		<g opacity="0.11">
			<path fill="#F96E32" d="M287.074,231.662c-10.604,0.062-16.364-12.433-21.411-16.237c3.717,21.548,12.672,35.34,21.626,35.375
				c8.382,0.033,17.219-12.978,20.084-36.541C305.747,215.55,300.746,231.576,287.074,231.662z"/>
		</g>
		<g opacity="0.19">
			<path fill="#FFFFFF" d="M286.636,232.726c-9.209,0.06-14.21-11.087-18.596-14.481c0.24,1.441,0.513,2.84,0.804,4.199
				c4.017,14.52,10.991,23.451,17.967,23.477c6.279,0.022,12.839-7.76,16.45-22.124c0.391-2.083,0.731-4.275,1.008-6.591
				C302.853,218.355,298.512,232.653,286.636,232.726z"/>
		</g>
		<g opacity="0.19">
			<path fill="#FFFFFF" d="M287.074,221.635c-10.604,0.063-18.871-6.501-21.516-7.086c2.588,7.565,12.776,25.137,21.73,25.167
				c8.382,0.033,18.013-19.257,20.216-26.386C306.154,212.728,300.746,221.551,287.074,221.635z"/>
		</g>
		<g>
			<linearGradient id="SVGID_24_" gradientUnits="userSpaceOnUse" x1="286.5313" y1="240.5464" x2="286.5313" y2="227.3537">
				<stop  offset="0" style="stop-color:#DB0A0A"/>
				<stop  offset="0.9879" style="stop-color:#B50404"/>
			</linearGradient>
			<path fill="url(#SVGID_24_)" d="M287.074,223.743c-10.604,0.069-16.467-5.392-21.516-9.194
				c2.588,7.565,12.776,28.301,21.73,28.334c8.382,0.033,18.013-22.424,20.216-29.553
				C305.879,214.621,300.746,223.661,287.074,223.743z"/>
		</g>
		<ellipse fill="#FCA163" cx="252.664" cy="171.333" rx="24.729" ry="26.758"/>
		<path fill="#C45508" d="M275.701,171.333c0,13.767-10.317,24.931-23.04,24.931s-23.037-11.164-23.037-24.931
			c0-13.766,10.314-24.93,23.037-24.93S275.701,157.567,275.701,171.333z"/>
		<radialGradient id="SVGID_25_" cx="252.6641" cy="171.333" r="22.2863" gradientUnits="userSpaceOnUse">
			<stop  offset="0" style="stop-color:#FFFFFF"/>
			<stop  offset="0.5149" style="stop-color:#FDFEFE"/>
			<stop  offset="0.7003" style="stop-color:#F6FAFA"/>
			<stop  offset="0.8325" style="stop-color:#EBF3F3"/>
			<stop  offset="0.9387" style="stop-color:#DAE8E8"/>
			<stop  offset="1" style="stop-color:#CCE0E0"/>
		</radialGradient>
		<path fill="url(#SVGID_25_)" d="M274.056,171.333c0,12.783-9.575,23.146-21.395,23.146c-11.814,0-21.389-10.363-21.389-23.146
			s9.574-23.146,21.389-23.146C264.48,148.187,274.056,158.55,274.056,171.333z"/>
		<path fill="#0086D4" d="M247.574,149.391c-0.167,0-2.354,0.227-2.951,0.49c-7.833,3.439-13.351,11.746-13.351,21.452
			c0,12.783,9.574,23.146,21.389,23.146c1.923,0,3.781-0.276,5.555-0.793c6.087-4.24,10.146-11.813,10.146-20.452
			C268.362,159.938,259.402,149.391,247.574,149.391z"/>
		
			<radialGradient id="SVGID_26_" cx="248.7666" cy="173.021" r="19.5133" gradientTransform="matrix(1 0 0 1.1705 0 -29.5035)" gradientUnits="userSpaceOnUse">
			<stop  offset="0" style="stop-color:#82D5F9"/>
			<stop  offset="0.4404" style="stop-color:#80D4F8"/>
			<stop  offset="0.599" style="stop-color:#79D0F6"/>
			<stop  offset="0.7121" style="stop-color:#6ECAF2"/>
			<stop  offset="0.8035" style="stop-color:#5DC1ED"/>
			<stop  offset="0.8818" style="stop-color:#47B5E5"/>
			<stop  offset="0.95" style="stop-color:#2CA7DC"/>
			<stop  offset="1" style="stop-color:#139AD4"/>
		</radialGradient>
		<path fill="url(#SVGID_26_)" d="M247.137,151.724c-1.96-0.102-4.913-0.165-7.542,1.368c-5.871,4.5-8.322,11.407-8.322,18.241
			c0,11.994,8.428,21.857,19.227,23.03c8.957-1.786,15.762-10.573,15.762-21.15C266.261,161.345,257.687,152.26,247.137,151.724z"/>
		<path opacity="0.51" fill="#C4FFFB" d="M245.87,153.802c9.867,0.8,17.926,7.831,19.765,17.304
			c-0.991-10.353-8.663-18.197-18.21-19.015c-1.956-0.168-4.885-0.328-7.563,1.109c-0.642,0.459-1.237,0.957-1.807,1.472
			C240.851,153.476,243.843,153.636,245.87,153.802z"/>
		
			<radialGradient id="SVGID_27_" cx="239.0591" cy="176.2002" r="21.2603" gradientTransform="matrix(1 0 0 0.8669 0 23.4591)" gradientUnits="userSpaceOnUse">
			<stop  offset="0" style="stop-color:#000000"/>
			<stop  offset="0.3891" style="stop-color:#000102"/>
			<stop  offset="0.5563" style="stop-color:#000509"/>
			<stop  offset="0.681" style="stop-color:#000D16"/>
			<stop  offset="0.7847" style="stop-color:#001728"/>
			<stop  offset="0.8752" style="stop-color:#00253F"/>
			<stop  offset="0.9552" style="stop-color:#00365B"/>
			<stop  offset="1" style="stop-color:#00416E"/>
		</radialGradient>
		<path fill="url(#SVGID_27_)" d="M261.412,174.021c0-9.809-7.95-17.757-17.755-17.757c-3.242,0-6.277,0.874-8.893,2.391
			c-2.208,3.643-3.492,7.995-3.492,12.678c0,8.831,4.57,16.501,11.293,20.402c0.361,0.024,0.724,0.039,1.092,0.039
			C253.462,191.774,261.412,183.824,261.412,174.021z"/>
		<radialGradient id="SVGID_28_" cx="241.0684" cy="166.5967" r="6.7192" gradientUnits="userSpaceOnUse">
			<stop  offset="0" style="stop-color:#FFFFFF"/>
			<stop  offset="0.1639" style="stop-color:#FCFCFC"/>
			<stop  offset="0.2946" style="stop-color:#F2F2F2"/>
			<stop  offset="0.4137" style="stop-color:#E1E1E1"/>
			<stop  offset="0.5261" style="stop-color:#C9C9C9"/>
			<stop  offset="0.6338" style="stop-color:#ABABAB"/>
			<stop  offset="0.7378" style="stop-color:#858585"/>
			<stop  offset="0.839" style="stop-color:#585858"/>
			<stop  offset="0.9355" style="stop-color:#262626"/>
			<stop  offset="1" style="stop-color:#000000"/>
		</radialGradient>
		<circle fill="url(#SVGID_28_)" cx="241.068" cy="166.597" r="6.719"/>
		<radialGradient id="SVGID_29_" cx="254.0674" cy="175.9736" r="3.5103" gradientUnits="userSpaceOnUse">
			<stop  offset="0" style="stop-color:#FFFFFF"/>
			<stop  offset="0.1773" style="stop-color:#FCFCFC"/>
			<stop  offset="0.3095" style="stop-color:#F2F2F2"/>
			<stop  offset="0.4271" style="stop-color:#E2E2E2"/>
			<stop  offset="0.5362" style="stop-color:#CCCCCC"/>
			<stop  offset="0.6395" style="stop-color:#AEAEAE"/>
			<stop  offset="0.7384" style="stop-color:#8A8A8A"/>
			<stop  offset="0.8338" style="stop-color:#5F5F5F"/>
			<stop  offset="0.9241" style="stop-color:#2F2F2F"/>
			<stop  offset="1" style="stop-color:#000000"/>
		</radialGradient>
		<path fill="url(#SVGID_29_)" d="M257.579,175.973c0,1.941-1.571,3.51-3.511,3.51s-3.513-1.568-3.513-3.51
			c0-1.938,1.573-3.508,3.513-3.508S257.579,174.034,257.579,175.973z"/>
		<path fill="#FCA163" d="M343.62,171.333c0,14.776-11.065,26.758-24.729,26.758c-13.655,0-24.726-11.981-24.726-26.758
			c0-14.777,11.07-26.759,24.726-26.759C332.555,144.574,343.62,156.556,343.62,171.333z"/>
		<path fill="#C45508" d="M341.933,171.333c0,13.767-10.313,24.931-23.042,24.931c-12.72,0-23.037-11.164-23.037-24.931
			c0-13.766,10.317-24.93,23.037-24.93C331.62,146.403,341.933,157.567,341.933,171.333z"/>
		<radialGradient id="SVGID_30_" cx="318.8916" cy="171.333" r="22.2868" gradientUnits="userSpaceOnUse">
			<stop  offset="0" style="stop-color:#FFFFFF"/>
			<stop  offset="0.5149" style="stop-color:#FDFEFE"/>
			<stop  offset="0.7003" style="stop-color:#F6FAFA"/>
			<stop  offset="0.8325" style="stop-color:#EBF3F3"/>
			<stop  offset="0.9387" style="stop-color:#DAE8E8"/>
			<stop  offset="1" style="stop-color:#CCE0E0"/>
		</radialGradient>
		<path fill="url(#SVGID_30_)" d="M340.284,171.333c0,12.783-9.575,23.146-21.394,23.146c-11.813,0-21.392-10.363-21.392-23.146
			s9.578-23.146,21.392-23.146C330.709,148.187,340.284,158.55,340.284,171.333z"/>
		<path fill="#0086D4" d="M313.804,149.391c-0.163,0-2.355,0.227-2.952,0.49c-7.827,3.439-13.353,11.746-13.353,21.452
			c0,12.783,9.578,23.146,21.392,23.146c1.923,0,3.786-0.276,5.554-0.793c6.087-4.24,10.145-11.813,10.145-20.452
			C334.589,159.938,325.63,149.391,313.804,149.391z"/>
		
			<radialGradient id="SVGID_31_" cx="314.9941" cy="173.021" r="19.5133" gradientTransform="matrix(1 0 0 1.1705 0 -29.5035)" gradientUnits="userSpaceOnUse">
			<stop  offset="0" style="stop-color:#82D5F9"/>
			<stop  offset="0.4404" style="stop-color:#80D4F8"/>
			<stop  offset="0.599" style="stop-color:#79D0F6"/>
			<stop  offset="0.7121" style="stop-color:#6ECAF2"/>
			<stop  offset="0.8035" style="stop-color:#5DC1ED"/>
			<stop  offset="0.8818" style="stop-color:#47B5E5"/>
			<stop  offset="0.95" style="stop-color:#2CA7DC"/>
			<stop  offset="1" style="stop-color:#139AD4"/>
		</radialGradient>
		<path fill="url(#SVGID_31_)" d="M313.368,151.724c-1.963-0.102-4.911-0.165-7.543,1.368c-5.871,4.5-8.326,11.407-8.326,18.241
			c0,11.994,8.434,21.857,19.23,23.03c8.958-1.786,15.759-10.573,15.759-21.15C332.488,161.345,323.914,152.26,313.368,151.724z"/>
		<path opacity="0.51" fill="#C4FFFB" d="M312.101,153.802c9.868,0.8,17.924,7.831,19.763,17.304
			c-0.989-10.353-8.664-18.197-18.211-19.015c-1.948-0.168-4.885-0.328-7.556,1.109c-0.644,0.459-1.243,0.957-1.811,1.472
			C307.079,153.476,310.073,153.636,312.101,153.802z"/>
		
			<radialGradient id="SVGID_32_" cx="305.2881" cy="176.2002" r="21.2625" gradientTransform="matrix(1 0 0 0.8669 0 23.4591)" gradientUnits="userSpaceOnUse">
			<stop  offset="0" style="stop-color:#000000"/>
			<stop  offset="0.3891" style="stop-color:#000102"/>
			<stop  offset="0.5563" style="stop-color:#000509"/>
			<stop  offset="0.681" style="stop-color:#000D16"/>
			<stop  offset="0.7847" style="stop-color:#001728"/>
			<stop  offset="0.8752" style="stop-color:#00253F"/>
			<stop  offset="0.9552" style="stop-color:#00365B"/>
			<stop  offset="1" style="stop-color:#00416E"/>
		</radialGradient>
		<path fill="url(#SVGID_32_)" d="M327.645,174.021c0-9.809-7.953-17.757-17.756-17.757c-3.241,0-6.278,0.874-8.893,2.391
			c-2.212,3.643-3.497,7.995-3.497,12.678c0,8.831,4.572,16.501,11.296,20.402c0.362,0.024,0.724,0.039,1.094,0.039
			C319.691,191.774,327.645,183.824,327.645,174.021z"/>
		<radialGradient id="SVGID_33_" cx="307.3027" cy="166.5967" r="6.7207" gradientUnits="userSpaceOnUse">
			<stop  offset="0" style="stop-color:#FFFFFF"/>
			<stop  offset="0.1639" style="stop-color:#FCFCFC"/>
			<stop  offset="0.2946" style="stop-color:#F2F2F2"/>
			<stop  offset="0.4137" style="stop-color:#E1E1E1"/>
			<stop  offset="0.5261" style="stop-color:#C9C9C9"/>
			<stop  offset="0.6338" style="stop-color:#ABABAB"/>
			<stop  offset="0.7378" style="stop-color:#858585"/>
			<stop  offset="0.839" style="stop-color:#585858"/>
			<stop  offset="0.9355" style="stop-color:#262626"/>
			<stop  offset="1" style="stop-color:#000000"/>
		</radialGradient>
		<circle fill="url(#SVGID_33_)" cx="307.303" cy="166.597" r="6.722"/>
		<radialGradient id="SVGID_34_" cx="320.2988" cy="175.9736" r="3.5098" gradientUnits="userSpaceOnUse">
			<stop  offset="0" style="stop-color:#FFFFFF"/>
			<stop  offset="0.1773" style="stop-color:#FCFCFC"/>
			<stop  offset="0.3095" style="stop-color:#F2F2F2"/>
			<stop  offset="0.4271" style="stop-color:#E2E2E2"/>
			<stop  offset="0.5362" style="stop-color:#CCCCCC"/>
			<stop  offset="0.6395" style="stop-color:#AEAEAE"/>
			<stop  offset="0.7384" style="stop-color:#8A8A8A"/>
			<stop  offset="0.8338" style="stop-color:#5F5F5F"/>
			<stop  offset="0.9241" style="stop-color:#2F2F2F"/>
			<stop  offset="1" style="stop-color:#000000"/>
		</radialGradient>
		<path fill="url(#SVGID_34_)" d="M323.81,175.973c0,1.941-1.571,3.51-3.512,3.51c-1.942,0-3.51-1.568-3.51-3.51
			c0-1.938,1.567-3.508,3.51-3.508C322.238,172.465,323.81,174.034,323.81,175.973z"/>
		<path opacity="0.4" fill="#FFFFFF" d="M290.259,308.486c0,0.906-0.737,1.643-1.645,1.643c-0.904,0-1.639-0.736-1.639-1.643
			c0-0.912,0.734-1.643,1.639-1.643C289.521,306.844,290.259,307.574,290.259,308.486z"/>
		<path opacity="0.24" fill="#B72802" d="M290.257,307.432c0,0.904-0.735,1.639-1.643,1.639c-0.904,0-1.639-0.734-1.639-1.639
			c0-0.91,0.734-1.643,1.639-1.643C289.521,305.789,290.257,306.521,290.257,307.432z"/>
		<circle fill="#DB3C05" cx="288.615" cy="307.959" r="1.304"/>
		
			<radialGradient id="SVGID_35_" cx="278.6445" cy="182.8672" r="16.3698" gradientTransform="matrix(1.2913 0 0 0.4073 -73.8455 131.3314)" gradientUnits="userSpaceOnUse">
			<stop  offset="0" style="stop-color:#FF8A3B"/>
			<stop  offset="1" style="stop-color:#FFC49C"/>
		</radialGradient>
		<path opacity="0.5" fill="url(#SVGID_35_)" d="M307.421,204.348c0,2.672-9.528,4.842-21.285,4.842
			c-11.75,0-21.28-2.17-21.28-4.842c0-2.674,9.53-4.841,21.28-4.841C297.893,199.507,307.421,201.674,307.421,204.348z"/>
		
			<radialGradient id="SVGID_36_" cx="285.8477" cy="198.0195" r="15.1998" gradientTransform="matrix(1 0 0 0.3824 0 122.2937)" gradientUnits="userSpaceOnUse">
			<stop  offset="0" style="stop-color:#FFFFFF"/>
			<stop  offset="1" style="stop-color:#FFC49C"/>
		</radialGradient>
		<ellipse opacity="0.5" fill="url(#SVGID_36_)" cx="285.968" cy="196.746" rx="15.305" ry="4.222"/>
		<linearGradient id="SVGID_37_" gradientUnits="userSpaceOnUse" x1="286.4639" y1="229.1792" x2="286.9528" y2="240.9766">
			<stop  offset="0" style="stop-color:#FF9494"/>
			<stop  offset="0.9879" style="stop-color:#CC0505"/>
		</linearGradient>
		<path opacity="0.24" fill="url(#SVGID_37_)" d="M296.135,227.216c0.798,0.091,2.072,0.414,2.54,1.146
			c0.406,0.637,0.344,1.223,0.174,1.889c-0.521,2.038-6.269,8.907-9.771,10.762c-2.057,1.092-4.646,0.243-6.322-1.149
			c-3.558-2.946-3.942-3.275-7.047-7.545c-0.496-0.677-2.376-3.197-1.561-3.956c0.5-0.461,1.87-0.991,2.553-1.069
			c3.17-0.351,3.768-0.245,5.486,0.067c1.476,0.271,2.964,0.735,4.469,0.856c1.364,0.114,3.132-0.632,4.58-0.849
			C292.842,227.128,294.516,227.029,296.135,227.216z"/>
		<path opacity="0.4" fill="#FF6B6B" d="M274.079,228.996c0.498-0.464,1.864-0.993,2.551-1.067c3.166-0.355,3.764-0.249,5.484,0.064
			c1.479,0.269,2.968,0.733,4.472,0.857c1.364,0.109,3.134-0.635,4.58-0.851c1.606-0.24,3.28-0.337,4.899-0.15
			c0.793,0.088,2.07,0.412,2.539,1.146c0.218,0.343,0.298,0.671,0.3,1.01c0.121-0.57,0.126-1.088-0.229-1.645
			c-0.468-0.731-1.742-1.055-2.54-1.146c-1.619-0.187-3.293-0.088-4.899,0.151c-1.448,0.217-3.216,0.963-4.58,0.849
			c-1.505-0.121-2.993-0.586-4.469-0.856c-1.719-0.313-2.316-0.418-5.486-0.067c-0.683,0.078-2.053,0.608-2.553,1.069
			c-0.192,0.178-0.23,0.454-0.175,0.777C274.001,229.088,274.032,229.037,274.079,228.996z"/>
		<radialGradient id="SVGID_38_" cx="279.6367" cy="114.9482" r="8.1802" gradientUnits="userSpaceOnUse">
			<stop  offset="0" style="stop-color:#F96E32"/>
			<stop  offset="0.6398" style="stop-color:#F97942"/>
			<stop  offset="1" style="stop-color:#F9814D"/>
		</radialGradient>
		<path fill="url(#SVGID_38_)" d="M287.816,114.947c0,4.52-3.661,8.182-8.181,8.182c-4.516,0-8.18-3.662-8.18-8.182
			c0-4.516,3.664-8.18,8.18-8.18C284.155,106.768,287.816,110.432,287.816,114.947z"/>
		<radialGradient id="SVGID_39_" cx="294.9395" cy="98.0601" r="4.4861" gradientUnits="userSpaceOnUse">
			<stop  offset="0" style="stop-color:#F96E32"/>
			<stop  offset="0.6398" style="stop-color:#F97942"/>
			<stop  offset="1" style="stop-color:#F9814D"/>
		</radialGradient>
		<path fill="url(#SVGID_39_)" d="M299.425,98.063c0,2.475-2.006,4.483-4.486,4.483c-2.473,0-4.485-2.009-4.485-4.483
			c0-2.477,2.013-4.49,4.485-4.49C297.419,93.573,299.425,95.587,299.425,98.063z"/>
		<radialGradient id="SVGID_40_" cx="322.6455" cy="104.9224" r="5.5417" gradientUnits="userSpaceOnUse">
			<stop  offset="0" style="stop-color:#F96E32"/>
			<stop  offset="0.6398" style="stop-color:#F97942"/>
			<stop  offset="1" style="stop-color:#F9814D"/>
		</radialGradient>
		<circle fill="url(#SVGID_40_)" cx="322.646" cy="104.922" r="5.541"/>
		<radialGradient id="SVGID_41_" cx="260.6377" cy="104.9229" r="8.1792" gradientUnits="userSpaceOnUse">
			<stop  offset="0" style="stop-color:#FFC49C"/>
			<stop  offset="0.2596" style="stop-color:#FEB68C"/>
			<stop  offset="0.7642" style="stop-color:#FB9363"/>
			<stop  offset="1" style="stop-color:#F9814D"/>
		</radialGradient>
		<circle fill="url(#SVGID_41_)" cx="260.638" cy="104.922" r="8.18"/>
		<radialGradient id="SVGID_42_" cx="304.4375" cy="109.6724" r="5.0125" gradientUnits="userSpaceOnUse">
			<stop  offset="0" style="stop-color:#FFC49C"/>
			<stop  offset="0.2596" style="stop-color:#FEB68C"/>
			<stop  offset="0.7642" style="stop-color:#FB9363"/>
			<stop  offset="1" style="stop-color:#F9814D"/>
		</radialGradient>
		<circle fill="url(#SVGID_42_)" cx="304.438" cy="109.672" r="5.013"/>
		<path opacity="0.19" fill="#B72802" d="M254.366,121.833c1.238-4.708-0.658-3.99-3.469-3.222
			c-5.093,1.399-25.909,19.563-33.46,21.549C227.045,143.212,250.495,136.534,254.366,121.833z"/>
		<linearGradient id="SVGID_43_" gradientUnits="userSpaceOnUse" x1="217.5469" y1="128.1245" x2="254.5605" y2="128.1245">
			<stop  offset="0" style="stop-color:#B72802"/>
			<stop  offset="1" style="stop-color:#DB3C05"/>
		</linearGradient>
		<path fill="url(#SVGID_43_)" d="M249.234,128.336c2.266-2.247,5.737-5.878,5.286-9.354c-0.541-4.169-5.953-3.498-8.501-2.086
			c-4.618,2.563-4.773,6.468-11.901,12.064c-7.308,5.744-9.706,7.6-16.571,11.314c2.886,0.756,15.351-1.167,21.449-4.491
			C245.639,132.159,247.628,129.936,249.234,128.336z"/>
		
			<linearGradient id="SVGID_44_" gradientUnits="userSpaceOnUse" x1="136.8911" y1="134.3682" x2="152.4736" y2="134.3682" gradientTransform="matrix(0.6454 -0.7639 0.7639 0.6454 51.2484 146.5971)">
			<stop  offset="0" style="stop-color:#DB3C05"/>
			<stop  offset="1" style="stop-color:#FFFFFF"/>
		</linearGradient>
		<path opacity="0.25" fill="url(#SVGID_44_)" d="M252.748,117.224c2.03,1.717,1.106,5.239-0.908,7.628
			c-2.014,2.389-8.196,5.082-10.228,3.364c-2.031-1.716,0.854-7.197,2.867-9.584C246.497,116.245,250.717,115.506,252.748,117.224z"
			/>
		<path opacity="0.19" fill="#B72802" d="M320.419,123.371c-1.135-5.06,0.604-4.289,3.181-3.461
			c4.673,1.502,23.773,21.044,30.695,23.184C345.485,146.373,323.968,139.194,320.419,123.371z"/>
		
			<linearGradient id="SVGID_45_" gradientUnits="userSpaceOnUse" x1="314.0107" y1="130.1431" x2="353.8311" y2="130.1431" gradientTransform="matrix(-0.8527 0 0 1 621.9535 0)">
			<stop  offset="0" style="stop-color:#B72802"/>
			<stop  offset="1" style="stop-color:#DB3C05"/>
		</linearGradient>
		<path fill="url(#SVGID_45_)" d="M325.124,130.373c-2.074-2.42-5.259-6.327-4.847-10.065c0.498-4.484,5.463-3.769,7.8-2.248
			c4.236,2.759,4.375,6.96,10.916,12.989c6.701,6.17,8.904,8.166,15.203,12.168c-2.651,0.811-14.084-1.26-19.675-4.836
			C328.425,134.487,326.601,132.091,325.124,130.373z"/>
		
			<linearGradient id="SVGID_46_" gradientUnits="userSpaceOnUse" x1="199.3457" y1="211.4912" x2="216.1069" y2="211.4912" gradientTransform="matrix(-0.5503 -0.7639 -0.6513 0.6454 578.9855 146.5971)">
			<stop  offset="0" style="stop-color:#DB3C05"/>
			<stop  offset="1" style="stop-color:#FFFFFF"/>
		</linearGradient>
		<path opacity="0.25" fill="url(#SVGID_46_)" d="M321.905,118.417c-1.859,1.846-1.019,5.636,0.832,8.206
			c1.85,2.567,7.517,5.468,9.379,3.619c1.866-1.848-0.779-7.74-2.628-10.31C327.639,117.366,323.771,116.568,321.905,118.417z"/>
		<path opacity="0.4" fill="#FF6B6B" d="M288.873,238.646c-1.768,0.278-2.902,0.388-4.625-0.077
			c-1.607-0.435-3.878-1.591-5.332-2.382c0.054,0.045,3.839,4.185,6.312,5.146c1.077,0.418,2.433,0.188,3.523-0.229
			c1.689-0.655,5.593-4.05,6.086-5.25C293.114,237.18,291.382,238.256,288.873,238.646z"/>
		<path opacity="0.3" fill="#FFFFFF" d="M287.121,246.854c5.653,0,10.84-9.2,10.639-8.956c-2.784,3.498-6.401,8.09-10.758,8.016
			c-5.813-0.108-9.146-5.264-11.661-8.252C275.126,237.413,279.612,246.854,287.121,246.854z"/>
		<path fill="#DB3C05" d="M278.041,338.934c-7.591,8.563-24.574,5.92-37.933-5.916c-7.864-6.963-15.958-18.549-13.835-29.705
			c0.419-2.186,0.099-5.207,1.375-7.377c1.617-2.75,7.614-2.273,7.614-2.273l4.302-4.613c0,0,3.845-0.514,8.32,1.295
			c3.68,1.482,7.256,4.893,7.256,4.893s3.286-2.662,7.075-1.768c5.266,1.25,11.227,6.246,13.918,10.887
			C281.269,313.193,285.568,330.43,278.041,338.934z"/>
		<path fill="#B72802" d="M278.786,335.93c-8.427,9.514-27.464,6.428-42.666-6.857c1.298,1.434,2.647,2.758,3.988,3.945
			c13.358,11.836,30.342,14.479,37.933,5.916c1.881-2.125,3.025-4.801,3.603-7.75C280.947,332.938,280.018,334.543,278.786,335.93z"
			/>
		<path fill="#F96E32" d="M273.979,336.434c-6.496,7.336-21.037,5.068-32.475-5.064c-6.729-5.965-13.661-15.881-11.842-25.428
			c1.509-7.918,9.432-13.619,18.271-10.941c3.255,0.984,6.44,4.023,6.44,4.023s2.816-2.279,6.059-1.514
			c4.508,1.07,9.607,5.348,11.918,9.32C276.743,314.398,280.427,329.156,273.979,336.434z"/>
		<path fill="#FFC49C" d="M271.981,336.066c-6.098,6.883-19.742,4.76-30.48-4.752c-6.319-5.598-12.825-14.908-11.118-23.873
			c1.415-7.428,8.854-12.783,17.157-10.268c3.05,0.924,6.041,3.777,6.041,3.777s2.644-2.145,5.688-1.426
			c4.225,1.01,9.021,5.021,11.184,8.752C274.581,315.383,278.036,329.232,271.981,336.066z"/>
		<path opacity="0.24" fill="#F96E32" d="M255.706,301.326c-0.016-0.482,0.14-0.928,0.434-1.291
			c0.893,1.328,1.584,4.811,3.014,8.781c0.772,2.152,1.209,5.531,1.205,5.596c-1.12-2.236-2.326-4.217-3.015-5.938
			C256.762,307.023,255.761,302.547,255.706,301.326z"/>
		
			<radialGradient id="SVGID_47_" cx="236.7285" cy="318.2109" r="12.9874" gradientTransform="matrix(0.957 0.29 -0.29 0.957 125.9494 -46.2668)" gradientUnits="userSpaceOnUse">
			<stop  offset="0" style="stop-color:#FFFFFF"/>
			<stop  offset="1" style="stop-color:#FFD5B8"/>
		</radialGradient>
		<path opacity="0.5" fill="url(#SVGID_47_)" d="M272.993,330.785c-2.02,6.668-9.379,10.336-16.434,8.199
			c-7.057-2.139-11.138-9.279-9.119-15.941c2.023-6.67,9.379-10.34,16.437-8.203C270.933,316.982,275.015,324.115,272.993,330.785z"
			/>
		<path opacity="0.24" fill="#F96E32" d="M263.426,307.584c9.475,4.15,9.344,14.51,11.812,17.371
			c-0.178-6.029-2.366-12.512-4.785-16.678c-2.162-3.73-6.959-7.742-11.184-8.752c-3.044-0.719-4.25,1.885-4.25,1.885
			s-4.429-3.313-7.479-4.236c-8.304-2.516-15.742,2.84-17.157,10.268c-0.815,4.293,0.451,9.646,2.62,13.57
			c1.058,1.902,4.989,6.762,4.989,6.762s-6.591-11.043,2.952-18.205c8.031-6.033,17.223,0.623,17.223,0.623
			S259.329,305.789,263.426,307.584z"/>
		<path opacity="0.24" fill="#F96E32" d="M249.988,301.605c0.8-0.646,1.193-0.627,2.624-1.254c-0.248-0.82-3.773-2.639-4.198-2.893
			c-1.612-0.973-3.636-1.363-5.517-1.213c-3.705,0.301-7.705,2.576-9.984,5.504c-1.271,1.631-2.143,3.662-2.53,5.691
			c-0.311,1.643-0.299,3.268-0.102,4.918c0.134,1.141,0.097,3.936,1.222,4.633c2.107,1.309,3.713-3.285,3.66-4.684
			c3.113-1.283,5.341-2.824,7.154-5.73c0.98-1.561,2.372-0.988,3.985-1.746c1.582-0.748,2.37-1.711,3.438-2.98
			C249.824,301.756,249.903,301.678,249.988,301.605z"/>
		
			<linearGradient id="SVGID_48_" gradientUnits="userSpaceOnUse" x1="194.0977" y1="312.4883" x2="207.1465" y2="312.4883" gradientTransform="matrix(0.957 0.29 -0.29 0.957 125.9494 -46.2668)">
			<stop  offset="0.0121" style="stop-color:#FF642E"/>
			<stop  offset="0.3095" style="stop-color:#F0531C"/>
			<stop  offset="0.7068" style="stop-color:#E0420B"/>
			<stop  offset="1" style="stop-color:#DB3C05"/>
		</linearGradient>
		<path fill="url(#SVGID_48_)" d="M232.501,315.113c-1.994,2.49-5.932,2.65-8.791,0.357c-2.854-2.293-3.558-6.166-1.564-8.658
			c1.994-2.488,5.932-2.646,8.789-0.357C233.796,308.75,234.495,312.623,232.501,315.113z"/>
		<path opacity="0.63" fill="#FC7967" d="M223.404,307.902c1.568-1.951,4.329-2.463,6.831-1.488
			c-2.636-1.855-6.072-1.623-7.852,0.598c-1.688,2.107-1.301,5.285,0.781,7.457C221.933,312.316,221.935,309.734,223.404,307.902z"
			/>
		<path opacity="0.3" fill="#B72802" d="M231.201,307.277c0.474,0.738-5.77-2.74-5.869-1.924c-0.518,4.494,6.468,6.482,6.384,7.109
			c-0.124,0.893,0.03,0.811-0.551,1.535c-1.684,2.104-4.785,2.502-7.391,1.123c0.006,0.014,0.021,0.021,0.031,0.031
			c2.679,2.146,6.365,1.996,8.236-0.334C233.753,312.68,233.339,309.457,231.201,307.277z"/>
		
			<linearGradient id="SVGID_49_" gradientUnits="userSpaceOnUse" x1="196.4272" y1="299.4492" x2="213.6012" y2="307.4836" gradientTransform="matrix(0.957 0.29 -0.29 0.957 125.9494 -46.2668)">
			<stop  offset="0.0121" style="stop-color:#FF642E"/>
			<stop  offset="0.3095" style="stop-color:#F0531C"/>
			<stop  offset="0.7068" style="stop-color:#E0420B"/>
			<stop  offset="1" style="stop-color:#DB3C05"/>
		</linearGradient>
		<path fill="url(#SVGID_49_)" d="M238.181,309.342c-3.402,2.775-8.622,2.002-11.663-1.727c-3.042-3.723-2.743-8.994,0.655-11.77
			c3.402-2.775,9.247-2.066,12.288,1.658C242.501,301.23,241.583,306.564,238.181,309.342z"/>
		<path opacity="0.3" fill="#B72802" d="M239.12,297.957c-0.342-0.418-2.012-3.006-2.418-3.342
			c-6.301,3.508,2.012,9.391,2.012,9.391s0,2.373-2.287,4.08c-2.481,1.846-5.863,1.66-8.49,0.701
			c1.581,2.527,7.119,2.807,9.965,0.477C241.146,306.611,242.015,301.516,239.12,297.957z"/>
		<path opacity="0.63" fill="#FC7967" d="M228.443,296.926c1.817-1.844,4.718-2.242,4.718-2.242s-3.616-0.371-5.79,1.404
			c-3.263,2.654-3.214,7.742-0.3,11.32C227.548,307.986,223.648,301.799,228.443,296.926z"/>
		
			<linearGradient id="SVGID_50_" gradientUnits="userSpaceOnUse" x1="202.2095" y1="294.335" x2="216.6123" y2="294.335" gradientTransform="matrix(0.957 0.29 -0.29 0.957 125.9494 -46.2668)">
			<stop  offset="0.0121" style="stop-color:#FF642E"/>
			<stop  offset="0.3095" style="stop-color:#F0531C"/>
			<stop  offset="0.7068" style="stop-color:#E0420B"/>
			<stop  offset="1" style="stop-color:#DB3C05"/>
		</linearGradient>
		<path fill="url(#SVGID_50_)" d="M246.175,292.236c2.512,3.328,2.232,7.777-0.627,9.934c-2.855,2.154-7.213,1.207-9.727-2.125
			c-2.512-3.336-2.23-7.781,0.631-9.934C239.306,287.955,243.661,288.904,246.175,292.236z"/>
		<path opacity="0.63" fill="#FC7967" d="M237.317,301.125c-2.539-3.359-2.256-7.852,0.631-10.029
			c1.428-1.074,3.23-1.383,4.996-1.01c-2.122-1.066-4.557-1.025-6.359,0.332c-2.689,2.027-2.949,6.205-0.59,9.334
			c0.397,0.525,0.842,0.98,1.322,1.375V301.125z"/>
		<path opacity="0.3" fill="#B72802" d="M245.72,292.729c-0.5-0.658-1.074-1.211-1.703-1.66c0.076,0.09,0.153,0.178,0.226,0.27
			c2.56,3.396,2.272,7.924-0.634,10.123c-1.094,0.822-2.401,1.199-3.739,1.17c1.821,0.6,3.771,0.4,5.271-0.73
			C247.778,299.906,248.037,295.805,245.72,292.729z"/>
		
			<linearGradient id="SVGID_51_" gradientUnits="userSpaceOnUse" x1="213.2817" y1="287.8564" x2="225.8926" y2="287.8564" gradientTransform="matrix(0.9132 0.4074 -0.4074 0.9132 175.993 -52.9066)">
			<stop  offset="0.0121" style="stop-color:#FF642E"/>
			<stop  offset="0.3095" style="stop-color:#F0531C"/>
			<stop  offset="0.7068" style="stop-color:#E0420B"/>
			<stop  offset="1" style="stop-color:#DB3C05"/>
		</linearGradient>
		<path fill="url(#SVGID_51_)" d="M265.005,301.994c-1.307,2.938-4.949,4.174-8.129,2.754c-3.185-1.422-4.697-4.955-3.387-7.893
			c1.311-2.941,4.955-4.172,8.135-2.754C264.802,295.521,266.317,299.053,265.005,301.994z"/>
		
			<linearGradient id="SVGID_52_" gradientUnits="userSpaceOnUse" x1="213.2817" y1="287.8564" x2="225.8926" y2="287.8564" gradientTransform="matrix(0.9132 0.4074 -0.4074 0.9132 175.993 -52.9066)">
			<stop  offset="0.0121" style="stop-color:#FF642E"/>
			<stop  offset="0.3095" style="stop-color:#F0531C"/>
			<stop  offset="0.7068" style="stop-color:#E0420B"/>
			<stop  offset="1" style="stop-color:#DB3C05"/>
		</linearGradient>
		<path fill="url(#SVGID_52_)" d="M265.005,301.994c-1.307,2.938-4.949,4.174-8.129,2.754c-3.185-1.422-4.697-4.955-3.387-7.893
			c1.311-2.941,4.955-4.172,8.135-2.754C264.802,295.521,266.317,299.053,265.005,301.994z"/>
		<path opacity="0.63" fill="#FC7967" d="M254.634,297.75c0.998-2.23,1.95-3.264,4.371-3.379c-2.666-0.689-4.186,0.17-5.263,2.582
			c-0.821,1.836-0.44,3.92,0.798,5.488C253.977,300.938,253.956,299.268,254.634,297.75z"/>
		<path opacity="0.3" fill="#B72802" d="M264.817,298.656c-0.012,0.732-0.156,1.467-0.473,2.172
			c-1.331,2.984-5.029,4.234-8.258,2.793c-0.631-0.279-1.193-0.646-1.686-1.072c0.615,0.883,1.484,1.625,2.562,2.102
			c2.969,1.328,6.372,0.176,7.601-2.57C265.055,300.973,265.114,299.775,264.817,298.656z"/>
		<path fill="#DB3C05" d="M299.015,339.113c7.03,8.57,22.758,5.924,35.133-5.914c7.285-6.963,14.78-18.549,12.813-29.699
			c-0.385-2.188-0.092-5.211-1.272-7.381c-1.497-2.75-7.05-2.271-7.05-2.271l-3.988-4.615c0,0-3.556-0.514-7.704,1.291
			c-3.41,1.482-6.72,4.895-6.72,4.895s-3.046-2.664-6.555-1.764c-4.873,1.246-10.397,6.244-12.894,10.879
			C296.021,313.377,292.04,330.617,299.015,339.113z"/>
		<path fill="#B72802" d="M298.323,336.111c7.805,9.512,25.438,6.424,39.519-6.854c-1.206,1.432-2.452,2.756-3.694,3.941
			c-12.375,11.838-28.103,14.484-35.133,5.914c-1.744-2.125-2.806-4.797-3.337-7.748
			C296.323,333.115,297.187,334.725,298.323,336.111z"/>
		<path fill="#F96E32" d="M302.774,336.617c6.019,7.332,19.485,5.066,30.08-5.066c6.236-5.959,12.654-15.881,10.967-25.43
			c-1.396-7.912-8.734-13.619-16.923-10.938c-3.015,0.982-5.966,4.02-5.966,4.02s-2.61-2.279-5.611-1.51
			c-4.172,1.068-8.9,5.346-11.037,9.318C300.212,314.58,296.805,329.336,302.774,336.617z"/>
		<path fill="#FFC49C" d="M304.623,336.246c5.651,6.887,18.29,4.76,28.233-4.752c5.854-5.596,11.879-14.908,10.297-23.871
			c-1.309-7.43-8.197-12.783-15.888-10.271c-2.828,0.926-5.597,3.779-5.597,3.779s-2.451-2.141-5.269-1.418
			c-3.918,1.002-8.35,5.016-10.362,8.746C302.22,315.563,299.019,329.416,304.623,336.246z"/>
		<path opacity="0.24" fill="#F96E32" d="M319.696,301.512c0.02-0.488-0.126-0.93-0.395-1.293c-0.831,1.328-1.469,4.811-2.793,8.783
			c-0.719,2.148-1.121,5.531-1.117,5.592c1.037-2.236,2.15-4.217,2.793-5.939C318.724,307.205,319.65,302.732,319.696,301.512z"/>
		
			<radialGradient id="SVGID_53_" cx="260.3027" cy="311.2578" r="12.9871" gradientTransform="matrix(-0.8864 0.29 0.2686 0.957 462.6506 -46.2668)" gradientUnits="userSpaceOnUse">
			<stop  offset="0" style="stop-color:#FFFFFF"/>
			<stop  offset="1" style="stop-color:#FFD5B8"/>
		</radialGradient>
		<path opacity="0.5" fill="url(#SVGID_53_)" d="M303.69,330.967c1.873,6.666,8.688,10.34,15.217,8.201
			c6.541-2.139,10.317-9.277,8.447-15.945c-1.871-6.668-8.686-10.34-15.223-8.201C305.596,317.158,301.818,324.297,303.69,330.967z"
			/>
		<path opacity="0.24" fill="#F96E32" d="M312.549,307.768c-8.774,4.148-8.655,14.506-10.939,17.369
			c0.169-6.029,2.192-12.514,4.429-16.678c2.013-3.73,6.444-7.744,10.362-8.746c2.817-0.723,3.938,1.885,3.938,1.885
			s4.1-3.32,6.928-4.246c7.69-2.512,14.579,2.842,15.888,10.271c0.76,4.291-0.412,9.648-2.428,13.572
			c-0.974,1.902-4.616,6.762-4.616,6.762s6.105-11.049-2.735-18.207c-7.442-6.031-15.95,0.621-15.95,0.621
			S316.342,305.971,312.549,307.768z"/>
		<path opacity="0.24" fill="#F96E32" d="M324.994,301.789c-0.741-0.652-1.099-0.629-2.431-1.258
			c0.233-0.818,3.495-2.641,3.889-2.895c1.495-0.971,3.369-1.363,5.109-1.211c3.439,0.301,7.142,2.58,9.254,5.504
			c1.176,1.631,1.982,3.66,2.338,5.693c0.292,1.641,0.277,3.27,0.1,4.916c-0.128,1.141-0.095,3.936-1.135,4.633
			c-1.951,1.313-3.438-3.287-3.39-4.68c-2.885-1.285-4.94-2.83-6.63-5.732c-0.905-1.561-2.198-0.99-3.686-1.744
			c-1.468-0.75-2.199-1.711-3.188-2.984C325.152,301.938,325.075,301.857,324.994,301.789z"/>
		
			<linearGradient id="SVGID_54_" gradientUnits="userSpaceOnUse" x1="217.6709" y1="305.5332" x2="230.7222" y2="305.5332" gradientTransform="matrix(-0.8864 0.29 0.2686 0.957 462.6506 -46.2668)">
			<stop  offset="0.0121" style="stop-color:#FF642E"/>
			<stop  offset="0.3095" style="stop-color:#F0531C"/>
			<stop  offset="0.7068" style="stop-color:#E0420B"/>
			<stop  offset="1" style="stop-color:#DB3C05"/>
		</linearGradient>
		<path fill="url(#SVGID_54_)" d="M341.192,315.295c1.852,2.488,5.496,2.646,8.143,0.357c2.648-2.295,3.301-6.166,1.449-8.656
			c-1.846-2.486-5.496-2.65-8.139-0.355C339.998,308.932,339.345,312.807,341.192,315.295z"/>
		<path opacity="0.63" fill="#FC7967" d="M349.62,308.088c-1.451-1.955-4.011-2.471-6.329-1.492
			c2.438-1.852,5.624-1.625,7.274,0.596c1.568,2.115,1.205,5.287-0.729,7.459C350.983,312.5,350.98,309.92,349.62,308.088z"/>
		<path opacity="0.3" fill="#B72802" d="M342.399,307.459c-0.441,0.736,5.348-2.742,5.433-1.926c0.483,4.498-5.991,6.48-5.91,7.111
			c0.119,0.891-0.029,0.813,0.514,1.539c1.556,2.1,4.429,2.498,6.845,1.123c-0.011,0.004-0.02,0.018-0.031,0.027
			c-2.482,2.146-5.895,1.996-7.627-0.334C340.034,312.861,340.417,309.637,342.399,307.459z"/>
		
			<linearGradient id="SVGID_55_" gradientUnits="userSpaceOnUse" x1="220.001" y1="292.4971" x2="237.172" y2="300.5301" gradientTransform="matrix(-0.8864 0.29 0.2686 0.957 462.6506 -46.2668)">
			<stop  offset="0.0121" style="stop-color:#FF642E"/>
			<stop  offset="0.3095" style="stop-color:#F0531C"/>
			<stop  offset="0.7068" style="stop-color:#E0420B"/>
			<stop  offset="1" style="stop-color:#DB3C05"/>
		</linearGradient>
		<path fill="url(#SVGID_55_)" d="M335.936,309.521c3.15,2.775,7.984,2.006,10.802-1.723c2.816-3.727,2.543-8.996-0.611-11.771
			c-3.148-2.777-8.559-2.066-11.38,1.66C331.936,301.41,332.78,306.744,335.936,309.521z"/>
		<path opacity="0.3" fill="#B72802" d="M335.064,298.141c0.314-0.42,1.862-3.006,2.242-3.346c5.831,3.508-1.866,9.393-1.866,9.393
			s0,2.369,2.123,4.078c2.293,1.85,5.429,1.66,7.856,0.703c-1.459,2.525-6.59,2.803-9.226,0.477
			C333.194,306.797,332.383,301.699,335.064,298.141z"/>
		<path opacity="0.63" fill="#FC7967" d="M344.952,297.109c-1.687-1.846-4.373-2.242-4.373-2.242s3.354-0.373,5.365,1.398
			c3.023,2.664,2.98,7.746,0.279,11.318C345.788,308.168,349.396,301.982,344.952,297.109z"/>
		
			<linearGradient id="SVGID_56_" gradientUnits="userSpaceOnUse" x1="225.7822" y1="287.3809" x2="240.1846" y2="287.3809" gradientTransform="matrix(-0.8864 0.29 0.2686 0.957 462.6506 -46.2668)">
			<stop  offset="0.0121" style="stop-color:#FF642E"/>
			<stop  offset="0.3095" style="stop-color:#F0531C"/>
			<stop  offset="0.7068" style="stop-color:#E0420B"/>
			<stop  offset="1" style="stop-color:#DB3C05"/>
		</linearGradient>
		<path fill="url(#SVGID_56_)" d="M328.529,292.414c-2.327,3.332-2.065,7.783,0.581,9.936c2.645,2.16,6.68,1.207,9.008-2.125
			c2.328-3.33,2.066-7.777-0.58-9.938C334.89,288.135,330.858,289.088,328.529,292.414z"/>
		<path opacity="0.63" fill="#FC7967" d="M336.735,301.307c2.351-3.359,2.087-7.848-0.587-10.029
			c-1.323-1.08-2.991-1.383-4.625-1.01c1.964-1.064,4.22-1.027,5.889,0.334c2.489,2.025,2.729,6.203,0.544,9.336
			c-0.364,0.521-0.778,0.979-1.223,1.375L336.735,301.307z"/>
		<path opacity="0.3" fill="#B72802" d="M328.95,292.912c0.462-0.656,0.998-1.211,1.577-1.664c-0.071,0.09-0.143,0.178-0.208,0.275
			c-2.372,3.391-2.105,7.92,0.591,10.113c1.012,0.826,2.219,1.203,3.46,1.18c-1.691,0.598-3.496,0.396-4.884-0.738
			C327.042,300.092,326.801,295.984,328.95,292.912z"/>
		
			<linearGradient id="SVGID_57_" gradientUnits="userSpaceOnUse" x1="234.8843" y1="278.416" x2="247.498" y2="278.416" gradientTransform="matrix(-0.8459 0.4074 0.3773 0.9132 415.3963 -52.9066)">
			<stop  offset="0.0121" style="stop-color:#FF642E"/>
			<stop  offset="0.3095" style="stop-color:#F0531C"/>
			<stop  offset="0.7068" style="stop-color:#E0420B"/>
			<stop  offset="1" style="stop-color:#DB3C05"/>
		</linearGradient>
		<path fill="url(#SVGID_57_)" d="M311.084,302.174c1.216,2.939,4.591,4.174,7.535,2.754c2.946-1.42,4.351-4.953,3.134-7.895
			c-1.217-2.938-4.587-4.172-7.535-2.752C311.273,295.701,309.868,299.236,311.084,302.174z"/>
		
			<linearGradient id="SVGID_58_" gradientUnits="userSpaceOnUse" x1="234.8843" y1="278.291" x2="247.498" y2="278.291" gradientTransform="matrix(-0.8459 0.4074 0.3773 0.9132 415.3963 -52.9066)">
			<stop  offset="0.0121" style="stop-color:#FF642E"/>
			<stop  offset="0.3095" style="stop-color:#F0531C"/>
			<stop  offset="0.7068" style="stop-color:#E0420B"/>
			<stop  offset="1" style="stop-color:#DB3C05"/>
		</linearGradient>
		<path fill="url(#SVGID_58_)" d="M311.084,302.174c1.216,2.939,4.591,4.174,7.535,2.754c2.946-1.42,4.351-4.953,3.134-7.895
			c-1.217-2.938-5.014-4.242-7.958-2.822C310.847,295.629,309.868,299.236,311.084,302.174z"/>
		<path opacity="0.63" fill="#FC7967" d="M317.356,295.045c-4.333-0.936-8.74,1.334-8.047,1.039
			c2.543-1.873,5.332-2.754,7.877-2.178c1.938,0.438,3.814,1.605,4.432,3.445C320.691,296.059,318.967,295.389,317.356,295.045z"/>
		<path opacity="0.3" fill="#B72802" d="M311.261,298.834c0.009,0.732,0.147,1.471,0.436,2.172c1.235,2.982,4.662,4.24,7.65,2.799
			c0.581-0.279,1.105-0.646,1.562-1.068c-0.57,0.877-1.374,1.619-2.369,2.098c-2.755,1.33-5.907,0.174-7.04-2.572
			C311.041,301.156,310.987,299.959,311.261,298.834z"/>
		<linearGradient id="SVGID_59_" gradientUnits="userSpaceOnUse" x1="375.0654" y1="271.1992" x2="373.0744" y2="292.1556">
			<stop  offset="0.0121" style="stop-color:#DB3C05"/>
			<stop  offset="0.3729" style="stop-color:#EA551B"/>
			<stop  offset="0.7403" style="stop-color:#F5672C"/>
			<stop  offset="1" style="stop-color:#F96E32"/>
		</linearGradient>
		<path fill="url(#SVGID_59_)" d="M383.204,288.918c7.203-3.598,19.392-12.484,16.227-18.816c-3.093-6.186-7.916-3.697-28.496,3.691
			c-3.602,1.295-33.51,14.859-18.76,23.691C357.81,300.857,377.482,291.787,383.204,288.918z"/>
		<linearGradient id="SVGID_60_" gradientUnits="userSpaceOnUse" x1="375.0654" y1="271.1992" x2="373.0744" y2="292.1556">
			<stop  offset="0.0121" style="stop-color:#DB3C05"/>
			<stop  offset="0.3729" style="stop-color:#EA551B"/>
			<stop  offset="0.7403" style="stop-color:#F5672C"/>
			<stop  offset="1" style="stop-color:#F96E32"/>
		</linearGradient>
		<path fill="url(#SVGID_60_)" d="M383.204,288.918c7.203-3.598,19.392-12.484,16.227-18.816c-3.093-6.186-7.916-3.697-28.496,3.691
			c-3.602,1.295-33.51,14.859-18.76,23.691C357.81,300.857,377.482,291.787,383.204,288.918z"/>
		<path fill="#DB3C05" d="M389.76,272.514c0.755,0.629,1.577,1.291,1.866,2.055c0.302,0.803-0.041,1.805,0.087,2.652
			c0.124,0.789,0.419,1.846,0.858,2.52c0.936,1.443,2.706,2.025,4.303,2.285c1.676,0.271,3.54,0.635,5.238,0.398
			c1.273-0.178,2.525-0.801,3.802-1.094c1.252-0.299,2.3-0.494,3.486-1.074c1.021-0.502,1.978-1.199,3.079-1.479
			c1.797-0.455,4.103-1.611,4.905-3.396c0.228-0.516,0.248-1.168,0.036-1.695c-0.264-0.65-0.457-0.852-0.336-1.533
			c0.111-0.605,0.041-1.197,0.084-1.824c0.042-0.703,0.285-1.449,0.4-2.148c0.213-1.295-0.588-1.842-1.457-2.582
			c-0.924-0.785-1.222-1.842-1.287-3.027c-0.006-0.145-0.004-0.299,0.005-0.46c0.072-1.452,0.644-3.43-1.182-3.911
			c-1.889-0.496-3.452,0.507-5.252,0.593c-1.712,0.086-3.508,0.436-5.126,0.983c-2.551,0.854-5.119,1.508-7.594,2.586
			c-1.908,0.83-3.943,1.123-5.886,1.834c-3.257,1.193-2.95,5.248-1.056,7.381C389.011,271.887,389.376,272.195,389.76,272.514z"/>
		<path opacity="0.6" fill="#DB3C05" d="M399.431,270.102c-1.786-3.576-4.161-4.25-9.813-2.754c1.531,0.424,2.581,1.482,3.48,3.277
			c3.166,6.336-9.026,15.223-16.225,18.822c-3.963,1.982-14.608,6.936-22.653,8.682c7.322,1.002,23.822-6.623,28.983-9.211
			C390.407,285.32,402.596,276.434,399.431,270.102z"/>
		<linearGradient id="SVGID_61_" gradientUnits="userSpaceOnUse" x1="411.335" y1="244.4429" x2="402.5658" y2="232.3851">
			<stop  offset="0" style="stop-color:#FCD135"/>
			<stop  offset="0.0168" style="stop-color:#FCD237"/>
			<stop  offset="0.4329" style="stop-color:#FCE25B"/>
			<stop  offset="0.7713" style="stop-color:#FCEB71"/>
			<stop  offset="0.9879" style="stop-color:#FCEF79"/>
		</linearGradient>
		<path fill="url(#SVGID_61_)" d="M410.571,267.943c-1.134,0.773-2.423,1.205-3.866,1.309c-1.391,0.098-2.86,0.012-4.208-0.316
			c-2.391-0.582-5.354-1.715-5.613-4.57c-0.175-1.902,0.199-3.89,0.304-5.795c0.107-1.985,0.163-4.006,0.085-5.989
			c-0.297-7.538,3.113-16.905,7.405-22.949c2.935-4.133,13.38-15.829,18.829-9.173c4.664,5.688-4.889,12.496-7.593,20.553
			c-0.683,2.035-1.318,4.092-1.846,6.173c-0.869,3.393-1.473,6.875-1.496,10.383c-0.013,1.68,0.112,3.363,0.396,5.015
			c0.254,1.492,0.326,2.553-0.717,3.809C411.74,267.01,411.178,267.521,410.571,267.943z"/>
		<path opacity="0.3" fill="#FFFFFF" d="M403.624,233.853c2.932-4.132,13.377-15.827,18.83-9.172
			c0.794,0.97,1.168,1.972,1.241,3.008c1.278-2.587,1.644-4.993-0.188-7.229c-5.449-6.656-15.895,5.04-18.829,9.173
			c-3.077,4.334-5.691,10.375-6.821,16.223C399.215,241.423,401.282,237.146,403.624,233.853z"/>
		<path fill="#FCD857" d="M423.88,293.52c0.18,1.281-0.516,2.617-1.709,3.225c-2.527,1.287-7.56-1.313-9.726-2.584
			c-4.907-2.877-9.355-6.881-12.533-11.533c-4.842-7.092-4.148-16.924-4.543-25.423c-0.218-4.813-0.126-9.754-1.249-14.467
			c-0.456-1.926-0.934-4.211-2.428-5.639c-1.703-1.621-4.346-1.699-6.527-2.121c-1.823-0.352-4.477-1.165-3.558-3.738
			c1.143-3.189,4.732-3.455,7.638-3.999c5.71-1.077,11.281,0.919,15.058,5.319c2.909,3.392,3.256,6.036,4.869,9.894
			c-0.114-0.812,5.553-3.08,6.317-3.376c3.666-1.409,7.585-2.259,11.513-2.413c2.262-0.096,4.613-0.069,6.837,0.403
			c1.007,0.213,4.07,0.997,3.374,2.519c-0.637,1.386-4.255,1.29-5.479,1.465c-2.074,0.294-4.069,0.803-6.003,1.625
			c-3.856,1.642-7.363,4.301-9.986,7.573c-1.6,1.994-2.798,3.693-3.079,6.298c-0.494,4.589-0.788,8.904,0.514,13.414
			c1.598,5.566,4.742,10.482,7.069,15.693C421.262,287.92,423.56,291.246,423.88,293.52z"/>
		<linearGradient id="SVGID_62_" gradientUnits="userSpaceOnUse" x1="381.4189" y1="262.0234" x2="437.3145" y2="262.0234">
			<stop  offset="0" style="stop-color:#FCD857"/>
			<stop  offset="0.206" style="stop-color:#FCD751"/>
			<stop  offset="0.4701" style="stop-color:#FCD341"/>
			<stop  offset="0.7645" style="stop-color:#FCCE27"/>
			<stop  offset="1" style="stop-color:#FCC80D"/>
		</linearGradient>
		<path fill="url(#SVGID_62_)" d="M423.88,293.52c0.18,1.281-0.516,2.617-1.709,3.225c-2.527,1.287-7.56-1.313-9.726-2.584
			c-4.907-2.877-9.355-6.881-12.533-11.533c-4.842-7.092-4.148-16.924-4.543-25.423c-0.218-4.813-0.126-9.754-1.249-14.467
			c-0.456-1.926-0.934-4.211-2.428-5.639c-1.703-1.621-4.346-1.699-6.527-2.121c-1.823-0.352-4.477-1.165-3.558-3.738
			c1.143-3.189,4.732-3.455,7.638-3.999c5.71-1.077,11.281,0.919,15.058,5.319c2.909,3.392,3.256,6.036,4.869,9.894
			c-0.114-0.812,5.553-3.08,6.317-3.376c3.666-1.409,7.585-2.259,11.513-2.413c2.262-0.096,4.613-0.069,6.837,0.403
			c1.007,0.213,4.07,0.997,3.374,2.519c-0.637,1.386-4.255,1.29-5.479,1.465c-2.074,0.294-4.069,0.803-6.003,1.625
			c-3.856,1.642-7.363,4.301-9.986,7.573c-1.6,1.994-2.798,3.693-3.079,6.298c-0.494,4.589-0.788,8.904,0.514,13.414
			c1.598,5.566,4.742,10.482,7.069,15.693C421.262,287.92,423.56,291.246,423.88,293.52z"/>
		<path opacity="0.3" fill="#FFFFFF" d="M415.489,239.077c3.666-1.409,7.585-2.259,11.513-2.413
			c2.262-0.096,4.601-0.009,6.837,0.403c0.473,0.084,5.084,1.795,3.282,2.576c-0.35-0.589-1.439-0.952-2.056-1.252
			c-1.506-0.732-3.241-0.617-4.867-0.569c-3.116,0.097-6.188,0.652-9.223,1.329c-2.748,0.61-5.488,1.273-7.988,2.606
			c-2.416,1.289-3.42,3.262-4.73,5.542c0.301-0.526,0.193-1.666,0.303-2.276c0.188-1.057,0.254-2.362,1.082-3.136
			c0.611-0.564,1.431-0.872,2.168-1.227C413.011,240.082,414.242,239.557,415.489,239.077z"/>
		<linearGradient id="SVGID_63_" gradientUnits="userSpaceOnUse" x1="403.1279" y1="276.0801" x2="433.9775" y2="296.1008">
			<stop  offset="0.0121" style="stop-color:#FCD857"/>
			<stop  offset="0.3072" style="stop-color:#FAD756"/>
			<stop  offset="0.4662" style="stop-color:#F2D551"/>
			<stop  offset="0.5927" style="stop-color:#E4D049"/>
			<stop  offset="0.7021" style="stop-color:#D1CA3E"/>
			<stop  offset="0.8005" style="stop-color:#B8C22F"/>
			<stop  offset="0.891" style="stop-color:#99B81D"/>
			<stop  offset="0.9739" style="stop-color:#75AC08"/>
			<stop  offset="1" style="stop-color:#68A800"/>
		</linearGradient>
		<path fill="url(#SVGID_63_)" d="M423.88,293.52c0.18,1.281-0.516,2.617-1.709,3.225c-2.527,1.287-7.56-1.313-9.726-2.584
			c-5.601-3.281-17.77-12.178-12.649-19.66c1.664-2.434,8.075-6.031,11.062-5.275c4.435,1.129,7.63,12.473,9.391,16.43
			C421.262,287.92,423.56,291.246,423.88,293.52z"/>
		<linearGradient id="SVGID_64_" gradientUnits="userSpaceOnUse" x1="405.0352" y1="263.7861" x2="383.4704" y2="263.2469">
			<stop  offset="0" style="stop-color:#FCB007"/>
			<stop  offset="1" style="stop-color:#FC9C0D"/>
		</linearGradient>
		<path opacity="0.41" fill="url(#SVGID_64_)" d="M422.344,294.701c0.409,0.594,0.497,1.225,0.044,1.873
			c-1.666,2.391-8.34-1.477-9.942-2.414c-4.907-2.877-9.355-6.881-12.533-11.533c-4.842-7.092-4.148-16.924-4.543-25.423
			c-0.218-4.813-0.126-9.754-1.249-14.467c-0.456-1.926-0.934-4.211-2.428-5.639c-1.701-1.621-4.339-1.699-6.521-2.119
			c-4.939-0.951-4.805-3.487,0.089-4.499c4.03-0.828,9.404,0.151,12.103,3.22c3.567,4.055,4.572,9.96,5.478,14.977
			c1.123,6.222,1.97,11.364,2.108,17.765c0.132,6.045,1.623,11.316,4.688,16.568c1.777,3.049,3.832,5.682,6.667,7.807
			C417.324,291.574,421.158,292.99,422.344,294.701z"/>
		<path opacity="0.31" fill="#F99300" d="M406.148,280.189c-0.021,0-0.04,0-0.063,0c-1.604-0.021-3.319-0.438-4.719-1.234
			c-0.686-0.389-1.322-0.902-1.736-1.582c-0.456-0.746-0.305-1.717-0.873-2.391c-0.349-0.414-0.883-0.723-1.236-1.154
			c-0.424-0.512-0.807-0.99-0.937-1.621c-0.149-0.77,0.281-2.119-0.963-1.537c-0.59,0.273-1.766,2.166-2.493,1.822
			c-0.651-0.313-0.017-2.906-0.029-3.48c-0.034-1.311,0.009-2.623,0.088-3.936c0.152-2.631,0.424-5.263,0.347-7.901
			c-0.05-1.611,1.511-2.437,2.624-3.377c0.987-0.837,1.953-1.7,2.889-2.597c1.578-1.513,2.651-3.562,3.592-5.517
			c0.544-1.132,1.637-1.171,2.671-0.626c0.928,0.495,1.272,1.745,1.374,2.717c0.195,1.827-0.046,3.601-0.672,5.333
			c-0.266,0.744-0.667,1.395-1.002,2.104c1.336-0.636,3.342-0.583,4.708-0.102c1.283,0.452,1.819,1.623,1.967,2.9
			c0.33,2.8-0.031,5.656,0.271,8.473c0.217,2.002,0.223,4.336,0.781,6.281c0.202,0.705,0.799,1.291,1.297,1.805
			c0.39,0.395,1.197,0.957,1.156,1.592c-0.117,1.773-0.826,1.99-2.406,2.467c-1.042,0.32-2.115,0.51-3.152,0.84
			C408.457,279.846,407.396,280.191,406.148,280.189z"/>
		<linearGradient id="SVGID_65_" gradientUnits="userSpaceOnUse" x1="388.4219" y1="269.1045" x2="405.0232" y2="248.7545">
			<stop  offset="0.0121" style="stop-color:#DB3C05"/>
			<stop  offset="0.3729" style="stop-color:#EA551B"/>
			<stop  offset="0.7403" style="stop-color:#F5672C"/>
			<stop  offset="1" style="stop-color:#F96E32"/>
		</linearGradient>
		<path fill="url(#SVGID_65_)" d="M395.75,267.166c-0.388,1.768-0.772,4.219-2.294,5.41c-1.689,1.309-4.007,0.385-5.32-0.904
			c-1.174-1.148-1.436-3.15-1.367-4.758c0.191-4.303,1.99-8.769,5.134-11.619c2.091-1.893,3.922-2.886,5.896-4.912
			c1.715-1.769,3.341-5.431,6.109-5.857c2.612-0.398,2.336,3.493,1.859,4.915c-0.758,2.276-2.201,4.187-3.705,6.018
			c-1.061,1.292-2.149,2.548-3.197,3.849C396.471,262.271,396.503,263.756,395.75,267.166z"/>
		
			<radialGradient id="SVGID_66_" cx="406.2725" cy="260.6572" r="9.7195" gradientTransform="matrix(0.9501 -0.3119 0.1393 0.4243 -16.0429 276.7669)" gradientUnits="userSpaceOnUse">
			<stop  offset="0" style="stop-color:#F96E32"/>
			<stop  offset="0.2597" style="stop-color:#F5672C"/>
			<stop  offset="0.6271" style="stop-color:#EA551B"/>
			<stop  offset="0.9879" style="stop-color:#DB3C05"/>
		</radialGradient>
		<path fill="url(#SVGID_66_)" d="M409.448,263.676c2.98-0.709,6.734-2.174,5.107-5.949c-0.833-1.935-3.521-2.378-5.384-2.163
			c-1.638,0.191-3.237,0.714-4.765,1.313c-1.949,0.761-4.172,1.399-5.733,2.866c-1.086,1.025-2.943,4.245-0.825,5.155
			c1.712,0.738,3.843,0.48,5.616,0.109c1.85-0.389,3.783-0.73,5.606-1.236C409.188,263.738,409.315,263.709,409.448,263.676z"/>
		
			<radialGradient id="SVGID_67_" cx="406.7666" cy="272.7285" r="9.8137" gradientTransform="matrix(0.9842 -0.1771 0.0834 0.4633 -15.1082 212.6971)" gradientUnits="userSpaceOnUse">
			<stop  offset="0" style="stop-color:#F96E32"/>
			<stop  offset="0.2597" style="stop-color:#F5672C"/>
			<stop  offset="0.6271" style="stop-color:#EA551B"/>
			<stop  offset="0.9879" style="stop-color:#DB3C05"/>
		</radialGradient>
		<path fill="url(#SVGID_67_)" d="M411.513,271.063c3.284-0.439,7.463-1.564,6.017-5.473c-0.741-2.002-3.613-2.688-5.649-2.635
			c-1.784,0.043-3.561,0.422-5.258,0.883c-2.17,0.586-4.635,1.018-6.436,2.346c-1.268,0.926-3.535,3.969-1.32,5.063
			c1.788,0.887,4.12,0.822,6.064,0.607c2.033-0.217,4.152-0.389,6.168-0.727C411.233,271.104,411.368,271.082,411.513,271.063z"/>
		
			<radialGradient id="SVGID_68_" cx="408.6826" cy="277.8242" r="8.5751" gradientTransform="matrix(0.9952 -0.0977 0.0536 0.5453 -12.1493 160.713)" gradientUnits="userSpaceOnUse">
			<stop  offset="0" style="stop-color:#F96E32"/>
			<stop  offset="0.2597" style="stop-color:#F5672C"/>
			<stop  offset="0.6271" style="stop-color:#EA551B"/>
			<stop  offset="0.9879" style="stop-color:#DB3C05"/>
		</radialGradient>
		<path fill="url(#SVGID_68_)" d="M412.761,277.127c2.928-0.391,6.654-1.398,5.363-4.879c-0.662-1.787-3.218-2.393-5.034-2.348
			c-1.594,0.037-3.173,0.377-4.688,0.787c-1.936,0.521-4.127,0.904-5.742,2.088c-1.123,0.826-3.15,3.537-1.171,4.52
			c1.596,0.785,3.673,0.73,5.409,0.541c1.81-0.197,3.697-0.35,5.497-0.652C412.513,277.164,412.634,277.146,412.761,277.127z"/>
		<radialGradient id="SVGID_69_" cx="287.3984" cy="254.832" r="4.5227" gradientUnits="userSpaceOnUse">
			<stop  offset="0" style="stop-color:#FFFFFF"/>
			<stop  offset="1" style="stop-color:#FFFFFF"/>
		</radialGradient>
		<path opacity="0.22" fill="url(#SVGID_69_)" d="M293.478,254.212c0,1.438-2.721,2.608-6.08,2.608
			c-3.354,0-6.079-1.171-6.079-2.608s2.648-1.368,6.004-1.368C290.685,252.844,293.478,252.774,293.478,254.212z"/>
	</g>
</g>
</svg>
