<?xml version="1.0" encoding="utf-8"?>
<!-- Generator: Adobe Illustrator 15.1.0, SVG Export Plug-In . SVG Version: 6.00 Build 0)  -->
<!DOCTYPE svg PUBLIC "-//W3C//DTD SVG 1.1//EN" "http://www.w3.org/Graphics/SVG/1.1/DTD/svg11.dtd">
<svg version="1.1" id="Layer_1" xmlns="http://www.w3.org/2000/svg" xmlns:xlink="http://www.w3.org/1999/xlink" x="0px" y="0px"
	 width="512px" height="512px" viewBox="0 0 512 512" enable-background="new 0 0 512 512" xml:space="preserve">
<g>
	<g>
		<path fill="#678CA6" d="M101.639,387.883c-0.078,8.201-0.006,25.918-1.479,28.023c-2.698,3.852-21.873,3.189-24.834,0.229
			c-2.416-2.416-2.795-6.246-3.182-9.232c-0.6-4.645-2.258-27.223-3.051-49.258c-0.762-21.252-0.467-42.318-0.467-46.912
			c0-3.752,0.008-8.332,4.343-9.119c3.104-0.563,23.483-1.09,30.232-0.109c3.339,0.482,33.601,23.258,33.579,21.443
			c-0.049-3.541-1.07-12.918-0.754-16.006c0.771-7.52,9.678-6.998,14.46-6.998c9.905,0,10.997,1.18,12.368,2.236
			c2.879,2.221,2.694,13.021,2.694,17.123c0,17.713-0.683,81.566-5.589,91.354c-1.594,3.176-4.436,6.846-11.043,7.301
			C131.415,419.164,101.646,387.205,101.639,387.883z"/>
		<path fill="#91B3CF" d="M101.639,383.492c-0.078,8.201-0.006,25.922-1.479,28.025c-2.698,3.854-21.873,3.189-24.834,0.229
			c-2.416-2.416-2.795-6.246-3.182-9.232c-0.6-4.643-2.258-27.223-3.051-49.258c-0.762-21.252-0.467-42.318-0.467-46.912
			c0-3.752,0.008-8.332,4.343-9.119c3.104-0.563,23.483-1.088,30.232-0.109c3.339,0.484,33.601,23.258,33.579,21.443
			c-0.049-3.541-1.07-12.92-0.754-16.006c0.771-7.52,9.678-6.998,14.46-6.998c9.905,0,10.997,1.18,12.368,2.236
			c2.879,2.221,2.694,13.021,2.694,17.123c0,17.715-0.683,81.566-5.589,91.354c-1.594,3.174-4.436,6.846-11.043,7.301
			C131.415,414.775,101.646,382.816,101.639,383.492z"/>
		<g opacity="0.6">
			<path fill="#D0E6F9" d="M150.963,300.246c10.236,0,11.367,1.219,12.781,2.311c0.651,0.502,1.15,1.428,1.534,2.611
				c-0.315-3.475-0.989-6.709-2.423-7.816c-1.371-1.057-2.463-2.236-12.368-2.236c-4.782,0-13.688-0.521-14.46,6.998
				c-0.107,1.059-0.059,2.857,0.053,4.906C137.193,299.734,146.119,300.246,150.963,300.246z"/>
			<path fill="#D0E6F9" d="M70.838,301.973c3.209-0.582,24.273-1.127,31.25-0.113c3.449,0.498,34.73,24.039,34.705,22.164
				c-0.018-1.342-0.17-3.494-0.342-5.838c-3.273-0.973-30.117-21.055-33.249-21.51c-6.749-0.979-27.128-0.453-30.232,0.109
				c-3.194,0.582-4.038,3.219-4.263,6.068C69.272,302.436,69.971,302.129,70.838,301.973z"/>
		</g>
		<circle fill="#D0E6F9" cx="89.045" cy="325.381" r="8.264"/>
		<circle fill="#D0E6F9" cx="143.761" cy="393.775" r="6.554"/>
		<circle fill="#D0E6F9" cx="149.746" cy="319.965" r="6.27"/>
		<path fill="#D0E6F9" d="M158.01,347.893c0,1.416-1.149,2.564-2.566,2.564c-1.414,0-2.564-1.148-2.564-2.564
			s1.15-2.564,2.564-2.564C156.86,345.328,158.01,346.477,158.01,347.893z"/>
		<circle fill="#D0E6F9" cx="84.771" cy="400.328" r="7.408"/>
		<circle fill="#D0E6F9" cx="114.123" cy="336.209" r="4.275"/>
		<circle fill="#D0E6F9" cx="112.413" cy="369.266" r="7.694"/>
		<circle fill="#D0E6F9" cx="80.782" cy="358.152" r="3.99"/>
		<circle fill="#D0E6F9" cx="141.766" cy="363.852" r="4.844"/>
	</g>
	<g>
		<path fill="#C1B49A" d="M310.729,318.91c4.055-3.456-0.025-5.987-0.713-10.689c-0.415-2.846-0.156-7.932-3.809-8.856
			c-4.653-1.178-7.17-3.576-3.892,3.605c3.862,8.455-0.959,14.941-7.819,18.221c-11.104,5.314-21.818,10.487-33.44,14.503
			c-9.529,3.289-35.281,6.864-43.836,8.928c-10.448,3.163,9.094,4.397,32.876-0.024c-2.709,2.525-33.154,6.38-30.024,9.098
			c1.899,1.65,10.72,1.577,12.621,1.374c8.516-0.911,19.501-2.812,27.55-5.637c8.186-2.873,11.241-2.562,19.81-0.655
			c2.934,0.653,16.037,4.407,16.836-1.134c-1.901-0.962-3.476-1.049-4.808-1.844c-3.886-2.317-11.31-2.82-7.569-9.744
			C286.683,332.026,307.276,321.854,310.729,318.91z"/>
		<path opacity="0.25" fill="#C1B49A" d="M310.571,318.509c0.816-0.329,1.465-0.754,1.763-1.75c0.85-2.844-1.916-5.77-2.318-8.538
			c-0.415-2.846-0.156-7.932-3.809-8.856c-4.653-1.178-7.17-3.576-3.892,3.605c2.996,6.559,0.475,13.031-5.343,16.837
			c-1.389,0.91-3.171,2.372-0.313,2.368c1.031-0.004,2.082,0.063,3.108-0.004c1.553-0.1,2.915-0.451,4.298-1.09
			c1.886-0.868,3.804-1.614,5.759-2.302C310.084,318.69,310.333,318.604,310.571,318.509z"/>
		<path opacity="0.25" fill="#C1B49A" d="M265.226,334.102c-3.046,2.256-7.759,2.716-11.358,3.539
			c-4.32,0.988-8.679,1.808-13.041,2.606c-7.854,1.433-15.834,2.5-23.606,4.374c-5.846,1.409-0.389,2.621,2.438,2.761
			c8.687,0.425,17.672-0.553,26.236-1.978c5.335-0.887,8.078-3.291,12.343-6.268C260.586,337.492,263.166,336.139,265.226,334.102z"
			/>
		<path fill="#D0E6F9" d="M284.105,95.717c-30.31-8.043-70.851,5.241-83.918,36.848c-4.826,11.671-5.673,25.324-5.828,37.833
			c-0.3,23.753,5.244,52.049,20.862,70.81c17.854,21.445,41.591,38.836,64.941,53.65c10.153,6.44,24.624,14.586,35.962,18.522
			c29.488,10.245,66.342,4.59,64.882-1.708c-3.372-14.509-10.087-27.167-16.641-38.271c-7.191-12.172-16.367-23.012-23.376-35.306
			c-14.725-25.826,0.868-48.992-1.271-76.653C337.246,129.533,319.493,105.104,284.105,95.717z"/>
		<path fill="#D0E6F9" d="M381.007,311.673c-3.372-14.509-10.087-27.167-16.641-38.271c-7.191-12.172-16.367-23.012-23.376-35.306
			c-14.725-25.826,0.868-48.992-1.271-76.653c-1.093-14.068-5.153-26.679-12.387-37.19c4.907,9.976,7.759,21.367,8.644,33.809
			c2.141,30.141-13.452,55.384,1.272,83.522c7.011,13.394,16.187,25.205,23.375,38.471c5.741,10.593,11.606,22.489,15.236,35.902
			C379.422,314.718,381.363,313.216,381.007,311.673z"/>
		<path opacity="0.31" fill="#D0E6F9" d="M205.668,140.001c13.939-32.665,51.475-47.443,83.81-39.132
			c10.729,2.755,19.931,6.773,27.676,11.859c-8.514-7.595-19.479-13.413-33.048-17.011c-30.31-8.043-70.851,5.241-83.918,36.848
			C196.579,141.291,202.761,146.811,205.668,140.001z"/>
		
			<radialGradient id="SVGID_1_" cx="231.187" cy="271.877" r="86.272" gradientTransform="matrix(0.7254 0.6212 -0.4481 0.537 194.1861 -19.7324)" gradientUnits="userSpaceOnUse">
			<stop  offset="0" style="stop-color:#EBD9E3"/>
			<stop  offset="1" style="stop-color:#D0E6F9"/>
		</radialGradient>
		<path fill="url(#SVGID_1_)" d="M292.752,233.245c-28.451-33.566-68.893-46.83-95.689-33.152
			c3.024,15.111,8.77,29.838,18.159,41.115c17.854,21.445,41.591,38.836,64.941,53.65c10.153,6.44,24.624,14.586,35.962,18.522
			c0.909,0.316,1.822,0.617,2.743,0.902C323.691,290.047,314.593,259.014,292.752,233.245z"/>
		<path fill="#C1B49A" d="M196.12,108.423c-1.604-1.935-3.649-5.588-6.255-5.287c-2.104,0.242-3.707,5.614-3.841,7.309
			c-0.222,2.769-0.283,6.356,0.031,9.031c0.487,4.163,2.312,8.242,4.422,11.811c2.126,3.59,7.913,8.126,4.091,12.47
			c-1.92,2.185-4.008,3.417-6.572,4.64c-2.309,1.103-5.216,2.495-7.704,2.664c4.324,5.327,10.663,7.593,16.437,8.466
			c5.736,0.865,12.722-0.887,17.465-3.996c2.5-1.638,6.815-5.679,7.19-9.095c0.271-2.456-2.283-4.073-3.33-5.958
			c-2.84-5.113-4.57-10.917-5.101-16.754c-0.176-1.935,0.386-4.807-0.827-6.349c-1.165-1.486-5.212-2.15-6.954-2.732
			c-3.352-1.113-6.278-3.231-8.694-5.809C196.361,108.706,196.242,108.571,196.12,108.423z"/>
		<path fill="#C1B49A" d="M196.12,108.423c-1.604-1.935-3.649-5.588-6.255-5.287c-2.104,0.242-3.707,5.614-3.841,7.309
			c-0.222,2.769-0.283,6.356,0.031,9.031c0.487,4.163,2.312,8.242,4.422,11.811c2.126,3.59,7.913,8.126,4.091,12.47
			c-1.92,2.185-4.008,3.417-6.572,4.64c-2.309,1.103-5.216,2.495-7.704,2.664c4.324,5.327,10.663,7.593,16.437,8.466
			c5.736,0.865,12.722-0.887,17.465-3.996c2.5-1.638,6.815-5.679,7.19-9.095c0.271-2.456-2.283-4.073-3.33-5.958
			c-2.84-5.113-4.57-10.917-5.101-16.754c-0.176-1.935,0.386-4.807-0.827-6.349c-1.165-1.486-5.212-2.15-6.954-2.732
			c-3.352-1.113-6.278-3.231-8.694-5.809C196.361,108.706,196.242,108.571,196.12,108.423z"/>
		<path opacity="0.1" fill="#C1B49A" d="M190.478,131.286c1.294,2.185,3.938,4.72,4.953,7.348
			c-0.237-0.623-3.894-12.759-4.767-15.768c-0.894-3.079-0.479-6.868-0.229-10.017c0.129-1.608,1.579-6.526,3.524-7.227
			c-1.182-1.433-2.537-2.667-4.094-2.487c-2.104,0.242-3.707,5.614-3.841,7.309c-0.222,2.769-0.283,6.356,0.031,9.031
			C186.543,123.638,188.367,127.717,190.478,131.286z"/>
		<path opacity="0.3" fill="#C1B49A" d="M218.054,140.477c-2.84-5.113-4.57-10.917-5.101-16.754
			c-0.176-1.935,0.386-4.807-0.827-6.349c-0.566-0.723-1.813-1.249-3.144-1.668c0.086,0.271,0.163,0.555,0.219,0.871
			c0.116,0.693,0.461,1.238,0.641,1.941c0.411,1.634,0.066,3.353,0.219,5.011c0.529,5.836,2.261,11.639,5.098,16.752
			c1.05,1.889,3.601,3.505,3.333,5.961c-0.371,3.413-4.691,7.455-7.192,9.096c-3.922,2.572-9.386,4.208-14.403,4.208
			c5.704,0.81,12.602-0.936,17.298-4.015c2.5-1.638,6.815-5.679,7.19-9.095C221.654,143.979,219.101,142.362,218.054,140.477z"/>
		<path fill="#FF9E9E" d="M187.996,148.396c-2.498,1.193-4.005,2.315-6.789,2.813c2.143,0.744,2.772,0.887,4.352,1.137
			c2.106,0.333,3.048,0.466,5.176,0.606c2.239,0.15,7.383-0.155,9.447-0.504c2.97-0.499,8.285-2.092,7.75-6.012
			c-1.44-0.204-3.932-0.703-5.399-1.253c-4.23-1.583-5.422-3.576-6.76-5.566c-0.336-0.502,0.973,1.313-1.146,4.104
			C193.005,145.858,190.349,147.274,187.996,148.396z"/>
		<ellipse fill="#91B3CF" cx="257.123" cy="154.82" rx="32.706" ry="34.092"/>
		
			<radialGradient id="SVGID_2_" cx="247.8398" cy="151.6338" r="31.0505" gradientTransform="matrix(0.9499 0 0 0.9623 20.4606 8.2771)" gradientUnits="userSpaceOnUse">
			<stop  offset="0" style="stop-color:#D0D2D3"/>
			<stop  offset="0.2165" style="stop-color:#DBDCDD"/>
			<stop  offset="0.6613" style="stop-color:#EBECED"/>
			<stop  offset="1" style="stop-color:#F1F1F2"/>
		</radialGradient>
		<ellipse fill="url(#SVGID_2_)" cx="255.876" cy="154.188" rx="29.07" ry="30.301"/>
		<path fill="#FFFFFF" d="M274.471,130.898c4.212,5.508,6.733,12.482,6.733,20.075c0,17.813-13.854,32.255-30.94,32.255
			c-1.1,0-2.188-0.063-3.26-0.181c2.797,0.936,5.776,1.442,8.872,1.442c16.055,0,29.07-13.566,29.07-30.301
			C284.946,144.825,280.871,136.457,274.471,130.898z"/>
		<path fill="#02497B" d="M227.062,150.217c0.565,1.646,1.344,3.231,2.357,4.713c6.895,10.08,21.801,11.709,33.292,3.641
			c10.003-7.023,14.12-19.081,10.465-28.734c-4.834-3.739-10.818-5.952-17.3-5.952C241.113,123.885,228.931,135.356,227.062,150.217
			z"/>
		
			<radialGradient id="SVGID_3_" cx="238.8755" cy="135.9658" r="21.9014" gradientTransform="matrix(0.6165 0.732 -0.8645 0.7472 217.6332 -137.3468)" gradientUnits="userSpaceOnUse">
			<stop  offset="0" style="stop-color:#00FFEE"/>
			<stop  offset="1" style="stop-color:#00B7EE"/>
		</radialGradient>
		<path fill="url(#SVGID_3_)" d="M227.396,148.081c0.347,0.972,0.761,1.925,1.267,2.855c5.758,10.631,19.859,14.005,31.498,7.538
			c11.275-6.267,16.101-19.472,11.155-29.957c-4.476-2.931-9.766-4.633-15.44-4.633
			C241.826,123.885,230.106,134.272,227.396,148.081z"/>
		<path fill="#91B3CF" d="M402.209,316.135c27.437,15.039,41.013,12.659,56.627,15.519c-5.37,10.752,4.635,34.417,4.593,34.567
			c-7.913-4.279-54.621-22.107-74.843-34.063c-43.82-25.893-50.628-37.466-56.948-44.014c-3.706-3.838-8.193-7.577-10.857-12.4
			c-2.688-4.859-5.728-9.611-8.106-14.612c-3.207-6.747-5.129-14.325-7.901-21.281c-3.758-9.423-6.28-17.225-3.892-27.673
			c1.379-6.033,6.751-5.074,13.557-5.495c7.659-0.47,12.761-1.127,17.536,4.082c9.75,10.636,17.503,23.736,23.095,37.079
			c6.991,16.688,14.288,39.75,26.828,53.004C387.787,307.076,394.727,312.036,402.209,316.135z"/>
		<path opacity="0.31" fill="#678CA6" d="M392.635,330.521c-43.823-25.896-50.627-37.468-56.948-44.016
			c-3.706-3.842-8.191-7.581-10.858-12.4c-2.688-4.86-5.728-9.611-8.106-14.618c-3.206-6.741-5.13-14.322-7.901-21.277
			c-3.759-9.423-6.279-17.225-3.892-27.673c0.358-1.563,0.986-2.656,1.834-3.425c-2.96,0.435-5.088,1.585-5.882,5.066
			c-2.389,10.449,0.134,18.25,3.892,27.673c2.772,6.956,4.694,14.534,7.901,21.281c2.379,5.001,5.418,9.753,8.106,14.612
			c2.664,4.823,7.151,8.563,10.857,12.4c6.32,6.548,13.128,18.121,56.948,44.014c20.222,11.955,66.93,29.783,74.843,34.063
			c0.012-0.039-0.661-1.681-1.563-4.263C446.704,355.304,409.956,340.757,392.635,330.521z"/>
		<path opacity="0.18" fill="#91B3CF" d="M450.265,342.308c2.289-2.763,2.905-6.742,2.062-11.611
			c-13.199-1.577-26.538-1.637-50.117-14.562c-7.482-4.099-14.422-9.059-20.313-15.287c-12.54-13.254-19.837-36.315-26.828-53.004
			c-2.972-7.093-6.56-14.111-10.729-20.732c-14.109-5.34-25.022-5.796-29.725-0.117c-10.071,12.158,6.359,44.762,43.818,76.605
			C395.893,335.445,440.191,354.469,450.265,342.308z"/>
		<path opacity="0.2" fill="#678CA6" d="M289.22,204.431c-7.902,2.766-18.683,9.677-21.196,20.846
			c-10.366,46.019,36.717,75.257,84.174,70.745c4.453-0.425,8.588-2.032,12.73-3.618c4.532-1.732,8.486-2.3,7.827-7.953
			c-1.127-9.73-4.945-18.232-9.698-26.655c-4.643-8.22-12.325-13.852-17.382-21.653c-4.179-6.451-8.486-12.856-13.37-18.899
			c-3.052-3.772-6.531-7.171-10.777-9.54C311.245,201.97,299.722,200.755,289.22,204.431z"/>
		<path fill="#91B3CF" d="M291.093,199.378c-7.905,2.764-18.686,9.675-21.199,20.843c-10.366,46.022,36.717,75.257,84.175,70.748
			c9.527-0.908,28.404-9.762,35.659-17.099c8.863-8.967,17.777-23.125,17.339-30.277c-18.966,0.74-42.464-0.899-57.963-13.476
			c-10.118-8.211-13.801-20.829-25.704-27.467C313.116,196.917,301.596,195.703,291.093,199.378z"/>
		<path opacity="0.36" fill="#678CA6" d="M270.259,226.348c3.452-11.983,14.277-19.527,22.533-22.563
			c7.969-2.929,16.623-2.575,24.82-0.456c6.06,1.566,11.591,4.177,13.227,5.084c-2.135-2.177-4.542-4.148-7.439-5.763
			c-10.283-5.733-21.804-6.948-32.307-3.272c-7.905,2.764-18.686,9.675-21.199,20.843c-1.195,5.299-1.624,10.376-1.382,15.203
			C268.609,237.279,268.923,230.985,270.259,226.348z"/>
		<path opacity="0.36" fill="#678CA6" d="M368.089,239.757c-0.312,1.22-0.736,2.434-1.315,3.628
			c-3.419,7.055-10.735,11.472-17.693,14.257c-18.108,7.256-40.07,7.091-58.657,1.877c-6.56-1.84-11.251-3.654-16.759-7.828
			c0.675,1.734,1.69,2.538,2.554,4.178c11.701,6.506,25.276,8.823,37.89,9.744c21.793,1.592,37.156-2.945,50.651-14.519
			c3.371-2.89,5.058-6.933,6.262-10.516C370.035,240.327,369.057,240.05,368.089,239.757z"/>
		<g opacity="0.31">
			<path fill="#678CA6" d="M407.066,243.594c-5.89,0.228-12.209,0.228-18.594-0.256c-2.322,3.971-5.722,9.731-15.699,9.1
				c3.117,7.578,1.259,11.467-4.988,15.16c-7.482,4.422-14.133,4.104-22.009,1.065c-1.596-0.613-1.061,9.04-17.895,10.303
				c-8.212,0.616-18.483-2.703-26.349-5.088c-6.218-1.881-11.26-4.178-15.948-8.812c-4.035-3.99-9.894-8.106-13.331-13.143
				c11.368,27.055,46.484,42.402,81.814,39.046c9.527-0.908,28.404-9.762,35.659-17.099
				C398.591,264.904,407.505,250.746,407.066,243.594z"/>
		</g>
		<path opacity="0.31" fill="#678CA6" d="M407.066,243.594c-0.476,0.02-0.955,0.034-1.433,0.049
			c-2.362,7.568-9.458,18.023-16.531,25.175c-7.256,7.337-26.13,16.192-35.659,17.097c-39.642,3.768-79.014-16.015-84.868-49.454
			c2.582,36.484,43.894,58.464,85.493,54.51c9.527-0.908,28.404-9.762,35.659-17.099
			C398.591,264.904,407.505,250.746,407.066,243.594z"/>
		<linearGradient id="SVGID_4_" gradientUnits="userSpaceOnUse" x1="326.7607" y1="123.7148" x2="372.153" y2="123.7148">
			<stop  offset="0" style="stop-color:#D0E6F9"/>
			<stop  offset="0.2449" style="stop-color:#C3DCF1"/>
			<stop  offset="0.6735" style="stop-color:#B3CFE6"/>
			<stop  offset="1" style="stop-color:#ADCBE2"/>
		</linearGradient>
		<path fill="url(#SVGID_4_)" d="M327.918,134.983c-3.255-1.738-3.784-5.042-4.708-8.41c-0.242-0.888-1.471-10.133-3.932-9.042
			c2.062-0.914,5.827,1.03,8.114,0.894c2.692-0.16,4.893-1.265,7.38-2.136c6.061-2.116,13.789-4.031,16.991-10.412
			c2.186,5.302-9.739,16.376-14.496,17.607c5.589,2.398,9.708,2.565,15.764,2.674c4.775,0.087,12.993,0.951,16.692-3.103
			c-1.408,4.378-10.619,8.133-14.751,8.808c-4.87,0.792-11.856,2.695-16.239-0.005c0.721,3.869,7.493,8.318,10.987,9.695
			C342.224,139.366,334.952,138.736,327.918,134.983z"/>
		<path fill="#023351" d="M229.868,140.651c0.185,2.698,0.988,5.345,2.47,7.743c5.259,8.509,17.057,10.627,26.354,4.732
			c9.294-5.896,12.566-17.571,7.309-26.08c-0.372-0.602-0.778-1.168-1.214-1.704c-2.807-0.944-5.8-1.457-8.91-1.457
			C244.49,123.885,234.641,130.711,229.868,140.651z"/>
		
			<radialGradient id="SVGID_5_" cx="251.0884" cy="136.3232" r="5.9026" gradientTransform="matrix(0.9499 0 0 0.9623 20.4606 8.2771)" gradientUnits="userSpaceOnUse">
			<stop  offset="0" style="stop-color:#FFFFFF"/>
			<stop  offset="0.2494" style="stop-color:#FDFDFE"/>
			<stop  offset="0.3869" style="stop-color:#F5F8FA"/>
			<stop  offset="0.4971" style="stop-color:#E7EEF2"/>
			<stop  offset="0.593" style="stop-color:#D3E0E8"/>
			<stop  offset="0.6794" style="stop-color:#BACDDB"/>
			<stop  offset="0.7591" style="stop-color:#9BB7CB"/>
			<stop  offset="0.8337" style="stop-color:#769CB7"/>
			<stop  offset="0.9042" style="stop-color:#4B7DA1"/>
			<stop  offset="0.969" style="stop-color:#1B5B88"/>
			<stop  offset="1" style="stop-color:#02497B"/>
		</radialGradient>
		<path fill="url(#SVGID_5_)" d="M265.157,139.456c0,3.464-2.774,6.276-6.195,6.276c-3.423,0-6.195-2.813-6.195-6.276
			c0-3.469,2.772-6.279,6.195-6.279C262.383,133.177,265.157,135.986,265.157,139.456z"/>
		
			<radialGradient id="SVGID_6_" cx="240.1533" cy="148.8535" r="2.8967" gradientTransform="matrix(0.9499 0 0 0.9623 20.4606 8.2771)" gradientUnits="userSpaceOnUse">
			<stop  offset="0" style="stop-color:#FFFFFF"/>
			<stop  offset="0.2494" style="stop-color:#FDFDFE"/>
			<stop  offset="0.3869" style="stop-color:#F5F8FA"/>
			<stop  offset="0.4971" style="stop-color:#E7EEF2"/>
			<stop  offset="0.593" style="stop-color:#D3E0E8"/>
			<stop  offset="0.6794" style="stop-color:#BACDDB"/>
			<stop  offset="0.7591" style="stop-color:#9BB7CB"/>
			<stop  offset="0.8337" style="stop-color:#769CB7"/>
			<stop  offset="0.9042" style="stop-color:#4B7DA1"/>
			<stop  offset="0.969" style="stop-color:#1B5B88"/>
			<stop  offset="1" style="stop-color:#02497B"/>
		</radialGradient>
		<ellipse fill="url(#SVGID_6_)" cx="248.575" cy="151.511" rx="2.751" ry="2.788"/>
		<ellipse opacity="0.3" fill="#C1B49A" cx="202.118" cy="120.711" rx="2.205" ry="2.232"/>
	</g>
</g>
</svg>
