<?xml version="1.0" encoding="utf-8"?>
<!-- Generator: Adobe Illustrator 15.1.0, SVG Export Plug-In . SVG Version: 6.00 Build 0)  -->
<!DOCTYPE svg PUBLIC "-//W3C//DTD SVG 1.1//EN" "http://www.w3.org/Graphics/SVG/1.1/DTD/svg11.dtd">
<svg version="1.1" id="Layer_1" xmlns="http://www.w3.org/2000/svg" xmlns:xlink="http://www.w3.org/1999/xlink" x="0px" y="0px"
	 width="500px" height="500px" viewBox="0 0 500 500" enable-background="new 0 0 500 500" xml:space="preserve">
<rect x="0" fill="#FDC02F" width="500" height="500"/>
<g>
	<path fill="#007866" d="M467.828,169.994c-2.955,1.439-11.399,0.196-15.468,0.196c-13.035,0-23.621,3.423-31.765,10.261
		c-9.203,7.656-13.805,18.69-13.805,33.105c0,11.236,3.645,20.466,10.924,27.67c7.296,7.206,16.851,11.161,28.649,10.807
		c13.504-0.393,12.854-2.533,17.121,0.331c4.474,3.001,3.666,9.151,2.804,13.12c-0.898,4.681-2.156,9.295-3.409,13.892
		c-1.143,4.183-3.774,4.801-7.68,5.815c-2.774,0.729-5.585,1.291-8.408,1.732c-6.601,1.025-13.3,1.391-19.971,1.391
		c-25.819,0-51.35-8.756-69.663-26.103c-19.875-18.893-29.451-41.212-29.451-71.509c0-28.016,11.65-52.845,28.751-70.111
		c18.237-18.41,43.444-27.611,75.619-27.611c15.468,0,33.266,2.749,38.612,9.184c4.34,5.212-0.271,60.787-1.139,64.797
		C469.199,168.582,468.908,169.465,467.828,169.994z"/>
	<path fill="#068C4F" d="M467.828,169.994c-2.955,1.439-11.399,0.196-15.468,0.196c-13.035,0-23.621,3.423-31.765,10.261
		c-9.203,7.656-13.805,18.69-13.805,33.105c0,11.236,3.645,20.466,10.924,27.67c7.296,7.206,16.851,11.161,28.649,10.807
		c13.504-0.393,12.854-2.533,17.121,0.331c4.474,3.001,3.666,9.151,2.804,13.12c-0.898,4.681-2.156,9.295-3.409,13.892
		c-1.143,4.183-3.774,4.801-7.68,5.815c-2.774,0.729-5.585,1.291-8.408,1.732c-6.601,1.025-13.3,1.391-19.971,1.391
		c-25.819,0-51.35-8.756-69.663-26.103c-19.875-18.893-29.451-41.212-29.451-71.509c0-28.016,11.65-52.845,28.751-70.111
		c18.237-18.41,43.444-27.611,75.619-27.611c15.468,0,32.697,3.254,38.612,9.184c7.867,7.884,0.794,57.772-1.139,64.797
		C469.112,168.562,468.908,169.465,467.828,169.994z"/>
	<path fill="#04BC64" d="M355.62,129.843c18.242-18.402,43.445-27.608,75.618-27.608c10.498,0,25.181,0.016,34.313,6.001
		c5.096,3.345,8.474,12.862,8.825,13.694c0-14.776-2.154-17.924-3.686-19.764c-5.348-6.435-23.146-9.184-38.612-9.184
		c-32.175,0-57.382,9.201-75.619,27.611c-16.193,16.342-27.485,39.472-28.646,65.663
		C330.913,163.892,341.367,144.238,355.62,129.843z"/>
	<g opacity="0.5">
		<path fill="#024C23" d="M463.043,275.104c-2.995,0.729-6.028,1.289-9.093,1.725c-7.132,1.033-14.374,1.396-21.592,1.396
			c-27.917,0-55.521-8.757-75.334-26.104c-13.765-12.098-22.943-25.606-27.776-41.711c3.426,20.687,12.604,37.263,27.911,51.805
			c18.313,17.346,43.844,26.104,69.663,26.104c6.671,0,13.37-0.365,19.971-1.392c2.823-0.442,5.634-1.004,8.408-1.731
			c3.904-1.016,6.537-1.635,7.68-5.816c0.416-1.507,0.819-3.02,1.21-4.529C463.751,274.936,463.403,275.016,463.043,275.104z"/>
		<path fill="#024C23" d="M469.551,155.962c-0.439,1.6-0.643,2.503-1.723,3.032c-2.955,1.439-11.399,0.196-15.468,0.196
			c-13.035,0-23.621,3.423-31.765,10.261c-9.203,7.656-13.805,18.69-13.805,33.105c0,1.767,0.101,3.479,0.281,5.146
			c1.108-11.58,5.61-20.668,13.523-27.251c8.144-6.838,18.729-10.261,31.765-10.261c4.068,0,12.513,1.243,15.468-0.196
			c1.08-0.529,1.283-1.432,1.723-3.032c1.401-5.094,5.504-32.72,4.655-50.531C473.592,132.932,470.686,151.837,469.551,155.962z"/>
	</g>
	<g>
		<path fill="#04BC64" d="M435.577,124.664c0,6.277-5.09,11.362-11.348,11.362c-6.287,0-11.366-5.085-11.366-11.362
			c0-6.265,5.079-11.35,11.366-11.35C430.488,113.314,435.577,118.399,435.577,124.664z"/>
		<path fill="#04BC64" d="M394.172,163.783c0,3.255-2.646,5.894-5.888,5.894c-3.258,0-5.896-2.639-5.896-5.894
			c0-3.253,2.639-5.89,5.896-5.89C391.527,157.894,394.172,160.53,394.172,163.783z"/>
		<path fill="#04BC64" d="M372.163,223.77c0,5.117-4.141,9.257-9.255,9.257c-5.108,0-9.252-4.141-9.252-9.257
			c0-5.108,4.144-9.246,9.252-9.246C368.023,214.524,372.163,218.662,372.163,223.77z"/>
		<path fill="#04BC64" d="M453.902,263.898c0,3.019-2.445,5.472-5.469,5.472c-3.02,0-5.471-2.453-5.471-5.472
			c0-3.018,2.451-5.471,5.471-5.471C451.456,258.43,453.902,260.882,453.902,263.898z"/>
		<path fill="#04BC64" d="M395.85,243.701c0,3.724-3.01,6.739-6.72,6.739c-3.724,0-6.741-3.015-6.741-6.739
			c0-3.714,3.019-6.726,6.741-6.726C392.84,236.975,395.85,239.987,395.85,243.701z"/>
		<path fill="#04BC64" d="M384.074,125.088c0,3.249-2.637,5.887-5.888,5.887c-3.254,0-5.891-2.638-5.891-5.887
			c0-3.255,2.637-5.895,5.891-5.895C381.438,119.193,384.074,121.833,384.074,125.088z"/>
		<circle fill="#04BC64" cx="453.903" cy="143.069" r="7.572"/>
	</g>
</g>
<g>
	<path fill="#D62874" d="M199.191,282.275c-4.033,4.341-16.861,7.096-30.933,7.367c-10.897,0.211-22.587,0.211-33.156-2.963
		c-4.118-1.246-5.805-3.338-7.423-7.023c-2.977-6.795-10.736-0.139-25.167-0.572c-18.122-0.541-21.177-5.968-22.725-2.343
		c-3.063,7.17-5.711,11.315-14.099,12.239c-5.147,0.578-9.708,0.391-15.389-0.42c-9.412-1.334-11.916-3.974-13.497-14.498
		c-2.044-13.553,2.883-79.297,7.171-97.494c5.823-26.966,14.356-55.448,27.392-78.252c5.216-9.137,9.854-11.477,19.07-13.263
		c12.348-2.39,55.427-1.927,63.068,1.132c6.836,2.731,9.464,8.974,12.285,14.95c5.602,11.813,17.185,48.046,23.636,77.089
		c9.954,44.853,11.212,65.867,11.928,74.929C201.896,259.917,203.237,277.916,199.191,282.275z M112.537,234.539
		c4.167-4.161,2.464-10.157,1.251-15.013c-1.251-5.006-7.585-20.479-12.927-18.355c-1.666,0.653-4.594,2.498-6.678,7.511
		c-2.473,5.924-11.4,26.173,0.422,27.94C102.941,237.882,110.447,236.622,112.537,234.539z"/>
	<g>
		<g>
			<g>
				<path fill="#8B0D44" d="M199.994,273.398c-4.026,4.332-16.858,7.093-30.916,7.361c-10.912,0.206-22.595,0.206-33.17-2.964
					c-4.11-1.245-5.809-3.327-7.415-7.024c-2.978-6.787-10.743-0.14-25.172-0.566c-18.125-0.541-21.188-5.969-22.727-2.34
					c-3.068,7.169-5.716,11.307-14.101,12.24c-5.144,0.572-9.708,0.386-15.398-0.42c-9.403-1.342-11.896-3.982-13.488-14.502
					c-1.178-7.789-0.046-32.867,1.942-56.22c-2.469,25.505-4.08,56.306-2.747,65.099c1.582,10.524,4.085,13.164,13.497,14.498
					c5.681,0.811,10.241,0.998,15.389,0.42c8.387-0.924,11.034-5.069,14.099-12.239c1.548-3.625,4.603,1.802,22.725,2.343
					c14.432,0.436,22.191-6.223,25.167,0.572c1.618,3.687,3.305,5.777,7.423,7.023c10.569,3.174,22.259,3.174,33.156,2.963
					c14.07-0.271,26.899-3.026,30.933-7.367c2.021-2.186,2.706-7.795,2.803-13.691C201.557,270.688,200.911,272.396,199.994,273.398
					z"/>
			</g>
			<g>
				<path fill="#8B0D44" d="M114.595,210.646c-1.249-5.006-7.593-20.484-12.937-18.354c-1.657,0.655-4.592,2.497-6.67,7.509
					c-1.696,4.07-6.458,14.918-5.414,21.871c1.291-5.237,3.548-10.445,4.608-12.991c2.084-5.013,5.013-6.857,6.678-7.511
					c5.342-2.124,11.675,13.349,12.927,18.355c0.332,1.348,0.709,2.789,0.985,4.25C117.022,219.811,115.635,214.81,114.595,210.646z
					"/>
			</g>
		</g>
	</g>
	<g>
		<g>
			<g>
				<path fill="#EB5B9A" d="M38.14,235.911c1.229-16.177,2.104-32.999,5.834-48.843c5.823-26.963,14.356-55.451,27.392-78.257
					c5.216-9.129,9.854-11.48,19.07-13.262c12.348-2.388,55.427-1.928,63.068,1.132c6.836,2.731,9.464,8.985,12.285,14.955
					c5.602,11.809,17.185,48.047,23.636,77.09c9.954,44.855,11.212,65.87,11.928,74.917c0.372,4.525,0.339,8.974-0.073,13.33
					c1.349-7.209,0.486-18.718,0.073-23.814c-0.716-9.063-1.974-30.077-11.928-74.93c-6.451-29.042-18.034-65.277-23.636-77.089
					c-2.821-5.977-5.448-12.219-12.285-14.95c-7.642-3.059-50.721-3.522-63.068-1.132c-9.216,1.786-13.854,4.125-19.07,13.263
					c-13.035,22.804-21.568,51.286-27.392,78.252c-3.042,12.883-6.396,49.62-7.375,74.78
					C37.203,246.248,37.743,241.119,38.14,235.911z"/>
			</g>
		</g>
	</g>
	<g>
		<path fill="#EB5B9A" d="M124.943,118.253c0,3.541-2.867,6.417-6.413,6.417c-3.557,0-6.425-2.877-6.425-6.417
			c0-3.545,2.869-6.417,6.425-6.417C122.076,111.836,124.943,114.708,124.943,118.253z"/>
		<path fill="#EB5B9A" d="M76.969,247.188c0,5.251-4.265,9.518-9.51,9.518c-5.262,0-9.52-4.267-9.52-9.518
			c0-5.251,4.258-9.515,9.52-9.515C72.704,237.673,76.969,241.937,76.969,247.188z"/>
		<path fill="#EB5B9A" d="M139.705,197.884c0,3.917-3.177,7.087-7.1,7.087c-3.915,0-7.088-3.171-7.088-7.087
			c0-3.923,3.173-7.092,7.088-7.092C136.528,190.792,139.705,193.961,139.705,197.884z"/>
		<path fill="#EB5B9A" d="M169.756,158.922c0,7.924-6.788,14.347-15.154,14.347c-8.359,0-15.146-6.422-15.146-14.347
			c0-7.917,6.786-14.337,15.146-14.337C162.968,144.584,169.756,151.005,169.756,158.922z"/>
		<path fill="#EB5B9A" d="M186.284,229.7c0,6.138-4.983,11.119-11.12,11.119c-6.138,0-11.112-4.98-11.112-11.119
			c0-6.133,4.975-11.113,11.112-11.113C181.301,218.587,186.284,223.567,186.284,229.7z"/>
		<path fill="#EB5B9A" d="M148.763,254.837c0,2.565-2.091,4.647-4.655,4.647c-2.567,0-4.651-2.082-4.651-4.647
			c0-2.578,2.084-4.662,4.651-4.662C146.672,250.175,148.763,252.259,148.763,254.837z"/>
		<path fill="#EB5B9A" d="M87.961,151.569c0,6.139-4.968,11.112-11.11,11.112c-6.141,0-11.107-4.973-11.107-11.112
			c0-6.135,4.967-11.11,11.107-11.11C82.993,140.459,87.961,145.435,87.961,151.569z"/>
	</g>
</g>
<path opacity="0.4" fill="#026050" enable-background="new    " d="M357.161,168.062c-5.7-7.997-12.596-14.087-20.678-18.294
	c-5.547,12.339-8.776,26.196-8.776,40.937c0,26.371,7.261,46.696,22.247,63.98c12.656-11.324,19.074-26.534,19.242-45.637
	C369.343,193.275,365.327,179.603,357.161,168.062z"/>
<path opacity="0.4" fill="#8B0D44" enable-background="new    " d="M201.353,253.156c-0.716-9.063-1.974-30.077-11.928-74.93
	c-4.457-20.066-11.363-43.561-17.055-60.066c-2.757,47.068-7.273,119.864-9.396,147.992c-0.45,6.086,1.449,8.205,7.801,9.176
	c5.906,0.902,11.869,1.568,17.837,2.109c4.117,0.377,8.241,0.684,12.368,0.938C202.745,271.352,201.791,258.605,201.353,253.156z"/>
<g>
	<path fill="#00BAE5" d="M359.197,196.049c0.146-15.774-3.869-29.446-12.035-40.987c-6.926-9.715-15.608-16.624-26.049-20.749
		c14.834-6.364,19.413-22.899,19.044-32.967c-0.646-17.845-5.666-28.712-25.492-36.771c-15.317-6.268-35.474-9.516-60.454-9.739
		c-14.072-0.122-28.146,0.44-42.172,1.52c-10.512,0.807-18.217,1.559-22.521,2.176c-4.056,0.584-4.729,1.852-4.94,6.799
		c-0.917,20.692-8.621,148.317-11.604,187.821c-0.45,6.084,1.449,8.203,7.801,9.175c5.906,0.901,11.869,1.567,17.837,2.108
		c14.311,1.313,28.696,1.834,43.067,1.965C319.601,267.09,358.779,243.644,359.197,196.049z M296.549,108.328
		c-0.035,4.707-2.396,9.624-6.928,11.994c-4.605,2.412-12.433,3.875-17.698,3.063c-5.218-0.804-5.133-4.339-5.499-8.371
		c-0.469-5.185-0.386-9.648-0.15-14.604c0.115-2.702,0.845-7.544,3.443-9.413c2.906-2.087,11.217-0.687,14.288,0.465
		C292.795,94.764,296.614,100.479,296.549,108.328z M300.721,169.873c0.302,6.741-2.09,12.52-7.874,16.382
		c-5.262,3.515-12.407,4.768-18.779,5.384c-5.575,0.525-5.92-2.904-6.784-7.137c-1.1-5.408-1.457-12.074-0.874-18.976
		c0.578-6.789,2.569-13.522,7.289-14.034c8.295-0.917,17.514,1.35,23.048,7.5C299.509,162.068,300.529,165.924,300.721,169.873z"/>
	<g opacity="0.4">
		<path opacity="0.65" fill="#82D5F9" enable-background="new    " d="M187.639,67.573c4.451-0.613,12.437-1.362,23.319-2.172
			c14.512-1.079,29.093-1.639,43.662-1.514c25.858,0.221,46.724,3.471,62.587,9.734c10.789,4.263,17.021,10.487,22.062,18.423
			c-2.151-12.507-8.483-20.911-24.604-27.468c-15.317-6.268-35.474-9.516-60.454-9.739c-14.072-0.122-28.146,0.44-42.172,1.52
			c-10.512,0.807-18.217,1.559-22.521,2.176c-4.056,0.584-4.729,1.852-4.94,6.799c-0.05,0.888-0.096,1.968-0.158,3.226
			C185.155,68.067,186.19,67.778,187.639,67.573z"/>
	</g>
	<g>
		<g>
			<path fill="#027C89" d="M283.183,83.242c-3.07-1.156-11.396-2.549-14.288-0.468c-2.601,1.87-3.328,6.705-3.452,9.417
				c-0.219,4.946-0.313,9.419,0.155,14.59c0.147,1.571,0.228,3.054,0.562,4.341c-0.156-3.631-0.066-7.038,0.114-10.714
				c0.115-2.702,0.845-7.544,3.443-9.413c2.906-2.087,11.217-0.687,14.288,0.465c6.223,2.34,9.952,5.895,11.574,10.557
				c0.088-0.639,0.144-1.281,0.144-1.912C295.8,92.254,291.979,86.538,283.183,83.242z"/>
			<path fill="#027C89" d="M358.277,182.933c0.076,1.613,0.113,3.235,0.097,4.898c-0.411,47.582-39.587,71.032-117.521,70.349
				c-14.373-0.131-28.76-0.654-43.065-1.965c-5.958-0.543-11.932-1.211-17.84-2.113c-3.515-0.531-5.662-1.427-6.808-3.15
				c-0.052,0.761-0.109,1.502-0.166,2.203c-0.45,6.084,1.449,8.203,7.801,9.175c5.906,0.901,11.869,1.567,17.837,2.108
				c14.311,1.313,28.696,1.834,43.067,1.965c77.921,0.688,117.1-22.758,117.518-70.353
				C359.24,191.506,358.928,187.132,358.277,182.933z"/>
			<path fill="#027C89" d="M266.408,165.527c0.578-6.789,2.569-13.522,7.288-14.034c8.296-0.917,17.515,1.35,23.049,7.5
				c1.49,1.662,2.483,3.559,3.098,5.565c0.077-0.949,0.101-1.916,0.048-2.91c-0.182-3.95-1.198-7.799-3.971-10.887
				c-5.531-6.143-14.754-8.413-23.036-7.497c-4.717,0.519-6.727,7.247-7.298,14.041c-0.523,6.28-0.271,12.356,0.604,17.475
				C266.085,171.813,266.143,168.701,266.408,165.527z"/>
		</g>
	</g>
	<g>
		<path opacity="0.65" fill="#82D5F9" enable-background="new    " d="M229.032,93.525c0,5.901-4.782,10.692-10.69,10.692
			c-5.902,0-10.684-4.791-10.684-10.692c0-5.904,4.78-10.692,10.684-10.692C224.25,82.833,229.032,87.622,229.032,93.525z"/>
		<path opacity="0.65" fill="#82D5F9" enable-background="new    " d="M216.703,237.442c0,5.903-4.786,10.693-10.691,10.693
			c-5.911,0-10.695-4.79-10.695-10.693c0-5.905,4.784-10.69,10.695-10.69C211.917,226.752,216.703,231.537,216.703,237.442z"/>
		<path opacity="0.65" fill="#82D5F9" enable-background="new    " d="M249.192,146.956c0,2.504-2.031,4.521-4.524,4.521
			c-2.5,0-4.521-2.017-4.521-4.521c0-2.491,2.021-4.519,4.521-4.519C247.16,142.437,249.192,144.465,249.192,146.956z"/>
		<path opacity="0.65" fill="#82D5F9" enable-background="new    " d="M292.195,212.778c0,2.494-2.019,4.513-4.521,4.513
			c-2.504,0-4.529-2.019-4.529-4.513c0-2.506,2.025-4.525,4.529-4.525C290.177,208.253,292.195,210.272,292.195,212.778z"/>
		<circle opacity="0.65" fill="#82D5F9" enable-background="new    " cx="218.345" cy="182.934" r="7.813"/>
		<path opacity="0.65" fill="#82D5F9" enable-background="new    " d="M337.272,206.195c0,5.219-4.235,9.454-9.466,9.454
			c-5.221,0-9.452-4.235-9.452-9.454c0-5.222,4.231-9.459,9.452-9.459C333.036,196.736,337.272,200.974,337.272,206.195z"/>
		<path opacity="0.65" fill="#82D5F9" enable-background="new    " d="M263.986,238.673c0,4.773-3.86,8.64-8.642,8.64
			c-4.766,0-8.628-3.867-8.628-8.64c0-4.769,3.862-8.631,8.628-8.631C260.125,230.042,263.986,233.905,263.986,238.673z"/>
		<path opacity="0.65" fill="#82D5F9" enable-background="new    " d="M326.897,160.544c0,3.865-3.134,6.998-6.989,6.998
			c-3.866,0-6.988-3.133-6.988-6.998c0-3.857,3.122-6.985,6.988-6.985C323.764,153.56,326.897,156.687,326.897,160.544z"/>
		<path opacity="0.65" fill="#82D5F9" enable-background="new    " d="M317.023,109.564c0,3.406-2.756,6.165-6.165,6.165
			c-3.407,0-6.167-2.758-6.167-6.165c0-3.412,2.76-6.17,6.167-6.17C314.268,103.394,317.023,106.152,317.023,109.564z"/>
		<path opacity="0.65" fill="#82D5F9" enable-background="new    " d="M255.352,82.422c0,4.769-3.871,8.636-8.639,8.636
			c-4.77,0-8.633-3.867-8.633-8.636c0-4.774,3.864-8.638,8.633-8.638C251.48,73.785,255.352,77.648,255.352,82.422z"/>
	</g>
</g>
<g>
	<g>
		<path fill="#AA4704" d="M29.841,426.711c8.459-29.345,14.85-58.55,19.17-87.611l32.268-4.729
			c3.69,26.003,10.53,56.063,20.521,90.189l-24.572,6.024l-3.242-16.063l-16.063,1.865l-2.837,16.202L29.841,426.711z
			 M70.48,397.604l-5.537-34.129l-5.399,34.271L70.48,397.604z"/>
		<path fill="#AA4704" d="M103.15,337.667l24.845-4.442c0.356,2.771,1.031,6.592,2.022,11.469
			c2.611,11.664,5.174,21.795,7.696,30.399c1.529,5.067,3.149,9.031,4.859,11.9v-49.47l24.977-4.301
			c-3.419,34.316-4.139,63.855-2.158,88.613l-22.546,5.735c-0.091-0.384-1.083-1.912-2.973-4.591l-11.61-18.783
			c-1.889-2.963-3.061-4.969-3.511-6.021c0,10.325,0.358,20.123,1.081,29.396l-22.548,5.877L103.15,337.667z"/>
		<path fill="#AA4704" d="M173.897,340.249l12.557-2.151l12.284-2.008c-1.62,17.113-2.563,33.029-2.835,47.749
			c-0.27,14.722,0.044,28.247,0.944,40.576l-11.339,3.157l-11.479,2.723L173.897,340.249z"/>
		<path fill="#AA4704" d="M200.628,428.432c7.739-26,13.59-55.3,17.551-87.895l22.546-4.877l6.751,46.314l6.076-44.451l21.465-1.863
			c3.33,29.063,9.724,59.793,19.173,92.196l-23.896,5.162l-8.643-47.173l-5.399,44.592l-19.712,1.722l-5.4-49.183l-7.289,50.473
			L200.628,428.432z"/>
		<path fill="#AA4704" d="M290.41,426.711c8.458-29.345,14.85-58.55,19.17-87.611l32.268-4.729
			c3.69,26.003,10.532,56.063,20.522,90.189l-24.572,6.024l-3.239-16.063l-16.065,1.865l-2.838,16.202L290.41,426.711z
			 M331.048,397.604l-5.535-34.129l-5.401,34.271L331.048,397.604z"/>
		<path fill="#AA4704" d="M362.909,340.395l24.705-4.16c-2.249,23.707-3.239,45.408-2.969,65.099l25.787-3.442l2.431,23.803
			c-13.32,0.858-29.927,3.777-49.819,8.746L362.909,340.395z"/>
		<g>
			<path fill="#AA4704" d="M466.906,351.617c0.502,2.758,0.922,5.867,1.257,9.335c-2.011,0.714-5.274,1.866-9.795,3.468
				l-9.795,3.333c-0.669-3.644-2.344-5.467-5.021-5.467c-3.267,0-6.322,1.601-9.167,4.802c-1.845,2.579-2.387,4.98-1.633,7.201
				c0.584,1.423,2.594,2.134,6.026,2.134c1.758,0,3.894-0.222,6.404-0.669c4.017-0.709,7.616-1.064,10.8-1.064
				c7.7,0,12.639,2.313,14.815,6.936c0.754,1.422,1.339,2.934,1.759,4.532c1.004,4.981-0.209,10.401-3.642,16.271
				c-4.104,7.735-10.843,14.182-20.217,19.337c-4.771,2.759-9.84,4.137-15.195,4.137c-4.854,0-9.837-1.111-14.941-3.335
				c1.256-4.801,3.558-11.869,6.907-21.205c3.348,1.959,6.653,2.936,9.919,2.936c1.422,0,2.93-0.313,4.521-0.936
				c2.763-0.532,5.314-1.42,7.659-2.666c3.18-1.602,4.604-3.288,4.27-5.068c-0.335-2.134-2.43-3.2-6.278-3.2
				c-2.511,0-6.152,0.446-10.925,1.334c-4.771,1.158-8.457,1.734-11.05,1.734c-3.435,0-6.11-0.666-8.036-2.002
				c-4.187-1.954-6.363-5.153-6.529-9.601c-0.669-8.623,3.767-18.714,13.31-30.272c9.795-11.825,19.129-18.005,28.002-18.537
				C459.035,334.637,464.563,340.148,466.906,351.617z"/>
		</g>
	</g>
	<g>
		<path fill="#FFEDBB" d="M27.102,422.765c8.458-29.346,14.851-58.549,19.17-87.608l32.269-4.731
			c3.689,26.001,10.531,56.062,20.522,90.188l-24.574,6.022l-3.238-16.062l-16.069,1.865l-2.833,16.202L27.102,422.765z
			 M67.739,393.654l-5.535-34.125l-5.4,34.271L67.739,393.654z"/>
		<path fill="#FFEDBB" d="M100.412,333.721l24.841-4.445c0.359,2.773,1.033,6.595,2.024,11.472
			c2.609,11.665,5.175,21.795,7.696,30.397c1.529,5.067,3.149,9.035,4.86,11.902v-49.47l24.976-4.304
			c-3.421,34.319-4.141,63.856-2.159,88.613l-22.546,5.736c-0.091-0.381-1.082-1.91-2.973-4.589l-11.608-18.782
			c-1.891-2.963-3.061-4.971-3.512-6.021c0,10.322,0.36,20.123,1.081,29.394l-22.545,5.879L100.412,333.721z"/>
		<path fill="#FFEDBB" d="M171.156,336.301l12.558-2.152L196,332.143c-1.623,17.113-2.567,33.028-2.837,47.75
			c-0.271,14.721,0.045,28.246,0.945,40.578l-11.34,3.153l-11.478,2.725L171.156,336.301z"/>
		<path fill="#FFEDBB" d="M197.888,424.485c7.741-26.003,13.591-55.3,17.551-87.897l22.546-4.875l6.752,46.314l6.077-44.45
			l21.466-1.864c3.329,29.061,9.722,59.791,19.172,92.197l-23.897,5.163l-8.64-47.175l-5.4,44.592l-19.712,1.721l-5.4-49.182
			l-7.29,50.474L197.888,424.485z"/>
		<path fill="#FFEDBB" d="M287.67,422.765c8.459-29.346,14.849-58.549,19.171-87.608l32.267-4.731
			c3.691,26.001,10.531,56.062,20.522,90.188l-24.573,6.022l-3.24-16.062l-16.063,1.865l-2.836,16.202L287.67,422.765z
			 M328.309,393.654l-5.538-34.125l-5.398,34.271L328.309,393.654z"/>
		<path fill="#FFEDBB" d="M360.169,336.445l24.708-4.157c-2.251,23.705-3.241,45.403-2.973,65.097l25.788-3.441l2.43,23.803
			c-13.32,0.857-29.927,3.776-49.819,8.745L360.169,336.445z"/>
		<path fill="#FFEDBB" d="M465.246,347.973c0.501,2.756,0.921,5.868,1.256,9.336c-2.01,0.711-5.274,1.865-9.795,3.467l-9.796,3.334
			c-0.67-3.646-2.343-5.469-5.021-5.469c-3.264,0-6.321,1.602-9.165,4.803c-1.843,2.578-2.386,4.98-1.634,7.201
			c0.584,1.422,2.596,2.133,6.027,2.133c1.758,0,3.894-0.221,6.404-0.666c4.019-0.711,7.615-1.067,10.799-1.067
			c7.701,0,12.64,2.313,14.817,6.935c0.754,1.425,1.338,2.936,1.758,4.535c1.004,4.979-0.211,10.402-3.641,16.27
			c-4.104,7.736-10.846,14.184-20.219,19.338c-4.771,2.758-9.838,4.135-15.193,4.135c-4.856,0-9.837-1.109-14.943-3.333
			c1.257-4.802,3.56-11.87,6.908-21.206c3.348,1.957,6.655,2.934,9.918,2.934c1.424,0,2.931-0.311,4.521-0.934
			c2.763-0.531,5.314-1.42,7.659-2.666c3.181-1.601,4.603-3.287,4.271-5.066c-0.337-2.135-2.431-3.201-6.279-3.201
			c-2.511,0-6.152,0.445-10.925,1.335c-4.771,1.155-8.456,1.729-11.049,1.729c-3.436,0-6.111-0.664-8.037-1.998
			c-4.188-1.953-6.363-5.154-6.529-9.602c-0.669-8.623,3.768-18.715,13.312-30.273c9.795-11.822,19.126-18.004,28.002-18.537
			C457.376,330.992,462.902,336.504,465.246,347.973z"/>
	</g>
</g>
</svg>
