<?xml version="1.0" encoding="utf-8"?>
<!-- Generator: Adobe Illustrator 15.1.0, SVG Export Plug-In . SVG Version: 6.00 Build 0)  -->
<!DOCTYPE svg PUBLIC "-//W3C//DTD SVG 1.1//EN" "http://www.w3.org/Graphics/SVG/1.1/DTD/svg11.dtd">
<svg version="1.1" id="Layer_1" xmlns="http://www.w3.org/2000/svg" xmlns:xlink="http://www.w3.org/1999/xlink" x="0px" y="0px"
	 width="512px" height="512px" viewBox="0 0 512 512" enable-background="new 0 0 512 512" xml:space="preserve">
<g>
	<g>
		<g>
			<g>
				<path fill="#B76B5E" d="M415.07,350.398c0,14.392-4.6,25.908-13.797,34.547c-9.195,8.639-21.396,12.961-36.602,12.961
					l-0.578,14.734c-0.098,2.451,0.32,3.799-2.271,6.217c-1.721,1.606-3.955,2.232-6.225,2.232c-0.426,0-25.908,0-25.908,0
					c-5.922,0-8.01-3.874-8.174-9.242c-0.283-9.098-0.695-18.194-1.061-27.287c-0.268-6.7-0.521-13.4-0.779-20.101
					c-0.557-12.277-1.379-28.413-2.473-48.402c-0.174-3.165,0.6-6.146,2.639-8.799c2.449-3.188,5.818-4.272,9.471-4.558
					c6.199-0.482,13.525-0.725,21.982-0.725c18.6,0,33.496,3.725,44.697,11.175C408.711,321.615,415.07,334.029,415.07,350.398z
					 M383.525,363.168c0-7.906-5.764-13.758-15.139-13.758c-6.209,0-6.102,12.307-6.221,16.412
					c-0.086,3.035,1.191,10.868,5.082,12.069c4.326,1.34,11.6-2.731,13.982-6.204C382.896,369.259,383.525,366.078,383.525,363.168z
					"/>
			</g>
		</g>
		<g>
			<g>
				<path fill="#D69687" d="M415.07,345.596c0,14.394-4.6,25.908-13.797,34.547c-9.195,8.642-21.396,12.962-36.602,12.962
					l-0.578,14.733c-0.098,2.453,0.32,3.799-2.271,6.219c-1.721,1.605-3.955,2.231-6.225,2.231c-0.426,0-25.908,0-25.908,0
					c-5.922,0-8.01-3.875-8.174-9.243c-0.283-9.096-0.695-18.194-1.061-27.287c-0.268-6.698-0.521-13.399-0.779-20.1
					c-0.557-12.278-1.379-28.412-2.473-48.402c-0.174-3.166,0.6-6.145,2.639-8.799c2.449-3.188,5.818-4.273,9.471-4.557
					c6.199-0.482,13.525-0.727,21.982-0.727c18.6,0,33.496,3.726,44.697,11.176C408.711,316.813,415.07,329.229,415.07,345.596z
					 M383.525,358.365c0-7.904-5.764-13.757-15.139-13.757c-6.209,0-6.102,12.306-6.221,16.413
					c-0.086,3.034,1.191,10.867,5.082,12.069c4.326,1.338,11.6-2.733,13.982-6.206C382.896,364.458,383.525,361.277,383.525,358.365
					z"/>
			</g>
		</g>
		<g opacity="0.8">
			<path fill="#D69687" d="M317.371,314.332c0.336-1.995,1.127-3.889,2.471-5.639c2.449-3.188,5.818-4.273,9.471-4.558
				c6.199-0.483,13.525-0.724,21.982-0.724c18.6,0,33.496,3.725,44.697,11.172c11.895,7.916,18.227,19.289,18.998,34.116
				c0.047-1.021,0.08-2.052,0.08-3.104c0-16.367-6.359-28.783-19.078-37.246c-11.201-7.45-26.098-11.176-44.697-11.176
				c-8.457,0-15.783,0.244-21.982,0.727c-3.652,0.283-7.021,1.369-9.471,4.557c-2.039,2.654-2.813,5.633-2.639,8.799
				C317.26,312.293,317.316,313.314,317.371,314.332z"/>
		</g>
		<circle opacity="0.8" fill="#D69687" cx="344.015" cy="323.164" r="7.483"/>
		<circle opacity="0.8" fill="#D69687" cx="339.648" cy="401.738" r="7.482"/>
		<circle opacity="0.8" fill="#D69687" cx="392.654" cy="336.262" r="7.482"/>
		<circle opacity="0.8" fill="#D69687" cx="334.039" cy="347.486" r="4.988"/>
		<circle opacity="0.8" fill="#D69687" cx="351.498" cy="369.936" r="4.988"/>
		<circle opacity="0.8" fill="#D69687" cx="393.279" cy="374.924" r="4.988"/>
	</g>
	<g>
		<path fill="#3C3D37" d="M237.041,318.086c0.228,0.857,0.496,1.603,1.096,2.286c1.028,1.167,1.749,0.428,2.989,0.284
			c1.051-0.122,2.035-0.379,3.154-0.251c0.512,0.062,1.103,0.172,1.652,0.245c0.26,0.035,0.549-0.03,0.805-0.018
			c1.041,0.053,2.221,1.065,2.874,1.807c2.88,3.271,1.136,7.876-1.552,10.703c-1.856,1.953-4.327,3.896-6.994,4.572
			c-7.522,1.904-15.379,2.054-23.096,1.9c-7.091-0.143-14.917,0.496-21.561-1.836c-8.08-2.836-16.421-7.081-20.965-14.68
			c-5.526-9.247-2.999-21.248,4.825-28.361c4.162-3.782,10.515-6.604,16.14-7.216c2.523-0.276,3.561,0.637,5.841,1.202
			c4.924,1.218,9.184-0.238,14.17,1.87c2.718,1.149,5.332,2.442,7.345,4.646c5.706,6.24,7.695,13.913,12.03,20.829
			c0.429,0.683,1.037,1.217,1.238,1.981C237.034,318.063,237.039,318.074,237.041,318.086z"/>
		<path opacity="0.48" fill="#2F302B" d="M227.688,331.949c3.357,4.614,8.404,4.215,13.38,5.284
			c-0.545,1.203-2.84,1.126-3.949,1.321c-2.112,0.37-4.245,0.626-6.386,0.796c-4.243,0.341-8.525,0.351-12.766,0.265
			c-7.091-0.143-14.917,0.496-21.561-1.836c-8.08-2.836-16.421-7.081-20.965-14.68c-5.526-9.247-2.999-21.248,4.825-28.361
			c4.162-3.782,10.515-6.604,16.14-7.216c2.523-0.276,3.561,0.637,5.841,1.202c4.924,1.218,9.184-0.238,14.17,1.87
			c2.836,1.198,6.255,2.734,7.942,5.46c0.64,1.032,0.965,2.065,1.768,3.018c1.075,1.273,1.831,2.443,2.428,4.017
			c1.825,4.785,1.668,9.977,0.114,14.881c-0.763,2.406-1.905,4.466-2.076,7.028C226.438,327.352,226.233,329.949,227.688,331.949z"
			/>
		<path fill="#3C3D37" d="M245.139,301.763c0,9.593-5.965,16.8-14.539,16.8c-8.572,0-14.996-10.359-14.996-19.952
			c0-9.592,5.442-14.216,14.013-14.216S245.139,292.17,245.139,301.763z"/>
		<path opacity="0.5" fill="#3C3D37" d="M232.997,293.374c-0.524,0.65-0.862,1.405-1.518,1.971
			c-1.557,1.343-3.083,2.525-4.851,3.583c-2.692,1.616-5.735,3.012-8.916,3.095c-1.147,0.031-3.121,0.118-3.983-0.817
			c-0.857-0.927-0.361-2.971-0.067-4.035c1.013-3.666,3.222-7.44,6.24-9.798c2.125-1.657,4.741-2.712,7.429-2.879
			c2.133-0.137,4.069-0.611,6.105,0.301c1.079,0.481,1.708,1.455,1.705,2.679c-0.006,1.399-0.313,2.921-0.864,4.206
			c-0.296,0.69-0.687,1.014-1.153,1.544C233.079,293.271,233.039,293.322,232.997,293.374z"/>
		<path fill="#F4DBC2" d="M227.402,308.785c0,28.982-24.625,41.924-59.379,41.097c-28.975-0.688-53.422-15.305-48.532-43.314
			c8.132-46.562,39.758-54.692,68.737-54.692C210.403,251.875,227.402,279.802,227.402,308.785z"/>
		<path fill="#D1B096" d="M197.1,336.871c-28.986,0-61.065-13.381-56.172-41.391c3.391-19.428,10.875-32.162,20.549-40.408
			c-19.472,5.451-36.355,19.264-41.985,51.495c-4.89,28.01,21.238,44.718,51.564,44.42c17.625-0.174,37.544-6.812,46.847-16.284
			C211.563,336.191,204.539,336.871,197.1,336.871z"/>
		<path fill="#D1B096" d="M215.199,291.799c-4.884-0.989-10.252-0.782-14.347-0.088c-8.36,1.415-12.423,6.452-17.81,12.117
			c-4.398-4.376-7.845-8.855-12.998-12.521c-10.486-7.46-23.826-14.509-37.13-12.063c-1.941,0.358-3.003,1.79-4.926,2.499
			c0.887-2.071,1.812-4.228,3.044-6.084c3.041-4.591,6.688-9.018,11.036-12.435c4.289-3.367,9.667-4.821,14.74-6.635
			c10.071-3.604,20.773-4.715,31.422-4.715c9.321,0,17.576,5.125,23.599,11.938c8.416,9.531,12.763,20.651,14.58,33.153
			c0.038,0.271,0.473,1.215,0.192,1.397c-0.8,0.524-1.632-1.695-1.993-2.056C222.225,293.941,218.846,292.538,215.199,291.799z"/>
		<path fill="#3C3D37" d="M310.963,143.773c-10.807,9.429-27.904,10.668-36.465,4.36c-4.23-3.117-10.81-23.653-4.359-36.463
			c6.021-11.957,22.951-16.408,37.619-5.25C321.719,117.037,321.805,134.319,310.963,143.773z"/>
		<path opacity="0.4" fill="#3C3D37" d="M301.824,146.301c-9.021,6.616-20.498,7.801-24.816,3.691
			c-2.135-2.031-2.242-15.838,4.619-24.661c6.402-8.235,18.422-11.598,25.758-4.319
			C314.369,127.938,310.877,139.665,301.824,146.301z"/>
		<path fill="#231F20" d="M302.299,148.659c-9.027,6.618-20.498,7.802-24.818,3.693c-2.137-2.031-2.242-15.838,4.619-24.66
			c6.402-8.237,18.422-11.598,25.758-4.32C314.84,130.298,311.352,142.025,302.299,148.659z"/>
		<path opacity="0.48" fill="#2F302B" d="M299.959,154.271c-13.877,3.621-30.701,8.094-39.256,1.784
			c-4.23-3.116-1.487-27.561,4.961-40.37c1.516-3.007,3.533-7.492,7.047-7.69c6.967-0.39,13.232,6.502,17.375,10.199
			C299.064,126.207,316.473,149.963,299.959,154.271z"/>
		<path opacity="0.6" fill="#3C3D37" d="M307.57,112.489c1.969,1.547,8.104,7.298,9.494,9.086c-1.48-4.699-4.311-9.482-9.215-12.908
			c-17.016-11.891-28.631-2.673-28.631-2.673S293.766,101.676,307.57,112.489z"/>
		<path fill="#ECE6D8" d="M320.826,203.979c0,54.746-37.355,82.334-101.378,82.334c-64.028,0-116.897-31.099-116.897-85.844
			c0-54.744,50.938-109.559,114.963-109.559C281.539,90.91,320.826,149.233,320.826,203.979z"/>
		<path fill="#DBD1BD" d="M289.225,122.429c16.682,21.133,25.844,48.397,25.844,74.83c0,54.745-37.354,82.336-101.379,82.336
			c-39.654,0-75.023-11.934-96.208-34.021c20.117,26.378,58.464,40.739,101.967,40.739c64.023,0,101.378-27.588,101.378-82.334
			C320.826,174.646,309.543,144.294,289.225,122.429z"/>
		<path fill="#F8F3E3" d="M111.191,211.027c0-54.744,50.935-109.559,114.963-109.559c29.773,0,54.199,12.62,71.811,31.624
			c-17.84-24.751-45.445-42.183-80.452-42.183c-64.025,0-114.963,54.814-114.963,109.559c0,21.078,7.846,38.646,21.139,52.287
			C115.709,240.987,111.191,227.019,111.191,211.027z"/>
		
			<radialGradient id="SVGID_1_" cx="190.7529" cy="252.9414" r="31.8533" gradientTransform="matrix(0.9806 0.196 -0.1272 0.6364 4.8234 36.8618)" gradientUnits="userSpaceOnUse">
			<stop  offset="0" style="stop-color:#ECC9B0"/>
			<stop  offset="0.2976" style="stop-color:#ECD2BD"/>
			<stop  offset="1" style="stop-color:#ECE6D8"/>
		</radialGradient>
		<path fill="url(#SVGID_1_)" d="M193.587,241.985c-2.285,11.436-19.31,17.675-38.024,13.935
			c-18.714-3.739-32.033-16.042-29.746-27.478c2.283-11.437,19.308-17.677,38.022-13.937
			C182.554,218.245,195.873,230.547,193.587,241.985z"/>
		
			<radialGradient id="SVGID_2_" cx="239.0342" cy="179.2939" r="30.15" gradientTransform="matrix(0.9771 -0.2127 0.138 0.6341 10.7799 179.0176)" gradientUnits="userSpaceOnUse">
			<stop  offset="0" style="stop-color:#ECC9B0"/>
			<stop  offset="0.2976" style="stop-color:#ECD2BD"/>
			<stop  offset="1" style="stop-color:#ECE6D8"/>
		</radialGradient>
		<path fill="url(#SVGID_2_)" d="M301.047,234.909c2.348,10.784-10.057,22.645-27.707,26.486
			c-17.65,3.843-33.86-1.788-36.208-12.572c-2.351-10.787,10.056-22.646,27.705-26.487
			C282.486,218.492,298.699,224.122,301.047,234.909z"/>
		<path fill="#DBD1BD" d="M294.477,206.926c2.629,14.299-7.619,27.893-23.775,28.389c-4.27,0.131-9.412-0.152-13.443-1.647
			c-7.741-2.869-15.755-11.517-18.093-19.552c-3.518-12.094,0.898-28.371,11.205-35.839c8.715-6.312,17.818-2.354,25.052,4.076
			c7.496,6.657,15.223,11.393,18.332,21.619C294.055,204.95,294.297,205.938,294.477,206.926z"/>
		<path fill="#3C3D37" d="M291.064,208.558c2.34,12.714-6.773,24.803-21.141,25.243c-3.797,0.117-8.368-0.136-11.951-1.464
			c-6.887-2.552-14.012-10.241-16.092-17.388c-3.127-10.753,0.796-25.229,9.963-31.868c7.75-5.613,15.844-2.095,22.283,3.624
			c6.66,5.919,13.531,10.131,16.301,19.223C290.691,206.8,290.904,207.677,291.064,208.558z"/>
		<path fill="#3C3D37" d="M251.571,233.994c0,5.519-8.271,9.989-18.476,9.989c-10.206,0-18.478-4.471-18.478-9.989
			C214.618,228.479,251.571,228.479,251.571,233.994z"/>
		<path fill="#3C3D37" d="M250.455,234.891c0.11-0.321,0.169-0.652,0.169-0.986c0-3.946-34.917-3.946-34.917,0
			c0,0.437,0.101,0.863,0.283,1.276C217.934,231.817,246.951,231.723,250.455,234.891z"/>
		<path fill="#231F20" d="M208.57,201.288c0,8.696-7.048,15.745-15.747,15.745c-8.694,0-15.74-7.049-15.74-15.745
			c0-8.695,7.046-15.743,15.74-15.743C201.521,185.545,208.57,192.593,208.57,201.288z"/>
		<path fill="#D6AA76" d="M276.277,211.224c0,7.808-6.33,14.139-14.137,14.139c-7.812,0-14.14-6.331-14.14-14.139
			c0-7.81,6.329-14.139,14.14-14.139C269.947,197.085,276.277,203.414,276.277,211.224z"/>
		<g>
			<path fill="#DBD1BD" d="M214.437,207.623c-2.76,18.339-20.792,30.826-40.275,27.89c-14.06-2.115-29.043-13.206-29.34-28.409
				c-0.296-15.109,13.544-28.188,26.04-34.603c7.357-3.776,16.241-6.694,24.173-2.954
				C206.904,175.145,216.301,195.257,214.437,207.623z"/>
			<path fill="#3C3D37" d="M211.167,208.998c-2.424,16.092-18.246,27.047-35.34,24.471c-12.334-1.858-25.482-11.587-25.744-24.927
				c-0.26-13.26,11.883-24.734,22.849-30.362c6.455-3.313,14.25-5.875,21.21-2.593C204.558,180.499,212.802,198.148,211.167,208.998
				z"/>
			<circle fill="#D6AA76" cx="191.334" cy="207.781" r="14.876"/>
			<path fill="#140B0F" d="M202.926,210.012c-0.934,6.179-6.694,10.434-12.874,9.503c-6.181-0.932-10.432-6.694-9.502-12.873
				c0.929-6.179,6.694-10.434,12.873-9.503C199.6,198.069,203.857,203.833,202.926,210.012z"/>
			<circle fill="#FFFFFF" cx="186.714" cy="204.419" r="3.743"/>
			<circle fill="#FFFFFF" cx="188.638" cy="215.929" r="2.194"/>
		</g>
		<path fill="#593129" d="M242.104,254.26c0.579-0.149,3.78-1.228,4.2-1.669c0.29-0.317,0.574-0.461,0.689-1.037
			c-0.518,1.325-7.421,2.992-12.943,3.28c-5.464,0.283-5.926-0.976-3.335-3.565c1.956-1.956,2.184-3.368,2.264-3.425
			c-0.566,0.399-0.885,0.979-1.343,1.469c-0.557,0.59-1.244,1.095-1.917,1.542c-8.101,5.385-21.151,3.42-28.409-2.397
			c-1.89-1.513-3.397-3.231-3.947-5.633c-0.203-0.89-0.61-2.87-0.469-3.808c0.173-1.151,1.725-1.151,2.449-2.323
			c-1.702,0.54-3.714,1.344-6.67,2.681c2.103,0.789,3.471-2.255,3.305,1.177c-0.065,1.312-0.325,3.021-0.416,4.337
			c-0.203,3.051-0.226,6.251,0.492,9.238c0.664,2.758,2.021,5.7,4.46,7.311c7.843,5.178,18.226,0.68,25.011-4.117
			c0.56-0.395,1.309-0.735,1.968-0.919C232.374,255.049,235.776,255.868,242.104,254.26z"/>
		<path fill="#2F302B" d="M163.646,301.614c-5.812-1.779-11.949-2.343-17.828-0.945c-10.789,2.569-15.063,9.622-16.347,18.609
			c-1.148,8.04,0.687,17.536,7.119,23.034c6.576,5.628,13.894,7.447,22.165,8.499c8.726,1.11,18.611,1.632,26.39,0.343
			c11.68-1.929,17.867,0.292,26.274-2.881c3.172-1.194,5.277-4.347,3.966-7.559c-1.379-3.389,1.451-5.357,1.1-8.673
			c-0.179-1.687-1.113-2.656-2.487-3.558c-2.792-1.835-5.835-1.541-9.028-1.715c-4.029-0.221-7.75-0.989-11.201-3.23
			c-7.011-4.553-11.469-12.309-18.672-16.711C171.568,304.672,167.687,302.851,163.646,301.614z"/>
		<path fill="#B4917E" d="M212.542,345.488c1.339-0.755,1.77-2.427,1.199-3.498c-0.395-0.743-1.02-1.436-1.197-2.268
			c-0.226-1.071,0.289-1.98,0.815-2.871c0.653-1.105,0.834-2.671,0.441-3.9c-0.473-1.48-1.923-1.275-3.188-1.114
			c-2.861,0.363-5.719,1.161-8.141,2.771c-3.619,2.41-2.392,8.038,0.646,10.433c2.215,1.746,5.393,1.854,8.016,1.021
			C211.693,345.885,212.147,345.711,212.542,345.488z"/>
		<g opacity="0.47">
			<path fill="#B4917E" d="M202.573,335.318c2.422-1.61,5.279-2.407,8.141-2.771c1.263-0.16,2.718-0.366,3.189,1.115
				c0.038,0.112,0.063,0.234,0.089,0.355c-0.023-0.371-0.083-0.731-0.19-1.066c-0.473-1.48-1.923-1.275-3.188-1.114
				c-2.861,0.363-5.719,1.161-8.141,2.771c-1.97,1.313-2.496,3.577-2.082,5.757C200.208,338.416,200.816,336.488,202.573,335.318z"
				/>
		</g>
		<path fill="#B4917E" d="M246.923,331.841c-0.992,1.556-2.209,2.93-3.89,3.731c-0.558,0.266-1.254,0.499-1.875,0.509
			c-1.461,0.023-2.266-0.751-2.301-2.21c-0.02-0.717,0.198-1.022,0.614-1.561c0.509-0.662,0.65-1.396,0.45-2.214
			c-0.154-0.639-0.479-1.297-0.673-1.905c-0.23-0.712-0.226-1.325,0.26-1.904c0.574-0.686,1.14-0.989,1.907-1.417
			c0.435-0.244,0.946-0.451,1.428-0.602c1.687-0.532,3.841-0.488,5.25,0.714c1.104,0.946,0.659,2.536,0.289,3.749
			C248.049,329.819,247.536,330.884,246.923,331.841z"/>
		<path opacity="0.48" fill="#2F302B" d="M180.611,321.468c-0.951,0.058-1.455,0.491-2.429,0.842
			c-1.392,0.501-2.715,1.309-4.251,1.045c-1.77-0.3-2.884-0.976-4.73-0.631c-2,0.372-2.946-0.24-4.591-1.102
			c-1.539-0.807-3.208-1.525-4.156-3.073c-0.971-1.588-1.647-3.544-2.259-5.294c-0.617-1.754-1.844-3.099-3.484-3.947
			c-1.398-0.724-2.979-1.104-4.525-1.374c-1.51-0.263-2.976,0.059-4.473-0.286c-1.609-0.372-6.65-1.44-5.93-3.97
			c0.363-1.295,2.329-1.499,3.4-1.835c1.263-0.392,2.551-0.603,3.818-0.974c1.835-0.536,3.503-1.202,5.434-1.348
			c1.86-0.14,3.727,0.008,5.589,0.01c3.453,0.006,6.722,0.617,10.145,0.952c2.99,0.285,5.784,1.08,8.738,1.649
			c1.641,0.319,3.432,0.463,4.982,1.136c0.758,0.329,1.641,0.883,2.205,1.495c0.184,0.199,0.312,0.444,0.49,0.648
			c0.259,0.296,0.598,0.524,0.754,0.903c0.082,0.197,0.093,0.43,0.188,0.635c0.089,0.205,0.171,0.335,0.182,0.569
			c0.042,0.962-0.007,1.866-0.285,2.789c-0.234,0.776-0.431,1.543-0.646,2.325c-0.251,0.913-0.163,1.695,0.127,2.588
			c0.104,0.315,0.194,0.659,0.391,0.933c0.173,0.236,0.558,0.327,0.648,0.604c0.104,0.313-0.171,0.751-0.262,1.038
			c-0.131,0.434-0.154,0.894-0.295,1.327c-0.201,0.616-0.542,1.657-1.042,2.085c-0.864,0.733-2.228,0.331-3.24,0.262
			C180.925,321.458,180.763,321.458,180.611,321.468z"/>
		<g>
			<path fill="#BFC2C4" d="M168.612,320.339c0,0.937-0.716,1.69-1.599,1.69c-0.878,0-1.59-0.754-1.59-1.69
				c0-0.933,0.711-1.689,1.59-1.689C167.896,318.649,168.612,319.406,168.612,320.339z"/>
			<ellipse fill="#BFC2C4" cx="175.112" cy="321.017" rx="1.594" ry="1.691"/>
			<ellipse fill="#BFC2C4" cx="182.485" cy="318.695" rx="1.595" ry="1.69"/>
		</g>
		<path fill="#3C3D37" d="M174.122,280.614c8.181,6.984,14.545,16.927,13.656,28.08c-0.473,5.974-2.154,9.161-7.699,11.016
			c-5.127,1.713-11.929,1.768-16.569-1.39c-0.889-0.607-1.687-1.366-2.144-2.357c-0.821-1.797-0.16-4.082-0.95-5.9
			c-0.929-2.145-3.485-2.713-5.514-3.343c-4.878-1.521-10.246-2.396-14.552-5.29c-7.927-5.336-11.688-17.13-4.458-24.57
			c1.772-1.825,4.443-3.948,6.849-4.841c3.231-1.2,6.996-2.276,10.496-1.705C161.555,271.674,168.792,276.063,174.122,280.614z"/>
		<g opacity="0.45">
			<path fill="#3C3D37" d="M173.891,282.043c-0.673-0.552-1.397-1.1-2.167-1.644c7.911,6.555,14.02,15.814,13.158,26.195
				c-0.466,5.618-2.114,8.611-7.556,10.355c-4.705,1.508-10.844,1.648-15.344-0.769c0.424,0.505,0.935,0.94,1.5,1.307
				c4.55,2.969,11.224,2.917,16.251,1.308c5.444-1.743,7.089-4.736,7.554-10.355C188.16,297.952,181.918,288.608,173.891,282.043z"
				/>
		</g>
		<path opacity="0.45" fill="#3C3D37" d="M135.033,293.66c-1.649-4.758-0.972-9.854,2.79-13.568
			c1.685-1.666,4.229-3.605,6.521-4.423c3.079-1.096,6.671-2.109,9.999-1.556c5.408,0.897,13.401,4.021,18.959,7.376
			c-0.076-0.062-0.146-0.122-0.22-0.184c-5.079-4.156-12.556-8.822-19.896-9.409c-3.362-0.269-6.918,0.459-9.998,1.555
			c-2.291,0.816-4.835,2.758-6.522,4.423c-4.889,4.829-4.499,11.662-1.158,16.967C135.335,294.454,135.173,294.063,135.033,293.66z"
			/>
		<path fill="#E6E7E8" d="M213.773,329.649c-0.04,0.635-0.773,1.104-1.641,1.049c-0.864-0.056-1.533-0.613-1.493-1.25
			c0.038-0.633,0.773-1.102,1.641-1.046C213.144,328.457,213.814,329.015,213.773,329.649z"/>
		<path fill="#E6E7E8" d="M203.24,331.796c0.248,0.589-0.202,1.334-1,1.667c-0.803,0.336-1.649,0.131-1.894-0.453
			c-0.248-0.587,0.203-1.334,1.005-1.667C202.148,331.006,202.995,331.211,203.24,331.796z"/>
		
			<ellipse transform="matrix(0.9782 -0.2077 0.2077 0.9782 -64.0687 50.2324)" fill="#E6E7E8" cx="207.214" cy="330.264" rx="1.571" ry="1.149"/>
		<path fill="#C39C95" d="M213.826,260.207c1.478-0.513,3.846-1.869,2.256-3.646c-1.466-1.642-3.814,0.122-5.501,0.24
			c-2.287,0.159-4.048-2.036-6.306-2.189c-1.109-0.075-2.448-0.359-3.465,0.238c-1.138,0.666-1.35,2.034-0.612,3.084
			c1.704,2.429,5.777,3.091,8.487,3.042C210.483,260.945,212.109,260.806,213.826,260.207z"/>
		<circle fill="#140B0F" cx="261.068" cy="211.98" r="11.312"/>
		<circle fill="#FFFFFF" cx="256.046" cy="208.073" r="3.744"/>
		<path fill="#FFFFFF" d="M260.139,219.909c-0.182,1.197-1.301,2.023-2.498,1.844c-1.195-0.182-2.021-1.299-1.841-2.497
			c0.179-1.198,1.298-2.021,2.498-1.843C259.494,217.594,260.318,218.712,260.139,219.909z"/>
		<path fill="#DBD1BD" d="M151.982,115.922c5.079,8.695,4.866,22.3-5.341,30.394c-3.14,2.491-7.767,5.315-11.737,6.406
			c-6.722,1.844-15.563,0.536-21.381-4.858c-10.668-9.895-11.972-28.066,1.67-38.848C128.05,98.855,144.964,103.905,151.982,115.922
			z"/>
		<path fill="#3C3D37" d="M153.021,107.337c5.265,9.421,3.907,24.819-8.751,34.802c-3.896,3.07-9.566,6.641-14.323,8.195
			c-8.05,2.632-18.343,1.872-24.746-3.755c-11.741-10.319-11.796-30.762,5.121-44.062C126.266,89.985,145.748,94.32,153.021,107.337
			z"/>
		<path opacity="0.6" fill="#3C3D37" d="M115.5,108.334c21.059-14.917,35.038,0.936,34.736,0.395
			c-6.54-11.701-24.053-15.6-38.387-4.332c-15.208,11.956-15.16,30.333-4.604,39.609C107.46,144.196,92.19,124.844,115.5,108.334z"
			/>
		<path opacity="0.6" fill="#3C3D37" d="M146.529,123.662c1.879,3.863-0.006,10.963-7.091,16.489
			c-2.182,1.702-5.284,3.768-7.773,4.849c-4.215,1.827-9.279,2.291-12.022,0.238c-5.032-3.761-3.455-13.04,6.012-20.407
			C134.575,117.887,143.932,118.324,146.529,123.662z"/>
		<path fill="#231F20" d="M145.984,125.959c1.715,3.525-0.004,10.001-6.47,15.044c-1.989,1.552-4.819,3.436-7.091,4.422
			c-3.845,1.668-8.464,2.09-10.968,0.22c-4.591-3.434-3.151-11.898,5.484-18.621C135.078,120.689,143.615,121.089,145.984,125.959z"
			/>
		<path fill="#D1B096" d="M236.604,316.655c0.327-0.137,0.654-0.29,0.982-0.462c1.649-0.863,2.316-2.737,3.068-4.367
			c0.509-1.102,0.889-2.294,1.246-3.455c0.505-1.642,0.944-2.592,0.571-4.32c-0.292-1.349-0.676-3.449-1.459-4.593
			c-0.606-0.885-1.865-1.667-2.718-2.315c-2.297-1.748-5.072-3.353-8.022-3.503c-2.688-0.134-6.122,0.515-8.392,1.981
			c-2.973,1.924-4.116,5.625-3.843,9.021c0.146,1.843,0.498,3.788,1.125,5.531c1.123,3.118,2.929,5.629,5.913,7.123
			c1.89,0.945,3.54,0.179,5.491,0.165c1.098-0.006,2.295,0.042,3.389-0.097C234.866,317.25,235.756,317.006,236.604,316.655z"/>
		<path fill="#3C3D37" d="M237.501,316.245c2.678-1.961,4.156-5.637,5.108-8.731c0.505-1.64,0.946-2.59,0.571-4.318
			c-0.292-1.349-0.674-3.449-1.459-4.595c-0.606-0.883-1.865-1.665-2.718-2.313c-2.297-1.748-5.072-3.354-8.022-3.503
			c-2.684-0.134-6.12,0.513-8.392,1.979c-7.444,4.813-2.923,19.061,3.404,22.637C229.449,319.354,234.321,318.57,237.501,316.245z"
			/>
		<path opacity="0.48" fill="#2F302B" d="M237.672,315.374c-3.25,2.231-8.597,3.07-12.056,1.117
			c-1.903-1.076-3.653-3.136-4.976-5.617c1.364,2.965,3.345,5.478,5.522,6.707c3.455,1.953,9.188,0.724,12.371-1.603
			c2.68-1.961,4.692-5.053,5.645-8.146C244.683,306.193,243.574,311.323,237.672,315.374z"/>
		<ellipse fill="#BFC2C4" cx="222.417" cy="302.539" rx="1.267" ry="1.671"/>
		<path fill="#BFC2C4" d="M225.612,309.492c0.209,0.901-0.171,1.759-0.853,1.916c-0.682,0.162-1.402-0.439-1.614-1.338
			c-0.208-0.899,0.171-1.757,0.854-1.914C224.681,307.996,225.403,308.596,225.612,309.492z"/>
		
			<ellipse transform="matrix(0.8558 -0.5173 0.5173 0.8558 -130.1406 163.588)" fill="#BFC2C4" cx="228.364" cy="315.232" rx="1.266" ry="1.671"/>
		<path opacity="0.45" fill="#3C3D37" d="M200.427,330.948c-0.545,0.358-1.193,0.772-1.837,1.569c0.511-2.729,3.643-4.281,5.979-4.8
			c2.843-0.633,4.494-0.351,6.705-0.035C211.187,327.683,204.989,327.929,200.427,330.948z"/>
		<path fill="#D69687" d="M213.034,343.172c0.188,1.078-1.161,2.214-3.011,2.537c-1.856,0.327-3.51-0.282-3.697-1.36
			c-0.188-1.076,1.161-2.211,3.013-2.536C211.193,341.487,212.847,342.098,213.034,343.172z"/>
		<path fill="#D69687" d="M213.068,334.815c0.2,0.676,0.08,1.479-0.361,1.979c-0.416,0.474-1.143,1.004-1.759,1.187
			c-0.688,0.203-1.506,0.127-2.215,0.154c-0.802,0.029-1.592,0.298-2.293,0.682c-0.634,0.345-1.542,0.567-2.255,0.65
			c-1.425,0.168-2.774-0.686-2.177-2.172c0.695-1.727,3.484-2.517,5.146-2.979c0.889-0.246,1.782-0.48,2.701-0.571
			c0.648-0.067,1.611-0.29,2.234-0.063C212.591,333.869,212.92,334.309,213.068,334.815z"/>
		<path opacity="0.45" fill="#3C3D37" d="M238.024,299.624c0,0-3.172-8.867-12.292-5.572c-0.635,0.227-1.296,0.743-1.702,1.161
			C232.999,292.824,238.024,299.624,238.024,299.624z"/>
		
			<ellipse transform="matrix(0.9579 -0.287 0.287 0.9579 -82.8408 82.2334)" fill="#E6E7E8" cx="239.103" cy="323.712" rx="1.392" ry="0.947"/>
		
			<ellipse transform="matrix(0.98 -0.1991 0.1991 0.98 -59.2197 54.982)" fill="#E6E7E8" cx="243.845" cy="322.023" rx="1.391" ry="0.95"/>
		<path fill="#E6E7E8" d="M249.428,323.171c-0.129,0.507-0.836,0.765-1.582,0.573c-0.743-0.188-1.242-0.753-1.115-1.261
			c0.131-0.507,0.838-0.765,1.586-0.576C249.059,322.097,249.559,322.662,249.428,323.171z"/>
		<path fill="#D69687" d="M243.277,334.082c0,0.836-0.822,1.518-1.833,1.518c-1.016,0-1.835-0.682-1.835-1.518
			c0-0.838,0.819-1.518,1.835-1.518C242.455,332.564,243.277,333.244,243.277,334.082z"/>
		<path fill="#D69687" d="M244.212,325.339c-0.433,0.014-0.825,0.058-1.127,0.112c-1.227,0.23-3.759,1.214-3.164,2.882
			c0.258,0.72,1.007,0.904,1.692,0.983c1.524,0.178,2.356-1.22,3.879-0.893c0.809,0.171,1.561,0.554,2.317-0.058
			c0.555-0.453,0.69-1.299,0.285-1.896C247.454,325.524,245.614,325.29,244.212,325.339z"/>
	</g>
</g>
</svg>
