<?xml version="1.0" encoding="utf-8"?>
<!-- Generator: Adobe Illustrator 15.1.0, SVG Export Plug-In . SVG Version: 6.00 Build 0)  -->
<!DOCTYPE svg PUBLIC "-//W3C//DTD SVG 1.1//EN" "http://www.w3.org/Graphics/SVG/1.1/DTD/svg11.dtd">
<svg version="1.1" id="Layer_1" xmlns="http://www.w3.org/2000/svg" xmlns:xlink="http://www.w3.org/1999/xlink" x="0px" y="0px"
	 width="512px" height="512px" viewBox="0 0 512 512" enable-background="new 0 0 512 512" xml:space="preserve">
<g>
	<g>
		<path fill="#917B78" d="M216.485,302.273c4.065-7.092,21.868-8.998,19.126-19.963c-1.313-5.261-5.919-4.929-8.804-4.763
			c-2.707,0.152-7.702,2.611-10.244,7.388c-1.848,3.471-4.031,7.639-5.722,11.116c-1.802,3.703-3.358,7.65-4.12,11.712
			c-0.746,3.981,2.706,5.551,5.483,7.411c3.041,2.035,6.938,5.101,8.381,8.548c2.33,5.573-15.239,6.483-17.638,7.028
			c-1.941,0.438-3.681,1.056-3.346,3.33c2.493,0.989,4.935,0.469,7.549,0.295c3.368-0.228,6.688-0.842,10.078-1.033
			c6.696-0.385,13.724-0.896,20.544-0.141c4.141,0.459,16.529,0.758,20.604,1.668c3.532,0.784,8.558,2.022,12.104,2.771
			c1.736,0.367,3.584,1.16,5.429,0.976c0.918-0.095,1.795-0.72,1.873-1.906c0.067-1.024-0.794-2.224-1.378-2.707
			c-4.008-3.321-20.004-5.987-29.16-7.709c-8.893-1.674-13.396,0.608-21.355-8.972c-2.787-3.354-8.28-5.271-9.776-9.614
			C215.374,305.564,215.611,303.799,216.485,302.273z"/>
		<path fill="#E8D2B8" d="M131.35,287.002c-2.18-0.676-4.373-1.309-6.584-1.887c-8.928-2.338-16.957-2.121-26.105-1.611
			c-8.615,0.48-15.155-1.598-17.197-10.849c-2.146-9.724,6.111-20.035,10.523-28.068c9.482-17.248,21.338-33,35.041-47.114
			c29.945-30.842,65.895-48.864,108.745-51.888c8.086-0.572,15.939-6.286,21.151-12.17c6.97-7.874,9.35-18.727,16.393-26.804
			c14.152-16.232,31.772-20.426,52.516-16.964c16.521,2.753,30.895,11.881,35.305,28.95c2.146,8.304-1.808,19.846-6.394,26.433
			c-5.213,7.484-13.321,12.415-15.858,20.183c-7.689,23.546-1.031,66.304-22.844,94.087c-15.296,19.478-36.446,31.597-59.541,39.505
			c-21.396,7.324-45.069,8.002-67.387,5.541C168.829,302.107,150.595,292.959,131.35,287.002z"/>
		
			<radialGradient id="SVGID_1_" cx="234.0286" cy="13.1333" r="98.123" gradientTransform="matrix(0.9478 -0.3188 -0.2601 -0.7733 28.6191 376.9648)" gradientUnits="userSpaceOnUse">
			<stop  offset="0" style="stop-color:#F3E7DA"/>
			<stop  offset="0.4837" style="stop-color:#EDDCC7"/>
			<stop  offset="1" style="stop-color:#E8D2B8"/>
		</radialGradient>
		<path fill="url(#SVGID_1_)" d="M324.886,235.446c-11.133-32.034-59.559-44.312-108.164-27.421
			c-46.636,16.204-76.48,53.372-68.998,84.65c13.492,4.964,26.919,10.074,41.39,11.671c22.316,2.461,45.99,1.782,67.387-5.541
			c23.095-7.908,44.245-20.027,59.541-39.506c4.504-5.738,7.778-12.121,10.231-18.834
			C325.919,238.774,325.457,237.101,324.886,235.446z"/>
		
			<radialGradient id="SVGID_2_" cx="372.1399" cy="222.1563" r="59.1621" gradientTransform="matrix(1 0 0 -1.211 -41.6001 423.5375)" gradientUnits="userSpaceOnUse">
			<stop  offset="0.0358" style="stop-color:#FFD4BF"/>
			<stop  offset="1" style="stop-color:#E8D2B8"/>
		</radialGradient>
		<path fill="url(#SVGID_2_)" d="M325.83,89.647c-6.147-1.028-12.02-1.374-17.608-0.94c-23.632,9.479-40.64,35.99-40.64,67.213
			c0,39.178,26.781,70.937,59.818,70.937c0.926,0,1.85-0.029,2.769-0.078c4.803-22.352,3.665-46.102,8.715-61.565
			c2.537-7.768,10.646-12.698,15.858-20.183c4.586-6.587,8.539-18.129,6.394-26.433C356.726,101.528,342.353,92.4,325.83,89.647z"/>
		<path fill="#E8D2B8" d="M325.83,89.647c-20.741-3.462-38.361,0.731-52.515,16.964c-2.221,2.548-3.979,5.373-5.561,8.293
			c5.666,27.031,30.218,47.366,59.646,47.366c4.707,0,9.281-0.537,13.682-1.521c3.554-5.429,9.519-9.77,13.66-15.719
			c4.586-6.587,8.539-18.129,6.394-26.433C356.726,101.528,342.353,92.4,325.83,89.647z"/>
		<path fill="#FCF0E3" d="M341.147,160.584c-4.396,1.003-8.971,1.562-13.678,1.576c-29.429,0.122-54.063-20.117-59.837-47.124
			c0.354-0.667,0.727-1.323,1.104-1.976c-3.272,5.64-5.626,11.801-9.253,17.132c7.938,27.145,33.054,46.935,62.75,46.813
			c4.945-0.02,9.756-0.608,14.381-1.673c0.601-3.704,1.347-7.162,2.349-10.276c0.52-1.607,1.284-3.09,2.205-4.503
			C341.16,160.564,341.153,160.573,341.147,160.584z"/>
		<path fill="#66402E" d="M97.28,257.292c9.485-17.246,21.338-33.002,35.039-47.113c29.945-30.843,65.895-48.864,108.744-51.888
			c8.092-0.572,15.944-6.287,21.152-12.171c6.974-7.873,8.646-20.861,14.417-29.896c14.519-22.735,36.435-23.832,52.868-21.094
			c12.438,2.073,27.668,15.342,30.407,28.218c-0.084-0.502,2.043-2.533,1.92-3.013c-4.411-17.071-19.616-29.857-35.889-31.504
			c-20.922-2.122-38.472,1.548-52.624,17.78c-7.043,8.077-9.423,18.93-16.393,26.804c-5.212,5.884-13.065,11.598-21.151,12.17
			c-42.852,3.023-78.8,21.046-108.745,51.888c-13.704,14.114-25.559,29.866-35.041,47.114c-4.413,8.033-12.669,18.347-10.523,28.067
			c0.884,4.002,2.611,6.658,4.98,8.35C86.979,272.63,93.521,264.136,97.28,257.292z"/>
		<path fill="#70432F" d="M343.031,136.71c-3.471,1.563-6.68,3.512-10.358,4.595c1.086,1.058,3.852,1.866,5.287,2.325
			c2.321,0.739,5.293,0.772,7.692,0.468c3.816-0.484,8.107-2.001,11.68-3.615c3.427-1.55,6.171-4.146,9.402-5.831
			c1.357-0.707,3.351-1.518,4.818-1.883c1.375-0.342,5.69-1.105,6.733-2.154c-1.545-0.537-4.637-0.709-6.211-0.984
			c-1.735-0.304-4.325-0.188-6.075,0.017c-3.931,0.459-7.982,1.455-11.773,2.723C350.371,133.66,346.716,135.052,343.031,136.71z"/>
		<path fill="#441102" d="M359.548,133.976c-9.843,2.704-18.16,11.191-28.783,7.1c3.373,0.265,15.307-11.646,17.678-13.66
			c5.107-4.338,11.713-9.342,19.074-7.174c5.104,1.503,14.1,5.011,18.795,11.635C387.464,133.499,370.688,130.916,359.548,133.976z"
			/>
		<path fill="#78504B" d="M202.2,308.504c0.028-0.021,0.06-0.039,0.088-0.059c1.914-1.193,3.608-2.422,5.361-3.832
			c3.193-2.576,6.462-5.09,8.582-8.689c3.895-6.607-1.26-13.08-8.523-11.982c-8.604,1.298-8.104,11.609-11.905,17.336
			c-1.076,1.617-2.288,3.138-3.433,4.699c-1.211,1.648-1.616,2.857-1.904,4.89c-0.571,4.014,2.945,5.43,5.802,7.164
			c3.127,1.897,7.159,4.79,8.751,8.168c2.575,5.469-14.937,7.147-17.311,7.799c-1.92,0.524-3.631,1.217-3.195,3.474
			c2.534,0.885,4.95,0.254,7.553-0.035c3.356-0.375,23.683-2.533,30.54-2.523c10.711,0.012,29.298,2.404,32.877,2.994
			c1.748,0.287,3.631,1,5.461,0.734c0.912-0.138,1.763-0.8,1.79-1.988c0.022-1.029-0.89-2.187-1.495-2.646
			c-4.152-3.141-20.246-5.098-29.472-6.416c-8.958-1.276-13.357,1.199-21.73-8.02c-1.895-2.082-4.503-3.337-6.709-5.027
			c-1.033-0.787-2.445-1.787-2.933-3.047C199.84,310.057,201.108,309.186,202.2,308.504z"/>
		<path opacity="0.4" fill="#78504B" enable-background="new    " d="M261.382,337.098c-1.83,0.269-3.713-0.443-5.464-0.729
			c-3.577-0.595-22.16-2.982-32.872-2.992c-6.859-0.01-27.187,2.146-30.54,2.521c-2.604,0.293-5.021,0.92-7.555,0.037
			c-0.11-0.037-0.138-0.203-0.124-0.416c-0.338,0.48-0.479,1.107-0.314,1.951c2.534,0.885,4.95,0.254,7.553-0.035
			c3.356-0.375,23.683-2.533,30.54-2.522c10.711,0.012,29.298,2.403,32.877,2.993c1.748,0.287,3.631,1,5.461,0.734
			c0.912-0.137,1.763-0.799,1.79-1.988c0.002-0.104-0.011-0.209-0.027-0.313C262.396,336.725,261.94,337.018,261.382,337.098z"/>
		<path fill="#BF9182" d="M340.638,120.982c0,10.528-8.535,19.062-19.06,19.062c-10.53,0-19.063-8.533-19.063-19.062
			c0-10.526,8.533-19.062,19.063-19.062C332.103,101.921,340.638,110.456,340.638,120.982z"/>
		
			<radialGradient id="SVGID_3_" cx="363.176" cy="227.0278" r="16.9392" gradientTransform="matrix(1 0 0 -1 -41.6001 348.0098)" gradientUnits="userSpaceOnUse">
			<stop  offset="0" style="stop-color:#D0D2D3"/>
			<stop  offset="0.3852" style="stop-color:#D3D5D6"/>
			<stop  offset="0.6842" style="stop-color:#DDDEDF"/>
			<stop  offset="0.9533" style="stop-color:#EDEEEF"/>
			<stop  offset="1" style="stop-color:#F1F1F2"/>
		</radialGradient>
		<path fill="url(#SVGID_3_)" d="M338.515,120.982c0,9.356-7.582,16.939-16.937,16.939c-9.358,0-16.942-7.583-16.942-16.939
			c0-9.354,7.584-16.939,16.942-16.939C330.933,104.043,338.515,111.628,338.515,120.982z"/>
		<path fill="#2D0C02" d="M331.677,120.07c0,6.724-5.56,12.176-12.41,12.176c-6.855,0-12.414-5.452-12.414-12.176
			c0-6.726,5.559-12.177,12.414-12.177C326.117,107.894,331.677,113.345,331.677,120.07z"/>
		<path fill="#66402E" d="M90.67,242.688c-1.926,2.592-3.623,5.229-5.076,7.361c-3.264,4.787-6.153,9.816-9.1,14.801
			c-4.655,7.871-13.102,24.942,2.621,26.146c6.938,0.529,13.849-2.619,20.004-5.432c3.073-1.408,6.014-3.138,8.93-4.84
			c8.319-4.853,16.517-10.117,24.063-16.113c3.265-2.592,6.58-5.315,9.24-8.546c2.699-3.289,6.622-8.555,8-12.482
			c-8.496-1.035-17.251,0.877-25.206-1.746c-6.602-2.172-14.447-11.658-21.89-9.221C97.812,234.073,93.918,238.315,90.67,242.688z"
			/>
		<path fill="#8F5B43" d="M107.159,242.376c-1.179-2.625-1.646-5.482-1.767-8.34c-0.115-2.689,0.786-6.07,0.172-8.604
			c-1.993,0.533-20.837,25.783-23.784,30.77c-4.656,7.868-13.101,24.94,2.619,26.144c6.94,0.531,13.85-2.617,20.004-5.434
			c6.343-2.898,32.421-18.805,32.169-22.317c-0.25-3.547-11.795,1.424-14.281,0.291C116.27,252.144,109.987,248.702,107.159,242.376
			z"/>
		<path fill="#66402E" d="M117.27,234.173c-0.826-2.756-0.923-5.652-0.674-8.5c0.231-2.678,1.563-5.916,1.281-8.506
			c-2.048,0.273-3.478,2.309-5.25,3.248c-4.355,2.318-7.949,6.85-11.374,10.691c-3.853,4.33-7.364,8.945-10.929,13.508
			c-5.632,7.205-16.204,23.045-0.768,26.264c6.812,1.422,14.069-0.812,20.535-2.81c6.661-2.063,13.306-4.071,20.051-5.86
			c2.413-0.644,10.614-1.813,10.816-5.332c0.205-3.549-7.97-6.906-10.293-8.35C125.05,245.03,119.262,240.808,117.27,234.173z"/>
		<path fill="#D3B492" d="M284.582,171.94c5.802,8.489,6.751,20.346,4.325,29.795c-2.395,9.33-10.227,19.117-16.34,24.988
			c-21.896,21.029-51.679,27.652-80.831,32.602c-15.437,2.618-31.057,3.151-46.681,2.547c-12.835-0.498-29.802-0.229-41.018-7.484
			c-24.771-16.016,26.243-63.676,37.535-72.416c26.787-20.736,66.269-38.886,101.2-34.539
			C258.869,149.437,275.154,158.146,284.582,171.94z"/>
		<path fill="#C6A585" d="M284.582,171.94c-0.117-0.172-0.248-0.332-0.365-0.502c1.078,6.388,0.766,13.063-0.664,18.904
			c-2.514,10.274-10.732,21.051-17.145,27.512c-22.981,23.156-54.234,30.447-84.829,35.896c-16.199,2.883-32.591,3.473-48.986,2.807
			c-8.813-0.358-19.481-0.358-29.101-2.551c0.183,0.125,0.354,0.258,0.547,0.381c11.216,7.253,28.183,6.986,41.018,7.484
			c15.624,0.605,31.244,0.072,46.681-2.547c29.152-4.949,58.936-11.572,80.831-32.602c6.113-5.871,13.945-15.658,16.34-24.988
			C291.333,192.286,290.384,180.43,284.582,171.94z"/>
		<path fill="#C6A585" d="M116.082,253.313c-14.104-11.586-3.629-36.197,10.087-57.293c-17.78,17.955-40.267,46.641-22.13,58.367
			c9.441,6.105,22.949,6.88,34.646,7.271C130.505,260.648,122.385,258.489,116.082,253.313z"/>
		<path opacity="0.22" fill="#FCCCA4" enable-background="new    " d="M147.926,192.56c26.787-20.736,66.094-37.122,101.202-34.539
			c27.669,2.035,36.868,15.986,35.454,13.92c-9.429-13.795-25.713-22.504-41.808-24.508c-34.933-4.347-74.413,13.803-101.2,34.539
			c-11.246,8.705-61.871,55.998-37.83,72.211C102.09,233.63,138.589,199.788,147.926,192.56z"/>
		<g>
			<circle fill="#E5BFA9" cx="289.298" cy="260.009" r="6.052"/>
			<circle fill="#E5BFA9" cx="252.387" cy="283.895" r="6.053"/>
			<circle fill="#E5BFA9" cx="311.013" cy="232.31" r="6.053"/>
			<circle fill="#E5BFA9" cx="301.554" cy="247.149" r="3.82"/>
			<circle fill="#E5BFA9" cx="323.584" cy="200.542" r="2.864"/>
			<path fill="#E5BFA9" d="M275.309,274.343c0,2.11-1.711,3.821-3.82,3.821c-2.11,0-3.817-1.711-3.817-3.821
				c0-2.106,1.707-3.815,3.817-3.815C273.598,270.525,275.309,272.234,275.309,274.343z"/>
			<circle fill="#E5BFA9" cx="319.24" cy="216.171" r="3.82"/>
			<path fill="#E5BFA9" d="M234.5,290.842c0,2.107-1.709,3.818-3.819,3.818c-2.111,0-3.82-1.711-3.82-3.818
				c0-2.113,1.709-3.822,3.82-3.822C232.791,287.02,234.5,288.729,234.5,290.842z"/>
			<circle fill="#E5BFA9" cx="162.088" cy="287.367" r="3.82"/>
			<path fill="#E5BFA9" d="M190.219,289.971c0,2.111-1.709,3.822-3.82,3.822c-2.107,0-3.816-1.711-3.816-3.822
				c0-2.104,1.709-3.818,3.816-3.818C188.51,286.152,190.219,287.865,190.219,289.971z"/>
		</g>
		<g>
			
				<radialGradient id="SVGID_4_" cx="306.4758" cy="143.5498" r="6.04" gradientTransform="matrix(1 0 0 -1 -41.6001 348.0098)" gradientUnits="userSpaceOnUse">
				<stop  offset="0" style="stop-color:#DFC9AE"/>
				<stop  offset="1" style="stop-color:#D3B492"/>
			</radialGradient>
			<circle fill="url(#SVGID_4_)" cx="264.876" cy="204.46" r="6.04"/>
			
				<radialGradient id="SVGID_5_" cx="286.5813" cy="127.8882" r="7.7314" gradientTransform="matrix(1 0 0 -1 -41.6001 348.0098)" gradientUnits="userSpaceOnUse">
				<stop  offset="0" style="stop-color:#DFC9AE"/>
				<stop  offset="1" style="stop-color:#D3B492"/>
			</radialGradient>
			<path fill="url(#SVGID_5_)" d="M252.712,220.124c0,4.268-3.463,7.729-7.729,7.729c-4.271,0-7.733-3.461-7.733-7.729
				c0-4.271,3.464-7.734,7.733-7.734C249.249,212.39,252.712,215.853,252.712,220.124z"/>
			
				<radialGradient id="SVGID_6_" cx="185.8411" cy="100.7979" r="5.1919" gradientTransform="matrix(1 0 0 -1 -41.6001 348.0098)" gradientUnits="userSpaceOnUse">
				<stop  offset="0" style="stop-color:#DFC9AE"/>
				<stop  offset="1" style="stop-color:#D3B492"/>
			</radialGradient>
			<circle fill="url(#SVGID_6_)" cx="144.241" cy="247.212" r="5.192"/>
			
				<radialGradient id="SVGID_7_" cx="237.9045" cy="108.8408" r="7.7324" gradientTransform="matrix(1 0 0 -1 -41.6001 348.0098)" gradientUnits="userSpaceOnUse">
				<stop  offset="0" style="stop-color:#DFC9AE"/>
				<stop  offset="1" style="stop-color:#D3B492"/>
			</radialGradient>
			<path fill="url(#SVGID_7_)" d="M204.037,239.167c0,4.271-3.465,7.734-7.734,7.734c-4.268,0-7.731-3.463-7.731-7.734
				c0-4.268,3.465-7.73,7.731-7.73C200.573,231.437,204.037,234.899,204.037,239.167z"/>
			
				<radialGradient id="SVGID_8_" cx="263.3" cy="116.8838" r="8.1536" gradientTransform="matrix(1 0 0 -1 -41.6001 348.0098)" gradientUnits="userSpaceOnUse">
				<stop  offset="0" style="stop-color:#DFC9AE"/>
				<stop  offset="1" style="stop-color:#D3B492"/>
			</radialGradient>
			<path fill="url(#SVGID_8_)" d="M229.854,231.13c0,4.5-3.649,8.15-8.153,8.15c-4.501,0-8.154-3.65-8.154-8.15
				c0-4.506,3.653-8.158,8.154-8.158C226.204,222.972,229.854,226.624,229.854,231.13z"/>
			
				<radialGradient id="SVGID_9_" cx="209.1199" cy="103.7598" r="6.4614" gradientTransform="matrix(1 0 0 -1 -41.6001 348.0098)" gradientUnits="userSpaceOnUse">
				<stop  offset="0" style="stop-color:#DFC9AE"/>
				<stop  offset="1" style="stop-color:#D3B492"/>
			</radialGradient>
			<path fill="url(#SVGID_9_)" d="M173.981,244.247c0,3.57-2.894,6.465-6.463,6.465c-3.566,0-6.459-2.895-6.459-6.465
				c0-3.568,2.893-6.459,6.459-6.459C171.088,237.788,173.981,240.679,173.981,244.247z"/>
			
				<radialGradient id="SVGID_10_" cx="317.9055" cy="162.1748" r="4.7688" gradientTransform="matrix(1 0 0 -1 -41.6001 348.0098)" gradientUnits="userSpaceOnUse">
				<stop  offset="0" style="stop-color:#DFC9AE"/>
				<stop  offset="1" style="stop-color:#D3B492"/>
			</radialGradient>
			<path fill="url(#SVGID_10_)" d="M281.074,185.834c0,2.636-2.14,4.77-4.771,4.77c-2.631,0-4.766-2.134-4.766-4.77
				c0-2.634,2.135-4.768,4.766-4.768C278.936,181.066,281.074,183.2,281.074,185.834z"/>
			
				<radialGradient id="SVGID_11_" cx="167.2151" cy="98.6826" r="4.7681" gradientTransform="matrix(1 0 0 -1 -41.6001 348.0098)" gradientUnits="userSpaceOnUse">
				<stop  offset="0" style="stop-color:#DFC9AE"/>
				<stop  offset="1" style="stop-color:#D3B492"/>
			</radialGradient>
			<circle fill="url(#SVGID_11_)" cx="125.615" cy="249.327" r="4.768"/>
		</g>
		<path opacity="0.1" fill="#78504B" enable-background="new    " d="M261.238,334.006c-2.021-1.527-6.872-2.777-12.383-3.811
			c-1.118,1.916-1.88,3.959-2.22,6.09c2.986,0.561,6.291,1.195,8.847,1.619c1.748,0.287,3.631,1,5.461,0.734
			c0.912-0.138,1.763-0.8,1.79-1.988C262.756,335.621,261.844,334.465,261.238,334.006z"/>
		<circle fill="#FFFFFF" cx="324.158" cy="118.101" r="4.91"/>
		<circle fill="#FFFFFF" cx="320.61" cy="127.65" r="2.32"/>
		<path opacity="0.2" fill="#E5BFA9" enable-background="new    " d="M367.442,125.371c0.41,0.465-1.75,0.993-3.918,0.993
			c-2.162,0-5.104,0.275-4.066-1.018c1.255-1.556,1.912-1.394,4.066-1.224C365.688,124.295,367.093,124.973,367.442,125.371z"/>
	</g>
	<g>
		<g>
			<path fill="#A56C56" d="M443.983,343.583c0,11.619-2.127,22.129-6.379,31.526c-1.094,2.432-2.34,4.806-3.779,7.052
				c-1.399,2.188-2.854,4.368-4.606,6.297c-5.943,6.545-7.554,15.633,2.117,19.451c1.024,0.405,3.791-3.173,4.788-2.668
				c0.996,0.5,0.935,4.104,0.63,6.284c-0.33,2.365-0.976,4.041-2.666,5.259c-2.119,1.521-4.125,2.831-6.521,4.363
				c-3.904,2.495-8.096,3.063-12.611,2.173c-2.639-0.521-4.875-2.016-6.395-4.229c-3.602-5.258-2.826-12.764,0.119-17.771
				c0.924-1.574,0.58,0.088-0.654,0.488c-3.836,1.248-7.514,2.137-11.582,2.137c-14.502,0-26.235-6.092-35.211-18.278
				c-8.457-11.431-12.682-25.458-12.682-42.083c0-17.9,4.604-31.904,13.813-42.012c8.644-9.494,20.004-14.24,34.078-14.24
				c13.791,0,25.031,4.795,33.724,14.381C439.378,311.868,443.983,325.825,443.983,343.583z M408.873,362.855
				c0-9.612-4.821-14.533-12.52-14.533c-8.158,0.003-13.305,7.175-13.018,14.533c0.219,5.586,3.252,17.525,13.52,17.525
				C406.369,380.382,408.873,369.509,408.873,362.855z"/>
		</g>
		<g>
			<path fill="#CEA58E" d="M443.983,337.63c0,11.618-2.127,22.127-6.379,31.526c-1.094,2.43-2.34,4.804-3.779,7.05
				c-1.399,2.188-2.854,4.369-4.606,6.299c-5.943,6.545-7.554,15.632,2.117,19.45c2.051,0.811,4.608,1.214,5.418,3.615
				c0.762,2.263-0.976,4.044-2.666,5.259c-2.119,1.521-4.377,2.869-6.521,4.362c-3.803,2.654-8.096,3.064-12.611,2.175
				c-2.639-0.521-4.875-2.017-6.395-4.229c-3.602-5.257-1.963-11.467,0.982-16.475c0.926-1.572-0.283-1.21-1.519-0.811
				c-3.836,1.25-7.514,2.138-11.582,2.138c-14.502,0-26.235-6.091-35.211-18.276c-8.457-11.431-12.682-25.458-12.682-42.083
				c0-17.901,4.604-31.905,13.813-42.012c8.644-9.495,20.004-14.242,34.078-14.242c13.791,0,25.031,4.796,33.723,14.383
				C439.378,305.915,443.983,319.87,443.983,337.63z M408.873,356.902c0-9.612-4.821-14.532-12.52-14.532
				c-8.158,0-13.305,7.172-13.018,14.532c0.219,5.586,3.252,17.523,13.52,17.523C406.369,374.427,408.873,363.557,408.873,356.902z"
				/>
		</g>
		<path opacity="0.5" fill="#F7CCBA" enable-background="new    " d="M360.11,303.716c9.219-9.334,21.334-14.001,36.346-14.001
			c14.709,0,26.699,4.715,35.97,14.141c3.657,3.723,6.637,7.963,8.934,12.721c-2.266-8.148-5.996-15.088-11.19-20.816
			c-8.691-9.587-19.933-14.383-33.724-14.383c-14.074,0-25.436,4.747-34.078,14.242c-5.186,5.689-8.91,12.617-11.178,20.781
			C353.483,311.643,356.457,307.413,360.11,303.716z"/>
		<circle opacity="0.5" fill="#F7CCBA" enable-background="new    " cx="400.084" cy="317.009" r="8.866"/>
		<circle opacity="0.5" fill="#F7CCBA" enable-background="new    " cx="364.489" cy="343.677" r="7.313"/>
		<circle opacity="0.5" fill="#F7CCBA" enable-background="new    " cx="432.114" cy="352.265" r="7.313"/>
		<circle opacity="0.5" fill="#F7CCBA" enable-background="new    " cx="428.535" cy="325.018" r="3.783"/>
		<circle opacity="0.5" fill="#F7CCBA" enable-background="new    " cx="370.763" cy="369.388" r="3.783"/>
		<circle opacity="0.5" fill="#F7CCBA" enable-background="new    " cx="415.027" cy="379.448" r="6.243"/>
		<path opacity="0.5" fill="#F7CCBA" enable-background="new    " d="M420.72,406.464c0,2.091-1.693,3.783-3.783,3.783
			c-2.086,0-3.781-1.692-3.781-3.783c0-2.088,1.695-3.78,3.781-3.78C419.026,402.684,420.72,404.376,420.72,406.464z"/>
		<circle opacity="0.5" fill="#F7CCBA" enable-background="new    " cx="373.063" cy="311.905" r="3.783"/>
	</g>
</g>
</svg>
