<?xml version="1.0" encoding="utf-8"?>
<!-- Generator: Adobe Illustrator 15.1.0, SVG Export Plug-In . SVG Version: 6.00 Build 0)  -->
<!DOCTYPE svg PUBLIC "-//W3C//DTD SVG 1.1//EN" "http://www.w3.org/Graphics/SVG/1.1/DTD/svg11.dtd">
<svg version="1.1" id="Layer_1" xmlns="http://www.w3.org/2000/svg" xmlns:xlink="http://www.w3.org/1999/xlink" x="0px" y="0px"
	 width="512px" height="512px" viewBox="0 0 512 512" enable-background="new 0 0 512 512" xml:space="preserve">
<g>
	<g>
		<g>
			<path fill="#593E4D" d="M179.889,356.27c0,8.516-2.454,16-7.146,22.621c-6.625,9.346-15.52,12.309-15.373,12.406
				c5.354,3.639,7.387,5.813,12.261,11.971c1.294,1.498,6.599,5.324,8.77,8.502c0.584,0.854,0.446,3.381,0.354,3.859
				c-0.233,1.217-5.82,6.008-13.854,9.293c-10.593,4.336-14.985,4.412-14.985,4.412s-1.437-1.889-2.596-3.545
				c-1.574-2.244-3.689-5.367-6.354-9.361c-2.13-3.516-5.759-10.193-9.875-18.521l-0.373,0.325l0.046,24.72
				c-4.757,0.961-7.925,1.201-21.051,1.479c-9.693,0.205-18.014-1.479-18.014-1.479c-0.009-0.168,0.032-1.77-0.081-4.318
				c-0.394-8.696-1.404-28.963-2.07-45.571c-0.414-13.646-0.66-32.608-2.139-56.754c12.72-1.343,23.626-1.944,34.128-1.944
				C160.435,314.361,179.889,328.332,179.889,356.27z M147.958,371.258c0-4.395-1.854-7.541-5.554-9.436
				c-2.729-1.389-6.146-1.99-10.27-1.807l-0.416,23.73c3.839,0,7.263-0.854,10.27-2.566
				C145.969,378.961,147.958,375.652,147.958,371.258z"/>
		</g>
		<g>
			<g>
				<path fill="#907681" d="M179.889,351.967c0,8.512-2.454,16.002-7.146,22.621c-6.625,9.344-15.52,12.307-15.373,12.404
					c5.354,3.639,7.387,5.816,12.261,11.971c1.956,2.264,7.496,10.486,8.778,12.789c0.184,0.328-5.477,5.582-13.509,8.869
					c-10.593,4.336-14.985,4.41-14.985,4.41s-1.437-1.891-2.596-3.543c-1.574-2.248-3.689-5.369-6.354-9.363
					c-2.13-3.514-5.251-9.438-9.368-17.762h-0.137l-0.697,24.285c-4.757,0.961-7.925,1.201-21.051,1.477
					c-9.693,0.209-18.014-1.477-18.014-1.477c-0.45-1.648-2.151-28.576-3.006-50.061c-0.416-13.646-0.511-32.373-1.989-56.52
					c12.722-1.344,24.331-2.012,34.833-2.012C160.435,310.061,179.889,324.029,179.889,351.967z M148.389,366.957
					c0-4.396-1.852-7.541-5.554-9.439c-2.729-1.387-6.149-1.984-10.27-1.803l-0.416,23.73c3.837,0,7.264-0.855,10.271-2.57
					C146.399,374.656,148.389,371.352,148.389,366.957z"/>
			</g>
		</g>
		<path fill="#BCAAB3" d="M121.536,314.361c37.796,0,57.229,13.188,58.306,39.563c0.028-0.646,0.047-1.299,0.047-1.957
			c0-27.938-19.454-41.906-58.353-41.906c-10.502,0-22.111,0.668-34.833,2.012c0.091,1.443,0.176,2.867,0.261,4.273
			C99.58,315.025,111.105,314.361,121.536,314.361z"/>
		<circle opacity="0.62" fill="#BCAAB3" enable-background="new    " cx="112.933" cy="333.602" r="8.381"/>
		<path opacity="0.62" fill="#BCAAB3" enable-background="new    " d="M111.814,371.598c0,3.086-2.503,5.59-5.59,5.59
			c-3.084,0-5.587-2.504-5.587-5.59c0-3.084,2.503-5.588,5.587-5.588C109.312,366.01,111.814,368.514,111.814,371.598z"/>
		<circle opacity="0.62" fill="#BCAAB3" enable-background="new    " cx="157.916" cy="343.939" r="6.426"/>
		<circle opacity="0.62" fill="#BCAAB3" enable-background="new    " cx="164.342" cy="367.687" r="3.632"/>
		<circle opacity="0.62" fill="#BCAAB3" enable-background="new    " cx="142.549" cy="394.51" r="3.633"/>
		<circle opacity="0.62" fill="#BCAAB3" enable-background="new    " cx="164.343" cy="409.039" r="5.889"/>
		<circle opacity="0.62" fill="#BCAAB3" enable-background="new    " cx="118.52" cy="409.039" r="5.587"/>
	</g>
	<g>
		
			<linearGradient id="SVGID_1_" gradientUnits="userSpaceOnUse" x1="417.47" y1="643.9961" x2="477.5637" y2="643.9961" gradientTransform="matrix(1 0 0 1 -83.2002 -328.9805)">
			<stop  offset="0" style="stop-color:#907681"/>
			<stop  offset="0.2916" style="stop-color:#8D717C"/>
			<stop  offset="0.6543" style="stop-color:#83616E"/>
			<stop  offset="1" style="stop-color:#764C5A"/>
		</linearGradient>
		<path fill="url(#SVGID_1_)" d="M379.665,295.266c-22.615-8.287-41.921,5.68-45.396,10.146c1.268,1.934,2.345,3.893,2.589,5.895
			c18.813-12.449,53.49,8.76,55.483,26.035c3.665-10.201,2.183-18.344-3.121-29.939
			C387.229,303.033,383.281,298.564,379.665,295.266z"/>
		<path fill="#2F0E2B" d="M350.672,285.262c-2.644,0.303-6.373,0.654-9.991,1.482c-4.971,2.836-8.998,7.578-10.809,11.424
			c0.895,2.398,2.796,4.801,4.397,7.244c3.475-4.467,22.778-18.434,45.396-10.146C371.871,288.15,361.095,284.059,350.672,285.262z"
			/>
		<path fill="#907681" d="M330.054,292.92c-0.938,1.758-0.826,3.502-0.182,5.248c1.811-3.846,5.838-8.588,10.809-11.424
			C336.175,287.773,331.854,289.549,330.054,292.92z"/>
		<path fill="#907681" d="M325.947,268.659c-2.891-13.227-20.437-17.169-31.981-18.681c-22.256-2.91-44.466,11.999-52.623,31.732
			c-5.274,12.756-9.522,31.84-3.687,45.133c7.139,16.255,29.173,12.007,43.72,14.058c17.907,2.522,46.514,0.733,55.704-17.528
			c4.264-8.476-0.398-15.433-3.794-23.289C328.769,289.627,328.322,279.529,325.947,268.659z"/>
		
			<linearGradient id="SVGID_2_" gradientUnits="userSpaceOnUse" x1="338.8557" y1="585.4932" x2="322.2027" y2="619.3546" gradientTransform="matrix(1 0 0 1 -83.2002 -328.9805)">
			<stop  offset="0" style="stop-color:#7C5563"/>
			<stop  offset="0.3052" style="stop-color:#866673"/>
			<stop  offset="0.6507" style="stop-color:#8E727D"/>
			<stop  offset="1" style="stop-color:#907681"/>
		</linearGradient>
		<path fill="url(#SVGID_2_)" d="M259.509,276.217c-0.697-2.654-2.746-3.289-4.155-5.352c-1.672-2.444,3.413-11.098,4.327-10.327
			c-14.009-11.82-30.425,9.349-31.06,23.069c-0.178,3.807,0,9.086,3.556,11.426c5.404,3.557,12.875,1.924,17.725-1.748
			c3.625-2.746,7.123-6.471,8.896-10.711c0.795-1.902,1.224-3.932,0.809-5.953C259.575,276.488,259.542,276.352,259.509,276.217z"/>
		
			<linearGradient id="SVGID_3_" gradientUnits="userSpaceOnUse" x1="314.2112" y1="602.3145" x2="324.9213" y2="604.2267" gradientTransform="matrix(1 0 0 1 -83.2002 -328.9805)">
			<stop  offset="0" style="stop-color:#FFFFFF"/>
			<stop  offset="1" style="stop-color:#000000"/>
		</linearGradient>
		<path opacity="0.19" fill="url(#SVGID_3_)" enable-background="new    " d="M228.621,283.611
			c0.043,4.424,1.604,13.182,7.257,7.057c4.217-4.568-0.688-7.922,3.121-18.521c1.11-3.102,3.354-7.041,6.304-9.799
			c2.014-1.887,4.046-3.13,6.884-4.373C240.514,254.323,228.541,274.674,228.621,283.611z"/>
		<path fill="#826773" d="M253.939,260.252c-2.271,1.426-3.619,5.021-3.595,7.586c0.024,2.661,2.367,8.959,5.652,8.838
			c0.524-0.02,0.968-0.162,1.336-0.389c1.106-0.68,1.554-2.135,1.729-3.369c0.316-2.179,0.918-4.23,1.288-6.408
			c0.4-2.369,0.571-5.191,2.662-6.755C260.323,259.779,256.346,258.738,253.939,260.252z"/>
		
			<radialGradient id="SVGID_4_" cx="371.803" cy="737.9121" r="46.9685" gradientTransform="matrix(1 0.0096 -0.0071 0.7435 -81.0774 -255.6714)" gradientUnits="userSpaceOnUse">
			<stop  offset="0" style="stop-color:#5E3D48"/>
			<stop  offset="0.4677" style="stop-color:#603F4A"/>
			<stop  offset="0.6595" style="stop-color:#664651"/>
			<stop  offset="0.8006" style="stop-color:#71525D"/>
			<stop  offset="0.9162" style="stop-color:#80646F"/>
			<stop  offset="1" style="stop-color:#907681"/>
		</radialGradient>
		<path fill="url(#SVGID_4_)" d="M323.522,278.559c-0.152-0.109-0.308-0.217-0.466-0.313c-6.209-3.996-14.039,0.604-18.949,4.57
			c-3.558,2.871-6.879,6.732-11.506,7.783c-10.819,2.455-21.105-3.49-31.857-1.771c-9.802,1.563-26.804,13.625-22.937,21.711
			c10.655,22.275,46.706,24.094,62.96,19.854c10.468-2.729,24.116-8.119,30.023-17.436
			C334.505,307.107,330.247,283.422,323.522,278.559z"/>
		
			<linearGradient id="SVGID_5_" gradientUnits="userSpaceOnUse" x1="342.4456" y1="610.7773" x2="408.2668" y2="610.7773" gradientTransform="matrix(1 0 0 1 -83.2002 -328.9805)">
			<stop  offset="0" style="stop-color:#F8E8DB"/>
			<stop  offset="0.5866" style="stop-color:#F8E7D9"/>
			<stop  offset="0.8268" style="stop-color:#F8E3D2"/>
			<stop  offset="1" style="stop-color:#F8DDC6"/>
		</linearGradient>
		<path fill="url(#SVGID_5_)" d="M293.162,249.71c-11.11-1.452-28.972-0.436-32.888,12.587c-2.349,7.807-0.171,18.533,1.5,26.318
			c1.854,8.623,4.327,18.482,9.209,25.77c4.595-5.543,8.396-11.953,14.44-16.414c5.763-4.248,12.833-5.846,18.807-9.545
			c6.502-4.031,20.36-12.016,20.822-20.656C325.728,255.104,301.989,250.866,293.162,249.71z"/>
		
			<radialGradient id="SVGID_6_" cx="392.4387" cy="630.6455" r="29.6896" gradientTransform="matrix(0.9971 0.0759 -0.0684 0.8985 -63.6684 -322.884)" gradientUnits="userSpaceOnUse">
			<stop  offset="0" style="stop-color:#FC8856"/>
			<stop  offset="0.2582" style="stop-color:#FC8A59"/>
			<stop  offset="0.4272" style="stop-color:#FC9061"/>
			<stop  offset="0.5707" style="stop-color:#FB9B70"/>
			<stop  offset="0.6998" style="stop-color:#FBAA86"/>
			<stop  offset="0.8194" style="stop-color:#FABEA1"/>
			<stop  offset="0.9303" style="stop-color:#F9D6C2"/>
			<stop  offset="1" style="stop-color:#F8E8DB"/>
		</radialGradient>
		<path opacity="0.34" fill="url(#SVGID_6_)" enable-background="new    " d="M289.79,243.341c-4.6-0.657-9.308-0.776-13.934-0.395
			c-2.891,0.235-8.057,1.58-9.889,4.02c-7.297,9.706-9.231,27.575,2.672,34.714c5.381,3.229,11.747,4.316,17.94,4.578
			c3.317,0.137,6.75,0.885,10.057,0.279c1.689-0.311,3.192-0.977,4.557-2.018c1.892-1.443,2.824-1.199,5.167-1.752
			c5.457-1.287,11.408-3.072,15.036-7.643c2.358-2.963,3.385-6.568,3.563-10.316C325.668,249.814,299.522,244.735,289.79,243.341z"
			/>
		
			<linearGradient id="SVGID_7_" gradientUnits="userSpaceOnUse" x1="409.1614" y1="603.1709" x2="382.5155" y2="637.5882" gradientTransform="matrix(1 0 0 1 -83.2002 -328.9805)">
			<stop  offset="0" style="stop-color:#7C5563"/>
			<stop  offset="0.3052" style="stop-color:#866673"/>
			<stop  offset="0.6507" style="stop-color:#8E727D"/>
			<stop  offset="1" style="stop-color:#907681"/>
		</linearGradient>
		<path fill="url(#SVGID_7_)" d="M324.27,271.995c-10.787-9.334-16.785,6.782-23.947,11.269c-3.109,1.951-7.12,3.699-9.4,6.701
			c-3.03,3.998-4.775,15.074-1.454,19.295c5.729,7.279,13.649,6.717,21.313,4.029c6.014-2.111,12.389-5.457,16.116-10.873
			c5.117-7.443,4.973-22.125-1.434-29.25C325.088,272.75,324.688,272.359,324.27,271.995z"/>
		
			<linearGradient id="SVGID_8_" gradientUnits="userSpaceOnUse" x1="382.7854" y1="613.5332" x2="408.4797" y2="613.5332" gradientTransform="matrix(1 0 0 1 -83.2002 -328.9805)">
			<stop  offset="0" style="stop-color:#FFFFFF"/>
			<stop  offset="1" style="stop-color:#000000"/>
		</linearGradient>
		<path opacity="0.19" fill="url(#SVGID_8_)" enable-background="new    " d="M314.95,273.17c-1.641,1.92-1.512,4.355-1.899,6.672
			c-0.421,2.521-1.333,3.799-3.092,5.883c-1.576,1.869-3.298,3.594-5.39,4.793c-1.436,0.824-5.127,1.354-4.98,3.605
			c0.133,2.082,3.418,2.785,5.009,2.906c5.795,0.447,12.091-4.314,15.626-8.5c2.134-2.529,4.675-6.652,5.026-10.027
			c0.009-0.064,0.015-0.129,0.021-0.191C325.575,274.488,317.765,269.882,314.95,273.17z"/>
		<path fill="#F8E8DB" d="M391.381,152.225c-8.514-14.691-12.318-31.578-44.635-42.352c-8.219-2.736-19.185-8.706-27.818-9.845
			c-12.58-1.656-25.602-0.315-37.953,3.257c-15.705,4.537-29.854,13.552-42.384,23.837c-10.259,8.413-21.166,16.047-30.963,25.02
			c-6.482,5.932-20.114,15.755-21.242,24.909c-1.254,10.154,6.153,22.299,11,30.642c10.514,18.099,26.136,33.697,43.642,45.055
			c18.98,12.316,41.064,18.896,63.458,21.24c25.162,2.638,51.867,4.707,76.19-3.881c9.628-3.403,20.106-6.662,28.337-12.918
			c12.127-9.215,6.063-21.226,2.877-32.463C405.07,200.682,404.28,174.494,391.381,152.225z"/>
		
			<radialGradient id="SVGID_9_" cx="425.3342" cy="876.7939" r="36.2251" gradientTransform="matrix(1 0 0 0.5286 -83.2002 -209.04)" gradientUnits="userSpaceOnUse">
			<stop  offset="0" style="stop-color:#FCB292"/>
			<stop  offset="0.2166" style="stop-color:#FBB99B"/>
			<stop  offset="0.5777" style="stop-color:#FACCB5"/>
			<stop  offset="1" style="stop-color:#F8E8DB"/>
		</radialGradient>
		<ellipse opacity="0.34" fill="url(#SVGID_9_)" enable-background="new    " cx="342.135" cy="254.433" rx="36.22" ry="19.151"/>
		
			<radialGradient id="SVGID_10_" cx="490.6741" cy="653.4102" r="36.2367" gradientTransform="matrix(0.8141 0.5807 -0.2929 0.4105 23.5952 -336.2126)" gradientUnits="userSpaceOnUse">
			<stop  offset="0" style="stop-color:#FCB292"/>
			<stop  offset="0.2166" style="stop-color:#FBB99B"/>
			<stop  offset="0.5777" style="stop-color:#FACCB5"/>
			<stop  offset="1" style="stop-color:#F8E8DB"/>
		</radialGradient>
		<path opacity="0.34" fill="url(#SVGID_10_)" enable-background="new    " d="M242.786,200.988
			c-16.688-11.035-34.942-12.826-40.776-4.005c-5.834,8.822,2.961,24.921,19.648,35.953c16.684,11.035,34.94,12.829,40.774,4.007
			C268.269,228.122,259.474,212.023,242.786,200.988z"/>
		<path fill="#907681" d="M391.381,152.225c-8.514-14.691-12.318-31.578-44.635-42.352c-8.219-2.736-19.185-8.706-27.818-9.845
			c-12.58-1.656-25.602-0.315-37.953,3.257c-15.705,4.537-29.854,13.552-42.384,23.837c-10.259,8.413-21.166,16.047-30.967,25.02
			c-6.096,5.579-24.266,15.87-21.473,25.962c0.049,0.176,9.259-8.917,9.958-9.592c3.859-3.708,8.782-7.814,13.229-11.459
			c8.873-7.277,18.105-14.105,27.479-20.726c10.34-7.296,21.078-14.225,33.054-18.531c8.71-3.134,18.873-6.04,27.979-2.928
			c4.244,1.452,7.128,4.966,11.506,6.021c5.024,1.212,9.314,3.487,14.207,5.154c4.741,1.618,9.463,3.041,14.273,4.473
			c13.511,4.014,30.896,4.782,38.109,18.996c3.714,7.312,6.718,14.136,9.132,22.019c2.327,7.583,5.643,14.374,9.525,21.258
			c3.263,5.785,5.925,11.894,8.122,18.156c1.734,4.937,2.749,10.083,4.496,15.006c1.645,4.634,6.075,14.894,6.788,25.902
			c6.976-2.813-0.544-22.053-1.892-26.814C405.299,200.995,404.28,174.492,391.381,152.225z"/>
		<path fill="#907681" d="M270.335,85.339c-7.698-6.397-20.913-8.65-30.154-4.748c-15.954,6.737-46.098,59.377-20.64,69.518
			c1.302,0.52,2.846,0.619,4.681,0.176c6.664-1.614,11.776-10.993,15.794-15.981c7.064-8.777,18.586-17.326,29.358-19.985
			c10.223-2.526,18.206-6.839,12.467-17.011C279.206,92.636,274.403,88.714,270.335,85.339z"/>
		<path fill="#F8E8DB" d="M255.334,97.624c-8.651-6.003-15.238-5.392-22.677,2.2c-5.81,5.923-11.771,15.253-12.713,23.642
			c-0.722,6.396-0.8,15.956,2.688,21.546c0.104,0.167,0.206,0.326,0.311,0.479c6.284,9.232,14.941-2.537,20.441-6.642
			c3.864-2.884,8.039-5.477,12.07-7.989c6.868-4.282,17.362-9.009,13.002-19.022C266.225,106.719,259.873,100.771,255.334,97.624z"
			/>
		<path fill="#907681" d="M365.189,116.513c-8.72-6.138-33.315-17.905-56.014-18.671c-5.684-0.191-24.922,1.467-31.079,6.595
			c6.389,2.636,6.938,2.648,20.501,10.934c4.209,2.572,6.312,6.195,7.134,7.951c7.885,16.902,4.555,37.547,0.264,54.008
			c-2.413,9.252-6.07,18.24-11.315,26.017c-5.683,8.422-13.224,15.422-23.042,19.781c5.229,3.646,12.203,4.247,18.025,6.724
			c6.365,2.709,12.471,7.246,19.488,8.081c0.755-4.205-2.345-5.41-3.359-9.435c-2.18-8.671-2.861-20.114-1.095-28.689
			c4.639-22.457,13.698-35.703,28.396-52.28c9.122-10.29,17.555-12.137,21.325-12.219c7.462-0.166,18.446,8.094,22.899,8.221
			c6.51,0.184,4.771-7.688,4.771-7.688S375.915,124.061,365.189,116.513z"/>
		<path fill="#020204" d="M296.001,214.186c-13.032-4.526-25.615-2.385-28.104,4.783c-2.491,7.168,6.063,16.649,19.092,21.171
			c13.031,4.529,25.614,2.385,28.105-4.783C317.579,228.188,309.032,218.709,296.001,214.186z"/>
		
			<linearGradient id="SVGID_11_" gradientUnits="userSpaceOnUse" x1="409.4387" y1="504.209" x2="444.4119" y2="567.4937" gradientTransform="matrix(1 0 0 1 -83.2002 -328.9805)">
			<stop  offset="0" style="stop-color:#57323F"/>
			<stop  offset="0.3963" style="stop-color:#5A3542"/>
			<stop  offset="0.7013" style="stop-color:#643D4A"/>
			<stop  offset="0.9756" style="stop-color:#744A58"/>
			<stop  offset="1" style="stop-color:#764C5A"/>
		</linearGradient>
		<path fill="url(#SVGID_11_)" d="M361.387,180.783c-7.875-7.989-18.86-11.439-29.704-6.976
			c-18.048,7.426-23.578,35.489-14.098,51.309c5.174,8.631,14.104,13.942,23.99,15.381c13.896,2.027,34.184,0.807,39.119-15.304
			c1.575-5.134,0.471-12.513-1.156-17.481C376.275,197.745,368.673,188.177,361.387,180.783z"/>
		
			<linearGradient id="SVGID_12_" gradientUnits="userSpaceOnUse" x1="306.6252" y1="510.9434" x2="378.9885" y2="510.9434" gradientTransform="matrix(1 0 0 1 -83.2002 -328.9805)">
			<stop  offset="0" style="stop-color:#764C5A"/>
			<stop  offset="0.1996" style="stop-color:#6D4452"/>
			<stop  offset="0.6493" style="stop-color:#5D3744"/>
			<stop  offset="1" style="stop-color:#57323F"/>
		</linearGradient>
		<path fill="url(#SVGID_12_)" d="M278.813,151.348c-18.099-2.697-40.311,7.94-51.846,21.605
			c-6.825,8.083-2.761,18.482,3.543,25.733c3.992,4.59,10.646,8.937,16.133,11.501c6.422,3.001,13.73,3.491,20.686,1.984
			c12.604-2.73,24.033-12.017,26.906-24.78C297.509,172.847,296.987,154.056,278.813,151.348z"/>
		<path fill="#2F0E2B" d="M291.512,136.845c-8.481-6.313-16.954-4.157-25.25,1.179c4.389,0.771,7.641-1.114,13.297,0.455
			c7.998,2.223,13.759,7.304,14.749,2.602C294.678,139.298,292.731,137.751,291.512,136.845z"/>
		<path fill="#2F0E2B" d="M363.698,163.403c-3.59-5.496-9.983-7.649-16.813-6.678c-1.554,0.221-4.095,0.662-4.991,2.451
			c-1.507,2.997,2.67,3.386,4.59,3.419c7.807,0.144,13.301,3.969,19.637,8.018c-0.217-1.094-0.253-2.475-0.637-3.564
			C365.011,165.703,364.407,164.489,363.698,163.403z"/>
		<path fill="#2F0E2B" d="M250.339,108.565c-2.312-1.84-4.857-2.816-7.346-2.848c-3.071-0.038-6.054,1.36-8.387,4.34
			c-4.744,6.063-8.271,15.373-7.261,23.178c0.83,6.404,5.289,6.755,10.181,3.987c2.43-1.372,4.396-3.177,6.534-4.927
			c3.67-2.996,10.896-4.966,12.021-9.913C257.18,117.583,254.023,111.51,250.339,108.565z"/>
		<path fill="#2F0E2B" d="M246.613,325.793c-4.68,0.145-8.341,4.563-8.18,9.869c0.162,5.307,4.086,9.496,8.771,9.352
			c4.679-0.143,8.34-4.561,8.179-9.871C255.218,329.838,251.294,325.65,246.613,325.793z"/>
		<path fill="#2F0E2B" d="M259.526,326.947c-4.677,0.141-8.34,4.561-8.179,9.867c0.163,5.307,4.088,9.494,8.767,9.352
			c4.682-0.145,8.344-4.561,8.185-9.871C268.131,330.99,264.206,326.803,259.526,326.947z"/>
		<path fill="#2F0E2B" d="M272.151,326.893c-4.68,0.146-8.343,4.563-8.181,9.867c0.162,5.307,4.088,9.496,8.768,9.354
			c4.68-0.146,8.345-4.563,8.181-9.869C280.758,330.934,276.828,326.748,272.151,326.893z"/>
		<path fill="#2F0E2B" d="M294.585,327.805c-4.641,0.652-7.794,5.445-7.058,10.703c0.74,5.258,5.1,8.994,9.732,8.338
			c4.638-0.652,7.796-5.441,7.058-10.699C303.576,330.885,299.22,327.154,294.585,327.805z"/>
		<path fill="#2F0E2B" d="M307.338,327.439c-4.636,0.652-7.792,5.445-7.055,10.701c0.739,5.26,5.102,8.99,9.732,8.34
			c4.638-0.65,7.797-5.443,7.057-10.703C316.331,330.521,311.978,326.787,307.338,327.439z"/>
		<path fill="#2F0E2B" d="M319.928,326.168c-4.634,0.65-7.795,5.443-7.058,10.701c0.741,5.258,5.104,8.992,9.734,8.342
			c4.638-0.652,7.797-5.445,7.057-10.705C328.922,329.248,324.564,325.514,319.928,326.168z"/>
		
			<linearGradient id="SVGID_13_" gradientUnits="userSpaceOnUse" x1="390.9377" y1="656.2461" x2="392.6081" y2="674.2023" gradientTransform="matrix(1 0 0 1 -83.2002 -328.9805)">
			<stop  offset="0" style="stop-color:#FFFFFF"/>
			<stop  offset="1" style="stop-color:#000000"/>
		</linearGradient>
		<path opacity="0.19" fill="url(#SVGID_13_)" enable-background="new    " d="M319.928,326.168
			c-2.385,0.336-4.376,1.771-5.648,3.801c-1.835-1.883-4.342-2.893-6.939-2.529c-2.224,0.314-4.098,1.584-5.372,3.395
			c-1.862-2.193-4.568-3.422-7.381-3.025c-4.641,0.65-7.794,5.443-7.058,10.701c0.74,5.26,5.1,8.994,9.732,8.34
			c2.224-0.313,4.099-1.582,5.375-3.393c1.86,2.195,4.565,3.422,7.381,3.023c2.391-0.336,4.38-1.771,5.651-3.801
			c1.836,1.883,4.345,2.895,6.938,2.531c4.638-0.652,7.797-5.445,7.057-10.705C328.922,329.248,324.564,325.514,319.928,326.168z"/>
		
			<linearGradient id="SVGID_14_" gradientUnits="userSpaceOnUse" x1="327.9231" y1="622.9824" x2="380.2756" y2="622.9824" gradientTransform="matrix(1 0 0 1 -83.2002 -328.9805)">
			<stop  offset="0" style="stop-color:#FFB700"/>
			<stop  offset="0.1209" style="stop-color:#FFB200"/>
			<stop  offset="0.2719" style="stop-color:#FFA200"/>
			<stop  offset="0.4388" style="stop-color:#FF8900"/>
			<stop  offset="0.6172" style="stop-color:#FF6500"/>
			<stop  offset="0.8047" style="stop-color:#FF3800"/>
			<stop  offset="0.9973" style="stop-color:#FF0100"/>
			<stop  offset="1" style="stop-color:#FF0000"/>
		</linearGradient>
		<path fill="url(#SVGID_14_)" d="M275.898,269.414c-14.188-2.887-27.929,5.783-30.688,19.365
			c-2.76,13.578,6.502,26.926,20.692,29.811c14.186,2.887,27.926-5.783,30.687-19.365
			C299.351,285.646,290.086,272.301,275.898,269.414z"/>
		
			<linearGradient id="SVGID_15_" gradientUnits="userSpaceOnUse" x1="350.6917" y1="645.0762" x2="358.2076" y2="604.5708" gradientTransform="matrix(1 0 0 1 -83.2002 -328.9805)">
			<stop  offset="0" style="stop-color:#D90000"/>
			<stop  offset="0.5687" style="stop-color:#EE6700;stop-opacity:0.4313"/>
			<stop  offset="1" style="stop-color:#FFB700;stop-opacity:0"/>
		</linearGradient>
		<path fill="url(#SVGID_15_)" d="M277.885,282.084c-2.53-1.17-5.228-2.9-6.972-5.197c-1.734-2.281-2.587-5.916-5.486-7.005
			c-2.908-1.088-6.075,1.147-8.415,2.78c-5.175,3.611-8.903,9.154-10.188,15.477c-2.763,13.58,6.098,26.844,19.782,29.625
			c5.226,1.064,11.515,0.391,16.35-1.988c6.178-3.033,12.051-10.088,13.688-17.504c0.457-2.064,0.588-4.162,0.304-6.207
			C295.533,281.932,284.446,285.125,277.885,282.084z"/>
		
			<linearGradient id="SVGID_16_" gradientUnits="userSpaceOnUse" x1="349.9866" y1="645.9023" x2="357.5037" y2="605.3906" gradientTransform="matrix(1 0 0 1 -83.2002 -328.9805)">
			<stop  offset="0" style="stop-color:#D90000"/>
			<stop  offset="0.5687" style="stop-color:#EE6700"/>
			<stop  offset="1" style="stop-color:#FFB700"/>
		</linearGradient>
		<path fill="url(#SVGID_16_)" d="M277.316,282.941c-2.624-1.193-5.432-2.945-7.252-5.258c-1.813-2.301-2.72-5.943-5.729-7.056
			c-3.019-1.108-6.28,1.104-8.689,2.724c-5.333,3.58-9.147,9.104-10.438,15.428c-2.762,13.578,6.502,26.926,20.692,29.811
			c5.41,1.102,11.914,0.473,16.906-1.873c6.371-2.998,12.399-10.018,14.043-17.432c0.459-2.068,0.577-4.166,0.271-6.215
			C295.584,282.91,284.134,286.031,277.316,282.941z"/>
		<path fill="#2F0E2B" d="M258.826,280.801c2.772-0.229,5.56-0.262,6.975-3.301c0.816-1.75,0.479-3.377-0.888-4.783
			c-0.237-0.248-0.476-0.443-0.703-0.6c-1.833-1.234-4.173-0.617-6.183-0.244c-2.396,0.445-4.376,0.232-6.771,0.195
			c-5.098-0.08-10.911,0.561-15.413,3.074c-6.82,3.809-9.239,12.672-6.36,19.219c2.104,4.793,5.884,8.672,9.867,11.973
			c1.715,1.422,5.382,3.963,7.675,3.707c3.294-0.367,4.816-4.164,2.728-6.461c2.254,1.051,4.702,1.6,7.159,1.152
			c2.013-0.365,4.104-2.141,4.021-4.303c-0.042-1.098-1.576-2.855-1.642-3.938c2.014,0.731,3.85,1.278,5.677,0.366
			c1.099-0.549,2.26-1.672,2.633-2.349C271.015,288.322,257.843,286.58,258.826,280.801z"/>
		
			<linearGradient id="SVGID_17_" gradientUnits="userSpaceOnUse" x1="329.1858" y1="599.8193" x2="331.7495" y2="622.7025" gradientTransform="matrix(1 0 0 1 -83.2002 -328.9805)">
			<stop  offset="0" style="stop-color:#FFFFFF"/>
			<stop  offset="1" style="stop-color:#000000"/>
		</linearGradient>
		<path opacity="0.19" fill="url(#SVGID_17_)" enable-background="new    " d="M258.826,280.801c2.772-0.229,5.56-0.262,6.975-3.301
			c0.816-1.75,0.479-3.377-0.888-4.783c-0.237-0.248-0.476-0.443-0.703-0.6c-1.833-1.234-4.173-0.617-6.183-0.244
			c-2.396,0.445-4.376,0.232-6.771,0.195c-5.098-0.08-10.911,0.561-15.413,3.074c-6.82,3.809-9.239,12.672-6.36,19.219
			c2.104,4.793,5.884,8.672,9.867,11.973c1.715,1.422,5.382,3.963,7.675,3.707c3.294-0.367,4.816-4.164,2.728-6.461
			c2.254,1.051,4.702,1.6,7.159,1.152c2.013-0.365,4.104-2.141,4.021-4.303c-0.042-1.098-1.576-2.855-1.642-3.938
			c2.014,0.731,3.85,1.278,5.677,0.366c1.099-0.549,2.26-1.672,2.633-2.349C271.015,288.322,257.843,286.58,258.826,280.801z"/>
		<path fill="#2F0E2B" d="M303.054,295.73c-1.802-1.895-2.854-3.379-5.456-4.047c-2.5-0.645-5.115-0.643-7.654-1.041
			c-3.055-0.486-9.131-5.35-11.779-2.047c-2.104,2.619-1.063,5.678,0.665,8.182c-2.778,0.738-5.711,0.801-7.26,3.707
			c-1.452,2.73-0.138,5.42,2.535,6.689c-2.244,2.521-2.511,4.986,0.562,7.057c1.517,1.021,3.372,0.662,5.023,1.188
			c-0.604,1.518-0.555,3.209,1.372,3.914c3.109,1.139,7.267,0.244,10.479-0.354c6.015-1.125,11.703-4.213,14.309-9.955
			c1.318-2.898,1.144-6.053,0.007-8.992C305.24,298.439,304.269,297.006,303.054,295.73z"/>
		
			<linearGradient id="SVGID_18_" gradientUnits="userSpaceOnUse" x1="372.4172" y1="611.6768" x2="372.051" y2="634.0096" gradientTransform="matrix(1 0 0 1 -83.2002 -328.9805)">
			<stop  offset="0" style="stop-color:#FFFFFF"/>
			<stop  offset="1" style="stop-color:#000000"/>
		</linearGradient>
		<path opacity="0.19" fill="url(#SVGID_18_)" enable-background="new    " d="M303.054,295.73
			c-1.802-1.895-2.854-3.379-5.456-4.047c-2.5-0.645-5.115-0.643-7.654-1.041c-3.055-0.486-9.131-5.35-11.779-2.047
			c-2.104,2.619-1.063,5.678,0.665,8.182c-2.778,0.738-5.711,0.801-7.26,3.707c-1.452,2.73-0.138,5.42,2.535,6.689
			c-2.244,2.521-2.511,4.986,0.562,7.057c1.517,1.021,3.372,0.662,5.023,1.188c-0.604,1.518-0.555,3.209,1.372,3.914
			c3.109,1.139,7.267,0.244,10.479-0.354c6.015-1.125,11.703-4.213,14.309-9.955c1.318-2.898,1.144-6.053,0.007-8.992
			C305.24,298.439,304.269,297.006,303.054,295.73z"/>
		<path fill="#2F0E2B" d="M279.008,241.816c-2.024,8.115,10.941,11.914,14.429,4.608
			C286.701,247.062,278.919,242.209,279.008,241.816z"/>
		
			<radialGradient id="SVGID_19_" cx="357.7288" cy="512.0254" r="22.8242" gradientTransform="matrix(1 0 0 1 -83.2002 -328.9805)" gradientUnits="userSpaceOnUse">
			<stop  offset="0" style="stop-color:#FFFFFF"/>
			<stop  offset="0.2415" style="stop-color:#FBFCFC"/>
			<stop  offset="0.3688" style="stop-color:#F6F8F8"/>
			<stop  offset="1" style="stop-color:#D7E0E0"/>
		</radialGradient>
		<path fill="url(#SVGID_19_)" d="M264.913,162.917c-12.419,0-22.489,10.367-22.489,23.153c0,12.787,10.07,23.151,22.489,23.151
			c12.424,0,22.488-10.364,22.488-23.151C287.403,173.284,277.337,162.917,264.913,162.917z"/>
		<path opacity="0.7" fill="#FFFFFF" enable-background="new    " d="M247.488,181.216c1.762-9.555,8.568-14.756,17.179-17.739
			l0.284-0.56c-0.013,0-0.024,0-0.036,0c-12.419,0-22.489,10.367-22.489,23.153c0,12.787,10.07,23.151,22.489,23.151
			c2.676,0,5.803-0.12,8.06-1.731c-7.469,0.009-11.44-0.575-15.908-3.044C249.551,200.291,245.808,190.324,247.488,181.216z"/>
		
			<radialGradient id="SVGID_20_" cx="418.1047" cy="531.2627" r="22.8236" gradientTransform="matrix(1 0 0 1 -83.2002 -328.9805)" gradientUnits="userSpaceOnUse">
			<stop  offset="0" style="stop-color:#FFFFFF"/>
			<stop  offset="0.3301" style="stop-color:#FBFCFC"/>
			<stop  offset="0.6287" style="stop-color:#F0F4F4"/>
			<stop  offset="0.9143" style="stop-color:#DEE5E5"/>
			<stop  offset="1" style="stop-color:#D7E0E0"/>
		</radialGradient>
		<ellipse fill="url(#SVGID_20_)" cx="337.717" cy="207.558" rx="22.487" ry="23.152"/>
		<path opacity="0.7" fill="#FFFFFF" enable-background="new    " d="M319.698,207.062c0-11.139,7.646-20.438,17.826-22.649
			c-12.335,0.106-22.297,10.427-22.297,23.146c0,12.787,10.066,23.151,22.489,23.151c1.599,0,3.16-0.175,4.667-0.502
			c-0.067,0-0.13,0.007-0.195,0.007C329.767,230.215,319.698,219.849,319.698,207.062z"/>
		<path fill="#907681" d="M395.318,128.198c-5.264,0.495-11.439,1.023-16.252,3.395c-10.478,5.161-6.317,13.226,0.701,21.077
			c7.393,8.273,12.086,21.831,12.967,33.063c0.503,6.387-0.563,17.015,4.029,22.105c1.263,1.4,2.595,2.188,3.965,2.495
			c26.742,5.987,31.542-54.484,22.166-69.045C417.466,132.854,405.281,127.262,395.318,128.198z"/>
		<path fill="#F8E8DB" d="M400.775,146.803c-9.507,0.071-24.572,3.366-23.278,15.568c0.391,3.7,2.899,8.334,4.431,11.81
			c1.911,4.349,3.896,8.847,5.461,13.406c1.156,3.372,1.778,6.882,2.724,10.312c0.568,2.064,1.021,5.876,2.504,7.474
			c2.66,2.864,5.74,2.049,8.448,0.547c10.13-5.619,11.931-12.062,14.357-17.813c3.284-7.776,4.295-18.529,2.839-26.692
			C416.396,150.945,411.304,146.728,400.775,146.803z"/>
		<path fill="#2F0E2B" d="M406.944,157.603c-2.021-1.454-4.649-2.188-7.602-2.08c-4.715,0.174-10.863,3.177-12.841,7.686
			c-2.033,4.65,2.601,10.529,3.767,15.122c0.677,2.677,1.188,5.299,2.321,7.847c2.282,5.135,6.081,7.506,10.556,2.854
			c5.456-5.674,8.159-15.255,7.952-22.948C410.994,162.298,409.431,159.401,406.944,157.603z"/>
		<circle fill="#046EA3" cx="333.559" cy="198.985" r="8.528"/>
		<circle fill="#00C7F7" cx="333.559" cy="198.984" r="7.298"/>
		<circle cx="333.559" cy="198.984" r="5.539"/>
		<circle fill="#046EA3" cx="274.3" cy="181.225" r="8.528"/>
		<circle fill="#00C7F7" cx="274.3" cy="181.224" r="7.298"/>
		<circle cx="274.3" cy="181.224" r="5.54"/>
		<circle opacity="0.82" fill="#FFFFFF" enable-background="new    " cx="270.581" cy="181.042" r="3.278"/>
		<path opacity="0.82" fill="#FFFFFF" enable-background="new    " d="M329.98,194.941c-1.807,0-3.276,1.47-3.276,3.278
			c0,1.813,1.472,3.276,3.276,3.276c1.81,0,3.278-1.465,3.278-3.276C333.259,196.411,331.788,194.941,329.98,194.941z"/>
		
			<radialGradient id="SVGID_21_" cx="491.5286" cy="792.6934" r="22.6021" gradientTransform="matrix(0.9299 0.3677 -0.1794 0.4537 -21.7618 -312.8018)" gradientUnits="userSpaceOnUse">
			<stop  offset="0" style="stop-color:#FFFFFF"/>
			<stop  offset="0.1598" style="stop-color:#FCFCFC"/>
			<stop  offset="0.2899" style="stop-color:#F2F2F2"/>
			<stop  offset="0.4096" style="stop-color:#E1E1E1"/>
			<stop  offset="0.5231" style="stop-color:#C9C9C9"/>
			<stop  offset="0.6323" style="stop-color:#A9A9A9"/>
			<stop  offset="0.7381" style="stop-color:#838383"/>
			<stop  offset="0.8413" style="stop-color:#565656"/>
			<stop  offset="0.9399" style="stop-color:#232323"/>
			<stop  offset="1" style="stop-color:#000000"/>
		</radialGradient>
		<path opacity="0.37" fill="url(#SVGID_21_)" enable-background="new    " d="M296.577,216.805
			c-6.643-2.064-22.277-3.876-25.156,4.735c12.329-0.178,30.63,4.779,38.694,14.715
			C312.677,227.038,304.059,219.127,296.577,216.805z"/>
		
			<linearGradient id="SVGID_22_" gradientUnits="userSpaceOnUse" x1="450.387" y1="660.499" x2="412.5428" y2="689.2079" gradientTransform="matrix(1 0 0 1 -83.2002 -328.9805)">
			<stop  offset="0" style="stop-color:#7C5563"/>
			<stop  offset="0.3052" style="stop-color:#866673"/>
			<stop  offset="0.6507" style="stop-color:#8E727D"/>
			<stop  offset="1" style="stop-color:#907681"/>
		</linearGradient>
		<path fill="url(#SVGID_22_)" d="M333.444,322.961c-18.052,15.729-11.977,34.412-11.977,34.412s21.608,17.107,53.949,2.059
			C381.787,340.563,350.525,319.535,333.444,322.961z"/>
		<path fill="#2F0E2B" d="M337.848,310.764c0.036,0.291,0.148,0.82,0.145,1.115c-0.024,4.195-2.502,7.967-4.548,11.082
			c17.081-3.426,48.345,17.602,41.975,36.471c5.59-4.059,10.29-9.465,13.635-15.17c1.414-2.41,2.496-4.703,3.292-6.92
			C390.351,320.066,356.658,298.313,337.848,310.764z"/>
		<path fill="#755D68" d="M297.938,284.623c-1.067,0.771-0.874,0.582-2.281,1.262c0.024,0.813,0.444,1.996,0.721,2.758
			c0.263,0.721,0.34,1.576,0.396,2.385c1.608-0.262,4.088-1.947,5.551-2.713c3.53-1.83,6.364-4.459,6.563-8.633
			c0.042-0.844,0.105-4.318,0.06-4.996C305.818,278.346,302.254,281.523,297.938,284.623z"/>
		<g opacity="0.19">
			
				<linearGradient id="SVGID_23_" gradientUnits="userSpaceOnUse" x1="437.47" y1="619.9014" x2="422.0734" y2="683.3726" gradientTransform="matrix(1 0 0 1 -83.2002 -328.9805)">
				<stop  offset="0" style="stop-color:#000000"/>
				<stop  offset="1" style="stop-color:#FFFFFF"/>
			</linearGradient>
			<path fill="url(#SVGID_23_)" d="M358.72,289.254c-5.415-1.609-10.8-3.504-16.261-2.021c-7.312,1.982-14.678,4.242-4.422,8.068
				c8.436,3.143,6.693,11.967,0.656,21.414c-8.495,13.281-18.753,14.855-17.228,40.658c1.603-2.486,9.231-11.162,11.683-13.135
				c12.172-9.816,22.302-11.805,30.035-20.025c3.142-3.336,6.229-7.52,7.14-12.59C372.287,300.662,370.09,292.635,358.72,289.254z"
				/>
		</g>
		
			<linearGradient id="SVGID_24_" gradientUnits="userSpaceOnUse" x1="343.4006" y1="657.9404" x2="342.5647" y2="670.0531" gradientTransform="matrix(1 0 0 1 -83.2002 -328.9805)">
			<stop  offset="0" style="stop-color:#FFFFFF"/>
			<stop  offset="1" style="stop-color:#000000"/>
		</linearGradient>
		<path opacity="0.19" fill="url(#SVGID_24_)" enable-background="new    " d="M272.192,326.949
			c-2.437,0.074-4.592,1.314-6.082,3.232c-1.614-2.018-3.962-3.258-6.544-3.178c-2.27,0.068-4.298,1.152-5.77,2.852
			c-1.603-2.498-4.226-4.094-7.144-4.002c-4.682,0.145-8.341,4.559-8.182,9.867c0.161,5.307,4.089,9.494,8.768,9.352
			c2.273-0.068,4.305-1.154,5.772-2.852c1.603,2.5,4.224,4.094,7.141,4.004c2.438-0.074,4.596-1.316,6.083-3.232
			c1.616,2.014,3.962,3.258,6.541,3.18c4.684-0.145,8.345-4.563,8.181-9.869C280.797,330.992,276.87,326.809,272.192,326.949z"/>
		<path fill="#B73533" d="M283.551,279.164c-1.452,0.885-1.773,3.016-0.716,4.76c1.062,1.746,3.102,2.443,4.557,1.555
			c1.457-0.883,1.777-3.016,0.718-4.758C287.049,278.977,285.009,278.279,283.551,279.164z"/>
		<path fill="#542424" d="M296.272,274.73c-0.857-0.313-2.138,0.406-2.882,0.764c-0.957,0.459-1.819,1.01-2.69,1.613
			c-0.577,0.404-1.154,0.809-1.723,1.229c-0.98,0.73-1.951,1.557-2.682,2.545c-0.271,0.367-1.214,1.209-0.907,1.715
			c0.386,0.629,1.51-0.203,1.884-0.449c0.807-0.525,1.586-1.064,2.446-1.5c1.71-0.875,3.566-1.563,5.43-2.025
			c0.297-0.072,0.914-0.021,1.363-0.102c0.2-0.039,0.37-0.102,0.461-0.213c0.229-0.27-0.07-0.92-0.083-1.242
			C296.862,276.4,297.109,275.029,296.272,274.73z"/>
		<path fill="#B73533" d="M296.136,275.377c-0.709-0.1-1.228,1.219-1.321,1.732c-0.038,0.211-0.027,0.521,0.034,0.773
			c0.022,0.094,0.052,0.18,0.091,0.248c0.213,0.396,0.661,0.127,1.015,0.018c0.118-0.035,0.464-0.041,0.544-0.113
			c0.22-0.205-0.026-1.072-0.02-1.371C296.486,276.314,296.656,275.451,296.136,275.377z"/>
		<path opacity="0.19" fill="#FFFFFF" enable-background="new    " d="M282.313,272.084c-2.366-1.299-4.741-1.604-7.399-0.93
			c-2.823,0.715-5.271,2.705-4.704,5.803c0.504,2.764,3.623,4.703,6.093,5.723c1.14,0.469,3.905,1.445,5.007,0.346
			c0.277-0.275,0.193-0.691,0.063-1.092c-0.317-0.938-1.141-1.395-1.25-2.447c-0.187-1.723,1.063-2.854,2.535-3.467
			c1.161-0.48,2.943-0.045,2.229-1.816C284.449,273.129,283.281,272.613,282.313,272.084z"/>
	</g>
</g>
</svg>
