<?xml version="1.0" encoding="utf-8"?>
<!-- Generator: Adobe Illustrator 15.1.0, SVG Export Plug-In . SVG Version: 6.00 Build 0)  -->
<!DOCTYPE svg PUBLIC "-//W3C//DTD SVG 1.1//EN" "http://www.w3.org/Graphics/SVG/1.1/DTD/svg11.dtd">
<svg version="1.1" id="Layer_1" xmlns="http://www.w3.org/2000/svg" xmlns:xlink="http://www.w3.org/1999/xlink" x="0px" y="0px"
	 width="512px" height="512px" viewBox="0 0 512 512" enable-background="new 0 0 512 512" xml:space="preserve">
<g>
	<g>
		<g>
			<path fill="#0992D6" d="M140.049,282.552c7.227,0,14.342-1.615,21.211,0.582c5.807,1.856,15.09,8.771,14.871,15.806
				c-0.102,3.246-3.697,6.807-6.813,7.871c-7.393,2.525-14.703-4.166-22.233-3.766c-5.301,0.279-10.476,2.879-10.105,8.672
				c0.363,5.766,8,8.32,12.91,9.664c11.705,3.291,19.199,5.691,22.479,7.201c14.42,6.688,21.633,16.531,21.633,29.527
				c0,11.488-4.92,20.873-14.763,28.154c-10.065,7.441-23.215,11.162-39.444,11.162c-7.242,0-14.902-0.701-22.904-2.467
				c-13.967-3.078-22.434-11.68-23.861-18.521c-0.954-4.564-1.004-11.469,2.855-14.514c3.838-3.029,9.678,0.693,13.52,3.809
				c4.834,3.924,8.478,8.266,14.755,10.146c6.536,1.959,14.473,2.859,20.641-0.658c4.584-2.615,4.984-8.107,0.85-11.285
				c-2.037-1.564-5.344-3.02-9.926-4.369c-15.785-4.736-34.354-11.992-41.098-27.766c-1.588-3.711-2.674-8.25-2.674-12.279
				c0-4.744,1.155-9.369,3.477-13.875C103.497,289.988,122.604,282.552,140.049,282.552z"/>
		</g>
		<g>
			<path fill="#1DC4F4" d="M139.024,278.72c6.894,0,13.713,0.979,20.265,3.178c5.537,1.856,14.356,6.179,14.146,13.214
				c-0.096,3.242-3.522,6.803-6.496,7.867c-8.104,2.908-17.268-7.188-23.596,2.129c-9.375,13.807,18.988,16.02,26.504,19.645
				c13.752,6.688,20.629,16.531,20.629,29.527c0,11.486-4.693,20.871-14.076,28.152c-9.602,7.441-22.141,11.162-37.618,11.162
				c-6.904,0-14.212-0.701-21.845-2.467c-13.317-3.078-21.504-11.271-23.58-17.07c-1.563-4.357-0.971-9.508,2.711-12.553
				c3.66-3.029,10.068-2.719,13.73,0.396c5.518,4.695,12.553,10.715,20.574,7.678c3.213-1.215,4.86-4.965,4.866-8.223
				c0.013-8.268-13.262-9.994-19.145-13.084c-8.658-4.547-16.609-11.033-20.389-20.303c-1.517-3.711-2.551-8.252-2.551-12.279
				c0-4.744,1.102-9.371,3.315-13.873C104.167,286.156,122.389,278.72,139.024,278.72z"/>
		</g>
		<g>
			<circle fill="#78E6F9" cx="110.339" cy="316.763" r="7.567"/>
			<path fill="#78E6F9" d="M185.206,359.852c0,4.18-3.39,7.566-7.564,7.566c-4.18,0-7.567-3.389-7.567-7.566
				c0-4.18,3.389-7.566,7.567-7.566C181.817,352.285,185.206,355.672,185.206,359.852z"/>
			<circle fill="#78E6F9" cx="156.476" cy="380.144" r="5.146"/>
			<circle fill="#78E6F9" cx="129.333" cy="294.782" r="5.146"/>
			<circle fill="#78E6F9" cx="160.225" cy="339.323" r="5.146"/>
			<circle fill="#78E6F9" cx="126.426" cy="335.592" r="3.328"/>
			<circle fill="#78E6F9" cx="124.697" cy="380.749" r="3.329"/>
			<path fill="#78E6F9" d="M93.983,320.252c0-4.746,1.104-9.371,3.316-13.873c7.697-15.662,25.918-23.098,42.553-23.098
				c6.896,0,13.715,0.98,20.265,3.178c4.416,1.479,10.914,4.529,13.26,9.27c0.033-0.209,0.055-0.414,0.059-0.617
				c0.211-7.035-8.608-11.355-14.146-13.214c-6.552-2.196-13.371-3.178-20.265-3.178c-16.635,0-34.856,7.437-42.553,23.099
				c-2.215,4.502-3.314,9.129-3.314,13.871c0,2.414,0.375,5.01,1,7.5C94.043,322.195,93.983,321.207,93.983,320.252z"/>
		</g>
	</g>
	<g>
		<g>
			<g>
				<path fill="#13007C" d="M237.568,195.07c0.142,0,0.282-0.006,0.424-0.021c0.423-0.041,0.732-0.419,0.688-0.84
					c-0.039-0.423-0.417-0.731-0.84-0.69c-2.659,0.268-5.5-3.367-6.953-5.558c-0.236-0.355-0.713-0.453-1.066-0.216
					c-0.354,0.235-0.45,0.713-0.216,1.067C231.532,191.707,234.442,195.07,237.568,195.07z"/>
			</g>
			<g>
				<path fill="#13007C" d="M233.802,200.345c0.023,0.002,0.049,0.002,0.071,0.002c0.393,0,0.728-0.3,0.768-0.697
					c0.039-0.423-0.275-0.797-0.695-0.838c-3.55-0.333-5.839-2.408-8.498-4.81l-0.588-0.534c-0.317-0.282-0.802-0.257-1.085,0.058
					c-0.288,0.316-0.261,0.804,0.056,1.086l0.588,0.53C227.154,197.623,229.74,199.963,233.802,200.345z"/>
			</g>
			<g>
				<path fill="#13007C" d="M225.303,205.128c1.804,0.567,4.14,1.206,6.124,1.206c0.863,0,1.661-0.121,2.316-0.42
					c0.386-0.179,0.557-0.636,0.378-1.022c-0.179-0.386-0.635-0.552-1.019-0.375c-1.246,0.571-3.713,0.284-7.338-0.855
					c-1.971-0.618-3.736-1.832-4.849-3.329c-0.252-0.34-0.735-0.414-1.077-0.16c-0.341,0.255-0.413,0.736-0.159,1.076
					C221.003,203.026,222.997,204.405,225.303,205.128z"/>
			</g>
		</g>
		
			<linearGradient id="SVGID_1_" gradientUnits="userSpaceOnUse" x1="387.8948" y1="249.2759" x2="429.8979" y2="189.1539" gradientTransform="matrix(1 0 0 -1 -41.6001 348.0098)">
			<stop  offset="0" style="stop-color:#00C7F7"/>
			<stop  offset="1" style="stop-color:#0086D4"/>
		</linearGradient>
		<path fill="url(#SVGID_1_)" d="M415.631,145.776c14.41-10.764,15.815-15.912,6.612-27.854
			c-15.03-19.506-41.227-29.281-65.491-24.415c-19.243,3.859-63.704,26.404-41.349,50.102c9.603,10.18,23.507,13.409,34.767,20.936
			c13.833,9.242,29.938,18.489,41.862,30.151c3.053,2.986,5.809,9.824,9.803,11.447c15.371,6.257,8.934-27.506,8.456-33.727
			C409.673,164.309,408.086,151.412,415.631,145.776z"/>
		
			<linearGradient id="SVGID_2_" gradientUnits="userSpaceOnUse" x1="446.1252" y1="185.8447" x2="429.1889" y2="208.0234" gradientTransform="matrix(1 0 0 -1 -41.6001 348.0098)">
			<stop  offset="0" style="stop-color:#007AC2"/>
			<stop  offset="0.3003" style="stop-color:#007CC5;stop-opacity:0.6961"/>
			<stop  offset="0.5298" style="stop-color:#0082CF;stop-opacity:0.4638"/>
			<stop  offset="0.7359" style="stop-color:#008DDF;stop-opacity:0.2553"/>
			<stop  offset="0.9271" style="stop-color:#009BF6;stop-opacity:0.0618"/>
			<stop  offset="0.9882" style="stop-color:#00A1FF;stop-opacity:0"/>
		</linearGradient>
		<path fill="url(#SVGID_2_)" d="M415.631,145.776c7.746-5.788,15.492-12.954,1.666-14.916c-6.458-0.918-14.705,0.382-20.777,2.74
			c-24.397,9.475-34.424,31.141-15.508,51.955c4.785,5.264,14.508,18.021,20.824,20.591c15.371,6.254,8.935-27.509,8.456-33.729
			C409.673,164.309,408.086,151.412,415.631,145.776z"/>
		
			<linearGradient id="SVGID_3_" gradientUnits="userSpaceOnUse" x1="388.3948" y1="248.4082" x2="405.9716" y2="222.8421" gradientTransform="matrix(1 0 0 -1 -41.6001 348.0098)">
			<stop  offset="0" style="stop-color:#FFFFFF;stop-opacity:0.6727"/>
			<stop  offset="1" style="stop-color:#31A6D2"/>
		</linearGradient>
		<path opacity="0.4" fill="url(#SVGID_3_)" enable-background="new    " d="M335.303,147.333
			c6.662-3.799,11.443-8.918,16.584-14.364c12.25-12.968,25.809-16.356,42.879-16.722c2.736-0.06,15.046,2.199,21.7,2.397
			c2.292,0.067,3.911-0.109,4.237-0.709c2.382-4.389-13.482-14.116-16.619-16.013c-13.993-8.461-31.277-11.637-47.329-8.417
			c-15.457,3.101-35.271,14.279-43.602,25.562C302.499,133.501,316.906,157.817,335.303,147.333z"/>
		
			<linearGradient id="SVGID_4_" gradientUnits="userSpaceOnUse" x1="343.3274" y1="211.8149" x2="418.5152" y2="-61.927" gradientTransform="matrix(1 0 0 -1 -41.6001 348.0098)">
			<stop  offset="0" style="stop-color:#00C7F7"/>
			<stop  offset="0.2524" style="stop-color:#00BCF1"/>
			<stop  offset="0.6978" style="stop-color:#009EE1"/>
			<stop  offset="1" style="stop-color:#0086D4"/>
		</linearGradient>
		<path fill="url(#SVGID_4_)" d="M417.441,193.653c-4.314-11.905-10.66-22.985-18.925-32.351
			c-15.61-17.68-42.891-37.496-70.267-39.449c-38.479-2.747-65.162,15.871-82.85,47.925c-15.216,27.582-19.075,57.229-8.073,88.956
			c3.705,10.679,11.463,23.18,19.398,27.719c9.212,5.267,28.473,4.255,38.915,1.104c14.421-4.354,28.033-8.719,41.534-16.163
			c0.569,5.46,1.811,12.845,0.779,18.585c-2.175,12.091-12.346,23.505-21.875,36.748c-0.344,0.484-0.649,0.945-0.92,1.387
			c-2.513,0.078-5.595,0.337-9.108,0.908c-7.011,1.141-12.93,2.657-20.432,5.416c-7.351,2.7-29.491,14.295-22.889,23.349
			c4.176,5.721,13.292,4.42,21.727,4.223c16.491-0.376,11.258,7.105,14.336,17.239c2.944,9.683,12.197,18.409,20.79,24.598
			c5.778,4.159,32.493,18.236,36.983,8.546c2.854-6.142-8.546-14.792-14.176-24.211c-10.91-18.261-19.088-42.158-5.268-52.849
			c14.744-2.631,31.716-8.067,35.678-10.239c29.121-15.959,38.442-31.941,46.717-55.069
			C427.775,246.93,425.971,217.208,417.441,193.653z"/>
		<path opacity="0.09" fill="#FFFFFF" enable-background="new    " d="M307.457,365.2c-0.532-4.41-4.57-7.394-8.787-7.901
			c-2.68-0.32-5.372,0.195-7.891,1.1c-2.145,0.767-4.93,1.664-6.443,3.456l0.117,0.152c3.919-0.091,9.477-0.169,11.775,3.709
			c0.795,1.335,0.899,2.952,1.107,4.459c0.266,1.896,0.313,3.807,0.633,5.691c0.818,4.785,3.549,10.241,6.54,13.884
			c1.456,1.773,2.665,3.316,4.248,4.971c0.815,0.851,1.948,1.867,2.813,2.667c0.45,0.415,8.04,7.705,17.379,11.762
			c-7.795-5.776-18.985-15.892-22.226-30.022C305.673,374.547,308.015,369.835,307.457,365.2z"/>
		<path opacity="0.09" fill="#FFFFFF" enable-background="new    " d="M302.542,329.796c-5.629,1.379-11.479,2.635-16.928,4.64
			c-7.35,2.7-29.49,14.295-22.886,23.351c3.223,4.42,9.675,4.703,14.648,4.472c1.642-0.076,9.683-0.483,9.683-0.483
			s-4.489-3.797-5.645-4.647c-2.359-1.741-3.201-4.301-1.811-6.951c0.659-1.254,1.855-2.097,2.522-3.305
			c0.748-1.348,1.175-2.207,2.5-3.181c1.583-1.163,3.401-2.081,5.084-3.099c3.207-1.948,6.666-3.596,10.091-5.147
			c3.047-1.378,5.803-2.963,8.903-4.043c1.108-0.385,2.242-0.777,3.353-1.188c0.855-0.316,2.209-0.393,2.693-1.243
			C310.631,327.507,306.664,328.789,302.542,329.796z"/>
		<path opacity="0.17" fill="#006BAB" enable-background="new    " d="M337.884,334.813c-8.063,3.387-16.681,7.007-19.679,19.247
			c-1.504,6.146-1.354,15.37,1.5,21.608c4.297,9.402,9.916,18.104,18.858,23.979c4.4,2.89,11.898,6.247,17.239,6.869
			c-3.623-5.74-10.402-13.305-13.414-18.341C333.902,373.979,321.088,347.811,337.884,334.813z"/>
		<path fill="#0599CC" d="M294.123,286.601c17.206-4.785,38.023-9.33,52.889-19.717c1.704-1.188,7.055-4.526,8.795-6.022
			c10.112-8.708,20.326-18.232,24.339-29.604c3.944-11.182-15.329-20.058-29.271-14.8c-18.892,7.127-21.271,19.888-38.69,37.311
			c-22.216,22.218-42.217,30.745-60.045,29.255C261.24,292.593,286.404,288.744,294.123,286.601z"/>
		<path fill="#CDDBE0" d="M297.967,291.344c20.952-4.932,34.179-12.119,49.045-22.504c1.704-1.188,7.055-4.522,8.795-6.026
			c10.112-8.706,20.326-18.229,24.339-29.602c3.944-11.183-15.329-20.057-29.271-14.798c-18.892,7.126-21.271,19.892-38.69,37.308
			c-22.216,22.219-41.154,30.361-58.984,28.874C263.409,295.15,288.01,293.686,297.967,291.344z"/>
		
			<linearGradient id="SVGID_5_" gradientUnits="userSpaceOnUse" x1="342.5784" y1="109.6851" x2="377.1679" y2="72.0682" gradientTransform="matrix(1 0 0 -1 -41.6001 348.0098)">
			<stop  offset="0" style="stop-color:#FFFFFF"/>
			<stop  offset="1" style="stop-color:#FFFFFF;stop-opacity:0"/>
		</linearGradient>
		<path fill="url(#SVGID_5_)" d="M297.967,291.344c20.952-4.932,34.179-12.119,49.045-22.504c1.704-1.188,7.055-4.522,8.795-6.026
			c10.112-8.706,20.326-18.229,24.339-29.602c3.944-11.183-15.329-20.057-29.271-14.798c-18.892,7.126-21.271,19.892-38.69,37.308
			c-22.216,22.219-41.154,30.361-58.984,28.874C263.409,295.15,288.01,293.686,297.967,291.344z"/>
		
			<linearGradient id="SVGID_6_" gradientUnits="userSpaceOnUse" x1="343.136" y1="109.4595" x2="377.3854" y2="72.2125" gradientTransform="matrix(1 0 0 -1 -41.6001 348.0098)">
			<stop  offset="0" style="stop-color:#FFFFFF"/>
			<stop  offset="0.6584" style="stop-color:#DFE8EB"/>
			<stop  offset="1" style="stop-color:#CDDBE0"/>
		</linearGradient>
		<path fill="url(#SVGID_6_)" d="M297.967,291.344c20.952-4.932,34.179-12.119,49.045-22.504c1.704-1.188,7.055-4.522,8.795-6.026
			c10.112-8.706,20.326-18.229,24.339-29.602c3.944-11.183-15.329-20.057-29.271-14.798c-18.892,7.126-21.271,19.892-38.69,37.308
			c-22.216,22.219-40.419,30.396-58.247,28.911C264.145,295.186,288.01,293.686,297.967,291.344z"/>
		
			<linearGradient id="SVGID_7_" gradientUnits="userSpaceOnUse" x1="287.7258" y1="186.77" x2="314.4414" y2="168.0123" gradientTransform="matrix(1 0 0 -1 -41.6001 348.0098)">
			<stop  offset="0" style="stop-color:#FFFFFF;stop-opacity:0.6727"/>
			<stop  offset="1" style="stop-color:#00C7F7"/>
		</linearGradient>
		<path opacity="0.49" fill="url(#SVGID_7_)" enable-background="new    " d="M239.547,259.549
			c1.821-43.117,21.892-87.087,56.863-113.838c15.557-11.903,27.495-19.558,47.25-19.053c-12.171-11.036-42.718-2.57-55.98,3.753
			c-16.563,7.894-29.666,22.3-38.382,38.106c-12.045,21.832-17.137,39.574-15.164,65.227c0.494,6.411,2.822,19.931,5.262,25.983
			L239.547,259.549z"/>
		<path opacity="0.37" fill="#FFFFFF" enable-background="new    " d="M378.573,186.612c-1.958-4.637-11.563-14.558-17.959-9.744
			c-6.519,4.909,3.853,8.768,7.042,12.217c4.917,5.318,1.652,19.618,1.652,21.199C379.556,208.669,381.52,193.582,378.573,186.612z"
			/>
		<path opacity="0.37" fill="#FFFFFF" enable-background="new    " d="M384.26,209.207c8.511,5.14,10.688-7.59,9.93-11.675
			c-1.298-7.005-8.134-15.921-15.179-18.362c3.234,6.898,5.217,12.793,4.816,20.767C383.695,202.565,380.024,206.653,384.26,209.207
			z"/>
		
			<linearGradient id="SVGID_8_" gradientUnits="userSpaceOnUse" x1="400.55" y1="155.4736" x2="422.9426" y2="155.4736" gradientTransform="matrix(1 0 0 -1 -41.6001 348.0098)">
			<stop  offset="0" style="stop-color:#28388F"/>
			<stop  offset="1" style="stop-color:#3759A6"/>
		</linearGradient>
		<path fill="url(#SVGID_8_)" d="M369.339,208.617c0.008,0.13,0.012,0.259,0.018,0.389c7.985-2.579,10.281-16.068,6.819-22.783
			c-2.311-4.469-10.154-12.917-15.828-9.261c-6.859,4.421,2.694,8.203,5.881,11.652
			C371.147,193.932,369.027,201.081,369.339,208.617z"/>
		
			<linearGradient id="SVGID_9_" gradientUnits="userSpaceOnUse" x1="423.3235" y1="154.5225" x2="436.7639" y2="154.5225" gradientTransform="matrix(1 0 0 -1 -41.6001 348.0098)">
			<stop  offset="0" style="stop-color:#28388F"/>
			<stop  offset="1" style="stop-color:#3759A6"/>
		</linearGradient>
		<path fill="url(#SVGID_9_)" d="M383.492,206.797c7.468,5.064,9.048-6.349,8.291-10.438c-1.298-7.002-6.711-14.519-13.271-17.454
			c2.149,7.291,5.208,11.094,4.805,19.068C383.187,200.6,380.384,204.687,383.492,206.797z"/>
		<path fill="#CDDBE0" d="M360.863,303.191c9.051-10.621,14.697-19.634,18.153-34.037c2.151-8.963,2.495-18.371,2.385-27.548
			c-0.016-1.121-0.555-11.572-1.106-11.003c-3.147,3.249-4.182,8.014-6.583,11.805c-5.441,8.57-12.941,15.662-21.32,21.324
			c-4.165,2.813-18.655,9.424-18.655,9.424s-0.593,11.328-2.68,22.178c-3.062,15.916-11.036,23.515-16.285,32.558
			C311.016,334.352,348.018,318.265,360.863,303.191z"/>
		<g>
			<path opacity="0.4" fill="#FFFFFF" enable-background="new    " d="M329.587,301.249c-3.668,12.035-10.267,18.8-14.817,26.641
				c-3.599,6.192,30.214-8.322,44.345-22.806c-15.627,13.099-43.585,24.73-40.302,19.072
				C323.307,316.413,328.769,310.588,329.587,301.249z"/>
			<path fill="#CDDBE0" d="M380.774,232.549c-0.149-1.276-0.313-2.119-0.48-1.946c-3.147,3.249-4.182,8.014-6.583,11.805
				c-2.651,4.169-5.791,7.982-9.277,11.46c5.12-4.42,9.689-9.469,13.318-15.195C378.959,236.774,379.819,234.629,380.774,232.549z"
				/>
		</g>
		
			<linearGradient id="SVGID_10_" gradientUnits="userSpaceOnUse" x1="396.9446" y1="80.7598" x2="406.384" y2="59.993" gradientTransform="matrix(1 0 0 -1 -41.6001 348.0098)">
			<stop  offset="0" style="stop-color:#AFC4CC"/>
			<stop  offset="0.3639" style="stop-color:#B5C9D0"/>
			<stop  offset="0.8629" style="stop-color:#C7D6DC"/>
			<stop  offset="1" style="stop-color:#CDDBE0"/>
		</linearGradient>
		<path fill="url(#SVGID_10_)" d="M375.419,242.926c-7.422,11.697-16.438,17.964-21.347,21.849
			c-6.813,5.398-20.25,13.186-20.643,12.218c-0.063,0.799,0.177,13.828-3.694,25.043c-1.066,3.082,19.502-6.622,20.887-7.558
			c17.217-11.617,18.536-20.02,20.73-24.611c3.861-8.075,7.237-21.465,9.508-29.799c0.855-3.125-0.666-8.408-0.281-8.804
			C378.31,234.764,377.824,239.141,375.419,242.926z"/>
		
			<linearGradient id="SVGID_11_" gradientUnits="userSpaceOnUse" x1="422.1467" y1="116.5732" x2="422.2077" y2="116.439" gradientTransform="matrix(1 0 0 -1 -41.6001 348.0098)">
			<stop  offset="0" style="stop-color:#A6BAC2"/>
			<stop  offset="0.5103" style="stop-color:#B8C9D0;stop-opacity:0.4897"/>
			<stop  offset="1" style="stop-color:#CDDBE0;stop-opacity:0"/>
		</linearGradient>
		<path fill="url(#SVGID_11_)" d="M380.515,231.615c0.021-0.117,0.046-0.235,0.065-0.351
			C380.532,231.313,380.515,231.434,380.515,231.615z"/>
		<path opacity="0.1" fill="#00C7F7" enable-background="new    " d="M380.491,229.987c-1.526,4.917-6.414,10.872-7.806,12.619
			c-5.817,7.292-9.021,9.731-18.346,18.65c-3.126,2.988-18.818,14.96-19.53,15.187c5.648-2.521,17.876-10.972,21.456-13.666
			C372.278,250.713,382.378,234.288,380.491,229.987z"/>
		
			<linearGradient id="SVGID_12_" gradientUnits="userSpaceOnUse" x1="439.1428" y1="97.1328" x2="457.7322" y2="54.7905" gradientTransform="matrix(1 0 0 -1 -41.6001 348.0098)">
			<stop  offset="0.241" style="stop-color:#0092DA"/>
			<stop  offset="1" style="stop-color:#00A7E6"/>
		</linearGradient>
		<path fill="url(#SVGID_12_)" d="M391.991,283.186c6.636,4.241,15.365,7.231,22.972,9.117c1.307,0.329,6.423,1.934,7.168-0.281
			c3.785-11.209,4.765-16.432,3.352-27.697c-0.966-7.713-4.565-19.02-13.043-21.382c-6.67-1.862-10.658,3.104-14.233,7.952
			c-3.713,5.037-11.112,1.805-15.474,5.446c-4.083,3.41-1.825,10.52-0.247,14.711C384.317,275.918,387.577,280.367,391.991,283.186z
			"/>
		
			<linearGradient id="SVGID_13_" gradientUnits="userSpaceOnUse" x1="454.3635" y1="104.6792" x2="454.1964" y2="104.4702" gradientTransform="matrix(1 0 0 -1 -41.6001 348.0098)">
			<stop  offset="0" style="stop-color:#FFFFFF;stop-opacity:0.6727"/>
			<stop  offset="1" style="stop-color:#FFFFFF;stop-opacity:0"/>
		</linearGradient>
		<path opacity="0.67" fill="url(#SVGID_13_)" enable-background="new    " d="M412.314,243.422c0.268,0.07,0.524,0.149,0.778,0.227
			C412.3,243.261,411.927,243.325,412.314,243.422z"/>
		<path opacity="0.1" fill="#FFFFFF" enable-background="new    " d="M421.89,292.47c0,0,1.949-5.702,2.326-7.071
			c0.62-2.204,1.143-4.434,1.471-6.702c1.198-8.319,0.464-17.775-3.121-25.447c-2.44-5.23-5.222-8.257-9.476-9.6
			c2.722,1.33,10.371,7.958,9.206,36.562C422.17,283.334,422.216,287.771,421.89,292.47z"/>
		<path opacity="0.1" fill="#FFFFFF" enable-background="new    " d="M421.763,292.734c-1.135-3-5.058-7.426-15.571-13.515
			c-3.121-1.806-13.048-10.38-18.737-16.604c-0.925-1.009-6.494-2.163-6.82-2.624c-0.016-0.024,1.252,2.846,1.669,3.598
			c0.67,1.209,1.332,2.242,1.886,3.111C393.115,280.656,421.763,292.734,421.763,292.734z"/>
		<path opacity="0.33" fill="#006BAB" enable-background="new    " d="M378.822,275.865c0.477,7.938,2.875,15.404,8.04,21.788
			c3.176,3.925,12.551,8.686,16.247,3.398c0.55-0.789,7.321-10.467,7.469-10.337c-7.078-6.208-31.442-15.938-30.062-29.396
			c-0.404,3.945-1.804,7.777-1.784,11.753C378.737,274.01,378.767,274.938,378.822,275.865z"/>
		<path fill="#CDDBE0" d="M421.618,292.775c-3.322-1.617-7.013-3.382-10.795-5.354c-14.27-7.437-29.828-17.777-31.74-33.934
			c-0.002-0.009-0.002-0.024-0.008-0.035c1.221,10.43,2.787,21.924,10.715,29.49C396.85,289.677,412.439,299.71,421.618,292.775z"/>
		<path fill="#177199" d="M278.727,277.468c-0.041-0.165-0.121-0.331-0.254-0.481c-0.991-1.143-3.812-8.986-4.309-0.164
			c-0.101,1.765-0.099,3.376,1.504,3.817C276.926,280.985,279.024,278.774,278.727,277.468z"/>
		<path fill="#F2F2F2" d="M303.66,239.051c9.271-1.098,21.043-7.94,26.01-17.005c5.752-10.501,4.122-28.759-7.634-35.194
			c-5.578-3.059-11.617-4.786-17.434-4.545c-5.814,0.241-12.571,2.611-17.268,7.418c-8.142,8.328-9.842,25.861-8.169,37.218
			C281.031,239.628,293.094,240.306,303.66,239.051z"/>
		<path fill="#2E58A6" d="M321.642,231.247c2.462-1.891,5.786-5.063,7.052-7.418c5.75-10.716,4.12-29.338-7.633-35.907
			c-5.583-3.121-11.618-4.883-17.437-4.637c-5.813,0.246-12.568,2.663-17.268,7.567c-4.465,4.66-6.981,12.146-8.08,19.863
			c4.158,13.166,16.768,22.737,31.683,22.737C314.97,233.454,317.385,233.182,321.642,231.247z"/>
		
			<linearGradient id="SVGID_14_" gradientUnits="userSpaceOnUse" x1="332.5745" y1="142.0313" x2="370.5337" y2="140.0333" gradientTransform="matrix(1 0 0 -1 -41.6001 348.0098)">
			<stop  offset="0.0121" style="stop-color:#0086A6"/>
			<stop  offset="1" style="stop-color:#005D94"/>
		</linearGradient>
		<path fill="url(#SVGID_14_)" d="M324.753,228.511c2.292-2.044,3.806-4.204,5.069-6.511c5.753-10.499,7.279-25.307-4.601-34.174
			c-5.099-3.807-14.803-5.76-20.62-5.519c-5.814,0.241-12.571,2.611-17.269,7.418c-4.465,4.57-6.979,11.902-8.079,19.467
			c4.154,12.908,16.768,22.291,31.68,22.291C315.948,231.481,320.495,230.412,324.753,228.511z"/>
		<g>
			<g>
				<path fill="#13007C" d="M290.117,186.759c0.113,0,0.228-0.026,0.335-0.078c0.709-0.34,1.435-0.66,2.134-0.972
					c1.812-0.804,3.688-1.634,5.44-2.891c3.092-2.219,4.397-3.445,6.639-6.25c1.725-2.151,2.741-3.792,3.113-5.019
					c0.123-0.409-0.108-0.836-0.514-0.961c-0.409-0.121-0.836,0.11-0.96,0.516c-0.306,1.019-1.265,2.533-2.838,4.501
					c-2.164,2.704-3.348,3.82-6.337,5.961c-1.626,1.165-3.346,1.927-5.166,2.735c-0.711,0.316-1.446,0.641-2.177,0.994
					c-0.381,0.183-0.544,0.643-0.359,1.028C289.558,186.597,289.835,186.759,290.117,186.759z"/>
			</g>
			<g>
				<path fill="#13007C" d="M306.008,182.682c2.548,0,5.918-2.19,7.7-3.497c1.72-1.257,4.066-2.979,4.803-5.135
					c0.138-0.401-0.078-0.838-0.481-0.976c-0.402-0.138-0.838,0.078-0.976,0.48c-0.578,1.695-2.79,3.314-4.254,4.389
					c-2.776,2.037-5.249,3.199-6.791,3.199c-0.011,0-0.02,0-0.02,0c-0.429,0-0.773,0.341-0.776,0.765
					c-0.002,0.425,0.341,0.772,0.768,0.774C305.982,182.682,305.999,182.682,306.008,182.682z"/>
			</g>
			<g>
				<path fill="#13007C" d="M313.21,183.715c0.054,0,0.11-0.006,0.167-0.017c0.575-0.127,1.152-0.236,1.761-0.349
					c1.866-0.355,3.801-0.719,5.635-1.593l0.49-0.232c1.773-0.828,3.983-1.862,4.88-3.701c0.188-0.38,0.029-0.842-0.354-1.03
					c-0.38-0.185-0.842-0.026-1.028,0.358c-0.657,1.347-2.597,2.252-4.151,2.981c-0.171,0.078-0.337,0.156-0.496,0.232
					c-1.655,0.791-3.488,1.136-5.261,1.469c-0.595,0.11-1.207,0.229-1.806,0.36c-0.415,0.09-0.678,0.501-0.588,0.916
					C312.538,183.471,312.857,183.715,313.21,183.715z"/>
			</g>
			<g>
				<path fill="#13007C" d="M320.34,186.81c1.846-0.123,3.753-0.466,5.842-1.05c0.216-0.06,0.456-0.125,0.715-0.193
					c1.755-0.468,3.938-1.05,4.884-2.11c0.279-0.317,0.252-0.804-0.067-1.086c-0.316-0.282-0.803-0.253-1.085,0.066
					c-0.635,0.713-2.82,1.298-4.128,1.646c-0.265,0.069-0.512,0.136-0.735,0.198c-1.982,0.554-3.789,0.881-5.527,0.994
					c-0.42,0.028-0.744,0.396-0.715,0.82c0.026,0.407,0.365,0.72,0.768,0.72C320.306,186.813,320.323,186.813,320.34,186.81z"/>
			</g>
			<g>
				<path fill="#13007C" d="M325.639,191.842c2.029,0.319,4.188,0.66,6.357,0.66c2.145,0,4.297-0.331,6.331-1.345
					c0.383-0.19,0.539-0.651,0.35-1.031c-0.188-0.38-0.649-0.537-1.03-0.345c-3.66,1.819-7.782,1.171-11.768,0.543l-0.162-0.024
					c-0.418-0.066-0.811,0.22-0.88,0.641c-0.065,0.418,0.222,0.811,0.642,0.877L325.639,191.842z"/>
			</g>
			<g>
				<path fill="#13007C" d="M331.324,198.085c0.373,0.086,0.756,0.175,1.124,0.22l0.222,0.026c0.892,0.105,1.814,0.216,2.749,0.278
					c0.381,0.024,0.907,0.049,1.484,0.049c1.629,0,3.7-0.194,4.359-1.104c0.249-0.345,0.177-0.83-0.168-1.078
					c-0.346-0.249-0.824-0.175-1.073,0.17c-0.302,0.321-2.228,0.576-4.502,0.427c-0.895-0.058-1.796-0.167-2.667-0.271l-0.22-0.026
					c-0.288-0.032-0.614-0.11-0.96-0.191c-0.667-0.154-1.355-0.313-2.021-0.246c-0.421,0.041-0.731,0.418-0.688,0.841
					c0.043,0.423,0.421,0.729,0.842,0.69C330.218,197.827,330.782,197.957,331.324,198.085z"/>
			</g>
		</g>
		
			<radialGradient id="SVGID_15_" cx="354.2844" cy="146.6714" r="27.5011" gradientTransform="matrix(1 0 0 -0.9751 -41.6001 340.2845)" gradientUnits="userSpaceOnUse">
			<stop  offset="0" style="stop-color:#000000"/>
			<stop  offset="0.2548" style="stop-color:#010003"/>
			<stop  offset="0.4195" style="stop-color:#03020B"/>
			<stop  offset="0.5588" style="stop-color:#08051A"/>
			<stop  offset="0.6837" style="stop-color:#0E082F"/>
			<stop  offset="0.7992" style="stop-color:#160D4A"/>
			<stop  offset="0.9062" style="stop-color:#20136B"/>
			<stop  offset="1" style="stop-color:#2B198F"/>
		</radialGradient>
		<path fill="url(#SVGID_15_)" d="M332.046,215.575c5.192-9.339,2.021-23.634-9.931-31.163c-11.944-7.53-27.978-4.902-33.885,3.997
			c-7.515,11.316-2.406,24.35,9.882,31.644C309.576,226.857,326.736,225.117,332.046,215.575z"/>
		
			<radialGradient id="SVGID_16_" cx="343.6145" cy="151.3452" r="8.6232" gradientTransform="matrix(1 0 0 -0.9811 -41.6001 342.0833)" gradientUnits="userSpaceOnUse">
			<stop  offset="0" style="stop-color:#FFFFFF"/>
			<stop  offset="0.0944" style="stop-color:#F7F7F7"/>
			<stop  offset="0.2383" style="stop-color:#E3E2E2"/>
			<stop  offset="0.4138" style="stop-color:#C1BFC0"/>
			<stop  offset="0.6142" style="stop-color:#918F90"/>
			<stop  offset="0.8326" style="stop-color:#565353"/>
			<stop  offset="1" style="stop-color:#231F20"/>
		</radialGradient>
		<circle fill="url(#SVGID_16_)" cx="302.015" cy="193.729" r="8.851"/>
		
			<radialGradient id="SVGID_17_" cx="359.9573" cy="136.2061" r="6.1265" gradientTransform="matrix(1 0 0 -1 -41.6001 348.0098)" gradientUnits="userSpaceOnUse">
			<stop  offset="0" style="stop-color:#FFFFFF"/>
			<stop  offset="0.0944" style="stop-color:#F7F7F7"/>
			<stop  offset="0.2383" style="stop-color:#E3E2E2"/>
			<stop  offset="0.4138" style="stop-color:#C1BFC0"/>
			<stop  offset="0.6142" style="stop-color:#918F90"/>
			<stop  offset="0.8326" style="stop-color:#565353"/>
			<stop  offset="1" style="stop-color:#231F20"/>
		</radialGradient>
		<path fill="url(#SVGID_17_)" d="M324.484,211.803c0-3.383-2.742-6.125-6.125-6.125c-3.387,0-6.128,2.742-6.128,6.125
			c0,3.386,2.741,6.127,6.128,6.127C321.741,217.93,324.484,215.188,324.484,211.803z"/>
		
			<linearGradient id="SVGID_18_" gradientUnits="userSpaceOnUse" x1="317.5793" y1="139.5146" x2="339.1624" y2="139.5146" gradientTransform="matrix(1 0 0 -1 -41.6001 348.0098)">
			<stop  offset="0" style="stop-color:#28388F"/>
			<stop  offset="1" style="stop-color:#4A82C4"/>
		</linearGradient>
		<path fill="url(#SVGID_18_)" d="M288.257,193.367c4.211-7.654,8.425-11.594,9.305-12.278c-7.562,1.289-14.678,6.545-18.444,16.218
			c-1.625,4.189-3.938,12.004-2.864,20.067c0.608,4.565,2.449,17.059,7.85,18.527c-3.013-4.73-2.831-16.686-2.116-20.5
			C283.601,206.804,284.317,200.532,288.257,193.367z"/>
		<path opacity="0.2" fill="#FFFFFF" enable-background="new    " d="M286.656,190.068c2.754-3.432,7.47-5.469,9.965-8.895
			c-8.212,0.763-14.729,9.002-17.504,16.134c-1.625,4.189-3.938,12.004-2.864,20.067c0.559,4.186,1.117,10.762,3.713,15.097
			c-0.855-1.492-1.405-3.261-1.721-5.201c-1.382-8.525-0.635-17.502,2.199-25.665C281.874,197.48,283.92,193.486,286.656,190.068z"
			/>
		<g>
			<path fill="#F2F2F2" d="M335.17,276.301c8.753-6.582,7.247-16.744-1.842-22.629c-1.167-0.754-5.131,0.953-3.408,2.064
				c7.878,5.103,6.791,16.487-0.078,23.202C327.642,281.09,334.006,277.174,335.17,276.301z"/>
		</g>
		<g>
			<path fill="#949ABC" d="M328.06,278.769c-1.694,1.043,0.88,1.444,1.819,0.864c9.276-5.71,10.919-18.967,1.571-25.5
				c-0.853-0.593-3.528,0.59-2.73,1.149C337.017,261.077,336.75,273.418,328.06,278.769z"/>
		</g>
		<g>
			<path fill="#949ABC" d="M336.914,250.381c0.768-1.429-2.247-1.348-2.826-0.271c-2.051,3.822-6.868,4.663-10.499,2.499
				c-1.048-0.625-3.702,0.82-2.308,1.648C326.501,257.367,333.98,255.844,336.914,250.381z"/>
		</g>
		
			<radialGradient id="SVGID_19_" cx="306.8215" cy="130.4946" r="4.8889" gradientTransform="matrix(1 0 0 -1 -41.6001 348.0098)" gradientUnits="userSpaceOnUse">
			<stop  offset="0" style="stop-color:#FFFFFF"/>
			<stop  offset="0.254" style="stop-color:#FDFEFF"/>
			<stop  offset="0.3913" style="stop-color:#F5FDFF"/>
			<stop  offset="0.5007" style="stop-color:#E7FAFE"/>
			<stop  offset="0.5955" style="stop-color:#D4F5FE"/>
			<stop  offset="0.6807" style="stop-color:#BBF0FD"/>
			<stop  offset="0.7592" style="stop-color:#9CE9FC"/>
			<stop  offset="0.8324" style="stop-color:#77E1FB"/>
			<stop  offset="0.9016" style="stop-color:#4CD8F9"/>
			<stop  offset="0.965" style="stop-color:#1DCDF8"/>
			<stop  offset="1" style="stop-color:#00C7F7"/>
		</radialGradient>
		<path opacity="0.4" fill="url(#SVGID_19_)" enable-background="new    " d="M268.565,221.086c1.968-1.845,2.071-4.939,0.229-6.91
			c-1.843-1.971-4.938-2.076-6.912-0.233c-1.972,1.846-2.077,4.939-0.229,6.91C263.497,222.824,266.592,222.931,268.565,221.086z"/>
		
			<radialGradient id="SVGID_20_" cx="379.8284" cy="181.1274" r="4.8887" gradientTransform="matrix(1 0 0 -1 -41.6001 348.0098)" gradientUnits="userSpaceOnUse">
			<stop  offset="0" style="stop-color:#FFFFFF"/>
			<stop  offset="0.254" style="stop-color:#FDFEFF"/>
			<stop  offset="0.3913" style="stop-color:#F5FDFF"/>
			<stop  offset="0.5007" style="stop-color:#E7FAFE"/>
			<stop  offset="0.5955" style="stop-color:#D4F5FE"/>
			<stop  offset="0.6807" style="stop-color:#BBF0FD"/>
			<stop  offset="0.7592" style="stop-color:#9CE9FC"/>
			<stop  offset="0.8324" style="stop-color:#77E1FB"/>
			<stop  offset="0.9016" style="stop-color:#4CD8F9"/>
			<stop  offset="0.965" style="stop-color:#1DCDF8"/>
			<stop  offset="1" style="stop-color:#00C7F7"/>
		</radialGradient>
		<path opacity="0.4" fill="url(#SVGID_20_)" enable-background="new    " d="M341.569,170.454c1.97-1.845,2.075-4.937,0.228-6.912
			c-1.841-1.97-4.936-2.076-6.905-0.23c-1.976,1.845-2.078,4.938-0.232,6.91C336.5,172.195,339.598,172.295,341.569,170.454z"/>
		
			<radialGradient id="SVGID_21_" cx="390.8625" cy="161.4399" r="4.8877" gradientTransform="matrix(1 0 0 -1 -41.6001 348.0098)" gradientUnits="userSpaceOnUse">
			<stop  offset="0" style="stop-color:#FFFFFF"/>
			<stop  offset="0.254" style="stop-color:#FDFEFF"/>
			<stop  offset="0.3913" style="stop-color:#F5FDFF"/>
			<stop  offset="0.5007" style="stop-color:#E7FAFE"/>
			<stop  offset="0.5955" style="stop-color:#D4F5FE"/>
			<stop  offset="0.6807" style="stop-color:#BBF0FD"/>
			<stop  offset="0.7592" style="stop-color:#9CE9FC"/>
			<stop  offset="0.8324" style="stop-color:#77E1FB"/>
			<stop  offset="0.9016" style="stop-color:#4CD8F9"/>
			<stop  offset="0.965" style="stop-color:#1DCDF8"/>
			<stop  offset="1" style="stop-color:#00C7F7"/>
		</radialGradient>
		<path opacity="0.4" fill="url(#SVGID_21_)" enable-background="new    " d="M352.6,190.141c1.973-1.847,2.078-4.939,0.232-6.91
			c-1.843-1.971-4.938-2.076-6.91-0.232c-1.969,1.845-2.073,4.937-0.23,6.908C347.535,191.879,350.627,191.984,352.6,190.141z"/>
		
			<radialGradient id="SVGID_22_" cx="320.5862" cy="175.3418" r="4.8882" gradientTransform="matrix(1 0 0 -1 -41.6001 348.0098)" gradientUnits="userSpaceOnUse">
			<stop  offset="0" style="stop-color:#FFFFFF"/>
			<stop  offset="0.254" style="stop-color:#FDFEFF"/>
			<stop  offset="0.3913" style="stop-color:#F5FDFF"/>
			<stop  offset="0.5007" style="stop-color:#E7FAFE"/>
			<stop  offset="0.5955" style="stop-color:#D4F5FE"/>
			<stop  offset="0.6807" style="stop-color:#BBF0FD"/>
			<stop  offset="0.7592" style="stop-color:#9CE9FC"/>
			<stop  offset="0.8324" style="stop-color:#77E1FB"/>
			<stop  offset="0.9016" style="stop-color:#4CD8F9"/>
			<stop  offset="0.965" style="stop-color:#1DCDF8"/>
			<stop  offset="1" style="stop-color:#00C7F7"/>
		</radialGradient>
		<path opacity="0.4" fill="url(#SVGID_22_)" enable-background="new    " d="M282.325,176.241c1.97-1.848,2.075-4.941,0.232-6.912
			c-1.846-1.972-4.938-2.076-6.91-0.23c-1.973,1.845-2.076,4.938-0.232,6.91C277.26,177.979,280.355,178.082,282.325,176.241z"/>
		
			<radialGradient id="SVGID_23_" cx="309.3499" cy="153.6191" r="4.8889" gradientTransform="matrix(1 0 0 -1 -41.6001 348.0098)" gradientUnits="userSpaceOnUse">
			<stop  offset="0" style="stop-color:#FFFFFF"/>
			<stop  offset="0.254" style="stop-color:#FDFEFF"/>
			<stop  offset="0.3913" style="stop-color:#F5FDFF"/>
			<stop  offset="0.5007" style="stop-color:#E7FAFE"/>
			<stop  offset="0.5955" style="stop-color:#D4F5FE"/>
			<stop  offset="0.6807" style="stop-color:#BBF0FD"/>
			<stop  offset="0.7592" style="stop-color:#9CE9FC"/>
			<stop  offset="0.8324" style="stop-color:#77E1FB"/>
			<stop  offset="0.9016" style="stop-color:#4CD8F9"/>
			<stop  offset="0.965" style="stop-color:#1DCDF8"/>
			<stop  offset="1" style="stop-color:#00C7F7"/>
		</radialGradient>
		<path opacity="0.4" fill="url(#SVGID_23_)" enable-background="new    " d="M271.089,197.961c1.97-1.843,2.078-4.937,0.229-6.908
			c-1.845-1.975-4.937-2.078-6.909-0.235c-1.97,1.848-2.075,4.94-0.228,6.913C266.025,199.702,269.115,199.804,271.089,197.961z"/>
		
			<radialGradient id="SVGID_24_" cx="307.76" cy="112.5547" r="4.8884" gradientTransform="matrix(1 0 0 -1 -41.6001 348.0098)" gradientUnits="userSpaceOnUse">
			<stop  offset="0" style="stop-color:#FFFFFF"/>
			<stop  offset="0.254" style="stop-color:#FDFEFF"/>
			<stop  offset="0.3913" style="stop-color:#F5FDFF"/>
			<stop  offset="0.5007" style="stop-color:#E7FAFE"/>
			<stop  offset="0.5955" style="stop-color:#D4F5FE"/>
			<stop  offset="0.6807" style="stop-color:#BBF0FD"/>
			<stop  offset="0.7592" style="stop-color:#9CE9FC"/>
			<stop  offset="0.8324" style="stop-color:#77E1FB"/>
			<stop  offset="0.9016" style="stop-color:#4CD8F9"/>
			<stop  offset="0.965" style="stop-color:#1DCDF8"/>
			<stop  offset="1" style="stop-color:#00C7F7"/>
		</radialGradient>
		<path opacity="0.4" fill="url(#SVGID_24_)" enable-background="new    " d="M269.499,239.024c1.971-1.846,2.075-4.935,0.23-6.908
			c-1.846-1.973-4.938-2.076-6.907-0.233c-1.973,1.848-2.078,4.939-0.235,6.91C264.431,240.764,267.525,240.872,269.499,239.024z"/>
		
			<radialGradient id="SVGID_25_" cx="339.5168" cy="189.1816" r="4.8877" gradientTransform="matrix(1 0 0 -1 -41.6001 348.0098)" gradientUnits="userSpaceOnUse">
			<stop  offset="0" style="stop-color:#FFFFFF"/>
			<stop  offset="0.254" style="stop-color:#FDFEFF"/>
			<stop  offset="0.3913" style="stop-color:#F5FDFF"/>
			<stop  offset="0.5007" style="stop-color:#E7FAFE"/>
			<stop  offset="0.5955" style="stop-color:#D4F5FE"/>
			<stop  offset="0.6807" style="stop-color:#BBF0FD"/>
			<stop  offset="0.7592" style="stop-color:#9CE9FC"/>
			<stop  offset="0.8324" style="stop-color:#77E1FB"/>
			<stop  offset="0.9016" style="stop-color:#4CD8F9"/>
			<stop  offset="0.965" style="stop-color:#1DCDF8"/>
			<stop  offset="1" style="stop-color:#00C7F7"/>
		</radialGradient>
		<circle opacity="0.4" fill="url(#SVGID_25_)" enable-background="new    " cx="297.916" cy="158.828" r="4.888"/>
		
			<radialGradient id="SVGID_26_" cx="362.51" cy="189.792" r="4.8879" gradientTransform="matrix(1 0 0 -1 -41.6001 348.0098)" gradientUnits="userSpaceOnUse">
			<stop  offset="0" style="stop-color:#FFFFFF"/>
			<stop  offset="0.254" style="stop-color:#FDFEFF"/>
			<stop  offset="0.3913" style="stop-color:#F5FDFF"/>
			<stop  offset="0.5007" style="stop-color:#E7FAFE"/>
			<stop  offset="0.5955" style="stop-color:#D4F5FE"/>
			<stop  offset="0.6807" style="stop-color:#BBF0FD"/>
			<stop  offset="0.7592" style="stop-color:#9CE9FC"/>
			<stop  offset="0.8324" style="stop-color:#77E1FB"/>
			<stop  offset="0.9016" style="stop-color:#4CD8F9"/>
			<stop  offset="0.965" style="stop-color:#1DCDF8"/>
			<stop  offset="1" style="stop-color:#00C7F7"/>
		</radialGradient>
		<path opacity="0.4" fill="url(#SVGID_26_)" enable-background="new    " d="M324.25,161.788c1.969-1.845,2.076-4.937,0.229-6.907
			c-1.843-1.973-4.936-2.078-6.91-0.233c-1.969,1.845-2.073,4.937-0.23,6.908C319.181,163.528,322.276,163.633,324.25,161.788z"/>
		<path opacity="0.8" fill="#FFFFFF" enable-background="new    " d="M383.941,268.402c0.766,1.217,1.615,2.379,2.518,3.495
			c0.923,1.134,1.901,2.225,2.915,3.277c1.024,1.066,2.086,2.096,3.178,3.096c1.1,1.009,2.231,1.989,3.389,2.937
			c1.169,0.955,2.367,1.88,3.587,2.771c1.223,0.895,2.468,1.755,3.729,2.592c1.243,0.826,2.505,1.627,3.774,2.416
			c1.249,0.772,2.497,1.554,3.761,2.302c2.112,1.245,4.193,2.425,6.212,3.548c1.652-0.337,3.211-1,4.616-2.061
			c-3.322-1.617-7.013-3.382-10.795-5.354c-5.024-2.614-9.917-5.468-14.511-8.784c-4.457-3.222-8.776-7.044-11.908-11.605
			c-0.832-1.212-1.72-2.517-2.356-3.842c-0.416-0.873-1.174-2.879-1.223-2.998c-0.008-0.024-0.183-0.27-0.206-0.224
			c-0.104,0.194-0.223,0.363-0.214,0.596c0.028,0.7,0.35,1.353,0.606,1.995c0.29,0.721,0.595,1.434,0.922,2.139
			C382.523,265.974,383.193,267.215,383.941,268.402z"/>
		
			<linearGradient id="SVGID_27_" gradientUnits="userSpaceOnUse" x1="436.9719" y1="160.8672" x2="437.9609" y2="159.4516" gradientTransform="matrix(1 0 0 -1 -41.6001 348.0098)">
			<stop  offset="0" style="stop-color:#00C2F4"/>
			<stop  offset="0.4" style="stop-color:#00C7F7"/>
			<stop  offset="0.9758" style="stop-color:#00C7F7;stop-opacity:0"/>
		</linearGradient>
		<path fill="url(#SVGID_27_)" d="M397.708,189.055l-3.075-1.537C395.725,188.062,396.617,188.507,397.708,189.055z"/>
		<path opacity="0.8" fill="#FFFFFF" enable-background="new    " d="M313.215,260.387c17.161-17.418,19.502-30.182,38.11-37.311
			c11.466-4.393,26.589,1.078,29.003,9.516c3.028-10.884-15.771-19.339-29.453-14.178c-18.892,7.126-21.271,19.892-38.69,37.308
			c-22.216,22.219-40.04,30.493-57.87,29.005C266.803,289.981,293.507,280.397,313.215,260.387z"/>
		<path opacity="0.4" fill="#FFFFFF" enable-background="new    " d="M357.365,303.534c-8.363,10.165-26.965,20.768-37.893,25.087
			c9.917-2.963,32.044-14.46,41.39-25.43c9.051-10.621,14.697-19.636,18.153-34.037c2.38-9.902,2.491-18.601,2.385-27.548
			c-0.013-0.896-0.384-7.777-0.794-10.193c-0.104-0.606-0.46,1.8-1.182,4.174c-0.834,2.336-1.527,3.678-1.523,4.184
			c0.112,9.5-0.231,19.244-2.379,28.52C372.063,283.208,366.414,292.539,357.365,303.534z"/>
	</g>
</g>
</svg>
