<?xml version="1.0" encoding="utf-8"?>
<!-- Generator: Adobe Illustrator 15.1.0, SVG Export Plug-In . SVG Version: 6.00 Build 0)  -->
<!DOCTYPE svg PUBLIC "-//W3C//DTD SVG 1.1//EN" "http://www.w3.org/Graphics/SVG/1.1/DTD/svg11.dtd">
<svg version="1.1" id="Layer_1" xmlns="http://www.w3.org/2000/svg" xmlns:xlink="http://www.w3.org/1999/xlink" x="0px" y="0px"
	 width="512px" height="512px" viewBox="0 0 512 512" enable-background="new 0 0 512 512" xml:space="preserve">
<g>
	<g>
		<g>
			<path fill="#8D0D04" d="M142.984,277.541c0,0,1.502,26.254-0.021,37.037c-0.314,2.223-0.529,4.783-2.268,6.205
				c-1.476,1.209-3.048,2.113-7.2,1.68c-2.561-0.146-7.085-0.291-12.833-0.436c-0.287,2.85-3.799,8.785-4.523,19.699
				c-0.498,9.914,0.217,25.055,0.762,43.781c0.035,1.195,0.083,2.459,0.009,3.738H81.85c-0.045-1.162-0.064-2.439-0.006-3.738
				c0.441-9.855,0.283-24.383-0.65-42.8c-0.481-7.244-2.135-13.774-2.664-20.683l-11.817,0.437c0,0-5.267,0.481-8.024-1.313
				c-2.445-1.588-2.503-4.393-2.669-6.032c-0.999-9.855-0.422-37.132-0.422-37.132L142.984,277.541z"/>
		</g>
		<g>
			<path fill="#F4762C" d="M144.646,274.25c0,0-0.166,25.807-1.688,36.59c-0.314,2.223-0.531,4.783-2.269,6.205
				c-1.475,1.207-3.049,2.113-7.202,1.678c-2.56-0.145-6.712-0.289-12.458-0.434c-0.288,2.85-0.797,9.73-1.521,20.643
				c-0.531,10.577-1.401,26.104-2.609,46.577H81.844c-0.387-9.754-1.111-25.086-2.172-45.997c-0.482-7.242-0.99-14.316-1.521-21.223
				l-11.442,0.434c0,0-5.271,0.482-8.027-1.311c-2.443-1.59-2.5-4.393-2.666-6.033c-1.001-9.855-1.477-37.129-1.477-37.129H144.646z
				"/>
		</g>
		<path fill="#F9AB8C" d="M144.602,277.982c0.034-2.313,0.045-3.732,0.045-3.732H54.537c0,0,0.023,1.424,0.073,3.732H144.602z"/>
		<path fill="#F9AB8C" d="M78.774,299.119c0,4.148-3.361,7.514-7.515,7.514c-4.146,0-7.512-3.365-7.512-7.514
			c0-4.152,3.364-7.516,7.512-7.516C75.412,291.604,78.774,294.967,78.774,299.119z"/>
		<circle fill="#F9AB8C" cx="104.952" cy="370.382" r="6.544"/>
		<circle fill="#F9AB8C" cx="90.41" cy="354.868" r="4.606"/>
		<circle fill="#F9AB8C" cx="95.743" cy="292.332" r="4.605"/>
		<circle fill="#F9AB8C" cx="121.92" cy="305.42" r="4.605"/>
		<circle fill="#F9AB8C" cx="130.161" cy="290.391" r="6.786"/>
		<circle fill="#F9AB8C" cx="103.984" cy="328.689" r="6.787"/>
	</g>
	<g>
		<path fill="#2B6DAF" d="M309.665,317.589c0.277,1.146,0.467,2.306,0.562,3.479c0.425,5.305-0.566,7.44,2.579,12.643
			c2.896,4.793,7.024,8.838,8.357,14.461c1.587,6.699-1.545,13.895-6.604,18.564c-5.063,4.674-11.772,7.162-18.494,8.67
			c-27.289,6.121-56.238-2.213-81.212-13.115c-14.864-6.484-27.09-19.73-30.168-35.547c-2.527-12.977-0.339-23.986,5.272-35.334
			c4.876-9.865,2.096-23.625-4.35-32.049c-1.021-1.338-2.215-2.791-2.078-4.469c0.202-2.489,3.064-3.729,5.486-4.333
			c18.109-4.507,37.659-3.018,54.872,4.189c10.596,4.438,13.909,10.434,22.146,17.854c7.982,7.198,17.148,12.977,25.258,20.028
			C298.594,298.979,307.283,307.727,309.665,317.589z"/>
		<path fill="#061A3B" d="M376.106,361.232c22.628,6.677,45.918,11.037,69.258,14.468c5.104,0.75,11.914,3.471,12.1,8.271
			c-0.186,5.992-34.925,7.398-52.478,4.877c3.017,1.115,4.875,5.357,2.231,7.779c-2.642,2.418-10.415,3.619-13.967,3.158
			c-16.07-2.088-29.464-6.451-44.729-11.908c-15.865-5.672-27.661-17.531-39.897-28.764c-7.249-6.66-19.86-33.588,0.597-32.549
			c5.494,0.281,8.326,4.668,12.261,8.512C337.712,350.945,354.301,354.807,376.106,361.232z"/>
		
			<linearGradient id="SVGID_1_" gradientUnits="userSpaceOnUse" x1="336.4485" y1="-12.5918" x2="495.8323" y2="-12.5918" gradientTransform="matrix(1 0 0 -1 -41.6001 348.0098)">
			<stop  offset="0" style="stop-color:#061A3B"/>
			<stop  offset="0.0378" style="stop-color:#092043"/>
			<stop  offset="0.2401" style="stop-color:#153B6A"/>
			<stop  offset="0.4406" style="stop-color:#1F5188"/>
			<stop  offset="0.6364" style="stop-color:#25619E"/>
			<stop  offset="0.8254" style="stop-color:#2A6AAB"/>
			<stop  offset="1" style="stop-color:#2B6DAF"/>
		</linearGradient>
		<path fill="url(#SVGID_1_)" d="M372.876,358.936c22.625,6.672,45.72,11.748,69.062,15.182c5.104,0.746,12.107,2.756,12.294,7.553
			c-0.187,5.998-34.926,7.4-52.478,4.881c3.016,1.117,4.874,5.355,2.23,7.777c-2.643,2.418-8.569,2.951-12.123,2.49
			c-16.073-2.088-30.103-6.438-45.37-11.894c-15.865-5.674-28.866-16.877-41.103-28.112c-7.249-6.658-19.862-33.586,0.596-32.549
			c5.495,0.28,10.301,3.76,14.237,7.602C336.454,347.734,351.07,352.507,372.876,358.936z"/>
		<g>
			<path fill="#3777C8" d="M305.985,328.766c5.495,0.282,10.301,3.754,14.237,7.604c16.231,15.866,30.848,20.635,52.653,27.067
				c22.625,6.67,46.896,10.197,70.39,12.355c6.555,0.605,9.994,2.848,8.622,1.785c-2.528-1.963-6.64-2.979-9.95-3.463
				c-23.342-3.434-46.437-8.51-69.062-15.182c-21.807-6.429-36.422-11.199-52.653-27.07c-3.938-3.842-8.742-7.32-14.237-7.602
				c-9.418-0.478-11.824,4.971-10.975,11.646C295.712,331.475,298.814,328.402,305.985,328.766z"/>
		</g>
		<g opacity="0.5">
			<path fill="#8CC8F8" d="M449.113,376.001c0.354,0.64,0.584,1.345,0.613,2.131c-0.187,5.994-34.924,7.398-52.478,4.877
				c3.014,1.117,4.875,5.357,2.229,7.777c-2.639,2.418-8.571,2.95-12.123,2.491c-16.073-2.088-30.101-6.438-45.369-11.895
				c-8.694-3.109-16.521-7.881-23.84-13.404c8.603,7.006,17.843,13.188,28.345,16.945c15.269,5.455,29.297,9.805,45.37,11.893
				c3.554,0.462,9.48-0.071,12.123-2.489c2.646-2.422,0.784-6.66-2.23-7.776c17.552,2.52,52.291,1.116,52.478-4.882
				C454.128,379.009,451.925,377.208,449.113,376.001z"/>
		</g>
		
			<linearGradient id="SVGID_2_" gradientUnits="userSpaceOnUse" x1="218.655" y1="-31.9966" x2="334.8284" y2="-31.9966" gradientTransform="matrix(1 0 0 -1 -41.6001 348.0098)">
			<stop  offset="0.0103" style="stop-color:#2B6DAF"/>
			<stop  offset="0.1099" style="stop-color:#255F9B"/>
			<stop  offset="0.2516" style="stop-color:#1E4F85"/>
			<stop  offset="0.3886" style="stop-color:#194678"/>
			<stop  offset="0.5147" style="stop-color:#184374"/>
		</linearGradient>
		<path fill="url(#SVGID_2_)" d="M304.714,392.479c-0.554,6.508-15.132-7.668-51.58-8.901c-38.298-1.3-56.788,19.805-63.886,1.467
			c-5.522-14.269,22.966-20.349,55.598-19.037C277.484,367.313,305.535,382.884,304.714,392.479z"/>
		<path fill="#6B8CB6" d="M248.654,369.622c27.392,1.11,49.956,14.271,56.065,23.217c0.531-9.246-27.808-24.975-59.869-26.228
			c-32.214-1.256-52.341,4.55-54.453,11.707c-0.177,0.603,2.923-8.096,40.833-10.37C236.568,367.632,241.58,369.333,248.654,369.622
			z"/>
		<path fill="#061A3B" d="M187.387,312.782c0.553,14.465,7.409,30.584,16.584,39.454c8.587,8.306,19.667,14.396,31.337,17.22
			c15.157,3.668,33.44,9.51,49.079,8.31c0.974-1.203,1.071-2.505,0.285-3.894c-5.231-1.988-10.266-4.406-15.058-7.203
			c-17.701-10.338-32.835-23.692-43.021-41.59c-3.15-5.535-5.69-11.438-6.614-17.902c-1.128-7.901,0.368-14.303-2.096-20.323
			c-0.882-2.158-2.471-4.168-4.613-5.195c-7.33-3.518-16.537,3.613-19.974,9.576c-2.21,3.836-3.591,8.076-4.954,12.278
			C187.325,306.659,187.26,309.493,187.387,312.782z"/>
		
			<radialGradient id="SVGID_3_" cx="135.8469" cy="81.9258" r="82.737" gradientTransform="matrix(0.9262 -0.3771 -0.6786 -1.6667 89.0888 525.0834)" gradientUnits="userSpaceOnUse">
			<stop  offset="0" style="stop-color:#FC9292"/>
			<stop  offset="0.284" style="stop-color:#FCA298"/>
			<stop  offset="0.8362" style="stop-color:#FCCBA7"/>
			<stop  offset="1" style="stop-color:#FCD9AC"/>
		</radialGradient>
		<path fill="url(#SVGID_3_)" d="M187.383,315.87c0.522,13.78,6.976,29.135,15.612,37.586c8.082,7.91,18.511,13.709,29.496,16.403
			c14.268,3.492,31.475,9.062,46.193,7.918c0.916-1.151,1.005-2.389,0.271-3.719c-4.925-1.889-9.663-4.192-14.172-6.856
			c-16.665-9.847-32.568-23.431-42.156-40.479c-3.212-5.713-5.676-11.899-6.745-18.391c-1.488-9.008,2.432-30.039-13.799-22.498
			c-3.813,1.775-7.33,5.42-9.41,9.074C188.977,301.398,187.099,308.411,187.383,315.87z"/>
		<g opacity="0.5">
			
				<radialGradient id="SVGID_4_" cx="155.8557" cy="95.8306" r="29.5091" gradientTransform="matrix(0.9262 -0.3771 -0.6786 -1.6667 100.0009 541.8979)" gradientUnits="userSpaceOnUse">
				<stop  offset="0" style="stop-color:#FC9292"/>
				<stop  offset="0.284" style="stop-color:#FCA298"/>
				<stop  offset="0.8362" style="stop-color:#FCCBA7"/>
				<stop  offset="1" style="stop-color:#FCD9AC"/>
			</radialGradient>
			<path fill="url(#SVGID_4_)" d="M190.507,319.516c-0.12-3.134-0.057-5.832,0.896-8.828c1.282-4.008,2.585-8.041,4.667-11.697
				c2.08-3.656,5.027-6.945,8.841-8.719c4.013-1.865,6.81-2.029,8.771-1.086c-1.625-3.91-4.932-5.793-11.894-2.56
				c-3.813,1.771-6.76,5.063-8.839,8.72c-2.08,3.655-3.387,7.69-4.663,11.698c-0.961,2.996-1.02,5.695-0.903,8.826
				c0.509,13.44,6.66,28.369,14.976,36.94C195.662,344.032,190.948,331.21,190.507,319.516z"/>
		</g>
		<path opacity="0.5" fill="#C4986A" enable-background="new    " d="M217.295,363.714c5.189,1.084,9.799,4.82,15.194,6.146
			c14.269,3.492,31.476,9.062,46.194,7.918c0.916-1.151,1.005-2.389,0.271-3.719c-4.925-1.889-9.663-4.192-14.173-6.856
			c-2.32-1.369-4.668-2.476-6.915-3.964c-0.415-0.272-0.848-0.557-1.341-0.622c-0.612-0.084-1.216,0.172-1.785,0.405
			C242.684,367.921,229.729,364.279,217.295,363.714z"/>
		
			<linearGradient id="SVGID_5_" gradientUnits="userSpaceOnUse" x1="293.8293" y1="209.4438" x2="258.6462" y2="89.1399" gradientTransform="matrix(1 0 0 -1 -41.6001 348.0098)">
			<stop  offset="0.0103" style="stop-color:#4B92F9"/>
			<stop  offset="0.0437" style="stop-color:#4990F4"/>
			<stop  offset="0.2956" style="stop-color:#3C81D6"/>
			<stop  offset="0.5428" style="stop-color:#3376C0"/>
			<stop  offset="0.7809" style="stop-color:#2D6FB3"/>
			<stop  offset="1" style="stop-color:#2B6DAF"/>
		</linearGradient>
		<path fill="url(#SVGID_5_)" d="M305.128,204.467c0,39.386-8.979,73.641-64.341,71.903c-37.384-1.175-83.873-25.676-83.873-67.079
			c0-49.512,36.048-76.026,73.448-76.026C267.766,133.265,305.128,165.084,305.128,204.467z"/>
		<path fill="#0F5D91" d="M284.238,215.747c0.28,0.189,0.558,0.38,0.834,0.575c7.639,5.426,13.044,14.924,11.159,24.103
			c-2.739,13.382-11.187,20.261-22.677,23.984c-2.994,0.971-2.743,1.291-33.652,2.743c-4.852,0.228-18.339,1.148-25.597,0.384
			c-9.938-1.045-13.376-1.068-22.604-4.938c-16.279-6.833-28.867-21.416-17.925-38.767c2.262-3.584,6.272-5.668,10.053-7.578
			c22.789-11.498,49.602-12.513,74.857-8.803C267.623,208.763,276.75,210.748,284.238,215.747z"/>
		<path fill="#2066A0" d="M250.608,178.339c8.446,21.509,8.368,38.14-18.755,44.28c-20.214,4.576-46.479,19.98-59.216-2.121
			c-6.458-11.209-6.596-24.027-1.898-35.604c4.223-10.396,11.891-16.507,20.549-22.898c9.695-7.157,18.053-6.899,26.093-6.767
			C229.56,155.436,246.45,167.764,250.608,178.339z"/>
		<path fill="#3777C8" d="M319.806,349.193c8.175,6.564,16.592,12.599,25.933,17.423c16.515,8.532,41.201,15.897,53.405,16.881
			c0.831,0.067-35.24-9.629-51.662-18.047c-9.351-4.796-17.758-10.863-25.931-17.425
			C320.899,347.503,318.883,348.454,319.806,349.193L319.806,349.193z"/>
		<path fill="#061A3B" d="M245.814,180.286c7.47,19.019,7.4,33.726-16.581,39.154c-17.874,4.046-41.1,17.666-52.361-1.875
			c-5.711-9.913-5.833-21.249-1.679-31.485c3.732-9.189,10.071-14.983,17.73-20.633c8.573-6.327,17.942-5.826,23.51-5.595
			C229.607,160.399,242.142,170.936,245.814,180.286z"/>
		
			<radialGradient id="SVGID_6_" cx="494.55" cy="-466.9033" r="34.6068" gradientTransform="matrix(0.8 -0.4824 -0.4281 -0.7101 -385.991 102.0531)" gradientUnits="userSpaceOnUse">
			<stop  offset="0.0103" style="stop-color:#FEA02F"/>
			<stop  offset="0.4498" style="stop-color:#FD9E2F"/>
			<stop  offset="0.6746" style="stop-color:#FC962E"/>
			<stop  offset="0.8501" style="stop-color:#F8892D"/>
			<stop  offset="1" style="stop-color:#F4762C"/>
		</radialGradient>
		<path fill="url(#SVGID_6_)" d="M242.526,181.623c6.807,17.325,6.741,30.723-15.1,35.669c-16.284,3.685-37.421,14.785-47.679-3.013
			c-5.202-9.028-4.932-17.668-0.822-27.53c3.386-8.125,8.548-13.572,15.822-18.289c7.934-5.144,16.178-5.93,22.632-5.368
			C227.7,163.987,239.182,173.109,242.526,181.623z"/>
		<path fill="#18629E" d="M288.152,224.049c0.268,0.191,0.533,0.384,0.799,0.586c7.296,5.512,12.463,15.168,10.659,24.501
			c-2.615,13.604-13.327,19.255-24.309,23.041c-2.861,0.986-8.063,2.74-29.509,4.128c-4.639,0.299-17.519,1.168-24.455,0.389
			c-9.492-1.063-12.779-1.088-21.593-5.023c-15.554-6.943-27.581-21.768-17.125-39.403c2.157-3.641,5.993-5.764,9.605-7.702
			c21.771-11.687,47.387-12.717,71.519-8.947C272.277,216.949,281.002,218.968,288.152,224.049z"/>
		<path fill="#FCD9AC" d="M287.604,221.581c0.277,0.19,0.557,0.379,0.829,0.574c7.642,5.425,13.048,14.923,11.159,24.104
			c-2.739,13.384-11.184,20.261-22.677,23.98c-2.992,0.973-2.741,1.29-33.65,2.745c-4.854,0.23-18.339,1.146-25.597,0.386
			c-9.938-1.05-13.375-1.07-22.604-4.94c-16.28-6.837-28.87-21.415-17.922-38.768c2.259-3.581,6.42-6.583,10.202-8.49
			c22.789-11.497,49.449-11.598,74.705-7.889C270.986,214.596,280.113,216.582,287.604,221.581z"/>
		<path fill="#F7BF85" d="M296.797,243.926c7.174,12.048-10.198,23.18-19.882,26.313c-2.992,0.974-2.741,1.291-33.65,2.746
			c-4.854,0.23-18.339,1.146-25.597,0.386c-9.938-1.05-13.375-1.07-22.604-4.94c-0.193-0.08-0.381-0.162-0.569-0.242
			c23.508,3.282,47.688,0.916,70.86-4.207c5.102-1.131,10.169-2.519,14.864-4.845c3.227-1.598,6.361-3.817,8.612-6.63
			C289.657,251.471,297.026,244.314,296.797,243.926z"/>
		
			<radialGradient id="SVGID_7_" cx="391.9827" cy="53.5225" r="28.9052" gradientTransform="matrix(0.8718 0 0 -0.7564 -139.2104 281.9902)" gradientUnits="userSpaceOnUse">
			<stop  offset="0" style="stop-color:#FC9292"/>
			<stop  offset="0.284" style="stop-color:#FCA298"/>
			<stop  offset="0.8362" style="stop-color:#FCCBA7"/>
			<stop  offset="1" style="stop-color:#FCD9AC"/>
		</radialGradient>
		<path fill="url(#SVGID_7_)" d="M232.037,241.508c0.205,12.641-13.219,22.895-29.519,22.895c-16.305,0-29.521-10.25-29.521-22.895
			c0-12.642,13.22-22.518,29.521-22.888C218.619,218.253,231.82,228.476,232.037,241.508z"/>
		<path opacity="0.4" fill="#FFFFFF" enable-background="new    " d="M179.448,236.422c6.673-18.208,52.685-25.081,79.409-23.557
			c-25.995-3.063-71.738-0.099-81.714,16.797c-7.563,12.807-4.584,22.936,3.992,30.449
			C177.835,253.347,175.887,246.13,179.448,236.422z"/>
		<path fill="#F7BF85" d="M277.646,268.02c-22.538,9.553-41.339,0.983-53.785-19.1c-15.362-24.788,32.128-26.301,45.744-24.997
			c9.613,0.922,19.618,3.326,26.609,9.986c1.386,1.321,2.664,2.85,3.189,4.693c0.409,1.432,0.335,2.958,0.195,4.443
			c-0.533,5.755-2.006,11.546-5.247,16.332C291.552,263.509,282.227,266.077,277.646,268.02z"/>
		<path fill="#061A3B" d="M413.759,240.348c9.2,33.354-4.6,65.558-4.6,65.558s-60.154-10.068-119.615-24.154
			c-15.379-3.641-86.232-32.804-60.981-58.1c13.212-13.229,13.438-24.186,22.674-39.395c6.779-11.168,24.66-14.07,36.828-14.07
			C320.006,170.187,403.663,203.757,413.759,240.348z"/>
		
			<linearGradient id="SVGID_8_" gradientUnits="userSpaceOnUse" x1="351.8596" y1="59.3291" x2="402.2394" y2="163.5653" gradientTransform="matrix(1 0 0 -1 -41.6001 348.0098)">
			<stop  offset="0" style="stop-color:#8D0D04"/>
			<stop  offset="0.4359" style="stop-color:#ED3201"/>
			<stop  offset="0.4911" style="stop-color:#EF540B"/>
			<stop  offset="0.5757" style="stop-color:#F38318"/>
			<stop  offset="0.6508" style="stop-color:#F5A521"/>
			<stop  offset="0.7127" style="stop-color:#F6BA27"/>
			<stop  offset="0.7538" style="stop-color:#F7C129"/>
			<stop  offset="0.7873" style="stop-color:#F7BB27"/>
			<stop  offset="0.8302" style="stop-color:#F5AC23"/>
			<stop  offset="0.8781" style="stop-color:#F4911C"/>
			<stop  offset="0.9298" style="stop-color:#F16D11"/>
			<stop  offset="0.9839" style="stop-color:#EE3E04"/>
			<stop  offset="0.9966" style="stop-color:#ED3201"/>
		</linearGradient>
		<path fill="url(#SVGID_8_)" d="M417.21,241.496c9.201,33.354-5.07,64.962-5.07,64.962s-59.686-9.474-119.145-23.556
			c-15.378-3.641-86.231-32.806-60.981-58.101c13.207-13.231,13.438-24.186,22.677-39.396c6.776-11.168,24.654-14.07,36.825-14.07
			C323.457,171.336,407.118,204.906,417.21,241.496z"/>
		
			<linearGradient id="SVGID_9_" gradientUnits="userSpaceOnUse" x1="198.135" y1="308.5176" x2="203.886" y2="282.0632" gradientTransform="matrix(0.9977 0.068 0.068 -0.9977 -18.298 400.2203)">
			<stop  offset="0.0103" style="stop-color:#4B92F9"/>
			<stop  offset="0.0437" style="stop-color:#4990F4"/>
			<stop  offset="0.2956" style="stop-color:#3C81D6"/>
			<stop  offset="0.5428" style="stop-color:#3376C0"/>
			<stop  offset="0.7809" style="stop-color:#2D6FB3"/>
			<stop  offset="1" style="stop-color:#2B6DAF"/>
		</linearGradient>
		<path fill="url(#SVGID_9_)" d="M194.925,136.676c0.025,0.781,0.101,1.556,0.236,2.31c0.179,1.017,1.631,3.313,0.019,3.586
			c-2.164,0.363-3.605-4.556-4-6.01c-1.683-6.186-2.779-12.74-0.58-18.982c1.865-5.289,5.695-9.86,10.58-12.614
			c2.063-1.165,4.365-2.027,6.732-1.995c2.366,0.027,4.806,1.069,6.109,3.044c0.93,1.408,0.887,3.799-0.725,4.293
			c1.558-0.271,2.627,1.859,2.033,3.328c-0.595,1.469-2.097,2.321-3.478,3.099c-3.831,2.162-7.504,4.615-10.971,7.326
			c-2.543,1.991-4.389,4.271-5.306,7.436C195.101,133.148,194.875,134.927,194.925,136.676z"/>
		
			<linearGradient id="SVGID_10_" gradientUnits="userSpaceOnUse" x1="162.2473" y1="295.5332" x2="177.5924" y2="271.26" gradientTransform="matrix(0.9977 0.068 0.068 -0.9977 -18.298 400.2203)">
			<stop  offset="0.0103" style="stop-color:#4B92F9"/>
			<stop  offset="0.0437" style="stop-color:#4990F4"/>
			<stop  offset="0.2956" style="stop-color:#3C81D6"/>
			<stop  offset="0.5428" style="stop-color:#3376C0"/>
			<stop  offset="0.7809" style="stop-color:#2D6FB3"/>
			<stop  offset="1" style="stop-color:#2B6DAF"/>
		</linearGradient>
		<path fill="url(#SVGID_10_)" d="M195.924,140.646c-0.139-0.239-0.306-0.465-0.47-0.664c-2.026-2.489-3.402-4.763-4.977-7.486
			c-1.409-2.438-3.192-4.935-5.448-6.67c-2.597-2.201-5.747-3.656-8.968-4.758c-6.028-2.062-12.885-2.9-18.624-0.135
			c-2.113,1.02-4.082,2.604-4.943,4.787c-1.132,2.878-0.074,6.298,2.057,8.536c2.133,2.241,5.155,3.438,8.191,4.018
			c2.279,0.435,4.614,0.549,6.924,0.352c4.441-0.382,8.91-1.931,13.265-0.979c2.592,0.57,4.979,2.039,6.65,4.099
			c0.696,0.857,1.304,1.839,2.27,2.381c1.497,0.841,3.35-0.531,4.226-1.73C196.453,141.879,196.269,141.229,195.924,140.646z"/>
		
			<linearGradient id="SVGID_11_" gradientUnits="userSpaceOnUse" x1="241.6624" y1="-40.0479" x2="357.8323" y2="-40.0479" gradientTransform="matrix(1 0 0 -1 -41.6001 348.0098)">
			<stop  offset="0.0103" style="stop-color:#2B6DAF"/>
			<stop  offset="0.1099" style="stop-color:#255F9B"/>
			<stop  offset="0.2516" style="stop-color:#1E4F85"/>
			<stop  offset="0.3886" style="stop-color:#194678"/>
			<stop  offset="0.5147" style="stop-color:#184374"/>
		</linearGradient>
		<path fill="url(#SVGID_11_)" d="M316.215,400.529c-0.555,6.511-15.128-7.67-51.578-8.903c-38.303-1.299-56.788,19.81-63.885,1.472
			c-5.523-14.265,22.959-20.349,55.6-19.041C288.985,375.364,317.033,390.934,316.215,400.529z"/>
		<path fill="#174172" d="M314.872,396.118c-2.42,3.446-17.402-8.847-51.237-9.996c-37.607-1.272-56.11,19.053-63.487,2.422
			c-0.208,1.412-0.026,2.929,0.604,4.554c7.097,18.338,25.583-2.771,63.885-1.472c36.45,1.233,51.023,15.414,51.578,8.903
			C316.332,399.163,315.862,397.673,314.872,396.118z"/>
		<path fill="#6392C4" d="M256.856,375.116c-32.215-1.259-54.44,4.12-54.989,12.932c-0.039,0.623,3.519-9.002,39.528-11.618
			c5.271-0.386,19.259-0.82,22.433-0.722C265.43,375.761,267.805,375.542,256.856,375.116z"/>
		<path fill="#061A3B" d="M278.443,348.557c-8.238-5.104-19.936-13.103-28.791-16.953c5.261,18.729,15.537,41.026,29.687,54.004
			c5.174,4.742,20.832,14.188,27.243,7.25c7.822,9.227,22.646,13.403,31.532,9.133c5.572,6.645,37.75,13.15,28.581-3.361
			c-2.317-4.176-8.555-7.73-11.815-10.928c-4.034-3.959-6.831-4.699-11.608-7.813c-12.94-8.439-26.563-15.777-40.676-21.908
			c-7.922-3.443-15.467-3.926-22.726-8.535C279.396,349.146,278.922,348.852,278.443,348.557z"/>
		
			<linearGradient id="SVGID_12_" gradientUnits="userSpaceOnUse" x1="352.1077" y1="14.4199" x2="351.5237" y2="-52.2506" gradientTransform="matrix(1 0 0 -1 -41.6001 348.0098)">
			<stop  offset="8.000000e-008" style="stop-color:#2B6DAF"/>
			<stop  offset="0.493" style="stop-color:#2C6FB1"/>
			<stop  offset="0.6812" style="stop-color:#2F75B8"/>
			<stop  offset="0.8172" style="stop-color:#347FC4"/>
			<stop  offset="0.9275" style="stop-color:#3B8ED5"/>
			<stop  offset="1" style="stop-color:#429CE5"/>
		</linearGradient>
		<path fill="url(#SVGID_12_)" d="M278.443,346.343c-8.238-4.965-16.99-9.188-25.847-12.93
			c5.263,18.217,12.593,36.351,26.741,48.976c5.174,4.612,20.832,13.807,27.243,7.049c7.822,8.979,22.646,13.045,31.532,8.889
			c5.462,4.527,37.238,13.615,28.07-2.445c-2.316-4.063-8.044-8.346-11.306-11.457c-4.034-3.85-6.831-4.568-11.608-7.602
			c-12.94-8.205-26.563-15.346-40.676-21.311c-7.922-3.349-15.467-3.818-22.726-8.304
			C279.396,346.919,278.922,346.626,278.443,346.343z"/>
		<path opacity="0.41" fill="#8CC8F8" enable-background="new    " d="M257.345,313.189c-16.498-1.416-9.94,13.925-5.332,22.832
			c5.756,11.127,11.641,22.431,20.386,31.398c8.751,8.969,17.26,17.547,29.74,16.436c3.728-0.571,4.251-4.684,4.531-5.963
			c1.866,4.25,4.789,6.062,8.795,8.398c3.442,2.008,8.135,3.014,12.757,3.443c1.538,0.141,6.176-1.121,5.576-2.543
			c3.333,4.305,9.392,6.029,14.775,6.838c3.438,0.52,8.169-0.629,8.389-4.098c0.108-1.738-1.181-3.209-2.385-4.466
			c-20.354-21.184-40.909-42.543-65.286-58.94C279.611,320.016,268.971,314.189,257.345,313.189z"/>
		
			<linearGradient id="SVGID_13_" gradientUnits="userSpaceOnUse" x1="337.5549" y1="14.2886" x2="350.8834" y2="-30.7132" gradientTransform="matrix(1 0 0 -1 -41.6001 348.0098)">
			<stop  offset="8.000000e-008" style="stop-color:#4B92F9"/>
			<stop  offset="0.1144" style="stop-color:#509DF9"/>
			<stop  offset="0.3457" style="stop-color:#57ACF9"/>
			<stop  offset="0.6137" style="stop-color:#5BB5F9"/>
			<stop  offset="1" style="stop-color:#5CB8F9"/>
		</linearGradient>
		<path fill="url(#SVGID_13_)" d="M257.345,310.891c-16.498-1.416-9.94,13.924-5.332,22.832
			c5.756,11.125,11.641,22.43,20.386,31.397c8.751,8.969,17.26,17.547,29.74,16.437c3.728-0.572,4.251-4.685,4.531-5.961
			c1.866,4.25,4.789,6.059,8.795,8.397c3.442,2.006,8.135,3.016,12.757,3.438c1.538,0.143,6.176-1.115,5.576-2.537
			c3.333,4.303,9.392,6.028,14.775,6.838c3.438,0.52,8.169-0.631,8.389-4.101c0.108-1.739-1.181-3.209-2.385-4.463
			c-20.354-21.185-40.909-42.541-65.286-58.942C279.611,317.712,268.971,311.893,257.345,310.891z"/>
		<path fill="#8CC8F8" d="M354.577,383.169c-0.493-0.517-0.989-1.03-1.483-1.549c-1.66,0.698-3.762,0.871-5.521,0.606
			c-5.38-0.809-11.442-2.535-14.773-6.838c0.599,1.42-4.038,2.68-5.575,2.539c-4.622-0.426-9.315-1.434-12.756-3.439
			c-4.012-2.34-6.934-4.146-8.798-8.396c-0.281,1.275-0.804,5.386-4.528,5.962c-12.481,1.108-20.991-7.47-29.741-16.438
			c-8.747-8.97-14.63-20.271-20.384-31.4c-1.343-2.588-2.846-5.721-3.897-8.825c-1.507,4.95,2.065,12.854,4.896,18.332
			c5.756,11.125,11.641,22.43,20.386,31.397c8.751,8.969,17.26,17.547,29.74,16.437c3.728-0.572,4.251-4.685,4.531-5.961
			c1.866,4.25,4.789,6.059,8.795,8.397c3.442,2.006,8.135,3.016,12.757,3.438c1.538,0.143,6.176-1.115,5.576-2.537
			c3.333,4.303,9.392,6.028,14.775,6.838c3.438,0.52,8.169-0.631,8.389-4.101C357.071,385.893,355.781,384.423,354.577,383.169z"/>
		<path fill="#2B6DAF" d="M356.39,385.452c-0.839,2.848-5.081,3.784-8.241,3.312c-5.379-0.813-11.445-2.535-14.772-6.841
			c0.596,1.423-4.042,2.683-5.577,2.537c-4.622-0.424-9.313-1.433-12.752-3.438c-4.012-2.34-6.936-4.147-8.802-8.399
			c-0.281,1.278-0.804,5.39-4.529,5.965c-12.48,1.111-20.989-7.467-29.737-16.438c-8.751-8.969-14.633-20.272-20.388-31.396
			c-1.808-3.496-3.908-7.976-4.808-12.049c0.244,4.729,2.971,10.646,5.229,15.019c5.756,11.125,11.641,22.43,20.386,31.397
			c8.751,8.969,17.26,17.547,29.74,16.437c3.728-0.572,4.251-4.685,4.531-5.961c1.866,4.25,4.789,6.059,8.795,8.397
			c3.442,2.006,8.135,3.016,12.757,3.438c1.538,0.143,6.176-1.115,5.576-2.537c3.333,4.303,9.392,6.028,14.775,6.838
			c3.438,0.52,8.169-0.631,8.389-4.101C357.013,386.852,356.771,386.128,356.39,385.452z"/>
		<path fill="#061A3B" d="M316.211,331.945c3.112,7.933,14.129,26.88,13.318,28.023c-2.037,2.883-36.787-5.563-43.854-8.334
			c-12.89-5.053-27.342-10.631-38.427-19.025c-8.24-6.243-14.957-15.207-16.201-25.471c-0.837-6.914-0.982-14.59,4.661-19.611
			c3.953-3.514,9.287-5.09,14.542-5.723c15.042-1.813,30.349,2.617,42.555,11.478C306.557,303.27,310.223,316.671,316.211,331.945z"
			/>
		
			<linearGradient id="SVGID_14_" gradientUnits="userSpaceOnUse" x1="278.4915" y1="62.4033" x2="364.0936" y2="-4.5609" gradientTransform="matrix(1 0 0 -1 -41.6001 348.0098)">
			<stop  offset="0.0103" style="stop-color:#4B92F9"/>
			<stop  offset="0.0437" style="stop-color:#4990F4"/>
			<stop  offset="0.2956" style="stop-color:#3C81D6"/>
			<stop  offset="0.5428" style="stop-color:#3376C0"/>
			<stop  offset="0.7809" style="stop-color:#2D6FB3"/>
			<stop  offset="1" style="stop-color:#2B6DAF"/>
		</linearGradient>
		<path fill="url(#SVGID_14_)" d="M317.341,329.544c3.106,7.935,11.728,26.394,11.506,27.774
			c-3.101,1.688-28.138-1.522-44.321-7.983c-12.857-5.131-27.342-10.629-38.427-19.026c-8.244-6.242-14.96-15.203-16.201-25.47
			c-0.832-6.912-0.98-14.592,4.659-19.608c3.954-3.517,9.287-5.092,14.544-5.726c15.042-1.815,30.351,2.619,42.553,11.481
			C305.406,300.968,311.35,314.27,317.341,329.544z"/>
		
			<linearGradient id="SVGID_15_" gradientUnits="userSpaceOnUse" x1="287.6477" y1="81.6719" x2="345.8319" y2="36.1559" gradientTransform="matrix(1 0 0 -1 -41.6001 348.0098)">
			<stop  offset="0.0103" style="stop-color:#4B92F9"/>
			<stop  offset="0.0437" style="stop-color:#4990F4"/>
			<stop  offset="0.2956" style="stop-color:#3C81D6"/>
			<stop  offset="0.5428" style="stop-color:#3376C0"/>
			<stop  offset="0.7809" style="stop-color:#2D6FB3"/>
			<stop  offset="1" style="stop-color:#2B6DAF"/>
		</linearGradient>
		<path fill="url(#SVGID_15_)" d="M291.078,291.682c-0.025-0.023-0.049-0.043-0.068-0.068c-5.078-4.723-12.105-8.209-18.712-10.131
			c-5.258-1.527-16.743-4.722-21.736-1.758c-0.424,0.248,10.343,7.821,11.674,8.68c7.773,5.012,16.04,8.441,23.863,13.25
			c4.38,2.594,8.572,5.566,12.612,8.654c3.38,2.586,8.021,5.385,10.049,9.188c-0.99-3.535-2.508-6.918-4.484-10.006
			C300.253,303.198,296.641,296.882,291.078,291.682z"/>
		<path fill="#2168A3" d="M317.341,329.544c-5.991-15.274-11.936-28.576-25.688-38.558c-5.041-3.661-10.616-6.555-16.479-8.573
			c4.285,1.912,8.371,4.325,12.154,7.185c13.754,10.372,19.696,24.192,25.688,40.069c2.906,7.703,9.541,24.726,10.354,28.115
			c1.531,0.141,4.121,0.272,5.478-0.464C329.068,355.938,320.448,337.479,317.341,329.544z"/>
		<g>
			<path fill="#4B92F9" d="M229.47,296.091c8.013,13.955,24.149,22.224,38.588,28.025c15.748,6.329,32.768,9.866,49.771,9.342
				c1.105-0.033,1.113-1.763,0-1.726c-15.626,0.482-31.222-2.512-45.849-7.944c-15.097-5.603-32.714-14.104-41.021-28.57
				C230.405,294.255,228.916,295.122,229.47,296.091L229.47,296.091z"/>
		</g>
		<path opacity="0.3" fill="#70AFF9" enable-background="new    " d="M258.452,333.882c-8.241-6.687-17.271-16.104-18.511-27.098
			c-0.835-7.412-0.11-15.734,5.53-21.111c3.954-3.769,10.729-5.543,15.981-6.225c0.075-0.011,0.15-0.017,0.228-0.025
			c-4.164-0.428-8.385-0.422-12.581,0.082c-5.257,0.634-10.59,2.209-14.544,5.726c-5.641,5.018-5.491,12.696-4.659,19.608
			c1.241,10.267,7.957,19.228,16.201,25.47c11.085,8.397,25.535,13.977,38.427,19.026c0.896,0.354,2.052,0.729,3.389,1.131
			C277.598,345.984,267.021,340.837,258.452,333.882z"/>
		<path opacity="0.46" fill="#70AFF9" enable-background="new    " d="M250.098,331.313c-8.239-6.246-14.958-15.209-16.197-25.472
			c-0.836-6.916-0.981-14.592,4.657-19.61c3.956-3.515,9.288-5.088,14.546-5.724c1.407-0.172,2.821-0.278,4.232-0.34
			c1.425-0.315,2.817-0.553,4.118-0.719c0.075-0.011,0.15-0.017,0.228-0.025c-4.164-0.428-8.385-0.422-12.581,0.082
			c-5.257,0.634-10.59,2.209-14.544,5.726c-5.641,5.018-5.491,12.697-4.659,19.608c1.241,10.267,7.957,19.228,16.201,25.47
			c11.085,8.397,25.535,13.977,38.427,19.026c0.896,0.354,2.052,0.729,3.389,1.131c-2.231-0.969-4.479-1.977-6.714-3.02
			C270.371,343.107,259.122,338.143,250.098,331.313z"/>
		<g>
			<path fill="#061A3B" d="M201.2,157.536c3.197-2.559,11.563-10.72,8.315-14.987c-3.854-5.06-11.533,4.139-14.155,6.812
				c-6.24,6.354-11.473,12.757-19.632,17.395C184.787,170.195,194.43,162.953,201.2,157.536z"/>
		</g>
		
			<radialGradient id="SVGID_16_" cx="256.9563" cy="153.4731" r="28.691" gradientTransform="matrix(1 0 0 -1.0026 -41.6001 348.8319)" gradientUnits="userSpaceOnUse">
			<stop  offset="0" style="stop-color:#FFFFFF"/>
			<stop  offset="0.5017" style="stop-color:#FDFDFE"/>
			<stop  offset="0.6824" style="stop-color:#F6F8F8"/>
			<stop  offset="0.8113" style="stop-color:#EBEEEF"/>
			<stop  offset="0.9147" style="stop-color:#DAE1E2"/>
			<stop  offset="1" style="stop-color:#C5D0D2"/>
		</radialGradient>
		<circle fill="url(#SVGID_16_)" cx="213.471" cy="193.949" r="26.608"/>
		<circle fill="#061A3B" cx="217.237" cy="195.832" r="23.278"/>
		
			<radialGradient id="SVGID_17_" cx="258.8381" cy="152.1777" r="22.5173" gradientTransform="matrix(1 0 0 -1 -41.6001 348.0098)" gradientUnits="userSpaceOnUse">
			<stop  offset="0" style="stop-color:#49A7F4"/>
			<stop  offset="0.4525" style="stop-color:#48A6F2"/>
			<stop  offset="0.6155" style="stop-color:#46A0EB"/>
			<stop  offset="0.7317" style="stop-color:#4298E0"/>
			<stop  offset="0.8256" style="stop-color:#3C8BCF"/>
			<stop  offset="0.9061" style="stop-color:#347AB9"/>
			<stop  offset="0.976" style="stop-color:#2A669E"/>
			<stop  offset="1" style="stop-color:#265E93"/>
		</radialGradient>
		<circle fill="url(#SVGID_17_)" cx="217.238" cy="195.832" r="22.517"/>
		<path fill="#061A3B" d="M239.947,197.537c0,10.867-8.811,19.677-19.674,19.677c-10.867,0-19.673-8.81-19.673-19.677
			c0-10.862,8.808-19.672,19.673-19.672C231.137,177.865,239.947,186.675,239.947,197.537z"/>
		
			<radialGradient id="SVGID_18_" cx="260.9651" cy="160.0298" r="8.627" gradientTransform="matrix(1 0 0 -1 -41.6001 348.0098)" gradientUnits="userSpaceOnUse">
			<stop  offset="0" style="stop-color:#FFFFFF"/>
			<stop  offset="0.9966" style="stop-color:#061A3B"/>
		</radialGradient>
		<circle fill="url(#SVGID_18_)" cx="219.365" cy="187.98" r="8.627"/>
		
			<radialGradient id="SVGID_19_" cx="253.4514" cy="142.9048" r="6.6203" gradientTransform="matrix(1 0 0 -1 -41.6001 348.0098)" gradientUnits="userSpaceOnUse">
			<stop  offset="0" style="stop-color:#FFFFFF"/>
			<stop  offset="0.9966" style="stop-color:#061A3B"/>
		</radialGradient>
		<ellipse fill="url(#SVGID_19_)" cx="211.851" cy="205.105" rx="6.326" ry="6.902"/>
		<path opacity="0.4" fill="#840704" enable-background="new    " d="M262.817,211.778c-10.264,9.754-20.252,27.271-12.022,51.697
			c-8.409-9.294-11.542-18.723-9.081-29.645C244.411,221.853,253.532,216.377,262.817,211.778z"/>
		<path opacity="0.4" fill="#840704" enable-background="new    " d="M279.147,219.554c-10.265,9.754-19.161,33.567-12.022,51.697
			c-8.521-8.778-11.544-18.72-9.081-29.646C260.741,229.63,269.86,224.152,279.147,219.554z"/>
		<path opacity="0.4" fill="#840704" enable-background="new    " d="M296.176,227.083c-10.524,10-19.647,34.414-12.326,53.01
			c-8.852-9.151-11.836-19.196-9.313-30.4C277.305,237.412,286.656,231.797,296.176,227.083z"/>
		<path opacity="0.4" fill="#840704" enable-background="new    " d="M314.106,231.751c-10.783,9.662-20.025,33.356-12.349,51.5
			c-8.384-6.545-12.337-18.76-9.81-29.642C294.721,241.676,304.322,236.274,314.106,231.751z"/>
		<path opacity="0.4" fill="#840704" enable-background="new    " d="M333.158,239.141c-10.294,9.21-19.117,31.798-11.782,49.095
			c-7.82-6.127-11.782-17.887-9.371-28.26C314.648,248.599,323.816,243.45,333.158,239.141z"/>
		<path opacity="0.4" fill="#840704" enable-background="new    " d="M354.543,247.695c-24.41,18.021-14.277,45.397-14.277,45.397
			l-2.563-0.236c0,0-7.398-14.352-5.316-23.305C335.155,257.618,344.758,252.218,354.543,247.695z"/>
		<g opacity="0.3">
			<path fill="#F9E132" d="M412.335,303.712c-28.147-13.535-57.88-25.024-87.902-33.646c-25.989-7.463-55.12-14.478-77.444-30.574
				c-5.668-4.089-10.674-8.918-13.19-15.581c-0.385-1.021-2.132,0.131-1.758,1.131c5.277,13.973,20.3,20.981,33.001,26.744
				c30.134,13.657,62.886,20.307,93.861,31.733c17.658,6.517,35.188,13.56,52.158,21.717
				C412.002,305.689,413.61,304.325,412.335,303.712L412.335,303.712z"/>
		</g>
		<g>
			<path fill="#061A3B" d="M412.168,304.661c-28.144-13.537-57.713-24.822-87.735-33.445c-25.989-7.459-55.12-14.477-77.444-30.574
				c-5.668-4.087-11.471-10.194-13.983-16.854c-0.387-1.022-2.033,0.652-1.654,1.654c5.272,13.968,20.989,21.734,33.69,27.491
				c30.134,13.66,62.886,20.311,93.861,31.738c3.12,1.149,6.229,2.315,9.335,3.502c3.106,1.188,6.205,2.392,9.292,3.619
				c3.092,1.229,6.172,2.479,9.244,3.756c3.071,1.277,6.13,2.58,9.176,3.914c3.043,1.332,6.076,2.695,9.094,4.093
				c1.195,0.551,6.325,2.78,6.989,3.055c0.047-0.439,0.367-0.764,0.41-1.189c0.044-0.412-0.194-0.748-0.561-0.924L412.168,304.661z"
				/>
		</g>
		
			<linearGradient id="SVGID_20_" gradientUnits="userSpaceOnUse" x1="436.2014" y1="53.1353" x2="470.4803" y2="80.7795" gradientTransform="matrix(0.9997 -0.0246 -0.0246 -0.9997 -54.2833 334.4251)">
			<stop  offset="0" style="stop-color:#061A3B"/>
			<stop  offset="0.0587" style="stop-color:#071B41"/>
			<stop  offset="0.2533" style="stop-color:#0B1F4E"/>
			<stop  offset="0.5025" style="stop-color:#0C2056"/>
			<stop  offset="0.9897" style="stop-color:#0D2158"/>
		</linearGradient>
		<path fill="url(#SVGID_20_)" d="M416.492,239.676c8.296,18.163,5.149,52.239-4.401,66.963
			c-9.191-11.109-13.411-20.781-27.459-26.628c-15.809-6.575-38.1-26.067-31.423-44.979
			C362.546,208.586,406.679,218.192,416.492,239.676z"/>
		<path opacity="0.49" fill="#FFFFFF" enable-background="new    " d="M344.912,200.555c9.799,5.632,19.557,11.609,27.489,19.651
			c7.937,8.045,13.717,18.123,16.505,28.878c-2.788-3.986-11.151-18.323-48.591-41.423c-19.871-12.259-43.846-17.883-65.533-26.583
			c-1.686-0.678-3.722-1.956-3.297-3.721c0.436-1.807,2.923-1.968,4.759-1.689C302.493,179.64,322.125,187.461,344.912,200.555z"/>
		<path fill="#124074" d="M393.662,268.173c-0.5-0.437-1.003-0.844-1.504-1.237c-0.773-0.611-2.883-1.086-2.996-3.664
			c-0.169-3.765,2.377-3.531,3.241-3.115c3.358,1.621,9.088,9.025,9.828,17.117c0.073,0.819,0.073,1.916-0.252,2.229
			c-0.288,0.283-0.586-0.326-0.808-0.867C399.098,273.57,396.408,270.536,393.662,268.173z"/>
		
			<radialGradient id="SVGID_21_" cx="315.1077" cy="187.4082" r="10.4094" gradientTransform="matrix(1 0 0 -1 -41.6001 348.0098)" gradientUnits="userSpaceOnUse">
			<stop  offset="0" style="stop-color:#5CB8F9"/>
			<stop  offset="0.4409" style="stop-color:#51A4F9"/>
			<stop  offset="1" style="stop-color:#4186F9"/>
		</radialGradient>
		<path fill="url(#SVGID_21_)" d="M283.916,160.6c0,5.751-4.661,10.412-10.406,10.412c-5.75,0-10.41-4.661-10.41-10.412
			c0-5.746,4.66-10.409,10.41-10.409C279.255,150.19,283.916,154.854,283.916,160.6z"/>
		
			<radialGradient id="SVGID_22_" cx="293.4309" cy="201.3599" r="7.46" gradientTransform="matrix(1 0 0 -1 -41.6001 348.0098)" gradientUnits="userSpaceOnUse">
			<stop  offset="0" style="stop-color:#5CB8F9"/>
			<stop  offset="0.4409" style="stop-color:#51A4F9"/>
			<stop  offset="1" style="stop-color:#4186F9"/>
		</radialGradient>
		<circle fill="url(#SVGID_22_)" cx="251.831" cy="146.65" r="7.46"/>
		
			<radialGradient id="SVGID_23_" cx="353.3547" cy="3.6714" r="8.6941" gradientTransform="matrix(1 0 0 -1 -41.6001 348.0098)" gradientUnits="userSpaceOnUse">
			<stop  offset="0" style="stop-color:#5CB8F9"/>
			<stop  offset="0.3101" style="stop-color:#4FA4E6"/>
			<stop  offset="0.9397" style="stop-color:#2E72B4"/>
			<stop  offset="1" style="stop-color:#2B6DAF"/>
		</radialGradient>
		<path fill="url(#SVGID_23_)" d="M320.449,344.339c0,4.802-3.892,8.693-8.694,8.693c-4.8,0-8.695-3.894-8.695-8.693
			c0-4.805,3.896-8.694,8.695-8.694C316.559,335.645,320.449,339.534,320.449,344.339z"/>
		
			<radialGradient id="SVGID_24_" cx="331.5647" cy="7.6563" r="7.459" gradientTransform="matrix(1 0 0 -1 -41.6001 348.0098)" gradientUnits="userSpaceOnUse">
			<stop  offset="0" style="stop-color:#5CB8F9"/>
			<stop  offset="0.3101" style="stop-color:#4FA4E6"/>
			<stop  offset="0.9397" style="stop-color:#2E72B4"/>
			<stop  offset="1" style="stop-color:#2B6DAF"/>
		</radialGradient>
		<circle fill="url(#SVGID_24_)" cx="289.964" cy="340.354" r="7.459"/>
		
			<radialGradient id="SVGID_25_" cx="313.0305" cy="13.8335" r="6.2239" gradientTransform="matrix(1 0 0 -1 -41.6001 348.0098)" gradientUnits="userSpaceOnUse">
			<stop  offset="0" style="stop-color:#5CB8F9"/>
			<stop  offset="0.3101" style="stop-color:#4FA4E6"/>
			<stop  offset="0.9397" style="stop-color:#2E72B4"/>
			<stop  offset="1" style="stop-color:#2B6DAF"/>
		</radialGradient>
		<path fill="url(#SVGID_25_)" d="M277.655,334.173c0,3.438-2.788,6.228-6.225,6.228c-3.435,0-6.224-2.789-6.224-6.228
			s2.789-6.221,6.224-6.221C274.866,327.952,277.655,330.734,277.655,334.173z"/>
		
			<radialGradient id="SVGID_26_" cx="295.7346" cy="21.2495" r="4.9885" gradientTransform="matrix(1 0 0 -1 -41.6001 348.0098)" gradientUnits="userSpaceOnUse">
			<stop  offset="0" style="stop-color:#5CB8F9"/>
			<stop  offset="0.3465" style="stop-color:#49A5E5"/>
			<stop  offset="1" style="stop-color:#1C77B7"/>
		</radialGradient>
		<path fill="url(#SVGID_26_)" d="M259.122,326.761c0,2.759-2.234,4.988-4.988,4.988c-2.756,0-4.988-2.229-4.988-4.988
			c0-2.758,2.232-4.989,4.988-4.989C256.888,321.771,259.122,324.003,259.122,326.761z"/>
		
			<radialGradient id="SVGID_27_" cx="274.8938" cy="208.0996" r="5.3528" gradientTransform="matrix(1 0 0 -1 -41.6001 348.0098)" gradientUnits="userSpaceOnUse">
			<stop  offset="0" style="stop-color:#5CB8F9"/>
			<stop  offset="0.4409" style="stop-color:#51A4F9"/>
			<stop  offset="1" style="stop-color:#4186F9"/>
		</radialGradient>
		<circle fill="url(#SVGID_27_)" cx="233.294" cy="139.91" r="5.353"/>
		<path fill="none" d="M209.676,111.614c-8.375,5.222-18.584,9.166-18.927,20.771c-2.034-9.777,0.092-17.219,8.151-23.563
			c2.942-2.319,6.537-4.323,10.243-3.797c1.455,0.204,3.029,1.009,3.327,2.45C212.83,109.217,211.184,110.674,209.676,111.614z"/>
		
			<linearGradient id="SVGID_28_" gradientUnits="userSpaceOnUse" x1="195.6199" y1="310.5352" x2="200.7411" y2="289.7657" gradientTransform="matrix(0.9977 0.068 0.068 -0.9977 -18.298 400.2203)">
			<stop  offset="0.0103" style="stop-color:#4BABF9"/>
			<stop  offset="1" style="stop-color:#2B6DAF"/>
		</linearGradient>
		<path fill="url(#SVGID_28_)" d="M200.011,107.029c-7.081,5.015-10.722,14.447-8.85,22.922c-0.01-2.963,1.444-5.78,3.422-7.989
			c1.979-2.204,4.459-3.889,6.913-5.551c2.714-1.839,8.839-3.905,8.715-8.033C210.06,103.225,202.62,105.184,200.011,107.029z"/>
		<path opacity="0.29" fill="#FFFFFF" enable-background="new    " d="M415.989,243.11c3.115,11.298,4.78,17.919,3.188,33.455
			c-0.733,7.131-5.559,25.181-5.577,25.093c-7.039-31.746-26.163-60.188-51.623-80.41c-25.461-20.223-59.525-33.696-90.638-43.149
			c23.327-13.221,60.899,2.096,83.594,12.829C376.244,201.01,409.14,218.278,415.989,243.11z"/>
		
			<linearGradient id="SVGID_29_" gradientUnits="userSpaceOnUse" x1="168.5544" y1="296.0439" x2="173.6126" y2="281.1669" gradientTransform="matrix(0.9977 0.068 0.068 -0.9977 -18.298 400.2203)">
			<stop  offset="0.0103" style="stop-color:#4BABF9"/>
			<stop  offset="1" style="stop-color:#2B6DAF"/>
		</linearGradient>
		<path fill="url(#SVGID_29_)" d="M167.218,121.259c-3.765-0.405-8.217-0.348-10.51,2.67c-0.399,0.524-0.715,1.145-0.729,1.805
			c-0.019,0.905,0.531,1.733,1.188,2.36c2.077,1.981,5.142,2.448,8.005,2.696c4.358,0.379,9.233,1.14,13.602,0.846
			c4.391-0.295,8.016-0.487,12.27,1.35c-1.603-0.688-2.532-3.29-3.724-4.476c-1.561-1.556-3.729-2.765-5.703-3.7
			C177.127,122.677,172.125,121.784,167.218,121.259z"/>
		<path opacity="0.4" fill="#FFFFFF" enable-background="new    " d="M207.773,105.484c0.828,0.251,1.56,0.713,2.085,1.469
			c-1.299-1.864-9.674,3.841-10.764,4.71c-3.36,2.68-6.07,6.198-7.646,10.209c-0.713-3.31,0.998-6.607,2.877-9.217
			c1.91-2.656,4.382-5.206,7.444-6.495C203.443,105.457,205.868,104.908,207.773,105.484z"/>
		<path opacity="0.4" fill="#FFFFFF" enable-background="new    " d="M161.249,122.649c7.409-1.267,14.568-0.021,21.467,2.645
			c-4.291-1.659-7.483-4.346-12.27-5.147c-4.05-0.683-9.467-0.278-13.135,1.68c-1.373,0.73-2.686,1.868-2.944,3.401
			c-0.33,1.944,1.524,3.944,3.49,3.756c-1.65-0.386-2.051-2.795-1.058-4.162C157.799,123.451,159.583,122.932,161.249,122.649z"/>
		<g>
			<path opacity="0.33" fill="#526995" enable-background="new    " d="M198.391,383.925c0.209,3.513-1.892,6.488-4.695,6.66
				c-2.8,0.166-5.242-2.541-5.451-6.051c-0.21-3.513,1.892-6.492,4.692-6.664C195.741,377.708,198.182,380.415,198.391,383.925z"/>
			<path fill="#0D2158" d="M197.295,384.909c0,3.487-2.538,5.965-5.627,6.312c-3.045,0.346-14.314,5.182-14.729,1.719
				c-1.114-9.359,8.674-14.17,14.346-14.256C194.392,378.636,197.295,381.421,197.295,384.909z"/>
			<path fill="#526995" d="M192.507,381.782c2.278-0.318,2.768,0.092,2.768,0.092s-1.033-2.146-3.574-2.278
				c-5.115-0.273-14.232,4.403-14.187,12.942C177.516,392.729,180.218,383.484,192.507,381.782z"/>
		</g>
		<g>
			<path opacity="0.33" fill="#526995" enable-background="new    " d="M211.617,392.923c0.227,3.771-1.941,6.968-4.838,7.14
				c-2.897,0.176-5.427-2.742-5.651-6.513c-0.227-3.77,1.939-6.969,4.835-7.145C208.86,386.234,211.39,389.15,211.617,392.923z"/>
			<path fill="#0D2158" d="M210.65,393.96c0,3.601-2.622,6.162-5.814,6.522c-3.15,0.354-14.799,5.355-15.225,1.775
				c-1.157-9.68,8.969-14.648,14.827-14.738C207.649,387.471,210.65,390.354,210.65,393.96z"/>
			<path fill="#526995" d="M205.702,390.725c2.355-0.326,2.858,0.096,2.858,0.096s-1.065-2.219-3.692-2.357
				c-5.291-0.281-14.716,4.557-14.664,13.383C190.207,402.04,192.998,392.484,205.702,390.725z"/>
		</g>
	</g>
</g>
</svg>
