<?xml version="1.0" encoding="utf-8"?>
<!-- Generator: Adobe Illustrator 15.1.0, SVG Export Plug-In . SVG Version: 6.00 Build 0)  -->
<!DOCTYPE svg PUBLIC "-//W3C//DTD SVG 1.1//EN" "http://www.w3.org/Graphics/SVG/1.1/DTD/svg11.dtd">
<svg version="1.1" id="Layer_1" xmlns="http://www.w3.org/2000/svg" xmlns:xlink="http://www.w3.org/1999/xlink" x="0px" y="0px"
	 width="512px" height="512px" viewBox="0 0 512 512" enable-background="new 0 0 512 512" xml:space="preserve">
<g>
	<g>
		<g>
			<path fill="#E5E5E5" d="M268.089,320.021c0.514,3.723,0.528,12.896-2.143,16.063c-4.093,4.854-13.368,1.152-18.587,1.416
				c-10.236,0.508-20.567,0.799-22.273-11.535c-1.641-11.873,6.656-22.83,18.532-24.473
				C255.488,299.85,266.446,308.145,268.089,320.021z"/>
			<path fill="#916F5D" d="M244.93,301.99c-8.911-1.516-17.569,6.434-19.336,17.756c-0.517,3.309-0.372,6.529,0.293,9.482
				c3.126,9.367,12.492,8.932,21.776,8.307c1.254-0.086,2.741,0.063,4.339,0.266c2.923-3.168,5.072-7.527,5.862-12.561
				C259.628,313.918,253.836,303.512,244.93,301.99z"/>
			<radialGradient id="SVGID_1_" cx="237.5322" cy="319.8066" r="15.6262" gradientUnits="userSpaceOnUse">
				<stop  offset="0" style="stop-color:#290D01"/>
				<stop  offset="0.6584" style="stop-color:#2B0E01"/>
				<stop  offset="0.8953" style="stop-color:#321302"/>
				<stop  offset="1" style="stop-color:#381702"/>
			</radialGradient>
			<path fill="url(#SVGID_1_)" d="M241.393,301.895c-5.186,0.721-9.611,3.461-12.707,7.348c-3.038,4.531-4.505,10.244-3.687,16.207
				c1.458,10.598,8.647,12.365,16.814,12.402c3.991-3.168,7.046-8.35,8.093-14.6c1.491-8.863-1.488-17.266-6.977-21.49
				C242.417,301.795,241.906,301.822,241.393,301.895z"/>
		</g>
		<linearGradient id="SVGID_2_" gradientUnits="userSpaceOnUse" x1="268.3096" y1="399.0908" x2="303.1729" y2="399.0908">
			<stop  offset="0.0121" style="stop-color:#D99C54"/>
			<stop  offset="0.3129" style="stop-color:#D59952"/>
			<stop  offset="0.6073" style="stop-color:#C9904D"/>
			<stop  offset="0.8981" style="stop-color:#B68044"/>
			<stop  offset="1" style="stop-color:#AD7940"/>
		</linearGradient>
		<path fill="url(#SVGID_2_)" d="M275.359,414.762c3.03,0.842,6.271,0.309,9.47-0.459c9.271-2.23,20.012-10.506,18.126-21.24
			c-1.413-8.043-11.088-12.83-18.272-8.348c-3.655,2.285-5.442,6.189-7.212,9.936c-1.976,4.182-3.301,4.723-6.555,7.486
			c-4.334,3.682-2.854,8.389,1.441,11.248C273.332,414.033,274.333,414.477,275.359,414.762z"/>
		
			<radialGradient id="SVGID_3_" cx="274.5459" cy="392.9561" r="7.6859" gradientTransform="matrix(0.7762 0.6305 -1.4934 1.8384 648.2727 -502.5491)" gradientUnits="userSpaceOnUse">
			<stop  offset="0" style="stop-color:#FCE592"/>
			<stop  offset="0.2774" style="stop-color:#F4D584"/>
			<stop  offset="0.8169" style="stop-color:#E0AC61"/>
			<stop  offset="1" style="stop-color:#D99C54"/>
		</radialGradient>
		<path opacity="0.2" fill="url(#SVGID_3_)" d="M272.319,403.455c1.557-0.992,3.201-1.857,4.791-2.803
			c3.223-1.92,5.349-4.641,7.088-7.926c0.668-1.256,3.046-7.045,0.85-7.639c-1.29-0.348-2.495,1.258-3.196,2.086
			c-1.895,2.236-3.138,4.842-4.381,7.477c-1.976,4.182-3.301,4.723-6.555,7.486c-0.812,0.689-1.533,1.514-2.016,2.469
			c-0.187,0.379-0.409,0.867-0.476,1.291c-0.2,1.289,1.219-0.195,1.489-0.441C270.682,404.746,271.437,404.02,272.319,403.455z"/>
		<linearGradient id="SVGID_4_" gradientUnits="userSpaceOnUse" x1="355.9395" y1="399.9277" x2="336.2452" y2="387.619">
			<stop  offset="0" style="stop-color:#AD7940"/>
			<stop  offset="0.1019" style="stop-color:#B68044"/>
			<stop  offset="0.3927" style="stop-color:#C9904D"/>
			<stop  offset="0.6871" style="stop-color:#D59952"/>
			<stop  offset="0.9879" style="stop-color:#D99C54"/>
		</linearGradient>
		<path fill="url(#SVGID_4_)" d="M364.005,382.348c-0.027-1.883-0.313-3.648-1.227-4.893c-2.608-3.555-9.442-3.904-13.548-4.783
			c-5.55-1.191-9.083-0.84-11.618,5.018c-2.661,6.16,0.249,13.445-1.506,19.797c-1.249,4.525-8.292,10.406-2.823,15.33
			c4.023,3.619,9.161,3.525,12.857,2.734c7.012-1.5,11.799-7.881,14.698-12.885c2.4-4.141,2.812-8.553,2.797-13.211
			C363.631,387.527,364.04,384.838,364.005,382.348z"/>
		<linearGradient id="SVGID_5_" gradientUnits="userSpaceOnUse" x1="378.708" y1="331.6045" x2="297.4684" y2="405.0539">
			<stop  offset="0" style="stop-color:#BE894A"/>
			<stop  offset="0.4939" style="stop-color:#BB8648"/>
			<stop  offset="0.9129" style="stop-color:#B07C42"/>
			<stop  offset="1" style="stop-color:#AD7940"/>
		</linearGradient>
		<path fill="url(#SVGID_5_)" d="M398.01,359.867c-0.353,4.186-1.809,8.006-3.772,11.797c-15.859,30.625-51.46,42.686-84.336,35.896
			c-9.942-2.053-22.551-11.021-26.763-19.367c-7.7-15.27,0.993-29.143,11.137-39.711c7.284-7.582,15.945-14.238,24.845-19.813
			c6.201-3.885,12.37-6.068,19.402-7.877c5.689-1.459,12.577-2.748,18.473-2.59c7.848,0.209,18.81,0.486,24.307,7.082
			c4.985,5.975,10.234,12.654,13.57,19.688C396.971,349.398,398.425,354.916,398.01,359.867z"/>
		
			<radialGradient id="SVGID_6_" cx="-157.4243" cy="441.0059" r="26.6917" gradientTransform="matrix(2.1043 -0.0712 0.0403 1.1918 648.0557 -126.9877)" gradientUnits="userSpaceOnUse">
			<stop  offset="0" style="stop-color:#E49064"/>
			<stop  offset="1" style="stop-color:#C68D4C"/>
		</radialGradient>
		<path fill="url(#SVGID_6_)" d="M373.975,389.34c0.338,10.074-18.906,18.902-42.983,19.717
			c-24.077,0.813-44.828-10.074-45.17-20.15c-0.34-10.076,19.858-15.52,43.937-16.332
			C353.837,371.76,373.635,379.268,373.975,389.34z"/>
		<path fill="#AD7940" d="M341.038,341.6c-6.929-3.027-16.746,1.795-23.4,5.145c-6.683,3.363-13.313,7.361-19.118,12.088
			c-4.848,3.955-10.087,8.305-13.37,13.721c-2.136,3.525-2.437,8.041-2.352,12.045c0.161,7.686,13.687,6.85,18.918,6.531
			c4.429-0.271,8.739-1.357,13.012-2.635c16.003-4.779,42.438-20.924,31.719-41.563C345.038,344.219,343.177,342.535,341.038,341.6z
			"/>
		<path fill="#C68D4C" d="M348.486,315.697c-0.593-2.729-1.54-5.436-2.285-7.906c-3.601-11.918-8.829-24.557-18.967-32.418
			c-6.099-4.729-13.323-7.48-20.937-8.525c-14.779-2.023-31.944-0.535-45.83,4.992c-18.898,7.516-19.89,24.734-27.781,41.604
			c-2.515,5.383-6.564,10.643-11.027,14.543c-6.817,5.955-15.604-2.824-19.061,7.016c-2.005,5.695,0.713,14.205,3.949,18.469
			c7.92,10.441,20.313,20.203,33.77,21.082c2.662,0.174,5.201-0.078,7.438-1.629c-0.382,2.719-2.029,5.355,0.793,7.67
			c1.593,1.305,4.079,1.033,5.953,1.691c1.957,0.686,3.653,1.934,5.575,2.725c4.59,1.883,9.588,2.256,14.448,2.961
			c5.879,0.85,11.829,1.576,17.76,0.732c10.204-1.447,19.526-3.592,28.522-8.873c10.948-6.426,22.165-16.695,22.649-30.32
			c0.158-4.443-1.984-8.258-0.977-12.971c0.816-3.811,2.871-6.574,4.886-9.783C349.455,323.41,349.317,319.529,348.486,315.697z"/>
		
			<radialGradient id="SVGID_7_" cx="309.0332" cy="404.4209" r="32.3153" gradientTransform="matrix(0.3442 0.9389 -1.8197 0.667 938.6139 -155.4988)" gradientUnits="userSpaceOnUse">
			<stop  offset="0" style="stop-color:#FC9292"/>
			<stop  offset="0.2874" style="stop-color:#F09182"/>
			<stop  offset="0.8463" style="stop-color:#D08E59"/>
			<stop  offset="1" style="stop-color:#C68D4C"/>
		</radialGradient>
		<path opacity="0.5" fill="url(#SVGID_7_)" d="M341.152,348.617c-4.756-0.732-14.395,8.908-16.69,10.969
			c-9.538,8.541-21.075,13.477-33.289,17.096c-5.719,1.697-11.611,2.914-17.572,3.314c-2.979,0.201-5.965,0.209-8.947-0.037
			c-0.589-0.045-7.235-0.625-5.987-1.84c-1.314,1.279-2.575,2.617-4.039,3.664c0.641,1.076,2.514,1.645,3.578,2.279
			c1.487,0.887,3.12,1.469,4.781,1.941c3.768,1.07,7.681,1.408,11.538,1.967c5.879,0.85,11.829,1.576,17.76,0.732
			c10.204-1.447,19.526-3.592,28.522-8.873c5.685-3.338,11-7.42,15.267-12.475c2.13-2.527,3.809-5.262,5.117-8.297
			c0.987-2.285,3.419-6.848,1.781-9.283C342.515,349.096,341.894,348.73,341.152,348.617z"/>
		<linearGradient id="SVGID_8_" gradientUnits="userSpaceOnUse" x1="381.083" y1="355.2031" x2="363.7223" y2="419.8366">
			<stop  offset="0" style="stop-color:#BE894A"/>
			<stop  offset="0.6" style="stop-color:#BE894A"/>
			<stop  offset="0.9879" style="stop-color:#D99C54"/>
		</linearGradient>
		<path fill="url(#SVGID_8_)" d="M393.732,360.389c-0.302-0.553-0.621-1.08-0.972-1.582c-4.832-7.025-18.127-5.762-24.54-1.699
			c-6.454,4.092-10.168,9.785-10.733,17.377c-0.722,9.736,3.437,20.004-0.386,29.438c-2.139,5.273-12.413,15.85-0.841,17.848
			c6.738,1.17,14.984,0.143,20.516-3.756c4.642-3.27,9.344-9.896,10.396-15.865c0.82-4.65-0.73-8.242,0.088-11.551
			c0.69-2.803,3.392-6.1,4.653-8.791C395.12,374.963,397.629,367.535,393.732,360.389z"/>
		
			<radialGradient id="SVGID_9_" cx="348.1455" cy="397.2803" r="16.2404" gradientTransform="matrix(1 0 0 1.5408 0 -214.8412)" gradientUnits="userSpaceOnUse">
			<stop  offset="0" style="stop-color:#FCE592"/>
			<stop  offset="0.2774" style="stop-color:#F4D584"/>
			<stop  offset="0.8169" style="stop-color:#E0AC61"/>
			<stop  offset="1" style="stop-color:#D99C54"/>
		</radialGradient>
		<path opacity="0.2" fill="url(#SVGID_9_)" d="M357.102,403.922c-0.761,1.879-1.968,3.586-3.015,5.311
			c-0.591,0.975-1.094,2.014-1.693,2.98c-0.218,0.346-0.493,0.568-0.618,0.971c-0.138,0.42,0.028,0.906-0.109,1.34
			c0.773-1.072,2.121-1.67,3.145-2.473c1.146-0.9,2.21-2.115,3-3.338c0.96-1.496,1.594-3.238,2.278-4.873
			c2.049-4.883,1.858-10.252,0.402-15.236c-0.669-2.297-2.106-4.904-2.046-7.314c-1.402,1.191-0.451,4.277-0.283,5.75
			c0.291,2.578,0.568,5.16,0.596,7.752C358.785,397.85,358.262,401.072,357.102,403.922z"/>
		<radialGradient id="SVGID_10_" cx="386.6035" cy="353.2783" r="24.2648" gradientUnits="userSpaceOnUse">
			<stop  offset="0" style="stop-color:#FC9292"/>
			<stop  offset="0.1624" style="stop-color:#FC9282;stop-opacity:0.8376"/>
			<stop  offset="0.4797" style="stop-color:#FB9458;stop-opacity:0.5203"/>
			<stop  offset="0.9172" style="stop-color:#F99615;stop-opacity:0.0828"/>
			<stop  offset="1" style="stop-color:#F99608;stop-opacity:0"/>
		</radialGradient>
		<path opacity="0.42" fill="url(#SVGID_10_)" d="M412.354,353.277c0,12.527-11.53,22.684-25.749,22.684
			c-14.222,0-25.752-10.156-25.752-22.684s11.53-22.682,25.752-22.682C400.823,330.596,412.354,340.75,412.354,353.277z"/>
		
			<radialGradient id="SVGID_11_" cx="259.8857" cy="256.2051" r="49.4689" gradientTransform="matrix(1 0 0 1.1263 0 -32.3613)" gradientUnits="userSpaceOnUse">
			<stop  offset="0" style="stop-color:#FC9292"/>
			<stop  offset="0.2874" style="stop-color:#F09182"/>
			<stop  offset="0.8463" style="stop-color:#D08E59"/>
			<stop  offset="1" style="stop-color:#C68D4C"/>
		</radialGradient>
		<path opacity="0.53" fill="url(#SVGID_11_)" d="M234.158,310.123c6.314,1.717,13.531,2.695,21.201,2.695
			c24.765,0,44.838-10.154,44.838-22.682c0-9.891-12.513-18.295-29.955-21.4c-3.378,0.84-6.663,1.863-9.774,3.104
			C242.809,278.863,240.784,294.357,234.158,310.123z"/>
		<path fill="#AD7940" d="M401.978,317.635c-0.511,3.35-1.112,6.695-1.521,10.059c-1.115,9.225-1.493,18.52-3.568,27.609
			c-1.271,5.566,1.097,15.053-3.934,19.48c-3.691,3.244-7.145-6.008-9.809-7.793c-4.166-2.797-9.652-3.699-14.54-4.215
			c-14.245-1.506-30.523,3.078-41.576-7.953c-3.536-3.523-5.488-8.238-7.973-12.547c-0.903-1.568-6.741-14.021-5.637-15.438
			c0.817-1.043,2.18-1.129,3.059-2.053c0.949-0.992,1.57-3.033,2.127-4.254c1.443-3.17,0.906-6.682-0.321-10.031
			c-8.448-23.078-37.216-30.039-59.076-26.621c-4.799,0.752-15.138,5.791-19.5,2.154c-1.819-1.516-2.307-5.918-2.705-8.082
			c-0.717-3.904-0.004-7.654,2.189-11.033c7.165-11.035,22.909-15.659,34.955-18.159c21.723-4.508,44.854-3.32,66.314,2
			c18.334,4.546,37.542,12.487,50.588,26.65c7.65,8.303,12.11,18.592,11.938,29.932
			C402.937,310.799,402.503,314.221,401.978,317.635z"/>
		<radialGradient id="SVGID_12_" cx="307.3506" cy="304.1104" r="119.0252" gradientUnits="userSpaceOnUse">
			<stop  offset="0" style="stop-color:#67638C"/>
			<stop  offset="0.428" style="stop-color:#74749E"/>
			<stop  offset="1" style="stop-color:#8991BC"/>
		</radialGradient>
		<path fill="url(#SVGID_12_)" d="M436.822,322.959c-3.586,9.297-9.926,18.945-17.594,28.434
			c-7.611,9.424-13.896,17.918-25.553,21.902c-4.745-9.127-12.961-11.596-14.648-12.223c-5.718-2.113-12.446-1.279-18.394-1.301
			c-8.449-0.035-22.12-3.502-27.803-10.17c-4.379-5.145-2.325-6.736-1.978-12.463c0.496-8.133-0.369-16.021-3.771-23.857
			c-13.682-31.582-47.722-43.205-76.871-28.367c-22.986,11.699-52.688-16.105-58.407-30.174
			c-7.605-18.717-1.328-41.599,10.133-56.868c10.382-13.831,24.055-25.191,40.101-31.794c33.695-13.869,74.96-17.418,109.975-6.625
			c39.506,12.176,74.411,47.235,85.51,87.296C444.344,271.377,445.936,299.307,436.822,322.959z"/>
		
			<radialGradient id="SVGID_13_" cx="242.123" cy="292.2168" r="60.8911" gradientTransform="matrix(0.9979 -0.0641 0.1076 1.6745 -30.9485 -181.5794)" gradientUnits="userSpaceOnUse">
			<stop  offset="0" style="stop-color:#67638C"/>
			<stop  offset="0.428" style="stop-color:#74749E"/>
			<stop  offset="1" style="stop-color:#8991BC"/>
		</radialGradient>
		<path fill="url(#SVGID_13_)" d="M250.211,284.914c-22.986,11.699-52.688-16.105-58.407-30.174
			c-7.605-18.717-1.328-41.599,10.133-56.868c10.382-13.831,24.055-25.191,40.101-31.794c4.115-1.696,8.409-3.13,12.649-4.473
			c5.713-1.811,16.489-6.2,22.041-2.246c5.426,3.861,6.613,12.591,5.528,17.604c-4.034,18.651-11.449,41.011-9.302,59.887
			c0.813,7.134,0.356,14.344,1.003,21.494c0.317,3.558,0.875,7.13,2.045,10.519c0.604,1.734,4.431,7.357,3.024,9.107
			c-0.659,0.826-3.593,0.377-4.551,0.434c-2.045,0.121-4.082,0.395-6.109,0.686C262.047,279.998,255.894,282.02,250.211,284.914z"/>
		
			<radialGradient id="SVGID_14_" cx="226.2305" cy="281.9453" r="45.6375" gradientTransform="matrix(0.9979 -0.0641 0.1076 1.6745 -29.8759 -175.6703)" gradientUnits="userSpaceOnUse">
			<stop  offset="0" style="stop-color:#67638C"/>
			<stop  offset="0.428" style="stop-color:#74749E"/>
			<stop  offset="1" style="stop-color:#8991BC"/>
		</radialGradient>
		<path fill="url(#SVGID_14_)" d="M250.211,284.914c-22.986,11.699-52.688-16.105-58.407-30.174
			c-7.605-18.717-1.328-41.599,10.133-56.868c5.063-6.747,13.379-11.386,19.484-17.162c3.979-3.77,7.749-4.882,6.672,1.869
			c-0.852,5.341-2.386,10.556-3.709,15.795c-2.628,10.411-3.757,20.095-3.424,30.81c0.238,7.646,1.537,17.091,5.055,23.975
			c3.635,7.116,9.849,12.761,16.61,16.861c2.979,1.809,5.814,3.859,8.848,5.574c1.834,1.041,4.896,2.453,5.053,4.943
			C256.692,283.176,252.382,283.807,250.211,284.914z"/>
		
			<radialGradient id="SVGID_15_" cx="316.165" cy="214.897" r="58.8885" gradientTransform="matrix(0.8988 0.4208 -0.7505 1.4773 193.2696 -160.2206)" gradientUnits="userSpaceOnUse">
			<stop  offset="0" style="stop-color:#67638C"/>
			<stop  offset="0.428" style="stop-color:#74749E"/>
			<stop  offset="1" style="stop-color:#8991BC"/>
		</radialGradient>
		<path fill="url(#SVGID_15_)" d="M369.131,259.919c-2.825,2.862-5.758,5.624-8.765,8.288c-10.313,9.141-21.039,19.67-33.934,25.439
			c-5.938,2.652-11.336,3.154-15.245-2.621c-4.511-6.66,3.78-13.139,7.292-18.229c5.305-7.703,6.545-16.77,8.296-25.687
			c1.858-9.48,2.007-18.55,3.304-28.627c1.148-8.903,5.793-18.37,4.45-28.106c-1.382-10.007-1.675-25.668,12.294-26.715
			c12.68-0.95,30.51,9.861,39.798,17.508c11.887,9.791,15.408,26.54,9.388,40.39C389.759,235.936,380.245,248.683,369.131,259.919z"
			/>
		
			<radialGradient id="SVGID_16_" cx="361.3057" cy="355.875" r="86.9993" gradientTransform="matrix(0.9013 0.4333 -0.4555 0.9476 197.7823 -137.8808)" gradientUnits="userSpaceOnUse">
			<stop  offset="0" style="stop-color:#67638C"/>
			<stop  offset="0.428" style="stop-color:#74749E"/>
			<stop  offset="1" style="stop-color:#8991BC"/>
		</radialGradient>
		<path fill="url(#SVGID_16_)" d="M429.534,289.18c3.335-1.547,9.396-4.318,12.26-0.496c1.643,2.195,0.72,6.002,0.554,8.523
			c-0.223,3.41-0.637,6.797-1.246,10.162c-0.739,4.123-2.364,7.994-3.896,11.869c-1.301,3.283-1.636,6.051-3.824,8.984
			c-2.756,3.699-4.489,7.607-6.393,11.789c-1.423,3.125-4.603,5.316-6.5,8.139c-0.925,1.375-1.191,2.742-1.959,4.119
			c-1.039,1.869-2.902,3.623-4.275,5.262c-2.79,3.342-5.729,6.617-9.114,9.369c-0.92,0.746-10.927,7.434-11.464,6.395
			c-4.745-9.127-12.961-11.596-14.648-12.223c-5.718-2.113-12.446-1.279-18.394-1.301c-8.449-0.035-22.199-3.438-27.803-10.17
			c-5.101-6.129-1.4-13.32-1.19-14.553c0.746-4.359-2.079-5.598,1.862-7.844c7.487-4.264,17.007-6.113,25.207-8.098
			c7.748-1.871,14.945-5.324,22.654-7.102c8.815-2.035,18.038-7.264,26.196-11.125C415.067,297.326,422.013,292.668,429.534,289.18z
			"/>
		
			<radialGradient id="SVGID_17_" cx="359.5713" cy="364.6318" r="78.4748" gradientTransform="matrix(0.9013 0.4333 -0.4555 0.9476 201.6 -136.6702)" gradientUnits="userSpaceOnUse">
			<stop  offset="0" style="stop-color:#67638C"/>
			<stop  offset="0.428" style="stop-color:#74749E"/>
			<stop  offset="1" style="stop-color:#8991BC"/>
		</radialGradient>
		<path fill="url(#SVGID_17_)" d="M380.807,360.406c-10.331-3.816-23.344,0.965-33.483-2.189
			c-5.119-1.594-16.568-6.875-16.284-14.143c16.129-0.521,30.777-0.74,46.816-2.467c8.652-0.932,16.699-1.723,25.419-2.23
			c4.434-0.258,30.899-10.498,30.899-10.498s-9.687,18.422-14.624,24.311c-7.784,9.279-13.485,14.814-25.072,20.51
			C389.735,364.574,382.493,361.031,380.807,360.406z"/>
		<path fill="#57577C" d="M332.831,349.602c-2.328-2.736-3.601-5.986-4.012-9.533c-0.364-3.115-0.661-6.418-0.854-9.539
			c-0.128-2.135,0.263-4.225,0.652-6.311c0.36-1.936,1.235-3.85,1.502-5.723c0.49-3.447,1.744-6.992,4.513-9.27
			c4.728-3.893,12.713-8.094,18.667-4.557c8.5,5.045,11.607,14.838,9.592,24.072c-1.394,6.4-7.772,9.971-13.988,10.652
			c-2.933,0.322-5.901,0.719-8.85,0.396c-0.879-0.092-2.52-0.795-3.256-0.027c-0.463,0.488-0.129,3.676,0.044,4.293
			c0.457,1.627,1.786,3.031,3.028,4.107c2.843,2.459,6.203,3.334,9.842,3.793c3.49,0.438,6.958,1.197,10.447,1.588
			c3.353,0.375,6.764,0.441,10.139,0.787c6.196,0.639,12.384,1.805,17.861,4.994c1.641,0.955,3.481,2.492,5.02,4.254
			c3.821,4.385,5.789,10.172-1.759,11.9c0.674-16.021-19.482-15.664-30.785-15.709C352.185,359.736,338.514,356.27,332.831,349.602z
			"/>
		<linearGradient id="SVGID_18_" gradientUnits="userSpaceOnUse" x1="163.2192" y1="181.7739" x2="459.866" y2="253.3781">
			<stop  offset="0" style="stop-color:#FFFFFF"/>
			<stop  offset="0.2597" style="stop-color:#EDEFFA;stop-opacity:0.7403"/>
			<stop  offset="0.7774" style="stop-color:#BFC6EE;stop-opacity:0.2226"/>
			<stop  offset="1" style="stop-color:#A9B3E8;stop-opacity:0"/>
		</linearGradient>
		<path opacity="0.26" fill="url(#SVGID_18_)" d="M201.937,197.872c10.382-13.831,24.055-25.191,40.101-31.794
			c33.695-13.869,74.96-17.418,109.975-6.625c39.506,12.176,74.411,47.235,85.51,87.296c3.473,12.534,6.938,33.563,5.172,48.044
			c-2.926-20.43-14.743-82.397-56.283-107.4c-4.844-2.912-103.47-66.405-181.461,17.866c-8.4,9.075-16.219,33.612-12.155,51.808
			C184.613,238.128,188.405,215.898,201.937,197.872z"/>
		
			<radialGradient id="SVGID_19_" cx="194.8398" cy="333.8369" r="23.4834" gradientTransform="matrix(1.0873 0.0042 0.0035 0.9237 54.0226 14.5977)" gradientUnits="userSpaceOnUse">
			<stop  offset="0" style="stop-color:#995C31"/>
			<stop  offset="0.519" style="stop-color:#9B5E32"/>
			<stop  offset="0.706" style="stop-color:#A16536"/>
			<stop  offset="0.8392" style="stop-color:#AC703C"/>
			<stop  offset="0.9462" style="stop-color:#BB8145"/>
			<stop  offset="1" style="stop-color:#C68D4C"/>
		</radialGradient>
		<path fill="url(#SVGID_19_)" d="M292.574,321.953c0.828,8.855-5.931,19.92-9.275,21.227c-5.795,2.27-10.48,1.582-14.478,1.688
			c-12.79,0.342-24.759,0.43-26.821-14.48c-1.983-14.354,7.52-26.998,22.347-29.047C279.179,299.289,291.231,307.52,292.574,321.953
			z"/>
		<linearGradient id="SVGID_20_" gradientUnits="userSpaceOnUse" x1="289.4492" y1="414.46" x2="325.1519" y2="399.1588">
			<stop  offset="0.0163" style="stop-color:#D99C54"/>
			<stop  offset="0.5119" style="stop-color:#CD934F"/>
			<stop  offset="1" style="stop-color:#BD8647"/>
		</linearGradient>
		<path fill="url(#SVGID_20_)" d="M296.384,420.936c6.973,2.17,14.931,0.518,20.834-3.529c5.585-3.828,10.104-11.514,11.141-18.205
			c1.01-6.498-4.985-12.148-11.528-10.893c-4.707,0.906-10.248,2.561-13.02,6.816c-1.926,2.965-2.57,6.703-4.781,9.51
			c-2.293,2.922-6.461,3.473-8.688,6.172c-3.153,3.82,0.566,7.924,4.235,9.469C295.172,420.521,295.776,420.744,296.384,420.936z"/>
		
			<radialGradient id="SVGID_21_" cx="295.2305" cy="398.6006" r="11.3228" gradientTransform="matrix(0.8014 0.5981 -0.9035 1.2106 418.7401 -260.5295)" gradientUnits="userSpaceOnUse">
			<stop  offset="0" style="stop-color:#FCE592"/>
			<stop  offset="0.2774" style="stop-color:#F4D584"/>
			<stop  offset="0.8169" style="stop-color:#E0AC61"/>
			<stop  offset="1" style="stop-color:#D99C54"/>
		</radialGradient>
		<path opacity="0.2" fill="url(#SVGID_21_)" d="M292.424,412.764c1.039-0.514,2.018-1.344,2.888-1.857
			c2.172-1.281,4.598-2.066,6.851-3.184c2.688-1.332,5.424-2.654,7.041-5.275c1.377-2.232,2.85-4.926,3.525-7.475
			c1.166-4.4-4.291-4.652-6.84-2.453c-3.643,3.139-3.981,8.461-6.859,12.115c-2.339,2.977-9.378,3.893-9.372,8.332
			C290.599,413.402,291.533,413.199,292.424,412.764z"/>
		<path fill="#BE894A" d="M356.749,322.006c-3.165,10.166-12.819,13.672-22.719,12.252c-4.46-0.639-8.912-1.639-13.143-3.207
			c-3.668-1.354-5.639-4.209-8.876-5.846c-0.205-4.861,7.624-12.756,10.83-16.137c5.193-5.486,15.833-8.945,23.324-7.088
			C354.887,304.15,359.302,313.816,356.749,322.006z"/>
		<path fill="#C68D4C" d="M356.749,322.006c-3.165,10.166-12.819,13.672-22.719,12.252c-4.46-0.639-8.912-1.639-13.143-3.207
			c-3.668-1.354-5.639-4.209-8.876-5.846c-0.205-4.861,7.624-12.756,10.83-16.137c5.193-5.486,15.833-8.945,23.324-7.088
			C354.887,304.15,359.302,313.816,356.749,322.006z"/>
		<linearGradient id="SVGID_22_" gradientUnits="userSpaceOnUse" x1="327.9248" y1="302.3594" x2="330.7307" y2="308.3809">
			<stop  offset="0" style="stop-color:#FC9292"/>
			<stop  offset="0.2072" style="stop-color:#FB937A;stop-opacity:0.7928"/>
			<stop  offset="0.6409" style="stop-color:#FA943E;stop-opacity:0.3591"/>
			<stop  offset="1" style="stop-color:#F99608;stop-opacity:0"/>
		</linearGradient>
		<path opacity="0.7" fill="url(#SVGID_22_)" d="M323.26,308.738c6.505-5.42,14.827-8.762,22.906-6.758
			c3.365,0.838,5.899,2.518,7.203,5.75c-0.429-1.064-5.578-1.918-6.663-2.033c-2.115-0.223-4.372,0.045-6.47,0.336
			c-4.486,0.631-9.009,1.918-13.044,4.002c-2.441,1.262-4.381,3.16-6.595,4.727c-2.448,1.736-5.247,2.861-7.928,4.131
			c1.596-1.834,3.42-1.846,4.915-3.783C318.954,313.332,321.42,310.268,323.26,308.738z"/>
		
			<radialGradient id="SVGID_23_" cx="277.7783" cy="-188.8447" r="24.2638" gradientTransform="matrix(1 0 0 0.7687 0 499.1458)" gradientUnits="userSpaceOnUse">
			<stop  offset="0.0065" style="stop-color:#DA8F66"/>
			<stop  offset="1" style="stop-color:#C68D4C"/>
		</radialGradient>
		<ellipse fill="url(#SVGID_23_)" cx="277.778" cy="353.98" rx="25.749" ry="17.436"/>
		<linearGradient id="SVGID_24_" gradientUnits="userSpaceOnUse" x1="277.751" y1="340.3711" x2="299.4697" y2="340.3711">
			<stop  offset="0" style="stop-color:#995C31"/>
			<stop  offset="0.2851" style="stop-color:#A16536"/>
			<stop  offset="0.7477" style="stop-color:#B77D43"/>
			<stop  offset="1" style="stop-color:#C68D4C"/>
		</linearGradient>
		<path opacity="0.5" fill="url(#SVGID_24_)" d="M288.796,338.482c-3.269-0.473-7.418-0.686-9.875,0.525
			c-0.717,0.35-2.183,1.557-1.632,2.383c0.681,1.016,3.373,0.219,4.354,0.098c1.94-0.229,3.887-0.441,5.842-0.531
			c3.874-0.174,7.924,0.076,11.402,1.676c-2.432-1.557-4.696-3.143-7.714-3.744C290.478,338.748,289.668,338.607,288.796,338.482z"
			/>
		
			<linearGradient id="SVGID_25_" gradientUnits="userSpaceOnUse" x1="-1291.3633" y1="364.2031" x2="-1276.0542" y2="364.2031" gradientTransform="matrix(-1.4011 0.034 0.0243 0.9997 -1561.5792 21.2602)">
			<stop  offset="0" style="stop-color:#995C31"/>
			<stop  offset="0.3173" style="stop-color:#9C5F33"/>
			<stop  offset="0.5783" style="stop-color:#A56938"/>
			<stop  offset="0.8186" style="stop-color:#B57B42"/>
			<stop  offset="1" style="stop-color:#C68D4C"/>
		</linearGradient>
		<path opacity="0.5" fill="url(#SVGID_25_)" d="M245.646,339.822c3.222-0.549,7.309-0.861,9.77,0.291
			c0.714,0.334,2.19,1.502,1.665,2.342c-0.645,1.031-3.325,0.299-4.291,0.205c-1.925-0.186-3.854-0.348-5.787-0.395
			c-3.83-0.084-7.827,0.266-11.221,1.951c2.363-1.613,4.563-3.26,7.525-3.928C243.992,340.131,244.79,339.971,245.646,339.822z"/>
		<path fill="#E5E5E5" d="M287.449,323.664c0.686,7.248-4.701,16.287-7.371,17.35c-4.643,1.844-8.395,1.268-11.597,1.346
			c-10.241,0.248-19.832,0.285-21.522-11.916c-1.622-11.754,5.959-22.078,17.832-23.719
			C276.667,305.082,286.339,311.848,287.449,323.664z"/>
		<linearGradient id="SVGID_26_" gradientUnits="userSpaceOnUse" x1="246.4014" y1="324.7832" x2="277.3936" y2="324.7832">
			<stop  offset="0" style="stop-color:#381702"/>
			<stop  offset="1" style="stop-color:#8A3905"/>
		</linearGradient>
		<path fill="url(#SVGID_26_)" d="M264.876,306.65c-10.061,1.389-17.421,9.604-18.475,19.264c0.114,2.291,0.542,4.477,1.017,6.676
			c2.147,6.867,6.735,9.57,12.126,10.316c2.951,0.268,5.842,0.182,9.048,0.109c0.443-0.012,0.914-0.029,1.397-0.053
			c1.121-0.057,6.233-5.551,7.204-14.008c1.664-14.502-7.529-22.576-9.718-22.477C266.654,306.516,265.725,306.533,264.876,306.65z"
			/>
		<path fill="#916F5D" d="M263.879,306.777c-10.065,1.391-17.532,9.477-18.584,19.137c0.115,2.291,0.541,4.477,1.015,6.676
			c2.146,6.867,6.734,9.57,12.125,10.316c2.952,0.268,5.843,0.182,9.05,0.109c0.446-0.012,0.915-0.029,1.396-0.053
			c1.122-0.057,6.233-5.551,7.205-14.008c1.664-14.502-7.514-22.508-9.702-22.41C265.561,306.58,264.724,306.66,263.879,306.777z"/>
		
			<radialGradient id="SVGID_27_" cx="255.3794" cy="325.3643" r="15.5422" gradientTransform="matrix(1 0 0 1.2384 0 -77.5734)" gradientUnits="userSpaceOnUse">
			<stop  offset="0" style="stop-color:#290D01"/>
			<stop  offset="0.6584" style="stop-color:#2B0E01"/>
			<stop  offset="0.8953" style="stop-color:#321302"/>
			<stop  offset="1" style="stop-color:#381702"/>
		</radialGradient>
		<path fill="url(#SVGID_27_)" d="M261.655,307.178c-5.188,0.719-9.615,3.459-12.709,7.348c-3.035,4.533-4.507,10.246-3.685,16.207
			c1.459,10.602,8.644,12.365,16.815,12.4c3.99-3.168,7.044-8.348,8.094-14.596C271.661,319.67,262.169,307.105,261.655,307.178z"/>
		<path fill="#EFB473" d="M255.526,368.609c-1.645,1.93-4.759,3.871-7.098,3.99c-0.72,0.047-0.319,10.514,5.806,6.336
			c2.068-1.412,3.341-4.795,3.42-7.195c0.046-1.42-0.365-5.021-1.206-6.471C255.587,366.393,256.267,367.742,255.526,368.609z"/>
		<path fill="#AD7940" d="M254.422,367.5c-2.611,3.525-6.191,4.35-6.285,4.91c-0.412,2.484-0.008,8.822,4.99,5.42
			c2.069-1.414,3.336-4.799,3.417-7.197c0.05-1.418-0.019-3.84-0.073-5.574C255.607,366.184,255.101,366.588,254.422,367.5z"/>
		<path fill="#9E6935" d="M252.708,374.816c-0.457,1.453-1.154,5.049,1.349,2.217c1.507-1.709,2.41-4.133,2.487-6.4
			c0.05-1.418-0.019-3.84-0.073-5.574c-0.863,1.125-1.312,1.578-2.049,2.441c-0.507,0.596-1.032,1.178-1.594,1.719
			c-0.533,0.506-1.107,0.92-1.68,1.352c0.704-0.035,1.505,0.398,1.784,1.037c0.273,0.629,0.228,1.344,0.097,2
			C252.941,374.016,252.83,374.42,252.708,374.816z"/>
		
			<radialGradient id="SVGID_28_" cx="231.1421" cy="349.4561" r="21.3251" gradientTransform="matrix(1.086 -0.2944 0.2288 0.6722 5.0006 153.9588)" gradientUnits="userSpaceOnUse">
			<stop  offset="0" style="stop-color:#FB9368"/>
			<stop  offset="0.3739" style="stop-color:#F29563"/>
			<stop  offset="0.982" style="stop-color:#DA9C54"/>
			<stop  offset="1" style="stop-color:#D99C54"/>
		</radialGradient>
		<path opacity="0.44" fill="url(#SVGID_28_)" d="M357.79,316.953c0.263,8.428-8.319,15.533-19.168,15.867
			c-10.848,0.338-23.066-1.646-23.329-10.076c-0.262-8.426,11.537-20.105,22.385-20.443
			C348.525,301.965,357.531,308.525,357.79,316.953z"/>
		<path fill="#AD7940" d="M274.456,290.496c3.61,2.088,9.654,7.713,10.074,12.027c-5.888-3.303-12.191-3.988-18.684-5.283
			c-1.749-0.352-4.663-0.713-6.18-1.813c-4.719-3.436,1.844-6.434,4.796-6.971C267.651,287.881,271.686,288.893,274.456,290.496z"/>
		<path fill="#63300F" d="M274.456,289.391c4.854,2.799,7.854,7.689,10.207,12.551c-5.993-2.861-11.191-7.17-18.093-7.68
			c-2.446-0.176-4.968,0.596-7.281-0.619c-4.554-2.387,2.946-5.889,5.174-6.295C267.651,286.771,271.686,287.787,274.456,289.391z"
			/>
		<path fill="#7F4020" d="M274.456,289.391c2.418,1.391,2.812,3.676,4.844,5.137c-4.168-2.998-10.009-3.383-14.899-2.768
			c-1.598,0.197-7.458,2.184-6.4-1.152c0.56-1.76,4.884-2.973,6.463-3.26C267.651,286.771,271.686,287.787,274.456,289.391z"/>
		<path fill="#FFFFFF" d="M272.969,317.002c0,3.676-2.976,6.65-6.646,6.65c-3.674,0-6.648-2.975-6.648-6.65
			c0-3.67,2.975-6.645,6.648-6.645C269.993,310.357,272.969,313.332,272.969,317.002z"/>
		<path fill="#FFFFFF" d="M272.057,332.521c0,2.035-1.652,3.682-3.687,3.682c-2.029,0-3.678-1.646-3.678-3.682
			c0-2.031,1.648-3.682,3.678-3.682C270.404,328.84,272.057,330.49,272.057,332.521z"/>
		<path fill="#AD7940" d="M322.114,321.699c2.425-0.984,4.788-2.121,6.98-3.549c3.832-2.496,9.657-7.496,14.634-5.898
			c7.848,2.516,5.646,14.406-0.866,16.939c-4.574,1.777-9.916,1.816-14.716,1.084c-1.824-0.275-3.635-0.666-5.405-1.178
			c-1.979-0.568-4.092-1.311-5.719-2.611c-0.38-0.303-1.252-1.227-1.817-2.373c0.624,0.158,1.234-0.113,1.817-0.297
			c0.624-0.191,1.236-0.387,1.838-0.643C319.96,322.715,321.009,322.146,322.114,321.699z"/>
		<path fill="#9E6935" d="M322.114,321.699c2.425-0.984,4.788-2.121,6.98-3.549c3.832-2.496,9.657-7.494,14.632-5.898
			c1.479,0.477,3.212,1.736,3.912,3.254c0.518,1.123,0.815,2.441,0.624,3.662c-2.319-1.229-4.976-1.053-7.511-0.461
			c-4.449,1.033-8.275,3.564-12.415,5.293c-3.452,1.445-10.288,3.729-13.201,0.035c0.349,0.436,3.031-0.582,3.429-0.738
			C319.773,322.82,320.913,322.188,322.114,321.699z"/>
		
			<radialGradient id="SVGID_29_" cx="200.1611" cy="352.2236" r="36.5024" gradientTransform="matrix(0.9931 0.1171 -0.1216 1.0311 44.2091 -34.399)" gradientUnits="userSpaceOnUse">
			<stop  offset="0" style="stop-color:#FCE592"/>
			<stop  offset="0.2371" style="stop-color:#F2D585"/>
			<stop  offset="0.6978" style="stop-color:#D9AC64"/>
			<stop  offset="1" style="stop-color:#C68D4C"/>
		</radialGradient>
		<path opacity="0.42" fill="url(#SVGID_29_)" d="M225.657,323.979c-1.273,1.439-2.611,2.795-3.998,4.008
			c-6.817,5.955-15.604-2.824-19.061,7.016c-2.005,5.695,0.713,14.205,3.949,18.469c6.062,7.986,14.739,15.563,24.51,19.082
			c7.235-4.664,12.177-12.402,12.667-21.393C244.386,339.057,236.795,328.338,225.657,323.979z"/>
		<path opacity="0.7" fill="#AD7940" d="M206.561,343.807c-7.393,1.693-6.702-7.988-3.4-11.801c4.544-5.238,19-5.863,13.525,4.232
			C214.609,340.072,210.78,342.84,206.561,343.807z"/>
		<linearGradient id="SVGID_30_" gradientUnits="userSpaceOnUse" x1="194.4058" y1="315.9795" x2="209.7191" y2="338.7839">
			<stop  offset="0" style="stop-color:#8A3905"/>
			<stop  offset="1" style="stop-color:#381702"/>
		</linearGradient>
		<path fill="url(#SVGID_30_)" d="M216.997,328.189c0,7.947-6.443,14.393-14.39,14.393c-7.951,0-14.393-6.445-14.393-14.393
			s6.441-14.389,14.393-14.389C210.554,313.801,216.997,320.242,216.997,328.189z"/>
		<linearGradient id="SVGID_31_" gradientUnits="userSpaceOnUse" x1="195.042" y1="315.7197" x2="203.9709" y2="329.0166">
			<stop  offset="0" style="stop-color:#A34306"/>
			<stop  offset="0.5869" style="stop-color:#8E3A05;stop-opacity:0.4131"/>
			<stop  offset="1" style="stop-color:#843605;stop-opacity:0"/>
		</linearGradient>
		<path fill="url(#SVGID_31_)" d="M211.437,323.883c-1.845,3.385-6.511,5.535-9.776,6.555c-5.044,1.568-14.961,2.5-13.121-5.605
			c1.454-6.4,7.502-11.031,14.068-11.031c4.403,0,9.471,1.76,9.625,6.844C212.268,321.826,211.969,322.906,211.437,323.883z"/>
		<path opacity="0.29" fill="#FFFFFF" d="M191.947,323.961c-1.283,1.557-2.943,4.74-2.908,5c-0.625-0.928-0.313-2.502-0.079-3.51
			c1.4-6.031,7.219-10.395,13.536-10.395c3.669,0,5.914,0.928,8.202,2.992c-2.038-0.486-5.518-0.104-7.3,0.105
			c-2.525,0.289-4.939,1.156-7.154,2.363C194.806,321.305,192.971,322.721,191.947,323.961z"/>
		
			<linearGradient id="SVGID_32_" gradientUnits="userSpaceOnUse" x1="237.8936" y1="268.1982" x2="267.8027" y2="224.9963" gradientTransform="matrix(0.9922 -0.0095 0.0095 0.9938 -9.1485 -4.5874)">
			<stop  offset="0" style="stop-color:#FFFFFF"/>
			<stop  offset="0.198" style="stop-color:#EDEEF5"/>
			<stop  offset="0.5949" style="stop-color:#BFC3DA"/>
			<stop  offset="1" style="stop-color:#8991BC"/>
		</linearGradient>
		<path opacity="0.15" fill="url(#SVGID_32_)" d="M226.812,234.573c-0.925-16.656,6.039-29.108,9.796-36.168
			c7.361-13.832,20.345-18.552,23.506-18.587c-26.583,0.32-40.29,30.38-39.121,53.369c0.921,18.064,16.973,42.476,34.465,48.755
			C240.06,267.021,228.099,257.77,226.812,234.573z"/>
		
			<linearGradient id="SVGID_33_" gradientUnits="userSpaceOnUse" x1="243.6758" y1="121.8906" x2="269.9644" y2="83.9183" gradientTransform="matrix(0.9816 0.145 -0.1453 0.9832 38.3636 99.004)">
			<stop  offset="0" style="stop-color:#FFFFFF"/>
			<stop  offset="0.198" style="stop-color:#EDEEF5"/>
			<stop  offset="0.5949" style="stop-color:#BFC3DA"/>
			<stop  offset="1" style="stop-color:#8991BC"/>
		</linearGradient>
		<path opacity="0.15" fill="url(#SVGID_33_)" d="M278.714,193.24c-0.76,1.848-1.485,3.717-2.168,5.645
			c-2.766,7.861-4.157,15.592-5.04,23.929c-1.9,17.993-0.273,43.17,8.791,56.375c-5.503-19.648-6.305-31.546-3.97-54.663
			c0.995-9.798,4.829-23.708,9.079-32.749c2.207-4.704,8.139-11.126,0.868-11.186c-3.277-0.027-3.749,3.723-4.765,6.067
			C280.552,188.879,279.61,191.05,278.714,193.24z"/>
		<radialGradient id="SVGID_34_" cx="292.4424" cy="176.5605" r="6.4734" gradientUnits="userSpaceOnUse">
			<stop  offset="0" style="stop-color:#67638C"/>
			<stop  offset="0.428" style="stop-color:#74749E"/>
			<stop  offset="1" style="stop-color:#8991BC"/>
		</radialGradient>
		<path opacity="0.63" fill="url(#SVGID_34_)" d="M298.916,176.558c0,3.577-2.896,6.476-6.476,6.476
			c-3.57,0-6.472-2.898-6.472-6.476c0-3.573,2.901-6.47,6.472-6.47C296.021,170.088,298.916,172.985,298.916,176.558z"/>
		<radialGradient id="SVGID_35_" cx="281.5352" cy="189.8545" r="8.9011" gradientUnits="userSpaceOnUse">
			<stop  offset="0" style="stop-color:#67638C"/>
			<stop  offset="0.428" style="stop-color:#74749E"/>
			<stop  offset="1" style="stop-color:#8991BC"/>
		</radialGradient>
		<circle opacity="0.28" fill="url(#SVGID_35_)" cx="281.535" cy="189.856" r="8.9"/>
		<radialGradient id="SVGID_36_" cx="401.0039" cy="247.6309" r="6.4736" gradientUnits="userSpaceOnUse">
			<stop  offset="0" style="stop-color:#67638C"/>
			<stop  offset="0.428" style="stop-color:#74749E"/>
			<stop  offset="1" style="stop-color:#8991BC"/>
		</radialGradient>
		<circle opacity="0.63" fill="url(#SVGID_36_)" cx="401.003" cy="247.631" r="6.475"/>
		<radialGradient id="SVGID_37_" cx="376.0801" cy="198.1611" r="8.4968" gradientUnits="userSpaceOnUse">
			<stop  offset="0" style="stop-color:#67638C"/>
			<stop  offset="0.428" style="stop-color:#74749E"/>
			<stop  offset="1" style="stop-color:#8991BC"/>
		</radialGradient>
		<circle opacity="0.63" fill="url(#SVGID_37_)" cx="376.08" cy="198.162" r="8.498"/>
		<radialGradient id="SVGID_38_" cx="237.6196" cy="189.7422" r="5.0444" gradientUnits="userSpaceOnUse">
			<stop  offset="0" style="stop-color:#FFFFFF"/>
			<stop  offset="0.1589" style="stop-color:#FAFAFC"/>
			<stop  offset="0.3535" style="stop-color:#EBECF4"/>
			<stop  offset="0.5669" style="stop-color:#D2D5E5"/>
			<stop  offset="0.792" style="stop-color:#B0B5D2"/>
			<stop  offset="1" style="stop-color:#8991BC"/>
		</radialGradient>
		<circle opacity="0.21" fill="url(#SVGID_38_)" cx="237.62" cy="189.744" r="5.044"/>
		<radialGradient id="SVGID_39_" cx="420.9453" cy="250.7813" r="5.0454" gradientUnits="userSpaceOnUse">
			<stop  offset="0" style="stop-color:#FFFFFF"/>
			<stop  offset="0.1589" style="stop-color:#FAFAFC"/>
			<stop  offset="0.3535" style="stop-color:#EBECF4"/>
			<stop  offset="0.5669" style="stop-color:#D2D5E5"/>
			<stop  offset="0.792" style="stop-color:#B0B5D2"/>
			<stop  offset="1" style="stop-color:#8991BC"/>
		</radialGradient>
		<circle opacity="0.21" fill="url(#SVGID_39_)" cx="420.945" cy="250.783" r="5.046"/>
		<radialGradient id="SVGID_40_" cx="413.1895" cy="265.1816" r="5.0454" gradientUnits="userSpaceOnUse">
			<stop  offset="0" style="stop-color:#FFFFFF"/>
			<stop  offset="0.1589" style="stop-color:#FAFAFC"/>
			<stop  offset="0.3535" style="stop-color:#EBECF4"/>
			<stop  offset="0.5669" style="stop-color:#D2D5E5"/>
			<stop  offset="0.792" style="stop-color:#B0B5D2"/>
			<stop  offset="1" style="stop-color:#8991BC"/>
		</radialGradient>
		<path opacity="0.21" fill="url(#SVGID_40_)" d="M418.235,265.186c0,2.783-2.26,5.041-5.047,5.041s-5.046-2.258-5.046-5.041
			c0-2.789,2.259-5.048,5.046-5.048S418.235,262.396,418.235,265.186z"/>
		<radialGradient id="SVGID_41_" cx="327.1543" cy="188.2905" r="7.2827" gradientUnits="userSpaceOnUse">
			<stop  offset="0" style="stop-color:#67638C"/>
			<stop  offset="0.428" style="stop-color:#74749E"/>
			<stop  offset="1" style="stop-color:#8991BC"/>
		</radialGradient>
		<circle opacity="0.63" fill="url(#SVGID_41_)" cx="327.154" cy="188.289" r="7.284"/>
		<g opacity="0.17">
			<path fill="#949ABC" d="M295.87,200.89c-7.598,11.585-9.412,25.846-9.37,39.424c0.039,13.701,2.257,27.495,5.979,40.665
				c0.228,0.801,2.365,0.219,2.141-0.574c-3.705-13.107-5.802-26.713-5.977-40.339c-0.168-13.388,1.75-27.686,9.232-39.089
				C298.447,200.108,296.279,200.268,295.87,200.89L295.87,200.89z"/>
		</g>
		<g opacity="0.17">
			<path fill="#949ABC" d="M408.676,259.346c-6.411,11.4-13.695,22.814-24.219,30.863c-9.794,7.49-21.834,10.441-33.864,11.906
				c-1.502,0.182-2.466,2.029-0.384,1.773c12.3-1.496,24.362-4.512,34.687-11.627c11.736-8.09,19.737-20.592,26.601-32.797
				C412.229,258.163,409.189,258.43,408.676,259.346L408.676,259.346z"/>
		</g>
		
			<radialGradient id="SVGID_42_" cx="240.5103" cy="364.6738" r="2.8401" gradientTransform="matrix(1 0 0 1.1052 0 -48.9378)" gradientUnits="userSpaceOnUse">
			<stop  offset="0" style="stop-color:#995C31"/>
			<stop  offset="0.2798" style="stop-color:#A16436"/>
			<stop  offset="0.7231" style="stop-color:#B67B42"/>
			<stop  offset="1" style="stop-color:#C68D4C"/>
		</radialGradient>
		<path opacity="0.41" fill="url(#SVGID_42_)" d="M243.637,354.104c0,1.539-1.401,2.783-3.128,2.783
			c-1.724,0-3.125-1.244-3.125-2.783s1.401-2.789,3.125-2.789C242.235,351.314,243.637,352.564,243.637,354.104z"/>
		
			<radialGradient id="SVGID_43_" cx="238.4155" cy="374.2715" r="3.0807" gradientTransform="matrix(1 0 0 1.1081 0 -51.6987)" gradientUnits="userSpaceOnUse">
			<stop  offset="0" style="stop-color:#995C31"/>
			<stop  offset="0.2798" style="stop-color:#A16436"/>
			<stop  offset="0.7231" style="stop-color:#B67B42"/>
			<stop  offset="1" style="stop-color:#C68D4C"/>
		</radialGradient>
		<ellipse opacity="0.5" fill="url(#SVGID_43_)" cx="238.416" cy="363.031" rx="3.391" ry="3.031"/>
		
			<radialGradient id="SVGID_44_" cx="228.7969" cy="371.1299" r="2.418" gradientTransform="matrix(1 0 0 1.1147 0 -53.8412)" gradientUnits="userSpaceOnUse">
			<stop  offset="0" style="stop-color:#995C31"/>
			<stop  offset="0.2798" style="stop-color:#A16436"/>
			<stop  offset="0.7231" style="stop-color:#B67B42"/>
			<stop  offset="1" style="stop-color:#C68D4C"/>
		</radialGradient>
		<path opacity="0.5" fill="url(#SVGID_44_)" d="M231.458,359.855c0,1.324-1.194,2.395-2.661,2.395c-1.472,0-2.661-1.07-2.661-2.395
			c0-1.32,1.189-2.393,2.661-2.393C230.264,357.463,231.458,358.535,231.458,359.855z"/>
		<g>
			<path fill="#5E5D82" d="M317.71,297.141c6.255-1.137,11.23-5.182,16.467-8.582c7.339-4.779,14.128-10.264,21.047-15.627
				c12.753-9.879,14.276-12.889,24.012-26.223c0.629-0.863-8.041,11.215-21.276,22.235c-5.945,4.953-12.275,9.854-18.51,14.432
				c-5.908,4.338-14.156,11.18-21.466,12.51C316.942,296.074,316.238,297.408,317.71,297.141L317.71,297.141z"/>
		</g>
		<g opacity="0.34">
			<path fill="#3E3E60" d="M332.539,343.01c-1.185-0.053-2.247,2.596-0.215,2.656c27.12,0.822,66.002-0.588,87.184-11.271
				C421.168,333.557,387.433,345.416,332.539,343.01z"/>
		</g>
	</g>
	<g>
		<path fill="#BC782E" d="M150.99,157.153c0.826,0.612,1.618,1.279,2.376,1.989c2.937,2.744,4.967,5.766,7.539,8.775
			c2.796,3.274,4.561,5.969,4.601,10.318c0.029,3.29,0.056,6.621,0.355,9.899c0.099,1.093,0.198,2.222,0.162,3.781
			c-0.008,0.394-0.088,3.53-0.332,3.618c-11.767,4.23-23.569,6.307-35.799,6.307c-15.081,0-26.729-3.15-35.961-9.881
			c-17.391-12.683-21.733-34.044-22.89-55.398c-0.244-4.521-0.496-20.649,2.952-24.372c3.517-3.795,8.883,2.787,13.762,2.722
			c6.134-0.084,12.465,1.335,17.277,5.366c3.474,2.908,8.769,7.57,10.221,12.005c0.768,2.332,0.525,4.668,0.855,7.04
			c0.515,3.707,2.059,7.434,4.377,10.363c2.048,2.588,4.948,4.986,8.08,6.118c2.65,0.955,4.066,0.088,6.373-1.046
			C140.646,151.956,146.298,153.652,150.99,157.153z"/>
		<path fill="#F4AE62" d="M168.489,89.504c-0.189,7.167-0.854,24.093-1.142,41.282c-0.314,18.713-1.054,35.329-1.456,57.401
			c-11.771,4.229-23.77,6.346-35.999,6.346c-15.081,0-26.729-3.15-35.961-9.883c-17.391-12.682-21.733-34.045-22.89-55.395
			c-0.798-14.773,0.782-28.083,2.643-39.999c0.18-1.175,44.823-1.813,44.523,0.766c-0.744,6.474-2.07,18.697-2.347,24.616
			c-0.412,8.855-0.962,20.003,5.337,28.746c5.658,7.853,16.425,5.349,16.425,5.349s-1.998-45.674-3.066-59.216
			C134.371,87.16,168.556,87.118,168.489,89.504z"/>
		<g>
			<path fill="#FCCA97" d="M117.972,92.104c0.42-3.726,0.736-6.329,0.748-6.329c-0.038,0-44.481,0-44.481,0
				c-0.336,2.064-0.666,4.177-0.988,6.329C82.249,92.104,113.214,92.104,117.972,92.104z"/>
			<path fill="#FCCA97" d="M134.707,91.908c0-0.001,25.192-0.092,33.965-0.092c-0.298-3.972-0.512-5.958-0.512-5.958l-33.589,0.118
				C134.599,86.439,134.312,89.929,134.707,91.908z"/>
		</g>
		<path fill="#FCCA97" d="M105.947,125.023c0,4.148-3.36,7.511-7.511,7.511c-4.145,0-7.509-3.362-7.509-7.511
			s3.364-7.511,7.509-7.511C102.587,117.512,105.947,120.875,105.947,125.023z"/>
		<path fill="#FCCA97" d="M85.892,105.939c0,1.57-1.271,2.842-2.839,2.842c-1.571,0-2.84-1.272-2.84-2.842
			c0-1.569,1.269-2.839,2.84-2.839C84.621,103.1,85.892,104.37,85.892,105.939z"/>
		<circle fill="#FCCA97" cx="107.006" cy="103.503" r="4.06"/>
		<circle fill="#FCCA97" cx="150.406" cy="157.503" r="4.061"/>
		<circle fill="#FCCA97" cx="96.815" cy="164.812" r="7.917"/>
		<circle fill="#FCCA97" cx="131.73" cy="181.863" r="4.059"/>
		<circle fill="#FCCA97" cx="143.911" cy="101.474" r="3.045"/>
		<circle fill="#FCCA97" cx="156.497" cy="121.37" r="6.9"/>
	</g>
</g>
</svg>
