<?xml version="1.0" encoding="utf-8"?>
<!-- Generator: Adobe Illustrator 15.1.0, SVG Export Plug-In . SVG Version: 6.00 Build 0)  -->
<!DOCTYPE svg PUBLIC "-//W3C//DTD SVG 1.1//EN" "http://www.w3.org/Graphics/SVG/1.1/DTD/svg11.dtd">
<svg version="1.1" id="Layer_1" xmlns="http://www.w3.org/2000/svg" xmlns:xlink="http://www.w3.org/1999/xlink" x="0px" y="0px"
	 width="512px" height="512px" viewBox="0 0 512 512" enable-background="new 0 0 512 512" xml:space="preserve">
<g>
	<g>
		<g>
			<path fill="#C4692C" d="M100.494,219.939c-3.999-0.425-6.524-3.382-10.33-8.859c-4.432-6.376-11.824-21.524-19.02-47.347
				c-2.138-7.678-7.444-34.244-5.928-38.167c1.281-3.314,4.378-5.766,7.378-7.46c3.446-1.948,6.627-2.876,10.11-0.256
				c1.835,1.382,3.129,3.59,4.395,5.462c2.824,4.171,5.254,8.773,7.464,13.297c2.409,4.93,3.59,10.383,7.167,14.671
				c1.432,1.718,2.678,3.586,4.156,5.268c1.545,1.758,3.477,2.827,5.173,4.384c1.046,0.958,1.697,2.239,3.11,2.71
				c2.005,0.67,4.416-0.187,6.242-0.977c9.174-5.663,13.496-19.813,17.296-29.16c3.66-8.995,10.582-27.363,21.479-29.279
				c3.642-0.64,4.625,4.405,5.479,9.493c0.738,4.405-1.363,13.813-2.719,17.871c-5.11,15.293-15.931,48.108-35.104,72.404
				C119.874,212.825,110.708,221.016,100.494,219.939z"/>
		</g>
		<g>
			<path fill="#F79E54" d="M98.832,211.483c-3.999-0.422-6.525-3.38-10.331-8.857c-4.431-6.375-11.824-21.524-19.017-47.347
				c-2.141-7.677-7.444-34.243-5.932-38.167c1.874-4.852,8.785-9.02,13.59-9.817c5.354-0.886,13.783-1.411,18.349,2.311
				c5.136,4.188,4.103,13.534,4.843,19.546c0.775,6.275,5.136,30.33,16.293,21.083c12.492-10.357,3.198-31.294,14.549-42.207
				c3.713-3.565,10.235-5.573,15.311-5.478c3.959,0.074,13.348-0.298,15.779,3.138c2.54,3.586-0.692,13.595-1.983,17.446
				c-5.107,15.293-15.931,48.11-35.101,72.405C118.212,204.372,109.043,212.563,98.832,211.483z"/>
		</g>
		<g>
			<path fill="#F79E54" d="M98.832,211.483c-3.999-0.422-6.525-3.38-10.331-8.857c-4.431-6.375-11.824-21.524-19.017-47.347
				c-2.141-7.677-7.444-34.243-5.932-38.167c1.874-4.852,8.785-9.02,13.59-9.817c5.354-0.886,13.783-1.411,18.349,2.311
				c5.136,4.188,4.103,13.534,4.843,19.546c0.775,6.275,5.136,30.33,16.293,21.083c12.492-10.357,3.198-31.294,14.549-42.207
				c3.713-3.565,10.235-5.573,15.311-5.478c3.959,0.074,13.348-0.298,15.779,3.138c2.54,3.586-0.692,13.595-1.983,17.446
				c-5.107,15.293-15.931,48.11-35.101,72.405C118.212,204.372,109.043,212.563,98.832,211.483z"/>
		</g>
		<path fill="#FFBE8D" d="M74.437,111.596c5.506-0.903,14.173-1.458,18.854,2.25c5.266,4.174,4.172,13.527,4.914,19.539
			c0.777,6.275,5.18,30.325,16.679,21.036c3.393-2.742,5.225-6.216,6.31-10.041c-1.063,2.174-2.518,4.157-4.563,5.854
			c-11.157,9.247-15.518-14.808-16.293-21.083c-0.741-6.012,0.293-15.358-4.843-19.546c-4.565-3.722-12.993-3.196-18.349-2.311
			c-4.806,0.798-11.716,4.966-13.59,9.817c-0.01,0.026-0.016,0.064-0.026,0.09C66.595,114.323,71.031,112.157,74.437,111.596z"/>
		<path fill="#FFBE8D" d="M129.977,112.151c3.828-3.58,10.539-5.61,15.758-5.53c4.069,0.061,13.722-0.342,16.208,3.086
			c0.629,0.866,0.904,2.114,0.948,3.556c0.489-3.062,0.517-5.966-0.624-7.575c-2.432-3.436-11.819-3.063-15.779-3.138
			c-5.075-0.096-11.598,1.912-15.311,5.478c-2.94,2.828-4.49,6.329-5.397,10.144C126.749,115.962,128.082,113.924,129.977,112.151z"
			/>
		<circle opacity="0.7" fill="#FFBE8D" enable-background="new    " cx="77.008" cy="131.63" r="7.104"/>
		<circle opacity="0.7" fill="#FFBE8D" enable-background="new    " cx="107.177" cy="168.828" r="3.965"/>
		<circle opacity="0.7" fill="#FFBE8D" enable-background="new    " cx="142.067" cy="137.434" r="5.617"/>
		<circle opacity="0.7" fill="#FFBE8D" enable-background="new    " cx="152.775" cy="118.206" r="3.965"/>
		<circle opacity="0.7" fill="#FFBE8D" enable-background="new    " cx="83.991" cy="155.591" r="3.966"/>
		<circle opacity="0.7" fill="#FFBE8D" enable-background="new    " cx="128.458" cy="170.144" r="7.433"/>
		<circle opacity="0.7" fill="#FFBE8D" enable-background="new    " cx="99.839" cy="195.475" r="7.433"/>
	</g>
	<g>
		<path fill="#AF9787" stroke="#9B7A5D" stroke-width="2.0321" stroke-miterlimit="10" d="M327.627,278.143
			c-29.042,32.397-74.431,46.149-108.226,14.635c-11.977-11.164-25.767-18.978-42.71-18.646
			c-13.414,0.26-29.667,3.359-40.458,11.273c-7.734,5.672-20.648,9.166-16.658,21.076c3.127,9.336,13.819,11.317,21.021,16.487
			c6.898,4.949,11.895,20.062,21.128,21.136c7.546,0.877,11.659-1.312,19.174,0.699c7.551,2.02,14.699,5.573,20.524,10.778
			c6.286,5.621,8.706,13.578,14.28,19.375c7.123,7.408,14.132,2.146,23.061,1.213c8.563-0.899,18.488,0.806,26.646,3.437
			c16.196,5.223,26.839,18.746,41.536,26.209c19.917,10.113,35.065-11.123,40.54-27.637c2.312-6.968,3.265-12.58,9.339-17.382
			c8.395-6.633,19.938-7.371,25.844-17.313c7.005-11.81,3.62-25.896,15.533-35.062c11.151-8.571,25.6-7.371,24.778-24.42
			c-0.633-13.084-1.866-23.521,8.775-33.343c9.565-8.823,21.863-23.068,10.075-34.401c-10.816-10.408-34.461-9.234-47.896-5.639
			C360.962,219.438,348.4,254.97,327.627,278.143z"/>
		<g opacity="0.3">
			<path fill="#A08878" d="M374.767,342.307c-0.09-0.111,1.811,1.612,1.718,1.495c-5.054-6.547-17.211-40.17-17.234-88.847
				c-0.005-4.739,1.53-18.801,5.745-28.246c1.881-4.21,7.117-3.545,4.906,0.51c-2.793,5.123-3.469,4.572-4.631,20.359
				c-0.737,10.104-0.277,20.13,0.846,30.181c1.615,14.482,5.062,29.371,9.99,43.104c1.637,4.561,2.949,9.336,5.013,13.686
				c1.097,2.311,1.612,4.82,0.391,7.26C380.152,344.518,376.763,344.764,374.767,342.307z"/>
		</g>
		<path fill="#A08878" d="M193.861,275.979c-11.854,1.619-25.839,23.076-29.437,34.767c-2.665,8.664-3.57,20.728-8.169,25.006
			c-1.436,0.49-2.888,0.819-4.368,0.513c-0.057-0.013-0.113-0.025-0.169-0.039c1.646,5.141,7.156,10.455,13.383,10.887
			c1.988,0.135,3.62-2.742,4.343-4.31c0.62-1.338,8.142,1.656,6.966,0.685c-8.974-7.389-7.83-16.779-6.165-25.088
			c1.545-7.73,4.31-17.996,8.64-24.594c2.118-3.228,7.074-11.236,10.632-12.888c3.431-1.597,3.999,3.414,6.882,0.69
			C199.681,278.511,197.562,275.475,193.861,275.979z"/>
		<path fill="#A08B7F" enable-background="new    " d="M444.082,218.867c0.075,1.469-0.469,2.525-1.303,3.441
			c-2.803-20.161-39.229-14.267-48.847-11.69c-32.972,8.819-45.533,44.352-66.308,67.522c-29.041,32.398-74.43,46.15-108.225,14.635
			c-11.977-11.164-26.366-18.493-43.309-18.168c-13.416,0.259-27.626,0.808-38.418,8.724c-7.671,5.625-21.849,11.149-18.183,22.867
			c-0.947,4.692,12.834,14.01,12.026,11.661c0,0-0.003-0.018-0.005-0.022c0.451,0.25,0.92,0.506,1.404,0.763
			c6.598,3.563,10.445,6.739,14.79,12.825c3.84,5.388,7.585,11.642,14.587,12.728c9.223,1.428,16.91-0.73,25.992,3.188
			c13.668,5.904,17.816,17.634,27.416,27.615c7.123,7.407,14.132,2.146,23.061,1.213c8.563-0.899,18.488,0.806,26.646,3.437
			c16.196,5.223,26.839,18.746,41.536,26.209c19.917,10.112,35.065-11.123,40.54-27.638c2.312-6.967,3.264-12.579,9.339-17.381
			c8.395-6.633,19.938-7.371,25.843-17.313c7.006-11.81,3.621-25.896,15.534-35.062c11.151-8.571,25.6-7.371,24.778-24.42
			c-0.633-13.084-1.866-23.521,8.775-33.343C440.602,242.5,451.764,229.71,444.082,218.867z M429.205,243.512
			c-6.941,6.408-10.858,16.806-11.205,25.862c-0.397,10.41-3.429,18.815-11.209,25.582c-7.844,6.819-17.922,11.508-22.544,21.362
			c-5.635,12.009-15.149,24.964-24.851,34.015c-6.773,6.317-11.474,11.681-14.464,20.694c-5.478,16.517-20.624,37.75-40.542,27.638
			c-14.7-7.459-25.336-20.985-41.536-26.205c-6.955-2.246-14.326-3.68-21.65-3.68c-7.377-0.003-15.257,3.024-22.245-0.638
			c-6.415-3.36-9.827-10.244-14.587-15.362c-5.533-5.947-12.265-10.175-20.327-11.57c-8.375-1.448-17.67-0.64-24.987-5.701
			c-7.039-4.87-12.658-11.848-19.426-17.149c-7.724-6.051-10.81-15.006-2.976-22.49c6.883-6.568,17.955-9.607,27.036-11.412
			c4.755-0.945,9.653-1.498,14.499-1.662c19.248-0.654,27.345,15.758,41.438,27.883c39.764,34.217,92.703,23.728,117.682-17.416
			c17.271-28.449,29.289-59.839,65.03-74.169c4.025-1.614,30.228-12.45,33.895,12.375
			C435.882,237.105,432.005,240.928,429.205,243.512z"/>
		<g>
			<g>
				<path fill="#8B6B4B" d="M163.409,310.745c-3.159,10.274-3.845,25.323-11.153,26.512c-2.29,0.373,9.403,2.734,11.399,3.679
					c4.677,2.209,14.993,3.61,10.024,0.629c-7.676-4.607-7.644-15.138-6.611-21.89c1.197-7.793,5.428-19.274,9.757-25.87
					c2.118-3.228,8.114-11.236,11.671-12.888c3.435-1.597,4.005,3.414,6.885,0.69c3.284-3.098,1.165-6.135-2.538-5.629
					C180.989,277.6,167.006,299.057,163.409,310.745z"/>
			</g>
			<path fill="#8B6B4B" d="M151.984,335.854c1.688,0.883,3.938,0.724,5.302-2.41c0.838-1.922,4.564-1.174,6.704-1.235
				c2.575-0.076,2.779,2.097,4.022,3.778c3.162,4.285,4.26,5.511,12.934,9.168c-5.374-0.646-11.972,2.291-16.857,1.955
				c-6.231-0.432-11.501-6.194-13.147-11.338C150.996,335.788,151.933,335.825,151.984,335.854z"/>
			<g>
				<path fill="#8B6B4B" d="M163.409,310.745c-3.159,10.274-3.845,25.323-11.153,26.512c-2.29,0.373,9.403,2.734,11.399,3.679
					c4.677,2.209,14.993,3.61,10.024,0.629c-7.676-4.607-7.644-15.138-6.611-21.89c1.197-7.793,5.428-19.274,9.757-25.87
					c2.118-3.228,8.114-11.236,11.671-12.888c3.435-1.597,4.005,3.414,6.885,0.69c3.284-3.098,1.165-6.135-2.538-5.629
					C180.989,277.6,167.006,299.057,163.409,310.745z"/>
			</g>
			<g opacity="0.3">
				<path fill="#A08878" d="M224.833,279.843c-3.426,13.062-5.745,24.191-6.068,37.853c-0.324,13.854,2.744,33.717,7.21,46.762
					c3.054,8.918,8.624,15.107,0.099,12.953c-6.689-1.688-8.855-7.855-10.283-16.434c-3.768-22.604-5.139-43.935,1.675-66.334
					c1.188-3.896,3.333-7.488,4.362-11.418C223,278.755,226.016,275.325,224.833,279.843z"/>
			</g>
			<g>
				<path fill="#8B6B4B" d="M222.798,279.843c-3.422,13.062-5.743,24.191-6.066,37.853c-0.322,13.854,2.946,34.926,6.471,48.26
					c0.751,2.846,9.364,13.609,0.838,11.455c-6.689-1.688-8.854-7.855-10.281-16.434c-3.769-22.604-5.141-43.935,1.675-66.334
					c1.185-3.896,3.328-7.488,4.36-11.418C220.968,278.755,223.983,275.325,222.798,279.843z"/>
			</g>
		</g>
		<path fill="#A08B7F" enable-background="new    " d="M235.704,346.167c10.201,30.201,43.991,46.76,75.472,36.983
			c31.479-9.768,48.724-42.172,38.521-72.371c-10.202-30.198-43.99-46.76-75.468-36.985
			C242.751,283.566,225.504,315.968,235.704,346.167z"/>
		<g>
			<path fill="#946B59" d="M330.577,355.511c-1.26-3.771-2.572-8.424-0.263-10.809c3.972-4.103,11.051,4.016,12.869,6.973
				c1.447,2.354,2.344,4.996,3.798,7.353c1.967,3.192,4.65,5.639,7.59,7.861c3.111,2.356,6.539,6.096,4.162,10.204
				c-0.604,1.043-1.663,1.947-2.912,2.035c-1.222,0.09-2.628-0.207-3.748-0.806c0.536,0.998,0.511,2.521,0.146,3.537
				c-0.41,1.146-1.276,2.013-2.436,2.392c-2.857,0.94-5.848-2.119-5.673-4.974c0.665,1.564,1.37,2.759,0.916,4.439
				c-0.979,3.615-5.436,3.324-7.501,0.982c-2.686-3.039-3.51-6.881-3.825-10.764c-0.397-4.902-0.679-9.847-1.902-14.634
				C331.54,358.294,331.063,356.968,330.577,355.511z"/>
			<path opacity="0.21" fill="#8B6B4B" enable-background="new    " d="M352.465,380.632c-0.684-2.121-2.639-3.196-4.188-4.668
				c-0.536-0.51-1.249-1.58-1.616-2.229c-0.462-0.812-0.75-1.271-0.635-2.047c0.101,0.391,0.427,0.678,0.648,1.021
				c0.315,0.485,0.638,0.972,0.982,1.433c0.622,0.823,1.403,1.758,2.182,2.438c0.795,0.7,2.034,1.364,2.409,2.139
				C352.474,379.177,352.47,380.645,352.465,380.632z"/>
			<g opacity="0.26">
				<path fill="#8C6B4B" d="M339.123,383.173c-4.219-4.059-5.794-13.916-5.645-12.071c0.077,0.942,0.149,1.891,0.223,2.836
					c0.315,3.883,1.141,7.725,3.825,10.764c2.065,2.342,5.897,2.295,7.179-0.162c0.24-0.453,0.402-1.383,0.437-1.59
					C343.416,384.919,340.611,384.604,339.123,383.173z"/>
			</g>
			<path opacity="0.21" fill="#8B6B4B" enable-background="new    " d="M344.991,382.514c-0.284-0.271-1.025-1.255-1.244-1.584
				c-1.878-2.81-3.527-6.101-3.938-9.507c0.224,3.662,1.854,7.668,4.066,10.679c0.256,0.354,0.766,0.936,1.273,0.905
				C345.161,382.861,345.251,382.755,344.991,382.514z"/>
			<g opacity="0.26">
				<path fill="#8C6B4B" d="M346.223,381.434c-2.96-2.771-5.316-6.996-5.996-10.841c-0.368-2.073-0.586-2.129-0.358,0.652
					c0.313,3.885,1.966,6.69,4.186,10.086c1.18,1.812,3.642,3.535,5.671,2.955c0.971-0.277,1.917-0.988,2.508-2.565
					c0.072-0.195,0.184-0.861,0.217-1.068C351.219,382.747,347.728,382.843,346.223,381.434z"/>
			</g>
			<g opacity="0.26">
				<path fill="#8C6B4B" d="M353.014,377.575c-3.397-1.822-6.303-5.63-7.669-8.847c-0.739-1.744-0.96-1.746-0.231,0.642
					c1.017,3.336,3.719,7.045,7.059,8.891c3.162,1.75,5.247,0.313,5.247,0.313S354.74,378.503,353.014,377.575z"/>
			</g>
			<path opacity="0.3" fill="#946B59" enable-background="new    " d="M332.709,363.557c0.048,0.461,0.842,5.454,0.736,6.6
				c1.771-4.373,6.73-7.133,10.18-6.682c2.996,0.389,5.746,1.754,8.016,3.799c2.034,1.832,4.986,3.61,5.894,5.908
				c0.561,1.424,1.366,3.817-0.209,5.36c0.71-0.479,1.183-1.002,1.499-1.647c0.3-0.611,0.534-1.213,0.645-2.111
				c0.273-2.313-1.191-4.408-2.78-6.041c-0.696-0.713-1.438-1.338-2.115-1.854c-2.938-2.224-5.623-4.668-7.59-7.861
				c-1.454-2.355-2.351-4.998-3.798-7.353c-1.873-3.043-5.123-6.768-8.646-7.815c-4.028-1.197-6.539,3.428-6.23,6.875
				c0.215,2.371,1.501,4.914,2.252,7.149C331.256,359.977,332.449,361.236,332.709,363.557z"/>
		</g>
		<g>
			<path fill="#946B59" d="M266.446,376.93c-0.895-3.873-1.756-8.632,0.771-10.787c4.345-3.701,10.618,5.055,12.148,8.168
				c1.216,2.479,1.857,5.196,3.077,7.678c1.656,3.367,4.097,6.059,6.812,8.553c2.872,2.645,5.927,6.691,3.17,10.557
				c-0.699,0.978-1.843,1.775-3.094,1.748c-1.225-0.033-2.597-0.459-3.652-1.158c0.439,1.041,0.265,2.556-0.193,3.535
				c-0.519,1.094-1.463,1.877-2.648,2.146c-2.94,0.662-5.622-2.666-5.171-5.486c0.506,1.615,1.096,2.869,0.483,4.502
				c-1.316,3.508-5.726,2.793-7.563,0.264c-2.378-3.278-2.832-7.182-2.777-11.08c0.067-4.92,0.261-9.868-0.504-14.741
				C267.141,379.792,266.791,378.423,266.446,376.93z"/>
			<path opacity="0.21" fill="#8B6B4B" enable-background="new    " d="M285.837,403.846c-0.481-2.181-2.111-3.277-3.517-4.886
				c-0.484-0.56-2.025-3.336-2.034-4.463c0.059,0.403,1.09,2.11,1.392,2.603c0.543,0.879,1.197,1.67,1.905,2.422
				c0.725,0.772,1.813,1.573,2.229,2.576C285.938,402.396,285.837,403.854,285.837,403.846z"/>
			<g opacity="0.26">
				<path fill="#8C6B4B" d="M272.313,405.452c-2.681-3.041-3.139-7.877-3.449-11.761c-0.171-2.104-0.554-4.311-1.024-6.514
					c0.082,2.795,0.008,5.594-0.031,8.389c-0.055,3.898,0.399,7.802,2.777,11.08c1.838,2.529,5.798,2.945,7.166,0.523
					c0.102-0.184,0.532-1.338,0.582-1.541C276.929,407.182,273.68,407.001,272.313,405.452z"/>
			</g>
			<path opacity="0.21" fill="#8B6B4B" enable-background="new    " d="M278.351,405.37c-0.006-0.244-0.979-1.515-1.182-1.854
				c-1.761-2.947-2.963-6.437-3.046-9.867c-0.125,3.668,1.13,7.557,3.046,10.762c0.223,0.375,0.714,0.926,1.163,1.252
				C278.353,405.52,278.351,405.468,278.351,405.37z"/>
			<g opacity="0.26">
				<path fill="#8C6B4B" d="M279.557,404.223c-2.685-3.039-4.627-7.474-4.94-11.359c-0.169-2.105-0.379-2.178-0.42,0.615
					c-0.057,3.896,1.694,8.278,4.075,11.559c0.694,0.957,1.65,1.896,2.709,2.232c1.095,0.35,2.251,0.151,3.155-0.479
					c0.541-0.369,1.096-1,1.404-1.813c0.072-0.197,0.215-0.695,0.266-0.894C284.384,406.052,280.917,405.771,279.557,404.223z"/>
			</g>
			<g opacity="0.26">
				<path fill="#8C6B4B" d="M286.581,400.954c-3.397-1.813-5.638-6.127-6.691-9.459c-0.572-1.808-0.793-1.832-0.292,0.614
					c0.695,3.416,3.128,7.039,6.09,9.441c1.492,1.211,3.782,1.633,5.282,0.887C291.759,402.048,289.591,402.563,286.581,400.954z"/>
			</g>
			<path opacity="0.3" fill="#946B59" enable-background="new    " d="M267.804,385.146c0.005,0.459,0.014,0.826,0.072,1.424
				c3.051-2.158,7.41-1.25,10.805-0.471c2.946,0.672,5.551,2.286,7.617,4.543c1.849,2.016,4.618,4.071,5.302,6.442
				c0.422,1.472,0.608,3.543-0.463,5.238c1.371-0.923,1.864-1.923,2.24-3.744c0.639-3.125-2.076-6.147-4.124-8.039
				c-2.715-2.494-5.154-5.187-6.812-8.554c-1.22-2.479-1.861-5.196-3.077-7.678c-1.575-3.205-4.46-7.225-7.867-8.602
				c-3.896-1.576-6.837,2.789-6.856,6.25c-0.013,2.381,1.153,2.039,1.688,4.338C266.826,378.439,267.765,382.807,267.804,385.146z"
				/>
		</g>
		<path fill="#F2C7B1" d="M238.149,345.313c9.12,28.139,39.9,43.36,68.756,34.016c28.856-9.352,44.858-39.738,35.739-67.875
			c-9.111-28.133-39.896-43.359-68.753-34.01C245.036,286.79,229.037,317.18,238.149,345.313z"/>
		<path fill="#E8B19A" d="M342.645,311.452c-4.559-14.08-14.55-24.929-27.009-31.078c8.701,6.224-1.205,8.606,8.229,23.812
			c13.581,21.877,4.089,59.362-24.119,68.502c-19.203,6.223-39.275,1.303-52.947-11.148c13.611,17.313,37.45,25.131,60.106,17.789
			C335.762,369.977,351.764,339.589,342.645,311.452z"/>
		<path fill="#8B6B4B" d="M262.994,317.977c-11.153-10.566-22.259-21.515-35.276-29.789c-12.49-7.939-26.13-12.92-40.767-14.777
			c-7.959-1.014-15.104-0.641-24.597,0.559c-9.949,1.26-28.59,8.889-33.035,11.775c-4.289,1.986-11.2,8.037-12.203,15.295
			c-1.651,11.961,9.779,18.193,15.917,17.535c-4.198-2.633-7.734-7.713-5.396-16.611c2.04-9.133,16.674-15.836,21.854-18.221
			c13.642-6.291,32.092-7.225,46.503-4.369c26.313,5.221,43.202,25.852,61.967,43.631
			C261.288,326.154,266.325,321.134,262.994,317.977z"/>
		<g opacity="0.3">
			<path fill="#FFC2C9" d="M118.455,303.277c1.005-7.262,7.916-13.311,12.204-15.299c4.445-2.883,23.088-10.512,33.038-11.771
				c9.488-1.203,16.634-1.571,24.593-0.563c14.635,1.86,28.279,6.842,40.769,14.778c12.727,8.089,23.62,18.729,34.52,29.076
				c-0.169-0.472-0.456-0.937-0.91-1.363c-11.146-10.565-22.252-21.512-35.271-29.788c-12.488-7.939-26.13-12.918-40.77-14.781
				c-7.956-1.006-15.104-0.642-24.593,0.563c-9.95,1.259-28.592,8.89-33.035,11.772c-4.291,1.988-11.203,8.037-12.205,15.298
				c-0.732,5.291,1.1,9.463,3.9,12.409C118.886,310.886,117.884,307.427,118.455,303.277z"/>
		</g>
		
			<radialGradient id="SVGID_1_" cx="220.1545" cy="4.3271" r="39.2403" gradientTransform="matrix(-1.0331 -0.1386 0.1602 -0.9917 504.1747 355.7505)" gradientUnits="userSpaceOnUse">
			<stop  offset="0" style="stop-color:#FFC2C9"/>
			<stop  offset="1" style="stop-color:#F2C7B1"/>
		</radialGradient>
		<path fill="url(#SVGID_1_)" d="M237.656,327.645c3.659,21.737,24.434,36.362,46.397,32.664c21.97-3.699,36.809-24.32,33.146-46.06
			c-3.661-21.74-24.436-36.362-46.402-32.664C248.831,285.282,233.994,305.907,237.656,327.645z"/>
		<path fill="#E8B19A" d="M273.892,277.441c22.33-7.237,45.809,0.254,59.512,17.052c-8.192,15.312-23.943,28.506-44.251,35.088
			c-19.081,6.183-38.332,5.28-53.542-1.151C235.93,305.915,250.779,284.932,273.892,277.441z"/>
		<path fill="#AFA89E" d="M280.842,194.902c-9.553,33.089-5.848,63.222,8.276,67.298c14.124,4.077,40.581,21.215,61.449-45.587
			c11.374-36.411-12.729-70.169-26.853-74.244C309.59,138.29,290.396,161.811,280.842,194.902z"/>
		<path fill="#FFEDE1" d="M291.334,189.369c6.15-21.312,16.303-38.638,26.526-47.195c2.019-0.389,3.98-0.348,5.854,0.195
			c14.124,4.075,38.227,37.833,26.853,74.244c-7.588,24.288-15.915,37.477-24.12,44.23c-10.462,2.729-20.069-2.223-26.838-4.174
			C285.488,252.591,281.779,222.458,291.334,189.369z"/>
		<path fill="#E9C5C3" d="M320.038,258.864c8.205-6.761,16.529-19.944,24.12-44.234c10.472-33.523-9.125-64.775-23.318-72.708
			c0.977,0.031,1.939,0.176,2.876,0.447c14.124,4.075,38.227,37.833,26.853,74.244c-7.588,24.288-15.915,37.477-24.12,44.231
			c-7.918,2.064-15.341-0.266-21.421-2.369C309.638,259.646,314.73,260.249,320.038,258.864z"/>
		
			<radialGradient id="SVGID_2_" cx="185.3943" cy="204.9536" r="25.2922" gradientTransform="matrix(-0.9959 -0.0901 0.1928 -2.1307 463.3346 661.2919)" gradientUnits="userSpaceOnUse">
			<stop  offset="0" style="stop-color:#F5C4B8"/>
			<stop  offset="1" style="stop-color:#FFEDE1"/>
		</radialGradient>
		<path fill="url(#SVGID_2_)" d="M291.275,205.458c-2.587,28.593,7.38,52.862,22.259,54.207
			c14.883,1.344,29.04-20.743,31.625-49.333c2.586-28.592-7.379-52.863-22.26-54.211
			C308.02,154.775,293.857,176.867,291.275,205.458z"/>
		<path fill="#A09C95" d="M262.759,189.378c-2.362,32.434-14.825,58.703-27.836,58.675c-13.01-0.025-40.336,8.515-36.887-57.38
			c1.886-35.917,32.431-60.099,45.44-60.07C256.49,130.63,265.122,156.943,262.759,189.378z"/>
		<path fill="#FFEDE1" d="M198.036,190.673c1.886-35.917,32.431-60.099,45.44-60.07c0.051,0,0.103,0.006,0.146,0.006
			c8.776,7.822,13.908,29.809,12.025,55.723c-2.362,32.43-14.827,58.702-27.839,58.673c-4.486-0.008-10.678,1-16.72-0.375
			C202.676,238.863,196.257,224.685,198.036,190.673z"/>
		<path fill="#E9C5C3" d="M198.036,190.673c1.777-33.9,29.089-57.341,43.088-59.839c-14.442,7.749-33.482,28.675-34.958,56.793
			c-1.78,34.009,4.637,48.191,13.054,53.953c5.867,1.334,11.86,0.43,16.312,0.382c-2.501,1.969-5.099,3.052-7.722,3.042
			c-4.486-0.008-10.678,1-16.72-0.375C202.676,238.863,196.257,224.685,198.036,190.673z"/>
		
			<radialGradient id="SVGID_3_" cx="273.3987" cy="211.4556" r="24.2219" gradientTransform="matrix(-0.9938 -0.1116 0.2388 -2.1262 450.7919 672.8037)" gradientUnits="userSpaceOnUse">
			<stop  offset="0" style="stop-color:#F5C4B8"/>
			<stop  offset="1" style="stop-color:#FFEDE1"/>
		</radialGradient>
		<path fill="url(#SVGID_3_)" d="M203.836,189.807c-3.065,27.322,5.974,50.771,20.189,52.368
			c14.227,1.597,28.235-19.261,31.307-46.587c3.068-27.326-5.975-50.77-20.191-52.368
			C220.92,141.625,206.907,162.48,203.836,189.807z"/>
		<g>
			<path fill="#8B6B4B" d="M286.331,308.818c31.566,12.625,53.659-31.229,65.155-53.118c4.314-8.22,8.807-15.998,15.086-22.927
				c8.318-9.174,18.626-14.57,30.371-18.14c10.518-3.198,22.851-5.782,33.686-2.918c3.223,0.851,6.142,2.712,8.351,5.175
				c3.502,3.895,5.63,8.435,3.866,12.646c-1.771,4.228,1.28,7.181,3.021,3.019c3.361-8.012,3.036-16.559-3.76-22.583
				c-7.222-6.403-17.604-7.03-26.752-6.206c-23.487,2.124-45.364,11.756-59.609,30.947c-10.506,14.15-16.854,31.03-26.949,45.534
				c-9.003,12.926-23.265,28.642-40.575,21.715C283.958,300.257,282.127,307.139,286.331,308.818L286.331,308.818z"/>
		</g>
		<path fill="#FFEDE1" d="M179.29,248.582c-13.006,35.55,3.401,62.169,63.729,75.016c67.597,14.397,96.812-24.209,93.117-61.32
			c-3.754-37.672-28.388-71.115-70.332-74.565C223.858,184.262,194.531,206.923,179.29,248.582z"/>
		<path fill="#FFEDE1" d="M175.664,262.538c-0.477,25.379,19.686,44.435,67.882,54.696c58.77,12.521,88.52-15.026,92.862-46.825
			c-1.06,34.332-30.731,66.534-93.391,53.188C190.874,312.495,171.547,291.1,175.664,262.538z"/>
		
			<radialGradient id="SVGID_4_" cx="225.1008" cy="-24.8921" r="34.4534" gradientTransform="matrix(-1 0 0 -0.6722 507.4634 275.953)" gradientUnits="userSpaceOnUse">
			<stop  offset="0" style="stop-color:#FFC2C9"/>
			<stop  offset="1" style="stop-color:#FFEDE1"/>
		</radialGradient>
		<ellipse fill="url(#SVGID_4_)" cx="282.982" cy="292.376" rx="36.307" ry="24.979"/>
		
			<radialGradient id="SVGID_5_" cx="271.1409" cy="-54.2686" r="28.9807" gradientTransform="matrix(-0.9135 -0.4069 0.2886 -0.6477 470.2011 353.1046)" gradientUnits="userSpaceOnUse">
			<stop  offset="0" style="stop-color:#FFC2C9"/>
			<stop  offset="1" style="stop-color:#FFEDE1"/>
		</radialGradient>
		<path fill="url(#SVGID_5_)" d="M179.55,265.479c-4.982,11.18,3.472,25.811,18.879,32.672c15.408,6.865,31.938,3.367,36.919-7.818
			c4.979-11.184-3.472-25.813-18.88-32.674C201.063,250.789,184.534,254.291,179.55,265.479z"/>
		<path fill="#FFEDE1" d="M252.91,277.747c0,14.53,12.735,26.959,28.42,26.31c34.548-1.437,28.674-37.089,28.674-37.089
			s-9.018-16.149-28.674-15.528C265.642,251.935,252.91,263.218,252.91,277.747z"/>
		<path opacity="0.73" fill="#FFF5EE" enable-background="new    " d="M261.885,196.56c-27.136-2.232-50.022,5.557-66.673,21.876
			c16.582-22.078,40.292-33.218,70.592-30.725c38.192,3.145,62.028,31.154,68.817,64.579
			C323.434,224.166,298.509,199.571,261.885,196.56z"/>
		<path fill="#3C3D37" d="M256.51,280.096c0,12.262,10.752,22.756,23.992,22.204c29.156-1.213,24.2-31.305,24.2-31.305
			s-7.61-13.636-24.2-13.106C267.258,258.307,256.51,267.829,256.51,280.096z"/>
		<ellipse fill="#D39154" cx="279.494" cy="280.095" rx="21.969" ry="20.336"/>
		<path fill="#F79E54" d="M297.738,280.402c0-11.225-9.822-20.323-21.948-20.329c1.206-0.195,2.44-0.316,3.706-0.316
			c12.133,0,21.968,9.107,21.968,20.339c0,11.229-9.835,20.336-21.968,20.336l-0.013-0.002
			C289.845,298.794,297.738,290.462,297.738,280.402z"/>
		<path fill="#3F1D01" d="M259.118,279.473c0,9.313,8.155,16.862,18.218,16.862c10.064,0,18.22-7.549,18.22-16.862
			s-8.154-16.865-18.22-16.865C267.274,262.605,259.118,270.159,259.118,279.473z"/>
		<path fill="#3F1D01" d="M274.794,292.52c10.063,0,18.217-7.552,18.217-16.861c0-2.461-0.579-4.789-1.604-6.898
			c2.592,2.916,4.147,6.645,4.147,10.713c0,9.314-8.154,16.863-18.22,16.863c-7.403,0-13.768-4.096-16.614-9.969
			C264.063,290.124,269.127,292.52,274.794,292.52z"/>
		<path fill="#FFEDE1" d="M227.932,282.439c-1.119,4.855-0.831,9.248,8.046,11.951c6.343,1.93,13.227-0.918,14.28-5.791
			c1.671-7.717-9.261-14.149-9.261-14.149S229.058,277.583,227.932,282.439z"/>
		<path fill="#808184" d="M226.918,282.439c-1.122,4.855,1.801,9.662,9.296,11.183c8.125,1.642,11.741-1.049,12.866-5.904
			c1.122-4.854-8.583-13.114-8.583-13.114S228.041,277.583,226.918,282.439z"/>
		<path opacity="0.32" fill="#808184" enable-background="new    " d="M228.164,287.398c0.75,2.289,3.31,3.58,4.246,3.191
			c0.982-0.41,2.284-2.799,1.533-5.084c-0.749-2.285-2.403-3.387-4.001-2.859C228.351,283.165,227.416,285.118,228.164,287.398z"/>
		<path opacity="0.32" fill="#808184" enable-background="new    " d="M240.775,287.471c-1.543,1.85-1.287,4.704-0.458,5.293
			c0.863,0.616,3.58,0.457,5.125-1.388c1.541-1.849,1.601-3.83,0.313-4.908C244.466,285.393,242.317,285.626,240.775,287.471z"/>
		<path fill="#494143" d="M228.997,287.327c0.615,2.002,2.812,3.168,3.634,2.844c0.858-0.338,2.03-2.392,1.418-4.389
			c-0.613-1.994-2.029-2.979-3.425-2.552C229.231,283.657,228.389,285.335,228.997,287.327z"/>
		<path fill="#494143" d="M240.842,287.395c-1.332,1.612-1.098,4.09-0.375,4.6c0.752,0.527,3.112,0.379,4.444-1.229
			c1.328-1.611,1.369-3.332,0.246-4.265C244.036,285.57,242.175,285.788,240.842,287.395z"/>
		<path fill="#FCDCC8" d="M256.973,299.639c-0.226,0.049-0.449,0.096-0.648,0.131c-1.154,0.188-2.336,0.334-3.462,0.649
			c-2.479,0.69-2.325,4.369-2.07,6.229c0.241,1.75,1.077,4.1,3.018,4.797c1.044,0.369,2.211-0.168,3.017-0.801
			c2.528-1.992,4.333-5.267,4.328-8.519c0-0.887-0.054-2.367-1.156-2.711C259.124,299.143,257.955,299.43,256.973,299.639z"/>
		<path fill="#AF9787" d="M257.324,299.389c-0.194,0.047-0.377,0.09-0.547,0.12c-0.974,0.185-1.968,0.324-2.912,0.632
			c-2.093,0.668-1.961,4.211-1.741,6.006c1.097,9.143,8.724,1.139,8.719-4.357c-0.002-0.859-0.045-2.289-0.97-2.617
			C259.134,298.911,258.15,299.186,257.324,299.389z"/>
		<g>
			<path fill="#FFE1CC" d="M260.551,298.378c-7.263,3.115-15.843,2.115-23.362,0.744c-7.054-1.287-14.572-4.06-19.479-9.623
				c-0.908-1.033-1.271,0.146-0.516,1.291c5.486,8.274,12.213,12.041,18.079,13.086c10.257,1.834,14.823,2.494,22.346-0.729
				c1.245-0.537,4.346-4.808,3.081-4.265L260.551,298.378z"/>
		</g>
		<path fill="#F9F5EF" d="M257.128,299.786c-0.176,0.037-0.345,0.071-0.501,0.104c-0.893,0.157-1.809,0.276-2.675,0.541
			c-1.921,0.567-1.8,3.606-1.601,5.149c1.007,7.844,8.012,0.979,8.006-3.738c-0.003-0.737-0.041-1.961-0.893-2.243
			C258.791,299.372,257.886,299.607,257.128,299.786z"/>
		<path fill="#FCDCC8" d="M219.309,290.62c0.173,0.153,0.341,0.295,0.501,0.42c0.911,0.699,1.868,1.373,2.692,2.178
			c1.827,1.769-0.07,5.027-1.183,6.601c-5.679,8.008-9.575-3.682-6.838-8.851c0.429-0.811,1.186-2.129,2.305-1.934
			C217.678,289.189,218.557,289.982,219.309,290.62z"/>
		<path fill="#AF9787" d="M219.361,290.984c0.147,0.125,0.293,0.25,0.431,0.354c0.777,0.599,1.599,1.172,2.303,1.856
			c1.555,1.513-0.138,4.382-1.126,5.771c-5.042,7.058-8.246-3.069-5.798-7.614c0.385-0.709,1.058-1.867,2.024-1.716
			C217.966,289.757,218.719,290.438,219.361,290.984z"/>
		<path fill="#F9F5EF" d="M219.152,291.105c0.138,0.117,0.269,0.232,0.396,0.326c0.714,0.562,1.467,1.088,2.111,1.728
			c1.428,1.403-0.096,4.032-0.992,5.303c-4.554,6.47-7.541-2.877-5.333-7.043c0.343-0.649,0.952-1.719,1.835-1.565
			C217.875,289.968,218.563,290.6,219.152,291.105z"/>
		<g opacity="0.3">
			<path fill="#A08878" d="M415.291,297.734c3.431-4.762,2.211-11.463,1.071-16.782c-1.318-6.156-3.591-12.318-6.142-18.074
				c-7.146-16.124-20.97-35.141-39.381-38.801c-4.479-0.893-6.389,5.961-1.892,6.856c15.598,3.104,27.104,19.057,33.727,32.456
				c2.316,4.691,4.068,9.769,5.594,14.771c1.353,4.438,3.354,14.891,0.325,19.092C405.906,300.982,412.638,301.421,415.291,297.734
				L415.291,297.734z"/>
		</g>
		<g>
			<path fill="#8B6B4B" d="M417.322,296.721c3.434-4.761,2.211-11.462,1.074-16.783c-1.321-6.162-3.591-12.32-6.144-18.072
				c-7.146-16.126-20.971-35.143-39.38-38.805c-4.477-0.894-6.387,5.965-1.893,6.856c15.597,3.103,27.104,19.057,33.724,32.454
				c2.319,4.694,4.073,9.772,5.6,14.771c1.351,4.443,3.351,14.894,0.32,19.094C407.938,299.964,414.665,300.4,417.322,296.721
				L417.322,296.721z"/>
		</g>
		<g>
			<path fill="#8B6B4B" d="M376.797,342.307c-0.092-0.111,1.812,1.612,1.721,1.495c-5.056-6.547-17.213-40.17-17.237-88.847
				c-0.002-4.739,0.908-21.253,5.125-30.7c1.88-4.207,7.74-1.091,5.529,2.964c-2.795,5.123-3.469,4.572-4.629,20.359
				c-0.742,10.104-0.279,20.13,0.845,30.181c1.614,14.482,5.059,29.371,9.989,43.104c1.637,4.561,2.949,9.336,5.014,13.686
				c1.095,2.311,1.611,4.82,0.385,7.26C382.184,344.518,378.794,344.764,376.797,342.307z"/>
		</g>
		<path fill="#FFEDE1" d="M308.84,255.394c1.054,0.006,1.771-0.542,1.415-2.005c-1.098-4.553-3.516-9.688-6.362-13.683
			c-4.986-6.986-13.778-15.657-24.324-16.716c-2.198-0.224-5.035,0.524-5.701,2.378c-1.828,5.084,7.675,8.56,11.39,11.112
			c5.535,3.807,11.192,8.852,15.722,13.451c1.712,1.736,3.079,3.63,5.451,4.802C307.237,255.131,308.116,255.394,308.84,255.394z"/>
		<path fill="#725744" d="M308.655,253.067c1.016,0.002,1.704-0.524,1.365-1.933c-1.059-4.386-3.386-9.337-6.13-13.184
			c-4.805-6.731-13.277-15.089-23.438-16.109c-2.119-0.212-4.852,0.508-5.493,2.294c-1.763,4.896,7.396,8.247,10.973,10.707
			c5.335,3.667,10.786,8.527,15.148,12.958c1.65,1.678,2.969,3.502,5.252,4.629C307.112,252.813,307.962,253.067,308.655,253.067z"
			/>
		<path opacity="0.7" fill="#937058" enable-background="new    " d="M310.021,251.135c-1.059-4.386-3.386-9.337-6.13-13.184
			c-4.805-6.731-13.277-15.089-23.438-16.109c-2.119-0.212-4.852,0.508-5.493,2.294c-0.104,0.282-0.164,0.563-0.195,0.835
			c1.158-0.785,2.909-1.085,4.372-0.939c10.163,1.024,18.637,9.381,23.439,16.108c2.689,3.772,4.979,8.604,6.063,12.926l0.014,0.002
			C309.67,253.069,310.359,252.543,310.021,251.135z"/>
		<path fill="#FFEDE1" d="M198.351,232.642c-0.616-0.511-0.665-2.415,0.302-3.775c3.003-4.236,7.003-7.452,10.744-10.246
			c6.544-4.884,16.194-9.676,22.909-5.637c1.402,0.844,2.671,3.009,2.098,5.276c-1.569,6.216-8.936,5.218-12.433,6.077
			c-5.214,1.291-11.145,3.815-16.181,6.423c-1.904,0.985-3.691,2.3-5.687,2.365C199.425,233.151,198.777,232.993,198.351,232.642z"
			/>
		<path fill="#725744" d="M198.757,230.476c-0.574-0.43-0.668-1.239,0.298-2.478c3.007-3.848,7.042-7.705,10.701-10.305
			c6.402-4.543,15.759-9.113,22.022-5.763c1.309,0.698,2.443,2.573,1.823,4.6c-1.706,5.557-8.691,4.919-12.056,5.803
			c-5.011,1.314-10.749,3.751-15.641,6.229c-1.844,0.933-3.592,2.158-5.495,2.284C199.762,230.893,199.148,230.775,198.757,230.476z
			"/>
		<path opacity="0.7" fill="#937058" enable-background="new    " d="M208.848,220.888c7.254-4.852,17.678-9.849,24.554-7.174
			c-0.368-0.801-0.974-1.438-1.623-1.783c-6.264-3.351-15.62,1.22-22.022,5.763c-3.658,2.6-7.694,6.457-10.701,10.305
			c-0.576,0.737-0.769,1.319-0.714,1.764C201.569,226.43,205.366,223.216,208.848,220.888z"/>
		<path fill="#FFFFFF" d="M273.841,272.208c0,3.347,2.712,6.056,6.049,6.056c3.342,0,6.054-2.709,6.054-6.056
			c0-3.34-2.712-6.047-6.054-6.047C276.553,266.161,273.841,268.868,273.841,272.208z"/>
		<path fill="#8B6B4B" d="M419.798,298.169c3.204-3.942,5.335-9.349,2.836-14.396c-0.948-1.914-11.282-22.135-11.287-22.063
			c-0.21,5.004,2.605,24.428,0.998,29.58c-1.535,4.918-4.299,8.418-8.722,13.637C412.073,302.518,416.659,302.032,419.798,298.169z"
			/>
		<path fill="#8B6B4B" d="M371.887,322.202c0.009-3.099,2.909-7.109,3.342-10.146c-0.124,2.08,1.377,3.711,1.793,5.676
			c0.319,1.507,0.162,2.894,0.7,4.382c1.526,4.194,4.912,7.612,6.807,11.647c4.063,8.648-4.264,16.652-11.3,19.799
			c-5.69,2.547-11.892,3.455-16.914,6.873c3.99-2.717,7.555-5.983,10.528-9.658C376.366,339.014,371.869,327.327,371.887,322.202z"
			/>
		<path fill="#8B6B4B" d="M208.332,364.505c5.585,2.795,5.266-5.53,5.266-5.53s7.047-0.189,8.264,2.957
			c5.154,13.315,12.109,12.987,17.129,14.254c-6.266,1.207-8.194,3.053-13.176,3.696
			C212.824,381.561,210.328,369.029,208.332,364.505z"/>
		<path fill="#8B6B4B" d="M442.248,240.229c-2.577,3.317-6.173,6.382-9.22,9.258c5.01-7.133,9.418-13.797,7.979-22.591
			c-1.439-8.831-4.33-13.587-17.321-16.645c3.357-3.598,9.101-1.313,13.115-0.368c2.749,0.648,5.746,1.401,7.923,3.302
			c1.744,1.525,2.754,3.693,3.336,5.9c1.259,4.742,0.215,9.677-1.679,14.104C445.323,235.668,443.908,238.096,442.248,240.229z"/>
		<g>
			<path fill="#725744" d="M260.7,297.866c-7.262,3.112-15.992,1.61-23.513,0.239c-7.054-1.289-15.366-4.233-20.269-9.795
				c-0.913-1.037-1.067,0.072-0.313,1.211c5.489,8.277,15.413,10.103,19.839,11.07c6.729,1.48,16.082,1.846,23.604-1.379
				C261.294,298.677,261.965,297.323,260.7,297.866L260.7,297.866z"/>
		</g>
		<g>
			<path fill="#A57865" d="M442.122,209.878c-7.444-6.143-17.618-6.937-26.767-6.112c-20.922,1.896-40.549,9.76-54.662,25.016
				c13.689-12.548,34.562-20.791,53.498-22.503c9.148-0.829,18.178,0.826,25.97,6.52c8.833,6.456,5.427,22.368,6.4,20.041
				C449.921,224.828,449.981,216.363,442.122,209.878z"/>
		</g>
		<path fill="#8B6B4B" d="M374.134,224.754c5.257-3.983,8.619-13.338,5.32-19.468c-0.957-1.772-3.521-5.852-6.157-3.857
			c-2.297,1.74,1.19,4.613,1.549,6.597c0.608,3.36-1.229,6.973-2.804,9.818c-0.828,1.501-5.43,6.752-2.576,8.167
			C370.813,226.674,372.521,225.971,374.134,224.754z"/>
		<path fill="#A57865" d="M373.157,219.108c3.184-3.424,4.322-8.126,3.713-11.487c-0.359-1.982-3.848-4.855-1.55-6.598
			c0.021-0.014,0.042-0.021,0.063-0.035c-0.67-0.185-1.377-0.096-2.087,0.44c-2.297,1.74,1.19,4.613,1.549,6.597
			c0.608,3.36-1.229,6.973-2.804,9.818c-0.396,0.72-0.927,1.375-1.392,2.055c-0.415,0.609-0.885,1.015-1.38,1.549
			c-0.201,0.222-0.427,0.636-0.702,0.753c-0.014,0.006-0.059,0.172-0.072,0.199c0.283-0.18,0.353-0.097,0.651-0.258
			C369.177,222.124,372.12,220.228,373.157,219.108z"/>
		<path fill="#FFFFFF" d="M279.434,286.986c0,1.732,1.404,3.144,3.141,3.144c1.733,0,3.143-1.409,3.143-3.144
			c0-1.732-1.408-3.141-3.143-3.141C280.838,283.848,279.434,285.255,279.434,286.986z"/>
		<g>
			<path fill="#FFEDE1" d="M230.053,268.341c-3.084,12.302-15.372,20.316-27.11,16.679c-25.849-8.008-13.83-37.03-13.83-37.03
				s10.259-11.896,25.005-7.504C225.893,243.991,233.137,256.046,230.053,268.341z"/>
			<path fill="#3C3D37" d="M227.352,269.419c-2.749,10.354-13.252,16.972-23.167,13.746c-21.839-7.103-11.331-31.476-11.331-31.476
				s8.827-9.92,21.286-6.02C224.089,248.785,230.102,259.064,227.352,269.419z"/>
			<path fill="#D39154" d="M227.055,265.445c-0.354,9.806-8.326,17.462-17.803,17.105c-9.474-0.354-16.864-8.592-16.51-18.395
				c0.355-9.801,8.322-17.462,17.801-17.108C220.017,247.404,227.411,255.644,227.055,265.445z"/>
			<path fill="#F79E54" d="M195.641,264.538c0.355-9.798,8.317-17.453,17.788-17.105c-0.938-0.202-1.898-0.346-2.886-0.384
				c-9.479-0.354-17.445,7.308-17.801,17.108c-0.354,9.803,7.036,18.041,16.51,18.395c0,0,0.008-0.002,0.018,0
				C201.226,280.823,195.32,273.318,195.641,264.538z"/>
			<path fill="#3F1D01" d="M227.255,266.419c-0.293,8.125-6.904,14.479-14.76,14.185c-7.86-0.293-13.989-7.129-13.694-15.254
				c0.297-8.129,6.905-14.481,14.761-14.188C221.419,251.455,227.552,258.286,227.255,266.419z"/>
			<path fill="#3F1D01" d="M214.601,277.35c-7.855-0.298-13.986-7.125-13.69-15.259c0.076-2.146,0.604-4.159,1.469-5.973
				c-2.113,2.467-3.45,5.682-3.578,9.229c-0.294,8.125,5.834,14.961,13.694,15.254c5.783,0.217,10.88-3.172,13.291-8.211
				C223.059,275.566,219.026,277.516,214.601,277.35z"/>
			<path fill="#FFFFFF" d="M221.184,259.087c-0.104,2.92-2.454,5.199-5.242,5.095c-2.792-0.105-4.971-2.554-4.863-5.472
				c0.106-2.92,2.455-5.198,5.246-5.096C219.114,253.719,221.29,256.171,221.184,259.087z"/>
			
				<ellipse transform="matrix(0.0373 -0.9993 0.9993 0.0373 -63.9238 480.6821)" fill="#FFFFFF" cx="217.528" cy="273.52" rx="2.746" ry="3.037"/>
		</g>
		<path opacity="0.32" fill="#808184" enable-background="new    " d="M243.651,282.825c-0.219,1.082-2.478,0.098-5.502-0.525
			c-3.024-0.616-5.669-0.645-5.451-1.723c0.222-1.08,2.91-1.8,5.933-1.181C241.657,280.02,243.875,281.747,243.651,282.825z"/>
		<path fill="#BAA696" d="M193.536,315.614c0,3.649-2.955,6.606-6.604,6.606c-3.646,0-6.603-2.957-6.603-6.606
			c0-3.646,2.957-6.603,6.603-6.603C190.581,309.014,193.536,311.971,193.536,315.614z"/>
		<path fill="#BAA696" d="M396.243,282.596c0,3.645-2.958,6.604-6.604,6.604c-3.65,0-6.607-2.961-6.607-6.604
			c0-3.648,2.957-6.605,6.607-6.605C393.285,275.989,396.243,278.945,396.243,282.596z"/>
		<path fill="#BAA696" d="M424.695,231.283c0,3.365-2.731,6.094-6.1,6.094c-3.363,0-6.098-2.729-6.098-6.094
			c0-3.368,2.733-6.098,6.098-6.098C421.963,225.186,424.695,227.915,424.695,231.283z"/>
		<path fill="#BAA696" d="M384.047,254.651c0,2.244-1.817,4.066-4.059,4.066c-2.246,0-4.068-1.822-4.068-4.066
			c0-2.245,1.822-4.062,4.068-4.062C382.229,250.59,384.047,252.406,384.047,254.651z"/>
		<path fill="#BAA696" d="M365.758,328.827c0,2.241-1.815,4.063-4.062,4.063c-2.243,0-4.064-1.822-4.064-4.063
			c0-2.25,1.821-4.063,4.064-4.063C363.942,324.764,365.758,326.577,365.758,328.827z"/>
		<path fill="#BAA696" d="M235.702,357.273c0,2.246-1.816,4.066-4.063,4.066c-2.246,0-4.067-1.82-4.067-4.066
			c0-2.241,1.821-4.063,4.067-4.063C233.886,353.212,235.702,355.032,235.702,357.273z"/>
		<circle fill="#BAA696" cx="416.057" cy="249.064" r="3.558"/>
		<path fill="#BAA696" d="M357.632,286.659c0,2.522-2.046,4.573-4.572,4.573c-2.525,0-4.574-2.051-4.574-4.573
			c0-2.525,2.049-4.574,4.574-4.574C355.586,282.085,357.632,284.134,357.632,286.659z"/>
		<circle fill="#BAA696" cx="141.717" cy="309.013" r="5.589"/>
		<path fill="#BAA696" d="M162.04,300.376c0,2.522-2.048,4.574-4.574,4.574c-2.524,0-4.574-2.052-4.574-4.574
			c0-2.526,2.05-4.574,4.574-4.574C159.991,295.802,162.04,297.85,162.04,300.376z"/>
		<path fill="#BAA696" d="M205.192,334.374c0.302,2.791-1.714,5.297-4.505,5.603c-2.788,0.301-5.297-1.718-5.596-4.509
			c-0.304-2.788,1.712-5.293,4.501-5.596C202.382,329.566,204.89,331.585,205.192,334.374z"/>
	</g>
</g>
</svg>
