<?xml version="1.0" encoding="utf-8"?>
<!-- Generator: Adobe Illustrator 15.1.0, SVG Export Plug-In . SVG Version: 6.00 Build 0)  -->
<!DOCTYPE svg PUBLIC "-//W3C//DTD SVG 1.1//EN" "http://www.w3.org/Graphics/SVG/1.1/DTD/svg11.dtd">
<svg version="1.1" id="Layer_1" xmlns="http://www.w3.org/2000/svg" xmlns:xlink="http://www.w3.org/1999/xlink" x="0px" y="0px"
	 width="512px" height="512px" viewBox="0 0 512 512" enable-background="new 0 0 512 512" xml:space="preserve">
<g>
	<g>
		<g>
			<path fill="#746CC2" d="M107.276,131.087c3.396,1.592,5.789,3.951,8.518,6.303c1.612,1.393,1.992,2.574,2.697,4.434
				c1.539,4.049,4.974,7.113,9.644,5.738c2.03-0.598,3.571-1.877,5.35-2.908c2.33-1.354,4.948-2.135,7.401-3.234
				c2.568-1.158,5.223-1.52,8.025-1.5c5.371,0.043,10.583,0.373,15.795,1.721c4.559,1.18,8.968,3.186,13.631,3.939
				c4.783,0.775,7.092-0.92,8.436-5.08c1.336-4.133,6.055-7.092,10.084-8.684c4.148-1.643,8.586-2.746,13.007-3.41
				c4.46-0.672,8.796-1.406,12.789,0.912c6.064,3.523,5.333,1.93,4.488,12.688c-0.667,8.508-4.64,21.527-7.692,29.529
				c-1.721,4.51-3.623,8.959-5.728,13.314c-4.14,8.564-8.588,17.664-15.242,24.787c-3.372,3.605-12.274,6.566-17.338,6.277
				c-19.719-1.121-21.558-6.738-28.808-17.498c-5.316,10.293-17.98,20.492-37.107,15.604c-11.186-2.859-18.268-18.447-22.828-27.768
				c-4.352-8.891-11.839-32.674-13.105-44.656c-0.427-4.023-1.566-13.508,2.531-16.203c4.301-2.826,8.576,1.188,13.479,1.43
				C99.649,127.036,103.449,129.296,107.276,131.087z"/>
		</g>
		<g>
			<path fill="#EBD6FF" d="M226.876,134.683c-2.838,12.699-7.516,26.143-13.155,37.814c-4.14,8.566-8.588,17.664-15.242,24.787
				c-3.372,3.607-12.274,6.566-17.338,6.277c-19.719-1.123-25.907-11.229-28.224-24.014c-3.097,18.4-18.564,27.01-37.691,22.119
				c-11.186-2.859-18.268-18.445-22.828-27.768c-4.352-8.889-12.375-32.723-13.75-42.752c-0.629-4.6-0.689-9.248-0.56-13.879
				c0.145-5.102-0.124-11.285,2.435-15.918c3.598-6.518,12.354-5.279,18.752-5.344c5.494-0.057,12.001-0.242,16.841,2.736
				c6.501,4,3.498,12.035,3.255,18.066c-0.187,4.619-1.734,11.604,0.81,15.832c1.45,2.406,4.938,3.313,7.64,2.701
				c3.715-0.842,5.07-4.541,5.043-7.949c-0.023-2.842,0.007-5.689,0.02-8.531c0.012-3.385,0.172-6.77,0.125-10.156
				c-0.102-7.236,4.001-11.252,11.287-11.906c6.877-0.619,17.543-1.664,23.82,1.377c6.758,3.275,5.781,10.951,5.568,17.137
				c-0.182,5.365-2.261,12.953,1.088,17.785c2.189,3.164,6.479,2.527,9.285,0.748c4.223-2.678,3.111-6.457,2.866-10.695
				c-0.378-6.512-2.667-14.537,1.054-20.572c4.771-7.742,21.013-6.953,28.756-5.887c4.749,0.654,11.633,3.447,11.779,8.994
				c0.26,9.648,0.495,19.41-1.611,28.902C226.89,134.62,226.884,134.651,226.876,134.683z"/>
		</g>
		<g>
			<linearGradient id="SVGID_1_" gradientUnits="userSpaceOnUse" x1="78.0317" y1="154.6333" x2="228.6768" y2="154.6333">
				<stop  offset="0.0034" style="stop-color:#B2A2D6"/>
				<stop  offset="1" style="stop-color:#C3A7DD"/>
			</linearGradient>
			<path fill="url(#SVGID_1_)" d="M226.876,139.548c-2.838,12.701-7.516,26.143-13.155,37.813
				c-4.14,8.566-8.588,17.668-15.242,24.789c-3.372,3.607-12.274,6.568-17.338,6.279c-19.719-1.125-25.907-11.229-28.224-24.016
				c-3.097,18.4-18.564,27.01-37.691,22.119c-11.186-2.859-18.268-18.445-22.828-27.766c-4.352-8.891-12.375-32.725-13.75-42.754
				c-0.629-4.598-0.689-9.248-0.56-13.879c0.145-5.102-0.124-11.285,2.435-15.916c3.598-6.52,12.354-5.279,18.752-5.346
				c5.494-0.059,12.001-0.242,16.841,2.736c6.501,4.002,3.498,12.035,3.255,18.068c-0.187,4.615-1.734,11.602,0.81,15.83
				c1.45,2.408,4.938,3.314,7.64,2.701c3.715-0.842,5.07-4.541,5.043-7.947c-0.023-2.844,0.007-5.689,0.02-8.533
				c0.012-3.385,0.172-6.77,0.125-10.154c-0.102-7.238,4.001-11.256,11.287-11.908c6.877-0.621,17.543-1.664,23.82,1.379
				c6.758,3.273,5.781,10.949,5.568,17.137c-0.182,5.365-2.261,12.953,1.088,17.785c2.189,3.162,6.479,2.527,9.285,0.746
				c4.223-2.678,3.111-6.457,2.866-10.695c-0.378-6.512-2.667-14.537,1.054-20.574c4.771-7.74,21.013-6.953,28.756-5.885
				c4.749,0.654,11.633,3.447,11.779,8.992c0.26,9.65,0.495,19.412-1.611,28.904C226.89,139.485,226.884,139.517,226.876,139.548z"
				/>
		</g>
		<ellipse fill="#EBD6FF" cx="200.67" cy="113.733" rx="6.447" ry="6.242"/>
		<ellipse fill="#EBD6FF" cx="161.88" cy="131.69" rx="6.447" ry="6.24"/>
		<ellipse fill="#EBD6FF" cx="89.98" cy="147.421" rx="4.297" ry="4.158"/>
		<path fill="#EBD6FF" d="M150.831,111.396c0,2.297-1.922,4.16-4.298,4.16c-2.374,0-4.296-1.863-4.296-4.16
			c0-2.299,1.922-4.16,4.296-4.16C148.909,107.235,150.831,109.097,150.831,111.396z"/>
		<ellipse fill="#EBD6FF" cx="96.759" cy="122.706" rx="8.01" ry="7.752"/>
		<ellipse fill="#EBD6FF" cx="125.265" cy="157.245" rx="4.518" ry="4.373"/>
		<ellipse fill="#EBD6FF" cx="208.403" cy="172.685" rx="4.518" ry="4.371"/>
		<ellipse fill="#EBD6FF" cx="180.238" cy="194.269" rx="5.511" ry="5.334"/>
		<ellipse fill="#EBD6FF" cx="163.979" cy="170.38" rx="8.165" ry="7.9"/>
		<path fill="#EBD6FF" d="M193.835,153.501c0,1.771-1.483,3.211-3.314,3.211c-1.834,0-3.316-1.439-3.316-3.211
			s1.482-3.209,3.316-3.209C192.352,150.292,193.835,151.729,193.835,153.501z"/>
		<path fill="#EBD6FF" d="M128.869,186.591c0.526,4.041-2.433,7.727-6.608,8.236c-4.172,0.508-7.984-2.354-8.51-6.396
			c-0.524-4.041,2.432-7.729,6.609-8.236C124.534,179.685,128.345,182.55,128.869,186.591z"/>
		<ellipse fill="#EBD6FF" cx="217.587" cy="130.577" rx="5.158" ry="4.992"/>
	</g>
	<g>
		<linearGradient id="SVGID_2_" gradientUnits="userSpaceOnUse" x1="326.9189" y1="181.542" x2="291.0128" y2="295.2447">
			<stop  offset="0" style="stop-color:#52A7ED"/>
			<stop  offset="0.1523" style="stop-color:#56ADF0"/>
			<stop  offset="0.5852" style="stop-color:#5DBAF7"/>
			<stop  offset="1" style="stop-color:#5FBEF9"/>
		</linearGradient>
		<path fill="url(#SVGID_2_)" d="M426.326,272.478c0.49-0.364,0.958-0.723,1.393-1.078c7.033-5.75,6.167-10.432,3.266-18.463
			c-2.062-5.712-4.969-11.105-7.703-16.515c-17.04-33.734-53.57-57.059-95.889-57.059c-58.207,0-105.466,44.125-106.11,98.789
			c-5.094,16.061-9.255,19.669-21.008,25.4c-7.558,3.685-16.141,4.897-24.545,4.613c-9.897-0.336-23.804,0.044-24.371,12.709
			c-0.226,5.018,1.662,9.861,3.763,14.414c3.825,8.279,9.465,16.83,15.469,23.77c5.464,6.317,14.048,11.009,21.652,14.349
			c16.944,7.437,35.494,11.003,53.963,11.229c27.141,0.327,54.022-6.307,79.234-16.355c18.953-7.562,37.162-17.085,53.822-28.868
			c16.04-11.347,31.697-26.918,32.748-46.54c0.148-2.787-0.233-6.827,1.285-9.344C415.863,279.283,422.009,275.694,426.326,272.478z
			"/>
		<linearGradient id="SVGID_3_" gradientUnits="userSpaceOnUse" x1="305.749" y1="190.0752" x2="344.1356" y2="337.9769">
			<stop  offset="9.999999e-008" style="stop-color:#82D5F9"/>
			<stop  offset="0.0183" style="stop-color:#81D4F9"/>
			<stop  offset="0.3301" style="stop-color:#6EC8F9"/>
			<stop  offset="0.6527" style="stop-color:#63C0F9"/>
			<stop  offset="1" style="stop-color:#5FBEF9"/>
		</linearGradient>
		<path fill="url(#SVGID_3_)" d="M425.618,269.122c0,47.698-44.482,86.369-99.353,86.369c-54.871,0-99.354-38.671-99.354-86.369
			c0-47.703,44.483-86.372,99.354-86.372C381.136,182.75,425.618,221.419,425.618,269.122z"/>
		<path fill="#746CC2" d="M241.386,354.38c16.217,0.427,32.584-2.468,44.839-9.927c8.246-5.018,12.095-14.926,15.059-24.114
			c4.88-15.127,5.369-33.671,5.369-33.671s22.447,10.248,48.365,9.125c65.417-2.834,70.988-26.676,71.286-26.749
			c-4.351,24.517-6.063,56.3-10.078,65.116c-9.81,21.544-28.359,46.868-62.849,60.849c-41.239,16.745-89.133,20.557-131.31,4.132
			c-2.783-1.083-5.375-2.606-8-4.047c-25.678-14.101-46.662-36.596-58.951-63.204c-2.36-5.109-8.029-22.099,4.403-14.402
			c15.085,9.34,28.132,23.546,44.877,29.924C215.098,351.485,228.191,354.03,241.386,354.38z"/>
		<path fill="#746CC2" d="M243.839,361.442c16.216,0.43,32.583-2.465,44.838-9.924c8.246-5.021,13.39-13.267,17.157-22.157
			c6.196-14.617,6.125-35.371,7.172-35.111c13.667,3.416,31.521,9.219,44.463,8.608c14.007-0.66,27.345-2.012,40.216-7.521
			c4.186-1.794,25.938-20.112,29.414-23.154c10.43,17.385-0.437,58.667-14.951,80.213c-39.575,58.731-107.133,73.688-172.831,57.611
			c-36.381-8.902-65.751-36.439-81.748-71.055c-2.362-5.105-8.029-22.094,4.401-14.398c15.086,9.338,28.134,23.546,44.876,29.92
			C217.549,358.55,230.645,361.098,243.839,361.442z"/>
		<linearGradient id="SVGID_4_" gradientUnits="userSpaceOnUse" x1="289.7988" y1="305.9502" x2="289.7988" y2="404.4279">
			<stop  offset="0.0034" style="stop-color:#B2A2D6"/>
			<stop  offset="1" style="stop-color:#C3A7DD"/>
		</linearGradient>
		<path fill="url(#SVGID_4_)" d="M241.386,356.538c16.217,0.43,32.584-2.463,44.839-9.924c8.246-5.02,13.39-13.266,17.158-22.152
			c6.197-14.619,6.125-35.376,7.173-35.116c13.664,3.418,31.52,9.22,44.462,8.608c14.007-0.66,27.345-2.009,40.215-7.521
			c4.186-1.789,30.369-12.74,30.015-17.08c7.737,20.208-3.162,53.873-15.552,74.142c-36.938,60.421-107.133,73.685-172.831,57.61
			c-36.381-8.903-65.75-36.44-81.748-71.056c-2.36-5.105-8.029-22.095,4.403-14.398c15.085,9.335,28.132,23.546,44.877,29.922
			C215.098,353.648,228.191,356.191,241.386,356.538z"/>
		<g>
			<g opacity="0.5">
				<path fill="#746CC2" d="M337.538,296.947c-0.954,17.688-7.039,35.182-18.41,48.902c-21.742,26.229-57.061,34.837-89.749,31.289
					c-20.09-2.18-42.686-6.717-59.721-17.947c-1.982-1.306,0.358,1.696,2.328,2.994c15.537,10.243,31.629,14.917,49.869,17.653
					c17.783,2.666,35.81,2.917,53.163-2.224c28.261-8.374,51.824-27.356,61.479-55.705c2.741-8.048,4.261-16.478,4.717-24.963
					C341.342,294.583,337.666,294.59,337.538,296.947L337.538,296.947z"/>
			</g>
			<g opacity="0.5">
				<path fill="#746CC2" d="M372.529,296.619c6.395,26.228-12.88,54.698-31.271,71.201c-16.352,14.672-36.28,25.721-57.625,30.996
					c-19.307,4.77-40.156,5.411-59.87,3.492c-2.354-0.229-0.897,2.577,1.438,2.808c31.009,3.016,62.345,0.483,90.072-14.591
					c23.81-12.942,45.405-32.425,55.998-57.774c4.791-11.463,7.808-24.785,4.803-37.107
					C375.517,293.344,371.968,294.319,372.529,296.619L372.529,296.619z"/>
			</g>
			<g opacity="0.5">
				<path fill="#746CC2" d="M406.85,286.813c6.231,28.289-8.839,60.188-27.029,80.956c-15.76,17.993-36.625,32.579-59.694,39.257
					c-19.624,5.683-40.221,6.582-60.357,3.927c-2.338-0.312-2.296,2.695,0.019,3c32.265,4.259,65.4,0.192,92.986-17.982
					c24.49-16.137,44.443-39.352,53.775-67.395c4.493-13.506,6.95-28.657,3.848-42.74
					C409.89,283.527,406.342,284.502,406.85,286.813L406.85,286.813z"/>
			</g>
		</g>
		<radialGradient id="SVGID_5_" cx="321.4404" cy="305.8184" r="7.5576" gradientUnits="userSpaceOnUse">
			<stop  offset="0" style="stop-color:#B1DDF9"/>
			<stop  offset="0.2965" style="stop-color:#95D2F9"/>
			<stop  offset="0.7584" style="stop-color:#6EC3F9"/>
			<stop  offset="1" style="stop-color:#5FBDF9"/>
		</radialGradient>
		<path fill="url(#SVGID_5_)" d="M328.999,305.818c0,4.174-3.384,7.557-7.557,7.557c-4.176,0-7.561-3.383-7.561-7.557
			c0-4.177,3.385-7.558,7.561-7.558C325.615,298.261,328.999,301.642,328.999,305.818z"/>
		<radialGradient id="SVGID_6_" cx="307.958" cy="341.3633" r="8.5034" gradientUnits="userSpaceOnUse">
			<stop  offset="0" style="stop-color:#B1DDF9"/>
			<stop  offset="0.2965" style="stop-color:#95D2F9"/>
			<stop  offset="0.7584" style="stop-color:#6EC3F9"/>
			<stop  offset="1" style="stop-color:#5FBDF9"/>
		</radialGradient>
		<path fill="url(#SVGID_6_)" d="M316.461,341.364c0,4.697-3.809,8.503-8.503,8.503c-4.699,0-8.503-3.806-8.503-8.503
			c0-4.698,3.804-8.504,8.503-8.504C312.652,332.86,316.461,336.666,316.461,341.364z"/>
		<radialGradient id="SVGID_7_" cx="278.5391" cy="360.9766" r="7.5586" gradientUnits="userSpaceOnUse">
			<stop  offset="0" style="stop-color:#B1DDF9"/>
			<stop  offset="0.2965" style="stop-color:#95D2F9"/>
			<stop  offset="0.7584" style="stop-color:#6EC3F9"/>
			<stop  offset="1" style="stop-color:#5FBDF9"/>
		</radialGradient>
		<circle fill="url(#SVGID_7_)" cx="278.539" cy="360.975" r="7.56"/>
		<radialGradient id="SVGID_8_" cx="207.4468" cy="362.2021" r="5.6702" gradientUnits="userSpaceOnUse">
			<stop  offset="0" style="stop-color:#B1DDF9"/>
			<stop  offset="0.2965" style="stop-color:#95D2F9"/>
			<stop  offset="0.7584" style="stop-color:#6EC3F9"/>
			<stop  offset="1" style="stop-color:#5FBDF9"/>
		</radialGradient>
		<path fill="url(#SVGID_8_)" d="M213.117,362.203c0,3.13-2.542,5.669-5.669,5.669c-3.133,0-5.672-2.539-5.672-5.669
			c0-3.132,2.539-5.671,5.672-5.671C210.575,356.532,213.117,359.071,213.117,362.203z"/>
		<radialGradient id="SVGID_9_" cx="178.0283" cy="348.7188" r="5.6689" gradientUnits="userSpaceOnUse">
			<stop  offset="0" style="stop-color:#B1DDF9"/>
			<stop  offset="0.2965" style="stop-color:#95D2F9"/>
			<stop  offset="0.7584" style="stop-color:#6EC3F9"/>
			<stop  offset="1" style="stop-color:#5FBDF9"/>
		</radialGradient>
		<circle fill="url(#SVGID_9_)" cx="178.028" cy="348.718" r="5.67"/>
		<path opacity="0.5" fill="#746CC2" d="M246.37,332.238c-14.712-6.092-22.618,0.253-24.233,17.119
			c-1.164,12.123,3.911,22.44,9.61,32.584c0.824,1.463,1.703,2.982,3.075,3.87c1.302,0.844,2.883,1.012,4.407,1.076
			c11.521,0.479,23.156-4.152,31.527-12.546c8.374-8.396,13.374-20.443,13.553-32.653c0.044-2.962-0.346-6.279-2.515-8.152
			c-4.328-3.733-10.265,1.383-15.631,3.021C259.561,338.572,252.772,334.892,246.37,332.238z"/>
		<path fill="#746CC2" d="M246.179,332.046c-14.597-5.568-22.442,0.229-24.046,15.634c-1.152,11.076,3.884,20.503,9.538,29.77
			c0.815,1.338,1.688,2.725,3.05,3.537c1.291,0.77,2.861,0.924,4.373,0.979c11.432,0.438,22.971-3.792,31.278-11.461
			c8.306-7.669,13.267-18.676,13.446-29.83c0.043-2.705-0.346-5.736-2.495-7.445c-4.295-3.414-10.184,1.262-15.508,2.757
			C259.263,337.827,252.531,334.465,246.179,332.046z"/>
		<linearGradient id="SVGID_10_" gradientUnits="userSpaceOnUse" x1="253.2573" y1="387.5654" x2="253.2573" y2="332.2448">
			<stop  offset="9.999999e-008" style="stop-color:#82D5F9"/>
			<stop  offset="0.0183" style="stop-color:#81D4F9"/>
			<stop  offset="0.3301" style="stop-color:#6EC8F9"/>
			<stop  offset="0.6527" style="stop-color:#63C0F9"/>
			<stop  offset="1" style="stop-color:#5FBEF9"/>
		</linearGradient>
		<path fill="url(#SVGID_10_)" d="M246.708,327.527c-14.235-5.563-21.887,0.229-23.45,15.638
			c-1.123,11.076,3.787,20.503,9.302,29.768c0.797,1.338,1.647,2.725,2.978,3.539c1.258,0.768,2.787,0.922,4.262,0.979
			c11.146,0.437,22.403-3.792,30.502-11.461c8.103-7.669,12.939-18.678,13.114-29.83c0.042-2.704-0.336-5.738-2.435-7.449
			c-4.186-3.412-9.932,1.266-15.123,2.758C259.469,333.311,252.902,329.948,246.708,327.527z"/>
		<linearGradient id="SVGID_11_" gradientUnits="userSpaceOnUse" x1="253.2573" y1="374.7832" x2="253.2573" y2="325.2019">
			<stop  offset="9.999999e-008" style="stop-color:#82D5F9"/>
			<stop  offset="0.0183" style="stop-color:#81D4F9"/>
			<stop  offset="0.3301" style="stop-color:#6EC8F9"/>
			<stop  offset="0.6527" style="stop-color:#63C0F9"/>
			<stop  offset="1" style="stop-color:#5FBEF9"/>
		</linearGradient>
		<path fill="url(#SVGID_11_)" d="M247.389,330.013c-12.76-4.989-19.614,0.203-21.017,14.014
			c-1.007,9.926,3.394,18.374,8.335,26.678c0.714,1.199,1.477,2.443,2.667,3.173c1.127,0.688,2.499,0.827,3.821,0.879
			c9.989,0.392,20.078-3.4,27.336-10.273c7.263-6.872,11.598-16.738,11.753-26.733c0.041-2.426-0.299-5.144-2.181-6.674
			c-3.751-3.061-8.9,1.132-13.552,2.473C258.823,335.196,252.94,332.183,247.389,330.013z"/>
		<path fill="#746CC2" d="M139.794,296.531c-9.465-2.4-18.626-3.275-24.194-2.543c-4.801,0.628-12.211,4.946-21.45,9.196
			c-1.3,9.627,1.319,19.703,6.15,28.79c10.787,20.284,67.432,31.942,68.608-8.818C169.412,305.771,153.667,300.048,139.794,296.531z
			"/>
		<linearGradient id="SVGID_12_" gradientUnits="userSpaceOnUse" x1="93.8779" y1="319.4492" x2="172.7954" y2="319.4492">
			<stop  offset="0" style="stop-color:#B2A2D6"/>
			<stop  offset="1" style="stop-color:#C3A7DD"/>
		</linearGradient>
		<path fill="url(#SVGID_12_)" d="M142.165,294.077c-9.955-2.4-19.586-3.272-25.445-2.541c-5.049,0.631-12.841,4.946-22.557,9.196
			c-1.368,9.629,2.348,20.348,7.7,29.296c11.071,18.508,69.683,31.437,70.92-9.324C173.309,303.316,156.756,297.597,142.165,294.077
			z"/>
		<path fill="#746CC2" d="M143.059,255.052c-1.659,1.352-8.981,8.057-10.332,18.802c-0.41,3.286-2.259,19.504,3.855,24.312
			c-8.906-7.459-19.137-5.859-25.235-4.936c-10.059,1.523-17.142,7.461-17.142,7.461s1.814,19.47,29.776,31.687
			c32.419,14.164,59.581,3.072,58.038-32.848C180.852,272.341,160.656,252.464,143.059,255.052z"/>
		<path fill="#5FBDF9" d="M145.192,252.757c-1.658,1.354-8.979,8.057-10.327,18.806c-0.415,3.286-2.262,19.501,3.851,24.312
			c-8.901-7.459-19.133-5.861-25.232-4.938c-10.058,1.525-18.665,9.241-18.665,9.241s2.955,16.629,31.17,28.253
			c30.537,12.58,62.98,4.095,58.167-31.192C180.479,270.271,162.794,250.171,145.192,252.757z"/>
		<linearGradient id="SVGID_13_" gradientUnits="userSpaceOnUse" x1="125.6338" y1="274.9238" x2="169.7627" y2="323.956">
			<stop  offset="9.999999e-008" style="stop-color:#82D5F9"/>
			<stop  offset="0.0183" style="stop-color:#81D4F9"/>
			<stop  offset="0.3301" style="stop-color:#6EC8F9"/>
			<stop  offset="0.6527" style="stop-color:#63C0F9"/>
			<stop  offset="1" style="stop-color:#5FBEF9"/>
		</linearGradient>
		<path fill="url(#SVGID_13_)" d="M146.534,256.138c-1.523,1.241-8.246,7.398-9.481,17.266c-0.38,3.017-2.077,17.902,3.533,22.318
			c-8.172-6.848-17.567-5.381-23.168-4.53c-9.232,1.4-17.136,8.483-17.136,8.483s2.717,15.269,28.619,25.939
			c28.038,11.551,57.823,3.761,53.405-28.64C178.929,272.218,162.694,253.762,146.534,256.138z"/>
		<linearGradient id="SVGID_14_" gradientUnits="userSpaceOnUse" x1="312.5186" y1="113.3784" x2="330.5179" y2="163.7766">
			<stop  offset="9.999999e-008" style="stop-color:#82D5F9"/>
			<stop  offset="0.1237" style="stop-color:#6DC8F9"/>
			<stop  offset="0.2967" style="stop-color:#57BBF9"/>
			<stop  offset="0.4858" style="stop-color:#47B1F9"/>
			<stop  offset="0.7012" style="stop-color:#3EACF9"/>
			<stop  offset="1" style="stop-color:#3BAAF9"/>
		</linearGradient>
		<path fill="url(#SVGID_14_)" d="M361.436,125.821c-4.391-6.38-13.508-8.432-20.803-5.828c-6.752,2.412-11.91,8.141-14.899,14.694
			c-2.705-12.575-11.811-16.723-18.472-18.226c-8.467-1.913-19.278-0.383-26.641,8.881c-4.258,5.356-4.554,15.193-0.788,20.913
			c6.56,9.958,21.899,5.385,26.121-4.345c1.924-4.434,4.813-5.378,7.568-3.007c4.352,3.743,2.091,19.338,6.938,36.412
			c1.266-13.49,1.27-17.454,6.203-26.781c2.306-4.363,6.578-9.016,11.3-7.588c2.685,0.814,4.397,3.355,6.552,5.152
			C355.094,154.916,368.359,135.884,361.436,125.821z"/>
		
			<radialGradient id="SVGID_15_" cx="331.2949" cy="244.9839" r="30.5146" gradientTransform="matrix(1 0 0 0.8743 0 30.7881)" gradientUnits="userSpaceOnUse">
			<stop  offset="0.0034" style="stop-color:#4895ED"/>
			<stop  offset="1" style="stop-color:#5FBDF9"/>
		</radialGradient>
		<path fill="url(#SVGID_15_)" d="M363.655,243.263c0,0-0.661,27.504-32.703,28.15c-18.059,0.364-32.705-12.602-32.705-28.15
			c0-15.548,14.643-28.152,32.705-28.152C362.333,215.11,363.655,243.263,363.655,243.263z"/>
		<radialGradient id="SVGID_16_" cx="256.4756" cy="320.5254" r="10.1582" gradientUnits="userSpaceOnUse">
			<stop  offset="0" style="stop-color:#52A7ED"/>
			<stop  offset="0.1326" style="stop-color:#55ACF0"/>
			<stop  offset="0.5755" style="stop-color:#5DB9F7"/>
			<stop  offset="1" style="stop-color:#5FBDF9"/>
		</radialGradient>
		<circle fill="url(#SVGID_16_)" cx="256.476" cy="320.527" r="10.158"/>
		<radialGradient id="SVGID_17_" cx="259.1309" cy="233.4985" r="10.0095" gradientUnits="userSpaceOnUse">
			<stop  offset="0" style="stop-color:#52A7ED"/>
			<stop  offset="0.5277" style="stop-color:#58B0F2"/>
			<stop  offset="1" style="stop-color:#5FBDF9"/>
		</radialGradient>
		<circle fill="url(#SVGID_17_)" cx="259.13" cy="233.5" r="10.009"/>
		<radialGradient id="SVGID_18_" cx="130.2227" cy="308.2695" r="6.2222" gradientUnits="userSpaceOnUse">
			<stop  offset="0" style="stop-color:#52A7ED"/>
			<stop  offset="0.5277" style="stop-color:#58B0F2"/>
			<stop  offset="1" style="stop-color:#5FBDF9"/>
		</radialGradient>
		<path fill="url(#SVGID_18_)" d="M136.445,308.27c0,3.437-2.788,6.222-6.222,6.222c-3.438,0-6.224-2.785-6.224-6.222
			c0-3.438,2.785-6.222,6.224-6.222C133.657,302.048,136.445,304.831,136.445,308.27z"/>
		<radialGradient id="SVGID_19_" cx="157.561" cy="267.7109" r="4.3186" gradientUnits="userSpaceOnUse">
			<stop  offset="0" style="stop-color:#52A7ED"/>
			<stop  offset="0.5277" style="stop-color:#58B0F2"/>
			<stop  offset="1" style="stop-color:#5FBDF9"/>
		</radialGradient>
		<path fill="url(#SVGID_19_)" d="M161.879,267.713c0,2.382-1.933,4.317-4.317,4.317c-2.386,0-4.318-1.936-4.318-4.317
			c0-2.39,1.933-4.32,4.318-4.32C159.946,263.393,161.879,265.323,161.879,267.713z"/>
		<radialGradient id="SVGID_20_" cx="160.8677" cy="299.6875" r="7.51" gradientUnits="userSpaceOnUse">
			<stop  offset="0" style="stop-color:#52A7ED"/>
			<stop  offset="0.5277" style="stop-color:#58B0F2"/>
			<stop  offset="1" style="stop-color:#5FBDF9"/>
		</radialGradient>
		<circle fill="url(#SVGID_20_)" cx="160.868" cy="299.688" r="7.509"/>
		<radialGradient id="SVGID_21_" cx="224.7344" cy="326.751" r="7.5596" gradientUnits="userSpaceOnUse">
			<stop  offset="0" style="stop-color:#B1DDF9"/>
			<stop  offset="0.2965" style="stop-color:#95D2F9"/>
			<stop  offset="0.7584" style="stop-color:#6EC3F9"/>
			<stop  offset="1" style="stop-color:#5FBDF9"/>
		</radialGradient>
		<circle fill="url(#SVGID_21_)" cx="224.734" cy="326.751" r="7.56"/>
		<radialGradient id="SVGID_22_" cx="394.9863" cy="310.7207" r="7.5586" gradientUnits="userSpaceOnUse">
			<stop  offset="0" style="stop-color:#D0C2DD"/>
			<stop  offset="0.3993" style="stop-color:#C7B9DB"/>
			<stop  offset="1" style="stop-color:#B2A2D6"/>
		</radialGradient>
		<path fill="url(#SVGID_22_)" d="M402.546,310.722c0,4.175-3.387,7.557-7.56,7.557c-4.176,0-7.561-3.382-7.561-7.557
			c0-4.177,3.385-7.56,7.561-7.56C399.159,303.162,402.546,306.545,402.546,310.722z"/>
		<radialGradient id="SVGID_23_" cx="382.7285" cy="342.5898" r="8.5039" gradientUnits="userSpaceOnUse">
			<stop  offset="0" style="stop-color:#D0C2DD"/>
			<stop  offset="0.3993" style="stop-color:#C7B9DB"/>
			<stop  offset="1" style="stop-color:#B2A2D6"/>
		</radialGradient>
		<circle fill="url(#SVGID_23_)" cx="382.729" cy="342.59" r="8.503"/>
		<radialGradient id="SVGID_24_" cx="360.6631" cy="370.7813" r="7.5581" gradientUnits="userSpaceOnUse">
			<stop  offset="0" style="stop-color:#D0C2DD"/>
			<stop  offset="0.3993" style="stop-color:#C7B9DB"/>
			<stop  offset="1" style="stop-color:#B2A2D6"/>
		</radialGradient>
		<path fill="url(#SVGID_24_)" d="M368.221,370.782c0,4.175-3.384,7.558-7.555,7.558c-4.177,0-7.561-3.383-7.561-7.558
			c0-4.174,3.384-7.559,7.561-7.559C364.837,363.224,368.221,366.608,368.221,370.782z"/>
		<radialGradient id="SVGID_25_" cx="334.9238" cy="389.627" r="5.6694" gradientUnits="userSpaceOnUse">
			<stop  offset="0" style="stop-color:#D0C2DD"/>
			<stop  offset="0.3993" style="stop-color:#C7B9DB"/>
			<stop  offset="1" style="stop-color:#B2A2D6"/>
		</radialGradient>
		<path fill="url(#SVGID_25_)" d="M340.593,389.628c0,3.133-2.539,5.669-5.667,5.669c-3.133,0-5.672-2.536-5.672-5.669
			c0-3.132,2.539-5.671,5.672-5.671C338.054,383.957,340.593,386.496,340.593,389.628z"/>
		<radialGradient id="SVGID_26_" cx="308.2793" cy="402.1758" r="4.7192" gradientUnits="userSpaceOnUse">
			<stop  offset="0" style="stop-color:#D0C2DD"/>
			<stop  offset="0.3993" style="stop-color:#C7B9DB"/>
			<stop  offset="1" style="stop-color:#B2A2D6"/>
		</radialGradient>
		<path fill="url(#SVGID_26_)" d="M312.997,402.179c0,2.604-2.112,4.718-4.719,4.718c-2.605,0-4.718-2.113-4.718-4.718
			c0-2.608,2.112-4.723,4.718-4.723C310.885,397.456,312.997,399.57,312.997,402.179z"/>
		<radialGradient id="SVGID_27_" cx="282.1211" cy="407.5342" r="3.2231" gradientUnits="userSpaceOnUse">
			<stop  offset="0" style="stop-color:#D0C2DD"/>
			<stop  offset="0.3993" style="stop-color:#C7B9DB"/>
			<stop  offset="1" style="stop-color:#B2A2D6"/>
		</radialGradient>
		<path fill="url(#SVGID_27_)" d="M285.344,407.537c0,1.778-1.442,3.221-3.222,3.221c-1.783,0-3.224-1.442-3.224-3.221
			c0-1.783,1.44-3.227,3.224-3.227C283.901,404.311,285.344,405.754,285.344,407.537z"/>
		<radialGradient id="SVGID_28_" cx="233.291" cy="291.0547" r="6.1074" gradientUnits="userSpaceOnUse">
			<stop  offset="0" style="stop-color:#B1DDF9"/>
			<stop  offset="0.2171" style="stop-color:#A5D8F9"/>
			<stop  offset="0.6088" style="stop-color:#85CCF9"/>
			<stop  offset="1" style="stop-color:#5FBDF9"/>
		</radialGradient>
		<path fill="url(#SVGID_28_)" d="M239.398,291.055c0,3.376-2.733,6.107-6.107,6.107c-3.373,0-6.107-2.731-6.107-6.107
			c0-3.373,2.734-6.107,6.107-6.107C236.665,284.947,239.398,287.682,239.398,291.055z"/>
		<radialGradient id="SVGID_29_" cx="267.5059" cy="296.0098" r="5.54" gradientUnits="userSpaceOnUse">
			<stop  offset="0" style="stop-color:#52A7ED"/>
			<stop  offset="0.1326" style="stop-color:#55ACF0"/>
			<stop  offset="0.5755" style="stop-color:#5DB9F7"/>
			<stop  offset="1" style="stop-color:#5FBDF9"/>
		</radialGradient>
		<path fill="url(#SVGID_29_)" d="M273.046,296.013c0,3.058-2.481,5.537-5.538,5.537c-3.06,0-5.541-2.479-5.541-5.537
			c0-3.061,2.481-5.542,5.541-5.542C270.564,290.471,273.046,292.952,273.046,296.013z"/>
		<radialGradient id="SVGID_30_" cx="243.9482" cy="262.7754" r="4.3193" gradientUnits="userSpaceOnUse">
			<stop  offset="0" style="stop-color:#52A7ED"/>
			<stop  offset="0.1326" style="stop-color:#55ACF0"/>
			<stop  offset="0.5755" style="stop-color:#5DB9F7"/>
			<stop  offset="1" style="stop-color:#5FBDF9"/>
		</radialGradient>
		<circle fill="url(#SVGID_30_)" cx="243.948" cy="262.775" r="4.319"/>
		<radialGradient id="SVGID_31_" cx="227.0532" cy="309.9688" r="6.6169" gradientUnits="userSpaceOnUse">
			<stop  offset="0" style="stop-color:#52A7ED"/>
			<stop  offset="0.1326" style="stop-color:#55ACF0"/>
			<stop  offset="0.5755" style="stop-color:#5DB9F7"/>
			<stop  offset="1" style="stop-color:#5FBDF9"/>
		</radialGradient>
		<path fill="url(#SVGID_31_)" d="M233.671,309.97c0,3.653-2.961,6.615-6.616,6.615c-3.653,0-6.619-2.962-6.619-6.615
			c0-3.657,2.966-6.617,6.619-6.617C230.71,303.353,233.671,306.313,233.671,309.97z"/>
		<radialGradient id="SVGID_32_" cx="199.8604" cy="319.9258" r="6.6167" gradientUnits="userSpaceOnUse">
			<stop  offset="0" style="stop-color:#52A7ED"/>
			<stop  offset="0.1326" style="stop-color:#55ACF0"/>
			<stop  offset="0.5755" style="stop-color:#5DB9F7"/>
			<stop  offset="1" style="stop-color:#5FBDF9"/>
		</radialGradient>
		<circle fill="url(#SVGID_32_)" cx="199.86" cy="319.926" r="6.616"/>
		<path fill="#FFFFFF" d="M353.782,247.965c0,10.734-9.806,20.98-21.906,20.98c-12.096,0-21.905-8.702-21.905-19.437
			c0-10.736,9.81-19.437,21.905-19.437C343.977,230.072,353.782,241.795,353.782,247.965z"/>
		<path fill="#086CB7" d="M357.259,246.495c0,12.439-11.364,24.31-25.383,24.31c-14.017,0-25.382-10.085-25.382-22.521
			c0-12.439,11.365-22.522,25.382-22.522C345.895,225.761,357.259,239.343,357.259,246.495z"/>
		<radialGradient id="SVGID_33_" cx="331.877" cy="249.5088" r="20.7077" gradientUnits="userSpaceOnUse">
			<stop  offset="0" style="stop-color:#FFFFFF"/>
			<stop  offset="0.2412" style="stop-color:#FAFDFE"/>
			<stop  offset="0.5342" style="stop-color:#EBF6FD"/>
			<stop  offset="0.8527" style="stop-color:#D3EBFA"/>
			<stop  offset="0.9966" style="stop-color:#C5E5F9"/>
		</radialGradient>
		<path fill="url(#SVGID_33_)" d="M353.782,247.965c0,10.734-9.806,20.98-21.906,20.98c-12.096,0-21.905-8.702-21.905-19.437
			c0-10.736,9.81-19.437,21.905-19.437C343.977,230.072,353.782,241.795,353.782,247.965z"/>
		<ellipse fill="#086CB7" cx="326.154" cy="249.211" rx="18.996" ry="20.594"/>
		<radialGradient id="SVGID_34_" cx="325.3984" cy="249.2002" r="18.521" gradientUnits="userSpaceOnUse">
			<stop  offset="0" style="stop-color:#00C7F7"/>
			<stop  offset="0.2384" style="stop-color:#00BDF2"/>
			<stop  offset="0.6387" style="stop-color:#00A3E4"/>
			<stop  offset="1" style="stop-color:#0086D4"/>
		</radialGradient>
		<ellipse fill="url(#SVGID_34_)" cx="325.398" cy="249.2" rx="17.894" ry="19.128"/>
		<ellipse cx="321.697" cy="248.273" rx="14.192" ry="16.352"/>
		<radialGradient id="SVGID_35_" cx="325.0371" cy="240.9238" r="7.7124" gradientUnits="userSpaceOnUse">
			<stop  offset="0" style="stop-color:#FFFFFF"/>
			<stop  offset="0.1235" style="stop-color:#FBFBFB"/>
			<stop  offset="0.2484" style="stop-color:#EFEFEF"/>
			<stop  offset="0.3741" style="stop-color:#DBDBDB"/>
			<stop  offset="0.5002" style="stop-color:#BEBEBE"/>
			<stop  offset="0.6268" style="stop-color:#999999"/>
			<stop  offset="0.7538" style="stop-color:#6C6C6C"/>
			<stop  offset="0.8786" style="stop-color:#383838"/>
			<stop  offset="0.9966" style="stop-color:#000000"/>
		</radialGradient>
		<circle fill="url(#SVGID_35_)" cx="325.037" cy="240.923" r="7.712"/>
		<radialGradient id="SVGID_36_" cx="320.4629" cy="259.6367" r="4.937" gradientUnits="userSpaceOnUse">
			<stop  offset="0" style="stop-color:#FFFFFF"/>
			<stop  offset="0.0869" style="stop-color:#F3F3F3"/>
			<stop  offset="0.2428" style="stop-color:#D4D4D4"/>
			<stop  offset="0.4498" style="stop-color:#A2A2A2"/>
			<stop  offset="0.7001" style="stop-color:#5C5C5C"/>
			<stop  offset="0.9845" style="stop-color:#040404"/>
			<stop  offset="0.9966" style="stop-color:#000000"/>
		</radialGradient>
		<circle fill="url(#SVGID_36_)" cx="320.463" cy="259.636" r="4.937"/>
		<linearGradient id="SVGID_37_" gradientUnits="userSpaceOnUse" x1="304.0234" y1="203.6724" x2="307.8438" y2="209.6152">
			<stop  offset="0" style="stop-color:#5FBEF9"/>
			<stop  offset="1" style="stop-color:#0086D4"/>
		</linearGradient>
		<path fill="url(#SVGID_37_)" d="M324.481,194.168c1.466-0.022,2.386,0.548,2.045,2.217c-0.219,1.065-1.143,1.826-2.035,2.454
			c-3.917,2.763-8.267,4.857-12.387,7.313c-15.802,9.416-21.107,20.821-21.107,20.821s0.073-7.401,8.701-17.799
			c3.696-4.454,9.647-8.895,14.786-11.557C315.554,197.063,321.301,194.22,324.481,194.168z"/>
		<g>
			<path opacity="0.2" fill="#746CC2" d="M431.823,262.013c0,1.557,0.159,3.319-0.322,4.813c-0.492,1.533-1.505,2.842-2.447,4.123
				c-0.986,1.334-1.636,2.864-2.119,4.445c-3.638,11.904-26.856,25.372-50.853,28.49c-29.092,3.783-51.643-0.718-86.464-24.411
				c-1.957-1.334-0.183-4.383,1.857-3.177c23.479,13.89,49.761,20.624,77.019,17.723
				C393.157,291.397,417.671,283.635,431.823,262.013z"/>
		</g>
		<g>
			<path fill="#746CC2" d="M431.941,261.829c-14.134,21.763-38.714,29.56-63.447,32.19c-27.258,2.901-53.54-3.833-77.019-17.723
				c-2.04-1.206-3.896,1.971-1.857,3.177c25.136,14.865,53.438,21.648,82.521,17.785c24.292-3.227,47.255-11.072,61.659-31.618
				c0.448-0.64-0.054-5.201-0.715-5.038C432.633,260.717,432.265,261.335,431.941,261.829L431.941,261.829z"/>
		</g>
		
			<radialGradient id="SVGID_38_" cx="240.5801" cy="188.3838" r="7.5593" gradientTransform="matrix(0.9903 0.1386 -0.1386 0.9903 141.1741 98.174)" gradientUnits="userSpaceOnUse">
			<stop  offset="0" style="stop-color:#D0C2DD"/>
			<stop  offset="0.3993" style="stop-color:#C7B9DB"/>
			<stop  offset="1" style="stop-color:#B2A2D6"/>
		</radialGradient>
		<circle fill="url(#SVGID_38_)" cx="353.311" cy="318.074" r="7.558"/>
		
			<radialGradient id="SVGID_39_" cx="225.7437" cy="223.8813" r="8.5044" gradientTransform="matrix(0.9903 0.1386 -0.1386 0.9903 141.1741 98.174)" gradientUnits="userSpaceOnUse">
			<stop  offset="0" style="stop-color:#D0C2DD"/>
			<stop  offset="0.3993" style="stop-color:#C7B9DB"/>
			<stop  offset="1" style="stop-color:#B2A2D6"/>
		</radialGradient>
		<path fill="url(#SVGID_39_)" d="M342.12,352.349c-0.652,4.65-4.951,7.895-9.602,7.244c-4.651-0.651-7.893-4.949-7.242-9.603
			c0.651-4.648,4.95-7.895,9.6-7.241C339.528,343.399,342.771,347.697,342.12,352.349z"/>
		
			<radialGradient id="SVGID_40_" cx="202.6035" cy="253.1123" r="7.5593" gradientTransform="matrix(0.9903 0.1386 -0.1386 0.9903 141.1741 98.174)" gradientUnits="userSpaceOnUse">
			<stop  offset="0" style="stop-color:#D0C2DD"/>
			<stop  offset="0.3993" style="stop-color:#C7B9DB"/>
			<stop  offset="1" style="stop-color:#B2A2D6"/>
		</radialGradient>
		<circle fill="url(#SVGID_40_)" cx="306.731" cy="376.911" r="7.559"/>
		
			<radialGradient id="SVGID_41_" cx="172.5698" cy="268.4551" r="5.6689" gradientTransform="matrix(0.9903 0.1386 -0.1386 0.9903 141.1741 98.174)" gradientUnits="userSpaceOnUse">
			<stop  offset="0" style="stop-color:#D0C2DD"/>
			<stop  offset="0.3993" style="stop-color:#C7B9DB"/>
			<stop  offset="1" style="stop-color:#B2A2D6"/>
		</radialGradient>
		<circle fill="url(#SVGID_41_)" cx="274.862" cy="387.941" r="5.669"/>
		
			<radialGradient id="SVGID_42_" cx="142.8994" cy="277.5576" r="4.7183" gradientTransform="matrix(0.9903 0.1386 -0.1386 0.9903 141.1741 98.174)" gradientUnits="userSpaceOnUse">
			<stop  offset="0" style="stop-color:#D0C2DD"/>
			<stop  offset="0.3993" style="stop-color:#C7B9DB"/>
			<stop  offset="1" style="stop-color:#B2A2D6"/>
		</radialGradient>
		<path fill="url(#SVGID_42_)" d="M248.891,393.501c-0.359,2.581-2.746,4.38-5.326,4.016c-2.584-0.358-4.381-2.745-4.02-5.324
			c0.359-2.582,2.746-4.381,5.326-4.021C247.453,388.534,249.252,390.919,248.891,393.501z"/>
		
			<radialGradient id="SVGID_43_" cx="110.6563" cy="277.1201" r="3.2236" gradientTransform="matrix(0.9903 0.1386 -0.1386 0.9903 141.1741 98.174)" gradientUnits="userSpaceOnUse">
			<stop  offset="0" style="stop-color:#D0C2DD"/>
			<stop  offset="0.3993" style="stop-color:#C7B9DB"/>
			<stop  offset="1" style="stop-color:#B2A2D6"/>
		</radialGradient>
		<path fill="url(#SVGID_43_)" d="M215.542,388.387c-0.248,1.765-1.877,2.993-3.643,2.747c-1.762-0.246-2.988-1.875-2.745-3.638
			c0.25-1.763,1.877-2.991,3.641-2.745C214.559,385,215.788,386.626,215.542,388.387z"/>
		<linearGradient id="SVGID_44_" gradientUnits="userSpaceOnUse" x1="345.2617" y1="121.0068" x2="345.5817" y2="134.448">
			<stop  offset="0" style="stop-color:#71CBF9"/>
			<stop  offset="0.174" style="stop-color:#67C5F9"/>
			<stop  offset="0.6931" style="stop-color:#4CB5F9"/>
			<stop  offset="1" style="stop-color:#42AFF9"/>
		</linearGradient>
		<path fill="url(#SVGID_44_)" d="M361.671,129.356c1.119,5.958-3.219,11.7-8.688,13.665c-2.331,0.839-4.974,1.215-7.259,0.257
			c-3.305-1.383-6.092-3.528-9.466-4.868c-1.378-0.548-6.589-2.166-6.956-3.819c-0.743-3.315,4.012-7.55,5.831-9.816
			c2.824-3.517,7.78-4.947,12.127-4.947c3.931,0,7.951,1.412,10.985,3.92C360.151,125.325,361.281,127.284,361.671,129.356z"/>
	</g>
</g>
</svg>
