<?xml version="1.0" encoding="utf-8"?>
<!-- Generator: Adobe Illustrator 15.1.0, SVG Export Plug-In . SVG Version: 6.00 Build 0)  -->
<!DOCTYPE svg PUBLIC "-//W3C//DTD SVG 1.1//EN" "http://www.w3.org/Graphics/SVG/1.1/DTD/svg11.dtd">
<svg version="1.1" id="Layer_1" xmlns="http://www.w3.org/2000/svg" xmlns:xlink="http://www.w3.org/1999/xlink" x="0px" y="0px"
	 width="512px" height="512px" viewBox="0 0 512 512" enable-background="new 0 0 512 512" xml:space="preserve">
<g>
	<g>
		<path fill="#98C7E5" d="M311.23,444.95c-5.104,6.656-17.891,6.035-25.063,5.209c-11.058-1.273-15.621-5.297-21.924-14.353
			c-5.688-8.172-8.68-12.289-8.968-12.348c-1.098,0.885-4.358,5.398-9.795,13.555c-6.272,9.435-7.94,11.82-19.108,12.455
			c-7.013,0.398-19.37,2-24.996-3.545c-13.754-13.553,6.258-34.842,13.36-43.666c7.103-8.82,10.654-14.266,10.654-16.33
			c0-1.889-19.75-26.742-22.584-31.52c-4.776-8.055-10.361-20.604-2.149-28.553c4.538-4.394,22.627-2.588,24.662-2.484
			c11.567,0.6,13.748,2.832,20.731,12.766c5.745,8.174,8.732,12.289,8.966,12.348c1.039-0.885,4.477-5.399,10.309-13.543
			c9.686-13.594,22.016-11.082,37.147-11.063c22.852,0.024,9.715,23.453,4.701,31.021c-1.068,1.608-22.629,30.428-22.707,30.764
			c-0.598,2.654,6.289,9.355,7.662,11.133C300.438,407.552,322.584,430.126,311.23,444.95z"/>
		<path fill="#D0E6F9" d="M285.275,380.042c-0.684,0.312-1.521,0.358-2.455,0.358c-2.618,0.002-5.196-0.012-7.813,0.097
			c-10.812,0.444-21.486,2.653-32.327,2.782c-2.041,0.025-4.063-0.168-6.111-0.172c-1.419-0.002-2.797-0.164-4.196-0.377
			c-1.202-0.182-2.412-0.414-3.617-0.623c-0.685-0.116-1.414-0.416-2.053-0.684c-1.633-0.684-2.203-2.477-3.199-3.947
			c-1.609-2.373-3.326-4.676-5.035-6.973c-2.104-2.826-4.218-5.643-6.338-8.453c-1.956-2.588-3.901-5.186-5.826-7.799
			c-1.203-1.631-3.775-2.777-4.813-4.525c-4.777-8.053-9.046-21.088-0.835-29.037c4.539-4.393,22.628-2.59,24.663-2.483
			c11.567,0.599,13.748,2.832,20.731,12.767c5.745,8.174,8.732,12.289,8.966,12.348c1.039-0.885,4.477-5.4,10.309-13.543
			c9.686-13.594,22.016-11.082,37.147-11.064c22.852,0.025,10.885,26.23,5.871,33.797c-1.004,1.516-3.306,0.195-4.402,1.641
			c-1.934,2.545-3.822,5.129-5.738,7.689c-2.145,2.859-4.395,5.701-6.411,8.654c-0.902,1.324-1.834,2.564-2.861,3.789
			c-1.078,1.277-1.604,2.564-2.197,4.109C286.4,379.266,285.9,379.759,285.275,380.042z"/>
		<path fill="#A7D2EA" d="M311.23,444.95c-5.104,6.656-17.891,6.035-25.063,5.209c-11.058-1.273-15.621-5.297-21.924-14.353
			c-5.688-8.172-8.68-12.289-8.968-12.348c-1.098,0.885-4.358,5.398-9.795,13.555c-6.272,9.435-7.94,11.82-19.108,12.455
			c-7.013,0.398-19.37,2-24.996-3.545c-13.754-13.553,6.258-34.842,13.36-43.666c7.103-8.82,10.654-14.266,10.654-16.33
			c0-1.889-19.75-26.742-22.584-31.52c-4.776-8.055-10.361-20.604-2.149-28.553c4.538-4.394,22.627-2.588,24.662-2.484
			c11.567,0.6,13.748,2.832,20.731,12.766c5.745,8.174,8.732,12.289,8.966,12.348c1.039-0.885,4.477-5.399,10.309-13.543
			c9.686-13.594,22.016-11.082,37.147-11.063c22.852,0.024,9.715,23.453,4.701,31.021c-1.068,1.608-22.629,30.428-22.707,30.764
			c-0.598,2.654,6.289,9.355,7.662,11.133C300.438,407.552,322.584,430.126,311.23,444.95z"/>
		<g>
			<path fill="#87B5CC" d="M313.084,439.175c-5.248,6.842-18.385,6.201-25.756,5.353c-11.363-1.31-16.056-5.441-22.529-14.748
				c-5.848-8.396-8.917-12.627-9.213-12.688c-1.129,0.91-4.482,5.549-10.066,13.928c-6.444,9.695-8.16,12.148-19.637,12.802
				c-7.205,0.407-19.904,2.055-25.688-3.646c-1.601-1.576-2.751-3.254-3.529-5.004c0.068,3.842,1.426,7.521,4.709,10.754
				c5.626,5.545,17.983,3.943,24.996,3.545c11.168-0.635,12.836-3.021,19.108-12.455c5.437-8.155,8.697-12.67,9.795-13.555
				c0.288,0.06,3.28,4.176,8.968,12.348c6.303,9.056,10.866,13.078,21.924,14.353c7.174,0.826,19.961,1.447,25.063-5.209
				c1.813-2.365,2.769-4.928,3.066-7.607C313.941,437.964,313.54,438.575,313.084,439.175z"/>
		</g>
		<ellipse fill="#D0E6F9" cx="215.222" cy="341.995" rx="10.178" ry="10.397"/>
		<ellipse fill="#D0E6F9" cx="301.562" cy="338.302" rx="5.581" ry="5.703"/>
		<ellipse fill="#D0E6F9" cx="239.841" cy="351.72" rx="5.58" ry="5.705"/>
		<ellipse fill="#D0E6F9" cx="268.731" cy="396.673" rx="9.85" ry="10.063"/>
		<ellipse fill="#D0E6F9" cx="294.99" cy="426.194" rx="7.551" ry="7.715"/>
		<ellipse fill="#D0E6F9" cx="242.468" cy="382.583" rx="7.551" ry="7.717"/>
		<ellipse fill="#D0E6F9" cx="275.297" cy="356.417" rx="7.551" ry="7.717"/>
		<ellipse fill="#D0E6F9" cx="214.893" cy="430.22" rx="6.566" ry="6.711"/>
		<ellipse fill="#D0E6F9" cx="270.701" cy="426.194" rx="3.938" ry="4.025"/>
		<ellipse fill="#D0E6F9" cx="233.277" cy="412.104" rx="3.939" ry="4.027"/>
	</g>
	<g>
		<path display="none" fill="#FFFFFF" d="M367.902,158.215c-3.701,0-7.192,0.913-10.276,2.521c2.047-0.62,4.213-0.959,6.456-0.959
			c12.515,0,22.658,10.365,22.658,23.151c0,9.005-5.035,16.802-12.381,20.63c9.365-2.842,16.199-11.699,16.199-22.191
			C390.559,168.579,380.415,158.215,367.902,158.215z"/>
		<path fill="#D9F1F9" d="M236.141,228.726c-5.837-2.613-11.673-5.2-17.823-7.145c-7.022-2.219-14.385-2.53-21.545-4.069
			c-7.85-1.688-21.26-9.665-28.504-3.703c3.84-3.161,29.134,16.927,32.678,20.27c8.933,8.424,17.003,20.102,13.182,32.786
			c-1.94,6.43-6.903,13.354-1.805,20.021c6.111,7.988,23.066-2.323,29.954-6.96c9.981-6.721,17.979-15.346,24.588-25.266
			c6.6-9.91,0.223-14.775-9.398-17.543C250.007,234.971,243.075,231.829,236.141,228.726z"/>
		<path fill="#D0DEF9" d="M241.646,233.688c-6.461,0.219-9.012,10.298-10.38,15.214c-1.585,5.694-3.493,12.235-5.153,18.159
			c-1.483,5.301-7.313,19.485-2.082,22.025c6.735-1.794,14.216-6.447,18.247-9.161c9.981-6.721,17.979-15.346,24.587-25.266
			c2.611-3.92,3.187-7.049,2.339-9.572c-0.451-1.34-12.37-4.73-14.14-5.486c-3.639-1.559-7.456-4.543-11.193-5.611
			C243.064,233.759,242.325,233.664,241.646,233.688z"/>
		<path fill="#ECF9D0" d="M257.467,237.116c-7.459-2.146-13.016,3.988-16.838,16.673c-1.625,5.393-8.959,25.77-7.12,31.413
			c3.479-1.825,6.616-3.828,8.77-5.277c9.981-6.721,17.979-15.346,24.588-25.266C273.465,244.749,267.088,239.884,257.467,237.116z"
			/>
		<path fill="#E8FAFF" d="M216.97,286.354c-5.1-6.852-0.136-13.965,1.803-20.572c3.823-13.032-4.248-25.033-13.18-33.688
			c-2.861-2.773-19.898-16.76-28.379-20.337c-3.381-0.376-6.51,0.049-8.945,2.053c3.84-3.161,29.134,16.927,32.678,20.27
			c8.933,8.424,17.003,20.102,13.182,32.786c-1.94,6.43-6.903,13.354-1.806,20.021c2.347,3.065,6.289,3.431,10.648,2.462
			C220.539,289.203,218.439,288.325,216.97,286.354z"/>
		<path fill="#DEF3FF" d="M280.443,239.774c4.289-0.066,9.328,1.014,11.943,1.137c5.76,0.271,22.646-3.01,24.18,5.967
			c0.918,5.377-5.395,11.703-8.525,15.203c-8.184,9.151-17.229,15.836-28.087,21.209c-3.921,1.938-11.406,4.114-14.613-0.478
			c-2.375-3.408,0.354-7.889,1.348-11.381c1.172-4.102,1.758-7.979,2.428-12.18C270.348,251.517,270.643,239.923,280.443,239.774z"
			/>
		<path opacity="0.6" fill="#B6D9F2" enable-background="new    " d="M316.566,246.878c-0.807-4.727-5.84-5.79-9.758-6.193
			c-4.328-0.447-7.566-0.004-11.399,1.81c-3.503,1.655-7.201,0.423-10.916,0.782c-5.462,0.525-14.621,2.477-14.621,9.713
			c0,0.986,0.006,1.57,0.696,2.187c1.914,1.712,5.222,3.105,7.591,3.946c2.659,0.943,5.391,1.652,8.096,2.445
			c1.998,0.584,5.1,1.363,6.188,3.381c0.922,1.715,1.146,7.381-11.741,15.713c-7.531,4.867-10.771,4.393-11.46,4.66
			c3.537,0.777,7.986-0.682,10.714-2.031c10.856-5.373,19.903-12.057,28.087-21.209
			C311.172,258.581,317.484,252.255,316.566,246.878z"/>
		<path fill="#DEF3FF" d="M217.833,144.841c8.453-9.053-3.904-13.776-10.107-18.477c-5.744-4.348-18.832-9.417-25.231-3.977
			c-5.115,4.35-6.699,18.09-0.915,22.339c2.111,1.55,4.661,1.935,6.913,3.146c1.791,0.963,3.109,2.324,4.953,3.211
			c4.124,1.983,8.932,2.057,13.233,0.721C210.184,150.716,214.821,148.065,217.833,144.841z"/>
		<path opacity="0.5" fill="#B6D9F2" enable-background="new    " d="M183.159,144.564c3.392,0.175,7.301,5.084,10.286,6.519
			c4.124,1.983,8.932,2.057,13.233,0.721c3.505-1.088,8.142-3.738,11.154-6.963c4.201-4.498,3.087-8.832-1.347-12.473
			c-2.09-1.718-4.455-3.166-6.694-4.66c-3.438-2.293-1.74,2.033-3.002,3.966c-2.132,3.27-8.476,6.173-11.767,8.13
			C191.478,141.911,187.39,144.782,183.159,144.564z"/>
		<path fill="#E8FAFF" d="M183.656,126.867c5.867-5.032,22.271-0.72,30.063,3.497c-2.087-1.396-4.276-2.699-5.993-4
			c-5.744-4.348-18.832-9.417-25.231-3.977c-4.078,3.468-5.906,12.898-3.553,18.736
			C178.689,135.655,180.531,129.547,183.656,126.867z"/>
		<path fill="#DEF3FF" d="M226.03,61.374c-5.707-0.205-11.298,0.531-15.905,2.963c-7.032,3.709-6.344,15.784-6.046,22.545
			c0.326,7.377-0.221,20.415,7.194,24.475c11.313,6.193,24.226,12.041,37.236,12.244c5.33,0.084,12.688-1.775,16.922-5.268
			c3.266-2.695,6.662-4.187,10.48-6.158c8.405-4.336,17.465-6.055,26.837-6.098c-7.003,0.031-15.112-11.973-19.27-16.498
			c-10.231-11.142-22.686-20.195-37.173-24.496C240.492,63.356,233.169,61.629,226.03,61.374z"/>
		<path opacity="0.6" fill="#B6D9F2" enable-background="new    " d="M266.865,254.659c6.601-9.91,0.224-14.775-9.397-17.543
			c-9.912-2.852-18.946-7.846-28.581-11.423c-10.389-3.857-21.346-5.642-32.074-8.207c-5.604-1.34-16.686-8.354-22.277-6.192
			c2.697,4.883,11.184,5.168,15.744,8.028c27.244,17.088,74.81,28.728,63.728,45.715c-3.859,5.919-16.389,14.464-20.523,20.174
			C247.303,278.211,258.813,266.753,266.865,254.659z"/>
		<path fill="#E8FAFF" d="M207.134,92.563c-0.297-7.295-0.987-20.326,6.043-24.328c4.611-2.624,10.203-3.418,15.908-3.198
			c4.678,0.181,15.523,1.26,24.082,2.505c-2.234-0.932-4.52-1.764-6.86-2.459c-5.814-1.727-13.138-3.454-20.277-3.709
			c-5.707-0.205-11.298,0.531-15.905,2.963c-7.032,3.709-6.344,15.784-6.046,22.545c0.276,6.258-0.071,16.586,4.341,22.057
			C207.226,103.416,207.317,97.029,207.134,92.563z"/>
		<path fill="#D0E6F9" d="M432.37,173.563c-1.59,33.305-42.928,89.356-127.989,86.919c-43.758-1.254-66.78-25.184-105.733-38.182
			c-74.167-24.746-56.44,1.198-56.44-47.926c0-29.422,13.092-9.657,55.647-30.869c32.595-16.248,58.83-46.395,116.067-47.116
			C378.313,95.578,433.514,149.614,432.37,173.563z"/>
		<path fill="#D0DEF9" d="M283.48,89.579c-7.758-8.447-16.795-15.688-27.023-20.574c-21.129,8.729-36.367,25.469-39.625,45.277
			c9.896,4.994,20.75,9.147,31.678,9.318c5.33,0.084,12.688-1.775,16.922-5.268c3.266-2.695,6.662-4.187,10.48-6.158
			c8.405-4.336,17.465-6.055,26.838-6.098C295.746,106.108,287.637,94.104,283.48,89.579z"/>
		<path fill="#ECF9D0" d="M283.48,89.579c-3.826-4.167-7.965-8.041-12.401-11.483c-20.368,7.246-36.267,22.381-42.995,41.188
			c6.631,2.5,13.514,4.209,20.426,4.316c5.33,0.084,11.596-5.501,15.831-8.994c3.266-2.693,7.754-0.46,11.572-2.432
			c8.405-4.336,17.465-6.055,26.838-6.098C295.746,106.108,287.637,94.104,283.48,89.579z"/>
		<path opacity="0.5" fill="#B6D9F2" enable-background="new    " d="M283.498,89.566c-3.812-4.474-6.359-7.083-12.449-11.399
			c2.734,4.443,13.971,16.859,3.477,20.047c-3.789,1.151-18.137,6.236-25.667,10.434c-6.239,3.477-17.262,11.705-16.024,12.172
			c1.414,0.533,2.71,1.313,4.164,1.621c2.896,0.615,5.777,0.996,8.729,0.602c1.808-0.242,3.575-0.922,5.248-1.628
			c4.236-1.786,8.633-3.251,12.805-5.188c2.656-1.234,5.392-2.289,8.168-3.199c1.898-0.623,3.82-0.825,5.642-1.681
			c1.91-0.897,3.873-1.667,5.871-2.329c3.975-1.319,8.098-2.135,12.25-2.57c2.338-0.246,4.688-0.358,7.038-0.369
			c-7.827,0.036-13.946-10.447-18.52-15.663C283.996,90.147,283.752,89.864,283.498,89.566z"/>
		<path fill="#B6D9F2" d="M143.734,186.866c0-29.422,13.094-9.656,55.648-30.868c32.594-16.247,58.833-46.395,116.064-47.117
			c56.969-0.718,106.734,41.488,116.662,67.815c0.125-1.064,0.211-2.109,0.262-3.133c1.144-23.949-54.059-77.985-118.448-77.173
			c-57.237,0.722-83.473,30.868-116.067,47.116c-42.557,21.212-55.647,1.447-55.647,30.869c0,24.504-4.41,30.33,0.375,33.085
			C143.107,202.695,143.734,196.11,143.734,186.866z"/>
		
			<radialGradient id="SVGID_1_" cx="92.4158" cy="73.8047" r="75.3564" gradientTransform="matrix(0.9623 0 0 -0.9833 230.3805 326.1891)" gradientUnits="userSpaceOnUse">
			<stop  offset="0" style="stop-color:#E7DBE6"/>
			<stop  offset="0.7017" style="stop-color:#D8E2F2;stop-opacity:0.9649"/>
			<stop  offset="1" style="stop-color:#D0E6F9;stop-opacity:0.95"/>
		</radialGradient>
		<path fill="url(#SVGID_1_)" d="M317.497,171.938c-39.635,0-72.458,29.787-78.207,68.647c19.525,9.98,38.471,19.136,65.09,19.897
			c39.237,1.125,69.166-10.201,90.186-25.996C386.461,198.651,355.031,171.938,317.497,171.938z"/>
		<path fill="#A0CDE8" d="M321.395,260.171c30.992-2.065,55.305-12.256,73.172-25.684c-0.436-1.929-0.943-3.831-1.514-5.705
			C376.038,243.565,352.393,255.591,321.395,260.171z"/>
		<path fill="#D0E6F9" d="M176.049,184.104c-0.263-6.553-1.696-12.536-4.399-18.006c-7.94-16.061-26.621-28.674-42.164-33.964
			c-16.996-5.787-29.413-4.875-48.491-1.625c-8.258,4.446,19.145,18.088,25.967,25.465c22.813,24.672,11.641,56.248-2.104,67.344
			c-26.219,21.167-21.479,20.106-21.479,20.106s19.729,10.365,56.401-5.249c10.82-4.607,18.335-11.711,27.068-20.745
			C175.722,208.249,176.593,197.624,176.049,184.104z"/>
		<path fill="#D9ECFC" d="M106.96,155.974c23.399,26.477,11.641,56.248-2.104,67.344c-26.219,21.167-21.479,20.106-21.479,20.106
			s0.217,0.112,0.639,0.296c6.089-1.965,15.947-6.793,30.254-18.459c17.855-14.559,30.207-47.621,2.104-72.109
			c-11.149-9.713-27.88-16.037-36.907-20.578C79.31,138.237,101.135,149.385,106.96,155.974z"/>
		<path fill="#B6D9F2" d="M158.719,174.277c2.988-3.683,4.663-4.917,6.927-6.135c2.926-1.573,6.004-2.517,6.004-2.517
			s-6.156-11.168-13.52-16.846c-8.934-6.889-18.23-13.104-28.646-16.646c-16.015-5.453-27.966-4.957-45.256-2.162
			c11.689-1.115,21.558-0.445,33.797,3.584c10.149,3.342,20.114,8.69,28.289,15.721c2.765,2.375,6.554,6.41,8.976,9.24
			c1.211,1.414-12.131,9.303-12.89,27.244c-0.923,21.863,8.976,18.316,9.861,31.064c0.287,4.139-11.598,13.638-23.943,19.291
			c-18.7,8.563-33.463,8.903-42.979,8.125c5.815,2.104,24.469,6.695,54.439-6.066c7.516-3.199,14.034-8.095,20.004-13.69
			c2.454-2.302,10.02-10.726,10.02-10.726s-11.703-10.54-13.699-15.887C151.638,185.917,153.485,180.727,158.719,174.277z"/>
		<path fill="#B6D9F2" d="M361.014,105.224c-15.969,18.869-25.629,43.467-25.629,70.371c0,29.215,11.396,55.705,29.885,75.098
			c44.082-17.187,65.953-53.084,67.102-77.129C433.221,155.778,402.995,121.409,361.014,105.224z"/>
		
			<radialGradient id="SVGID_2_" cx="139.97" cy="136.0957" r="21.4497" gradientTransform="matrix(0.9623 0 0 -0.9833 230.3805 326.1891)" gradientUnits="userSpaceOnUse">
			<stop  offset="0" style="stop-color:#E7DBE6"/>
			<stop  offset="0.3786" style="stop-color:#E4DBE7;stop-opacity:0.9811"/>
			<stop  offset="0.6125" style="stop-color:#DCDBE9;stop-opacity:0.9694"/>
			<stop  offset="0.8063" style="stop-color:#CDDAEC;stop-opacity:0.9597"/>
			<stop  offset="0.9784" style="stop-color:#B9D9F1;stop-opacity:0.9511"/>
			<stop  offset="1" style="stop-color:#B6D9F2;stop-opacity:0.95"/>
		</radialGradient>
		<path fill="url(#SVGID_2_)" d="M385.715,192.366c0,11.646-9.242,21.091-20.642,21.091c-11.396,0-20.641-9.444-20.641-21.091
			c0-11.648,9.244-21.092,20.641-21.092C376.473,171.274,385.715,180.718,385.715,192.366z"/>
		<path fill="#A0CDE8" d="M361.014,105.224c-1.965,2.32-3.832,4.729-5.598,7.216c36.041,17.464,65.021,47.892,65.516,64.061
			c0.764,24.981-23.963,51.794-59.104,70.405c1.119,1.291,2.267,2.555,3.441,3.787c44.082-17.187,65.9-53.314,67.047-77.359
			C433.165,155.549,402.995,121.409,361.014,105.224z"/>
		<path fill="#D6E3E8" d="M405.859,201.752c-6.717,4.994-12.264,6.917-19.16,7.832c-3.344,0.442-14.268-3.279-12.315-6.498
			c0.897-1.686,7.977,3.118,17.285-2.546c4.512-2.745,9.622-7.156,13.215-11.186c3.649-4.098,8.545-9.56,12.6-13.578
			c4.217-4.177,8.844-8.896,14.225-8.021c0.945,1.555,1.277,6.465-0.018,11.851c-0.326,1.364-2.178-5.003-13.057,8.833
			C415.186,192.823,410.411,198.367,405.859,201.752z"/>
		<path fill="#9ACEEF" d="M342.26,175.595c0-25.917,8.969-49.691,23.899-68.269c-1.694-0.729-3.412-1.433-5.146-2.103
			c-15.969,18.869-25.629,43.467-25.629,70.371c0,29.215,11.396,55.705,29.885,75.098c1.691-0.658,3.336-1.354,4.963-2.065
			C352.875,229.438,342.26,203.786,342.26,175.595z"/>
		<ellipse fill="#9ACEEF" cx="377.346" cy="170.432" rx="26.477" ry="27.056"/>
		
			<radialGradient id="SVGID_3_" cx="152.2942" cy="160.418" r="23.5579" gradientTransform="matrix(0.9623 0 0 -0.9833 230.3805 326.1891)" gradientUnits="userSpaceOnUse">
			<stop  offset="0" style="stop-color:#D0D2D3"/>
			<stop  offset="0.5552" style="stop-color:#E0E1E2;stop-opacity:0.9722"/>
			<stop  offset="1" style="stop-color:#F1F1F2;stop-opacity:0.95"/>
		</radialGradient>
		<ellipse fill="url(#SVGID_3_)" cx="376.17" cy="169.229" rx="22.655" ry="23.152"/>
		<path fill="#FFFFFF" d="M376.17,146.079c-6.132,0-11.689,2.491-15.769,6.533c3.562-2.379,7.813-3.769,12.383-3.769
			c12.515,0,22.658,10.366,22.658,23.151c0,6.522-2.645,12.41-6.889,16.618c6.182-4.134,10.271-11.27,10.271-19.384
			C398.825,156.444,388.682,146.079,376.17,146.079z"/>
		<ellipse fill="#025B87" cx="371.004" cy="168.044" rx="15.502" ry="15.84"/>
		<ellipse fill="#231F20" cx="369.825" cy="168.044" rx="11.683" ry="11.936"/>
		<path fill="#B6D9F2" d="M432.54,172.756c-5.381-1.243-8.809,2.481-12.168,6.256c-4.219,4.744-8.153,9.737-12.707,14.163
			c-4.114,4.004-8.965,7.248-14.053,9.813c-5.776,2.913-12.598,4.362-18.074,0.059c-0.901-0.709-1.778,0.858-0.891,1.558
			c8.885,6.98,20.285,0.352,28.16-5.072c5.258-3.621,9.572-8.506,13.729-13.342c2.066-2.405,4.109-4.83,6.232-7.186
			c2.539-2.819,5.512-5.504,9.682-4.338C432.502,174.683,432.54,172.756,432.54,172.756z"/>
		<path fill="#B6D9F2" d="M306.092,169.302c-2.484-6.324-5.783-13.473-11.42-18.539c-3.119-2.803-5.904-4.285-8.055-4.285
			c-1.314,0-2.343,0.573-2.894,1.614c-0.936,1.773-0.334,4.561,1.65,7.647c3.742,5.819,6.146,10.943,7.182,19.474
			c-2.406-0.147-4.883-0.22-7.537-0.22c-4.83,0-9.955,0.231-16.516,0.746c-0.773-7.3-3.469-23.214-12.54-30.643
			c-4.044-3.312-7.09-4.99-9.051-4.99c-1.224,0-1.852,0.615-2.162,1.133c-0.947,1.566-0.347,4.563,1.785,8.91
			c3.893,7.93,6.296,14.936,6.961,26.916c-1.532,0.125-4.399,0.346-7.623,0.594c-5.111,0.393-10.853,0.836-13.896,1.097
			c-1.137-3.218-5.934-14.356-10.842-17.837c-2.923-2.071-5.569-3.166-7.654-3.166c-1.559,0-2.713,0.628-3.25,1.77
			c-0.733,1.561-0.122,3.771,1.679,6.07c3.327,4.25,5.594,8.219,6.479,14.557c-13.112,1.324-27.305,2.951-44.559,5.107
			c-0.494,0.063-1.304,0.1-2.244,0.143c-3.896,0.182-9.789,0.457-11.578,2.979c-0.548,0.771-0.692,1.701-0.424,2.691
			c0.5,1.846,3.231,2.667,8.854,2.667c3.562,0,7.683-0.335,10.689-0.579c1.485-0.121,2.77-0.227,3.633-0.263
			c11.313-0.485,22.969-0.817,34.242-1.137l1.599-0.046c-0.447,3.983-1.48,6.967-2.573,10.112c-0.685,1.979-1.395,4.024-1.977,6.388
			c-0.793,3.219-0.736,5.363,0.175,6.558c0.485,0.636,1.188,0.971,2.034,0.971c3.036,0,7.619-4.48,9.994-8.665
			c2.772-4.887,4.308-10.452,5.518-15.791l1.26-0.039c6.585-0.205,14.029-0.438,20.478-0.723c-0.423,6.24-1.488,10.723-2.612,15.455
			c-0.681,2.868-1.386,5.835-1.96,9.281c-0.867,5.203-0.681,8.469,0.568,9.98c0.5,0.604,1.167,0.925,1.93,0.925
			c3.258,0,7.569-5.922,9.853-11.646c3.635-9.111,5.901-17.13,6.922-24.485c7.719-0.258,16.51-0.694,24.86-2.297
			c-0.258,5.443-1.266,9.336-2.327,13.439c-0.625,2.415-1.271,4.909-1.781,7.797c-0.728,4.127-0.545,6.787,0.555,8.129
			c0.5,0.612,1.185,0.936,1.976,0.936c3.19,0,7.538-5.338,9.735-10.283C308.359,191.712,309.95,179.134,306.092,169.302z"/>
		<path fill="#EFEFE6" d="M305.271,168.437c-2.684-6.834-5.881-13.434-11.184-18.199c-8.523-7.662-12.603-3.388-7.978,3.805
			c4.177,6.491,6.509,12.021,7.443,20.938c-8.502-0.601-17.205-0.172-25.842,0.524c-0.256-2.677-2.047-22.511-12.299-30.906
			c-10.058-8.232-12.56-5.167-8.088,3.943c4.293,8.746,6.52,16.002,7.101,28.147c-2.483,0.224-19.409,1.392-24.247,1.823
			c-0.275-1.287-4.396-14.404-9.547-18.056c-8.283-5.874-12.447-2.268-8.034,3.371c3.852,4.916,6.008,9.181,6.782,15.925
			c-15.205,1.525-30.404,3.317-45.443,5.196c-2.944,0.368-14.811-0.14-13.503,4.678c0.958,3.532,17.515,1.369,22.291,1.163
			c12.173-0.521,24.519-0.859,36.854-1.211c-0.607,7.275-3.107,11.301-4.673,17.65c-2.836,11.508,6.5,5.387,10.585-1.809
			c2.786-4.91,4.313-10.563,5.574-16.219c7.243-0.227,15.643-0.477,22.805-0.801c0.191-0.009,0.387-0.016,0.58-0.024
			c-0.597,10.813-3.095,16.515-4.646,25.831c-2.816,16.924,6.571,9.025,10.665-1.232c2.965-7.435,5.832-16.146,6.965-25.023
			c8.955-0.288,18.008-0.765,26.56-2.522c-0.259,9.534-2.75,14.461-4.164,22.499c-2.484,14.127,6.715,6.977,10.594-1.75
			C305.404,194.974,310.004,180.485,305.271,168.437z"/>
		<ellipse fill="#FFFFFF" cx="380.258" cy="163.485" rx="4.594" ry="4.695"/>
		<ellipse fill="#FFFFFF" cx="376.989" cy="178.507" rx="2.553" ry="2.607"/>
		<path fill="#75AFE6" d="M370.064,122.122c-2.354,3.82-3.373,7.318-5.938,9.836c-5.554,5.44-11.89,8.802-13.279,9.576
			c-3.842,2.139,8.328-0.592,11.619-2.239c4.364-2.187,6.83-3.392,10.274-5.454c4.933-2.953,7.664-8.153,6.929-11.5
			C378.135,115.362,372.663,117.904,370.064,122.122z"/>
		<path fill="#75AFE6" d="M368.797,120.563c-2.103,3.971-2.892,7.531-5.291,10.215c-5.189,5.803-11.293,9.586-12.631,10.451
			c-3.695,2.393,8.271-1.15,11.448-3.019c4.211-2.475,6.701-3.692,9.9-6.134c2.799-2.137,7.149-6.311,6.742-10.386
			C378.355,115.7,371.118,116.181,368.797,120.563z"/>
		<path opacity="0.61" fill="#FFFFFF" enable-background="new    " d="M305.766,178.278c0.291-4.391-24.367-3.537-63.036-0.092
			c-38.704,3.451-81.59,8.586-81.535,9.495c0.054,0.909,36.652-3.362,75.373-6.606C294.85,176.194,305.704,179.187,305.766,178.278z
			"/>
	</g>
</g>
</svg>
