<?xml version="1.0" encoding="utf-8"?>
<!-- Generator: Adobe Illustrator 15.1.0, SVG Export Plug-In . SVG Version: 6.00 Build 0)  -->
<!DOCTYPE svg PUBLIC "-//W3C//DTD SVG 1.1//EN" "http://www.w3.org/Graphics/SVG/1.1/DTD/svg11.dtd">
<svg version="1.1" id="Layer_1" xmlns="http://www.w3.org/2000/svg" xmlns:xlink="http://www.w3.org/1999/xlink" x="0px" y="0px"
	 width="512px" height="512px" viewBox="0 0 512 512" enable-background="new 0 0 512 512" xml:space="preserve">
<g>
	<g>
		<g>
			<path fill="#5B3432" d="M167.495,319.717c0.384,6.52,0.222,15.443-1.685,22.746c-4.549,17.428-14.242,27.961-23.088,39.375
				c-5.313,6.861-5.289,13.701-2.002,22.988c0.76,2.145,0.361,6.291,0.271,7.268c-0.144,1.533-0.73,2.309-2.184,2.312
				c-12.731,0.012-25.468-0.078-38.204-0.078c-1.654,0-2.299-0.757-2.484-2.231c-0.1-0.793-0.524-4.798,0.214-7.039
				c2.428-7.349,5.338-16.8-0.517-23.525c-3.014-4.822-16.178-11.479-22.213-35.82c-0.912-3.682-2.662-15.916-2.662-22.832
				c0-5.98,42.912,20.041,47.178,20.213C124.679,343.273,167.162,314.127,167.495,319.717z"/>
		</g>
		<g>
			<path fill="#78504B" d="M168.491,302.182c0,2.773-0.125,6.955-0.378,12.549c-0.251,5.597-0.396,14.453-2.303,21.754
				c-4.549,17.429-14.242,27.961-23.088,39.375c-7.087,9.148-1.729,27.591-1.729,30.259c0,1.536-0.73,2.307-2.184,2.309
				c-12.731,0.015-25.468-0.075-38.204-0.075c-1.654,0-2.484-0.744-2.484-2.232c0-2.668,7.501-21.598-0.303-30.564
				c-3.014-4.824-16.178-11.479-22.213-35.822c-0.912-3.682-2.725-16.35-3.326-22.768c-0.554-5.953-0.831-10.547-0.831-13.779
				c0-1.896,0.577-2.848,1.729-2.85c13.086-0.027,26.178-0.076,39.259-0.076c0.753,0,1.13,0.564,1.13,1.693
				c-0.201,7.592-0.301,15.082-0.301,22.471c0,4.207,2.59,12.518,6.854,12.689c4.558,0.186,6.464-9.227,6.403-12.141
				c-0.153-7.685-0.979-15.334-0.979-23.021c0-1.129,0.376-1.692,1.132-1.692c13.311,0,26.619,0.075,39.928,0.075
				C167.863,300.334,168.491,300.951,168.491,302.182z"/>
		</g>
		<g>
			<path fill="#AA807D" d="M166.606,307.063c0.945,0,1.804-0.143,1.804-0.143s0.258-3.359,0.258-4.639
				c0-1.23-0.805-1.947-2.062-1.947c-13.309,0-26.617-0.076-39.928-0.076c-0.756,0-1.202,0.713-1.202,1.84
				c0,1.635,0.106,3.117,0.167,4.75C125.655,307.143,153.298,307.063,166.606,307.063z"/>
			<path fill="#AA807D" d="M113.448,307.01c0.197-1.697,0.112-3.316,0.158-5.008c0-1.127-0.416-1.744-1.169-1.744
				c-13.081,0-26.173,0.049-39.259,0.076c-1.152,0.002-1.748,0.916-1.801,2.84c-0.032,1.09,0.034,2.768,0.194,4.252
				C71.628,307.91,113.421,307.248,113.448,307.01z"/>
		</g>
		<ellipse fill="#AA807D" cx="87.624" cy="324.682" rx="6.63" ry="6.775"/>
		<ellipse fill="#AA807D" cx="151.972" cy="342.217" rx="6.63" ry="6.775"/>
		<ellipse fill="#AA807D" cx="126.233" cy="394.82" rx="6.63" ry="6.775"/>
		<ellipse fill="#AA807D" cx="111.802" cy="381.271" rx="3.315" ry="3.387"/>
		<ellipse fill="#AA807D" cx="140.078" cy="319.303" rx="3.706" ry="3.785"/>
		<ellipse fill="#AA807D" cx="131.301" cy="364.533" rx="4.68" ry="4.783"/>
		<ellipse fill="#AA807D" cx="96.789" cy="347.996" rx="4.875" ry="4.98"/>
	</g>
	<g>
		<g>
			<path fill="#8F5B43" d="M198.348,157.114c5.76,4.477,12.632,5.694,20.039,1.352c6.799-3.983,30.313-18.709,26.854-29.762
				c-2.253-7.188-12.964-3.434-25.767-9.157c-16.043-7.172-26.697-33.233-33.51-22.751
				C175.98,112.164,183.445,145.54,198.348,157.114z"/>
			<path fill="#917B78" d="M198.348,157.114c5.76,4.477,12.632,5.694,20.039,1.352c6.799-3.983,30.313-18.709,26.854-29.762
				c-2.253-7.188-12.964-3.434-25.767-9.157c-16.043-7.172-26.697-33.233-33.51-22.751
				C175.98,112.164,183.445,145.54,198.348,157.114z"/>
			<g>
				<path fill="#5A4A42" d="M181.881,108.584c-0.343,2.376-0.491,4.877-0.464,7.439c1.4-0.96,2.819-1.878,4.254-2.759
					c5.226-3.22,10.718-6.229,16.434-8.524c-1.652-1.857-3.213-3.632-4.684-5.172c-4.494,2.104-8.861,4.567-12.971,7.293
					C183.598,107.424,182.737,107.999,181.881,108.584z"/>
				<path fill="#5A4A42" d="M209.723,112.728c-1.843-1.711-3.595-3.546-5.263-5.368c-5.742,2.401-11.339,5.43-16.524,8.867
					c-2.09,1.384-4.22,2.823-6.29,4.36c0.303,3.368,0.887,6.787,1.718,10.138c3.144-2.917,6.507-5.615,9.95-8.076
					C198.489,118.95,203.966,115.456,209.723,112.728z"/>
				<path fill="#5A4A42" d="M194.803,97.021c-3.483-3.051-6.404-3.968-8.838-0.226c-1.262,1.942-2.24,4.172-2.966,6.606
					C186.8,101.09,190.74,98.899,194.803,97.021z"/>
				<path fill="#5A4A42" d="M199.808,132.767c5.834-4.861,12.118-9.474,18.89-12.87c0.249-0.124,0.5-0.241,0.752-0.362
					c-2.469-1.105-4.806-2.658-7.021-4.454c-5.84,2.861-11.488,6.407-16.66,10.366c-3.829,2.933-7.788,6.08-11.148,9.684
					c1.003,3.123,2.224,6.135,3.636,8.933C191.768,139.968,195.704,136.185,199.808,132.767z"/>
				<path fill="#5A4A42" d="M245.24,128.704c-2.01-6.41-10.748-4.122-21.693-7.612c-1.423,0.614-2.83,1.305-4.227,2.098
					c-5.981,3.403-11.701,7.586-16.866,12.183c-4.251,3.788-8.669,7.885-12.011,12.604c2.29,3.695,4.95,6.848,7.903,9.138
					c5.76,4.477,12.632,5.694,20.039,1.352C225.186,154.482,248.699,139.757,245.24,128.704z"/>
			</g>
			<path opacity="0.5" fill="#6D3119" enable-background="new    " d="M243.574,126.048c-6.65,7.307-17.318,13.926-21.542,16.4
				c-7.406,4.341-14.278,3.124-20.04-1.354c-10.45-8.117-17.239-26.954-16.925-42.784c-8.605,15.947-1.149,47.596,13.279,58.803
				c5.76,4.477,12.632,5.694,20.039,1.352c6.799-3.983,30.313-18.709,26.854-29.762
				C244.885,127.575,244.319,126.717,243.574,126.048z"/>
			<path opacity="0.4" fill="#8C7F79" d="M245.24,128.704c-2.253-7.188-12.964-3.434-25.767-9.157
				c-16.043-7.172-26.697-33.233-33.51-22.751c-0.198,0.305-0.386,0.618-0.569,0.938c6.755,0.9,16.254,19.314,29.341,25.165
				c12.804,5.725,23.513,1.969,25.765,9.159c2.224,7.1-6.687,15.714-15.145,22.023C234.721,147.784,247.891,137.169,245.24,128.704z
				"/>
		</g>
		<g>
			<path fill="#8F5B43" d="M333.532,152.967c-5.286,5.051-12.004,6.973-19.803,3.42c-7.157-3.258-32.015-15.47-29.668-26.824
				c1.526-7.386,12.558-4.76,24.723-11.779c15.253-8.8,23.261-35.831,31.08-26.108C351.323,105.93,347.209,139.907,333.532,152.967z
				"/>
			<path fill="#917B78" d="M333.532,152.967c-5.286,5.051-12.004,6.973-19.803,3.42c-7.157-3.258-32.015-15.47-29.668-26.824
				c1.526-7.386,12.558-4.76,24.723-11.779c15.253-8.8,23.261-35.831,31.08-26.108C351.323,105.93,347.209,139.907,333.532,152.967z
				"/>
			<g>
				<path fill="#5A4A42" d="M345.098,102.979c0.578,2.328,0.974,4.798,1.2,7.353c-1.49-0.809-2.994-1.575-4.511-2.303
					c-5.516-2.66-11.28-5.087-17.188-6.779c1.457-2.018,2.832-3.944,4.143-5.63c4.679,1.627,9.269,3.626,13.627,5.91
					C343.274,102.003,344.188,102.485,345.098,102.979z"/>
				<path fill="#5A4A42" d="M317.809,109.988c1.667-1.896,3.228-3.9,4.705-5.887c5.951,1.793,11.818,4.227,17.318,7.107
					c2.22,1.161,4.479,2.373,6.688,3.688c0.034,3.38-0.206,6.843-0.701,10.265c-3.417-2.58-7.029-4.913-10.701-7.005
					C329.603,115.015,323.811,112.105,317.809,109.988z"/>
				<path fill="#5A4A42" d="M331.097,92.817c3.158-3.397,5.977-4.613,8.769-1.143c1.444,1.802,2.643,3.917,3.607,6.265
					C339.46,96.033,335.322,94.262,331.097,92.817z"/>
				<path fill="#5A4A42" d="M329.664,128.896c-6.285-4.232-12.997-8.168-20.071-10.846c-0.258-0.098-0.521-0.188-0.78-0.283
					c2.343-1.356,4.515-3.142,6.54-5.158c6.095,2.241,12.064,5.182,17.604,8.587c4.1,2.52,8.354,5.238,12.054,8.478
					c-0.689,3.209-1.605,6.332-2.73,9.264C338.375,135.227,334.082,131.87,329.664,128.896z"/>
				<path fill="#5A4A42" d="M284.063,129.563c1.363-6.586,10.282-5.215,20.827-9.82c1.477,0.462,2.942,1.003,4.411,1.648
					c6.286,2.764,12.396,6.333,17.987,10.372c4.605,3.326,9.406,6.946,13.199,11.294c-1.914,3.913-4.246,7.322-6.955,9.91
					c-5.286,5.051-12.004,6.973-19.803,3.42C306.573,153.129,281.716,140.917,284.063,129.563z"/>
			</g>
			<path opacity="0.5" fill="#6D3119" enable-background="new    " d="M285.456,126.746c7.347,6.581,18.611,12.06,23.057,14.084
				c7.802,3.553,14.519,1.631,19.804-3.42c9.592-9.158,14.479-28.604,12.59-44.32c10.146,14.974,5.87,47.231-7.373,59.877
				c-5.286,5.051-12.004,6.973-19.803,3.42c-7.157-3.258-32.015-15.47-29.668-26.824
				C284.304,128.404,284.78,127.489,285.456,126.746z"/>
			<path opacity="0.4" fill="#8C7F79" d="M284.063,129.563c1.526-7.386,12.558-4.76,24.723-11.779
				c15.253-8.8,23.261-35.831,31.08-26.108c0.227,0.284,0.444,0.576,0.66,0.874c-6.631,1.596-14.254,20.901-26.691,28.079
				c-12.169,7.019-23.194,4.395-24.725,11.779c-1.506,7.294,8.214,14.942,17.251,20.342
				C296.419,147.454,282.267,138.257,284.063,129.563z"/>
		</g>
		<g>
			<path fill="#5A4A42" d="M413.697,332.105c-2.902-4.981-7.704-2.168-12.948-3.168c-1.448-0.274-2.944-0.348-4.406-0.146
				c-3.229,0.44-5.469,2.767-8.279,4.237c-2.363,1.232-4.426,2.433-5.218,5.382c-0.438,1.629-0.3,3.317,0.121,4.938
				c1.103,4.229,3.687,8.573,3.071,13.131c-0.171,1.295-0.604,2.49-1.273,3.563c-0.333,0.531-1.1,1.271-1.081,1.97
				c0.053,2.163,6.26,2.952,7.889,3.036c4.596,0.24,8.878,0.64,12.976-2.551c0.842-0.656,1.582-1.416,2.22-2.261
				c2.817-3.729,5.478-9.127,6.621-13.801C414.622,341.393,415.304,334.864,413.697,332.105z"/>
			<path fill="#B2897F" d="M393.31,360.63c-2.587-0.243-5.65-0.692-8.025-1.545c-0.05,0.086-0.313,0.625-0.364,0.709
				c-0.333,0.531-1.037,1.354-1.021,2.06c0.051,2.16,6.398,2.746,8.028,2.83c4.594,0.239,8.881,0.637,12.975-2.554
				c0.487-0.379,1.43-1.348,1.43-1.348c0.294-0.343,0.306-0.351,0.43-0.531C401.479,361.042,397.536,361.029,393.31,360.63z"/>
			<path fill="#684C41" d="M392.53,361.389c-2.584-0.244-5.243-0.746-7.617-1.599c-0.049,0.086-0.099,0.17-0.148,0.254
				c-0.333,0.531-1.238,1.478-1.225,2.177c0.055,2.159,6.402,2.745,8.031,2.829c4.596,0.24,8.878,0.64,12.976-2.551
				c0.663-0.517,1.26-1.099,1.797-1.731C402.51,361.341,398.272,361.934,392.53,361.389z"/>
			<path fill="#8E6457" d="M392.94,361.359c-0.876-0.08-3.253-0.362-3.253-0.362s-0.753,0.535-0.978,1.246
				c-0.334,1.073-1.13,2.729,0.286,3.125c1.562,0.434,3.623,0.516,5.216,0.397c3.877-0.289,7.311-0.914,10.334-3.268
				c0.662-0.516,1.26-1.098,1.797-1.732C402.51,361.341,398.685,361.904,392.94,361.359z"/>
			<path opacity="0.5" fill="#8E6457" enable-background="new    " d="M404.706,361.857c-3.065,2.386-6.548,3.021-10.479,3.312
				c-1.612,0.117-3.704,0.037-5.288-0.401c-0.416-0.117-0.641-0.345-0.747-0.632c-0.039,0.564,0.127,1.046,0.806,1.232
				c1.562,0.434,3.623,0.516,5.216,0.397c3.877-0.289,7.311-0.914,10.334-3.268c0.663-0.516,1.26-1.098,1.797-1.732
				c-0.166,0.025-0.331,0.049-0.491,0.074C405.492,361.202,405.113,361.544,404.706,361.857z"/>
			<path opacity="0.4" fill="#5A4A42" enable-background="new    " d="M400.748,328.938c-1.448-0.274-2.944-0.348-4.406-0.146
				c-3.229,0.44-5.469,2.767-8.279,4.237c-2.363,1.232-4.426,2.433-5.218,5.382c-0.438,1.629-0.3,3.317,0.121,4.938
				c0.836,3.205,2.521,6.475,3.021,9.854c0.581,0.023,1.164,0.037,1.75,0.037c10.317,0,19.618-3.572,26.188-9.295
				c0.854-4.529,1.121-9.519-0.229-11.838C410.794,327.124,405.992,329.938,400.748,328.938z"/>
		</g>
		<g>
			<path fill="#5A4A42" d="M316.533,349.854c-3.178-6.864-10.692-11.987-18.646-8.604c-4.212,1.793-6.264,4.871-4.986,9.465
				c1.05,3.785,3.514,7.674,2.932,11.756c-0.167,1.16-0.579,2.23-1.222,3.191c-0.313,0.475-1.046,1.135-1.026,1.764
				c0.05,1.936,5.97,2.643,7.521,2.719c4.385,0.215,8.468,0.57,12.377-2.285c3.461-2.528,5.118-6.815,4.771-11.088
				C318.067,354.516,317.485,351.911,316.533,349.854z"/>
			<path opacity="0.4" fill="#5A4A42" enable-background="new    " d="M316.533,349.854c-3.178-6.864-10.692-11.987-18.646-8.604
				c-4.212,1.793-6.264,4.871-4.986,9.465c0.79,2.848,2.38,5.756,2.868,8.758c5.288,0.854,11.038,1.324,17.054,1.324
				c1.752,0,3.481-0.041,5.184-0.117c0.271-1.271,0.354-2.59,0.247-3.908C318.067,354.516,317.485,351.911,316.533,349.854z"/>
			<path fill="#B2897F" d="M302.764,366.188c-2.467-0.221-5.388-0.621-7.656-1.385c-0.046,0.076-0.295,0.563-0.345,0.635
				c-0.321,0.478-0.992,1.217-0.977,1.842c0.051,1.937,6.103,2.462,7.656,2.535c4.383,0.213,8.469,0.57,12.376-2.285
				c0.467-0.34,1.361-1.206,1.361-1.206c0.281-0.308,0.291-0.313,0.41-0.478C310.556,366.557,306.796,366.546,302.764,366.188z"/>
			<path fill="#684C41" d="M302.021,366.866c-2.468-0.22-5-0.668-7.266-1.433c-0.046,0.076-0.093,0.154-0.146,0.229
				c-0.313,0.476-1.182,1.319-1.163,1.948c0.051,1.935,6.105,2.457,7.657,2.533c4.385,0.215,8.468,0.57,12.377-2.285
				c0.631-0.461,1.199-0.981,1.711-1.551C311.538,366.825,307.498,367.354,302.021,366.866z"/>
			<path fill="#8E6457" d="M302.411,366.843c-0.833-0.073-3.102-0.327-3.102-0.327s-0.719,0.479-0.933,1.114
				c-0.321,0.965-1.076,2.447,0.271,2.8c1.492,0.389,3.457,0.461,4.973,0.354c3.7-0.255,6.974-0.816,9.859-2.925
				c0.631-0.461,1.199-0.981,1.711-1.551C311.538,366.825,307.889,367.329,302.411,366.843z"/>
			<path opacity="0.5" fill="#8E6457" enable-background="new    " d="M313.635,367.288c-2.924,2.135-6.246,2.703-9.995,2.961
				c-1.537,0.106-3.533,0.037-5.042-0.358c-0.398-0.103-0.613-0.308-0.712-0.564c-0.043,0.506,0.118,0.936,0.764,1.104
				c1.492,0.389,3.457,0.461,4.973,0.355c3.7-0.254,6.974-0.816,9.859-2.924c0.631-0.461,1.199-0.982,1.711-1.551
				c-0.155,0.021-0.312,0.043-0.469,0.065C314.383,366.7,314.024,367.007,313.635,367.288z"/>
		</g>
		<g>
			<path fill="#5A4A42" d="M371.165,341.427c-3.767-7.721-12.272-13.293-20.956-9.139c-4.598,2.2-6.779,5.808-5.161,10.998
				c1.299,4.172,4.224,8.696,3.646,13.26c-0.168,1.315-0.503,2.578-1.195,3.688c-0.557,0.896-1.702,2.5-0.488,3.308
				c0.998,0.664,10.047,1.231,15.903,0.869c1.368-0.086,3.016-0.257,4.215-1.048C374.588,358.445,374.529,348.323,371.165,341.427z"
				/>
			<path fill="#876259" d="M370.937,358.813c-1.38,0.795-3.265,0.976-4.836,1.066c-2.257,0.133-4.517,0.154-6.773,0.127
				c-3.367-0.045-7.167,0.168-10.449-0.725c-0.264-0.072-0.519-0.154-0.76-0.246c-0.078,0.152-0.229,0.561-0.324,0.709
				c-0.559,0.893-1.632,2.244-0.42,3.051c1,0.666,10.048,1.234,15.903,0.871c1.371-0.086,1.944-0.84,3.144-1.629
				c1.458-0.961,3.809-1.52,4.741-2.816c0.177-0.244,0.28-0.51,0.437-0.766C371.406,358.579,371.14,358.695,370.937,358.813z"/>
			<path fill="#684C41" d="M370.573,359.559c-1.377,0.797-3.266,0.977-4.838,1.067c-2.252,0.131-4.515,0.151-6.773,0.125
				c-3.367-0.045-7.166,0.17-10.449-0.724c-0.265-0.071-0.514-0.153-0.753-0.245c-0.082,0.151-0.168,0.303-0.259,0.452
				c-0.558,0.896-1.644,2.412-0.489,3.308c1.59,1.231,7.06,2.276,15.294,1.465c1.762-0.174,3.625-0.852,4.824-1.643
				c1.73-1.144,3.056-2.568,4.029-4.166C370.967,359.318,370.775,359.441,370.573,359.559z"/>
			<path opacity="0.4" fill="#5A4A42" enable-background="new    " d="M350.209,332.288c-4.598,2.2-6.779,5.808-5.161,10.998
				c1.299,4.172,4.224,8.696,3.646,13.26c-0.028,0.222-0.062,0.438-0.102,0.656c3.02,0.33,6.17,0.506,9.413,0.506
				c5.09,0,9.954-0.433,14.423-1.215c1.69-4.861,0.898-10.632-1.265-15.066C367.399,333.706,358.893,328.134,350.209,332.288z"/>
		</g>
		<path fill="#78504B" d="M233.591,150.304c-18.106-32.712-48.444,3.633-61.449,20.743c-6.905,9.084-13.207,18.827-18.313,29.089
			c-8.634,17.351-16.29,41.605-2.213,58.323C194.513,309.409,257.159,192.872,233.591,150.304z"/>
		<path opacity="0.4" fill="#78504B" enable-background="new    " d="M154.053,259.214c-23.921-28.409,13.044-81.143,34.271-103.804
			c8.319-11.263,21.341-19.744,32.835-17.035c-12.048-4.665-26.36,4.21-35.274,16.277c-21.228,22.662-58.189,75.396-34.268,103.807
			c5.51,6.546,11.351,10.322,17.291,11.85C163.809,268.449,158.809,264.863,154.053,259.214z"/>
		<path opacity="0.29" fill="#9E6964" enable-background="new    " d="M235.999,155.779c-6.143-11.198-18.033-15.675-29.29-9.088
			c-11.348,6.642-19.847,9.839-24.82,22.198c-5.551,13.789-9.601,31.669-16.656,43.452c-8.564,14.306-15.601,32.597-1.883,46.562
			C202.863,299.124,257.674,195.32,235.999,155.779z"/>
		<path fill="#5B3432" d="M237.522,153.44c-16.452-30.007-43.511,1.742-54.159,18.459c-2.225,3.493-3.964,7.144-5.039,11.191
			c-1.802,6.779-2.896,13.897-5.122,20.553c-2.324,6.94-6.973,12.763-10.025,19.379c-3.572,7.734-6.105,17.011-3.376,25.393
			c4.892,15.004,21.276,22.021,34.979,15.188c12.817-6.391,23.713-19.641,30.945-31.979
			C237.802,211.02,250.19,176.553,237.522,153.44z"/>
		<path opacity="0.29" fill="#5B3432" enable-background="new    " d="M239.585,156.267c-4.141-9.363-12.192-15.365-22.484-13.533
			c-7.419,1.319-19.191,8.829-23.739,14.854c-2.935,3.888-5.555,9.182-7.603,13.633c-5.037,10.937-6.942,23.083-11.11,34.356
			c-2.882,7.797-7.926,14.528-10.021,22.681c-3.935,15.299,1.653,42.457,23.104,34.012c13.311-5.242,25.276-17.484,33.521-29.144
			C235.024,213.657,250.264,180.406,239.585,156.267z"/>
		<path fill="#5A4A42" d="M284.146,342.343c-3.174-6.864-10.692-11.989-18.646-8.604c-4.154,1.77-6.234,4.783-5.015,9.332
			c1.022,3.815,3.374,7.543,2.968,11.633c-0.112,1.123-0.451,2.191-1.021,3.162c-0.322,0.549-0.919,1.045-1.003,1.717
			c-0.052,0.404,0.118,0.752,0.46,1.047c0.512,0.445,1.407,0.777,2.521,1.023c4.058,0.904,10.986,0.645,12.462,0.496
			c0.992-0.099,2.125-0.201,3.007-0.726C286.749,357.335,286.985,348.477,284.146,342.343z"/>
		<path opacity="0.4" fill="#5A4A42" enable-background="new    " d="M265.501,333.736c-4.154,1.771-6.234,4.783-5.015,9.332
			c0.65,2.429,1.838,4.82,2.513,7.293c2.26,1.039,4.676,1.979,7.225,2.775c5.105,1.6,10.088,2.443,14.564,2.602
			c1.751-4.239,1.208-9.396-0.643-13.396C280.973,335.479,273.453,330.354,265.501,333.736z"/>
		<path fill="#EDCBAE" d="M440.626,267.084c0.199,22.964-7.283,45.921-19.951,62.78c-12.366,16.459-26.641,19.961-44.014,23.256
			c-30.582,5.797-68.247,6.047-98.508-2.006c-26.653-7.093-52.196-48.548-52.49-82.071c-0.514-58.873,47.189-107.039,106.552-107.58
			C391.574,160.922,440.113,208.211,440.626,267.084z"/>
		<path opacity="0.2" fill="#EDCBAE" enable-background="new    " d="M423.505,303.091c-13.522,16.47-29.12,19.984-48.103,23.293
			c-33.411,5.822-74.563,6.105-107.613-1.922c-13.433-3.264-26.604-13.846-36.92-27.588c8.851,25.435,27.771,49.047,47.284,54.239
			c30.261,8.054,67.926,7.804,98.508,2.007c17.373-3.295,31.646-6.797,44.014-23.257c11.888-15.815,19.208-37.002,19.901-58.523
			C436.827,283.063,430.994,293.966,423.505,303.091z"/>
		<path opacity="0.6" fill="#FCE2D2" enable-background="new    " d="M331.267,171.141c86.029-6.464,107.577,88.121,107.049,84.076
			c-6.851-52.76-52.542-93.287-107.521-92.785c-59.359,0.54-107.064,48.708-106.552,107.58c0.022,2.494,0.188,5.032,0.479,7.598
			C224.814,219.243,272.439,175.561,331.267,171.141z"/>
		<path opacity="0.5" fill="#DBA77F" enable-background="new    " d="M384.948,240.354c1.499,31.428-29.277,34.812-29.277,34.812
			s-7.573,15.968-17.044,22.741c-14.633,10.467-28.015,13.829-52.172,14.104c-35.892,0.408-53.22-9.279-53.22-9.279
			s-20.548-51.042-20.548-77.396c0-38.884,17.982-42.236,72.381-42.236C339.466,183.1,383.098,201.517,384.948,240.354z"/>
		<path fill="#DBA77F" d="M419.944,323.157c-12.659,16.225-26.641,19.963-44.013,23.258c-23.51,4.455-51.203,5.635-76.505,2.283
			c-7.61-1.009-15.006-2.427-22.001-4.287c-23.9-6.361-46.901-40.345-51.612-71.466c2.115,32.759,26.71,71.349,52.341,78.169
			c30.261,8.053,67.926,7.803,98.508,2.006c17.373-3.295,31.646-6.797,44.014-23.256c12.668-16.859,20.15-39.816,19.95-62.78
			C440.582,262.327,439.82,297.689,419.944,323.157z"/>
		<path fill="#78504B" d="M381.864,244.61c-4.575,21.21-29.484,27.158-46.042,21.625c-34.42-11.5-59.711-60.126-46.739-96.688
			C315.032,96.419,391.287,200.936,381.864,244.61z"/>
		<path opacity="0.29" fill="#9E6964" enable-background="new    " d="M374.976,246.328c-3.872,20.344-30.31,21.372-46.083,15.645
			c-34.913-12.681-61.456-57.966-47.229-95.785c6.159-16.379,5.847-16.097,24.62-19.879c11.424-2.304,29.351,7.102,35.282,15.844
			c8.645,12.734,8.17,29.345,16.555,42.339c7.508,11.626,17.499,21.614,17.332,36.859
			C375.433,243.125,375.271,244.783,374.976,246.328z"/>
		<path fill="#5B3432" d="M372.673,245.681c-3.72,19.517-29.551,20.415-44.981,14.862c-34.155-12.289-60.234-55.85-46.46-92.104
			c5.968-15.703,9.373-19.106,27.708-22.674c11.154-2.172,24.987,10.589,30.814,18.999c8.484,12.255,8.076,28.198,16.313,40.7
			c7.372,11.186,17.166,20.808,17.055,35.441C373.109,242.609,372.955,244.2,372.673,245.681z"/>
		<path opacity="0.29" fill="#5B3432" enable-background="new    " d="M367.678,245.608c-0.661,5.273-3.907,10.32-10.586,15.044
			c-9.144,6.467-20.853,3.893-30.462,0.435c-34.155-12.29-60.236-55.851-46.46-92.106c6.172-16.24,15.185-23.158,32.417-22.021
			c14.681,0.968,23.813,13.909,29.729,26.309c4.705,9.86,2.006,17.65,5.781,26.908C353.945,214.521,370.822,220.497,367.678,245.608
			z"/>
		<ellipse fill="#EDCBAE" cx="260.767" cy="190.996" rx="80.387" ry="71.993"/>
		<path opacity="0.17" fill="#EDCBAE" enable-background="new    " d="M340.558,199.79c-20.175-11.563-48.577-17.996-78.159-17.996
			c-32.142,0-61.796,6.793-81.177,19.632c5.645,34.817,39.104,61.563,79.545,61.563C301.84,262.989,335.713,235.401,340.558,199.79z
			"/>
		<path opacity="0.6" fill="#FCE2D2" enable-background="new    " d="M238.149,127.586c35.099-11.842,71.591-0.721,90.64,25.036
			c-14.236-20.199-39.377-33.618-68.021-33.618c-44.397,0-80.387,32.232-80.387,71.992c0,1.198,0.033,2.39,0.099,3.573
			C184.222,165.358,206.063,138.41,238.149,127.586z"/>
		<g>
			<g>
				<ellipse opacity="0.6" fill="#EDCBAE" enable-background="new    " cx="227.033" cy="174.564" rx="25.355" ry="26.474"/>
				<ellipse fill="#5A4A42" cx="227.032" cy="174.564" rx="22.858" ry="23.866"/>
				
					<radialGradient id="SVGID_1_" cx="449.4797" cy="152.7827" r="21.12" gradientTransform="matrix(0.9623 0 0 -0.9833 -205.5018 326.1891)" gradientUnits="userSpaceOnUse">
					<stop  offset="0" style="stop-color:#D2D4D6"/>
					<stop  offset="0.6009" style="stop-color:#E0E3E7"/>
					<stop  offset="1" style="stop-color:#EBF0F5"/>
				</radialGradient>
				<path fill="url(#SVGID_1_)" d="M247.806,174.564c0,11.979-9.299,21.691-20.771,21.691c-11.475,0-20.775-9.712-20.775-21.691
					c0-0.548,0.017-1.089,0.058-1.625c0.794-11.221,10.584-17.28,21.536-17.28C239.325,155.659,247.806,162.585,247.806,174.564z"/>
				
					<radialGradient id="SVGID_2_" cx="449.5627" cy="145.2822" r="17.82" gradientTransform="matrix(0.9623 0 0 -0.9833 -205.5018 326.1891)" gradientUnits="userSpaceOnUse">
					<stop  offset="0" style="stop-color:#D2D4D6"/>
					<stop  offset="0.6009" style="stop-color:#E0E3E7"/>
					<stop  offset="1" style="stop-color:#EBF0F5"/>
				</radialGradient>
				<path fill="url(#SVGID_2_)" d="M247.421,170.409c-0.437,11.56-9.745,20.791-21.175,20.791c-9.065,0-16.8-5.807-19.827-13.975
					c1.257,10.723,10.003,19.03,20.615,19.03c11.473,0,20.771-9.712,20.771-21.691C247.806,173.144,247.671,171.756,247.421,170.409
					z"/>
				<path fill="#4F2302" d="M206.326,172.504c2.304,8.967,10.167,15.578,19.482,15.578c11.123,0,20.141-9.417,20.141-21.032
					c0-0.538,0.021-1.205-0.018-1.729c-3.298-7.429-10.542-12.446-18.897-12.446C216.222,152.874,207.316,161.488,206.326,172.504z"
					/>
				<path fill="#301102" d="M241.263,165.465c0-3.271-0.952-6.313-2.588-8.858c-3.317-2.354-7.326-3.732-11.641-3.732
					c-7.123,0-13.408,3.744-17.148,9.45c-0.198,1.016-0.303,2.065-0.303,3.141c0,8.938,7.091,16.186,15.841,16.186
					C234.171,181.65,241.263,174.403,241.263,165.465z"/>
				
					<radialGradient id="SVGID_3_" cx="438.7307" cy="161.3887" r="6.5227" gradientTransform="matrix(0.9623 0 0 -0.9833 -205.5018 326.1891)" gradientUnits="userSpaceOnUse">
					<stop  offset="0" style="stop-color:#FFFFFF"/>
					<stop  offset="0.1494" style="stop-color:#FCFCFC"/>
					<stop  offset="0.2785" style="stop-color:#F4F2F1"/>
					<stop  offset="0.4002" style="stop-color:#E5E1DF"/>
					<stop  offset="0.5173" style="stop-color:#D0C9C6"/>
					<stop  offset="0.6313" style="stop-color:#B6ABA6"/>
					<stop  offset="0.7427" style="stop-color:#95867E"/>
					<stop  offset="0.8522" style="stop-color:#6F594F"/>
					<stop  offset="0.9575" style="stop-color:#43271A"/>
					<stop  offset="1" style="stop-color:#301102"/>
				</radialGradient>
				<ellipse fill="url(#SVGID_3_)" cx="216.689" cy="167.495" rx="6.277" ry="6.414"/>
				<path fill="#4F2302" d="M229.485,184.446c7.56-1.461,14.728-9.65,16.201-19.32c-0.231,11.416-7.58,19.257-15.151,21.15
					c-10.674,2.671-21.412-3.596-24.047-14.601c-0.013-0.052,0.078-0.494,0.068-0.545
					C209.532,180.624,219.223,186.428,229.485,184.446z"/>
			</g>
		</g>
		<g>
			<g>
				<ellipse opacity="0.6" fill="#EDCBAE" enable-background="new    " cx="297.107" cy="174.564" rx="25.357" ry="26.474"/>
				<ellipse fill="#5A4A42" cx="297.107" cy="174.564" rx="22.859" ry="23.866"/>
				
					<radialGradient id="SVGID_4_" cx="522.302" cy="151.4365" r="20.4735" gradientTransform="matrix(0.9623 0 0 -0.9833 -205.5018 326.1891)" gradientUnits="userSpaceOnUse">
					<stop  offset="0" style="stop-color:#D2D4D6"/>
					<stop  offset="0.6009" style="stop-color:#E0E3E7"/>
					<stop  offset="1" style="stop-color:#EBF0F5"/>
				</radialGradient>
				<path fill="url(#SVGID_4_)" d="M317.883,174.564c0,11.979-9.302,21.691-20.774,21.691c-11.471,0-20.771-9.712-20.771-21.691
					s11.999-16.257,23.472-16.257C311.279,158.308,317.883,162.585,317.883,174.564z"/>
				
					<radialGradient id="SVGID_5_" cx="522.385" cy="145.2822" r="17.82" gradientTransform="matrix(0.9623 0 0 -0.9833 -205.5018 326.1891)" gradientUnits="userSpaceOnUse">
					<stop  offset="0" style="stop-color:#D2D4D6"/>
					<stop  offset="0.6009" style="stop-color:#E0E3E7"/>
					<stop  offset="1" style="stop-color:#EBF0F5"/>
				</radialGradient>
				<path fill="url(#SVGID_5_)" d="M317.498,170.409c-0.436,11.56-9.747,20.791-21.176,20.791c-9.064,0-16.798-5.807-19.824-13.975
					c1.255,10.723,10.001,19.03,20.609,19.03c11.474,0,20.774-9.712,20.774-21.691C317.883,173.144,317.75,171.756,317.498,170.409z
					"/>
				<path fill="#4F2302" d="M276.402,172.504c2.307,8.967,10.168,15.578,19.479,15.578c11.126,0,20.146-9.417,20.146-21.032
					c0-0.538,0.021-1.205-0.016-1.729c-3.3-7.429-10.543-12.446-18.902-12.446C286.297,152.874,277.394,161.488,276.402,172.504z"/>
				<path fill="#301102" d="M311.34,165.465c0-3.271-0.954-6.313-2.587-8.858c-3.319-2.354-7.326-3.732-11.646-3.732
					c-7.123,0-13.405,3.744-17.146,9.45c-0.196,1.016-0.297,2.065-0.297,3.141c0,8.938,7.088,16.186,15.837,16.186
					C304.246,181.65,311.34,174.403,311.34,165.465z"/>
				
					<radialGradient id="SVGID_6_" cx="511.552" cy="161.3887" r="6.5232" gradientTransform="matrix(0.9623 0 0 -0.9833 -205.5018 326.1891)" gradientUnits="userSpaceOnUse">
					<stop  offset="0" style="stop-color:#FFFFFF"/>
					<stop  offset="0.1494" style="stop-color:#FCFCFC"/>
					<stop  offset="0.2785" style="stop-color:#F4F2F1"/>
					<stop  offset="0.4002" style="stop-color:#E5E1DF"/>
					<stop  offset="0.5173" style="stop-color:#D0C9C6"/>
					<stop  offset="0.6313" style="stop-color:#B6ABA6"/>
					<stop  offset="0.7427" style="stop-color:#95867E"/>
					<stop  offset="0.8522" style="stop-color:#6F594F"/>
					<stop  offset="0.9575" style="stop-color:#43271A"/>
					<stop  offset="1" style="stop-color:#301102"/>
				</radialGradient>
				<ellipse fill="url(#SVGID_6_)" cx="286.765" cy="167.495" rx="6.277" ry="6.414"/>
				<path fill="#4F2302" d="M299.563,184.446c7.558-1.461,14.727-9.65,16.199-19.32c-0.234,11.416-7.582,19.257-15.153,21.15
					c-10.671,2.671-21.412-3.596-24.045-14.601c-0.011-0.052,0.078-0.494,0.066-0.545
					C279.609,180.624,289.299,186.428,299.563,184.446z"/>
			</g>
		</g>
		<g>
			<path fill="#C3996B" d="M361.822,238.03c0,33.922-36.521,62.447-97.382,62.514c-64.86,0.072-97.383-28.592-97.383-62.514
				c0-33.921,42.229-49.948,96.014-49.948C316.853,188.082,361.822,204.109,361.822,238.03z"/>
			
				<radialGradient id="SVGID_7_" cx="487.5344" cy="-37.3203" r="91.7706" gradientTransform="matrix(0.9623 0 0 -0.5174 -205.5018 221.1574)" gradientUnits="userSpaceOnUse">
				<stop  offset="0" style="stop-color:#FADABE"/>
				<stop  offset="0.1955" style="stop-color:#F7D6B9"/>
				<stop  offset="0.4349" style="stop-color:#EDCAAA"/>
				<stop  offset="0.6974" style="stop-color:#DCB791"/>
				<stop  offset="0.9745" style="stop-color:#C59C6F"/>
				<stop  offset="1" style="stop-color:#C3996B"/>
			</radialGradient>
			<ellipse fill="url(#SVGID_7_)" cx="265.237" cy="240.467" rx="88.307" ry="49.608"/>
			<path fill="#DBAF83" d="M263.071,193.315c52.469,0,96.427,15.313,98.544,47.559c0.053-0.925,0.116-2.061,0.116-2.994
				c0-33.921-44.879-49.798-98.66-49.798c-53.784,0-96.014,16.027-96.014,49.948c0,0.946,0.031,1.89,0.08,2.826
				C169.099,208.586,210.578,193.315,263.071,193.315z"/>
			<path fill="#B58454" d="M264.44,295.313c-49.29,0.056-80.547-15.912-93.703-38.299c10.169,24.98,41.433,43.588,93.703,43.529
				c50.056-0.055,83.642-19.363,93.99-45.088C344.852,278.609,311.742,295.261,264.44,295.313z"/>
		</g>
		<path fill="#5A4A42" d="M273.339,237.198c-9.823,3.617-12.184,20.728-1.037,17.853c-3.566,1.859-8.166,4.43-12.202,4.131
			c-3.646-0.271-6.194-2.691-11.278-3.91c5.305,0.996,8.205-3.08,8.441-6.854c0.317-5.127-5.396-9.351-10.309-12.269
			C252.588,235.198,260.432,235.099,273.339,237.198z"/>
		<path fill="#5A4A42" d="M232.915,134.526c1.846-0.276,3.313-0.562,4.264,1.269c0.776,1.485-0.615,3.528-2.186,4.165
			c-4.837,1.962-8.007,2.123-13.089,4.114c-4.873,1.908-10.495,6.297-13.966,10.247c-1.393,1.587-2.494,2.026-1.65-0.458
			c2.699-7.937,11.102-13.128,18.252-16.418C227.193,136.223,230.007,134.962,232.915,134.526z"/>
		<path fill="#5A4A42" d="M287.645,133.544c-1.809-0.138-3.251-0.305-4.028,1.415c-0.633,1.398,0.873,3.164,2.442,3.646
			c4.836,1.482,7.917,1.432,12.99,2.923c4.866,1.432,10.653,5.065,14.319,8.437c1.478,1.354,2.578,1.685,1.562-0.52
			c-3.233-7.036-11.773-11.229-18.95-13.771C293.313,134.729,290.494,133.757,287.645,133.544z"/>
		<path fill="#472423" d="M260.761,256.875c-8.565,0-15.646-2.794-16.815-6.432c-0.112,0.349-0.36,0.758-0.174,1.064
			c2.239,3.654,7.678,7.966,17.063,7.966c9.382,0,13.956-4.09,16.916-7.966c0.217-0.285-0.063-0.716-0.175-1.064
			C276.402,254.081,269.322,256.875,260.761,256.875z"/>
		<g>
			<path fill="#78504B" d="M309.671,206.959c7.123,10.398-18.254,15.669-23.147,19.706c-7.833,6.467-14.167,14.758-26.246,14.902
				c-9.011,0.107-20.927-10.439-28.438-15.647c-5.449-3.774-32.744-9.736-20.427-21.739c7.09-6.907,20.111,1.794,29.908,3.859
				c16.688,3.519,23.188,4.01,39.076-0.511C285.15,206.176,303.817,198.414,309.671,206.959z"/>
			<path opacity="0.39" fill="#E5BFA9" enable-background="new    " d="M211.049,207.16c7.089-6.906,20.11,1.794,29.907,3.859
				c16.688,3.52,23.188,4.009,39.073-0.51c4.759-1.352,23.421-9.116,29.276-0.569c0.634,0.927,1.009,1.813,1.164,2.663
				c0.745-1.699,0.624-3.569-0.8-5.645c-5.854-8.545-24.521-0.783-29.273,0.57c-15.888,4.521-22.39,4.029-39.076,0.511
				c-9.797-2.065-22.818-10.767-29.908-3.859c-2.574,2.511-3.415,4.754-3.09,6.77C208.8,209.76,209.677,208.498,211.049,207.16z"/>
			<g>
				<path opacity="0.21" fill="#E5BFA9" enable-background="new    " d="M239.789,231.518c0,0-8.176-5.612-16.728-9.53
					c-9.023-4.135-12.467-8.308-10.874-11.403c1.593-3.097,7.663-4.215,15.936,0.291
					C241.746,218.293,239.789,231.518,239.789,231.518z"/>
				<path fill="#5B3432" d="M239.894,231.74c0,0-7.803-4.556-16.1-9.009c-8.303-4.451-11.906-8.145-10.318-11.243
					c1.59-3.098,6.966-3.881,15.27,0.563C240.298,218.235,239.894,231.74,239.894,231.74z"/>
				<path fill="#472423" d="M239.164,230.625c0,0-6.382-3.725-13.171-7.367c-6.787-3.641-9.739-6.669-8.435-9.206
					c1.306-2.538,5.701-3.188,12.497,0.448C239.503,219.558,239.164,230.625,239.164,230.625z"/>
			</g>
			<g>
				<path opacity="0.21" fill="#E5BFA9" enable-background="new    " d="M277.798,233.841c0,0,8.171-5.611,16.726-9.531
					c9.023-4.135,12.464-8.307,10.873-11.403c-1.59-3.096-7.661-4.215-15.933,0.292
					C275.841,220.617,277.798,233.841,277.798,233.841z"/>
				<path fill="#5B3432" d="M277.69,234.063c0,0,7.805-4.555,16.104-9.007c8.299-4.453,11.903-8.149,10.313-11.245
					c-1.589-3.096-6.964-3.881-15.268,0.563C277.288,220.558,277.69,234.063,277.69,234.063z"/>
				<path fill="#472423" d="M277.76,233.852c0,0,6.382-3.726,13.17-7.368c6.788-3.641,9.737-6.666,8.435-9.206
					c-1.305-2.538-5.703-3.187-12.493,0.447C277.419,222.784,277.76,233.852,277.76,233.852z"/>
			</g>
		</g>
		<path fill="#77594B" d="M272.719,359.415c-3.209-0.153-8.186-0.896-10.041-2.006c-0.075,0.151-0.157,0.305-0.245,0.454
			c-0.322,0.55-0.919,1.046-1.003,1.718c-0.052,0.403,0.118,0.752,0.46,1.047c0.512,0.445,1.407,0.776,2.521,1.022
			c4.058,0.904,10.986,0.646,12.462,0.496c0.992-0.098,2.125-0.201,3.007-0.725c0.953-0.566,1.773-1.229,2.479-1.957
			C279.564,359.764,275.99,359.573,272.719,359.415z"/>
		<path fill="#8E6457" d="M272.78,359.542c-1.946-0.104-3.896-0.371-5.81-0.781c-0.639-0.135-1.735-0.717-2.354-0.434
			c-0.506,0.231-0.797,1.118-0.993,1.639c-0.541,1.398-0.384,1.566,0.896,2.054c2.603,0.994,11.229,0.934,12.692,0.771
			c0.989-0.108,1.807-0.444,2.68-1.022c0.947-0.629,1.646-1.367,2.348-2.179C279.468,359.921,276.032,359.716,272.78,359.542z"/>
		<path opacity="0.5" fill="#8E6457" enable-background="new    " d="M264.763,358.997c0.618-0.285,1.489,0,2.516,0.162
			c1.938,0.305,3.863,0.676,5.813,0.776c2.981,0.16,6.559,0.277,9.14-0.328c0.037-0.041,0.057-0.063,0.091-0.102
			c-2.772,0.332-6.287,0.209-9.539,0.035c-1.947-0.105-3.914-0.35-5.828-0.762c-0.64-0.135-1.889-0.648-2.335-0.453
			c-0.509,0.225-0.796,1.119-0.993,1.639c-0.228,0.586-0.327,0.955-0.277,1.221C263.569,360.632,264.27,359.223,264.763,358.997z"/>
		<path opacity="0.5" fill="#8E6457" enable-background="new    " d="M279.892,361.177c-0.873,0.58-1.689,0.912-2.68,1.023
			c-1.463,0.164-10.091,0.223-12.692-0.771c-0.662-0.253-1.023-0.421-1.141-0.718c-0.172,0.736,0.137,0.927,1.141,1.308
			c2.603,0.994,11.229,0.934,12.692,0.771c0.989-0.108,1.807-0.444,2.68-1.022c0.947-0.629,1.635-1.357,2.338-2.166
			c-0.043,0.006-0.122,0.02-0.165,0.024C281.313,360.198,280.536,360.749,279.892,361.177z"/>
	</g>
</g>
</svg>
