<?xml version="1.0" encoding="utf-8"?>
<!-- Generator: Adobe Illustrator 15.1.0, SVG Export Plug-In . SVG Version: 6.00 Build 0)  -->
<!DOCTYPE svg PUBLIC "-//W3C//DTD SVG 1.1//EN" "http://www.w3.org/Graphics/SVG/1.1/DTD/svg11.dtd">
<svg version="1.1" id="Layer_1" xmlns="http://www.w3.org/2000/svg" xmlns:xlink="http://www.w3.org/1999/xlink" x="0px" y="0px"
	 width="512px" height="512px" viewBox="0 0 512 512" enable-background="new 0 0 512 512" xml:space="preserve">
<g>
	<g>
		<path fill="#D6E2E5" d="M230.816,300.768c6.462-10.006,11.736-3.471,14.616,4.008c1.766,4.574,5.337,8.346,7.867,12.473
			c4.395,7.18,5.486,13.518,4.958,22.078c-6.673,0.836-13.624,2.299-20.773,1.463c-8.898-1.039-8.765-10.543-9.771-18.027
			C226.564,314.189,225.818,308.51,230.816,300.768z"/>
		<linearGradient id="SVGID_1_" gradientUnits="userSpaceOnUse" x1="237.3496" y1="319.6172" x2="247.6953" y2="316.9271">
			<stop  offset="0" style="stop-color:#4E6472"/>
			<stop  offset="0.2644" style="stop-color:#516674"/>
			<stop  offset="0.4312" style="stop-color:#596E7B"/>
			<stop  offset="0.5712" style="stop-color:#687B87"/>
			<stop  offset="0.6962" style="stop-color:#7D8E97"/>
			<stop  offset="0.8112" style="stop-color:#98A7AD"/>
			<stop  offset="0.9175" style="stop-color:#B8C4C7"/>
			<stop  offset="1" style="stop-color:#D7E0E0"/>
		</linearGradient>
		<path opacity="0.14" fill="url(#SVGID_1_)" d="M223.93,302.051c6.463-10.006,18.321-5.982,21.206,1.498
			c1.127,2.928-2.197,5.852-1.91,8.877c0.259,2.734,0.652,4.959,1.865,7.336c3.498,6.85,4.228,13.105,4.228,21.52
			c-6.67,0.838-11.57,1.629-18.72,0.791c-8.898-1.037-8.767-10.541-9.77-18.025C219.679,315.473,218.933,309.793,223.93,302.051z"/>
		<path fill="#EAEFEF" d="M249.783,291.416c-2.098,8.545-6.955,16.799-12.641,22.164c-15.229,14.365-37.979,14.328-58.525,8.594
			c-14.01-3.908-27.615-14.221-29.525-30.213c-1.677-14.059-0.311-26.447,19.702-36.117c9.293-4.486,17.965,0.447,27.146,2.486
			c8.238,1.828,10.078-7.501,17.565-8.562c13.005-1.842,33.664,13.443,36.711,26.74
			C251.298,281.223,251.021,286.371,249.783,291.416z"/>
		<linearGradient id="SVGID_2_" gradientUnits="userSpaceOnUse" x1="197.5566" y1="249.981" x2="204.3241" y2="321.7159">
			<stop  offset="0" style="stop-color:#FFFFFF"/>
			<stop  offset="0.358" style="stop-color:#FCFDFD"/>
			<stop  offset="0.6337" style="stop-color:#F2F5F5"/>
			<stop  offset="0.881" style="stop-color:#E2E8E8"/>
			<stop  offset="1" style="stop-color:#D7E0E0"/>
		</linearGradient>
		<path fill="url(#SVGID_2_)" d="M251.55,289.957c-2.135,8.59-7.074,16.883-12.858,22.273c-15.495,14.439-37.038,15.1-56.646,9.816
			c-14.275-3.848-31.001-15.469-32.942-31.541c-1.708-14.129-0.319-26.58,20.047-36.296c9.452-4.51,18.276,0.447,27.621,2.498
			c8.38,1.837,10.252-7.539,17.871-8.605c13.23-1.852,34.25,13.513,37.353,26.875C253.092,279.713,252.811,284.887,251.55,289.957z"
			/>
		<linearGradient id="SVGID_3_" gradientUnits="userSpaceOnUse" x1="241.376" y1="256.6694" x2="221.498" y2="286.0883">
			<stop  offset="0" style="stop-color:#D7E0E0"/>
			<stop  offset="0.4294" style="stop-color:#D9E2E2"/>
			<stop  offset="0.6684" style="stop-color:#E1E8E8"/>
			<stop  offset="0.8599" style="stop-color:#EFF3F3"/>
			<stop  offset="1" style="stop-color:#FFFFFF"/>
		</linearGradient>
		<path opacity="0.4" fill="url(#SVGID_3_)" d="M226.1,270.34c-3.171-2.041-6.465-4.037-9.588-6.477
			c-6.117-4.777-11.652-16.564,1.416-18.414c8.093-1.146,13.315,6.084,19.624,10.801c11.672,8.73,18.113,19.654,13.457,34.845
			c-1.051,3.434-3.698,11.115-6.638,13.191c-0.29-3.652,0.075-7.348-0.558-10.908c-0.53-2.986-1.774-5.064-3.007-7.861
			C237.57,278.146,232.043,274.162,226.1,270.34z"/>
		<linearGradient id="SVGID_4_" gradientUnits="userSpaceOnUse" x1="238.0371" y1="251.9854" x2="227.6518" y2="267.3553">
			<stop  offset="0" style="stop-color:#FFFFFF"/>
			<stop  offset="0.1401" style="stop-color:#EFF3F3"/>
			<stop  offset="0.3316" style="stop-color:#E1E8E8"/>
			<stop  offset="0.5706" style="stop-color:#D9E2E2"/>
			<stop  offset="1" style="stop-color:#D7E0E0"/>
		</linearGradient>
		<path opacity="0.4" fill="url(#SVGID_4_)" d="M226.752,268.006c-3.173-2.041-6.464-4.035-9.59-6.475
			c-6.115-4.777-11.651-16.564,1.417-18.414c8.095-1.146,13.317,6.082,19.627,10.801c5.619,4.203,11.477,9.675,13.461,16.748
			c1.358,4.83,0.495,7.498-4.5,6.545C240.083,275.861,232.806,271.9,226.752,268.006z"/>
		<path opacity="0.23" fill="#FFFFFF" d="M236.304,331.09c2.396-0.471,1.684,0.246,3.65,0.152c2.677-0.131,7.547-0.988,10.144-1.605
			c5.194-1.232,7.046-3.818,7.046-3.818s0.188,0.465,0.322,1.277c0.012,0.072-0.071,0.191-0.06,0.27
			c0.496,3.096,1.393,9.83,0.002,10.775c-2.922,1.99-13.324,4.551-20.476,3.717c-3.703-0.434-8.505-5.504-4.427-9.121
			C233.48,331.873,234.833,331.377,236.304,331.09z"/>
		
			<radialGradient id="SVGID_5_" cx="-28.0215" cy="345.5879" r="17.6076" gradientTransform="matrix(0.9416 -0.203 0.1474 0.7137 220.4585 74.2154)" gradientUnits="userSpaceOnUse">
			<stop  offset="0" style="stop-color:#304D5C"/>
			<stop  offset="0.2101" style="stop-color:#2E4A58"/>
			<stop  offset="0.4183" style="stop-color:#28404C"/>
			<stop  offset="0.6258" style="stop-color:#1D2F38"/>
			<stop  offset="0.8317" style="stop-color:#0F181D"/>
			<stop  offset="1" style="stop-color:#000000"/>
		</radialGradient>
		<path fill="url(#SVGID_5_)" d="M236.304,331.756c2.396-0.471,1.684,0.246,3.65,0.152c2.677-0.129,7.547-0.986,10.144-1.604
			c5.194-1.234,7.368-3.209,7.368-3.209s2.78,10.244,0.967,11.477c-2.922,1.992-14.349,4.785-21.5,3.951
			c-3.703-0.434-8.505-5.504-4.427-9.121C233.48,332.539,234.833,332.045,236.304,331.756z"/>
		<linearGradient id="SVGID_6_" gradientUnits="userSpaceOnUse" x1="142.5122" y1="247.4136" x2="126.7923" y2="255.072">
			<stop  offset="0" style="stop-color:#FFFFFF"/>
			<stop  offset="0.4495" style="stop-color:#FDFDFD"/>
			<stop  offset="0.68" style="stop-color:#F5F7F7"/>
			<stop  offset="0.8602" style="stop-color:#E8EDED"/>
			<stop  offset="1" style="stop-color:#D7E0E0"/>
		</linearGradient>
		<path fill="url(#SVGID_6_)" d="M121.741,234.559c-0.374,0.537,0.787-0.654,0.208-0.227c0.185-0.129,0.38-0.246,0.579-0.35
			c-0.538,0.303,0.412-0.131,0.466-0.146c0.229-0.063,0.46-0.113,0.692-0.154c-0.628,0.125,0.534-0.008,0.534-0.008
			c0.693-0.023,1.006,0.016,1.372,0.078c1.24,0.209,2.328,0.609,3.19,1.057c1.225,0.637,1.513,0.889,2.319,1.84
			c0.348,0.414,0.659,1.783,0.731,2.566c0.146,1.551,0.028,3.127-0.109,4.672c-0.261,2.959-0.86,5.918-0.712,8.898
			c0.303,6.097,1.202,11.882,6.304,15.73c2.963,2.236,6.477,3.561,10.128,3.914c3.374,0.328,6.848-0.76,10.078-1.609
			c4.271-1.125,2.458-7.873-1.822-6.746c-2.782,0.73-5.822,1.799-8.727,1.299c-2.731-0.471-6.057-2.268-7.373-4.227
			c-1.209-1.799-1.431-4.141-1.611-6.49c-0.245-3.17,0.075-6.184,0.434-9.332c0.366-3.184,0.555-6.455-0.314-9.576
			c-0.87-3.127-3.137-5.457-5.871-6.98c-5.288-2.95-12.638-3.196-16.41,2.258c-1.078,1.561-0.276,3.887,1.229,4.787
			C118.77,236.84,120.664,236.114,121.741,234.559L121.741,234.559z"/>
		<path opacity="0.2" fill="#B0CAE1" d="M155.006,264.92c-2.366-0.873-5.398,0.906-8.032,0.453
			c-2.731-0.471-6.057-2.268-7.373-4.227c-1.209-1.799-1.431-4.141-1.611-6.49c-0.245-3.17,0.075-6.184,0.434-9.332
			c0.366-3.184,0.555-6.455-0.314-9.576c-0.87-3.127-3.137-5.457-5.871-6.98c-4.413-2.461-10.264-3.036-14.27,0.01
			c3.857-1.868,8.792-1.155,12.64,0.988c2.735,1.525,5,3.852,5.872,6.98c0.868,3.123,0.679,6.395,0.313,9.578
			c-0.358,3.148-0.68,6.162-0.435,9.332c0.18,2.351,0.402,4.693,1.611,6.49c1.315,1.957,4.641,3.756,7.374,4.225
			C148.518,266.92,151.582,264.541,155.006,264.92z"/>
		<path opacity="0.2" fill="#B0CAE1" d="M159.153,269.82c-3.23,0.85-6.706,1.939-10.077,1.611c-3.652-0.354-7.168-1.68-10.129-3.914
			c-5.103-3.85-6.001-9.637-6.305-15.732c-0.146-2.98,0.45-5.939,0.713-8.896c0.136-1.547,0.255-3.121,0.108-4.674
			c-0.071-0.783-0.38-2.152-0.731-2.564c-0.808-0.953-1.092-1.203-2.321-1.842c-0.86-0.447-1.948-0.846-3.188-1.057
			c-0.366-0.064-0.678-0.1-1.363-0.078c-0.009,0-0.934,0.105-0.683,0.039c-0.185,0.035-0.37,0.074-0.554,0.123
			c-0.045,0.016-0.746,0.332-0.61,0.232c-0.095,0.055-0.19,0.113-0.283,0.174c0.109-0.014-0.675,0.773-0.359,0.314
			c-0.056,0.08-0.114,0.158-0.175,0.234c0.116-0.029,0.233-0.057,0.35-0.078c-0.248,0.066,0.678-0.039,0.678-0.039
			c0.69-0.023,1.003,0.016,1.369,0.078c1.24,0.209,2.328,0.609,3.19,1.057c1.225,0.637,1.513,0.889,2.319,1.84
			c0.348,0.414,0.659,1.783,0.731,2.566c0.146,1.551,0.028,3.127-0.109,4.672c-0.261,2.959-0.86,5.918-0.712,8.898
			c0.303,6.097,1.202,11.882,6.304,15.73c2.963,2.236,6.477,3.561,10.128,3.914c3.374,0.328,6.848-0.76,10.078-1.609
			c0.736-0.193,1.286-0.557,1.681-1.016C159.186,269.809,159.169,269.816,159.153,269.82z"/>
		<linearGradient id="SVGID_7_" gradientUnits="userSpaceOnUse" x1="148.1694" y1="297.4922" x2="197.9424" y2="297.4922">
			<stop  offset="0" style="stop-color:#FFFFFF"/>
			<stop  offset="0.5398" style="stop-color:#E7ECEC"/>
			<stop  offset="1" style="stop-color:#D7E0E0"/>
		</linearGradient>
		<path fill="url(#SVGID_7_)" d="M190.567,313.223c-1.246,1.26-2.979,2.625-3.766,4.271c-0.688,1.441-1.603,3.285-2.317,4.436
			c-2.122,3.416-9.104,1.416-12.328,0.225c-3.148-1.164-7.017-3.164-9.466-5.51c-1.362-1.305-1.701-2.811-2.813-4.148
			c-1.423-1.713-3.475-2.371-5.061-3.896c-3.251-3.139-4.872-6.949-5.887-11.164c-0.91-3.785-0.141-7.934-0.585-11.793
			c-0.565-4.924,0.057-5.307,4.562-7.449c12.735-6.055,27.945-12.09,39.001-0.285C200.716,287.311,199.552,304.164,190.567,313.223z
			"/>
		<linearGradient id="SVGID_8_" gradientUnits="userSpaceOnUse" x1="134.2388" y1="304.2227" x2="189.2276" y2="304.2227">
			<stop  offset="0" style="stop-color:#B9C9C9"/>
			<stop  offset="0.0337" style="stop-color:#C4D1D1"/>
			<stop  offset="0.1185" style="stop-color:#DAE2E2"/>
			<stop  offset="0.2188" style="stop-color:#EBEFEF"/>
			<stop  offset="0.3428" style="stop-color:#F6F8F8"/>
			<stop  offset="0.5169" style="stop-color:#FDFEFE"/>
			<stop  offset="1" style="stop-color:#FFFFFF"/>
		</linearGradient>
		<path fill="url(#SVGID_8_)" d="M152.845,268.26c6.452-7.627,15.592-9.818,24.118-4.377c5.989,3.82,15.57,14.141,18.126,20.893
			c1.29,3.404,0.975,8.846,0.688,12.66c-0.455,6.031-3.645,11.578-7.815,15.787c-4.851,4.891-5.77,5.613-2.474,12.719
			c1.767,3.811,3.926,10.193,2.427,14.811c-1.692,5.207-7.891,6.338-13.043,6.668c-7.334,0.473-28.186,0.541-27.551-9.346
			c0.247-3.832,3.422-9.645,4.727-13.328c1.482-4.197,2.991-7.707,8.38-7.416c0.98-4.563-5.738-6.34-8.217-8.73
			c-3.254-3.139-4.873-6.949-5.889-11.164C143.747,286.746,145.728,276.67,152.845,268.26z"/>
		<linearGradient id="SVGID_9_" gradientUnits="userSpaceOnUse" x1="168.9473" y1="319.2061" x2="167.7166" y2="339.3892">
			<stop  offset="0" style="stop-color:#FFFFFF"/>
			<stop  offset="0.3062" style="stop-color:#FAFBFB"/>
			<stop  offset="0.6448" style="stop-color:#EDF1F1"/>
			<stop  offset="0.9979" style="stop-color:#D7E0E0"/>
			<stop  offset="1" style="stop-color:#D7E0E0"/>
		</linearGradient>
		<path fill="url(#SVGID_9_)" d="M159.31,317.664c3.273-0.496,7.171,0.645,11.328,1.76c9.638,2.59,19.886,7.67,17.276,21.328
			c-1.028,5.385-7.891,6.338-13.043,6.668c-7.334,0.473-28.186,0.541-27.551-9.346c0.247-3.832,3.422-9.645,4.727-13.328
			C153.711,320.027,156.234,318.127,159.31,317.664z"/>
		<path fill="#FFFFFF" d="M149.482,330.865c0,0,1.819,2.273,8.168,3.846c10.303,2.553,15.646,2.426,23.626,0.982
			c3.969-0.715,6.645-2.607,6.645-2.607s1.466,5.506,0.508,7.184c-2.536,4.443-8.067,6.316-13.217,6.648
			c-7.335,0.471-28.232,0.563-27.602-9.324C147.87,333.551,149.482,330.865,149.482,330.865z"/>
		
			<radialGradient id="SVGID_10_" cx="-107.7402" cy="355.126" r="21.7583" gradientTransform="matrix(0.9615 -0.0407 0.022 0.5437 264.0516 138.4532)" gradientUnits="userSpaceOnUse">
			<stop  offset="0" style="stop-color:#304D5C"/>
			<stop  offset="0.2101" style="stop-color:#2E4A58"/>
			<stop  offset="0.4183" style="stop-color:#28404C"/>
			<stop  offset="0.6258" style="stop-color:#1D2F38"/>
			<stop  offset="0.8317" style="stop-color:#0F181D"/>
			<stop  offset="1" style="stop-color:#000000"/>
		</radialGradient>
		<path fill="url(#SVGID_10_)" d="M149.176,331.471c0,0,1.549,2.387,8.347,4.014c10.321,2.471,15.888,2.533,23.867,1.092
			c3.967-0.719,6.746-2.57,6.746-2.57s1.806,5.232,0.845,6.914c-2.535,4.441-8.619,6.332-13.769,6.662
			c-7.335,0.473-28.524,0.379-27.892-9.508C147.58,334.033,149.176,331.471,149.176,331.471z"/>
		<linearGradient id="SVGID_11_" gradientUnits="userSpaceOnUse" x1="212.6782" y1="304.8066" x2="240.6353" y2="304.8066">
			<stop  offset="0" style="stop-color:#FFFFFF"/>
			<stop  offset="0.5398" style="stop-color:#E7ECEC"/>
			<stop  offset="1" style="stop-color:#D7E0E0"/>
		</linearGradient>
		<path fill="url(#SVGID_11_)" d="M240.198,309.424c-1.213-2.838-1.351-5.859-1.498-8.885c-0.31-6.404-1.387-11.709-8.574-13.592
			c-6.84-1.789-16.371,6.883-17.279,13.398c-0.788,5.66,1.149,12.455,6.617,15.305c0.81,0.422-2.573,5.773-1.035,6.873
			c4.058,2.898,22.57-11.615,22.201-12.404C240.471,309.783,240.345,309.764,240.198,309.424z"/>
		<path fill="#FFFFFF" d="M228.495,286.627c-6.838-1.889-16.371,7.258-17.278,14.129c-0.789,5.969,1.147,13.137,6.618,16.141
			c-1.236,5.439-4.432,9.65-4.811,16.674c-0.258,4.768,1.377,8.713,6.17,9.732c12.425,2.646,27.706-1.824,27.706-1.824
			s4.277-12.721-6.986-28.713C233.559,303.742,242.072,290.375,228.495,286.627z"/>
		<linearGradient id="SVGID_12_" gradientUnits="userSpaceOnUse" x1="229.75" y1="312.2041" x2="230.4821" y2="339.8486">
			<stop  offset="0" style="stop-color:#FFFFFF"/>
			<stop  offset="0.3062" style="stop-color:#FAFBFB"/>
			<stop  offset="0.6448" style="stop-color:#EDF1F1"/>
			<stop  offset="0.9979" style="stop-color:#D7E0E0"/>
			<stop  offset="1" style="stop-color:#D7E0E0"/>
		</linearGradient>
		<path fill="url(#SVGID_12_)" d="M231.002,311.664c-0.913,0.102-1.843,0.277-2.81,0.541c-2.091,0.568-4.096,1.238-6.069,2.15
			c-1.612,0.744-3.388,1.564-4.323,3.184c-0.854,1.482-1.162,3.311-1.793,4.896c-1.445,3.625-2.77,7.176-2.982,11.135
			c-0.258,4.768,1.377,8.713,6.17,9.732c12.423,2.646,27.702-1.824,27.702-1.824c0.232-0.068,0.428-1.803,0.458-1.984
			c0.675-3.896,0.288-7.852-0.516-11.693c-0.65-3.086-1.884-5.83-3.182-8.676c-1.423-3.129-2.753-6.408-6.404-7.102
			C235.054,311.602,233.066,311.439,231.002,311.664z"/>
		<path fill="#FFFFFF" d="M218.729,345.904c10.049,1.359,23.027,0.248,26.378-1.357c5.148-2.469,2.154-12.092,2.154-12.092
			s-4.164,3.699-19.362,3.822c-11.253,0.092-14.693-1.727-14.693-1.727S211.218,344.891,218.729,345.904z"/>
		
			<radialGradient id="SVGID_13_" cx="-43.2695" cy="355.6885" r="20.0348" gradientTransform="matrix(0.9593 -0.077 0.0366 0.476 258.8201 163.8564)" gradientUnits="userSpaceOnUse">
			<stop  offset="0" style="stop-color:#304D5C"/>
			<stop  offset="0.2101" style="stop-color:#2E4A58"/>
			<stop  offset="0.4183" style="stop-color:#28404C"/>
			<stop  offset="0.6258" style="stop-color:#1D2F38"/>
			<stop  offset="0.8317" style="stop-color:#0F181D"/>
			<stop  offset="1" style="stop-color:#000000"/>
		</radialGradient>
		<path fill="url(#SVGID_13_)" d="M218.629,346.904c10.22,1.357,23.424,0.248,26.833-1.357c5.238-2.469,2.191-12.092,2.191-12.092
			s-4.236,3.697-19.696,3.822c-11.45,0.09-14.949-1.727-14.949-1.727S210.985,345.889,218.629,346.904z"/>
		<g>
			<path fill="#1D2E37" d="M195.42,262.973c1.491,2.404,3.052,5.725,4.417,8.379c0.457-3.072,0.217-7.072-0.501-9.682
				c-0.638-2.326-1.171-5.667-3.947-6.201c-0.69-0.135-1.443-0.148-2.172-0.242c-0.815-0.105-5.009-0.457-3.765,0.568
				C190.821,256.924,192.072,257.572,195.42,262.973z"/>
		</g>
		<g>
			<linearGradient id="SVGID_14_" gradientUnits="userSpaceOnUse" x1="203.2661" y1="256.2764" x2="210.2303" y2="272.8578">
				<stop  offset="0" style="stop-color:#304D5C"/>
				<stop  offset="0.3278" style="stop-color:#1E3039"/>
				<stop  offset="0.7716" style="stop-color:#080D10"/>
				<stop  offset="1" style="stop-color:#000000"/>
			</linearGradient>
			<path fill="url(#SVGID_14_)" d="M208.293,258.711c0.928,1.889,2.477,6.451,2.793,9.057c0.27,2.189,0.495,4.449-0.011,6.596
				c-0.667-1.84-3.084-7.525-6.228-12.553c-0.894-1.43-2.368-2.934-3.232-3.863c-0.294-0.316-1.881-1.714-2.318-1.521
				c1.7-0.537,5.431-2.754,6.827-0.992C206.691,256.151,208.154,258.424,208.293,258.711z"/>
		</g>
		<g>
			
				<linearGradient id="SVGID_15_" gradientUnits="userSpaceOnUse" x1="207.0864" y1="284.7285" x2="235.4282" y2="284.7285" gradientTransform="matrix(0.8628 0.0025 0.0025 1 31.4875 -0.5902)">
				<stop  offset="0" style="stop-color:#304D5C"/>
				<stop  offset="0.3278" style="stop-color:#1E3039"/>
				<stop  offset="0.7716" style="stop-color:#080D10"/>
				<stop  offset="1" style="stop-color:#000000"/>
			</linearGradient>
			<path fill="url(#SVGID_15_)" d="M217.379,284.391c1.345-3.297,2.373-6.746,2.941-10.504c0.627,1.688,0.99,3.035,1.642,4.385
				c1.571,3.24,3.521,5.688,6.281,7.621c1.496,1.047,6.237,4.088,7.098,4.541c-0.904,0.037-4.365-0.227-5.271-0.531
				c-2.569-0.863-4.599-1.461-7.505-3.84c-0.469-0.383-1.624-1.039-2.41,0.357c-1.211,2.162-2.854,4.33-4.6,5.896
				c-0.61,0.549-3.294,2.803-4.654,3.137c1.146-1.387,2.384-3.512,3.429-5.143C215.509,288.465,216.525,286.477,217.379,284.391z"/>
		</g>
		<linearGradient id="SVGID_16_" gradientUnits="userSpaceOnUse" x1="152.1514" y1="313.5234" x2="165.9268" y2="313.5234">
			<stop  offset="0" style="stop-color:#FFFFFF"/>
			<stop  offset="0.5398" style="stop-color:#E7ECEC"/>
			<stop  offset="1" style="stop-color:#D7E0E0"/>
		</linearGradient>
		<path opacity="0.21" fill="url(#SVGID_16_)" d="M160.346,315.277c-0.592-1.82-2.178-2.955-3.732-3.869
			c-0.822-0.482-1.672-0.916-2.49-1.412c-0.379-0.229-0.771-0.457-1.12-0.738c-0.204-0.162-0.736-0.984-0.852-1.025
			c1.373,0.484,2.774,0.727,4.175,1.09c3.097,0.809,6.097,1.883,8.122,4.367c0.651,0.797,2.113,3.398,1.171,4.523
			c-0.959,1.145-2.929,0.375-4.054-0.033C159.978,317.602,160.771,316.598,160.346,315.277z"/>
		<g>
			<linearGradient id="SVGID_17_" gradientUnits="userSpaceOnUse" x1="211.293" y1="310.4463" x2="228.5615" y2="310.4463">
				<stop  offset="0" style="stop-color:#304D5C"/>
				<stop  offset="0.3278" style="stop-color:#1E3039"/>
				<stop  offset="0.7716" style="stop-color:#080D10"/>
				<stop  offset="1" style="stop-color:#000000"/>
			</linearGradient>
			<path fill="url(#SVGID_17_)" d="M211.293,306.566c1.054,0.91,5.343,2.656,8.127,3.137c1.779,0.307,7.004,1.004,9.142,0.711
				c-3.21,1.764-12.022,6.201-14.926,2.447C212.241,311.059,211.324,308.625,211.293,306.566z"/>
		</g>
		<g>
			<linearGradient id="SVGID_18_" gradientUnits="userSpaceOnUse" x1="152.6279" y1="273.1113" x2="171.2432" y2="273.1113">
				<stop  offset="0" style="stop-color:#304D5C"/>
				<stop  offset="0.3278" style="stop-color:#1E3039"/>
				<stop  offset="0.7716" style="stop-color:#080D10"/>
				<stop  offset="1" style="stop-color:#000000"/>
			</linearGradient>
			<path fill="url(#SVGID_18_)" d="M159.322,261.77c-0.069-0.43-0.124-0.859-0.167-1.287c-1.85,1.49-4.257,2.398-6.527,3.854
				c0.566,2.035,2.29,5.518,3.286,7.281c4.223,7.451,11.541,12.768,15.329,14.123c-4.47-4.703-8.843-13.002-10.473-17.887
				C160.126,265.924,159.646,263.818,159.322,261.77z"/>
		</g>
		<g>
			<linearGradient id="SVGID_19_" gradientUnits="userSpaceOnUse" x1="145.4297" y1="297.0664" x2="171.5146" y2="297.0664">
				<stop  offset="0" style="stop-color:#304D5C"/>
				<stop  offset="0.3278" style="stop-color:#1E3039"/>
				<stop  offset="0.7716" style="stop-color:#080D10"/>
				<stop  offset="1" style="stop-color:#000000"/>
			</linearGradient>
			<path fill="url(#SVGID_19_)" d="M145.43,292.375c0.819,1.814,11.297,5.146,13.012,5.617c3.64,0.996,9.308,2.988,13.073,2.434
				c-5.834,2.172-17.191,1.324-24.336,0.02c-0.361-1.162-0.73-2.008-1.047-3.35C145.752,295.49,145.581,294.08,145.43,292.375z"/>
		</g>
		<g>
			<linearGradient id="SVGID_20_" gradientUnits="userSpaceOnUse" x1="150.9609" y1="309.1826" x2="165.0195" y2="309.1826">
				<stop  offset="0" style="stop-color:#304D5C"/>
				<stop  offset="0.3278" style="stop-color:#1E3039"/>
				<stop  offset="0.7716" style="stop-color:#080D10"/>
				<stop  offset="1" style="stop-color:#000000"/>
			</linearGradient>
			<path fill="url(#SVGID_20_)" d="M150.961,307.277c0.017,0.063,0.765,1.047,1.215,1.414c2.04,1.666,3.799,2.387,3.84,2.4
				c0,0,0.518-0.027,1.586-0.307c2.087-0.545,4.462-2.559,7.418-3.477c-0.388-0.021-1.192-0.053-1.563-0.021
				c-1.998,0.168-3.37,0.705-4.935,0.934c-0.725,0.105-2.063,0.076-2.99-0.033c-0.068-0.008-0.136-0.018-0.204-0.025
				c-0.512-0.064-1.02-0.135-1.527-0.215C151.861,307.641,151.005,307.262,150.961,307.277z"/>
		</g>
		<linearGradient id="SVGID_21_" gradientUnits="userSpaceOnUse" x1="80.2402" y1="234.48" x2="126.2852" y2="234.48">
			<stop  offset="0" style="stop-color:#304D5C"/>
			<stop  offset="0.1516" style="stop-color:#233843"/>
			<stop  offset="0.3701" style="stop-color:#142026"/>
			<stop  offset="0.5867" style="stop-color:#090E11"/>
			<stop  offset="0.7986" style="stop-color:#020404"/>
			<stop  offset="1" style="stop-color:#000000"/>
		</linearGradient>
		<path fill="url(#SVGID_21_)" d="M98.88,219.5c-6.854,5.172-8.696,26.331-18.64,23.782c4.47,3.045,9.364,6.35,15.592,4.977
			c0.513-0.113,0.224,0.086-0.16,0.344c-3.074,2.051,5.229,3.836,6.887,3.895c5.429,0.193,12.14,0.264,16.512-3.471
			c7.721-6.592,8.626-16.469,5.618-25.425C121.721,214.776,105.015,214.872,98.88,219.5z"/>
		<path fill="#1D2E37" d="M174.831,253.989c-0.448,0.061-0.893,0.154-1.341,0.234c-0.064,0.014-1.153,0.17-1.082,0.27
			c0.204,0.299,0.935,0.293,1.263,0.346c0.508,0.08,1.017,0.158,1.506,0.32c3.673,1.23,6.595,4.099,8.812,7.248
			c1.522,2.156,5.055,8.896,5.812,11.184c0.565-2.006-0.173-7.873-1.484-11.594c-0.679-1.928-3.097-6.98-4.746-8.041
			c-0.909-0.584-1.785-0.338-2.756-0.418c-1.031-0.086-1.894-0.053-2.959,0.084C176.843,253.75,175.842,253.858,174.831,253.989z"/>
		<linearGradient id="SVGID_22_" gradientUnits="userSpaceOnUse" x1="179.75" y1="251.5435" x2="180.2365" y2="257.6246">
			<stop  offset="0" style="stop-color:#304D5C"/>
			<stop  offset="1" style="stop-color:#000000"/>
		</linearGradient>
		<path fill="url(#SVGID_22_)" d="M206.15,251.219c-1.057,2.906-4.002,3.412-6.716,3.602c-1.873,0.129-3.8,0.102-5.647-0.277
			c-3.058-0.629-6.171-1.703-9.346-2.127c-12.332-1.648-22.339,2.598-33.005,12.527c-1.581,1.475,12.63-7.063,21.445-9.529
			c4.255-1.191,8.62-1.178,12.931-0.311c2.875,0.58,5.689,1.746,8.626,1.97c4.949,0.377,12.642,0.162,14.714-5.527
			C209.778,249.834,206.621,249.93,206.15,251.219L206.15,251.219z"/>
		
			<radialGradient id="SVGID_23_" cx="-5.6714" cy="194.5059" r="120.7808" gradientTransform="matrix(0.9623 0 0 0.9833 271.9619 -13.2618)" gradientUnits="userSpaceOnUse">
			<stop  offset="0" style="stop-color:#000000"/>
			<stop  offset="0.4196" style="stop-color:#010202"/>
			<stop  offset="0.5917" style="stop-color:#050809"/>
			<stop  offset="0.7183" style="stop-color:#0B1215"/>
			<stop  offset="0.8227" style="stop-color:#142127"/>
			<stop  offset="0.9124" style="stop-color:#20333D"/>
			<stop  offset="0.9924" style="stop-color:#2E4A59"/>
			<stop  offset="1" style="stop-color:#304D5C"/>
		</radialGradient>
		<path fill="url(#SVGID_23_)" d="M350.001,171.188c-8.324,1.041-14.668,4.802-21.044,10.244c-2.764,2.357-3.632,5.538-5.471,8.652
			c-9.92,16.825-24.16,28.704-40.387,39.375c-9.499,6.246-18.79,10.143-29.12,14.504c-7.045,2.975-13.798,6.617-21.488,7.873
			c-16.742,2.734-43.189,0.145-55.862-17.777c-11.44-16.181-15.246-42.136-13.942-61.485c3.971-58.936,54.976-103.35,113.925-99.203
			c24.189,1.701,49.83,9.13,67.21,26.437c18.334,18.261,22.044,29.69,26.307,43.201c2.26,7.165,2.723,19.084,1.735,28.345
			C364.074,169.535,357.433,170.256,350.001,171.188z"/>
		
			<linearGradient id="SVGID_24_" gradientUnits="userSpaceOnUse" x1="198.0376" y1="-499.7827" x2="348.0275" y2="-393.0075" gradientTransform="matrix(0.9976 0.0687 -0.0687 0.9976 -26.3331 628.5428)">
			<stop  offset="0" style="stop-color:#FFFFFF"/>
			<stop  offset="0.4831" style="stop-color:#FDFEFE"/>
			<stop  offset="0.6572" style="stop-color:#F6F8F8"/>
			<stop  offset="0.7812" style="stop-color:#EBEFEF"/>
			<stop  offset="0.8815" style="stop-color:#DAE2E2"/>
			<stop  offset="0.9663" style="stop-color:#C4D1D1"/>
			<stop  offset="1" style="stop-color:#B9C9C9"/>
		</linearGradient>
		<path fill="url(#SVGID_24_)" d="M344.393,182.889c0.112,8.966-7.052,26.958-10.104,34.73c-4.403,11.21-4.885,21.653-4.887,21.706
			c-0.031,0.678,3.464,2.938,3.701,4.801c0.348,2.705-1.328,6.383-2.496,8.723c-3.204,6.421-7.954,9.064-13.416,13.052
			c-4.34,3.168-7.327,10.221-12.197,12.15c-3.067,1.213-8.511-0.355-11.84-0.365c-9.573-0.031-19.166,0.898-28.731,0.133
			c-44.348-3.551-82.689-43.791-79.658-88.773c3.029-44.982,41.464-78.917,85.842-75.795
			C314.985,116.374,343.932,146.28,344.393,182.889z"/>
		
			<radialGradient id="SVGID_25_" cx="-46.3486" cy="-174.2651" r="33.0323" gradientTransform="matrix(1.4077 0.7758 -0.4383 0.8305 229.7351 419.0667)" gradientUnits="userSpaceOnUse">
			<stop  offset="0" style="stop-color:#FFC4C4"/>
			<stop  offset="0.2548" style="stop-color:#FFD7D7"/>
			<stop  offset="0.7296" style="stop-color:#FFF4F4"/>
			<stop  offset="1" style="stop-color:#FFFFFF"/>
		</radialGradient>
		<path opacity="0.5" fill="url(#SVGID_25_)" d="M288.507,263.709c6.975,15.008-34.396,16.889-57.999,1.582
			c-26.24-17.017-45.991-41.753-38.044-56.816c7.951-15.062,36.527-8.683,63.879,6.391c14.935,8.229,28.479,13.109,35.29,21.455
			C297.299,243.262,280.02,245.45,288.507,263.709z"/>
		
			<radialGradient id="SVGID_26_" cx="-8.5864" cy="-416.3516" r="89.9367" gradientTransform="matrix(0.96 0.0676 -0.0661 0.9809 246.7662 604.843)" gradientUnits="userSpaceOnUse">
			<stop  offset="0" style="stop-color:#FFFFFF"/>
			<stop  offset="0.5406" style="stop-color:#FDFEFE"/>
			<stop  offset="0.7354" style="stop-color:#F6F8F8"/>
			<stop  offset="0.8736" style="stop-color:#EBEFEF"/>
			<stop  offset="0.9852" style="stop-color:#DAE2E2"/>
			<stop  offset="1" style="stop-color:#D7E0E0"/>
		</radialGradient>
		<path fill="url(#SVGID_26_)" d="M197.33,206.095c2.988-44.342,40.177-77.843,83.062-74.826
			c27.263,1.917,49.966,16.214,62.263,37.509c-5.65-32.988-36.571-53.753-72.049-56.251c-44.378-3.121-82.813,30.813-85.842,75.795
			c-1.505,22.342,7.197,43.51,21.772,59.598C199.83,235.301,196.328,220.965,197.33,206.095z"/>
		<path opacity="0.22" fill="#E1EFEE" d="M327.286,239.274c2.684,1.438,4.805,3.965,5.953,8.014
			c3.795,13.369-5.457,24.742-16.23,28.58c-11.417,4.07-19.269,3.307-24.798-3.205c-4.586-5.4-10.199-26.326-1.404-29.529
			c4.843-1.764,9.887-1.104,14.222-2.148C312.647,239.147,319.769,235.243,327.286,239.274z"/>
		
			<radialGradient id="SVGID_27_" cx="-29.1602" cy="-393.5645" r="29.2411" gradientTransform="matrix(0.9407 0.2069 -0.1873 0.8892 274.2395 615.2211)" gradientUnits="userSpaceOnUse">
			<stop  offset="0" style="stop-color:#FFC4C4"/>
			<stop  offset="0.5219" style="stop-color:#FFB2B2"/>
			<stop  offset="1" style="stop-color:#FF9E9E"/>
		</radialGradient>
		<path fill="url(#SVGID_27_)" d="M332.476,239.274c3.041,1.283,5.582,3.711,7.22,7.746c3.357,8.268,0.332,17.093-5.283,23.48
			c-2.233,2.541-5.78,5.77-8.792,7.324c-0.843,0.436-6.202,1.727-8.871-0.377c-1.803,9.445-15.662,1.092-18.938-2.004
			c-5.488-5.184-13.607-26.058-4.411-29.884c5.065-2.105,10.587-1.76,15.172-3.104C316.633,240.096,323.949,235.67,332.476,239.274z
			"/>
		
			<linearGradient id="SVGID_28_" gradientUnits="userSpaceOnUse" x1="325.2119" y1="255.0747" x2="334.4964" y2="288.0345" gradientTransform="matrix(1.0483 0.0012 0.0012 1.0429 -28.5727 -22.4691)">
			<stop  offset="0" style="stop-color:#FFC4C4"/>
			<stop  offset="0.5219" style="stop-color:#FFB2B2"/>
			<stop  offset="1" style="stop-color:#FF9E9E"/>
		</linearGradient>
		<path fill="url(#SVGID_28_)" d="M332.249,241.827c2.855,1.203,5.242,3.473,6.785,7.24c3.08,7.531,0.468,15.66-4.642,21.527
			c-2.229,2.559-5.51,6.002-8.743,7.133c-2.257,0.791-3.425,1.266-6.448,0.707c-1.824-0.338-2.704-1.557-3.881-1.232
			c-7.016,1.949-9.387,4.141-15.555-1.652c-5.152-4.846-12.791-24.337-4.168-27.896c4.746-1.959,9.929-1.633,14.23-2.881
			C317.388,242.579,324.248,238.456,332.249,241.827z"/>
		<path opacity="0.1" fill="#79A1BF" d="M242.729,120.689c-3.641-0.005-7.74,1.22-10.285,2.267
			c-3.74,1.536-7.733,4.015-10.599,6.886c-5.513,5.523-2.2,9.713,3.811,12.337c5.794,2.53,11.728-0.695,17.045-3.025
			c4.723-2.066,10.772-12.791,5.481-16.945C246.778,121.11,244.829,120.692,242.729,120.689z"/>
		
			<linearGradient id="SVGID_29_" gradientUnits="userSpaceOnUse" x1="254.2939" y1="-508.8237" x2="230.0502" y2="-577.313" gradientTransform="matrix(0.9999 0.0123 -0.0123 0.9999 -24.7926 642.6682)">
			<stop  offset="0" style="stop-color:#D7E0E0"/>
			<stop  offset="0.5" style="stop-color:#E9EEEE"/>
			<stop  offset="1" style="stop-color:#FFFFFF"/>
		</linearGradient>
		<path fill="url(#SVGID_29_)" d="M240.974,90.854c-6.383-7.121-17.125-15.368-24.517-14.142
			c-9.834,1.629-11.81,20.938-12.184,28.656c-0.552,11.462,6.478,22.151,14.503,29.102c9.392,8.136,10.313,6.639,21.572,2.289
			C253.119,131.826,249.676,100.558,240.974,90.854z"/>
		<path opacity="0.71" fill="#FFFFFF" d="M206.048,111.681c0.326-7.535,2.174-26.379,11.896-27.915
			c7.309-1.154,17.979,6.96,24.336,13.952c1.419,1.559,2.719,3.681,3.846,6.157c-1.395-5.059-3.444-9.504-5.873-12.211
			c-6.126-6.831-16.43-14.743-23.523-13.568c-9.437,1.565-11.332,20.091-11.688,27.497c-0.143,2.956,0.246,5.86,1.032,8.654
			C206.023,113.398,206.01,112.543,206.048,111.681z"/>
		<path opacity="0.6" fill="#FFFFFF" d="M237.767,102.213c-4.507-4.98-10.012-14.247-18.946-12.42
			c-6.869,1.404-6.484,17.838-6.71,23.351c-0.333,8.186,4.641,15.701,10.298,20.533c6.62,5.658,7.729,4.485,15.597,1.205
			C246.934,131.162,243.907,109.002,237.767,102.213z"/>
		
			<radialGradient id="SVGID_30_" cx="-77.1211" cy="146.2861" r="17.8066" gradientTransform="matrix(0.7592 -0.3632 0.607 1.5101 201.6736 -124.0905)" gradientUnits="userSpaceOnUse">
			<stop  offset="0" style="stop-color:#FF9E9E"/>
			<stop  offset="0.3035" style="stop-color:#FF9B9B"/>
			<stop  offset="0.5297" style="stop-color:#FF9191"/>
			<stop  offset="0.7308" style="stop-color:#FF8181"/>
			<stop  offset="0.9163" style="stop-color:#FF6B6B"/>
			<stop  offset="1" style="stop-color:#FF5E5E"/>
		</radialGradient>
		<path fill="url(#SVGID_30_)" d="M237.646,104.451c-4.215-4.729-11.299-10.14-16.173-9.166c-6.483,1.295-7.783,14.485-8.024,19.749
			c-0.36,7.816,4.277,14.963,9.571,19.544c6.197,5.362,7.246,4.235,14.668,1.06C246.107,132.034,243.388,110.894,237.646,104.451z"
			/>
		<linearGradient id="SVGID_31_" gradientUnits="userSpaceOnUse" x1="220.0713" y1="96.2256" x2="229.414" y2="120.917">
			<stop  offset="0" style="stop-color:#D91E1E"/>
			<stop  offset="1" style="stop-color:#F96E6E"/>
		</linearGradient>
		<path opacity="0.7" fill="url(#SVGID_31_)" d="M215.729,121.698c0.242-5.263,1.54-18.452,8.026-19.748
			c4.873-0.975,11.96,4.436,16.173,9.166c0.757,0.852,1.463,1.96,2.099,3.251c-0.946-4.125-2.504-7.808-4.382-9.916
			c-4.215-4.729-11.299-10.14-16.173-9.166c-6.483,1.295-7.783,14.485-8.024,19.749c-0.175,3.815,0.84,7.466,2.541,10.742
			C215.762,124.443,215.666,123.082,215.729,121.698z"/>
		<linearGradient id="SVGID_32_" gradientUnits="userSpaceOnUse" x1="288.8838" y1="139.251" x2="288.5255" y2="150.1777">
			<stop  offset="0" style="stop-color:#D7E0E0"/>
			<stop  offset="0.4826" style="stop-color:#D9E2E2"/>
			<stop  offset="0.6998" style="stop-color:#E0E7E7"/>
			<stop  offset="0.8633" style="stop-color:#EDF1F1"/>
			<stop  offset="1" style="stop-color:#FFFFFF"/>
		</linearGradient>
		<path opacity="0.6" fill="url(#SVGID_32_)" d="M304.476,146.885c-2.684,3.578-4.695,0.67-13.174-0.269
			c-7.286-0.806-11.68-0.178-19.404,1.077c-2.126,0.346,4.268-3.422,7.464-4.29c5.029-1.363,10.25-4.868,16.771-3.965
			C298.731,139.798,309.715,139.903,304.476,146.885z"/>
		<path d="M304.996,144.678c-3.007,3.295-6.129,0.157-14.654-0.033c-7.006-0.157-10.599,0.631-18.238,2.433
			c-2.096,0.494,3.95-4.215,7.019-5.47c4.83-1.975,10.268-3.497,16.851-3.408c2.621,0.036,12.909,1.416,9.195,6.275
			C305.11,144.545,305.058,144.613,304.996,144.678z"/>
		<path fill="#FFC4C4" d="M315.234,257.066c0.58,0.885,1.158,1.34,2.038,1.896c1.098,0.695,2.154,1.146,3.295,1.357
			c0.882,0.162,2.181,0.193,3.068-0.318c0.575-0.334,0.918-0.998,1.072-1.643c0.476-1.998-1.616-3.521-3.148-4.263
			c-1.102-0.533-1.996-0.25-3.208,0.004c-1.782,0.371-2.178,0.309-3.238,1.018C314.688,255.407,314.684,256.227,315.234,257.066z"/>
		<path fill="#F96E6E" d="M315.714,256.454c0.618,1.23,1.425,2.265,2.814,2.632c0.969,0.256,2.021,0.398,3.021,0.459
			c0.539,0.033,1.354,0.119,1.811-0.26c1.588-1.314,1.036-3.093-0.381-4.277c-0.833-0.697-1.772-0.971-2.844-0.908
			c-1.635,0.092-1.149,0.309-3.267,0.648c-0.492,0.078-1.004,0.221-1.211,0.426c-0.253,0.248-0.295,0.553-0.021,1.119
			C315.662,256.348,315.688,256.399,315.714,256.454z"/>
		
			<radialGradient id="SVGID_33_" cx="356.8174" cy="-554.5176" r="3.734" gradientTransform="matrix(0.9346 0.2341 -0.1395 0.5814 -90.9158 496.1984)" gradientUnits="userSpaceOnUse">
			<stop  offset="0" style="stop-color:#FF8282"/>
			<stop  offset="0.3603" style="stop-color:#FE7E7E"/>
			<stop  offset="0.7167" style="stop-color:#F97272"/>
			<stop  offset="1" style="stop-color:#F46363"/>
		</radialGradient>
		<path fill="url(#SVGID_33_)" d="M316.723,258.119c1.018,0.795,1.977,1.301,3.021,1.602c0.921,0.264,2.664,0.729,3.463,0.066
			c1.201-0.998,1.359-2.416,0.365-3.636c-0.976-1.197-2.478-1.746-4.267-1.506c-1.47,0.195-1.922,0.35-3.479,0.697
			C315.615,255.389,314.985,256.762,316.723,258.119z"/>
		<g>
			
				<radialGradient id="SVGID_34_" cx="52.5679" cy="161.4526" r="9.6188" gradientTransform="matrix(0.833 0.4923 -0.5532 0.9773 368.0762 -38.167)" gradientUnits="userSpaceOnUse">
				<stop  offset="0" style="stop-color:#000000"/>
				<stop  offset="0.2014" style="stop-color:#020404"/>
				<stop  offset="0.4133" style="stop-color:#090E11"/>
				<stop  offset="0.6299" style="stop-color:#142026"/>
				<stop  offset="0.8484" style="stop-color:#233843"/>
				<stop  offset="1" style="stop-color:#304D5C"/>
			</radialGradient>
			<path fill="url(#SVGID_34_)" d="M328.751,147.275c-2.536,8.45-5.324,10.978-5.548,11.014c-0.263,0.045,1.094-5.404,1.382-9.42
				c0.687-9.581-2.243-16.025-2.243-16.025s2.122,1.758,4.639,4.179c1.627,1.567,3.445,4.325,3.445,4.325
				S329.338,145.322,328.751,147.275z"/>
		</g>
		<g>
			<path d="M349.55,163.235c0.602,5.279-2.088,11.906-3.206,17.723c-0.295,1.535-3.6,13.035-4.473,11.841
				c-0.262-0.358,1.555-11.377-0.167-25.887c-1.153-9.742-4.411-16.001-5.018-19.505c-0.309-1.781,2.394,1.005,4.656,0.352
				C346.208,146.35,349.224,160.356,349.55,163.235z"/>
		</g>
		<g>
			
				<radialGradient id="SVGID_35_" cx="-69.916" cy="197.5273" r="26.2882" gradientTransform="matrix(0.9623 0 0 0.9833 271.9619 -13.2618)" gradientUnits="userSpaceOnUse">
				<stop  offset="0" style="stop-color:#000000"/>
				<stop  offset="0.2014" style="stop-color:#020404"/>
				<stop  offset="0.4133" style="stop-color:#090E11"/>
				<stop  offset="0.6299" style="stop-color:#142026"/>
				<stop  offset="0.8484" style="stop-color:#233843"/>
				<stop  offset="1" style="stop-color:#304D5C"/>
			</radialGradient>
			<path fill="url(#SVGID_35_)" d="M210.165,175.915c-10.164-5.632-19.305-14.279-19.305-14.279s-2.355,2.869-4.888,15.386
				c-2.239,11.051-1.333,13.609-1.333,13.609s10.603-2.377,19.762-2.31c17.96,0.134,29.853,1.958,30.142,0.428
				C234.833,187.215,230.018,186.92,210.165,175.915z"/>
		</g>
		<g>
			
				<radialGradient id="SVGID_36_" cx="-77.2832" cy="232.6084" r="13.6834" gradientTransform="matrix(0.9623 0 0 0.9833 271.9619 -13.2618)" gradientUnits="userSpaceOnUse">
				<stop  offset="0" style="stop-color:#000000"/>
				<stop  offset="0.2014" style="stop-color:#020404"/>
				<stop  offset="0.4133" style="stop-color:#090E11"/>
				<stop  offset="0.6299" style="stop-color:#142026"/>
				<stop  offset="0.8484" style="stop-color:#233843"/>
				<stop  offset="1" style="stop-color:#304D5C"/>
			</radialGradient>
			<path fill="url(#SVGID_36_)" d="M186.818,212.322c0,0,22.553-3.412,27.418-0.314c-5.785,1.062-10.459,2.032-16.797,4.722
				c-3.126,1.325-7.786,4.82-7.786,4.82s-1.261-3.563-1.651-4.761C187.643,215.688,186.818,212.322,186.818,212.322z"/>
		</g>
		<g>
			
				<radialGradient id="SVGID_37_" cx="-68.0869" cy="258.6875" r="6.1741" gradientTransform="matrix(0.9623 0 0 0.9833 271.9619 -13.2618)" gradientUnits="userSpaceOnUse">
				<stop  offset="0" style="stop-color:#000000"/>
				<stop  offset="0.2014" style="stop-color:#020404"/>
				<stop  offset="0.4133" style="stop-color:#090E11"/>
				<stop  offset="0.6299" style="stop-color:#142026"/>
				<stop  offset="0.8484" style="stop-color:#233843"/>
				<stop  offset="1" style="stop-color:#304D5C"/>
			</radialGradient>
			<path fill="url(#SVGID_37_)" d="M204.372,246.329c0,0,7.748-4.926,8.739-10.445c-3.498,1.789-6.5,4.186-10.864,4.695
				c-1.635,0.191-2.474-0.078-2.474-0.078L204.372,246.329z"/>
		</g>
		
			<radialGradient id="SVGID_38_" cx="3.8604" cy="219.646" r="37.4681" gradientTransform="matrix(0.9462 0.1791 -0.2025 1.1169 316.4948 -43.2977)" gradientUnits="userSpaceOnUse">
			<stop  offset="0" style="stop-color:#B0CAE1"/>
			<stop  offset="0.4818" style="stop-color:#B2CBE2"/>
			<stop  offset="0.6553" style="stop-color:#B9D0E4"/>
			<stop  offset="0.779" style="stop-color:#C4D8E8"/>
			<stop  offset="0.879" style="stop-color:#D5E3EE"/>
			<stop  offset="0.9637" style="stop-color:#EBF1F5"/>
			<stop  offset="1" style="stop-color:#F7F9F9"/>
		</radialGradient>
		<path fill="url(#SVGID_38_)" d="M307.309,210.116c-2.378,12.775-13.342,27.23-13.342,27.23s-13.732,6.807-28.129,0.152
			c-12.83-5.932-29.986-16.695-24.452-41.244c5.396-23.947,25.844-34.957,43.408-31.544
			C302.359,168.124,311.613,186.97,307.309,210.116z"/>
		<path fill="#4E6472" d="M303.595,210.956c-2.058,11.066-11.557,23.592-11.557,23.592s-11.897,5.896-24.369,0.131
			c-11.116-5.141-25.979-14.464-21.185-35.731c4.674-20.745,22.389-30.285,37.608-27.328
			C299.308,174.574,307.325,190.904,303.595,210.956z"/>
		
			<radialGradient id="SVGID_39_" cx="-26.8867" cy="-458.9824" r="31.5602" gradientTransform="matrix(0.9235 -0.0506 0.0334 0.9807 316.0235 653.1439)" gradientUnits="userSpaceOnUse">
			<stop  offset="0" style="stop-color:#FFFFFF"/>
			<stop  offset="0.2382" style="stop-color:#FBFCFC"/>
			<stop  offset="0.3637" style="stop-color:#F6F8F8"/>
			<stop  offset="1" style="stop-color:#D7E0E0"/>
		</radialGradient>
		<path fill="url(#SVGID_39_)" d="M303.313,210.713c-1.975,10.623-11.105,22.641-11.105,22.641s-11.435,5.656-23.426,0.117
			c-10.69-4.936-24.979-13.89-20.377-34.302c4.489-19.91,21.518-29.061,36.147-26.219
			C299.181,175.792,306.894,191.468,303.313,210.713z"/>
		<path fill="#00497A" d="M292.861,176.395c-13.429-4.594-29.135,4.662-35.549,21.205c-4.074,10.509-3.44,21.499,0.857,29.668
			c3.417,2.639,7.197,4.627,10.612,6.204c11.991,5.539,23.426-0.117,23.426-0.117s9.131-12.018,11.105-22.641
			C306.137,195.538,301.934,182.588,292.861,176.395z"/>
		
			<radialGradient id="SVGID_40_" cx="9.0361" cy="225.437" r="23.1286" gradientTransform="matrix(0.9273 0.2628 -0.3053 1.1247 341.0983 -47.5112)" gradientUnits="userSpaceOnUse">
			<stop  offset="0" style="stop-color:#00C7F7"/>
			<stop  offset="0.4904" style="stop-color:#00C5F6"/>
			<stop  offset="0.667" style="stop-color:#00BEF2"/>
			<stop  offset="0.793" style="stop-color:#00B3EC"/>
			<stop  offset="0.8947" style="stop-color:#00A2E3"/>
			<stop  offset="0.9809" style="stop-color:#008CD7"/>
			<stop  offset="1" style="stop-color:#0086D4"/>
		</radialGradient>
		<path fill="url(#SVGID_40_)" d="M292.881,179.679c-12.392-5.017-27.286,3.425-33.266,18.853
			c-4.878,12.583-2.317,25.927,5.513,33.139c1.242,0.658,2.47,1.254,3.654,1.801c7.809,3.605,15.379,2.467,19.713,1.23
			c1.683-0.795,3.319-1.789,4.876-2.961c2.521-3.625,8.404-12.75,9.942-21.027c1.849-9.94,0.68-18.921-2.894-25.68
			C298.345,182.714,295.818,180.869,292.881,179.679z"/>
		
			<radialGradient id="SVGID_41_" cx="18.5645" cy="228.3379" r="18.5488" fx="20.8376" fy="228.1701" gradientTransform="matrix(0.9132 0.3101 -0.3948 1.2139 363.024 -71.6673)" gradientUnits="userSpaceOnUse">
			<stop  offset="0" style="stop-color:#000000"/>
			<stop  offset="0.4791" style="stop-color:#000002"/>
			<stop  offset="0.6517" style="stop-color:#000209"/>
			<stop  offset="0.7747" style="stop-color:#010414"/>
			<stop  offset="0.8741" style="stop-color:#010825"/>
			<stop  offset="0.9583" style="stop-color:#020D3B"/>
			<stop  offset="1" style="stop-color:#021049"/>
		</radialGradient>
		<path fill="url(#SVGID_41_)" d="M295.337,186.454c-10.602-4.292-23.343,2.931-28.458,16.128
			c-5.119,13.198-0.673,27.375,9.926,31.668c3.517,1.424,7.27,1.574,10.899,0.666c0.246-0.064,0.483-0.129,0.713-0.191
			c1.347-0.391,2.674-0.926,3.961-1.598c1.233-1.67,9.113-12.631,10.936-22.414c1.202-6.457,1.126-12.509-0.052-17.813
			C301.269,190.029,298.594,187.774,295.337,186.454z"/>
		<linearGradient id="SVGID_42_" gradientUnits="userSpaceOnUse" x1="277.3467" y1="169.2075" x2="276.8909" y2="181.0567">
			<stop  offset="0" style="stop-color:#B0CAE1"/>
			<stop  offset="0.1123" style="stop-color:#A8C4DC"/>
			<stop  offset="0.6884" style="stop-color:#86ABC7"/>
			<stop  offset="1" style="stop-color:#79A1BF"/>
		</linearGradient>
		<path fill="url(#SVGID_42_)" d="M296.665,181.561c0.987,0.363,1.96,0.611,2.904,0.625c-0.074-0.001-3.457-4.492-3.766-4.804
			c-2.216-2.232-4.781-4.221-7.78-5.193c-8.424-2.733-18.987-0.677-26.502,3.782c-2.433,1.44-11.851,8.68-4.926,7.463
			c3.356-0.588,6.854-2.664,10.284-3.456c3.711-0.858,7.487-1.439,11.268-1.852c3.58-0.393,7.845-0.151,11.189,0.48
			C291.671,179.047,294.207,180.657,296.665,181.561z"/>
		<path d="M297.889,181.345c-9.358-4.712-17.907-4.974-28.189-2.954c-5.493,1.08-10.133,3.362-15.722,3.987
			c-5.463,0.611-12.64-2.993-14.714-5.854c-0.749-1.039-1.287,0.615-0.466,1.575c2.884,3.366,7.724,5.702,12.488,6.327
			c2.47,0.324,5.199-0.345,7.593-0.912c2.881-0.683,5.782-1.281,8.638-2.048c13.685-3.677,23.121-1.146,33.44,4.163
			c1.122,0.578-0.258-2.874-1.388-3.442L297.889,181.345z"/>
		<path d="M246.107,169.476c0.129,4.315,2.464,7.782,5.755,10.318c2.501,1.927,6.161,3.659,9.369,3.058
			c1.238-0.231,0.714-2.159-0.522-1.927c-2.456,0.458-5.296-1.111-7.261-2.427c-3.022-2.03-5.273-5.253-5.383-9.022
			C248.027,168.189,246.069,168.185,246.107,169.476L246.107,169.476z"/>
		<path d="M267.859,179.024c-5.666,1.837-10.773-6.367-9.484-11.396c0.318-1.249-1.567-1.777-1.888-0.532
			c-1.657,6.461,4.752,16.173,11.893,13.856C269.576,180.565,269.065,178.635,267.859,179.024L267.859,179.024z"/>
		
			<radialGradient id="SVGID_43_" cx="-57.5659" cy="167.2764" r="23.0527" gradientTransform="matrix(0.9623 0 0 0.9833 271.9619 -13.2618)" gradientUnits="userSpaceOnUse">
			<stop  offset="0" style="stop-color:#000000"/>
			<stop  offset="0.2014" style="stop-color:#020404"/>
			<stop  offset="0.4133" style="stop-color:#090E11"/>
			<stop  offset="0.6299" style="stop-color:#142026"/>
			<stop  offset="0.8484" style="stop-color:#233843"/>
			<stop  offset="1" style="stop-color:#304D5C"/>
		</radialGradient>
		<path fill="url(#SVGID_43_)" d="M199.619,146.348c0,0,12.222,4.518,16.883,6.739c6.838,3.255,20.876,11.016,20.876,11.016
			c0.984-1.304-12.972-14.084-19.607-19.717c-3.273-2.776-6.915-5.542-11.034-6.712c-0.281-0.08-2.636,2.587-4.489,4.965
			C200.724,144.6,199.619,146.348,199.619,146.348z"/>
		
			<radialGradient id="SVGID_44_" cx="-0.0933" cy="138.4106" r="10.6774" gradientTransform="matrix(0.9121 0.3136 -0.3692 1.1213 323.0617 -32.3371)" gradientUnits="userSpaceOnUse">
			<stop  offset="0" style="stop-color:#000000"/>
			<stop  offset="0.2014" style="stop-color:#020404"/>
			<stop  offset="0.4133" style="stop-color:#090E11"/>
			<stop  offset="0.6299" style="stop-color:#142026"/>
			<stop  offset="0.8484" style="stop-color:#233843"/>
			<stop  offset="1" style="stop-color:#304D5C"/>
		</radialGradient>
		<path fill="url(#SVGID_44_)" d="M269.102,126.643c3.929-8.714,11.16-12.981,11.16-12.981s-3.62-1-6.178-1.217
			c-2.634-0.224-4.645-0.006-4.645-0.006s-3.464,7.489-4.307,13.399c-0.469,3.296-1.599,9.858,0.52,11.577
			C266.323,134.77,266.945,131.428,269.102,126.643z"/>
		<linearGradient id="SVGID_45_" gradientUnits="userSpaceOnUse" x1="279.8262" y1="78.459" x2="276.6297" y2="109.964">
			<stop  offset="0" style="stop-color:#FFFFFF"/>
			<stop  offset="0.5" style="stop-color:#E9EEEE"/>
			<stop  offset="1" style="stop-color:#D7E0E0"/>
		</linearGradient>
		<path fill="url(#SVGID_45_)" d="M286.021,112.064c0,0-3.182-0.937-10.93-1.754c-6.856-0.722-10.143-0.498-10.143-0.498
			l-2.926-32.142c0,0,5.916-0.863,17.396,0.069c11.811,0.959,18.037,3.195,18.037,3.195L286.021,112.064z"/>
		<linearGradient id="SVGID_46_" gradientUnits="userSpaceOnUse" x1="176.9653" y1="132.5986" x2="197.2666" y2="147.4862">
			<stop  offset="0" style="stop-color:#FFFFFF"/>
			<stop  offset="0.5" style="stop-color:#E9EEEE"/>
			<stop  offset="1" style="stop-color:#D7E0E0"/>
		</linearGradient>
		<path fill="url(#SVGID_46_)" d="M201.475,139.054c0,0-2.117,2.786-6.135,8.758c-3.554,5.283-4.656,8.133-4.656,8.133
			l-19.897-7.979c0,0,1.658-4.99,6.457-14.655c4.137-8.332,9.31-13.582,9.31-13.582L201.475,139.054z"/>
		<linearGradient id="SVGID_47_" gradientUnits="userSpaceOnUse" x1="166.1558" y1="188.5361" x2="182.9387" y2="188.9896">
			<stop  offset="0" style="stop-color:#FFFFFF"/>
			<stop  offset="0.5" style="stop-color:#E9EEEE"/>
			<stop  offset="1" style="stop-color:#D7E0E0"/>
		</linearGradient>
		<path fill="url(#SVGID_47_)" d="M182.742,181.029c0,0-0.896,2.497-0.839,8.028c0.051,4.788,0.173,7.002,0.173,7.002l-15.49,4.59
			c0,0-0.912-3.957-1.442-11.946c-0.54-8.215,0-12.297,0-12.297L182.742,181.029z"/>
		<linearGradient id="SVGID_48_" gradientUnits="userSpaceOnUse" x1="177.6118" y1="233.8877" x2="189.4481" y2="227.0591">
			<stop  offset="0" style="stop-color:#FFFFFF"/>
			<stop  offset="0.5" style="stop-color:#E9EEEE"/>
			<stop  offset="1" style="stop-color:#D7E0E0"/>
		</linearGradient>
		<path fill="url(#SVGID_48_)" d="M185.759,219.922c0,0,0.592,2.651,2.462,6.761c1.979,4.34,4.146,7.043,4.146,7.043l-5.429,8.061
			c0,0-3.8-1.895-8.563-8.25c-4.897-6.54-5.133-10.409-5.133-10.409L185.759,219.922z"/>
		<linearGradient id="SVGID_49_" gradientUnits="userSpaceOnUse" x1="343.7656" y1="110.5635" x2="322.4932" y2="125.952">
			<stop  offset="0" style="stop-color:#FFFFFF"/>
			<stop  offset="0.5" style="stop-color:#E9EEEE"/>
			<stop  offset="1" style="stop-color:#D7E0E0"/>
		</linearGradient>
		<path fill="url(#SVGID_49_)" d="M332.496,139.607c0,0-2.007-2.566-7.753-7.563c-5.075-4.417-7.845-6.046-7.845-6.046
			l16.289-29.188c0,0,2.952,1.632,10.718,9.796c6.259,6.583,7.895,8.842,12.137,16.484L332.496,139.607z"/>
		
			<radialGradient id="SVGID_50_" cx="9.2739" cy="192.7466" r="13.6723" gradientTransform="matrix(0.8478 0 0 0.7472 342.3928 32.918)" gradientUnits="userSpaceOnUse">
			<stop  offset="0" style="stop-color:#000000"/>
			<stop  offset="0.4196" style="stop-color:#010202"/>
			<stop  offset="0.5917" style="stop-color:#050809"/>
			<stop  offset="0.7183" style="stop-color:#0B1215"/>
			<stop  offset="0.8227" style="stop-color:#142127"/>
			<stop  offset="0.9124" style="stop-color:#20333D"/>
			<stop  offset="0.9924" style="stop-color:#2E4A59"/>
			<stop  offset="1" style="stop-color:#304D5C"/>
		</radialGradient>
		<path fill="url(#SVGID_50_)" d="M347.563,173.678c2.551-2.128,6.155-2.269,8.906-0.861c1.554,0.795,2.475,1.927,3.325,3.514
			c1.281,2.39,0.356,4.82,0.036,5.972c-0.481,1.73,3.972-2.97,2.305-7.113c-0.813-2.021-2.334-3.638-4.125-4.657
			c-3.566-2.032-8.49-1.988-11.752,0.733c-0.558,0.463-0.855,1.189-0.465,1.909C346.116,173.771,347.002,174.143,347.563,173.678
			L347.563,173.678z"/>
		<g>
			<linearGradient id="SVGID_51_" gradientUnits="userSpaceOnUse" x1="216.7988" y1="318.9434" x2="224.0986" y2="318.9434">
				<stop  offset="0" style="stop-color:#304D5C"/>
				<stop  offset="0.3278" style="stop-color:#1E3039"/>
				<stop  offset="0.7716" style="stop-color:#080D10"/>
				<stop  offset="1" style="stop-color:#000000"/>
			</linearGradient>
			<path fill="url(#SVGID_51_)" d="M218.411,320.289c-0.469,0.059-1.612-0.01-1.612-0.01s0.175-0.871,0.232-1.1
				c0.147-0.566,0.333-0.994,0.563-1.531c0.633,0.215,1.497,0.43,2.914,0.406c0.812-0.016,2.848-0.238,3.59-0.48
				c-0.51,0.814-2.616,1.869-3.179,2.105C220.122,320.021,219.274,320.18,218.411,320.289z"/>
		</g>
		<g>
			<linearGradient id="SVGID_52_" gradientUnits="userSpaceOnUse" x1="151.5928" y1="325.5156" x2="165.9521" y2="325.5156">
				<stop  offset="0" style="stop-color:#304D5C"/>
				<stop  offset="0.3278" style="stop-color:#1E3039"/>
				<stop  offset="0.7716" style="stop-color:#080D10"/>
				<stop  offset="1" style="stop-color:#000000"/>
			</linearGradient>
			<path fill="url(#SVGID_52_)" d="M157.524,325.918c4.547,3.045,5.671,3.074,8.428,3.859c-2.269,0.215-6.153,0.068-10.356-1.549
				c-2.404-0.928-4.003-2.313-4.003-2.313s1.379-3.947,1.932-4.738C153.695,322.326,155.9,324.83,157.524,325.918z"/>
		</g>
		<g>
			<linearGradient id="SVGID_53_" gradientUnits="userSpaceOnUse" x1="213.4561" y1="327.7656" x2="228.2422" y2="327.7656">
				<stop  offset="0" style="stop-color:#304D5C"/>
				<stop  offset="0.3278" style="stop-color:#1E3039"/>
				<stop  offset="0.7716" style="stop-color:#080D10"/>
				<stop  offset="1" style="stop-color:#000000"/>
			</linearGradient>
			<path fill="url(#SVGID_53_)" d="M228.242,326.1c-3.658,1.703-10.664,4.514-14.773,3.934c-0.067-0.012,0.141-1.23,0.42-2.229
				c0.272-0.975,0.924-2.385,0.924-2.385s0.627,0.588,1.635,0.98c1.196,0.463,1.925,0.623,2.813,0.711
				c0.945,0.092,1.929-0.018,2.866-0.141c0.965-0.127,1.923-0.318,2.877-0.498c0.865-0.164,1.737-0.322,2.617-0.381
				C227.716,326.086,228.144,326.102,228.242,326.1z"/>
		</g>
		<g>
			<linearGradient id="SVGID_54_" gradientUnits="userSpaceOnUse" x1="247.3003" y1="303.5801" x2="240.313" y2="283.6162">
				<stop  offset="0" style="stop-color:#304D5C"/>
				<stop  offset="0.3278" style="stop-color:#1E3039"/>
				<stop  offset="0.7716" style="stop-color:#080D10"/>
				<stop  offset="1" style="stop-color:#000000"/>
			</linearGradient>
			<path fill="url(#SVGID_54_)" d="M243.261,283.668c-0.794-0.967-2.725-2.443-4.286-3.371c0.5,0.783,2.233,2.572,3.576,7.361
				c0.549,1.955,0.936,3.963,1.121,5.984c0.553,6.078,0.527,11.172,0.625,12.775c0.481-0.973,3.099-4.338,3.392-5.357
				c0.305-1.051-0.187-6.654-0.494-8.299C246.573,289.479,245.385,286.254,243.261,283.668z"/>
		</g>
		
			<radialGradient id="SVGID_55_" cx="11.7891" cy="218.3159" r="8.5906" gradientTransform="matrix(0.9623 0 0 0.9833 271.9619 -13.2618)" gradientUnits="userSpaceOnUse">
			<stop  offset="0" style="stop-color:#FFFFFF"/>
			<stop  offset="0.3726" style="stop-color:#FDFDFD"/>
			<stop  offset="0.5069" style="stop-color:#F6F6F6"/>
			<stop  offset="0.6026" style="stop-color:#EBEBEB"/>
			<stop  offset="0.68" style="stop-color:#DADADA"/>
			<stop  offset="0.7463" style="stop-color:#C4C4C4"/>
			<stop  offset="0.805" style="stop-color:#A8A8A8"/>
			<stop  offset="0.8581" style="stop-color:#888888"/>
			<stop  offset="0.9069" style="stop-color:#626262"/>
			<stop  offset="0.9523" style="stop-color:#373737"/>
			<stop  offset="0.9926" style="stop-color:#090909"/>
			<stop  offset="1" style="stop-color:#000000"/>
		</radialGradient>
		<ellipse fill="url(#SVGID_55_)" cx="283.307" cy="201.409" rx="8.267" ry="8.447"/>
		
			<radialGradient id="SVGID_56_" cx="1.7656" cy="236.9307" r="5.25" gradientTransform="matrix(0.9623 0 0 0.9833 271.9619 -13.2618)" gradientUnits="userSpaceOnUse">
			<stop  offset="0" style="stop-color:#FFFFFF"/>
			<stop  offset="0.3726" style="stop-color:#FDFDFD"/>
			<stop  offset="0.5069" style="stop-color:#F6F6F6"/>
			<stop  offset="0.6026" style="stop-color:#EBEBEB"/>
			<stop  offset="0.68" style="stop-color:#DADADA"/>
			<stop  offset="0.7463" style="stop-color:#C4C4C4"/>
			<stop  offset="0.805" style="stop-color:#A8A8A8"/>
			<stop  offset="0.8581" style="stop-color:#888888"/>
			<stop  offset="0.9069" style="stop-color:#626262"/>
			<stop  offset="0.9523" style="stop-color:#373737"/>
			<stop  offset="0.9926" style="stop-color:#090909"/>
			<stop  offset="1" style="stop-color:#000000"/>
		</radialGradient>
		<ellipse fill="url(#SVGID_56_)" cx="273.661" cy="219.712" rx="5.052" ry="5.163"/>
		<path opacity="0.8" fill="#FFC4C4" d="M312.314,275.27c0.207,1.105,1.018,2.031,2.015,2.525c0.247,0.119,2.153-0.414,2.153-0.414
			s-0.761,3.121-3.539,3.26c-0.8,0.041-2.13-0.877-2.498-1.602c-0.595-1.166-0.508-2.627-0.105-3.824
			c0.314-0.93,1.692-3.592,2.679-4.27C312.887,271.955,312.119,274.232,312.314,275.27z"/>
		<linearGradient id="SVGID_57_" gradientUnits="userSpaceOnUse" x1="314.0596" y1="274.957" x2="311.2208" y2="275.8238">
			<stop  offset="0" style="stop-color:#D91E1E"/>
			<stop  offset="1" style="stop-color:#F96E6E"/>
		</linearGradient>
		<path fill="url(#SVGID_57_)" d="M313.129,274.15c0.214,1.098,1.003,2.023,1.966,2.523c0.24,0.123,1.566,0.551,1.566,0.551
			s-0.869,2.273-3.009,2.086c-0.768-0.066-1.618-0.523-1.983-1.244c-0.584-1.164-0.599-2.863-0.227-4.043
			c0.292-0.916,1.09-2.264,1.69-3.221C313.021,271.799,312.929,273.121,313.129,274.15z"/>
		
			<radialGradient id="SVGID_58_" cx="-102.8037" cy="176.0635" r="6.2673" gradientTransform="matrix(0.9623 0 0 0.9833 271.9619 -13.2618)" gradientUnits="userSpaceOnUse">
			<stop  offset="0" style="stop-color:#737E99"/>
			<stop  offset="0.2376" style="stop-color:#6F7B95"/>
			<stop  offset="0.4875" style="stop-color:#62728A"/>
			<stop  offset="0.7429" style="stop-color:#4D6277"/>
			<stop  offset="1" style="stop-color:#304D5C"/>
		</radialGradient>
		<ellipse opacity="0.6" fill="url(#SVGID_58_)" cx="173.034" cy="159.861" rx="6.031" ry="6.163"/>
		
			<radialGradient id="SVGID_59_" cx="-81.2388" cy="259.3818" r="2.667" gradientTransform="matrix(0.9623 0 0 0.9833 271.9619 -13.2618)" gradientUnits="userSpaceOnUse">
			<stop  offset="0" style="stop-color:#737E99"/>
			<stop  offset="0.2376" style="stop-color:#6F7B95"/>
			<stop  offset="0.4875" style="stop-color:#62728A"/>
			<stop  offset="0.7429" style="stop-color:#4D6277"/>
			<stop  offset="1" style="stop-color:#304D5C"/>
		</radialGradient>
		<ellipse opacity="0.6" fill="url(#SVGID_59_)" cx="193.786" cy="241.788" rx="2.566" ry="2.623"/>
		
			<radialGradient id="SVGID_60_" cx="-97.4668" cy="189.2939" r="3.7712" gradientTransform="matrix(0.9623 0 0 0.9833 271.9619 -13.2618)" gradientUnits="userSpaceOnUse">
			<stop  offset="0" style="stop-color:#737E99"/>
			<stop  offset="0.1546" style="stop-color:#707B95"/>
			<stop  offset="0.3171" style="stop-color:#667088"/>
			<stop  offset="0.4835" style="stop-color:#575F73"/>
			<stop  offset="0.6523" style="stop-color:#404756"/>
			<stop  offset="0.8232" style="stop-color:#242730"/>
			<stop  offset="0.9935" style="stop-color:#010202"/>
			<stop  offset="1" style="stop-color:#000000"/>
		</radialGradient>
		<ellipse opacity="0.6" fill="url(#SVGID_60_)" cx="178.17" cy="172.871" rx="3.629" ry="3.709"/>
		
			<radialGradient id="SVGID_61_" cx="-70.7085" cy="140.0029" r="4.6997" gradientTransform="matrix(0.9623 0 0 0.9833 271.9619 -13.2618)" gradientUnits="userSpaceOnUse">
			<stop  offset="0" style="stop-color:#737E99"/>
			<stop  offset="0.1546" style="stop-color:#707B95"/>
			<stop  offset="0.3171" style="stop-color:#667088"/>
			<stop  offset="0.4835" style="stop-color:#575F73"/>
			<stop  offset="0.6523" style="stop-color:#404756"/>
			<stop  offset="0.8232" style="stop-color:#242730"/>
			<stop  offset="0.9935" style="stop-color:#010202"/>
			<stop  offset="1" style="stop-color:#000000"/>
		</radialGradient>
		<ellipse opacity="0.6" fill="url(#SVGID_61_)" cx="203.919" cy="124.404" rx="4.522" ry="4.621"/>
		
			<radialGradient id="SVGID_62_" cx="88.6816" cy="151.6914" r="6.7312" gradientTransform="matrix(0.9623 0 0 0.9833 271.9619 -13.2618)" gradientUnits="userSpaceOnUse">
			<stop  offset="0" style="stop-color:#737E99"/>
			<stop  offset="0.2376" style="stop-color:#6F7B95"/>
			<stop  offset="0.4875" style="stop-color:#62728A"/>
			<stop  offset="0.7429" style="stop-color:#4D6277"/>
			<stop  offset="1" style="stop-color:#304D5C"/>
		</radialGradient>
		<ellipse opacity="0.6" fill="url(#SVGID_62_)" cx="357.3" cy="135.897" rx="6.478" ry="6.618"/>
		
			<radialGradient id="SVGID_63_" cx="74.7534" cy="163.7617" r="4.8738" gradientTransform="matrix(0.9623 0 0 0.9833 271.9619 -13.2618)" gradientUnits="userSpaceOnUse">
			<stop  offset="0" style="stop-color:#737E99"/>
			<stop  offset="0.1546" style="stop-color:#707B95"/>
			<stop  offset="0.3171" style="stop-color:#667088"/>
			<stop  offset="0.4835" style="stop-color:#575F73"/>
			<stop  offset="0.6523" style="stop-color:#404756"/>
			<stop  offset="0.8232" style="stop-color:#242730"/>
			<stop  offset="0.9935" style="stop-color:#010202"/>
			<stop  offset="1" style="stop-color:#000000"/>
		</radialGradient>
		<ellipse opacity="0.6" fill="url(#SVGID_63_)" cx="343.897" cy="147.764" rx="4.689" ry="4.794"/>
		
			<radialGradient id="SVGID_64_" cx="35.7598" cy="109.9131" r="7.6597" gradientTransform="matrix(0.9623 0 0 0.9833 271.9619 -13.2618)" gradientUnits="userSpaceOnUse">
			<stop  offset="0" style="stop-color:#737E99"/>
			<stop  offset="0.2376" style="stop-color:#6F7B95"/>
			<stop  offset="0.4875" style="stop-color:#62728A"/>
			<stop  offset="0.7429" style="stop-color:#4D6277"/>
			<stop  offset="1" style="stop-color:#304D5C"/>
		</radialGradient>
		<ellipse opacity="0.6" fill="url(#SVGID_64_)" cx="306.374" cy="94.814" rx="7.371" ry="7.533"/>
		
			<radialGradient id="SVGID_65_" cx="39.0107" cy="129.873" r="4.4094" gradientTransform="matrix(0.9623 0 0 0.9833 271.9619 -13.2618)" gradientUnits="userSpaceOnUse">
			<stop  offset="0" style="stop-color:#737E99"/>
			<stop  offset="0.1546" style="stop-color:#707B95"/>
			<stop  offset="0.3171" style="stop-color:#667088"/>
			<stop  offset="0.4835" style="stop-color:#575F73"/>
			<stop  offset="0.6523" style="stop-color:#404756"/>
			<stop  offset="0.8232" style="stop-color:#242730"/>
			<stop  offset="0.9935" style="stop-color:#010202"/>
			<stop  offset="1" style="stop-color:#000000"/>
		</radialGradient>
		<ellipse opacity="0.6" fill="url(#SVGID_65_)" cx="309.502" cy="114.443" rx="4.243" ry="4.336"/>
		
			<radialGradient id="SVGID_66_" cx="-19.4795" cy="103.4121" r="4.4097" gradientTransform="matrix(0.9623 0 0 0.9833 271.9619 -13.2618)" gradientUnits="userSpaceOnUse">
			<stop  offset="0" style="stop-color:#737E99"/>
			<stop  offset="0.2376" style="stop-color:#6F7B95"/>
			<stop  offset="0.4875" style="stop-color:#62728A"/>
			<stop  offset="0.7429" style="stop-color:#4D6277"/>
			<stop  offset="1" style="stop-color:#304D5C"/>
		</radialGradient>
		<ellipse opacity="0.6" fill="url(#SVGID_66_)" cx="253.217" cy="88.424" rx="4.243" ry="4.336"/>
		
			<radialGradient id="SVGID_67_" cx="93.6191" cy="178.2305" r="5.2419" gradientTransform="matrix(0.9623 0 0 0.9833 271.9619 -13.2618)" gradientUnits="userSpaceOnUse">
			<stop  offset="0" style="stop-color:#646A6D"/>
			<stop  offset="1" style="stop-color:#273E4A"/>
		</radialGradient>
		<ellipse opacity="0.65" fill="url(#SVGID_67_)" cx="362.052" cy="161.991" rx="5.044" ry="5.155"/>
		<linearGradient id="SVGID_68_" gradientUnits="userSpaceOnUse" x1="345.334" y1="159.4443" x2="371.5264" y2="159.4443">
			<stop  offset="0" style="stop-color:#000000"/>
			<stop  offset="0.0207" style="stop-color:#020404"/>
			<stop  offset="0.1938" style="stop-color:#131E24"/>
			<stop  offset="0.374" style="stop-color:#20333D"/>
			<stop  offset="0.5621" style="stop-color:#29414E"/>
			<stop  offset="0.7633" style="stop-color:#2E4A59"/>
			<stop  offset="1" style="stop-color:#304D5C"/>
		</linearGradient>
		<path fill="url(#SVGID_68_)" d="M345.618,167.342c2.215-5.433,7.015-11.255,11.193-12.941c4.484-1.809,10.946-1.072,14.614,2.189
			c0.947,0.841-4.874-7.583-14.732-4.268c-4.847,1.628-8.973,5.605-11.14,10.321C345.023,163.803,345.618,167.342,345.618,167.342z"
			/>
		
			<linearGradient id="SVGID_69_" gradientUnits="userSpaceOnUse" x1="-225.3315" y1="300.0186" x2="-197.9409" y2="300.0186" gradientTransform="matrix(-0.406 0.3669 0.6705 0.7419 -110.665 63.7056)">
			<stop  offset="0" style="stop-color:#000000"/>
			<stop  offset="0.0207" style="stop-color:#020404"/>
			<stop  offset="0.1938" style="stop-color:#131E24"/>
			<stop  offset="0.374" style="stop-color:#20333D"/>
			<stop  offset="0.5621" style="stop-color:#29414E"/>
			<stop  offset="0.7633" style="stop-color:#2E4A59"/>
			<stop  offset="1" style="stop-color:#304D5C"/>
		</linearGradient>
		<path fill="url(#SVGID_69_)" d="M184.347,208.424c-2.998-1.44-6.029-2.761-11.342-1.145c-2.893,0.882-5.355,2.832-5.355,2.832
			s0.914-2.452,6.072-4.434c1.755-0.674,5.773-2.163,9.654-0.406C184.447,205.757,184.347,208.424,184.347,208.424z"/>
		
			<linearGradient id="SVGID_70_" gradientUnits="userSpaceOnUse" x1="-222.606" y1="302.1797" x2="-199.792" y2="302.1797" gradientTransform="matrix(-0.406 0.3669 0.6705 0.7419 -110.665 63.7056)">
			<stop  offset="0" style="stop-color:#000000"/>
			<stop  offset="0.0207" style="stop-color:#020404"/>
			<stop  offset="0.1938" style="stop-color:#131E24"/>
			<stop  offset="0.374" style="stop-color:#20333D"/>
			<stop  offset="0.5621" style="stop-color:#29414E"/>
			<stop  offset="0.7633" style="stop-color:#2E4A59"/>
			<stop  offset="1" style="stop-color:#304D5C"/>
		</linearGradient>
		<path fill="url(#SVGID_70_)" d="M184.583,209.565c-2.998-1.443-5.896-1.926-10.531,0.049c-2.792,1.188-3.478,2.222-3.478,2.222
			s0.725-1.729,3.823-3.101c1.722-0.759,5.776-2.161,9.655-0.403C185.122,208.817,184.583,209.565,184.583,209.565z"/>
		<linearGradient id="SVGID_71_" gradientUnits="userSpaceOnUse" x1="314.3525" y1="111.041" x2="333.1875" y2="111.041">
			<stop  offset="0" style="stop-color:#1F1F1F"/>
			<stop  offset="0.1013" style="stop-color:#222628"/>
			<stop  offset="0.4581" style="stop-color:#293B45"/>
			<stop  offset="0.7698" style="stop-color:#2E4856"/>
			<stop  offset="1" style="stop-color:#304D5C"/>
		</linearGradient>
		<path fill="url(#SVGID_71_)" d="M333.188,96.81l-0.942-0.726c0,0-1.413,3.399-1.9,4.571
			c-5.217,12.534-15.992,23.615-15.992,23.615l2.546,1.729c0,0,5.654-8.479,9.45-14.401
			C329.938,105.987,333.188,96.81,333.188,96.81z"/>
		
			<linearGradient id="SVGID_72_" gradientUnits="userSpaceOnUse" x1="165.1865" y1="-7.8398" x2="186.0991" y2="-7.8398" gradientTransform="matrix(0.7612 -0.5948 0.6056 0.775 133.5381 204.6149)">
			<stop  offset="0" style="stop-color:#1F1F1F"/>
			<stop  offset="0.1013" style="stop-color:#222628"/>
			<stop  offset="0.4581" style="stop-color:#293B45"/>
			<stop  offset="0.7698" style="stop-color:#2E4856"/>
			<stop  offset="1" style="stop-color:#304D5C"/>
		</linearGradient>
		<path fill="url(#SVGID_72_)" d="M262.442,77.601h-1.631c0,0,0.866,8.209,1.285,14.859c0.28,4.44,0.037,17.556,0.037,17.556
			l2.963-0.21c0,0-0.452-13.381-0.793-17.774C263.671,83.986,262.442,77.601,262.442,77.601z"/>
		
			<linearGradient id="SVGID_73_" gradientUnits="userSpaceOnUse" x1="-35.5894" y1="-15.7139" x2="-16.605" y2="-15.7139" gradientTransform="matrix(-0.7077 0.1402 0.149 0.7523 177.9014 144.7196)">
			<stop  offset="0" style="stop-color:#1F1F1F"/>
			<stop  offset="0.1013" style="stop-color:#222628"/>
			<stop  offset="0.4581" style="stop-color:#293B45"/>
			<stop  offset="0.7698" style="stop-color:#2E4856"/>
			<stop  offset="1" style="stop-color:#304D5C"/>
		</linearGradient>
		<path fill="url(#SVGID_73_)" d="M185.39,120.866l1.254-1.454c0,0,1.881,2.56,6.064,8.073c5.388,7.103,9.974,10.191,9.974,10.191
			l-1.207,1.378c0,0-5.336-4.068-9.54-9.602C188.241,124.593,185.39,120.866,185.39,120.866z"/>
		<linearGradient id="SVGID_74_" gradientUnits="userSpaceOnUse" x1="297.2852" y1="80.3125" x2="286.8141" y2="111.2704">
			<stop  offset="0" style="stop-color:#304D5C"/>
			<stop  offset="0.3485" style="stop-color:#2B404A"/>
			<stop  offset="1" style="stop-color:#1F1F1F"/>
		</linearGradient>
		<path fill="url(#SVGID_74_)" d="M297.457,80.934c-3.23,4.003-6.458,9.813-7.971,14.709c-2.05,6.627-3.552,16.402-3.552,16.402
			l2.525,0.691c0,0,1.973-11.51,3.757-16.571c2.646-7.5,6.802-13.78,7.085-14.128C299.81,81.407,297.457,80.934,297.457,80.934z"/>
		
			<linearGradient id="SVGID_75_" gradientUnits="userSpaceOnUse" x1="710.5928" y1="309.5801" x2="701.3784" y2="336.8227" gradientTransform="matrix(-0.4051 -0.7591 -0.8823 0.4707 916.415 514.8158)">
			<stop  offset="0" style="stop-color:#304D5C"/>
			<stop  offset="0.3485" style="stop-color:#2B404A"/>
			<stop  offset="1" style="stop-color:#1F1F1F"/>
		</linearGradient>
		<path fill="url(#SVGID_75_)" d="M356.704,123.849c-2.354,2.366-5.36,4.637-9.381,8.083c-5.148,4.413-13.271,9.264-13.271,9.264
			l-1.617-1.637c0,0,9.339-6.5,13.332-9.881c5.532-4.683,9.489-8.15,9.489-8.15L356.704,123.849z"/>
		<linearGradient id="SVGID_76_" gradientUnits="userSpaceOnUse" x1="95.0098" y1="243.4312" x2="109.2881" y2="243.4312">
			<stop  offset="0" style="stop-color:#304D5C"/>
			<stop  offset="0.1516" style="stop-color:#233843"/>
			<stop  offset="0.3701" style="stop-color:#142026"/>
			<stop  offset="0.5867" style="stop-color:#090E11"/>
			<stop  offset="0.7986" style="stop-color:#020404"/>
			<stop  offset="1" style="stop-color:#000000"/>
		</linearGradient>
		<path fill="url(#SVGID_76_)" d="M100.883,244.01c2.761-2.404,3.083-2.566,5.756-4.473c0.947-0.676,3.52-2.301,2.351-2.238
			c-3.078,0.166-7.494,1.867-10.14,4.406c-2.151,2.063-3.84,7.859-3.84,7.859S96.308,248,100.883,244.01z"/>
		<linearGradient id="SVGID_77_" gradientUnits="userSpaceOnUse" x1="91.627" y1="231.7285" x2="119.7248" y2="225.3131">
			<stop  offset="0" style="stop-color:#304D5C"/>
			<stop  offset="0.1516" style="stop-color:#233843"/>
			<stop  offset="0.3701" style="stop-color:#142026"/>
			<stop  offset="0.5867" style="stop-color:#090E11"/>
			<stop  offset="0.7986" style="stop-color:#020404"/>
			<stop  offset="1" style="stop-color:#000000"/>
		</linearGradient>
		<path fill="url(#SVGID_77_)" d="M94.165,230.952c0.798-2.861,1.682-5.842,3.526-8.2c1.248-1.593,3.237-2.492,5.125-3.113
			c4.112-1.353,9.905-1.482,14.119-0.478c7.296,1.738,8.555,9.324,8.512,8.033c-0.087-2.547-1.27-5.184-3.082-6.957
			c-1.79-1.751-4.021-2.828-6.402-3.395c-5.035-1.203-11.15-0.424-15.874,1.737c-1.819,0.833-3.312,2.038-4.484,3.685
			c-1.649,2.322-2.5,5.238-3.272,7.961c-0.783,2.781-2.292,6.309-3.85,8.732c-4.357,6.777-8.024,4.473-8.024,4.473
			s3.322,2.566,5.917,1.076C90.316,242.241,93.313,234.018,94.165,230.952z"/>
		<path opacity="0.6" fill="#FFFFFF" d="M338.342,122.823c3.021-3.724,5.734-7.8,7.72-12.198c0.337-0.743,0.212-1.61-0.528-2.053
			c-0.637-0.382-1.222-0.089-1.559,0.654c-1.88,4.168-4.86,7.934-7.707,11.476c-2.984,3.715-12.25,10.394-12.25,10.394l2.416,2.345
			C326.434,133.441,335.176,126.725,338.342,122.823z"/>
		<path opacity="0.6" fill="#FFFFFF" d="M284.748,95.025c3.054-10.826,6.251-15.194,7.009-14.799
			c0.656,0.341-3.215,6.083-5.927,16.271c-1.255,4.712-2.448,14.921-2.448,14.921l-1.883-0.296
			C281.499,111.123,283.354,99.972,284.748,95.025z"/>
		<path opacity="0.4" fill="#FFFFFF" d="M272.044,77.983c0.29-0.79,0.585-0.028,0.342,0.605
			c-3.924,10.254-0.162,31.441-0.162,31.441l-2.72-0.164C269.504,109.866,268.023,88.938,272.044,77.983z"/>
		<path opacity="0.4" fill="#FFFFFF" d="M341.685,105.063c0.109-0.683-2.228,4.186-2.698,4.985
			c-7.505,12.781-17.899,18.864-17.899,18.864l1.739,1.606C322.826,130.518,340.041,115.548,341.685,105.063z"/>
		<path opacity="0.7" fill="#FFFFFF" d="M273.243,106.049c0,1.355-0.005,2.723,0.059,4.063c0.049-0.003,0.34-0.051,0.349-0.127
			c0.058-0.522-0.052-1.1-0.064-1.635c-0.021-1.104-0.021-2.211-0.018-3.317c0.008-2.465,0.038-4.932,0.131-7.396
			c0.127-3.403,0.615-6.824,1.133-10.185c0.492-3.163,1.044-6.519,2.438-9.42c0.091-0.192-0.189-0.36-0.281-0.167
			c-1.449,3.014-2.003,6.487-2.511,9.771c-0.535,3.434-0.999,6.922-1.12,10.401C273.268,100.704,273.243,103.377,273.243,106.049z"
			/>
		<path opacity="0.4" fill="#FFFFFF" d="M165.156,186.041c-0.169,0.068-0.149,0.575,0.268,0.341
			c5.967-3.322,16.442,1.166,16.442,1.166l-0.051-2.192C181.815,185.356,173.119,182.786,165.156,186.041z"/>
		<path opacity="0.7" fill="#FFFFFF" d="M165.467,191.509c4.022-3.768,15.988-2.603,15.95-2.116
			c-0.027,0.362-11.124-1.208-15.883,2.459C165.4,191.953,165.343,191.623,165.467,191.509z"/>
		<path opacity="0.6" fill="#FFFFFF" d="M181.938,126.019c0.573,2.912,2.122,5.011,3.603,6.983c1.547,2.061,3.173,4.07,5.075,5.685
			c1.456,1.24,2.97,2.406,4.505,3.542c0.188,0.14,2.251,1.933,2.584,1.344c0.142-0.25-0.113-0.289-0.255-0.041
			c0.14-0.245,0.247-0.124,0.102-0.191c-0.067-0.033-0.129-0.068-0.192-0.105c-0.22-0.127-0.432-0.273-0.643-0.417
			c-0.653-0.444-1.286-0.916-1.917-1.39c-1.409-1.059-2.802-2.143-4.143-3.294c-1.853-1.591-3.426-3.597-4.938-5.612
			c-1.422-1.899-2.907-3.948-3.458-6.751C182.226,125.587,181.903,125.832,181.938,126.019L181.938,126.019z"/>
		<path opacity="0.7" fill="#FFFFFF" d="M329.775,136.508c2.954-0.927,5.618-2.791,8.123-4.591c2.524-1.817,5.055-3.718,7.305-5.887
			c1.79-1.723,3.528-3.503,5.247-5.299c0.227-0.238,2.747-2.605,2.332-2.924c-0.166-0.128-0.329,0.161-0.164,0.288
			c-0.164-0.125-0.005-0.249-0.145-0.067c-0.065,0.086-0.136,0.167-0.205,0.25c-0.219,0.255-0.444,0.504-0.671,0.749
			c-0.681,0.744-1.378,1.47-2.077,2.195c-1.586,1.644-3.185,3.272-4.834,4.849c-2.206,2.111-4.709,3.943-7.175,5.718
			c-2.404,1.729-4.987,3.506-7.825,4.399C329.488,136.251,329.573,136.572,329.775,136.508L329.775,136.508z"/>
		
			<radialGradient id="SVGID_78_" cx="-107.5068" cy="354.6914" r="14.9666" gradientTransform="matrix(0.9623 0 0 0.9833 271.9619 -13.2618)" gradientUnits="userSpaceOnUse">
			<stop  offset="0" style="stop-color:#3D6275"/>
			<stop  offset="0.3257" style="stop-color:#3B5F71"/>
			<stop  offset="0.6483" style="stop-color:#355565"/>
			<stop  offset="0.969" style="stop-color:#2A4451"/>
			<stop  offset="1" style="stop-color:#29424F"/>
		</radialGradient>
		<path fill="url(#SVGID_78_)" d="M155.684,336.406c3.149,0.998,6.787,1.801,10.06,2.191c6.413,0.766,13.051,0.635,19.258-1.43
			c1.193-0.396,3.582-1.695,3.582-1.695l-0.299-1c0,0-5.496,2.404-8.21,2.83c-3.38,0.531-8.278,1.834-20.501-0.688
			c-2.84-0.586-5.822-1.717-8.406-3.078c-0.674-0.354-2.265-1.551-2.265-1.551s-0.205,0.408-0.271,0.559
			c-0.05,0.119-0.197,0.523-0.197,0.523S151.348,335.029,155.684,336.406z"/>
		
			<radialGradient id="SVGID_79_" cx="-43.0986" cy="356.4619" r="13.1474" gradientTransform="matrix(0.9623 0 0 0.9833 271.9619 -13.2618)" gradientUnits="userSpaceOnUse">
			<stop  offset="0" style="stop-color:#3D6275"/>
			<stop  offset="0.3257" style="stop-color:#3B5F71"/>
			<stop  offset="0.6483" style="stop-color:#355565"/>
			<stop  offset="0.969" style="stop-color:#2A4451"/>
			<stop  offset="1" style="stop-color:#29424F"/>
		</radialGradient>
		<path fill="url(#SVGID_79_)" d="M230.291,339.922c7.69-0.086,17.896-4.207,17.896-4.207s-0.045-0.328-0.115-0.641
			c-0.076-0.328-0.121-0.506-0.121-0.506s-6.063,3.525-17.994,3.865c-10.004,0.285-17.104-1.879-17.104-1.879
			s-0.042,0.43-0.054,0.566c-0.022,0.295,0,0.475,0,0.475S218.949,340.047,230.291,339.922z"/>
		<path opacity="0.49" fill="#FFFFFF" d="M185.372,142.963c-3.042-1.217-6.294-2.194-9.679-2.677
			c-0.574-0.083-1.173,0.132-1.389,0.649c-0.187,0.448,0.097,0.753,0.669,0.835c3.208,0.458,6.275,1.645,9.165,2.789
			c3.033,1.199,9.812,5.153,9.812,5.153l1.25-1.772C195.2,147.94,188.56,144.238,185.372,142.963z"/>
		<path opacity="0.6" fill="#00C7F7" d="M277.463,180.198c-14.163,6.765-18.938,18.239-20.114,30.742
			c-0.201,2.18-0.394,3.182,0.171,3.34c0.463,0.129,1.254-31.513,29.161-32.711c1.263-0.055-0.003-1.042-1.261-1.094
			L277.463,180.198z"/>
		
			<linearGradient id="SVGID_80_" gradientUnits="userSpaceOnUse" x1="236.2593" y1="93.9556" x2="244.7491" y2="116.2132" gradientTransform="matrix(1.3169 0.002 0.002 1.3218 -87.7784 -17.3678)">
			<stop  offset="0" style="stop-color:#D91E1E"/>
			<stop  offset="1" style="stop-color:#F96E6E"/>
		</linearGradient>
		<path opacity="0.7" fill="url(#SVGID_80_)" d="M236.421,122.965c3.477,10.102-1.359,13.577-1.359,13.577s-7.313,0.891-10.79-9.211
			c-3.478-10.103-0.222-20.474-0.222-20.474S232.943,112.864,236.421,122.965z"/>
	</g>
	<g>
		<path fill="#025482" d="M393.168,406.178c10.14,8.18,9.749-9.199,26.708-8.563c15.878,0.598,12.494,21.164,8.785,28.555
			c-5.203,10.371-12.012,12.184-25.35,12.184c-14.424,0-28.822,1.09-45.189,0.186c-6.787-0.373-16.479-1.34-18.855-10.547
			c-4.303-16.668,20.391-45.477,26.805-55.781c4.515-7.252-4.195-12.311-8.659-5.842c-6.316,9.146-23.05,6.283-26.454-5.539
			c-3.432-11.914-1.746-32.055,14.449-31.465c29.887,1.092,64.304-5.75,71.512-0.471c9.951,7.287,3.743,23.928-1.398,31.932
			c-6.611,10.287-12.746,20.84-19.121,31.27C394.399,395.365,389.139,402.926,393.168,406.178z"/>
		<path fill="#1DA9EF" d="M399.319,344.199c-0.717,0.043-1.432,0.08-2.146,0.107c-4.992,0.191-9.981-0.092-14.975-0.137
			c-6.365-0.059-12.623,0.566-18.893,1.656c-7.303,1.268-14.571,2.77-21.943,3.57c-2.371,0.258-4.768,0.523-7.154,0.48
			c-1.578-0.027-3.711-0.158-4.146-2.055c-0.356-1.553-0.063-3.424-0.003-5.006c0.116-2.996,0.874-6.131,1.896-8.939
			c2.755-7.578,8.974-12.863,17.149-12.564c29.885,1.09,60.465-1.729,67.67,3.551c3.244,2.375,5.201,5.746,5.497,9.844
			c0.103,1.408,0.122,3.023-0.208,4.4c-0.242,1-0.371,1.873-1.406,2.309c-0.771,0.326-1.641,0.521-2.449,0.734
			c-1.598,0.418-3.288,0.361-4.908,0.705c-1.938,0.41-3.938,0.525-5.906,0.695C404.706,343.781,402.015,344.037,399.319,344.199z"/>
		<path fill="#0086D4" d="M393.168,401.002c10.14,8.18,8.537-4.908,25.494-4.27c15.88,0.596,13.708,16.871,9.999,24.264
			c-5.203,10.369-12.012,12.182-25.35,12.182c-14.424,0-28.822,1.09-45.189,0.186c-6.787-0.373-16.723-1.277-18.855-10.547
			c-2.436-10.578,20.391-45.477,26.805-55.781c4.515-7.25-4.195-12.311-8.659-5.842c-6.316,9.148-23.05,6.283-26.454-5.539
			c-3.432-11.912,1.561-30.951,17.754-30.361c29.888,1.092,60.466-1.729,67.674,3.551c9.949,7.287,4.276,18.805-0.865,26.807
			c-6.611,10.287-12.746,20.842-19.121,31.271C394.399,390.189,389.139,397.752,393.168,401.002z"/>
		<ellipse fill="#1DA9EF" cx="352.996" cy="342.344" rx="6.428" ry="6.568"/>
		<ellipse fill="#1DA9EF" cx="388.642" cy="337.367" rx="4.285" ry="4.379"/>
		<ellipse fill="#1DA9EF" cx="409.29" cy="344.932" rx="4.285" ry="4.379"/>
		<ellipse fill="#1DA9EF" cx="392.495" cy="367.145" rx="7.986" ry="8.16"/>
		<ellipse fill="#1DA9EF" cx="371.692" cy="384.662" rx="4.504" ry="4.604"/>
		<ellipse fill="#1DA9EF" cx="405.783" cy="420.172" rx="5.495" ry="5.613"/>
		<ellipse fill="#1DA9EF" cx="383.329" cy="416.199" rx="4.287" ry="4.381"/>
		<ellipse fill="#1DA9EF" cx="421.757" cy="405.84" rx="3.307" ry="3.379"/>
		<path fill="#1DA9EF" d="M361.313,417.012c0.523,4.256-2.427,8.137-6.592,8.672c-4.162,0.535-7.96-2.48-8.484-6.732
			c-0.524-4.254,2.426-8.137,6.589-8.672S360.788,412.76,361.313,417.012z"/>
	</g>
</g>
</svg>
